<svg height="18" viewBox="0 0 70 18" width="70" xmlns="http://www.w3.org/2000/svg"><g fill="none" fill-rule="evenodd" opacity=".601028"><path d="m62.2047161 11.9853207c-.7883282.6723958-1.8152867 1.079596-2.93698 1.079596-1.6429608 0-3.0826788-.8736031-3.8669785-2.1745763-.7377298 1.3009732-2.0918968 2.1745763-3.6369243 2.1745763-.62125 0-1.2211111-.1370834-1.7665277-.3986111-.1925.1429166-.4306945.2275-.6883334.2275h-1.155c-.6406944 0-1.1618055-.5220834-1.1618055-1.1627778v-.6251416c-.7605072 1.1810062-2.0488171 1.9590305-3.5074861 1.9590305-.44625 0-.8818056-.0709723-1.2930556-.2080556v1.5448611c0 .6406945-.5211111 1.1627778-1.1618056 1.1627778h-1.1540277c-.6406945 0-1.1618056-.5220833-1.1618056-1.1627778v-2.0652765c-.2043627.3339175-.5723277.5573599-.9914722.5573599h-1.155c-.2595833 0-.4997222-.0855556-.6931945-.2304167-.5473611.2615278-1.1501388.4015278-1.7616666.4015278-1.3387369 0-2.5341778-.6558918-3.3094661-1.6773809l.0007022.3420336c0 .6426389-.5220833 1.16375-1.1627778 1.16375h-1.1627778c-.6397222 0-1.1608333-.5211111-1.1608333-1.1618055v-3.79069446c0-.27513888-.1895833-.44041666-.3723611-.44041666-.1234722 0-.2838889.18180555-.3373611.44819444l.00875 3.78097218c0 .6426389-.5211111 1.16375-1.1618056 1.16375h-1.1627778c-.6406944 0-1.1618055-.5211111-1.1618055-1.1618055v-3.79069446c0-.27513888-.1886111-.44041666-.3723611-.44041666-.1331945 0-.3363889.22263889-.3548611.56972222l.0009722 3.6613889c0 .6406944-.5211111 1.1618055-1.1608333 1.1618055h-1.155c-.6406945 0-1.1618056-.5211111-1.1618056-1.1618055v-6.20180557c0-.64069444.5211111-1.16277777 1.1618056-1.16277777h1.155c.2090277 0 .4063888.05638888.5755555.15458333.4306945-.21194445.9070833-.32666667 1.3961111-.32666667.805 0 1.5565278.27027778 2.1525.74569445.5609722-.46375 1.2745834-.73694445 2.0241667-.74569445 1.4308969 0 2.6542472.84930979 3.1579622 2.04995844.7520441-1.23212575 2.0683254-2.05044455 3.5633017-2.05044455.62125 0 1.2211111.13805556 1.7665278.39958333.1925-.14194444.4306944-.22652777.6883333-.22652777h1.155c.4862992 0 .9037052.30021714 1.0766389.72507212.1729336-.42485498.5903397-.72507212 1.0766389-.72507212h1.1540277c.2595834 0 .4997223.08555555.6931945.22944444.5473611-.26152778 1.1511111-.4025 1.7616667-.4025 1.458669 0 2.7469789.77840451 3.5074861 1.95993348v-3.29576681c0-.64069445.5211111-1.16180556 1.1618055-1.16180556h1.155c.6397222 0 1.1608334.52111111 1.1608334 1.16180556v1.54875c.4151388-.14.8526388-.21291667 1.2940277-.21291667 1.5450275 0 2.8991945.87403007 3.6369243 2.1755742.7842997-1.30154413 2.2240177-2.1755742 3.8669785-2.1755742 1.1288308 0 2.1617173.41260037 2.9519997 1.09297666.1044318-.52343148.5679642-.91962944 1.122292-.91962944h1.3358333c.4472222 0 .8516667.22652778 1.0811111.60666667l.3295834.55125.3295833-.55319444c.2236111-.37819445.6397222-.61347223 1.085-.61347223h1.3348611c.2294444 0 .4491667.06513889.6338889.18861111.5288889.35388889.6708333 1.06847223.3188889 1.59152778l-1.6245834 2.47430556 1.68 2.55500002.0252778.0515278c.0855556.1701388.1283334.3509722.1283334.5376388 0 .6309723-.5133334 1.1443056-1.1452778 1.1443056h-1.3173611c-.4452778 0-.8613889-.2352778-1.0859723-.6134722l-.3519444-.5872222-.3558333.5911111c-.2275.3772222-.6426389.6095833-1.0830556.6095833h-1.3358333c-.2226389 0-.4375-.0622222-.62125-.1808333-.268236-.1817239-.4382054-.4489805-.4985617-.735721zm1.5404131-2.95431185.2687041-.40885607-.2705233-.41158885c.0132206.13828823.0199817.27840325.0199817.42004718 0 .13494054-.0061412.26849235-.0181625.40039774zm-13.2665736-.41109218c.0048611.62805555.4618055 1.11416666 1.0179166 1.11416666.5609722 0 1.0179167-.49486111 1.0179167-1.10347222s-.4569445-1.10444444-1.0179167-1.10444444-1.0081944.48027777-1.0179166 1.09375zm7.7625138.01069444c0 .60861111.4569445 1.10347222 1.0179167 1.10347222s1.0179167-.49486111 1.0179167-1.10347222-.4569445-1.10444444-1.0179167-1.10444444-1.0179167.49583333-1.0179167 1.10444444zm-24.8789722 0c0 .60861111.4569445 1.10347222 1.0179167 1.10347222.5561111 0 1.0120833-.48611111 1.0169444-1.08597222-.0048611-.63486111-.4608333-1.12194444-1.0169444-1.12194444-.5609722 0-1.0179167.49583333-1.0179167 1.10444444zm8.8382778-.01166667c.0048611.62902778.4618056 1.11513889 1.0179167 1.11513889.5609722 0 1.0179166-.49486111 1.0179166-1.10347222s-.4569444-1.10444444-1.0179166-1.10444444c-.5609723 0-1.0081945.48027777-1.0179167 1.09277777zm-42.20066667.01166667c0-4.75902778 3.87236111-8.63041667 8.63041667-8.63041667 4.7590278 0 8.6304167 3.87138889 8.6304167 8.63041667 0 4.75805559-3.8713889 8.63041669-8.6304167 8.63041669-4.75805556 0-8.63041667-3.8723611-8.63041667-8.63041669z" fill="#fff"/><path d="m51.4964722 10.7067917c1.0947222 0 1.9901389-.9304167 1.9901389-2.0766667 0-1.14527778-.8866667-2.07569444-1.9901389-2.07569444-1.09375 0-1.9716666.91291666-1.9901389 2.04944444v.0525c.0097223 1.1375.8963889 2.0504167 1.9901389 2.0504167zm.2673611-5.53972226c1.8005556 0 3.2559723 1.55069445 3.2559723 3.46305556 0 1.9123611-1.4554167 3.4630556-3.2559723 3.4630556-.8613889 0-1.67125-.3538889-2.26625-.9731945v.6115278c0 .1030555-.0855555.1895833-.1886111.1895833h-1.155c-.1030555 0-.1895833-.0865278-.1895833-.1895833v-8.87250001c0-.10402778.0865278-.19055556.1895833-.19055556h1.155c.1030556 0 .1886111.08652778.1886111.19055556v3.28125c.595-.61930556 1.4126389-.97319445 2.26625-.97319445zm7.4951528 5.53972226c1.09375 0 1.9901389-.9304167 1.9901389-2.0766667 0-1.14527778-.8963889-2.07569444-1.9901389-2.07569444-1.0947222 0-1.9901389.93041666-1.9901389 2.07569444 0 1.14625.8866667 2.0766667 1.9901389 2.0766667zm.00875-5.53972226c1.9463889 0 3.5233333 1.55069445 3.5233333 3.46305556 0 1.9123611-1.5769444 3.4630556-3.5233333 3.4630556-1.9473611 0-3.5233333-1.5506945-3.5233333-3.4630556 0-1.91236111 1.5759722-3.46305556 3.5233333-3.46305556zm-24.8877222 5.53972226c1.09375 0 1.9804167-.9129167 1.9891667-2.0504167v-.0525c-.00875-1.13652778-.8954167-2.04944444-1.9891667-2.04944444-1.0947222 0-1.9901389.93041666-1.9901389 2.07569444 0 1.14625.8866667 2.0766667 1.9901389 2.0766667zm3.3425-5.36763892c.1030555 0 .1895833.08652778.1895833.18958333v6.20277779c0 .1030555-.0865278.1895833-.1895833.1895833h-1.155c-.1030556 0-.1886111-.0865278-.1886111-.1895833v-.6115278c-.595.6193056-1.4126389.9731945-2.26625.9731945-1.8005556 0-3.2559722-1.5506945-3.2559722-3.4630556 0-1.91236111 1.4554166-3.46305556 3.2559722-3.46305556.8613889 0 1.67125.35388889 2.26625.97319445v-.61152778c0-.10305555.0855555-.18958333.1886111-.18958333zm5.4957778 5.36763892c1.1025 0 1.9901389-.9304167 1.9901389-2.0766667 0-1.14527778-.8876389-2.07569444-1.9901389-2.07569444-1.09375 0-1.9726389.91291666-1.9901389 2.04944444v.0525c.00875 1.1375.8963889 2.0504167 1.9901389 2.0504167zm.2663889-5.53972226c1.8005555 0 3.2569444 1.55069445 3.2569444 3.46305556 0 1.9123611-1.4563889 3.4630556-3.2569444 3.4630556-.8604167 0-1.6702778-.3538889-2.2652778-.9731945v3.2822222c0 .1030556-.0865278.1895834-.1895834.1895834h-1.1540277c-.1040278 0-.1895834-.0865278-.1895834-.1895834v-8.87347219c0-.10305555.0855556-.18958333.1895834-.18958333h1.1540277c.1030556 0 .1895834.08652778.1895834.18958333v.61152778c.595-.61930556 1.4126389-.97319445 2.2652778-.97319445zm-16.0829862.00019445c1.3348612 0 2.4208334 1.02472222 2.4208334 2.30027778l.00875 4.26319443c0 .1040278-.0865278.1905556-.1895834.1905556h-1.16375c-.1030555 0-.1886111-.0865278-.1886111-.1905556v-3.78972221c0-.80111111-.6125-1.41263889-1.3445833-1.41263889-.6620833 0-1.2055556.58527778-1.3086111 1.34361111l.0077778 3.85874999c0 .1040278-.0855556.1905556-.1895834.1905556h-1.1618055c-.1040278 0-.1905556-.0865278-.1905556-.1905556v-3.78972221c0-.80111111-.6105555-1.41263889-1.3436111-1.41263889-.7068055 0-1.2833333.66305556-1.3270833 1.49041667v3.71194443c0 .1040278-.0855556.1905556-.1886111.1905556h-1.1540278c-.1040278 0-.1905556-.0865278-.1905556-.1905556v-6.20180554c0-.10305556.0865278-.18958334.1905556-.18958334h1.1540278c.1030555 0 .1886111.08652778.1886111.18958334v.55125c.4141666-.56875 1.0772222-.91291667 1.7830555-.91291667.9051389-.00875 1.7490278.49097222 2.1719445 1.29208333.3704166-.78361111 1.1540278-1.28333333 2.0154166-1.29208333zm41.6004167 6.48705551c.0175.0340278.0252778.0680556.0252778.1030556 0 .0943056-.0777778.1720833-.1720833.1720833h-1.3183334c-.1030555 0-.1983333-.0515277-.2498611-.1370833l-1.1880555-1.98138889-1.1890278 1.98138889c-.0525.0855556-.1468056.1370833-.2498611.1370833h-1.3358334c-.0340277 0-.0680555-.00875-.0943055-.0252777-.0777778-.0525-.1030556-.1643056-.0515278-.2411112l1.9979167-3.04111107-1.9813889-3.01583333c-.0165278-.02527778-.0252778-.06027778-.0252778-.09430556 0-.09527777.0777778-.17208333.1720833-.17208333h1.3358334c.1030555 0 .1973611.05152778.2498611.13708333l1.1627778 1.94736112 1.1627777-1.95513889c.0515278-.08652778.1468056-.13805556.2498611-.13805556h1.3348612c.035 0 .0690277.00875.0952777.02527778.0777778.0525.1030556.16430555.0505556.24208333l-1.9804167 3.01486111zm-56.7363611-1.1459583c1.4554167-1.45638888 1.4038889-3.87624999-.1205556-5.39291666-1.5244444-1.51569444-3.93749996-1.57597222-5.39291662-.12055555-2.62694445 2.62791667-1.78305556 7.29652781-1.78305556 7.29652781s4.67833334.8351389 7.29652778-1.7830556zm-3.63513889-9.53652777c4.22916669 0 7.65819449 3.42902778 7.65819449 7.65819445 0 4.23013892-3.4290278 7.65819442-7.65819449 7.65819442-4.23013889 0-7.65819444-3.4280555-7.65819444-7.65819442 0-4.22916667 3.42805555-7.65819445 7.65819444-7.65819445zm.87888889 4.48836111.7495833 1.54194445 1.5409723.74958333-1.5409723.74958334-.7495833 1.54194444-.74958333-1.54194444-1.54194445-.74958334 1.54194445-.74958333z" fill="#555"/></g></svg>