<svg height="32" viewBox="0 0 32 32" width="32" xmlns="http://www.w3.org/2000/svg"><path d="m5.333 18.667c-1.231 0-2.133-1.474-2.133-3.2s.903-3.2 2.133-3.2c1.231 0 2.133 1.474 2.133 3.2s-.903 3.2-2.133 3.2zm6.4-4.8c-1.538 0-2.667-1.966-2.667-4.267s1.128-4.267 2.667-4.267c1.538 0 2.667 1.966 2.667 4.267s-1.128 4.267-2.667 4.267zm8.534 0c-1.538 0-2.667-1.966-2.667-4.267s1.128-4.267 2.667-4.267c1.538 0 2.667 1.966 2.667 4.267s-1.128 4.267-2.667 4.267zm6.4 4.8c-1.231 0-2.133-1.474-2.133-3.2s.903-3.2 2.133-3.2c1.231 0 2.133 1.474 2.133 3.2s-.903 3.2-2.133 3.2zm-10.667 5.866c-1.009 0-2.023.345-3.398 1.063-.142.074-1.194.643-1.481.786-.602.3-1.053.466-1.505.509-1.485.139-2.15-.987-2.15-2.891 0-4.992 3.803-9.067 8.533-9.067s8.533 4.075 8.533 9.067c0 1.904-.665 3.031-2.15 2.891-.452-.042-.903-.209-1.505-.509-.287-.143-1.339-.712-1.481-.786-1.374-.718-2.388-1.063-3.398-1.063z"/></svg>