<svg height="32" viewBox="0 0 18 32" width="18" xmlns="http://www.w3.org/2000/svg"><path d="m17.799 21.49s-.597.89-1.386 1.155c-1.582.532-4.002.09-5.556.451-2.588.601-4.287 4.263-4.287 4.263.664.54 1.405-1.113 2.803-1.964 2.516-1.531 6.209-1.271 6.209-1.271s-.851.508-2.653.785-3.632 1.248-5.512 2.958-2.279 2.218-2.279 2.218-.693-2.403-.093-4.067 3.836-3.374 6.609-5.73c2.773-2.357 4.252-7.348 2.264-14.188-1.289-4.438-4.205-6.1-4.205-6.1s.039 1.329-.832 3.328c-2.496 5.731-7.857 6.146-8.827 13.818-.432 3.413 1.941 7.302 1.941 7.302.706-.18-.665-3.651 1.618-9.104 1.203-2.874 2.819-4.113 4.668-6.239s2.218-4.39 2.218-4.39.601.739.093 2.727c-.489 1.912-4.589 6.16-5.777 8.919-1.433 3.327-1.433 4.991-1.34 8.226.09 3.144 1.248 7.024 1.248 7.024l.97-.323s.093-.924 1.155-1.796 3.343-.192 4.437-.006c1.31.223 2.68.231 4.853-2.172s1.664-5.823 1.664-5.823z" fill="#fff"/></svg>