<svg height="32" viewBox="0 0 32 32" width="32" xmlns="http://www.w3.org/2000/svg"><path d="m9.2 12.8c1.767 0 3.2 1.433 3.2 3.2s-1.433 3.2-3.2 3.2-3.2-1.433-3.2-3.2 1.433-3.2 3.2-3.2zm12.8 0c1.767 0 3.2 1.433 3.2 3.2s-1.433 3.2-3.2 3.2-3.2-1.433-3.2-3.2 1.433-3.2 3.2-3.2zm-12.8-10.8c1.767 0 3.2 1.433 3.2 3.2s-1.433 3.2-3.2 3.2-3.2-1.433-3.2-3.2 1.433-3.2 3.2-3.2zm12.8 0c1.767 0 3.2 1.433 3.2 3.2s-1.433 3.2-3.2 3.2-3.2-1.433-3.2-3.2 1.433-3.2 3.2-3.2zm-12.8 21.6c1.767 0 3.2 1.433 3.2 3.2s-1.433 3.2-3.2 3.2-3.2-1.433-3.2-3.2 1.433-3.2 3.2-3.2zm12.8 0c1.767 0 3.2 1.433 3.2 3.2s-1.433 3.2-3.2 3.2-3.2-1.433-3.2-3.2 1.433-3.2 3.2-3.2z" fill="#aaa"/></svg>