<svg viewBox="0 0 283.23 278.29" xmlns="http://www.w3.org/2000/svg" xmlns:xlink="http://www.w3.org/1999/xlink"><linearGradient id="a" gradientUnits="userSpaceOnUse" x1="99.67" x2="115.2" y1="153.69" y2="153.69"><stop offset="0" stop-color="#6faa76"/><stop offset=".05" stop-color="#69a672"/><stop offset=".2" stop-color="#5e9d6b"/><stop offset=".41" stop-color="#579766"/><stop offset="1" stop-color="#559665"/></linearGradient><linearGradient id="b" x1="82.48" x2="109.6" xlink:href="#a" y1="163.32" y2="163.32"/><linearGradient id="c" x1="66.37" x2="109.54" xlink:href="#a" y1="171.48" y2="171.48"/><linearGradient id="d" x1="109.54" x2="150.46" xlink:href="#a" y1="170.07" y2="170.07"/><path d="m30.28 166v35.48c0 20.5 11.52 38 29.09 48.56l2.94 1.76a185.67 185.67 0 0 0 194.87-2.29 56 56 0 0 0 26-47.29v-44.45z" fill="#efdf9e"/><path d="m283.22 167.39c0 36.22-57 65.66-126.75 65.64s-126.2-29.39-126.19-65.61c0-3.53.77-9.65.77-9.65 9.57-31.29 62.54-55.92 125.45-55.9 66.62 0 122 26.21 126.72 60.21z" fill="#305636"/><ellipse cx="157.02" cy="161.45" fill="#3a6843" rx="126.21" ry="65.58"/><path d="m167.59 178.4-56.13-38.25c-14.32-3.08-32.18-3.57-44 5-4.68 3.4-10.39 13-.79 19.43a46.3 46.3 0 0 0 11.09 5.06c-.35-.11-.7-.22-1.07-.32l-2-.54-11.77-3-5.78-1.5c-.24-.06-.48-.12-.7-.16l-.64-.12a7.29 7.29 0 0 0 -1-.09c-.51 0-.66.14-.17.4l8.34 4.44a29.61 29.61 0 0 0 5.44 2.08l7.29 2.17c-3.46-.66-6.9-1.23-10.23-1.69-4.58-.63-9.25-1.17-13.47-1.44-.73 0-.69.13-.15.35a5.18 5.18 0 0 0 .69.22c2.57.69 5.07 1.33 7.52 2l1.75.43 6 1.47.22.05c14 3.28 25.22 5.55 32.8 7l-18-3.22h.05l-5.88-1.17a85.84 85.84 0 0 0 -13.65-1.55l-12.22-.19c-.68 0-.65.19-.19.38a5 5 0 0 0 1.21.32l28.08 4.2 29.37 3.08 7.45-5.42c.3-.29 4.86-.82 4.86-.82 23.92 1.85 45.68 1.4 45.68 1.4zm-66.54-2.4-.48 3.19-19.5-8.33-.64-.25-1.34-.48a151.29 151.29 0 0 0 23.08 4.81c-.74.24-1.17.59-1.12 1.06z" fill="#274435" opacity=".7"/><ellipse cx="182.24" cy="177.27" fill="#d7d9b0" opacity=".4" rx="5.81" ry="1.73" transform="matrix(.88861723 -.45864955 .45864955 .88861723 -61.01 103.33)"/><path d="m177.62 66.74c-.9-.43-.72-1.17-2.12-1.66l-9 14.51 3.5 1.54c1.74.77 3-.76 3.47-1.64l4.94-10.82c.49-1.15.31-1.41-.79-1.93z" fill="#c68477"/><path d="m177.62 65a43.78 43.78 0 0 0 -4.93-1.86c.46.19.89.37 1.26.55a2.34 2.34 0 0 1 1.12 3l-5 10.86a2.68 2.68 0 0 1 -2 1.17l2.75 1.19a2.53 2.53 0 0 0 2.86-1l5-10.86a2.34 2.34 0 0 0 -1.06-3.05z" fill="#d58f7e"/><path d="m99 113.87.2 8.83v15.12a13.71 13.71 0 0 1 -1.2 5.68 34.39 34.39 0 0 0 -2.73 16.61c.21.42 16 11.34 16 11.34l42.6 2.7 13.72 4.25 36.57-5.88a16 16 0 0 0 6.5-2.58l6.44-4.37a10.27 10.27 0 0 0 2.71-2.71l3.43-5.05a10.17 10.17 0 0 0 1.49-8.11l-4.28-17.93a10 10 0 0 1 -.28-2.37v-8a10.19 10.19 0 0 0 -1.25-4.89 10.19 10.19 0 0 1 -1.25-4.89v-10.53z" fill="#d58f7e"/><path d="m194.9 174.07 9.1-1.42a17.19 17.19 0 0 0 6.95-2.74l6.15-4.18a10.27 10.27 0 0 0 2.71-2.71l3.43-5.05a10.17 10.17 0 0 0 1.49-8.11l-4.28-17.93a10 10 0 0 1 -.28-2.37v-8.47a10.58 10.58 0 0 0 -.78-4.75c-1.21-2.3.14-15.72 0-16.85l-30.64 20.81c12.59 31.83 6.15 53.77 6.15 53.77z" fill="#eab988"/><path d="m193 87.7s-55.9-12.33-90.31 18a10.35 10.35 0 0 0 -3.35 5.6c-.88 4.12-.7 10.06 14.25 13.59 9 2.36 82 5.51 104.34-20.5 1.35-1.57 3.63-9.94-3.86-12.55 0 .22-57.29 13.87-57.29 13.87z" fill="#f6eed3"/><path d="m167.59 178.4-9.71-37.12-4.01 32.87z" fill="#eab988"/><path d="m192.97 87.7v9.36l-36.22 8.68z" fill="#d58f7e"/><path d="m162.61 56.18 14.1 7.39a1.65 1.65 0 0 1 .71 2.21l-11 21.52c-.06.13-.12.25-.17.38l-5.85 15.22-18.68-9.44 16.92-35.95a2.9 2.9 0 0 1 3.97-1.33z" fill="#463c56"/><path d="m148.85 74.29-9.27 17.58 2.14 1.59 12.82-13.82a5.45 5.45 0 0 0 .87-1.26l9.39-18.67c.76-1.52.48-2.28-1.08-3l-1.55-.71a2.61 2.61 0 0 0 -3.49 1z" fill="#605772"/><path d="m163.72 56.76-1.55-.76a2.61 2.61 0 0 0 -2.85.27 2.57 2.57 0 0 1 1.5.28l1.55.81c1.57.67 1.85 1.43 1.08 2.95l-9.38 18.68a5.71 5.71 0 0 1 -.87 1.25l-12 12.9.49.37 12.82-13.82a5.45 5.45 0 0 0 .87-1.26l9.39-18.67c.79-1.57.51-2.33-1.05-3z" fill="#564f66"/><path d="m160.4 102.9-1.03 2.13-15.64 5.53-3.48-3.83 1.07-3.4-2.65 2.02-3.92-4.38 6.97-7.51z" fill="#b3bce5"/><path d="m141.77 93.46-.05.06 17.62 8.9-1.03 2.14-15.13 5.35.6.65 15.65-5.53 1.02-2.13z" fill="#abb4d8"/><path d="m141.72 93.46-2.14-1.59-4.83 9.1z" fill="#8b9faf"/><path d="m160.87 58.71c-5.7-2.6-20.94-6.33-30.6-8.55a80.4 80.4 0 0 1 -16.71-5.84c-17.46-8.32-56.46-26.98-56.56-26.98-26.06-12.07-40.26-14.96-47.64-15.23-5.11-.19-9.54 1.36-9.36 6.47.33 9.14 7.88 9.52 11.12 9 16.23-2.58 40.55 10.91 40.55 10.91l50.47 26.51c1.76.92 3.55 1.77 5.38 2.53 0 0 32.77 13.42 44 18.23 2.14.91 3.64-.9 4.26-1.94l6.07-12.82c.59-1.37.37-1.67-.98-2.29zm-150.43-45.34a3.4 3.4 0 1 1 2.82-2.82 3.4 3.4 0 0 1 -2.82 2.82z" fill="#c68477"/><path d="m56.41 16.57c-26.07-12.08-39.67-14.19-47.05-14.46-5.11-.19-9.54 1.36-9.36 6.47.33 9.14 7.87 9.45 11.12 9 16.35-2.25 38.95 10.06 38.95 10.06a4.34 4.34 0 0 0 1.59-1.25c2.2-2.88 4.81-9.82 4.75-9.82zm-46-3.2a3.4 3.4 0 1 1 2.82-2.82 3.39 3.39 0 0 1 -2.79 2.82z" fill="#cc8a81"/><path d="m141.22 93.09-5.35 5.76-1.12 2.12 6.97-7.51z" fill="#80929e"/><path d="m160.87 56.61c-5.7-2.6-20.94-6.33-30.6-8.55a79.83 79.83 0 0 1 -16.71-5.84c-17.46-8.34-56.46-27-56.55-27-26.07-12.05-40.27-14.94-47.66-15.22a8.9 8.9 0 0 0 -9.35 9c.2 6.8 7.88 7 11.12 6.49 16.23-2.59 40.55 10.9 40.55 10.9l50.47 26.47c1.76.92 3.55 1.77 5.38 2.53l45.09 18.87a3.19 3.19 0 0 0 3.51-1.26l6.12-12.85a2.73 2.73 0 0 0 -1.37-3.54zm-150.97-45.29a3.4 3.4 0 1 1 3.4-3.4 3.4 3.4 0 0 1 -3.4 3.4z" fill="#d58f7e"/><path d="m9.35 0a8.9 8.9 0 0 0 -9.35 9c.2 6.8 7.88 7 11.12 6.49 16.23-2.59 40.55 10.9 40.55 10.9s5.43-11.15 5.33-11.15c-26.06-12.07-40.26-14.96-47.65-15.24zm.55 11.32a3.4 3.4 0 1 1 3.4-3.4 3.4 3.4 0 0 1 -3.4 3.4z" fill="#e59989"/><path d="m140.25 106.73-.67-.63.67-1.96 1.07-.81z" fill="#abb4d8"/><g fill="#d7d9b0"><ellipse cx="211.3" cy="184.52" opacity=".4" rx="3.91" ry="1.16" transform="matrix(.88861723 -.45864955 .45864955 .88861723 -61.09 117.47)"/><ellipse cx="213.53" cy="192.66" opacity=".4" rx="3.91" ry="1.16" transform="matrix(.88861723 -.45864955 .45864955 .88861723 -64.58 119.39)"/><ellipse cx="262.37" cy="167.45" opacity=".4" rx="3.91" ry="1.16" transform="matrix(.88861723 -.45864955 .45864955 .88861723 -47.58 138.98)"/><ellipse cx="228.52" cy="136.78" opacity=".4" rx="3.91" ry="1.16" transform="matrix(.88861723 -.45864955 .45864955 .88861723 -37.28 120.04)"/><ellipse cx="227.33" cy="184.52" opacity=".4" rx="3.91" ry="1.16" transform="matrix(.88861723 -.45864955 .45864955 .88861723 -59.31 124.81)"/><ellipse cx="258.85" cy="154.46" opacity=".4" rx="3.91" ry="1.16" transform="matrix(.88861723 -.45864955 .45864955 .88861723 -42.01 135.93)"/><ellipse cx="200.46" cy="181.49" opacity=".4" rx="3.91" ry="1.16" transform="matrix(.88861723 -.45864955 .45864955 .88861723 -60.91 112.15)"/><ellipse cx="99.02" cy="189.89" opacity=".4" rx="3.91" ry="1.16" transform="matrix(.88861723 -.45864955 .45864955 .88861723 -76.06 66.57)"/><ellipse cx="221.61" cy="181.49" opacity=".4" rx="2.66" ry=".79" transform="matrix(.88861723 -.45864955 .45864955 .88861723 -58.56 121.85)"/><ellipse cx="254.29" cy="164.62" opacity=".4" rx="2.66" ry=".79" transform="matrix(.88861723 -.45864955 .45864955 .88861723 -47.18 134.96)"/><ellipse cx="227.33" cy="145.15" opacity=".4" rx="2.66" ry=".79" transform="matrix(.88861723 -.45864955 .45864955 .88861723 -41.25 120.43)"/><ellipse cx="191.14" cy="192.66" opacity=".4" rx="2.66" ry=".79" transform="matrix(.88861723 -.45864955 .45864955 .88861723 -67.07 109.12)"/><ellipse cx="190.58" cy="210.63" opacity=".4" rx="2.66" ry=".79" transform="matrix(.88861723 -.45864955 .45864955 .88861723 -75.38 110.87)"/><ellipse cx="134.75" cy="217.44" opacity=".4" rx="2.66" ry=".79" transform="matrix(.88861723 -.45864955 .45864955 .88861723 -84.72 86.02)"/><ellipse cx="167.59" cy="187.82" opacity=".4" rx="2.66" ry=".79" transform="matrix(.88861723 -.45864955 .45864955 .88861723 -67.48 97.78)"/><ellipse cx="109.83" cy="195.29" opacity=".4" rx="2.66" ry=".79" transform="matrix(.88861723 -.45864955 .45864955 .88861723 -77.33 72.12)"/><ellipse cx="92.78" cy="130.45" opacity=".4" rx="2.66" ry=".79" transform="matrix(.88861723 -.45864955 .45864955 .88861723 -49.5 57.08)"/><ellipse cx="227.33" cy="172" opacity=".4" rx="5.81" ry="1.73" transform="matrix(.88861723 -.45864955 .45864955 .88861723 -53.57 123.42)"/></g><path d="m109.89 171.91 5.11-25.53a10.35 10.35 0 0 0 -.62-6.07l-5.77-13.54a1.81 1.81 0 0 0 -3.37.08l-4.93 13.33a10.36 10.36 0 0 0 -.3 6.23l9.38 35.11a.25.25 0 0 0 .5-.06z" fill="url(#a)"/><path d="m114.38 140.31-5.77-13.54a1.81 1.81 0 0 0 -3.37.08l-.65 1.77 5.64 13.24a10.31 10.31 0 0 1 .62 6.06l-4.47 22.34 3 11.26a.25.25 0 0 0 .5-.06v-9.55l5.12-25.53a10.35 10.35 0 0 0 -.62-6.07z" fill="#4b774e" opacity=".4"/><path d="m109.6 183.25v-11.47a28 28 0 0 0 -14.37-24 38.77 38.77 0 0 0 -11.48-4.34 1.08 1.08 0 0 0 -1.09 1.66c13.34 27.24 26.94 38.15 26.94 38.15z" fill="url(#b)"/><path d="m89 156.88c4.2.81 5.94-4.22 9.33-2.31a27.63 27.63 0 0 1 9.85 9.35 27.81 27.81 0 0 0 -13-16.1 38.77 38.77 0 0 0 -11.48-4.34 1.08 1.08 0 0 0 -1.09 1.66c1 2.05 2 4 3 5.86z" fill="#4b774e" opacity=".4"/><path d="m109.54 183.25-18.38-18.33a16 16 0 0 0 -10.59-4.65l-13-.56a1.14 1.14 0 0 0 -.68 2.09l19 12.6z" fill="url(#c)"/><path d="m72.41 164.31 13 .56a15.94 15.94 0 0 1 9 3.27l-3.24-3.23a16 16 0 0 0 -10.59-4.65l-13-.56a1.14 1.14 0 0 0 -.68 2.09l4.54 3a1.12 1.12 0 0 1 .97-.48z" fill="#4b774e" opacity=".4"/><path d="m109.54 171.78 11-10a18.75 18.75 0 0 1 14.61-4.78l14 1.49a1.48 1.48 0 0 1 .35 2.87l-14.78 5.42a18.26 18.26 0 0 0 -4.12 2.12l-21 14.36z" fill="url(#d)"/><path d="m149.53 158.59a1.45 1.45 0 0 1 -.62.45l-14.78 5.42a18.75 18.75 0 0 0 -4.13 2.12l-20.46 14v2.7l21-14.36a18.47 18.47 0 0 1 4.12-2.12l14.78-5.42a1.48 1.48 0 0 0 .09-2.79z" fill="#4b774e" opacity=".4"/></svg>