<svg height="32" viewBox="0 0 27 32" width="27" xmlns="http://www.w3.org/2000/svg"><path d="m.248 19.958c.242-.968.823-2.533 1.775-4.695.952-2.146 1.468-3.872 1.565-5.179.936 1.726 1.468 3.437 1.597 5.147 3.533-4.356 5.357-9.439 5.502-15.231.226.145.532.339.904.597.371.242 1.065.791 2.049 1.63 1 .839 1.888 1.71 2.646 2.614.774.904 1.484 2.049 2.162 3.437s1.081 2.791 1.226 4.179c.371-.839.597-1.759.694-2.791.081-1.016-.032-1.968-.355-2.84.371.274.855.742 1.468 1.388.597.645 1.275 1.533 2.017 2.646s1.404 2.291 1.985 3.55c.581 1.242.952 2.646 1.113 4.195.161 1.565.048 3.066-.323 4.534-.371 1.452-1.226 2.969-2.565 4.518-1.355 1.549-3.162 2.985-5.437 4.276 1.533-3.066 1.839-6.357.904-9.906-.92-3.55-2.759-6.276-5.486-8.18.226 1.016.097 2.694-.387 5.05-.484 2.339-1.258 4.114-2.339 5.308.194-1.484.242-2.678.145-3.614-.097-.92-.226-1.613-.419-2.081l-.339-.629c-.29 1.678-1 3.34-2.162 5.018-.613.871-1.065 1.678-1.355 2.42-.307.742-.42 1.694-.355 2.856s.436 2.42 1.081 3.759c-3.195-1.807-5.34-3.646-6.438-5.502s-1.388-4.001-.871-6.47z" fill="#fff"/></svg>