<svg height="40" viewBox="0 0 39 40" width="39" xmlns="http://www.w3.org/2000/svg"><path d="m38.8401552 18.0477879c.2334054 1.5297792.2075423 3.1394691-.0536623 4.8078321-.3801261 2.4246928-1.1619758 4.7413497-2.568106 8.0020774-.0795186.1840154-.1532917.3665815-.2625832.6459632-.0147613.0377344-.0278979.0713879-.055824.1429687-.4452654 1.1411154-.6927342 1.6518539-1.1505983 2.2191322-.6473411.8027132-1.3039834 1.3407795-2.7698393 2.3809794-1.7595077 1.2476774-2.5844497 1.7610979-3.7179911 2.2079675-.862091.3402104-1.6398132.5293937-3.1630146.8195524-4.2151998.8037853-6.5918227.9716086-9.1295401.3436137-.5050707-.124866-.9027406-.2499969-1.7767098-.5452503-1.2814573-.4327278-1.8747013-.6012896-2.5893169-.7018072-.6876086-.0972364-1.2486438-.1023719-2.52516986-.0584189-.14108912.004858-.2043134.0070019-.28309541.0095508-.53764291.0173943-.90671016.0220854-1.28018054.0117206-1.69705341-.0470977-3.08076605-.4872842-3.98416761-1.4394076-.52074148-.5489676-.84893956-1.2159776-1.04593088-2.0404786-.14633688-.6124885-.20246633-1.1281608-.28210405-2.2927937-.01183696-.1731053-.01650439-.2406605-.02303066-.3320641-.09363339-1.3113802-.21737794-2.0589967-.51929317-2.7798423-.10104366-.2416197-.19922199-.4320807-.43388201-.8590977-.27772215-.5053787-.39478786-.7367369-.51260867-1.0438809-.22819837-.5936663-.31359712-1.0927481-.42802962-2.1923205-.37301678-3.580762-.40700274-5.2539886.05670467-7.2416859.0848086-.3636018.16572867-.6507616.3552299-1.2860303.28280628-.9482919.39549565-1.3839956.47405732-1.9084045.05598128-.3720691.07907941-.6756009.11457793-1.3645335.02441841-.4728112.03878386-.6976995.06335135-.9531896.3772825-3.92905794 3.06966627-7.55197122 6.75646895-9.09173213.29810519-.12460897.54541627-.21685513 1.07670189-.40696801.77725174-.27812144 1.11146017-.40791153 1.50895597-.60027111.4251444-.20565792.7569281-.40315708 1.4845081-.86535842.9321919-.59216443 1.3646574-.84061663 1.9380239-1.07699251 1.0866875-.44796356 2.2880289-.61038622 3.665831-.54454 1.0560235.05046819 2.0501.20738794 3.6863443.54078786 2.2018444.44882002 3.2713863.73657562 4.4573786 1.29231668.9095729.42709722 1.5906836.86697844 3.0270244 1.890064.8354722.5941744 1.2067956.85827248 1.6709553 1.18847001.612702.43586874 1.1537943.82093308 1.6709013 1.18911299.7858619.55894719 1.1357289.83349449 1.5191047 1.23262814.4698254.49001472.7875847.96330289 1.3626208 1.94601453 2.2341854 3.81474887 3.2571585 6.07619497 3.6659377 8.75431557zm-.5837034.0869457c-.3944983-2.5845591-1.3942085-4.794579-3.5932241-8.54927729-.55258-.94433509-.8520889-1.39044007-1.2800019-1.83674161-.3493342-.3636926-.679585-.62284669-1.4357416-1.1606659-.5171547-.3682139-1.0581838-.75323324-1.6708251-1.18905874-.4641307-.33017691-.8354396-.59426477-1.6710659-1.18854889-1.4077852-1.00274566-2.0686306-1.42953893-2.9351611-1.83642537-1.1295838-.52930867-2.1668242-.80837366-4.3234565-1.24797771-3.3836538-.68945083-5.194051-.7759711-7.0056023-.02919799-.5308524.21884903-.9428077.45551806-1.8225215 1.01434596-.7703089.48934521-1.11526.69468247-1.5677031.91354573-.4228986.20465276-.7703508.33958609-1.55211738.61932303-.53707306.19218371-.7777087.28193994-1.06323604.40129133-3.48710405 1.45635852-6.04196347 4.89421689-6.39873889 8.60971215-.02351774.2445733-.03747831.4631231-.058864.8771389-.03907427.758287-.06312544 1.0743426-.12281153 1.4710346-.08383601.5596162-.20131762 1.0138487-.47803409 1.9417285-.19987482.670048-.27867054.949669-.35994267 1.2981089-.44423446 1.9042258-.41113772 3.533674-.04472534 7.0510372.10919544 1.0492498.18882855 1.5146364.39274556 2.0451342.10532111.2745587.21441815.4901682.47826631.9703.24577838.4472494.35024302.6499055.46181488.9167009.33299556.795052.46477024 1.5911835.56262217 2.9616463.00658205.0921848.01127377.1600916.02315143.3337921.15240039 2.2287241.36717604 3.1276609 1.16976811 3.9737565.77602195.8178741 2.01531336 1.2121173 3.57005194 1.2552653.35889971.0099605.7176292.0054008 1.2442849-.0116381.07823155-.002531.14117894-.0046655.2818556-.0095093 1.31137304-.0451529 1.89567704-.0398044 2.62915174.0639182.7625847.1072648 1.3811663.2830258 2.6200396.7013659.9351558.3159204 1.3222252.4377159 1.8059265.5572987 2.4288987.6010662 4.7398791.4378782 8.8743649-.3505159 1.4878326-.2834213 2.239023-.4661506 3.0559592-.7885414 1.0741965-.4234744 1.8720401-.9200297 3.5925765-2.1400723 1.422088-1.0091413 2.0501066-1.5237528 2.6525183-2.2707528.4082216-.505773.6374225-.9788092 1.0614138-2.0654037.0279312-.0715941.0411529-.1054656.0560047-.1434313.1115615-.2851845.1874806-.4730613.2702115-.6645101 1.3883859-3.2195798 2.1567947-5.4964109 2.5277327-7.8624964.2524438-1.6124059.2773611-3.163228.0533127-4.6316796zm-34.36524176 10.6083549c-.47801563-1.0254496-.69043259-1.4812101-.95583485-2.0509516-.53996766-1.1594904-.75713198-1.6919158-.92950656-2.3945171-.33685724-1.3779327-.28024525-2.5419495.07783578-4.9969839.5577568-3.8033054.90260756-5.50429 1.66946343-7.5209703 1.01647526-2.67150605 2.61480667-4.83943892 4.7090421-6.15046305.80934783-.50687606 1.58964776-.85602302 3.03932256-1.41356693 1.3804651-.53101203 2.756394-1.03889507 4.1275897-1.52322217 1.4106672-.49881025 2.1660954-.69998437 3.0691735-.7382687.9498452-.0397352 1.9147367.1475384 3.1015097.54334368 2.6727534.89195294 4.6624467 2.01804356 8.8419403 4.75447327 1.1092375.72548825 1.6054418 1.09540606 2.1236509 1.65374817.4702884.50784235.8460707 1.08364187 1.306737 1.93769763 1.4277598 2.6445107 2.4377798 5.5068119 2.9829718 8.4535707.1305718.7051786.0899868 1.2855104-.0898713 2.1454093-.0180758.0864198-.0230003.1092477-.0693127.3226216-.1389243.6400617-.1939709.9667581-.2144299 1.3808828-.0929948 1.8877582-.4254468 3.5843813-1.04699 5.1282193-1.7097483 4.2486293-5.7473875 7.5701398-10.5241739 8.851388-4.3833815 1.1765704-9.3157834.7191119-13.9664439-1.1380436-.9177847-.3661323-1.43923356-.4395901-1.81960788-.1625756-.04981796.0362125-.09116836.0733359-.18372162.162453-.09858983.0949301-.14503572.1373802-.20982461.1880461-.72323324.5661422-1.77202431.3866485-2.76097541-.2428294-1.02851791-.6551869-1.76862374-1.4704264-2.08670886-2.4234901-.34892467-1.0454668-.09400128-2.2363837.66825767-2.9205385-.22568386-.4844236-.44061738-.9455645-.86009295-1.8454326zm32.58322346-9.3412058c-.5342356-2.88754-1.5240667-5.6926277-2.9231932-8.2841035-.4393817-.8145948-.7916575-1.35437616-1.2211453-1.81816018-.4747548-.51152209-.944726-.86188331-2.0143183-1.56144203-4.1371519-2.70870735-6.0967888-3.81778727-8.7048273-4.68814344-1.1239861-.37486496-2.0231407-.54937983-2.8875143-.51322023-.8253245.03498814-1.5387115.22496651-2.8954934.70472296-1.3660717.48251718-2.7368531.98850017-4.1122535 1.51756409-1.4158061.54451803-2.16965556.8818297-2.93748075 1.36270105-1.97527777 1.23655475-3.49801469 3.30195334-4.47246886 5.86301918-.74690123 1.9642037-1.0861557 3.6375844-1.6378013 7.3992173-.34741353 2.3818978-.40155599 3.4951377-.08832369 4.7764317.16032869.6535018.36798749 1.1626223.89201173 2.2878769.26535976.5696503.47776232 1.0253798.95575628 2.0507828.47801564 1.0254495.6904326 1.4812101.95582123 2.0509224.05902411.1267076.01895891.2769686-.0955902.3585021-.6853821.4878401-.94462564 1.5169977-.64395691 2.4178775.27022983.8096772.92149432 1.5270563 1.84589156 2.1159163.80052347.5095416 1.60111792.6465582 2.07470519.2758372.04377486-.0342327.08013798-.0674673.1614988-.145808.11472018-.1104611.16973558-.1598525.24848151-.2170927.6103052-.4444661 1.28604551-.3492728 2.39076521.0914335 4.5370634 1.8117927 9.3390616 2.2571568 13.5906155 1.1159711 4.6042518-1.2349703 8.4922082-4.4333463 10.1303677-8.5040813.5956659-1.4795617.9158928-3.1137963 1.0059099-4.9411062.0224578-.4545854.0815787-.8054626.226851-1.4747713.0459045-.2114942.0507648-.2340246.0684054-.3183639.1658482-.7929177.2016492-1.3048423.087286-1.9224833zm-31.95555425 3.9386349c-.05968681-.1836006-.08591317-.3487219-.11436104-.6417251-.04228094-.4401518-.07465861-.6002169-.16668079-.762338-.39273426-.6917016-.22046807-3.2624658.18655405-4.518813.14462203-.4464506.2148426-.7780488.33972238-1.5125139.12934238-.7607111.20393185-1.1129402.35969604-1.5937868.49788446-1.53466.76873426-2.2163239 1.26585796-2.9882678.51433387-.8007123 1.19157597-1.49305537 2.20257037-2.32982206 2.22989228-1.84319514 4.51995038-3.13086914 6.90157178-3.76927357 2.715909-.72892405 5.5399653-.55699252 7.8428058.5724066.0992841.04880211.1784218.0892774.3510982.17876931.4042147.20948397.5862713.29676212.8122645.38083443.0897608.03329589.1679483.05923284.332436.11155547.2739041.08712014.3933933.12840189.5428096.19272062.3426122.14806072.5850472.30764328 1.099382.69033142.2910913.21667675.5239521.39011464 1.0478734.78041783.52386.39025745.7566798.56366488 1.0478554.78040445 1.7602267 1.3121655 2.5231227 1.956244 3.3080968 2.912648 1.6326768 1.9899497 2.567125 4.8612424 2.5930907 7.6624636.0315578 3.5344173-.2845192 6.0220277-1.2732107 8.2179922-1.7591102 3.9053541-5.922984 6.6851795-10.8603483 7.6580555-.7900197.1561144-1.3426478.2109257-1.9067563.1519683-.5590108-.0589789-1.0065303-.2004228-1.8674508-.5431868-.7426201-.2959507-1.0469467-.4034161-1.4276057-.4888081-1.0583043-.2379274-1.6346392-.3060017-3.1920805-.4085057-.8495033-.0565195-1.5651558-.1640572-2.187321-.3648244-.6280174-.2026556-1.1105505-.4895787-1.4120448-.8802911-.44486905.5379911-1.11542032.8786157-1.80200388.868668-.91226151-.014234-1.76018468-.6872878-1.90742073-1.5536711-.12980408-.7629323.34472695-1.5547554 1.04310674-1.8350902-1.30651881-2.1988981-2.36829335-4.5405366-3.15950718-6.9683181zm26.90101615-11.1491738c-.7446572-.9072824-1.4830279-1.5306553-3.2049396-2.81425889-.2910913-.21667669-.523952-.39011465-1.0478734-.78041783-.5238599-.39025746-.7566798-.56366488-1.0476412-.78024499-.4775106-.35528928-.6945046-.49812527-.980394-.62167343-.1251214-.05386032-.2322201-.09086131-.4783895-.16915987-.1823923-.05801786-.2668468-.08603367-.3684319-.12371584-.256304-.09534807-.453282-.18977965-.8684115-.40492011-.1792774-.09291286-.2558802-.13209167-.349906-.17830927-2.1658093-1.0621938-4.842268-1.22513941-7.4254367-.53184166-2.2912665.61418446-4.5084436 1.86087832-6.67730067 3.65362247-.96833857.80146202-1.60776036 1.45514142-2.08327851 2.19542532-.46103821.7159099-.71947815 1.3663411-1.20191218 2.8533773-.14462204.4464507-.21484261.7780488-.33972239 1.5125139-.12934238.7607111-.20393185 1.1129402-.35965941 1.5936739-.36117342 1.1148269-.52400672 3.5448216-.23391066 4.055752.14615771.257495.18944102.4714743.23502772.9462192.02899939.2990241.05021798.4326166.0931219.5645923.81806102 2.5101598 1.93044795 4.9269751 3.30743855 7.1852419.11334014.185878-.01119639.4245766-.23019379.4412112-.56883217.0432072-1.0397726.6763313-.9406597 1.2588742.0986669.5805871.69917637 1.0572519 1.33426656 1.0671614.62313083.0090283 1.25161195-.3941464 1.55226728-.9828378.1174628-.2299956.4570072-.2075346.5423863.0358792.2842044.8102595 1.4993146 1.2023647 3.3371773 1.3246423 1.5855216.104352 2.1888371.1756131 3.283473.4217086.4215128.0945565.7458023.2090715 1.4459578.4881069.8833049.351696 1.293062.4812046 1.7806473.532648.490945.0513106.9923413.0015805 1.7287488-.1439396 4.7637386-.9386642 8.7636226-3.609009 10.4366358-7.3232215.9460445-2.1012418 1.2531349-4.5181256 1.2222634-7.9756815-.0248004-2.675495-.9176272-5.418897-2.4613506-7.3004278zm-3.095396-.496075c1.5710199 1.1351035 2.6907878 3.0865671 3.1452656 5.2332603.6159324 2.9086278.8011903 4.8155393.4423003 6.6186112-.2701515 1.3565029-.7388866 2.3880407-1.9115252 4.5160409-.1676745.3050796-.2626756.4466956-.4302437.5931602-.0495697.0435127-.0914335.0947036-.1800124.2161397-.1936907.2655413-.2998683.3771798-.4981195.4640555-.9036265.3955592-1.3338213.7167621-1.4857595 1.219863-.0637112.2108769-.2126119.3726028-.4681371.5747426-.0326593.025836-.203193.1561515-.2413888.1875039-.1455051.1179991-.2759307.1662984-.5437959.2337075-.3327364.0826075-.565502.1562495-1.0628031.3274494-.5153661.177418-.7608684.2551353-1.1131422.3429388-.6963009.172953-1.0072253.2725559-1.3399533.4577583-.0582013.0325664-.1062062.0616652-.2128684.1280457-.2510237.1562234-.3691077.2217296-.5364956.2839707-.4499337.1681989-.9250766.1479349-1.5585737-.0002406-.5282071-.1231052-.9410805-.2539508-1.8481854-.5676779-1.1935661-.4126658-1.7440582-.5732196-2.4117164-.6705885-.2988719-.0435008-.5497242-.0659763-1.1189096-.1067173-1.7814042-.1279137-2.5539872-.3180135-3.271047-1.0118681-.183942-.1781252-.3117968-.3410168-.5589912-.6885101-.3259609-.458254-.4784419-.6373613-.7034111-.7941668-.077646-.0538867-.1521238-.0965373-.3109456-.1811314-.34272863-.1825148-.48963373-.2776228-.64632853-.4492124-.20366597-.2229505-.30188139-.4503243-.42919076-.884797-.03724681-.1276261-.04826683-.1648328-.06086999-.2057409-.14959731-.4853047-.33321876-.8718747-.76946607-1.6833833-.32430077-.6031995-.45841608-.8659576-.6043108-1.2030939-.38432911-.888607-.56751091-1.6386629-.87916248-3.3188122-.27235105-1.4751703-.34212482-2.1643055-.21762382-3.0158397.08421307-.5751044.2265918-1.017442.589859-1.9627846.34819223-.9078231.62714736-1.6340581 1.25505001-3.2679451.10412911-.2712932.26258476-.4022003.58054424-.5651137.0812068-.0415575.09873838-.0506895.11527927-.0595106.10355808-.0552265.17114826-.1009286.22738937-.1564926.10894353-.107806.20295582-.2217488.37751856-.4497532.34029477-.4446561.5024554-.6272262.738986-.7982975.1831676-.1323074.316682-.2676775.6049871-.5945511.1015339-.1151167.1472135-.1662984.2048976-.2287281.9880772-1.06912551 2.3403196-1.80426948 3.7850011-2.05728618.0571388-.00992514.1026432-.01731121.2035691-.03330957.330605-.05241714.4748446-.08218978.6342669-.1383161.1557013-.05523981.280449-.11899268.5576529-.2765359.1486657-.08449197.2149156-.121254.3001443-.16520468 1.5472399-.79840378 3.5407853-.61888773 5.4404302.29639592.8088541.38972066 1.4206622.77362403 2.7237239 1.66162505.9155115.62390456 1.3205493.88952056 1.8351521 1.18940326.1241175.0723415.2247881.1293504.4526153.2571235.6093961.3417695.8774346.5022625 1.1983443.7338136zm-.3483057.4708551c-.2964678-.2139151-.5516636-.3667183-1.1414513-.6974908-.2306843-.1293754-.3332524-.1874589-.4611231-.2619879-.530583-.3091952-.9434454-.5799422-1.8440348-1.1936778-1.305275-.88950951-1.9001196-1.26276837-2.6736714-1.63547985-1.7464066-.84145061-3.551221-1.00397165-4.9084655-.3036089-.0757801.03907822-.1373213.0732274-.2753157.15165447-.3110076.17675492-.4567513.25123787-.6568682.32223454-.2051461.07222503-.3737672.10703027-.7295925.1634464-.1080122.01712169-.151574.02419247-.2044441.0333758-1.3161662.23050923-2.5513762.90202878-3.4516835 1.87618504-.0535951.0580044-.0972307.1068958-.1922631.2146411-.3206093.3634994-.4747204.5197525-.705023.6861068-.1744289.1261562-.3109187.2798246-.5758158.6259498-.23130798.3021552-.33757562.4309517-.47165909.5636349-.1037254.1024768-.2149994.1777165-.3645679.2574799-.0761188.0396158-.09484828.0491752-.12390947.0640223-.19928999.1021105-.26181884.1537683-.30040273.2542929-.62790006 1.6338806-.90682497 2.3600367-1.25502218 3.2678726-.34806116.9057716-.48160544 1.3206626-.55756468 1.8394003-.11227213.7678939-.04680478 1.4144955.21407132 2.827513.30371108 1.637341.47999349 2.3591468.8412848 3.1944879.13719718.3170378.26628297.5699421.56501244 1.1255782.47162116.8773086.66643236 1.2874358.83067422 1.8202483.01372102.0445367.02535473.0838153.04671958.15706.11988149.4093145.19171628.5756158.31688631.7126377.09624218.1053907.20457158.1755242.47335288.3186595.1936576.1031474.2823467.1539362.3854705.2255056.2993855.2086732.4819706.4231415.8302944.9128337.2430697.3416974.3555914.4850541.5054308.6301551.5811779.5623701 1.2575005.7287842 2.831526.8418168.652899.0467382.9131596.0700567 1.231425.1163802.7165352.1044969 1.2924305.2724598 2.4578218.6753793.9504341.3287105 1.3501109.4553739 1.8517243.5722812.5289703.1237265.9003499.1395652 1.2143926.0221671.1181285-.043925.2129092-.0965039.4284389-.2306378.1162698-.0723597.1695758-.1046718.2390129-.1435244.3943399-.2194977.7394167-.330041 1.4861189-.515513.3305309-.0823843.5632047-.1560405 1.0556701-.3255748.5203842-.1791465.7660695-.256876 1.1196524-.3446574.1836336-.0462131.2582373-.0738404.3126807-.1179849.0463989-.0380942.2229949-.1730424.2483343-.1930878.1647772-.1303512.253427-.2266366.2714451-.2862747.2177422-.7209926.7593257-1.1253633 1.8121752-1.5862442.0689005-.0301929.125837-.0900577.2511226-.2618181.1211532-.1660945.1813966-.2397599.2746333-.3216029.0991882-.0866969.1680153-.189296.303251-.4353535 1.1443082-2.0765892 1.5962291-3.0711242 1.8509259-4.350025.3390838-1.7035652.1596215-3.5508207-.4408926-6.3866384-.4266379-2.0151934-1.4736305-3.8398288-2.9157776-4.8818183zm-1.2210777 16.1535815c-1.7207818 2.0585692-4.3783554 3.1391521-6.6702489 2.4854952-.3094778-.087971-.5472636-.1786937-1.0653957-.3939833-.6057939-.2516786-.8816401-.3520582-1.2193074-.4276818-.425611-.0955189-.8602387-.1228181-1.5704218-.1193935-.067664.0003263-.1222808.0007391-.2440023.001771-1.5539739.0131736-2.2211297-.0775471-2.9614439-.5726217-.5803399-.3882069-.8912172-.8213274-1.4721314-1.8696179-.2151798-.3883026-.3130333-.5578662-.4415713-.7558951-.1842869-.2841271-.354335-.5062708-.7446362-.9893494-.57189688-.7078556-.81287215-1.0391543-1.04896616-1.4938263-.38960793-.7502154-.58583489-1.6103485-.66446688-2.681367-.33130413-4.5038937 1.88836424-8.967257 5.64110654-10.7681875 2.2591085-1.0850459 5.010793-1.20187877 7.5116501-.3718391 2.3487168.7798118 4.4658852 2.3637193 6.0431755 4.4543368 3.0740743 4.0744923 2.4927512 9.211425-1.0933402 13.5021596zm-5.1378481-17.4036707c-2.358162-.7826789-4.9498752-.6726381-7.0656338.343557-3.5202782 1.6893716-5.62515719 5.9219135-5.31035948 10.2014124.07339342.9996651.2531954 1.7878019.60092759 2.4573826.21223579.4087257.43754759.7184899.97094609 1.378695.4171424.5163003.5955075.749309.7944032 1.0559594.1383122.2130871.2406524.3904256.459444.7852459.5386593.9720392.812888 1.3541002 1.2882216 1.6720652.6053258.4048029 1.1917011.4845391 2.6254578.4723846.1224475-.001038.1775531-.0014546.2461861-.0017855.7521012-.0036268 1.2232455.025966 1.703935.1338462.3820068.0855537.6804147.1941435 1.2929357.4486157.5213613.2166311.7446112.3018079 1.0246052.381398 2.0433789.5827795 4.469399-.4036526 6.051613-2.2964533 3.4246212-4.0975365 3.9728127-8.9416986 1.0752201-12.7822756-1.5078592-1.9985903-3.5274601-3.5095049-5.7579021-4.2500476zm5.4924388 12.2883698c-.0838085.1457823-.1672522.2667381-.330174.4882341-.2580818.3506568-.3538111.497749-.4307846.6788319-.0130018.0307561-.024277.0625515-.0340396.0957662-.0337814.1149319-.045653.2124672-.0608317.4462128-.0191207.2944488-.038098.430471-.1033817.6040487-.2665767.7074612-1.0963875 1.8074642-1.6605358 2.0090889-.1861129.0670547-.3308421.0844649-.6461291.0987663-.1305108.0059362-.1898409.0097397-.2537918.0170838-.299337.0346004-.5465218.1250756-1.063565.3640437-.5471305.2529666-.7903891.3481212-1.120253.4120354-.5429022.104987-1.0791154.0439276-1.7706132-.1541627-.1708035-.0489293-.299498-.0894541-.6121007-.1907024-.5663905-.1834471-.8261726-.2578029-1.1394622-.3134028-.2596839-.0458399-.5095372-.0676935-.9487801-.0905155-.0487461-.002517-.0487461-.002517-.0976798-.0050121-.9801658-.0499846-1.4135074-.1131341-1.9303826-.3513957-.8275311-.3801629-1.3177258-.9845548-2.0693442-2.2817303-.2144746-.368554-.3855826-.663742-.7701352-1.3280243-.2721549-.4676107-.3897468-.70519-.4753973-1.0222348-.0827052-.3118276-.0993575-.5658152-.0993575-1.1051548v-3.3487972c0-.8786138.0342672-1.2892418.2028602-1.7775934.2243681-.651438.6146022-1.1524789 1.3746133-1.9036632 1.200014-1.1856501 2.0873999-1.8616596 3.1590901-2.2698602 1.9119652-.7270717 4.215596-.3668874 6.3443488.8044123 3.3447766 1.837961 5.4937438 5.3489674 4.9984794 8.680072-.083321.5614503-.2269254 1.0338625-.4626527 1.4436533zm-.5132489-.2880906c.1949913-.3389749.3183101-.7446539.3918569-1.240242.4563608-3.0694422-1.5560764-6.3573843-4.7015063-8.085804-1.9885767-1.0941708-4.1169464-1.4269522-5.8450819-.7697862-.9754141.3715295-1.8076826 1.0055507-2.9538293 2.1379783-.699719.6915924-1.0463877 1.1366975-1.2333043 1.6793973-.1406874.4075196-.171325.7746538-.171325 1.5895264v3.3487972c0 .4898125.0144216.7097754.0797351.9560422.0677313.2507058.16954.4563971.4170028.8815844.3844613.6641243.5554222.9590587.7698754 1.327577.6924327 1.1950293 1.1273314 1.7312433 1.806562 2.0432781.4246548.195751.8073952.2515265 1.7115702.2976358.0490241.0024998.0490241.0024998.098252.0050416.4622967.0240198.7311997.0475397 1.021875.0988504.3494886.062024.6268893.1414226 1.2192562.3332832.3059741.0991013.4306272.1383536.5925998.1847531.6092998.1745434 1.0593134.2257871 1.4927258.1419734.2666583-.0516676.4799645-.1351058.9557862-.3551038.6011764-.2778563.8902797-.3836746 1.2731531-.427931.0819308-.009409.1512604-.0138535.2828018-.0198377.2676996-.0121434.3725498-.0247564.4839722-.0648997.3637436-.1300015 1.0968775-1.1018488 1.3087872-1.6642306.0384546-.1022441.0521137-.2001472.0675648-.4380865.0179061-.2757458.0333143-.4023375.0830383-.5715097.0158528-.0539348.034478-.1064569.0564439-.1584165.1007939-.2371229.2129215-.4094118.4736893-.7637137.1744635-.2371714.248827-.344965.3184988-.466157zm-1.4264313-3.846062c.2123827 1.2521901.2554414 2.3779003.0285444 3.1927965-.0580848.2092445-.1397658.4251458-.2447518.653085-.1605382.3485506-.3464323.6746451-.6677864 1.1949125-.4451607.7207083-.4455894.7214143-.576551.9630602-.1392913.2562602-.2291298.3799551-.4043433.4884599-.2207808.1358685-.3974645.1471828-.780243.1134177-.028231-.002489-.040268-.0035355-.05557-.0048111-.107898-.0089943-.1754808-.0109285-.2359093-.0054354-.1454169.0130709-.2756794.0674237-.5395161.213746-.0162105.0089963-.0162105.0089963-.0325967.0181-.2787408.1548438-.4157637.2197058-.6072981.2682691-.4034105.1023669-.7881689.0372141-1.272733-.1616588-.1126081-.0462162-.1894422-.0806924-.4031091-.1789606-.4162646-.1914455-.6132193-.2675028-.8423678-.3095755-.2090243-.038273-.4263544-.0388-.7768618-.0118437-.0386929.0029757-.0707755.0055674-.1396833.0112259-.7080456.0581426-1.0242438.048069-1.418934-.1121001-.3088417-.1260459-.5628253-.3253314-.8723446-.6442842-1.6859397-1.7307945-2.4849316-4.1668536-1.9739127-6.3364165.5517844-2.3389632 2.7362147-4.1808147 5.062555-4.1499082.9243806.0130989 1.6554649.2231266 3.1346026.7965581 1.0738365.414349 1.5675829.6537303 2.0811733 1.0849475.8147092.6825018 1.3337844 1.7195238 1.5376367 2.9164157zm-.58215.0965776c-.1823307-1.0705302-.6393093-1.983494-1.3375016-2.568387-.4473078-.3755652-.9005096-.5952894-1.9143466-.9864875-1.4142376-.5482706-2.0980852-.7447281-2.9276159-.756483-2.03779-.0270729-3.9884137 1.6176392-4.4794382 3.699047-.4632712 1.9668468.2707539 4.2048274 1.8247143 5.800132.2580341.2658978.4556936.4209892.6714579.5090486.2773201.1125388.5306737.1206102 1.1452082.0701464.0699229-.0057419.1027134-.0083907.1427667-.0114711.3980058-.0306092.6581117-.0299784.9303866.0198759.2944459.0540616.5226539.1421879.983778.3542649.2056831.0945963.2783234.1271907.3804432.1691023.3772962.1548485.6444156.200081.8994829.1353567.1250942-.0317174.2306942-.081705.4647771-.2117408.0163959-.0091091.0163959-.0091091.03296-.0183016.3338313-.1851409.5207753-.2631444.7746813-.2859667.1028101-.0093461.1995495-.0065774.339325.0050742.0165602.0013804.0296865.0025217.058436.005057.2539414.0224003.3438355.0166437.4149403-.0271128.0578706-.0358381.1057826-.101806.1969226-.2694799.1387189-.2559596.1385182-.255629.5928904-.9912505.3096782-.5013642.4863946-.8113592.6343861-1.1326693.0927105-.2012872.1635759-.3886007.2128214-.5660019.1980587-.7113243.1576515-1.7677162-.0414757-2.9417529zm-2.183874-1.2373212c.4867045.4810299.7497464 1.0550466.7785736 1.7172396.0076556.1771453.0282548.3549694.0680977.61787.0061057.0402883.0108454.0709806.0225763.1465014.0750833.4833715.1007522.7060735.1004247.9938385 0 .2307477-.0191584.3845731-.0893039.5452892-.0434257.1000835-.0895955.1690294-.1864373.295543-.0918372.1204131-.1612419.2113234-.3174428.4158411-.1561077.2043956-.2254501.2952245-.3122297.409033-.4978386.6511354-.8128063.9496739-1.3116015 1.0985084-.5063325.1508777-.8839209.0793081-1.7213944-.2126608-.3499257-.1219949-.5095839-.1716941-.6978225-.2098715-.3300135-.0665877-.6564445-.069985-1.2228798-.0323145-.0659331.0042234-.0954643.0058841-.1323856.007135-.1446106.0048997-.262373-.0049739-.3809299-.0408669-.4035567-.1224808-.5784436-.3985012-.7721269-.9679416-.0077078-.0226614-.0160548-.0474074-.0316173-.0935843-.0311829-.0923431-.0503487-.1468654-.0710648-.200626-.0536581-.1393711-.1124801-.2532756-.2519694-.5002714-.1026008-.1816689-.1464619-.2621459-.1975635-.3668203-.6302258-1.296349-.3619411-2.957174.63545-4.0318987.2229925-.2399137.484185-.459557.7929246-.6749505.5424623-.3778112 1.0406793-.5971658 1.5644822-.6352916.6595508-.0482274 1.1811674.1411905 2.1332149.6507332.8362178.4470301 1.2096237.6827466 1.6010253 1.0695657zm-.417479.4123103c-.3375108-.3335592-.6782222-.548637-1.4645937-.96902-.8546123-.4573946-1.3000931-.6191649-1.8086966-.581975-.3985163.0290066-.8049484.2079502-1.2676427.5302049-.2764134.1928411-.5063021.3861602-.6982909.5927175-.8359062.9007191-1.0629084 2.3059834-.5384982 3.3846749.0441211.090375.0842368.1639797.176704.3277059.1577397.2793116.2255153.410554.2926376.5848974.0243891.0632922.0456957.1239046.0793197.2234764.015714.0466252.0237783.0705331.0312104.0923838.1349664.3968091.23165.5494029.3857224.5961644.0449226.0136003.1025916.0184355.1875495.0155569.0290157-.0009831.0543757-.0024092.1089025-.005902.6201938-.041234.9885556-.0374004 1.3850064.0425928.2237662.0453827.4004794.1003909.7758432.2312542.7177583.2502327 1.0126645.3061303 1.3543996.2042996.3377466-.1007796.5872054-.3372261 1.0109097-.8913992.0866726-.1136686.1560772-.2045789.3122782-.4090966.1561076-.2043956.2254501-.2952244.3123567-.4091989.0740765-.0967715.1016024-.1378762.1204266-.181259.0302748-.0693657.0413062-.1579303.0413062-.3152696.0002827-.2484505-.0230561-.450937-.0935937-.9050437-.0118422-.0762383-.01665-.1073713-.0228993-.1486071-.0426783-.2816089-.0653295-.4771481-.0740641-.6792596-.0223721-.5139128-.2224517-.9505315-.6062935-1.329898zm-2.9519945-.392835c.4835566-.0957794.8703694.1288246 1.364066.6152234.36489.3594962.5260588.5541582.647321.8490678.0901727.2209202.1186056.3969478.1518086.785459.010754.125824.016118.1820067.0241963.2467706.0350399.2722302.1070549.5382325.2137204.7873357.0361961.0854717.0523371.1333585.0602198.2016737.0066672.0577814.0030464.1159241-.0123982.1700401-.0308939.1141398-.0893073.1844785-.1819743.2627311-.2146922.1825435-.4576884.3027667-.7147199.3345864-.2255282.0280936-.428165-.0054403-.7135004-.0930406-.0341541-.0104857-.0587715-.0182775-.1219369-.0384541-.1863398-.0595217-.2696937-.0828902-.365999-.0990694-.0944189-.0158883-.192051-.0217979-.3581353-.0243303-.0264445-.000385-.0264445-.000385-.0532914-.0007393-.4217723-.0055651-.6138186-.0284573-.8534713-.1422455-.3435121-.1626583-.5916292-.4875234-.7154649-.8793752-.0748928-.2369826-.1048009-.473602-.1177196-.8117488-.0019113-.0500273-.0031101-.088936-.0056533-.1785126-.0125421-.4360148.0033735-.6482361.1074668-.9035074.1193095-.2918024.2905337-.4309551.6089335-.570818-.0018188.0007989.1235055-.0534121.1581405-.0690971.0625769-.0284738.125684-.0651971.232004-.1331373.0202725-.0129755.0202725-.0129755.0409879-.0262699.2678567-.1718523.4047859-.2427231.6053997-.2825423zm1.6016666 2.5689803c-.0094442-.0756943-.0152946-.1369715-.026383-.2667082-.02853-.3338308-.0507453-.4713658-.1110758-.6191759-.0811981-.197472-.2075164-.3500411-.5169651-.6549155-.3608945-.3555598-.6099652-.5001834-.8310887-.4563849-.1023682.0203188-.1947082.0681115-.400057.1998597-.0207372.0133086-.0207372.0133086-.0418939.02685-.1284224.0820641-.2107817.1299905-.3061355.173378-.0405591.0183685-.1707047.0746649-.1647778.0720615-.1919061.0842983-.250568.1319724-.3013213.2561025-.0632752.1551721-.0750832.3126206-.0648357.6688646.0024925.0877883.0036533.1254672.0054683.1729755.0111128.2908774.0353957.4829924.0913135.6599324.0784746.2483162.2260442.4415324.4074036.5274091.1356717.0644174.2701625.0804488.6059415.0848793.0270488.0003569.0270488.0003569.0545175.0007568.1942593.002962.3162445.0103456.4480623.0325271.1335362.0224341.2352718.0509559.4485606.1190858.0609466.0194679.0842734.0268512.1155108.0364414.2114132.0649056.342322.0865693.4647103.0713238.1214842-.0150394.2499861-.0752648.3741909-.1740641-.1251229-.2948028-.2096808-.6090368-.2511455-.9311989zm-.8566634-.6394487c-.1359915-.1780764-.2848936-.2052119-.5112593-.2026679-.1394343.0008479-.29264.0067838-.3967854.0983659-.0740207.0652947-.1101704.1653567-.1136132.2637228-.008607.2798343.2306692.5206615.5017916.6071557.160952.051727.3580536.052575.4802738-.0635987.1196382-.1136297.1282452-.296794.1282452-.4613027zm-11.49219889 11.356407c-.09109282.0581871-.09209385.18541-.12712955.2869909-.05605718.1637131-.08470032.2800874-.06868397.4526765.01601628.1725891.26288191.0966499.45207472.1696304.11111327.0424076.22222653.0936912.34234896.0976361.18618974.0078898.36537243-.1074983.45646524-.2672665.12612859-.2228865.12813064-.4654974-.09009179-.5887753-.2252296-.1262366-.53854895-.1706166-.79280811-.1814651-.05906019-.0029586-.12212448-.0019724-.1721755.030573z" fill="#fff"/></svg>