<svg height="82" viewBox="0 0 74 82" width="74" xmlns="http://www.w3.org/2000/svg"><g fill="none" fill-rule="evenodd"><path d="m0 81.4h74v-81.4h-74z" fill="#404042"/><g transform="translate(10.175 7.4)"><g fill="#9a9a9a"><path d="m6.33852793 4.20315958c-.13809129-.80703529-.5008221-2.05256723-1.77975139-2.05256723-2.10802828 0-2.10802828 2.73675631-2.10802828 4.24505042 0 2.4387353.1725452 3.19344202.57000555 3.82446303.3282769.5263639 1.036925.8073151 1.62429533.8073151.13809129 0 1.03664937.034979 1.90075354-.7018185v-2.10517559h-1.86629962v-1.98232942h4.19924305v5.29805801c-1.03664937.7717764-2.15984697 1.5438328-4.37178826 1.5438328-3.97405227 0-4.47570126-3.66663786-4.47570126-6.28054795 0-2.89458151.39773599-4.19272185 1.33047235-5.28042857 1.20974583-1.42098655 2.69594987-1.42098655 3.33513889-1.42098655 3.35250366 0 3.74968838 2.28063025 3.9743279 3.59612016z"/><path d="m12.8002355.30845874v10.57848656h4.7174299v1.9823294h-7.0500977v-12.56081596z"/><path d="m22.2524601 11.0624559c.8464638 0 1.382291-.5439933 1.6242953-1.0174689.2590935-.52636389.4492791-1.05272776.4492791-3.87735129 0-1.12268571 0-4.01698739-2.0735744-4.01698739-.6912833 0-1.3996558.36825882-1.7797514 1.49094454-.259369.7720563-.3111877 2.52604285-.3111877 3.38596638 0 1.14031513.0173647 4.03489666 2.0909391 4.03489666m4.4925148-4.29793867c0 1.57881176-.0173648 6.31524707-4.5096039 6.31524707-3.3351389 0-4.4930661-2.5613017-4.4930661-6.64852691 0-3.22814117.9156473-6.33343613 4.4757013-6.33343613 3.9740523 0 4.5269687 3.68426723 4.5269687 6.66671597"/><path d="m30.4250388 10.8344208h.7778316c.8464637 0 2.0906635-.1228462 2.0906635-1.73691677 0-1.66639916-1.4691149-1.6843084-2.0906635-1.6843084h-.7778316zm0-5.45616298h.6568294c.4492791 0 1.8312945 0 1.8312945-1.52592353 0-1.50885379-1.3475615-1.50885379-1.7102923-1.50885379h-.7778316zm1.2960184-5.06971513c2.713039 0 3.4908706 1.61407059 3.4908706 3.10501513 0 1.10533613-.3974603 2.24565126-1.9354831 2.78964453v.03497899c1.8486593.35090925 2.4365808 1.64904958 2.4365808 3.13999412 0 1.50857394-.7257372 3.49118324-3.7325992 3.49118324h-3.8533258v-12.56081601z"/><path d="m42.4516048 8.32589546-1.2789293-5.68422605h-.0344539l-1.2960185 5.68422605zm-.0170892-8.0174647 3.5071328 12.56081594h-2.4365808l-.5697299-2.4910638h-3.5768675l-.587646 2.4910638h-2.4363052l3.542138-12.56081594z"/><path d="m49.1208627.30845874v10.57848656h4.7168787v1.9823294h-7.0495465v-12.56081596z"/><path d="m7.26823235 17.1119186v2.0234647h-4.40954975v3.1878454h3.52752955v2.0231848h-3.52752955v5.5871244h-2.38145454v-12.8216193z"/><path d="m12.9119489 28.0891656c.8641041 0 1.410681-.5551865 1.6581979-1.0384563.2643305-.5372773.4583749-1.0748344.4583749-3.957663 0-1.1461916 0-4.1006571-2.1165728-4.1006571-.7056162 0-1.4291484.3758142-1.8169617 1.5220058-.2648816.7880068-.3175272 2.5786513-.3175272 3.4562042 0 1.1638211.0176404 4.1185664 2.1344889 4.1185664m4.5856781-4.387205c0 1.6118319-.0176404 6.4464882-4.6033185 6.4464882-3.40459802 0-4.58622946-2.6144697-4.58622946-6.7867638 0-3.2950211.93466578-6.4649572 4.56831336-6.4649572 4.0570173 0 4.6212346 3.7606614 4.6212346 6.8052328"/><path d="m21.3948884 22.6451473h1.1998231c1.3756759 0 2.5220265-.2862681 2.5220265-1.7727353 0-1.6655596-1.5697203-1.6655596-2.3106173-1.6655596h-1.4112323zm1.8343264-5.5331168c.0884776 0 1.0584242.0176294 1.8696072.1790924 1.1642667.2507295 2.4520162 1.3250042 2.4520162 3.4738337 0 2.560742-1.9930901 3.2054747-2.7342627 3.4203857v.0358185c.3175273.1074554.6000494.1970016 1.0410595.6802714.2469657.2686386.899385 1.3790117 1.0228678 1.6118319l1.6579224 3.4203857h-2.6984306l-1.9225284-3.6890243c-.8643798-1.6476505-1.2171879-1.6476505-2.1521293-1.6476505h-.3704485v5.3366748h-2.3811789v-12.8216193z"/><path d="m35.8749314 17.1119186v2.0234647h-4.2325945v3.0442916h3.8271408v2.0234647h-3.8271408v3.7066538h4.444555v2.0237445h-6.8257339v-12.8216193z"/><path d="m42.4537547 20.8546707c-.088202-.5910051-.2640548-1.9518278-1.5165235-1.9518278-.6350545 0-1.3051143.3937236-1.3051143 1.2533673 0 1.0566453 1.0934295 1.5757336 2.2574205 2.1309201 2.1344889 1.0208269 3.2984799 2.0592832 3.2984799 4.011111 0 1.987926-1.2874739 3.8502075-4.1099385 3.8502075-3.8450568 0-4.0570173-3.0263823-4.1452193-4.3513865l2.4343757-.2328202c.0882021 1.1461916.3178029 2.4893849 1.8172373 2.4893849 1.1989962 0 1.6402819-.8778328 1.6402819-1.5760135 0-1.1999193-1.093705-1.7192874-2.6286958-2.417468-1.3759515-.6271034-2.9280314-1.5040967-2.9280314-3.6890244 0-1.7906445 1.2171878-3.4743933 3.8811645-3.4743933 3.3152934 0 3.6154559 2.5072941 3.6857419 3.8146689z"/><path d="m53.953286 17.1119186v2.0234647h-2.9101154v10.7981546h-2.3809033v-10.7981546h-2.9109423v-2.0234647z"/><path d="m3.25300076 34.6896734 1.52479242 9.0987353h.03776149l2.16508397-9.0987353h3.01237462l2.10885514 9.0598386h.0372103l1.5443622-9.0598386h2.635311l-2.692091 13.6857403h-2.8050999l-2.35334017-10.0160244h-.03776149l-2.37208308 10.0160244h-2.8053755l-2.61711932-13.6857403z"/><path d="m22.4411573 43.424851-1.3933163-6.1932403h-.0374858l-1.4120593 6.1932403zm-.0187429-8.7352336 3.8221794 13.6857403h-2.6546052l-.6215486-2.7140899h-3.8974268l-.6400159 2.7140899h-2.6546051l3.8593896-13.6857403z"/><path d="m34.2854758 34.6896734v2.1603025h-3.1066405v11.5254378h-2.5421476v-11.5254378h-3.1063649v-2.1603025z"/><path d="m40.8018411 39.0284395c-.1135601-.7832496-.3395778-2.3315597-1.6758384-2.3315597-1.8831131 0-1.8831131 2.5996387-1.8831131 4.7213244 0 2.5996387.1507703 3.3062143.4707783 3.9752924.2640548.5543471.8288233.9746547 1.4308021.9746547 1.4498207 0 1.7130486-1.7201269 1.8453517-2.8859068l2.5038348.8221463c-.4514841 3.4024764-2.3345972 4.3007369-4.2924064 4.3007369-4.1237201 0-4.5936715-4.2433714-4.5936715-7.0151067 0-2.6950613.1879806-7.1298378 4.55591-7.1298378 3.3139153 0 3.9161697 2.4661588 4.2174347 3.9758521z"/><path d="m47.5432593 34.6896734v5.4097109h3.7469321v-5.4097109h2.541872v13.6857403h-2.541872v-6.058921h-3.7469321v6.058921h-2.5410451v-13.6857403z"/></g><g fill="#96bc3e"><path d="m4.55794965 59.1550155h3.20118207c1.3282673 0 2.14661666-.4614429 2.14661666-1.7542664 0-1.0524479-.63670833-1.7173286-2.14661666-1.7173286h-3.20118207zm-3.12896667-5.8910219h6.62149104c2.98288208 0 4.96577378 1.5141706 4.96577378 4.0813488 0 2.6592428-1.8734661 4.2475689-5.00243275 4.2475689h-3.4558654v4.6720739h-3.12896667z"/><path d="m24.1662786 58.8782057h3.2014577c1.5099083 0 2.1648083-.5540672 2.1648083-1.6437328 0-1.033979-.6730917-1.6065151-2.146341-1.6065151h-3.219925zm0 2.3822093v5.0045142h-3.0738404v-13.0009916h6.9665814c2.964966 0 4.656791 1.4775127 4.656791 3.7119706 0 1.6806706-.9638827 2.6592429-2.237575 3.0655589.5275584.2216268 1.8919334.7387563 1.8919334 3.0655588v.6464117c0 .9049765 0 1.9022975.1634493 2.5114916h-3.1829904c-.2183-.5722563-.2364916-1.3479504-.2364916-2.7146495v-.4432538c0-1.3110126-.4729834-1.8466109-2.3464494-1.8466109z"/><path d="m43.887892 59.6906418c0 2.4560848 1.2188416 4.3953201 3.729016 4.3953201 2.5647494 0 3.565291-2.2162689 3.565291-4.3399134 0-2.2898647-1.1096916-4.3029756-3.6926327-4.3029756-2.4919827 0-3.6016743 2.0497689-3.6016743 4.2475689m10.5685314.0184689c0 3.619626-2.364641 6.8329361-7.0214321 6.8329361-4.347257 0-6.8213237-3.0101521-6.8213237-6.8144672 0-3.5826883 2.6196-6.7405916 6.9668571-6.7405916 4.4748743 0 6.8758987 3.1763723 6.8758987 6.7221227"/></g></g></g></svg>