<svg height="32" viewBox="0 0 32 32" width="32" xmlns="http://www.w3.org/2000/svg"><path d="m17.47 2s-6.28 0-8.374 0c-3.754 0-7.286 2.844-7.286 6.138 0 3.366 2.558 6.084 6.378 6.084.266 0 .524-.006.776-.024-.248.474-.426 1.01-.426 1.564 0 .936.504 1.694 1.14 2.314-.48 0-.946.014-1.452.014-4.65 0-8.228 2.962-8.228 6.032 0 3.024 3.924 4.916 8.572 4.916 5.3 0 8.228-3.008 8.228-6.032 0-2.426-.716-3.878-2.928-5.442-.756-.536-2.204-1.838-2.204-2.604 0-.898.256-1.34 1.608-2.396 1.384-1.082 2.364-2.604 2.364-4.372 0-2.106-.938-4.16-2.7-4.836h2.654l1.874-1.354zm-2.924 20.484c.066.28.102.568.102.864 0 2.444-1.574 4.354-6.092 4.354-3.214 0-5.534-2.034-5.534-4.478 0-2.396 2.878-4.388 6.092-4.354.75.008 1.448.128 2.084.334 1.744 1.214 2.996 1.898 3.35 3.282zm-5.146-9.116c-2.158-.064-4.208-2.414-4.58-5.246s1.074-5.002 3.23-4.938 4.208 2.338 4.58 5.17-1.074 5.076-3.232 5.012zm16.6-5.368v-6h-2v6h-6v2h6v6h2v-6h6v-2z"/></svg>