<svg height="26" viewBox="0 0 26 26" width="26" xmlns="http://www.w3.org/2000/svg"><g fill="none"><path d="m13 26c-7.18 0-13-5.82-13-13s5.82-13 13-13 13 5.82 13 13-5.82 13-13 13z" fill="#97be32"/><path d="m13.57 16.632v1.905h-1.842v-1.905zm-3.556-8.634.255-.275c.618-.666 1.464-.998 2.525-.998.98 0 1.776.284 2.376.854.602.571.905 1.305.905 2.187 0 .539-.113.985-.343 1.334-.216.328-.637.794-1.27 1.406-.432.42-.71.77-.83 1.043-.12.27-.182.69-.182 1.256v.218h-1.694v-.218c0-.698.084-1.266.255-1.706.173-.445.54-.94 1.102-1.491l.568-.561c.155-.147.278-.298.373-.457.167-.272.25-.55.25-.838 0-.411-.121-.762-.364-1.061-.229-.282-.621-.428-1.196-.428-.708 0-1.174.25-1.436.758-.152.291-.242.73-.265 1.311l-.008.21h-1.685v-.218c0-.92.226-1.693.68-2.312z" fill="#fff" stroke="#fff" stroke-width=".7"/></g></svg>