<svg height="32" viewBox="0 0 32 32" width="32" xmlns="http://www.w3.org/2000/svg"><path d="m5.485 22.539c-2.272-1.938-4.156-4.32-5.485-6.687 3.065-5.463 9.095-11 16-11 2.051 0 4.022.486 5.86 1.312l4.164-4.164 2.828 2.828-23.852 23.852-2.828-2.828zm13.63-13.63c-.951-.432-2.005-.672-3.115-.672-4.181 0-7.579 3.409-7.579 7.615 0 1.103.234 2.151.654 3.097l2.73-2.73c-.01-.121-.015-.243-.015-.367 0-2.341 1.875-4.231 4.211-4.231.13 0 .258.006.385.017l2.73-2.73zm-6.889 17.398 2.89-2.89c.29.034.585.051.883.051 4.181 0 7.579-3.409 7.579-7.615 0-.288-.016-.572-.047-.851l4.462-4.462c1.616 1.638 2.977 3.48 4.006 5.314-3.065 5.463-9.078 11-16 11-1.293 0-2.556-.194-3.774-.546z" fill="#aaa"/></svg>