<svg height="32" viewBox="0 0 32 32" width="32" xmlns="http://www.w3.org/2000/svg"><path d="m32 10.017h-2.751c-.448-1.317-1.168-2.727-2.159-4.232s-1.906-2.315-2.745-2.431c-.463-.058-1.034-.108-1.714-.152s-1.266-.065-1.758-.065h-1.02v24.154c0 .521.094.98.282 1.378s.557.713 1.107.944c.333.13.85.264 1.552.401s1.298.235 1.79.293v1.693h-17.166v-1.693c.42-.043 1.009-.105 1.769-.184s1.277-.177 1.552-.293c.564-.231.94-.543 1.128-.933s.282-.854.282-1.389v-24.371h-1.02c-.492 0-1.078.022-1.758.065s-1.251.094-1.714.152c-.839.116-1.754.926-2.745 2.431s-1.711 2.915-2.159 4.232h-2.751v-10.017h32v10.017z" fill="#555"/></svg>