<svg height="32" viewBox="0 0 32 32" width="32" xmlns="http://www.w3.org/2000/svg" xmlns:xlink="http://www.w3.org/1999/xlink"><filter id="a" height="158.3%" width="158.3%" x="-29.2%" y="-20.8%"><feOffset dy="2" in="SourceAlpha" result="shadowOffsetOuter1"/><feGaussianBlur in="shadowOffsetOuter1" result="shadowBlurOuter1" stdDeviation="2"/><feColorMatrix in="shadowBlurOuter1" result="shadowMatrixOuter1" values="0 0 0 0 0 0 0 0 0 0 0 0 0 0 0 0 0 0 0.2 0"/><feMerge><feMergeNode in="shadowMatrixOuter1"/><feMergeNode in="SourceGraphic"/></feMerge></filter><g fill="none" fill-rule="evenodd" filter="url(#a)" transform="translate(4 2)"><circle cx="12" cy="12" fill="#ff6398" r="11.5" stroke="#000" stroke-opacity=".15"/><path d="m13.025 10-.15-1.642a1.962 1.962 0 0 1 -.033-.358c0-1.105.92-2 2.053-2 1.006 0 1.843.705 2.018 1.636l1.94 6.832c.095.271.147.562.147.865 0 1.473-1.225 2.667-2.737 2.667-1.408 0-2.568-1.037-2.72-2.37l-.002.001-.272-2.964h-2.54l-.26 2.833c-.089 1.395-1.279 2.5-2.733 2.5-1.511 0-2.736-1.194-2.736-2.667 0-.224.028-.442.082-.65h-.002l2.021-7.122c.206-.893 1.025-1.561 2.004-1.561 1.134 0 2.053.895 2.053 2 0 .123-.011.243-.033.36l-.151 1.64zm-5.288 6.667c.756 0 1.368-.597 1.368-1.334 0-.736-.612-1.333-1.368-1.333s-1.369.597-1.369 1.333c0 .737.613 1.334 1.369 1.334zm8.526 0c.756 0 1.369-.597 1.369-1.334 0-.736-.613-1.333-1.369-1.333s-1.368.597-1.368 1.333c0 .737.612 1.334 1.368 1.334z" fill="#fff"/></g></svg>