<svg height="32" viewBox="0 0 33 32" width="33" xmlns="http://www.w3.org/2000/svg"><path d="m14.81 6.303-7.92 11.377 14.275 7.473 5.789-14.152zm-.992-3.243 16.633 6.434-7.927 19.379-19.551-10.234 10.845-15.579z"/><path d="m9.333 18c0 2.577-2.089 4.667-4.667 4.667s-4.667-2.089-4.667-4.667c0-2.577 2.089-4.667 4.667-4.667s4.667 2.089 4.667 4.667z"/><path d="m18.667 4.667c0 2.577-2.089 4.667-4.667 4.667s-4.667-2.089-4.667-4.667c0-2.577 2.089-4.667 4.667-4.667s4.667 2.089 4.667 4.667z"/><path d="m33.333 10c0 2.577-2.089 4.667-4.667 4.667s-4.667-2.089-4.667-4.667c0-2.577 2.089-4.667 4.667-4.667s4.667 2.089 4.667 4.667z"/><path d="m26.667 27.333c0 2.577-2.089 4.667-4.667 4.667s-4.667-2.089-4.667-4.667c0-2.577 2.089-4.667 4.667-4.667s4.667 2.089 4.667 4.667z"/></svg>