<svg height="32" viewBox="0 0 32 32" width="32" xmlns="http://www.w3.org/2000/svg"><path d="m15.835 32c-8.745 0-15.835-7.163-15.835-16s7.089-16 15.835-16c8.745 0 15.835 7.163 15.835 16s-7.089 16-15.835 16z"/><path d="m3.879 23.131c2.415 4.137 6.867 6.91 11.956 6.91 5.227 0 9.782-2.926 12.148-7.25-.865-.481-1.723-.723-2.209-.695-1.101.064-4.921-1.128-4.921-1.128l-.456-.747s.189-3.655.252-4.433.22-1.017.22-1.017.11.095.267.095.344-.23.383-.713c.05-.63-.057-1.457-.057-1.349 0-.553.241-.774.115-1.092-.074-.187-.236-.189-.356-.16.068-.262.122-.493.135-.595.047-.365.126-1.557 0-2.177s-.944-2.399-1.274-2.987-1.127-.541-.456-.493c.22.016-.76-.51-.535-.524.252-.016-.362-.239-.362-.239s.063-.477-.094-.429c-.198.06-.377-.413-.629-.143s-.157-.652-.299-.381c-.142.27-.632-.165-.834-.064-.251.127.503-.306.126-.27-.173.016-.566-.058-.818.127-.27.198.063-.349-.173-.048-.212.272-1.135.184-1.399.383.075-.151.162-.352.093-.256-.126.175-.676.477-.944.747s.393-.54.11-.318c-.316.249-.786.477-.959.89s-.157-.683-.173-.239c-.009.251-.314.381-.44.668s-.036-.23-.218.194c-.147.343-.207.156-.396.744s-.236-.016-.425.493c-.189.508-.236 1.001-.503 1.891-.264.878.054 3.547.319 4.169-.061-.009-.129-.006-.204.02-.33.113.365 1.009.476 1.39s.09.642.311 1.246c.22.604.724.325.724.325l.608 2.543-.22 2.352s-2.763.756-4.103.938c-2.34.318-3.82.961-4.787 1.623z" fill="#fff"/></svg>