<svg height="137" viewBox="0 0 150 137" width="150" xmlns="http://www.w3.org/2000/svg" xmlns:xlink="http://www.w3.org/1999/xlink"><mask id="a" fill="#fff"><path d="m0 .31434461h21.2928584v30.65297569h-21.2928584z" fill="#fff" fill-rule="evenodd"/></mask><mask id="b" fill="#fff"><path d="m0 .79435937h15.3263455v8.55164052h-15.3263455z" fill="#fff" fill-rule="evenodd"/></mask><mask id="c" fill="#fff"><path d="m.28018812.11566394h23.89161708v41.43972256h-23.89161708z" fill="#fff" fill-rule="evenodd"/></mask><g fill="none" fill-rule="evenodd"><path d="m13 137 15-8.438427-4.3416462-.561573z" fill="#c0b6b3"/><path d="m28.2410073 52.7787001-.8846493-1.9255485c-1.6333547-.3185425-3.3235217-.1899003-4.8960061.367549l-8.925624 3.1670474c-.5965296.2123616-1.168711.4818976-1.7124862.8106498l-4.88383205 2.9485599c-.78319866.4737298-1.49335288 1.0577244-2.10814353 1.7376901l-1.69219606 1.8683741.77914063 1.6845997z" fill="#c0b6b3"/><path d="m37.0921666 61.8477679-4.0661402-6.9017538-.7527634-1.3231765c-.2962358-.5227363-.8501561-.8433208-1.4487146-.8433208h-4.7661494s-15.6355669 4.0328296-22.14260862 10.6568797c.06087036 0 17.40283642 36.9774735 17.40283642 36.9774735l5.6122474-3.7959648 21.3857872-10.5221117z" fill="#58320b"/><path d="m38.3266176 105.350666 15.317012-7.5286294-1.1382757-2.2257135 1.1382757-.5472397.3591352-2.4789139-19.4480807 9.7094195z" fill="#c0b6b3"/><path d="m26.93128 96.6185178-17.96487279-36.9795153s-3.97483463 2.1726231-5.05021103 3.7980065l17.40080742 36.975431z" fill="#714226"/><path d="m5.65830594 65.2716912 1.63944175 3.6081062 8.16677351-4.416714-1.6150936-3.6714063z" fill="#c0b6b3"/><path d="m7.92511822 68.4999968 4.12903958 9.2438578 9.1569314-5.0170441-3.6806279-7.5817195z" fill="#c0b6b3"/><path d="m7.29693608 68.8789807 2.56264224.3430457 8.12010628-4.3125751-2.515975-.4471847z" fill="#6e6a67"/><path d="m15.4645212 64.4620624 2.513946.4471847-1.7429214-3.9348165-2.3861182-.1837745z" fill="#797882"/><path d="m13.8496305 80.8574032 6.2838504-3.4345414 4.2629543 8.4924243-6.4177651 3.5223448z" fill="#c0b6b3"/><path d="m17.978873 89.4378351h2.5119169l5.9713825-3.3426542-2.0655343-.1817325z" fill="#6e6a67"/><path d="m20.1328722 77.4234744 4.2649834 8.4903824 2.0635052.1817325-4.3968691-8.4924243z" fill="#797882"/><path d="m21.1652335 62.29434 3.0049669 7.1345348 7.0934262-2.7994983-2.7838046-7.1814995z" fill="#dca42f"/><path d="m31.9818968 73.19809.7182703 1.4007702 2.2866966-1.039347-.7020382-1.4028121z" fill="#9d7f69"/><path d="m31.9818968 73.19809-.1339148 1.1455278.7162413 1.4293573.1359438-1.1741149z" fill="#915c2e"/><path d="m32.6991526 74.5978392 2.2887256-1.0393469-.1521759 1.1843246-2.2704645 1.0291372z" fill="#62310c"/><path d="m33.7018904 76.344718.7182702 1.4007702 2.2866966-1.039347-.7000091-1.4028121z" fill="#9d7f69"/><path d="m33.7018904 76.3287909-.1339148 1.1475697.7162412 1.4273154.1359438-1.1741149z" fill="#915c2e"/><path d="m34.4191461 77.7285401 2.2887256-1.039347-.1521759 1.1863666-2.2704645 1.0270953z" fill="#62310c"/><path d="m26.0573845 52.7787001 17.7457395 35.5379063 4.5145519-2.2216297-11.2265238-24.2480256.2800037-.9495016c.1136247-.3818426.0872475-.7902304-.0710154-1.1557375l-1.6556739-3.7898387c-.2678296-.6105398-.8663881-1.004634-1.5298751-1.004634h-1.0875504l-.9840709-1.7274804c-.1562339-.2736198-.4443536-.4410588-.7547925-.4410588z" fill="#714226"/><path d="m35.1522282 102.279794 3.1733749 3.071076 4.2467222 9.756384 2.0350991 8.249434s-2.0350991.784105-4.6078864-.541114l-2.187275-4.455511-2.9582996-13.188884z" fill="#c0b6b3"/><path d="m31.2508438 79.6030401-.9516067.4512685-.7933437-1.4967413.9414616-.4553524z" fill="#9d7f69"/><path d="m31.2567279 79.5950765-.3936283.6656721-.9637807.4655621.4058024-.6799657z" fill="#915c2e"/><path d="m30.3055271 80.0457325-.7953728-1.4946994-.3997153.6922173.7892857 1.4824477z" fill="#62310c"/><path d="m32.5644262 103.543958 2.5869904-1.26396 3.1754039 13.850472v2.289014l1.6719059 4.396294-.2597135 1.566168-3.7049761-7.320352z" fill="#fceee4"/><path d="m29.4971687 76.1672735-.9516067.4512685-.7933437-1.4967412.9414616-.4553524z" fill="#9d7f69"/><path d="m29.5050818 76.15931-.3936283.6656721-.9637808.4655621.4058025-.6799657z" fill="#915c2e"/><path d="m28.5540839 76.6099659-.7974018-1.4946993-.3997154.6922173.7913147 1.4824477z" fill="#62310c"/><path d="m32.273263 80.5182371v2.1460779l1.4284245 2.4911656 1.2863936-.6166656.2617426.4757718 3.2241001-1.4763219.3956574-1.2006601" fill="#62310c"/><path d="m32.273263 80.5182371 4.4354203-1.9684291 2.1608979 3.7877968-4.5855673 1.9990583z" fill="#9d7f69"/><path d="m21.1652335 62.29434-3.4249723-5.6010387 6.9392212-2.6504368 3.8003396 5.4050125z" fill="#814d13"/><path d="m32.273263 62.8507684 3.2971446-1.4599864 4.8493388 1.4599864 2.9298934 6.0278039-1.854517 4.6801242-2.9319224 1.5559575z" fill="#dca42f"/><path d="m40.4189348 62.8507684 1.4345115.7085528 2.692499 5.6622968-2.0614762 5.2620768-.9901579-.9249983 1.854517-4.6801242z" fill="#62310c"/><path d="m38.5623888 75.1144498 2.9319224-1.5559575.9901579.9249983-2.9501836 1.4497767z" fill="#8a571b"/><path d="m25.7721054 89.1227639 9.2157728-4.5841531 2.8243848 5.2763704-9.3638907 4.5923208z" fill="#5f5a55"/><path d="m25.7721054 89.1227639v1.3844346l2.4693077 4.8169341.2069592-.9168306z" fill="#5f5a55"/><path d="m28.448981 94.4070978 9.3618617-4.5923208-.2049302.8576144-9.3659197 4.651537z" fill="#6e6a67"/><path d="m12.0543607 77.7444672 1.7956756.0510485 8.7957673-4.5984466-1.4345115-.469646z" fill="#6e6a67"/><path d="m22.6453978 73.19809-3.8145426-8.0513654-.8521851-.2389069-.4484117.2389069 3.6806279 7.5817195z" fill="#797882"/><path d="m32.5644262 103.543958 5.7623943 12.319018-4.2873025 2.144036-5.6041313-11.581878z" fill="#5f5a55"/><path d="m17.7392467 56.6930971-.7121833 1.0638502 6.4928386 13.0867871.6513129-1.4150638-3.0069959-7.1345348z" fill="#42210b"/><path d="m21.3178152 100.413257-2.195391 1.866332-17.19384823-33.7879642s-.37942526-2.9260985 1.98843182-5.053799z" fill="#714226"/><path d="m24.171012 69.4292832 7.0913972-2.7994983-.1886982 1.1291922-7.5540119 3.0833279z" fill="#42210b"/><path d="m3.57187284 66.6295807 6.50704166 13.889269-2.15278178 2.3176008-6.49080959-13.7830882z" fill="#c0b6b3"/><path d="m7.92511822 82.8374715h2.15481078l1.9742288-2.1603715-1.9742288-.1592712z" fill="#6e6a67"/><path d="m12.0543607 80.6779168-6.61457936-14.0485403h-1.86872011l6.50704167 13.889269z" fill="#797882"/><path d="m12.8925455 84.5384066-1.1971171 1.1210246 4.6078864 9.0335381.7243573-1.6253835z" fill="#6e6a67"/><path d="m11.6958342 85.6590228-1.70639911.902537 4.57745121 9.0335381 1.7368343-.902537z" fill="#797882"/><path d="m9.98963799 86.5623766-.79334372 2.209378 4.51455183 8.433208.8562431-1.6090479z" fill="#c0b6b3"/><path d="m13.7108461 97.2047584 1.9032133-1.2190375.6878351-1.2925474-1.7348053.902537z" fill="#6e6a67"/><path d="m12.8925455 84.5384066.8176919-.2899553 4.0458501 8.5986051-.7284154.2205294z" fill="#c0b6b3"/><path d="m48.3170672 86.0957935 5.2044159-1.5579994.4808759 1.3762668-1.4365406.6493366-28.1687745 13.8504725-3.2322162 2.650437s4.9020932 4.379959 7.1806737 3.175215l3.2383033 6.695518-5.5574641 3.45496 2.1933621 4.841438-.8278369 1.584545-1.6191517.782062-9.4693993-19.529104 2.8182978-1.788739 2.195391-1.866332 5.6142764-3.7959648z" fill="#6e6a67"/><path d="m21.1652335 103.06349 3.2322162-2.650437s4.4415075 3.732664 8.1667736 3.130292c.0872475.079636-2.1284337 1.586587-3.6867149 2.625934-1.004361.67384-2.2765516.786147-3.3843921.304249-1.4629177-.639127-3.3884502-1.743816-4.3278828-3.410038" fill="#c0b6b3"/><path d="m24.396841 100.413257 28.5279096-14.0117852 1.7916177 3.0220697c.7771116 1.3272604.2678296 3.0384052-1.1078406 3.716329l-21.0449131 10.4036795s-3.5446841 1.204744-8.1667736-3.130293" fill="#fceee4"/><path d="m38.3266176 105.350666 15.317012-7.5286294 1.8098788 3.6734484c1.4933529 3.028195 1.8281399 6.499492.9414616 9.758426l-.7689956 3.483548c-.4220345 1.919423-1.4791498 3.653029-3.035402 4.84348-1.7063992 1.302757-4.3278828 2.840337-7.9821335 3.775545l-2.0350991-8.249434z" fill="#fceee4"/><path d="m15.3257368 102.038436 13.12365 26.98014-4.544987-.543155-11.6688484-24.147971z" fill="#5f5a55"/><path d="m12.2347398 104.327654-2.63365762 2.168539 11.56333972 24.080587 3.2322162.518653 4.0519371-2.076652-4.544987-.543156z" fill="#b3aaa8"/><path d="m36.3966213 57.6740446 4.5794802-23.7191634 9.2076568 40.5284052z" fill="#c0b6b3"/><path d="m9.75386679.31434461-9.75549 4.09612963 12.74828281 26.55745856 8.5461988-6.5525822z" fill="#c0b6b3" mask="url(#a)" transform="translate(0 106.180828)"/><path d="m-.0008116 9.34599989 15.3271571-8.55164052-5.57166711 4.45551089z" fill="#5f5a55" mask="url(#b)" transform="translate(0 101.245098)"/><path d="m43.3496398 75.6408617 5.7461622-1.0434309.8968233-.6820076.8785622 2.609598c.154205.4553524.0020291.9617533-.3794252 1.2557925l-4.4415074 3.4202478-.2191333-.4757717 3.5122199-2.8587146c.4301505-.3491716.6066746-.9229565.4504406-1.4559025-.1947851-.6575044-.84204-1.0699761-1.515672-.9658372l-4.5591901.7146787z" fill="#714226"/><path d="m36.8503084 60.3941115 3.6664248-2.8954695.8785622-.1776486-1.0774054-1.909213c-.1907271-.334878-.5701524-.5125267-.9475486-.4390169l-4.3826661.8514886.16435.3818426 3.5588871-.5901204c.4342086-.0735098.8704462.1266002 1.1017536.502317.2860907.4655621.1866691 1.0740599-.2333364 1.4211895l-2.8426459 2.3584396z" fill="#714226"/><path d="m31.4687597 112.69695 6.3426917 13.009193-5.2449962 5.119141-6.5415349-14.434467z" fill="#c0b6b3"/><path d="m32.5664552 130.82508 5.2449962-5.119141 3.0840983 1.084269z" fill="#5f5a55"/><path d="m41.3959041 34.1999139 24.9629354-7.8594232 6.8215386 38.1209591-22.9968227 10.0238786z" fill="#7481ab"/><path d="m41.8179386 34.4469885 8.6233013 39.531939 22.3353648-9.7359651-6.6997979-37.4328257zm8.1099612 40.5426988-8.9520012-41.0348061 25.6629446-8.0799526 6.9453083 38.8050087z" fill="#5c6894"/><path d="m40.8965642 126.791025-6.0444269-12.611015-3.3823631-1.482448 6.3406627 13.009194z" fill="#6e6a67"/><path d="m67.7056977 25.8904473 6.9108151 37.8779684 27.8258712-11.4103551-4.6687565-36.2239978z" fill="#5e6da1"/><path d="m68.1157611 26.1356842 6.7748712 37.1306187 27.1603557-11.1387772-4.5754224-35.515445zm6.227038 38.1352527-7.0467589-38.62736 30.780113-9.9871236 4.7580328 36.9305087z" fill="#4e5a81"/><path d="m99.1217031 15.6827943 25.3119259-7.85942322 3.319463 33.78388072-24.143214 10.3873437z" fill="#5e6da1"/><path d="m99.5139111 15.9380367 4.3928109 35.5358643 23.463496-10.0933044-3.250478-33.08145374zm3.7983109 36.5792952-4.5855675-37.08978 26.0220795-8.07995261 3.38845 34.48834971z" fill="#4e5a81"/><path d="m126.140839 7.28777048 3.021199 33.73487422 20.115626-8.8967283-1.686109-31.52753808z" fill="#5e6da1"/><path d="m1.04715468 7.5448506 2.95221255 32.9446438 19.42981947-8.5924793-1.6475577-30.81694337zm2.32524782 34.0105359-3.09221438-34.52714647 22.16898578-6.91400544 1.7226313 32.24221681z" fill="#4e5a81" mask="url(#c)" transform="translate(125.475951)"/><g fill="#c0b6b3"><path d="m68.4724614 45.2449661.3489901 1.8397871 3.5751192-1.2557925-.2759456-1.8111999z"/><path d="m70.4341102 55.9951624.3469611 1.839787 3.5751193-1.2578344-.2759457-1.809158z"/><path d="m66.1382859 32.8697948.3489901 1.8397871 3.5751192-1.2557925-.2759456-1.8111999z"/><path d="m99.0224844 34.497016.3469611 1.8397871 3.5751195-1.2578345-.275946-1.8111999z"/><path d="m124.96178 24.6062719.34899 1.8377451 3.57512-1.2557925-.275946-1.8111999z"/><path d="m100.054846 44.5690843.346961 1.8397871 3.575119-1.2578345-.275946-1.8111999z"/><path d="m125.794081 33.8648317.346961 1.839787 3.575119-1.2578344-.275945-1.8111999z"/><path d="m97.3759411 22.8894096.3469611 1.839787 3.5751188-1.2578344-.275945-1.8111999z"/><path d="m123.832432 13.6747515.34899 1.839787 3.573091-1.2557925-.273917-1.8111999z"/></g><path d="m24.396841 131.096249 4.0519371-2.078694-4.544987-.541113-2.6113385 2.119532z" fill="#6e6a67"/></g></svg>