<svg height="32" viewBox="0 0 32 32" width="32" xmlns="http://www.w3.org/2000/svg"><path d="m17.693 2.095c-1.18-.127-2.206-.127-3.386 0l-1.154 4.97c-.513.178-.975.355-1.462.609l-4.335-2.688c-.923.735-1.642 1.445-2.36 2.384l2.668 4.311c-.257.507-.436.938-.59 1.471l-4.977 1.166c-.128 1.166-.128 2.206 0 3.372l4.977 1.141c.154.532.333.989.59 1.471l-2.668 4.336c.718.913 1.437 1.648 2.36 2.384l4.335-2.688c.487.254.949.431 1.462.609l1.154 4.945c1.18.152 2.206.152 3.386 0l1.154-4.945c.513-.177.975-.355 1.462-.609l4.335 2.688c.924-.735 1.642-1.471 2.36-2.384l-2.668-4.336c.257-.482.436-.938.59-1.471l4.977-1.141c.128-1.166.128-2.206 0-3.372l-4.977-1.166c-.154-.533-.334-.964-.59-1.471l2.668-4.311c-.718-.938-1.437-1.648-2.36-2.384l-4.335 2.688c-.487-.254-.949-.431-1.462-.609l-1.154-4.97zm-1.693 9.905c2.198 0 4 1.787 4 3.989 0 2.223-1.802 4.011-4 4.011s-4-1.787-4-4.011c0-2.202 1.802-3.989 4-3.989z"/></svg>