<svg height="32" viewBox="0 0 32 32" width="32" xmlns="http://www.w3.org/2000/svg"><path d="m16 0c-8.862 0-16 7.138-16 16s7.138 16 16 16 16-7.138 16-16-7.138-16-16-16zm-4.923 11.077c0-2.708 2.215-4.923 4.923-4.923s4.923 2.215 4.923 4.923v1.231c0 2.708-2.215 4.923-4.923 4.923s-4.923-2.215-4.923-4.923zm12.308 14.769c-2.092 1.6-4.554 2.462-7.385 2.462s-5.292-.862-7.385-2.462c-.369-.246-.738-.615-1.108-.985.369-2.954 2.954-5.169 6.031-5.169h4.923c3.077 0 5.662 2.215 6.031 5.169-.369.369-.738.738-1.108.985z" fill="#97be32"/></svg>