<svg height="32" viewBox="0 0 32 32" width="32" xmlns="http://www.w3.org/2000/svg"><path d="m3 15.3c0 2.702 2.148 4.9 4.789 4.9 1.245 0 2.371-.501 3.225-1.302l8.566 5.008c-.101.39-.155.791-.16 1.194 0 2.702 2.148 4.9 4.789 4.9s4.789-2.198 4.789-4.9-2.148-4.9-4.789-4.9c-1.245 0-2.371.501-3.225 1.302l-8.566-5.008c.086-.346.141-.703.148-1.075l8.417-4.921c.855.801 1.981 1.302 3.227 1.302 2.641 0 4.789-2.198 4.789-4.9s-2.148-4.9-4.789-4.9-4.789 2.198-4.789 4.9c0 .414.066.809.16 1.194l-7.778 4.549c-.879-1.396-2.39-2.24-4.014-2.243-2.641 0-4.789 2.198-4.789 4.9z"/></svg>