<svg height="32" viewBox="0 0 32 32" width="32" xmlns="http://www.w3.org/2000/svg"><path d="m14.157 25.76c-1.804-.303-3.394-1.196-4.74-2.309l.645-3.232h.549c.828 0 1.595-.375 2.103-1.026.508-.652.684-1.488.485-2.288l-.889-3.556c-.299-1.189-1.362-2.02-2.588-2.02h-3.796c1.488-4.388 5.636-7.556 10.517-7.556 2.491 0 4.784.834 6.638 2.222h-.805c-1.227 0-2.29.83-2.587 2.02l-.889 3.556c-.201.8-.025 1.636.484 2.288.508.651 1.275 1.026 2.103 1.026h1.118l.45 2.702c.149.896.503 1.716 1.004 2.439.126.183.37.245.569.142 1.438-.741 3.122-.676 4.446.155.219.133.482.165.724.082.24-.082.432-.27.519-.508.578-1.58.892-3.266.892-5.012 0-8.087-6.58-14.667-14.667-14.667s-14.667 6.58-14.667 14.667c0 6.907 4.9 12.942 11.65 14.354.862.183 1.649.257 1.869-.794.277-1.616-.103-2.511-1.14-2.686z"/><path d="m16 32c-8.837 0-16-7.163-16-16s7.163-16 16-16 16 7.163 16 16-7.163 16-16 16zm0-3.556c6.873 0 12.444-5.572 12.444-12.444s-5.572-12.444-12.444-12.444c-6.873 0-12.444 5.572-12.444 12.444s5.572 12.444 12.444 12.444z"/></svg>