<svg height="16" viewBox="0 0 16 16" width="16" xmlns="http://www.w3.org/2000/svg"><g fill="none" fill-rule="evenodd"><circle cx="8" cy="8" fill="#f45e16" fill-rule="nonzero" r="8"/><path d="m8.73230043 6.5-.10739362-1.23160956c-.01537522-.08708113-.02340305-.17677665-.02340305-.26839044 0-.82842712.65642461-1.5 1.46616544-1.5.7186335 0 1.3165104.52895169 1.4419521 1.22706085l1.3851245 5.12385132c.0682235.20353223.1052542.42188573.1052542.64908783 0 1.1045695-.8752328 2-1.9548872 2-1.0060074 0-1.83453061-.7774361-1.94288255-1.7770975l-.00166996.0003684-.19386429-2.2232709h-1.8146302l-.18604826 2.1250137c-.0630757 1.0463348-.91251485 1.8749863-1.95113032 1.8749863-1.0796544 0-1.95488722-.8954305-1.95488722-2 0-.1681101.02027334-.3313759.05845517-.4873779l1.44307035-5.34168164c.14663765-.67014031.7315566-1.17094046 1.43080531-1.17094046.8097408 0 1.46616541.67157288 1.46616541 1.5 0 .09198639-.00809326.18203888-.02359101.2694528l-.10773632 1.2305472zm-3.77741321 5c.5398272 0 .97744361-.4477153.97744361-1 0-.55228475-.43761641-1-.97744361-1s-.97744361.44771525-.97744361 1c0 .5522847.43761641 1 .97744361 1zm6.09022558 0c.5398272 0 .9774436-.4477153.9774436-1 0-.55228475-.4376164-1-.9774436-1s-.9774436.44771525-.9774436 1c0 .5522847.4376164 1 .9774436 1z" fill="#fff"/></g></svg>