<?xml version="1.0" encoding="UTF-8"?>
<svg width="41px" height="42px" viewBox="0 0 41 42" version="1.1" xmlns="http://www.w3.org/2000/svg" xmlns:xlink="http://www.w3.org/1999/xlink">
    <!-- Generator: sketchtool 53 (72520) - https://sketchapp.com -->
    <title>925A07C8-2569-4491-B710-8EB62972E384</title>
    <desc>Created with sketchtool.</desc>
    <defs>
        <filter x="-42.2%" y="-42.2%" width="184.4%" height="184.4%" filterUnits="objectBoundingBox" id="filter-1">
            <feOffset dx="0" dy="2" in="SourceAlpha" result="shadowOffsetOuter1"></feOffset>
            <feGaussianBlur stdDeviation="2.5" in="shadowOffsetOuter1" result="shadowBlurOuter1"></feGaussianBlur>
            <feColorMatrix values="0 0 0 0 0   0 0 0 0 0   0 0 0 0 0  0 0 0 0.2 0" type="matrix" in="shadowBlurOuter1" result="shadowMatrixOuter1"></feColorMatrix>
            <feMerge>
                <feMergeNode in="shadowMatrixOuter1"></feMergeNode>
                <feMergeNode in="SourceGraphic"></feMergeNode>
            </feMerge>
        </filter>
        <ellipse id="path-2" cx="15.5851197" cy="15.7419654" rx="15.5851197" ry="15.7419654"></ellipse>
        <ellipse id="path-4" cx="15.5851197" cy="15.7419654" rx="15.5851197" ry="15.7419654"></ellipse>
    </defs>
    <g id="Page-1" stroke="none" stroke-width="1" fill="none" fill-rule="evenodd">
        <g id="Grants-and-Fellowships---Project-List" transform="translate(-603.000000, -731.000000)">
            <g id="Who-uses" transform="translate(129.000000, 543.000000)">
                <g id="earth" transform="translate(67.000000, 4.000000)">
                    <g id="marker_fellow-copy" filter="url(#filter-1)" transform="translate(412.000000, 187.000000)">
                        <mask id="mask-3" fill="white">
                            <use xlink:href="#path-2"></use>
                        </mask>
                        <use id="Mask" fill="#FFFFFF" xlink:href="#path-2"></use>
                        <path d="M30.0885633,25.2887567 C29.40749,22.9749306 26.4508879,21.6771372 25.3673899,21.7394941 C24.2837394,21.8021589 20.5238122,20.6295412 20.5238122,20.6295412 L20.0748953,19.8948075 C20.0748953,19.8948075 20.2607119,16.2987388 20.3227523,15.5329037 C20.3844879,14.7666066 20.5393605,14.5322678 20.5393605,14.5322678 C20.5393605,14.5322678 20.6475883,14.6258802 20.8024609,14.6258802 C20.9573334,14.6258802 21.1408635,14.3998556 21.1789719,13.9242495 C21.2286652,13.3045297 21.1233336,12.4905026 21.1233336,12.5970483 C21.1233336,12.0533884 21.3603678,11.8352163 21.2364393,11.5225079 C21.1634236,11.3380547 21.0045878,11.3362071 20.8859945,11.365153 C20.9530653,11.1069492 21.0061122,10.8801549 21.0192214,10.7797679 C21.0655613,10.4202534 21.1429975,9.24763573 21.0192214,8.63776982 C20.8952929,8.02821184 20.090596,6.27713761 19.7654551,5.69852714 C19.4404667,5.12007063 18.6565007,5.16626093 19.3165381,5.21383694 C19.5331463,5.22954164 18.5688513,4.71174839 18.7901849,4.69804527 C19.0378895,4.68203263 18.4342525,4.46324458 18.4342525,4.46324458 C18.4342525,4.46324458 18.4959881,3.99410511 18.341268,4.04121922 C18.1464578,4.1003428 17.9697873,3.63459062 17.7222351,3.90049277 C17.4745305,4.16624096 17.5673626,3.25937143 17.4280383,3.52527358 C17.288714,3.79102177 16.8059568,3.36252976 16.6076406,3.46260874 C16.3602409,3.58778445 17.1030498,3.1619099 16.7315692,3.19701452 C16.5613008,3.21302716 16.1744244,3.14020046 15.9265673,3.32203627 C15.6611804,3.51726726 15.9886078,2.97822647 15.7564514,3.27507613 C15.547465,3.54236399 14.639418,3.4561421 14.379976,3.6522969 C14.4532966,3.50387207 14.539574,3.30571569 14.4717411,3.40009787 C14.3478125,3.57207975 13.8060635,3.86923734 13.5428107,4.13483156 C13.2797103,4.40088768 13.9298396,3.60333518 13.651191,3.82212323 C13.3397691,4.06708578 12.8771332,4.2912627 12.7070173,4.69804527 C12.5365965,5.10436593 12.5521447,4.02566848 12.5365965,4.46324458 C12.5280602,4.71020871 12.2271563,4.83846377 12.1033802,5.12007063 C11.9791468,5.40213939 12.0675583,4.89389213 11.8890586,5.3106826 C11.744704,5.64787178 11.6854073,5.46388042 11.4995907,6.04233693 C11.3137742,6.62094741 11.2674344,6.02678619 11.0817702,6.5271811 C10.8961061,7.02742203 10.8494614,7.51211224 10.5865135,8.38772633 C10.3266142,9.25117699 10.6394079,11.8777113 10.9005267,12.4894249 C10.8407727,12.4808027 10.7733971,12.4837281 10.7000765,12.5088248 C10.3749356,12.6198355 11.0596674,13.5014543 11.1682001,13.8766735 C11.2762755,14.2520467 11.2572213,14.5084028 11.4738295,15.102718 C11.6904376,15.6967252 12.1863041,15.4225088 12.1863041,15.4225088 L12.784606,17.9247913 L12.5678454,20.2387713 C12.5678454,20.2387713 9.84842999,20.9821272 8.52911718,21.1611916 C4.15366315,21.7548909 2.83267358,23.506427 2.22918896,24.3352349 C1.62539947,25.1637349 0,32.1914349 0,32.1914349 L31.1257215,32.1914349 C31.1257215,32.1914349 30.7696366,27.6027367 30.0885633,25.2887567" id="Fill-1" fill="#F88000" mask="url(#mask-3)"></path>
                        <mask id="mask-5" fill="white">
                            <use xlink:href="#path-4"></use>
                        </mask>
                        <ellipse stroke="#FFFFFF" stroke-width="1.60000002" cx="15.5851197" cy="15.7419654" rx="14.7851197" ry="14.9419654"></ellipse>
                    </g>
                </g>
            </g>
        </g>
    </g>
</svg>