<?xml version="1.0" encoding="utf-8"?>
<!-- Generated by IcoMoon.io -->
<!DOCTYPE svg PUBLIC "-//W3C//DTD SVG 1.1//EN" "http://www.w3.org/Graphics/SVG/1.1/DTD/svg11.dtd">
<svg version="1.1" xmlns="http://www.w3.org/2000/svg" xmlns:xlink="http://www.w3.org/1999/xlink" width="32" height="32" viewBox="0 0 32 32">
<path fill="#000000" d="M1.6 25.326v-19.979l25.174 0.086v19.619c0 0.892 0.716 1.775 1.099 2.198h-24.272c-2.001 0-2.001-1.924-2.001-1.924zM27.997 6.913v-2.933h-27.997v20.986c0 0 0 3.848 4 3.848h24.993c0 0 3.007-0.063 3.007-3.848v-18.053h-4.003zM14.655 22.557v-10.548h-9.312v10.548h9.312zM24.001 13.17v-1.221h-8.001v1.221h8.001zM16 16.068h8.001v-1.333h-8.001v1.333zM22.595 22.557v-1.235h-6.595v1.235h6.595zM23.997 9.347v-1.308h-18.664v1.308h18.664zM16 17.863h8.001v1.564h-8.001v-1.564z"></path>
</svg>
