<?xml version="1.0" encoding="utf-8"?>
<!-- Generated by IcoMoon.io -->
<!DOCTYPE svg PUBLIC "-//W3C//DTD SVG 1.1//EN" "http://www.w3.org/Graphics/SVG/1.1/DTD/svg11.dtd">
<svg version="1.1" xmlns="http://www.w3.org/2000/svg" xmlns:xlink="http://www.w3.org/1999/xlink" width="32" height="32" viewBox="0 0 32 32">
<path fill="#000000" d="M24.147 28.22l-8.147-8.147-8.147 8.147c-1.124 1.124-2.949 1.124-4.073 0s-1.124-2.949 0-4.073l8.147-8.147-8.147-8.147c-1.124-1.124-1.124-2.949 0-4.073s2.949-1.124 4.073 0l8.147 8.147 8.147-8.147c1.124-1.124 2.949-1.124 4.073 0s1.124 2.949 0 4.073l-8.147 8.147 8.147 8.147c1.124 1.124 1.124 2.949 0 4.073s-2.949 1.124-4.073 0v0z"></path>
</svg>
