<?xml version="1.0" encoding="utf-8"?>
<!-- Generated by IcoMoon.io -->
<!DOCTYPE svg PUBLIC "-//W3C//DTD SVG 1.1//EN" "http://www.w3.org/Graphics/SVG/1.1/DTD/svg11.dtd">
<svg version="1.1" xmlns="http://www.w3.org/2000/svg" xmlns:xlink="http://www.w3.org/1999/xlink" width="32" height="32" viewBox="0 0 32 32">
<path fill="#000000" d="M25.032 21.884c0 0-0.597 0.891-1.388 1.156-1.583 0.533-4.007 0.091-5.563 0.452-2.591 0.601-4.292 4.268-4.292 4.268 0.665 0.54 1.407-1.115 2.807-1.967 2.519-1.532 6.216-1.272 6.216-1.272s-0.852 0.508-2.657 0.787c-1.804 0.277-3.636 1.248-5.517 2.96s-2.281 2.221-2.281 2.221c0 0-0.695-2.407-0.093-4.072s3.84-3.377 6.616-5.736c2.776-2.36 4.257-7.356 2.267-14.204-1.291-4.443-4.209-6.107-4.209-6.107s0.039 1.331-0.833 3.331c-2.499 5.737-7.865 6.153-8.836 13.833-0.432 3.417 1.943 7.311 1.943 7.311 0.707-0.18-0.665-3.655 1.619-9.115 1.205-2.877 2.823-4.117 4.673-6.245s2.221-4.396 2.221-4.396c0 0 0.601 0.74 0.092 2.731-0.489 1.915-4.595 6.167-5.783 8.929-1.435 3.331-1.435 4.996-1.343 8.235 0.091 3.148 1.249 7.032 1.249 7.032l0.972-0.324c0 0 0.092-0.925 1.156-1.799 1.065-0.872 3.347-0.192 4.443-0.005 1.311 0.224 2.683 0.231 4.857-2.175s1.665-5.829 1.665-5.829z"></path>
</svg>
