<?xml version="1.0" encoding="utf-8"?>
<!-- Generated by IcoMoon.io -->
<!DOCTYPE svg PUBLIC "-//W3C//DTD SVG 1.1//EN" "http://www.w3.org/Graphics/SVG/1.1/DTD/svg11.dtd">
<svg version="1.1" xmlns="http://www.w3.org/2000/svg" xmlns:xlink="http://www.w3.org/1999/xlink" width="32" height="32" viewBox="0 0 32 32">
<path fill="#000000" d="M10.184 16.831v3.679l-1.187 1.187v-3.917l1.187-0.949v-4.629c2.848 1.662 4.629-4.035 9.495-0.237v-7.003c-4.866-3.798-6.647 1.899-9.495 0.237v-1.068c0.475 0 0.831-0.356 0.831-0.831s-0.356-0.831-0.831-0.831h-1.306c-0.475 0-0.831 0.356-0.831 0.831 0 0.356 0.475 0.831 0.831 0.831v0 13.53l-1.78 1.187-5.341 10.563 9.495-3.798 1.306-10.563-2.374 1.78z"></path>
<path fill="#000000" d="M13.508 14.932l-1.424 10.682 9.020 3.917-2.018-10.682-5.578-3.917z"></path>
<path fill="#000000" d="M24.19 15.763l-4.273 2.967 1.899 10.801 8.308-4.866-5.934-8.902z"></path>
</svg>
