<?xml version="1.0" encoding="utf-8"?>
<!-- Generated by IcoMoon.io -->
<!DOCTYPE svg PUBLIC "-//W3C//DTD SVG 1.1//EN" "http://www.w3.org/Graphics/SVG/1.1/DTD/svg11.dtd">
<svg version="1.1" xmlns="http://www.w3.org/2000/svg" xmlns:xlink="http://www.w3.org/1999/xlink" width="32" height="32" viewBox="0 0 32 32">
<path fill="#000000" d="M12.358 16.676l-8.043 8.038c-0.904 0.907-0.959 2.315-0.111 3.167l1.826 1.834c0.849 0.833 2.251 0.778 3.155-0.111l8.062-8.057c0.904-0.907 0.941-2.315 0.111-3.167l-0.111-0.093 8.283-8.279 1.236 0.389 3.542-5.167-1.623-1.63-5.165 3.538 0.369 1.259-8.265 8.26-0.092-0.093c-0.849-0.852-2.269-0.796-3.173 0.111zM16.911 13.133l0.803-0.825-0.363-0.365c0.688-2.611 0.038-5.529-1.989-7.678-2.467-2.572-6.176-3.244-9.178-1.881l4.532 4.607c0.516 0.537 0.535 1.382 0.019 1.9l-1.855 1.843c-0.497 0.518-1.358 0.499-1.874-0.019l-4.627-4.53c-1.358 3.014-0.688 6.719 1.893 9.176 1.281 1.209 2.83 1.939 4.436 2.169l4.761-4.741c0.861 0.845 2.237 0.845 3.098 0l0.344 0.345zM19.359 24.573l5.105 4.991c1.071 1.037 2.83 0.979 3.92-0.115l1.052-1.056c1.109-1.113 1.166-2.86 0.134-3.935l-6.864-7.026-0.746 0.749 0.363 0.346c-0.861 0.845-0.861 2.246 0 3.090l-2.964 2.956z"></path>
</svg>
