<?xml version="1.0" encoding="utf-8"?>
<!-- Generated by IcoMoon.io -->
<!DOCTYPE svg PUBLIC "-//W3C//DTD SVG 1.1//EN" "http://www.w3.org/Graphics/SVG/1.1/DTD/svg11.dtd">
<svg version="1.1" xmlns="http://www.w3.org/2000/svg" xmlns:xlink="http://www.w3.org/1999/xlink" width="32" height="32" viewBox="0 0 32 32">
<path fill="#000000" d="M13.399 3.423v9.207h-4.76l7.023 9.52 7.022-9.52h-4.76v-9.207h-4.525zM2.397 28.392h26.529v-10.923h-3.121v7.802h-20.287v-7.802h-3.121v10.923z"></path>
<path fill="#000000" d="M13.399 3.423v9.207h-4.76l7.023 9.52 7.022-9.52h-4.76v-9.207h-4.525zM25.805 17.467v7.803h-20.287v-7.803h-3.121v10.924h26.529v-10.924h-3.121z"></path>
<path fill="#000000" d="M13.398 3.424v9.207h-4.759l7.022 9.52 7.023-9.52h-4.76v-9.207h-4.526zM25.806 17.468v7.802h-20.288v-7.802h-3.121v10.923h26.53v-10.923h-3.121z"></path>
</svg>
