<?xml version="1.0" encoding="utf-8"?>
<!-- Generated by IcoMoon.io -->
<!DOCTYPE svg PUBLIC "-//W3C//DTD SVG 1.1//EN" "http://www.w3.org/Graphics/SVG/1.1/DTD/svg11.dtd">
<svg version="1.1" xmlns="http://www.w3.org/2000/svg" xmlns:xlink="http://www.w3.org/1999/xlink" width="26" height="32" viewBox="0 0 26 32">
<path fill="#000000" d="M0.149 19.925c0.229-0.918 0.78-2.4 1.682-4.449 0.901-2.033 1.391-3.668 1.482-4.906 0.887 1.636 1.391 3.256 1.514 4.877 3.347-4.128 5.075-8.943 5.212-14.431 0.214 0.137 0.504 0.32 0.856 0.564 0.352 0.229 1.009 0.75 1.942 1.545 0.947 0.795 1.788 1.62 2.506 2.476 0.735 0.856 1.407 1.942 2.049 3.256 0.641 1.315 1.024 2.644 1.161 3.96 0.352-0.796 0.566-1.667 0.658-2.646 0.077-0.963-0.031-1.865-0.337-2.691 0.352 0.26 0.81 0.704 1.391 1.315 0.566 0.612 1.207 1.453 1.911 2.508 0.703 1.055 1.33 2.171 1.88 3.364 0.55 1.176 0.901 2.506 1.055 3.974 0.152 1.482 0.046 2.904-0.306 4.296-0.352 1.375-1.162 2.812-2.431 4.28-1.284 1.467-2.996 2.828-5.152 4.051 1.453-2.904 1.743-6.024 0.856-9.386-0.872-3.364-2.614-5.947-5.198-7.75 0.215 0.963 0.092 2.552-0.366 4.785-0.458 2.216-1.193 3.898-2.217 5.029 0.183-1.407 0.229-2.538 0.138-3.424-0.092-0.872-0.215-1.53-0.398-1.972l-0.321-0.596c-0.275 1.59-0.947 3.164-2.048 4.755-0.581 0.824-1.009 1.59-1.284 2.292-0.291 0.703-0.398 1.605-0.337 2.706s0.412 2.292 1.024 3.562c-3.027-1.713-5.060-3.456-6.099-5.213s-1.315-3.791-0.826-6.13z"></path>
</svg>
