<?xml version="1.0" encoding="utf-8"?>
<!-- Generated by IcoMoon.io -->
<!DOCTYPE svg PUBLIC "-//W3C//DTD SVG 1.1//EN" "http://www.w3.org/Graphics/SVG/1.1/DTD/svg11.dtd">
<svg version="1.1" xmlns="http://www.w3.org/2000/svg" xmlns:xlink="http://www.w3.org/1999/xlink" width="32" height="32" viewBox="0 0 32 32">
<path fill="#000000" d="M15.697 0.605v0c-8.661 0-15.697 7.036-15.697 15.697s7.036 15.697 15.697 15.697c8.661 0 15.697-7.036 15.697-15.697s-7.036-15.697-15.697-15.697zM15.697 3.911c6.837 0 12.393 5.555 12.393 12.392s-5.556 12.393-12.393 12.393c-6.837 0-12.393-5.556-12.393-12.393s5.556-12.392 12.393-12.392v0zM13.549 21.804h3.652v3.504h-3.652v-3.504zM11.517 8.132c0.957-0.607 2.148-0.917 3.552-0.917 1.835 0 3.371 0.443 4.577 1.311 1.223 0.884 1.833 2.177 1.833 3.896 0 1.048-0.264 1.932-0.792 2.653-0.315 0.441-0.909 0.999-1.785 1.687l-0.859 0.655c-0.48 0.376-0.777 0.803-0.943 1.277-0.099 0.311-0.148 0.785-0.148 1.44h-3.321c0.049-1.375 0.181-2.324 0.396-2.832 0.215-0.524 0.744-1.129 1.636-1.817l0.876-0.688c0.297-0.213 0.529-0.459 0.711-0.72 0.331-0.443 0.496-0.933 0.496-1.475 0-0.605-0.183-1.163-0.545-1.669-0.364-0.508-1.025-0.769-1.983-0.769-0.943 0-1.62 0.311-2 0.933-0.396 0.637-0.595 1.276-0.595 1.948h-3.536c0.099-2.309 0.909-3.947 2.429-4.912v0z"></path>
</svg>
