<?xml version="1.0" encoding="utf-8"?>
<!-- Generated by IcoMoon.io -->
<!DOCTYPE svg PUBLIC "-//W3C//DTD SVG 1.1//EN" "http://www.w3.org/Graphics/SVG/1.1/DTD/svg11.dtd">
<svg version="1.1" xmlns="http://www.w3.org/2000/svg" xmlns:xlink="http://www.w3.org/1999/xlink" width="32" height="32" viewBox="0 0 32 32">
<path fill="#000000" d="M5.772 18.533c-0.015 0.089-0.030 0.245-0.070 0.395-0.251 0.926-0.037 1.768 0.459 2.557 0.256 0.409 0.519 0.815 0.788 1.216 0.577 0.863 1.122 1.731 1.325 2.783 0.119 0.621 0.537 1.092 1.081 1.422 0.359 0.217 0.56 0.128 0.638-0.283 0.088-0.451 0.254-0.836 0.668-1.085 0.107-0.065 0.212-0.161 0.27-0.269 0.239-0.439 0.655-0.5 1.086-0.543 0.495-0.051 0.65-0.174 0.731-0.66 0.075-0.449 0.213-0.83 0.627-1.102 0.49-0.322 0.49-0.684 0.036-1.066-0.36-0.301-0.774-0.525-1.194-0.734-0.433-0.213-0.979-0.333-1.268-0.671-0.609-0.708-1.324-1.259-2.081-1.774-0.011-0.008-0.020-0.019-0.030-0.030-0.258-0.3-0.586-0.49-0.965-0.595-0.387-0.107-0.751-0.248-1.056-0.525-0.146-0.134-0.334-0.204-0.531-0.26-0.258-0.074-0.522-0.146-0.731-0.333-0.061-0.055-0.131-0.157-0.212-0.104-0.11 0.072-0.029 0.183 0.015 0.265 0.227 0.416 0.393 0.849 0.413 1.397zM15.355 4.181c-0.381 0.034-0.847 0.197-1.277 0.448-0.237 0.138-0.357 0.385-0.357 0.645 0 0.674-0.255 1.269-0.505 1.871-0.065 0.156-0.129 0.317-0.16 0.481-0.043 0.227 0.047 0.419 0.241 0.548 0.193 0.128 0.358 0.033 0.498-0.096 0.42-0.391 0.906-0.676 1.422-0.921 0.26-0.123 0.504-0.3 0.576-0.591 0.124-0.492 0.237-0.987 0.35-1.482 0.119-0.529-0.185-0.895-0.788-0.901zM1.404 15.892c0 8.195 6.54 14.838 14.607 14.838s14.606-6.643 14.606-14.838c0-8.194-6.539-14.838-14.606-14.838s-14.607 6.644-14.607 14.838zM3.259 15.892c0-0.882 0.085-1.744 0.25-2.578 0.104 0.96 0.599 1.627 0.991 2.334 0.014 0.024 0.036 0.043 0.056 0.063 0.071 0.071 0.15 0.151 0.258 0.118 0.107-0.033 0.131-0.141 0.145-0.242 0.047-0.321-0.056-0.588-0.301-0.8-0.129-0.112-0.27-0.22-0.28-0.409-0.025-0.468 0.024-0.954 0.404-1.248 0.396-0.305 0.74 0.030 1.062 0.267 0.335 0.246 0.536 0.208 0.698-0.171 0.143-0.338 0.333-0.627 0.638-0.831 0.331-0.221 0.668-0.434 0.999-0.654 0.313-0.207 0.64-0.362 1.033-0.338 0.269 0.015 0.472-0.128 0.578-0.366 0.166-0.377 0.445-0.611 0.825-0.751 0.317-0.118 0.543-0.357 0.555-0.693 0.022-0.635-0.085-1.246-0.589-1.708-0.24-0.221-0.485-0.222-0.713 0.011-0.179 0.184-0.336 0.387-0.518 0.566-0.175 0.174-0.388 0.349-0.641 0.206-0.231-0.132-0.261-0.401-0.226-0.646 0.079-0.532 0.317-0.966 0.82-1.221 0.368-0.187 0.732-0.378 1.097-0.572 0.099-0.052 0.226-0.109 0.209-0.242-0.019-0.145-0.168-0.126-0.272-0.155-0.434-0.122-0.57-0.364-0.443-0.796 0.028-0.095 0.074-0.185 0.098-0.282 0.028-0.11 0.096-0.23 0.049-0.339 1.781-0.962 3.813-1.507 5.97-1.507 1.121 0 2.207 0.147 3.243 0.424 0.062 0.079 0.164 0.137 0.25 0.188 0.588 0.345 0.97 0.914 1.484 1.339 0.131 0.108 0.211 0.264 0.235 0.443 0.065 0.487-0.159 0.696-0.637 0.581-0.193-0.046-0.383-0.108-0.579-0.142-0.458-0.079-0.744 0.156-0.741 0.623 0.003 0.428-0.033 0.844-0.147 1.262-0.098 0.36 0.037 0.673 0.357 0.886 0.131 0.086 0.263 0.17 0.401 0.242 0.24 0.127 0.283 0.298 0.141 0.524-0.076 0.119-0.14 0.249-0.227 0.36-0.235 0.301-0.459 0.327-0.768 0.096-0.17-0.128-0.329-0.273-0.5-0.399-0.189-0.138-0.396-0.188-0.578 0.001-0.19 0.198-0.175 0.425 0.017 0.605 0.369 0.349 0.579 0.806 0.859 1.213 0.282 0.41 0.256 0.491-0.16 0.787-0.594 0.423-0.596 0.965 0.017 1.359 0.22 0.142 0.274 0.244 0.096 0.458-0.308 0.371-0.584 0.769-0.891 1.141-0.527 0.64-0.838 1.348-0.755 2.106 0 0.202 0.009 0.316-0.003 0.429-0.116 1.232 1.305 2.395 2.392 2.187 0.548-0.105 1.074-0.232 1.589-0.442 0.671-0.273 1.197 0.032 1.348 0.734 0.047 0.22 0.051 0.466 0.223 0.633 0.534 0.519 0.525 1.133 0.32 1.776-0.19 0.596-0.168 1.208-0.136 1.816 0.029 0.566 0.379 0.814 0.849 0.6 0.91-0.413 1.711-0.962 2.137-1.919 0.151-0.339 0.329-0.668 0.569-0.948 0.678-0.793 0.897-1.713 0.853-2.733-0.024-0.551-0.027-1.103 0.067-1.655 0.117-0.687 0.201-1.382-0.176-2.032-0.122-0.209-0.020-0.383 0.113-0.543 0.297-0.355 0.484-0.767 0.619-1.204 0.086-0.279 0.099-0.553-0.060-0.82-0.315-0.528-0.312-0.531 0.25-0.788l0.112-0.053c0.371 1.216 0.569 2.507 0.569 3.846 0 7.171-5.709 12.984-12.751 12.984s-12.751-5.813-12.751-12.984zM21.218 8.605c-0.047 0.234-0.179 0.358-0.415 0.357-0.159-0.001-0.316-0.053-0.263-0.239 0.061-0.208 0.116-0.492 0.377-0.513 0.214-0.018 0.26 0.22 0.301 0.395zM21.206 11.569c0.468 0.093 0.914 0.28 1.409 0.288 0.607 0.010 1.212 0.105 1.817 0.146 0.286 0.020 0.561 0.047 0.626 0.383 0.060 0.312-0.067 0.614-0.366 0.69-0.717 0.181-1.441 0.55-2.187 0.305-0.802-0.263-1.534-0.089-2.287 0.127-0.094 0.027-0.193 0.051-0.291 0.056-0.213 0.009-0.478 0.024-0.596-0.145-0.117-0.169 0.141-0.305 0.214-0.465 0.089-0.194 0.194-0.378 0.292-0.569 0.284-0.555 0.792-0.732 1.368-0.817z"></path>
</svg>
