<?xml version="1.0" encoding="utf-8"?>
<!-- Generated by IcoMoon.io -->
<!DOCTYPE svg PUBLIC "-//W3C//DTD SVG 1.1//EN" "http://www.w3.org/Graphics/SVG/1.1/DTD/svg11.dtd">
<svg version="1.1" xmlns="http://www.w3.org/2000/svg" xmlns:xlink="http://www.w3.org/1999/xlink" width="32" height="32" viewBox="0 0 32 32">
<path fill="#000000" d="M12.583 19.67h5.978c2.569-2.301 2.594-6.052 2.594-6.092l-0.004-4.865c-0.432-1.959-3.052-3.717-5.58-3.717-2.529 0.001-5.149 1.762-5.581 3.72l-0.004 4.865c0 0.036 0.053 3.806 2.596 6.090v0zM4.144 27.855h22.855v-0.337l-8.318-4.991h-6.219l-8.319 4.994v0.335zM27.572 30.713h-23.998c-1.26 0-2.287-1.026-2.287-2.287v-2.523l8.452-5.075c-2.58-3.084-2.609-7.057-2.609-7.251l0.026-5.251c0.657-3.7 4.882-6.185 8.416-6.185h0.005c3.532 0 7.754 2.483 8.41 6.183l0.022 0.248 0.004 5.004c0 0.194-0.029 4.169-2.608 7.253l8.451 5.071v2.527c0 1.26-1.025 2.287-2.284 2.287v0z"></path>
</svg>
