<?xml version="1.0" encoding="utf-8"?>
<!-- Generated by IcoMoon.io -->
<!DOCTYPE svg PUBLIC "-//W3C//DTD SVG 1.1//EN" "http://www.w3.org/Graphics/SVG/1.1/DTD/svg11.dtd">
<svg version="1.1" xmlns="http://www.w3.org/2000/svg" xmlns:xlink="http://www.w3.org/1999/xlink" width="32" height="32" viewBox="0 0 32 32">
<path fill="#000000" d="M20.69 25c0.127 0.162 0.271 0.325 0.433 0.468l4.418 4.022c1.082 0.991 2.886 1.045 4.058 0.071 1.262-1.028 1.353-2.831 0.108-3.949l-4.888-4.455c1.498-2.127 2.381-4.725 2.381-7.52 0-7.323-6.059-12.769-13.237-12.191-6.872 0.558-12.228 6.456-12.228 13.201s5.357 12.227 12.228 12.227c2.435 0 4.743-0.685 6.726-1.875zM5.125 14.613c0-4.996 3.896-9.361 8.892-9.775 5.211-0.433 9.613 3.607 9.613 9.018 0 5.428-4.401 9.811-9.613 9.811-4.996 0-8.892-4.058-8.892-9.053z"></path>
</svg>
