<?xml version="1.0" encoding="utf-8"?>
<!-- Generated by IcoMoon.io -->
<!DOCTYPE svg PUBLIC "-//W3C//DTD SVG 1.1//EN" "http://www.w3.org/Graphics/SVG/1.1/DTD/svg11.dtd">
<svg version="1.1" xmlns="http://www.w3.org/2000/svg" xmlns:xlink="http://www.w3.org/1999/xlink" width="31" height="32" viewBox="0 0 31 32">
<path fill="#fff" d="M27.599 27.869h-24.138c-1.456 0-2.636-1.18-2.636-2.636v-19.419c0-1.456 1.18-2.636 2.636-2.636h24.138c1.456 0 2.636 1.18 2.636 2.636v19.419c0 1.456-1.18 2.636-2.636 2.636z"></path>
<path fill="#545454" d="M29.419 25.257c0 0.981-0.795 1.776-1.776 1.776h-24.147c-0.981 0-1.776-0.795-1.776-1.776v-19.502c0-0.981 0.795-1.776 1.776-1.776h24.147c0.981 0 1.776 0.795 1.776 1.776v19.502zM27.599 2.259h-11.255v-1.376c0-0.475-0.385-0.86-0.86-0.86s-0.86 0.385-0.86 0.86v1.376h-11.163c-1.928 0-3.46 1.627-3.46 3.555v19.419c0 1.928 1.532 3.521 3.46 3.521h10.22l-1.72 1.804c-0.327 0.345-0.312 0.883 0.033 1.21 0.166 0.158 0.379 0.233 0.591 0.233 0.228 0 0.456-0.092 0.625-0.27l2.347-2.477 2.346 2.476c0.169 0.178 0.397 0.268 0.625 0.268 0.212 0 0.425-0.078 0.591-0.236 0.345-0.327 0.359-0.859 0.033-1.204l-1.72-1.804h10.168c1.928 0 3.541-1.593 3.541-3.521v-19.419c0-1.928-1.613-3.555-3.541-3.555v0z"></path>
<path fill="#afd400" d="M8.774 17.846c0 0.903-0.732 1.634-1.634 1.634s-1.634-0.732-1.634-1.634c0-0.903 0.732-1.634 1.634-1.634s1.634 0.732 1.634 1.634z"></path>
<path fill="#afd400" d="M13.763 10.448c0 0.903-0.732 1.634-1.634 1.634s-1.634-0.732-1.634-1.634c0-0.903 0.732-1.634 1.634-1.634s1.634 0.732 1.634 1.634z"></path>
<path fill="#afd400" d="M20.473 20.599c0 0.903-0.732 1.634-1.634 1.634s-1.634-0.732-1.634-1.634c0-0.903 0.732-1.634 1.634-1.634s1.634 0.732 1.634 1.634z"></path>
<path fill="#afd400" d="M25.634 10.62c0 0.903-0.732 1.634-1.634 1.634s-1.634-0.732-1.634-1.634c0-0.903 0.732-1.634 1.634-1.634s1.634 0.732 1.634 1.634z"></path>
<path fill="#545454" d="M24 11.394c-0.427 0-0.774-0.347-0.774-0.774s0.347-0.774 0.774-0.774c0.427 0 0.774 0.347 0.774 0.774s-0.347 0.774-0.774 0.774zM18.839 21.373c-0.427 0-0.774-0.347-0.774-0.774s0.347-0.774 0.774-0.774c0.427 0 0.774 0.347 0.774 0.774s-0.347 0.774-0.774 0.774zM11.355 10.448c0-0.427 0.347-0.774 0.774-0.774s0.774 0.347 0.774 0.774c0 0.427-0.347 0.774-0.774 0.774s-0.774-0.347-0.774-0.774zM7.14 18.62c-0.427 0-0.774-0.347-0.774-0.774s0.347-0.774 0.774-0.774c0.427 0 0.774 0.347 0.774 0.774s-0.347 0.774-0.774 0.774zM24 8.126c-1.375 0-2.495 1.119-2.495 2.495 0 0.703 0.294 1.338 0.764 1.792l-3.148 5.709c-0.093-0.011-0.187-0.017-0.282-0.017-0.018 0-0.035 0.002-0.053 0.003l-4.396-6.61c0.149-0.319 0.234-0.674 0.234-1.049 0-1.375-1.119-2.495-2.495-2.495s-2.495 1.119-2.495 2.495c0 0.578 0.199 1.109 0.53 1.533l-2.257 3.493c-0.242-0.079-0.5-0.122-0.768-0.122-1.375 0-2.495 1.119-2.495 2.495s1.119 2.495 2.495 2.495c1.375 0 2.495-1.119 2.495-2.495 0-0.477-0.137-0.922-0.37-1.301l2.361-3.654c0.163 0.034 0.332 0.051 0.504 0.051 0.36 0 0.702-0.078 1.012-0.216l4.015 6.037c-0.497 0.456-0.811 1.109-0.811 1.836 0 1.375 1.119 2.495 2.495 2.495s2.495-1.119 2.495-2.495c0-0.658-0.258-1.255-0.676-1.702l3.193-5.79c0.050 0.003 0.099 0.008 0.15 0.008 1.375 0 2.495-1.119 2.495-2.495s-1.119-2.495-2.495-2.495z"></path>
</svg>
