<svg width="64" height="64" viewBox="0 0 64 64" fill="none" xmlns="http://www.w3.org/2000/svg">
<path d="M3.5 58H62" stroke="#555555" stroke-width="1.5" stroke-linecap="round" stroke-linejoin="round"/>
<path d="M10 58V46.5H26M26 58V15H40V27.5M40 58V46.5M40 46.5V27.5M40 46.5H45M52 58V46.5H45M40 27.5H45V46.5" stroke="#555555" stroke-width="1.5" stroke-linecap="round" stroke-linejoin="round"/>
<path d="M21 46V27.5H24M26 27.5H24M16 46.5C16 40.6667 16 27.8 16 23C16 17 24 17 24 23C24 27.5 24 27.6667 24 27.5" stroke="#555555" stroke-width="1.5" stroke-linecap="round" stroke-linejoin="round"/>
<path d="M17 20L20 11L23 20" stroke="#555555" stroke-width="1.5" stroke-linecap="round" stroke-linejoin="round"/>
<path d="M28 15V12H29.5M38 15V12H36.5M29.5 12V9H36.5V12M29.5 12H36.5" stroke="#555555" stroke-width="1.5" stroke-linecap="round" stroke-linejoin="round"/>
<path d="M33 5V9" stroke="#555555" stroke-width="1.5" stroke-linecap="round" stroke-linejoin="round"/>
<path d="M31 20V46" stroke="#555555" stroke-width="1.5" stroke-linecap="round" stroke-linejoin="round"/>
<path d="M35 20V46" stroke="#555555" stroke-width="1.5" stroke-linecap="round" stroke-linejoin="round"/>
<path d="M30 52C30 52 31 50.5 33 50.5C35 50.5 36 52 36 52" stroke="#555555" stroke-width="1.5" stroke-linecap="round" stroke-linejoin="round"/>
</svg>
