<svg width="64" height="64" viewBox="0 0 64 64" fill="none" xmlns="http://www.w3.org/2000/svg">
<path fill-rule="evenodd" clip-rule="evenodd" d="M42.4789 25.4228C42.7642 25.6595 42.8337 26.0691 42.6426 26.3867C40.4795 29.9808 36.1158 41.4626 36.5275 57.9813C36.5379 58.3954 36.2106 58.7394 35.7965 58.7498C35.3824 58.7601 35.0383 58.4328 35.028 58.0187C34.705 45.0597 37.2717 35.0834 39.53 29.4343C34.858 34.4033 28.75 43.36 28.75 58C28.75 58.4142 28.4142 58.75 28 58.75C27.5858 58.75 27.25 58.4142 27.25 58C27.25 39.2951 36.9311 29.5078 41.5013 25.4398C41.7782 25.1933 42.1936 25.1861 42.4789 25.4228Z" fill="#555555"/>
<path fill-rule="evenodd" clip-rule="evenodd" d="M45.5004 19.0999C48.0409 19.0999 50.1004 17.0404 50.1004 14.4999C50.1004 11.9594 48.0409 9.8999 45.5004 9.8999C42.9599 9.8999 40.9004 11.9594 40.9004 14.4999C40.9004 17.0404 42.9599 19.0999 45.5004 19.0999Z" stroke="#555555" stroke-width="1.5" stroke-linecap="round" stroke-linejoin="round"/>
<path d="M45.5001 5.3V3" stroke="#555555" stroke-width="1.5" stroke-linecap="round" stroke-linejoin="round"/>
<path d="M52.0059 7.99399L53.6312 6.36865" stroke="#555555" stroke-width="1.5" stroke-linecap="round" stroke-linejoin="round"/>
<path d="M54.7002 14.5001H57.0002" stroke="#555555" stroke-width="1.5" stroke-linecap="round" stroke-linejoin="round"/>
<path d="M52.0059 21.0059L53.6312 22.6312" stroke="#555555" stroke-width="1.5" stroke-linecap="round" stroke-linejoin="round"/>
<path d="M45.5001 23.7V26" stroke="#555555" stroke-width="1.5" stroke-linecap="round" stroke-linejoin="round"/>
<path d="M38.9935 21.0059L37.3682 22.6312" stroke="#555555" stroke-width="1.5" stroke-linecap="round" stroke-linejoin="round"/>
<path d="M36.3 14.5001H34" stroke="#555555" stroke-width="1.5" stroke-linecap="round" stroke-linejoin="round"/>
<path d="M38.9935 7.99399L37.3682 6.36865" stroke="#555555" stroke-width="1.5" stroke-linecap="round" stroke-linejoin="round"/>
<path fill-rule="evenodd" clip-rule="evenodd" d="M42.2071 38.9783C39.2297 41.839 36.75 47.3463 36.75 58C36.75 58.4142 36.4142 58.75 36 58.75C35.5858 58.75 35.25 58.4142 35.25 58C35.25 47.1537 37.7703 41.161 41.1679 37.8967C44.5693 34.6286 48.6922 34.25 51.5 34.25C51.8478 34.25 52.15 34.4892 52.2299 34.8277C52.3099 35.1662 52.1465 35.5153 51.8354 35.6708C51.7868 35.6951 51.7384 35.7193 51.6903 35.7433C49.252 36.9617 47.4105 37.8818 46.1541 40.6248C44.8319 43.5113 44.1386 48.4769 44.5272 57.9693C44.5441 58.3832 44.2223 58.7324 43.8085 58.7494C43.3946 58.7663 43.0453 58.4445 43.0284 58.0307C42.6392 48.5231 43.307 43.2387 44.7904 40.0002C45.6636 38.0938 46.8112 36.919 48.1003 36.0293C46.1365 36.3947 44.0467 37.2109 42.2071 38.9783Z" fill="#555555"/>
<path fill-rule="evenodd" clip-rule="evenodd" d="M12.5026 25.4387C12.2255 25.6843 12.169 26.0953 12.3697 26.4065C14.6853 29.9975 19.3579 41.4715 18.9169 57.98C18.9059 58.394 19.2326 58.7387 19.6466 58.7497C20.0607 58.7608 20.4053 58.4341 20.4164 58.02C20.7655 44.9503 17.9672 34.9123 15.5321 29.2837C20.5613 34.2202 27.25 43.2084 27.25 58C27.25 58.4142 27.5858 58.75 28 58.75C28.4142 58.75 28.75 58.4142 28.75 58C28.75 39.2737 18.3659 29.4828 13.4793 25.4231C13.1945 25.1865 12.7796 25.1931 12.5026 25.4387Z" fill="#555555"/>
<path fill-rule="evenodd" clip-rule="evenodd" d="M4.36154 40.6066C4.16493 40.9255 4.23391 41.3407 4.52311 41.579C6.78364 43.4413 11.348 49.4027 10.9176 57.9624C10.8968 58.3761 11.2153 58.7284 11.629 58.7492C12.0427 58.77 12.3949 58.4514 12.4157 58.0378C12.7396 51.5965 10.419 46.5162 8.12789 43.346C9.97426 44.3358 11.9986 45.6048 13.8109 47.1951C16.8634 49.8736 19.25 53.4036 19.25 58.0001C19.25 58.4143 19.5858 58.7501 20 58.7501C20.4142 58.7501 20.75 58.4143 20.75 58.0001C20.75 52.8216 18.0441 48.9141 14.8002 46.0676C11.5629 43.2268 7.72611 41.3835 5.30283 40.314C4.96002 40.1627 4.55815 40.2876 4.36154 40.6066Z" fill="#555555"/>
<path fill-rule="evenodd" clip-rule="evenodd" d="M57.6009 39.5512C57.8234 39.8491 57.7941 40.2649 57.532 40.5287C55.5839 42.4895 51.5955 48.83 51.9716 57.9692C51.9886 58.3831 51.6669 58.7324 51.2531 58.7494C50.8392 58.7665 50.4899 58.4448 50.4729 58.0309C50.194 51.2548 52.1956 45.9 54.1784 42.5534C49.9258 45.3856 44.75 50.2602 44.75 58.0001C44.75 58.4143 44.4142 58.7501 44 58.7501C43.5858 58.7501 43.25 58.4143 43.25 58.0001C43.25 47.1726 52.4833 41.5834 56.644 39.3399C56.9713 39.1635 57.3784 39.2534 57.6009 39.5512Z" fill="#555555"/>
</svg>
