<svg width="64" height="64" viewBox="0 0 64 64" fill="none" xmlns="http://www.w3.org/2000/svg">
<path fill-rule="evenodd" clip-rule="evenodd" d="M14.6661 53.3338C13.9017 53.3355 13.2034 52.9008 12.8675 52.2142C12.5316 51.5276 12.617 50.7095 13.0874 50.1071L24.5754 35.3338H20.5754C19.8188 35.3318 19.1279 34.9035 18.7895 34.2267C18.4511 33.55 18.5231 32.7403 18.9754 32.1338L28.5754 19.3338H24.3088C23.5712 19.3337 22.8936 18.9277 22.5455 18.2774C22.1975 17.6272 22.2357 16.8381 22.6448 16.2244L30.9114 3.82976C31.283 3.27348 31.9078 2.93945 32.5768 2.93945C33.2457 2.93945 33.8705 3.27348 34.2421 3.82976L42.5088 16.2244C42.9184 16.8389 42.9561 17.6291 42.6067 18.2798C42.2574 18.9305 41.5779 19.3357 40.8394 19.3338H36.5728L46.1728 32.1338C46.6273 32.7398 46.7004 33.5506 46.3616 34.2282C46.0228 34.9058 45.3303 35.3338 44.5728 35.3338H40.5728L52.0661 50.1071C52.5366 50.7095 52.6219 51.5276 52.286 52.2142C51.9501 52.9008 51.2518 53.3355 50.4874 53.3338H14.6661Z" stroke="#555555" stroke-width="1.5" stroke-linecap="round" stroke-linejoin="round"/>
<path d="M32.5752 53.3337V61.3337" stroke="#555555" stroke-width="1.5" stroke-linecap="round" stroke-linejoin="round"/>
</svg>
