<!-- Generated by IcoMoon.io -->
<svg version="1.1" xmlns="http://www.w3.org/2000/svg" width="32" height="32" viewBox="0 0 32 32">
<title>hidden</title>
<path fill="#aaa" d="M5.485 22.539c-2.272-1.938-4.156-4.32-5.485-6.687 3.065-5.463 9.095-11 16-11 2.051 0 4.022 0.486 5.86 1.312l4.164-4.164 2.828 2.828-23.852 23.852-2.828-2.828 3.313-3.313zM19.115 8.909c-0.951-0.432-2.005-0.672-3.115-0.672-4.181 0-7.579 3.409-7.579 7.615 0 1.103 0.234 2.151 0.654 3.097l2.73-2.73c-0.010-0.121-0.015-0.243-0.015-0.367 0-2.341 1.875-4.231 4.211-4.231 0.13 0 0.258 0.006 0.385 0.017l2.73-2.73zM12.226 26.307l2.89-2.89c0.29 0.034 0.585 0.051 0.883 0.051 4.181 0 7.579-3.409 7.579-7.615 0-0.288-0.016-0.572-0.047-0.851l4.462-4.462c1.616 1.638 2.977 3.48 4.006 5.314-3.065 5.463-9.078 11-16 11-1.293 0-2.556-0.194-3.774-0.546z"></path>
</svg>
