<svg xmlns="http://www.w3.org/2000/svg" xmlns:xlink="http://www.w3.org/1999/xlink" width="32" height="32" viewBox="0 0 32 32">
  <defs>
    <path id="a" d="M14.5,21.8755623 C10.24343,21.1614452 7,17.4594944 7,13 C7,8.02943725 11.0294373,4 16,4 C20.9705627,4 25,8.02943725 25,13 C25,17.4594944 21.75657,21.1614452 17.5,21.8755623 L17.5,28.5 L14.5,28.5 L14.5,21.8755623 Z M16,19 C19.3137085,19 22,16.3137085 22,13 C22,9.6862915 19.3137085,7 16,7 C12.6862915,7 10,9.6862915 10,13 C10,16.3137085 12.6862915,19 16,19 Z"/>
  </defs>
  <use fill="#4A4A4A" transform="rotate(-45 16 16.25)" xlink:href="#a"/>
</svg>
