<!-- Generated by IcoMoon.io -->
<svg version="1.1" xmlns="http://www.w3.org/2000/svg" width="32" height="32" viewBox="0 0 32 32">
<title>twitter</title>
<path d="M32 6.076c-1.178 0.522-2.442 0.876-3.77 1.034 1.356-0.812 2.396-2.1 2.886-3.632-1.268 0.752-2.674 1.298-4.17 1.594-1.198-1.276-2.904-2.074-4.792-2.074-3.626 0-6.566 2.94-6.566 6.564 0 0.514 0.058 1.016 0.17 1.496-5.456-0.274-10.294-2.888-13.532-6.86-0.566 0.97-0.888 2.098-0.888 3.3 0 2.278 1.158 4.288 2.92 5.464-1.076-0.034-2.088-0.33-2.974-0.822 0 0.028 0 0.054 0 0.082 0 3.18 2.264 5.834 5.266 6.438-0.55 0.15-1.13 0.23-1.73 0.23-0.424 0-0.834-0.042-1.236-0.118 0.836 2.608 3.26 4.506 6.132 4.56-2.246 1.76-5.078 2.81-8.154 2.81-0.53 0-1.052-0.032-1.566-0.092 2.906 1.862 6.356 2.95 10.064 2.95 12.076 0 18.68-10.004 18.68-18.68 0-0.284-0.006-0.568-0.020-0.85 1.284-0.926 2.396-2.082 3.276-3.398z"></path>
</svg>
