<!-- Generated by IcoMoon.io -->
<svg version="1.1" xmlns="http://www.w3.org/2000/svg" width="32" height="32" viewBox="0 0 32 32">
<title>ptw-palm-oil</title>
<path fill="#f45e16" stroke="#000" stroke-linejoin="miter" stroke-linecap="butt" stroke-miterlimit="4" stroke-width="0.8" d="M27.6 14.4c0 6.406-5.194 11.6-11.6 11.6s-11.6-5.194-11.6-11.6c0-6.407 5.194-11.6 11.6-11.6s11.6 5.194 11.6 11.6z"></path>
<path fill="none" stroke="#fff" stroke-linejoin="miter" stroke-linecap="butt" stroke-miterlimit="4" stroke-width="0.8" d="M28.4 14.4c0 6.848-5.552 12.4-12.4 12.4s-12.4-5.552-12.4-12.4c0-6.848 5.552-12.4 12.4-12.4s12.4 5.552 12.4 12.4z"></path>
<path fill="#fff" d="M16.937 12.533l-0.137-1.533c-0.020-0.108-0.030-0.22-0.030-0.334 0-1.031 0.84-1.867 1.877-1.867 0.92 0 1.685 0.658 1.846 1.527l1.773 6.376c0.087 0.253 0.135 0.525 0.135 0.808 0 1.375-1.12 2.489-2.502 2.489-1.288 0-2.348-0.967-2.487-2.212l-0.002 0-0.248-2.767h-2.323l-0.238 2.644c-0.081 1.302-1.168 2.333-2.497 2.333-1.382 0-2.502-1.114-2.502-2.489 0-0.209 0.026-0.412 0.075-0.607l-0.001-0 1.848-6.647c0.188-0.834 0.936-1.457 1.831-1.457 1.036 0 1.877 0.836 1.877 1.867 0 0.114-0.010 0.227-0.030 0.335l-0.138 1.531h1.875zM12.102 18.756c0.691 0 1.251-0.557 1.251-1.244s-0.56-1.244-1.251-1.244c-0.691 0-1.251 0.557-1.251 1.244s0.56 1.244 1.251 1.244zM19.898 18.756c0.691 0 1.251-0.557 1.251-1.244s-0.56-1.244-1.251-1.244c-0.691 0-1.251 0.557-1.251 1.244s0.56 1.244 1.251 1.244z"></path>
</svg>
