<?xml version="1.0" encoding="UTF-8"?>
<svg width="16px" height="16px" viewBox="0 0 16 16" version="1.1" xmlns="http://www.w3.org/2000/svg" xmlns:xlink="http://www.w3.org/1999/xlink">
    <!-- Generator: sketchtool 52.6 (67491) - http://www.bohemiancoding.com/sketch -->
    <title>898F87A1-234F-470B-8BF9-AC8F8203B104</title>
    <desc>Created with sketchtool.</desc>
    <g id="MAP" stroke="none" stroke-width="1" fill="none" fill-rule="evenodd">
        <g id="GFW-map---PTW-Explore" transform="translate(-720.000000, -378.000000)">
            <g id="Group-15" transform="translate(672.000000, 16.000000)">
                <g id="legend-binoculars-mongabay" transform="translate(48.000000, 362.000000)">
                    <circle id="Oval" fill="#FF6398" fill-rule="nonzero" cx="8" cy="8" r="8"></circle>
                    <path d="M8.73230043,6.5 L8.62490681,5.26839044 C8.60953159,5.18130931 8.60150376,5.09161379 8.60150376,5 C8.60150376,4.17157288 9.25792837,3.5 10.0676692,3.5 C10.7863027,3.5 11.3841796,4.02895169 11.5096213,4.72706085 L12.8947458,9.85091217 C12.9629693,10.0544444 13,10.2727979 13,10.5 C13,11.6045695 12.1247672,12.5 11.0451128,12.5 C10.0391054,12.5 9.21058219,11.7225639 9.10223025,10.7229025 L9.10056029,10.7232709 L8.906696,8.5 L7.0920658,8.5 L6.90601754,10.6250137 C6.84294184,11.6713485 5.99350269,12.5 4.95488722,12.5 C3.87523282,12.5 3,11.6045695 3,10.5 C3,10.3318899 3.02027334,10.1686241 3.05845517,10.0126221 L4.50152552,4.67094046 C4.64816317,4.00080015 5.23308212,3.5 5.93233083,3.5 C6.74207163,3.5 7.39849624,4.17157288 7.39849624,5 C7.39849624,5.09198639 7.39040298,5.18203888 7.37490523,5.2694528 L7.26716891,6.5 L8.73230043,6.5 Z M4.95488722,11.5 C5.49471442,11.5 5.93233083,11.0522847 5.93233083,10.5 C5.93233083,9.94771525 5.49471442,9.5 4.95488722,9.5 C4.41506002,9.5 3.97744361,9.94771525 3.97744361,10.5 C3.97744361,11.0522847 4.41506002,11.5 4.95488722,11.5 Z M11.0451128,11.5 C11.58494,11.5 12.0225564,11.0522847 12.0225564,10.5 C12.0225564,9.94771525 11.58494,9.5 11.0451128,9.5 C10.5052856,9.5 10.0676692,9.94771525 10.0676692,10.5 C10.0676692,11.0522847 10.5052856,11.5 11.0451128,11.5 Z" id="Combined-Shape" fill="#FFFFFF"></path>
                </g>
            </g>
        </g>
    </g>
</svg>