<?xml version="1.0" encoding="utf-8"?>
<!-- Generated by IcoMoon.io -->
<!DOCTYPE svg PUBLIC "-//W3C//DTD SVG 1.1//EN" "http://www.w3.org/Graphics/SVG/1.1/DTD/svg11.dtd">
<svg version="1.1" xmlns="http://www.w3.org/2000/svg" xmlns:xlink="http://www.w3.org/1999/xlink" width="40" height="32" viewBox="0 0 40 32">
<path fill="#000000" d="M5.227 29.344c-2.383 0-2.383-2.345-2.383-2.345v-24.343h30.5v23.904c0 1.087 0.343 2.268 0.801 2.783h-28.918zM35.25 4.563v-3.813h-34.313v25.811c0 0 0 4.689 4.766 4.689h29.776c0 0 3.584-0.076 3.584-4.689v-21.998h-3.813zM6.656 23.625h11.438v-13.344h-11.438v13.344zM20 12.188h9.531v-1.906h-9.531v1.906zM20 16h9.531v-1.906h-9.531v1.906zM20 23.625h7.625v-1.906h-7.625v1.906zM6.656 8.375h22.875v-1.906h-22.875v1.906zM20 17.906h9.531v1.906h-9.531v-1.906z"></path>
</svg>
