<?xml version="1.0" encoding="utf-8"?>
<!-- Generated by IcoMoon.io -->
<!DOCTYPE svg PUBLIC "-//W3C//DTD SVG 1.1//EN" "http://www.w3.org/Graphics/SVG/1.1/DTD/svg11.dtd">
<svg version="1.1" xmlns="http://www.w3.org/2000/svg" xmlns:xlink="http://www.w3.org/1999/xlink" width="32" height="32" viewBox="0 0 32 32">
<path fill="#000000" d="M11.927 16.756l-8.995 8.989c-1.011 1.015-1.073 2.589-0.124 3.542l2.042 2.051c0.949 0.932 2.517 0.87 3.528-0.124l9.015-9.010c1.011-1.015 1.052-2.589 0.124-3.542l-0.124-0.104 9.263-9.259 1.382 0.435 3.961-5.779-1.815-1.823-5.777 3.956 0.413 1.408-9.242 9.238-0.103-0.104c-0.949-0.953-2.538-0.891-3.548 0.124zM17.019 12.793l0.898-0.923-0.406-0.408c0.77-2.92 0.043-6.183-2.224-8.587-2.758-2.877-6.907-3.628-10.264-2.104l5.068 5.152c0.577 0.601 0.599 1.546 0.021 2.125l-2.074 2.061c-0.556 0.58-1.518 0.558-2.096-0.021l-5.175-5.066c-1.518 3.37-0.77 7.514 2.117 10.261 1.433 1.352 3.165 2.168 4.961 2.426l5.325-5.302c0.962 0.945 2.502 0.945 3.464 0l0.385 0.386zM19.756 25.588l5.709 5.582c1.197 1.159 3.165 1.095 4.384-0.129l1.176-1.181c1.24-1.245 1.304-3.199 0.15-4.401l-7.677-7.857-0.834 0.837 0.406 0.386c-0.962 0.945-0.962 2.512 0 3.456l-3.314 3.306z"></path>
</svg>
