<?xml version="1.0" encoding="utf-8"?>
<!-- Generated by IcoMoon.io -->
<!DOCTYPE svg PUBLIC "-//W3C//DTD SVG 1.1//EN" "http://www.w3.org/Graphics/SVG/1.1/DTD/svg11.dtd">
<svg version="1.1" xmlns="http://www.w3.org/2000/svg" xmlns:xlink="http://www.w3.org/1999/xlink" width="33" height="32" viewBox="0 0 33 32">
<path fill="#000000" d="M0 12.753c0 5.747 3.104 10.634 8.396 12.208-0.042 0.189-0.063 0.357-0.063 0.545v4.489c0 1.51 1.063 1.615 2.146 0.545l6.188-5.37h3.792c7.104 0 12.875-5.705 12.875-12.753s-5.771-12.417-12.875-12.417h-7.583c-7.104 0-12.875 5.705-12.875 12.753v0zM8.333 8.39h16.667v2.098h-16.667v-2.098zM8.333 12.585h16.667v2.098h-16.667v-2.098zM8.333 16.78h10.417v2.098h-10.417v-2.098z"></path>
</svg>
