<?xml version="1.0" encoding="utf-8"?>
<!-- Generated by IcoMoon.io -->
<!DOCTYPE svg PUBLIC "-//W3C//DTD SVG 1.1//EN" "http://www.w3.org/Graphics/SVG/1.1/DTD/svg11.dtd">
<svg version="1.1" xmlns="http://www.w3.org/2000/svg" xmlns:xlink="http://www.w3.org/1999/xlink" width="32" height="32" viewBox="0 0 32 32">
<path fill="#000000" d="M16 0c-8.828 0-16 7.172-16 16s7.172 16 16 16c8.828 0 16-7.172 16-16s-7.172-16-16-16zM16 3.368c6.97 0 12.632 5.662 12.632 12.632s-5.662 12.632-12.632 12.632c-6.97 0-12.632-5.662-12.632-12.632s5.662-12.632 12.632-12.632zM13.811 21.607h3.722v3.572h-3.722v-3.572zM11.739 7.671c0.977-0.618 2.189-0.935 3.621-0.935 1.869 0 3.436 0.451 4.665 1.335 1.246 0.901 1.869 2.22 1.869 3.972 0 1.068-0.269 1.969-0.808 2.704-0.32 0.451-0.926 1.018-1.819 1.719l-0.876 0.668c-0.488 0.384-0.792 0.818-0.96 1.302-0.101 0.317-0.152 0.801-0.152 1.469h-3.385c0.051-1.402 0.185-2.37 0.404-2.887 0.219-0.534 0.758-1.152 1.667-1.853l0.893-0.701c0.303-0.217 0.539-0.467 0.724-0.734 0.337-0.451 0.505-0.951 0.505-1.502 0-0.618-0.185-1.185-0.556-1.702s-1.044-0.784-2.021-0.784c-0.96 0-1.651 0.317-2.038 0.951-0.404 0.651-0.606 1.302-0.606 1.986h-3.604c0.101-2.353 0.926-4.022 2.476-5.007v0z"></path>
</svg>
