<?xml version="1.0" encoding="utf-8"?>
<!-- Generated by IcoMoon.io -->
<!DOCTYPE svg PUBLIC "-//W3C//DTD SVG 1.1//EN" "http://www.w3.org/Graphics/SVG/1.1/DTD/svg11.dtd">
<svg version="1.1" xmlns="http://www.w3.org/2000/svg" xmlns:xlink="http://www.w3.org/1999/xlink" width="32" height="32" viewBox="0 0 32 32">
<path fill="#000000" d="M6 0c-0.702 0-1.374 0.127-2 0.349v9.651h2v-10zM29 6c0 1.105-0.895 2-2 2h-2c-1.105 0-2-0.895-2-2v-1c0-1.105 0.895-2 2-2h2c1.105 0 2 0.895 2 2v1zM26 0h-18v10h2.48c1.454-1.338 3.389-2.162 5.52-2.162s4.066 0.824 5.52 2.162h8.48v16c0 2.209-1.791 4-4 4h-20c-2.209 0-4-1.791-4-4v-24.463c-1.225 1.098-2 2.688-2 4.463v20c0 3.314 2.686 6 6 6h20c3.314 0 6-2.686 6-6v-20c0-3.314-2.686-6-6-6v0zM11.938 17c0-2.243 1.819-4.062 4.062-4.062s4.062 1.819 4.062 4.062c0 2.243-1.819 4.062-4.062 4.062s-4.062-1.819-4.062-4.062v0zM22.091 17c0-3.364-2.727-6.091-6.091-6.091s-6.091 2.727-6.091 6.091c0 3.364 2.727 6.091 6.091 6.091s6.091-2.727 6.091-6.091v0z"></path>
</svg>
