<?xml version="1.0" encoding="utf-8"?>
<!-- Generated by IcoMoon.io -->
<!DOCTYPE svg PUBLIC "-//W3C//DTD SVG 1.1//EN" "http://www.w3.org/Graphics/SVG/1.1/DTD/svg11.dtd">
<svg version="1.1" xmlns="http://www.w3.org/2000/svg" xmlns:xlink="http://www.w3.org/1999/xlink" width="38" height="32" viewBox="0 0 38 32">
<path fill="#000000" d="M0 17.175c0 4.516 3.384 7.903 7.248 9.128-0.024 0.144-0.048 0.288-0.048 0.432v3.507c0 1.177 0.768 1.225 1.56 0.384l3.36-4.204h2.736c4.128 0 7.608-3.267 8.88-7.206h2.184l3.72 4.204c0.792 0.841 1.56 1.225 1.56 0.048v-4.204c3.864-0.096 7.2-4.78 7.2-9.296 0-5.501-4.2-9.969-9.36-9.969h-5.496c-4.2 0-7.752 3.219-8.952 7.206h-5.232c-5.16 0-9.36 4.468-9.36 9.969v0zM24.192 16.815l0.024-0.745c0-4.78-3.168-7.615-7.392-8.527 1.128-2.883 3.984-5.141 7.008-5.141h5.328c3.912 0 6.864 3.219 6.84 7.254-0.048 7.639-7.2 7.206-7.2 7.206v2.282l-2.4-2.33h-2.208z"></path>
</svg>
