<?xml version="1.0" encoding="utf-8"?>
<!-- Generated by IcoMoon.io -->
<!DOCTYPE svg PUBLIC "-//W3C//DTD SVG 1.1//EN" "http://www.w3.org/Graphics/SVG/1.1/DTD/svg11.dtd">
<svg version="1.1" xmlns="http://www.w3.org/2000/svg" xmlns:xlink="http://www.w3.org/1999/xlink" width="38" height="32" viewBox="0 0 38 32">
<path fill="#000000" d="M36.238 4.897c-0.579 0.317-2.316 0.952-3.933 1.11 1.038-0.556 2.574-2.38 2.955-3.83-0.999 0.636-3.293 1.56-4.423 1.56v0.002c-1.291-1.341-3.11-2.179-5.127-2.179-3.916 0-7.092 3.157-7.092 7.050 0 0.539 0.062 1.068 0.18 1.573h-0.001c-5.314-0.139-11.124-2.785-14.623-7.316-2.151 3.7-0.289 7.816 2.151 9.316-0.835 0.063-2.373-0.096-3.097-0.798-0.047 2.457 1.14 5.711 5.472 6.891-0.834 0.447-2.311 0.318-2.954 0.223 0.226 2.074 3.147 4.785 6.341 4.785-1.139 1.308-5.421 3.683-10.228 2.927 3.264 1.975 7.068 3.118 11.095 3.118 11.442 0 20.33-9.219 19.852-20.592-0.002-0.013-0.002-0.026-0.003-0.039 0.001-0.029 0.003-0.058 0.003-0.088 0-0.036-0.003-0.069-0.004-0.104 1.042-0.708 2.439-1.961 3.438-3.61z"></path>
</svg>
