<svg viewBox="0 0 18.05 39.1" xmlns="http://www.w3.org/2000/svg"><g opacity=".3"><path d="m3.52 31.8-1.09.52v-.57l.91-.43a.23.23 0 0 1 .14 0 .26.26 0 0 1 .04.48z" fill="#bd201f"/><path d="m3.77 31.68-.71.32a.73.73 0 0 0 -.24-.45l.58-.28s.34.05.39.34a0 0 0 0 1 -.02.07z" fill="#3c3c3c"/><path d="m3.07 31.19-.88.42a.22.22 0 0 1 -.31-.2v-.21l1-.46h.09a.21.21 0 0 1 .3.15.31.31 0 0 1 -.2.3z" fill="#bd201f"/><path d="m3.21 31.12-.59.29a1 1 0 0 0 -.2-.47l.43-.2.26-.13c.09 0 .17.29.14.46a.07.07 0 0 1 -.04.05z" fill="#3c3c3c"/><circle cx="1.36" cy="32.27" fill="#bd201f" r="1.18"/><circle cx="4.28" cy="30.76" fill="#484848" r="1.18"/><path d="m5.13 29.64 1.09-.53v.57l-.91.43a.23.23 0 0 1 -.14 0 .25.25 0 0 1 -.04-.47z" fill="#bd201f"/><path d="m4.88 29.75.71-.34a.73.73 0 0 0 .24.45l-.58.28s-.34-.05-.39-.34a0 0 0 0 1 .02-.05z" fill="#3c3c3c"/><path d="m5.5 30.25.87-.42a.22.22 0 0 1 .32.2v.21l-1 .46-.1.05a.21.21 0 0 1 -.3-.15.34.34 0 0 1 .21-.35z" fill="#bd201f"/><path d="m5.36 30.32.64-.32a1 1 0 0 0 .19.46l-.42.2-.27.13c-.09 0-.17-.29-.13-.46a.07.07 0 0 1 -.01-.01z" fill="#3c3c3c"/><circle cx="7.25" cy="29.19" fill="#bd201f" r="1.18"/></g><g opacity=".5"><path d="m3.34 25.92-1.09.52v-.57l.91-.43a.22.22 0 0 1 .14 0 .26.26 0 0 1 .04.48z" fill="#bd201f"/><path d="m3.59 25.8-.72.34a.68.68 0 0 0 -.23-.45l.58-.28a.47.47 0 0 1 .39.35z" fill="#3c3c3c"/><path d="m2.88 25.31-.88.42a.22.22 0 0 1 -.32-.2v-.21l1-.46.1-.05a.21.21 0 0 1 .3.15.32.32 0 0 1 -.2.35z" fill="#bd201f"/><path d="m3 25.24-.59.29a.91.91 0 0 0 -.19-.47l.42-.2.27-.13c.09 0 .17.29.14.46a.08.08 0 0 1 -.05.05z" fill="#3c3c3c"/><circle cx="1.18" cy="26.39" fill="#bd201f" r="1.18"/><circle cx="4.1" cy="24.88" fill="#484848" r="1.18"/><path d="m5 23.76 1-.53v.57l-.91.43a.2.2 0 0 1 -.13 0h.04a.25.25 0 0 1 0-.47z" fill="#bd201f"/><path d="m4.7 23.88.71-.35a.73.73 0 0 0 .24.45l-.59.28a.48.48 0 0 1 -.39-.34s.01-.04.03-.04z" fill="#3c3c3c"/><path d="m5.32 24.37.87-.37a.22.22 0 0 1 .32.2v.21l-1 .46-.1.05a.21.21 0 0 1 -.3-.15.32.32 0 0 1 .21-.4z" fill="#bd201f"/><path d="m5.18 24.44.59-.28a.9.9 0 0 0 .19.46l-.42.2-.27.18c-.09 0-.17-.29-.14-.46a.12.12 0 0 1 .05-.1z" fill="#3c3c3c"/><circle cx="7.07" cy="23.31" fill="#bd201f" r="1.18"/></g><g opacity=".5"><path d="m3.49 20.22-1.09.52v-.56l.9-.43a.17.17 0 0 1 .14 0 .26.26 0 0 1 .05.47z" fill="#bd201f"/><path d="m3.74 20.1-.74.34a.72.72 0 0 0 -.21-.44l.58-.28s.34.05.39.34c.01.02 0 .03-.02.04z" fill="#3c3c3c"/><path d="m3 19.62-.84.38a.22.22 0 0 1 -.31-.21v-.21l1-.46h.09a.21.21 0 0 1 .3.15.32.32 0 0 1 -.24.35z" fill="#bd201f"/><path d="m3.18 19.55-.59.28a1 1 0 0 0 -.2-.46l.43-.21.26-.16c.09 0 .17.28.14.46a.1.1 0 0 1 -.04.09z" fill="#3c3c3c"/><circle cx="1.33" cy="20.7" fill="#bd201f" r="1.18"/><circle cx="4.25" cy="19.18" fill="#484848" r="1.18"/><path d="m5.1 18.06 1.09-.52v.56l-.91.43a.17.17 0 0 1 -.14 0 .26.26 0 0 1 -.04-.47z" fill="#bd201f"/><path d="m4.85 18.18.71-.34a.75.75 0 0 0 .24.45l-.58.27s-.34 0-.39-.34c-.01-.02 0-.03.02-.04z" fill="#3c3c3c"/><path d="m5.47 18.68.87-.42a.22.22 0 0 1 .32.2v.21l-1 .46h-.1a.21.21 0 0 1 -.3-.15.32.32 0 0 1 .21-.3z" fill="#bd201f"/><path d="m5.33 18.74.59-.28a1 1 0 0 0 .2.47l-.43.2-.26.13c-.1 0-.18-.29-.14-.47a.07.07 0 0 1 .04-.05z" fill="#3c3c3c"/><circle cx="7.22" cy="17.61" fill="#bd201f" r="1.18"/></g><g opacity=".7"><path d="m3.46 14.85-1.09.53v-.57l.9-.43a.23.23 0 0 1 .14 0 .25.25 0 0 1 .05.47z" fill="#bd201f"/><path d="m3.71 14.73-.71.35a.73.73 0 0 0 -.24-.45l.58-.28s.34.05.39.34c.01.02 0 .04-.02.04z" fill="#3c3c3c"/><path d="m3 14.25-.87.42a.22.22 0 0 1 -.32-.2v-.21l1-.46.09-.05a.21.21 0 0 1 .3.15.32.32 0 0 1 -.2.35z" fill="#bd201f"/><path d="m3.15 14.18-.59.28a1 1 0 0 0 -.2-.46l.43-.2.26-.13c.09 0 .17.29.14.46a.07.07 0 0 1 -.04.05z" fill="#3c3c3c"/><circle cx="1.31" cy="15.33" fill="#bd201f" r="1.18"/><circle cx="4.22" cy="13.81" fill="#484848" r="1.18"/><path d="m5.07 12.69 1.09-.52v.57l-.91.43a.17.17 0 0 1 -.14 0 .26.26 0 0 1 -.04-.48z" fill="#bd201f"/><path d="m4.82 12.81.71-.34a.73.73 0 0 0 .24.45l-.58.27s-.34 0-.39-.34a.08.08 0 0 1 .02-.04z" fill="#3c3c3c"/><path d="m5.44 13.31.87-.42a.22.22 0 0 1 .32.2v.21l-1 .46-.1.05a.21.21 0 0 1 -.29-.15.31.31 0 0 1 .2-.35z" fill="#bd201f"/><path d="m5.3 13.38.59-.29a1 1 0 0 0 .2.47l-.43.2-.26.13c-.1 0-.18-.29-.14-.46s.02-.04.04-.05z" fill="#3c3c3c"/><circle cx="7.19" cy="12.25" fill="#bd201f" r="1.18"/></g><g opacity=".9"><path d="m3.39 9.32-1.09.52v-.56l.91-.43a.17.17 0 0 1 .14 0 .26.26 0 0 1 .04.47z" fill="#bd201f"/><path d="m3.64 9.2-.71.34a.75.75 0 0 0 -.24-.45l.58-.27s.34 0 .39.34c.01.01 0 .03-.02.04z" fill="#3c3c3c"/><path d="m2.94 8.71-.88.42a.22.22 0 0 1 -.31-.2v-.21l1-.46h.1a.21.21 0 0 1 .3.15.3.3 0 0 1 -.21.3z" fill="#bd201f"/><path d="m3.08 8.65-.59.28a1 1 0 0 0 -.2-.47l.42-.2.29-.12c.09 0 .17.28.14.46a.1.1 0 0 1 -.06.05z" fill="#3c3c3c"/><circle cx="1.23" cy="9.8" fill="#bd201f" r="1.18"/><circle cx="4.15" cy="8.28" fill="#484848" r="1.18"/><path d="m5 7.16 1.09-.52v.56l-.9.43a.23.23 0 0 1 -.14 0h-.05a.25.25 0 0 1 0-.47z" fill="#bd201f"/><path d="m4.75 7.28.71-.34a.72.72 0 0 0 .24.44l-.58.28s-.34 0-.39-.34c-.01-.02 0-.03.02-.04z" fill="#3c3c3c"/><path d="m5.37 7.77.87-.41a.22.22 0 0 1 .32.2v.21l-1 .46h-.1a.21.21 0 0 1 -.3-.15.34.34 0 0 1 .21-.31z" fill="#bd201f"/><path d="m5.23 7.84.59-.28a1 1 0 0 0 .18.44l-.42.21-.27.12c-.09 0-.17-.28-.13-.46a.07.07 0 0 1 .05-.03z" fill="#3c3c3c"/><circle cx="7.12" cy="6.71" fill="#bd201f" r="1.18"/></g><path d="m3.46 3.84-1.09.52v-.56l.9-.43a.17.17 0 0 1 .14 0 .26.26 0 0 1 .05.47z" fill="#bd201f"/><path d="m3.71 3.72-.71.34a.72.72 0 0 0 -.24-.44l.58-.28s.34.05.39.34c.01.02 0 .03-.02.04z" fill="#3c3c3c"/><path d="m3 3.24-.87.42a.23.23 0 0 1 -.32-.21v-.21l1-.46h.09a.21.21 0 0 1 .3.15.32.32 0 0 1 -.2.31z" fill="#bd201f"/><path d="m3.15 3.17-.59.28a1 1 0 0 0 -.2-.45l.43-.21.26-.12c.09 0 .17.28.14.46a.07.07 0 0 1 -.04.04z" fill="#3c3c3c"/><circle cx="1.31" cy="4.32" fill="#bd201f" r="1.18"/><circle cx="4.22" cy="2.8" fill="#484848" r="1.18"/><path d="m5.07 1.68 1.09-.52v.56l-.91.43a.17.17 0 0 1 -.14 0 .26.26 0 0 1 -.04-.47z" fill="#bd201f"/><path d="m4.82 1.8.71-.34a.75.75 0 0 0 .24.45l-.58.27s-.34-.05-.39-.34a.05.05 0 0 1 .02-.04z" fill="#3c3c3c"/><path d="m5.44 2.3.87-.42a.22.22 0 0 1 .32.2v.21l-1 .46h-.1a.2.2 0 0 1 -.29-.15.3.3 0 0 1 .2-.3z" fill="#bd201f"/><path d="m5.3 2.36.59-.28a1 1 0 0 0 .2.47l-.43.2-.26.13c-.1 0-.18-.29-.14-.47a.07.07 0 0 1 .04-.05z" fill="#3c3c3c"/><circle cx="7.19" cy="1.23" fill="#bd201f" r="1.18"/><g opacity=".2"><path d="m3.37 37.45-1.09.55v-.6l.91-.4a.17.17 0 0 1 .14 0 .26.26 0 0 1 .04.45z" fill="#bd201f"/><path d="m3.62 37.33-.72.34a.68.68 0 0 0 -.23-.45l.58-.22s.34 0 .39.34z" fill="#3c3c3c"/><path d="m2.91 36.84-.91.42a.22.22 0 0 1 -.32-.2v-.21l1-.46h.1a.22.22 0 0 1 .3.15.32.32 0 0 1 -.17.3z" fill="#bd201f"/><path d="m3.05 36.77-.59.29a.91.91 0 0 0 -.19-.47l.42-.2.31-.13c.09 0 .17.29.13.46a0 0 0 0 1 -.08.05z" fill="#3c3c3c"/><circle cx="1.21" cy="37.92" fill="#bd201f" r="1.18"/><circle cx="4.12" cy="36.41" fill="#484848" r="1.18"/><path d="m5 35.29 1.09-.53v.57l-.91.43a.2.2 0 0 1 -.13 0h-.05a.25.25 0 0 1 0-.47z" fill="#bd201f"/><path d="m4.73 35.41.71-.35a.67.67 0 0 0 .24.45l-.59.28s-.34 0-.39-.34c0-.02.01-.04.03-.04z" fill="#3c3c3c"/><path d="m5.35 35.9.87-.42a.22.22 0 0 1 .32.2v.21l-1 .46h-.1a.21.21 0 0 1 -.3-.15.31.31 0 0 1 .21-.3z" fill="#bd201f"/><path d="m5.2 36 .59-.28a1 1 0 0 0 .2.46l-.42.2-.27.13c-.09 0-.17-.29-.14-.46a.1.1 0 0 1 .04-.05z" fill="#3c3c3c"/><circle cx="7.1" cy="34.84" fill="#bd201f" r="1.18"/></g><g opacity=".3"><path d="m14.48 31.76 1.09.53v-.57l-.91-.43a.17.17 0 0 0 -.14 0 .26.26 0 0 0 -.04.47z" fill="#bd201f"/><path d="m14.23 31.64.71.34a.72.72 0 0 1 .24-.44l-.58-.28s-.34 0-.39.34z" fill="#3c3c3c"/><path d="m14.94 31.16.87.42a.22.22 0 0 0 .32-.2v-.21l-1-.46-.1-.05a.21.21 0 0 0 -.3.15.34.34 0 0 0 .21.35z" fill="#bd201f"/><path d="m14.8 31.09.59.28a1 1 0 0 1 .2-.46l-.43-.2-.26-.13c-.1 0-.18.28-.14.46a.07.07 0 0 0 .04.05z" fill="#3c3c3c"/><circle cx="16.64" cy="32.25" fill="#bd201f" r="1.18"/><circle cx="13.73" cy="30.72" fill="#484848" r="1.18"/><path d="m12.88 29.59-1.08-.52v.56l.9.43a.14.14 0 0 0 .14 0 .26.26 0 0 0 .04-.47z" fill="#bd201f"/><path d="m13.13 29.71-.71-.34a.72.72 0 0 1 -.24.44l.58.28s.34-.05.39-.34c.01-.01 0-.03-.02-.04z" fill="#3c3c3c"/><path d="m12.51 30.21-.87-.43a.22.22 0 0 0 -.32.2v.21l1 .47h.09a.2.2 0 0 0 .3-.14.31.31 0 0 0 -.2-.31z" fill="#bd201f"/><path d="m12.65 30.27-.59-.27a.91.91 0 0 1 -.2.46l.43.21.26.13c.09 0 .18-.29.14-.47a.07.07 0 0 0 -.04-.06z" fill="#3c3c3c"/><circle cx="10.76" cy="29.14" fill="#bd201f" r="1.18"/></g><g opacity=".5"><path d="m14.69 25.88 1.09.53v-.57l-.91-.43a.22.22 0 0 0 -.14 0 .25.25 0 0 0 -.04.47z" fill="#bd201f"/><path d="m14.44 25.76.71.35a.73.73 0 0 1 .24-.45l-.58-.28s-.34.05-.39.34c0 .02 0 .03.02.04z" fill="#3c3c3c"/><path d="m15.15 25.28.87.42a.22.22 0 0 0 .32-.2v-.21l-1-.46h-.1a.21.21 0 0 0 -.3.15.32.32 0 0 0 .21.3z" fill="#bd201f"/><path d="m15 25.21.58.29a1 1 0 0 1 .2-.47l-.42-.2-.26-.13c-.1 0-.18.29-.14.46a.07.07 0 0 0 .04.05z" fill="#3c3c3c"/><circle cx="16.84" cy="26.37" fill="#bd201f" r="1.18"/><circle cx="13.94" cy="24.84" fill="#484848" r="1.18"/><path d="m13.09 23.71-1.09-.52v.56l.91.44a.22.22 0 0 0 .14 0 .26.26 0 0 0 .04-.48z" fill="#bd201f"/><path d="m13.34 23.83-.71-.34a.73.73 0 0 1 -.24.45l.58.27s.34 0 .39-.33a0 0 0 0 0 -.02-.05z" fill="#3c3c3c"/><path d="m12.72 24.33-.87-.42a.22.22 0 0 0 -.32.19v.22l1 .46h.09a.21.21 0 0 0 .3-.15.31.31 0 0 0 -.2-.3z" fill="#bd201f"/><path d="m12.86 24.4-.59-.29a1 1 0 0 1 -.2.47l.43.2.26.13c.09 0 .17-.29.14-.46s-.02-.04-.04-.05z" fill="#3c3c3c"/><circle cx="10.97" cy="23.26" fill="#bd201f" r="1.18"/></g><g opacity=".5"><path d="m14.56 20.19 1.09.52v-.56l-.91-.44a.22.22 0 0 0 -.14 0 .26.26 0 0 0 -.04.48z" fill="#bd201f"/><path d="m14.31 20.06.71.35a.73.73 0 0 1 .24-.45l-.58-.28s-.34.05-.39.34c0-.02.01.04.02.04z" fill="#3c3c3c"/><path d="m15 19.58.87.43a.22.22 0 0 0 .32-.2v-.21l-1-.47-.1-.05a.22.22 0 0 0 -.3.15.33.33 0 0 0 .21.35z" fill="#bd201f"/><path d="m14.88 19.52.59.28a1 1 0 0 1 .19-.46l-.42-.21-.24-.13c-.1 0-.18.29-.14.46a.07.07 0 0 0 .02.06z" fill="#3c3c3c"/><circle cx="16.72" cy="20.67" fill="#bd201f" r="1.18"/><circle cx="13.81" cy="19.14" fill="#484848" r="1.18"/><path d="m13 18-1.08-.53v.57l.9.43a.23.23 0 0 0 .14 0 .25.25 0 0 0 .04-.47z" fill="#bd201f"/><path d="m13.21 18.14-.71-.35a.73.73 0 0 1 -.24.45l.58.28s.34-.05.39-.34c.01-.02 0-.03-.02-.04z" fill="#3c3c3c"/><path d="m12.59 18.63-.87-.42a.22.22 0 0 0 -.32.2v.21l1 .46.09.05a.21.21 0 0 0 .3-.15.32.32 0 0 0 -.2-.35z" fill="#bd201f"/><path d="m12.73 18.7-.59-.29a1 1 0 0 1 -.2.47l.43.2.26.13c.09 0 .17-.28.14-.46a.07.07 0 0 0 -.04-.05z" fill="#3c3c3c"/><circle cx="10.84" cy="17.56" fill="#bd201f" r="1.18"/></g><g opacity=".7"><path d="m14.61 14.82 1.09.52v-.56l-.91-.43a.17.17 0 0 0 -.14 0 .26.26 0 0 0 -.04.47z" fill="#bd201f"/><path d="m14.36 14.7.72.34a.67.67 0 0 1 .23-.44l-.58-.28s-.34 0-.39.34z" fill="#3c3c3c"/><path d="m15.07 14.22.87.42a.22.22 0 0 0 .32-.2v-.21l-1-.47h-.09a.21.21 0 0 0 -.3.15.32.32 0 0 0 .2.31z" fill="#bd201f"/><path d="m14.93 14.15.59.28a1 1 0 0 1 .2-.46l-.43-.21-.29-.12c-.09 0-.18.28-.14.46a.07.07 0 0 0 .07.05z" fill="#3c3c3c"/><circle cx="16.77" cy="15.3" fill="#bd201f" r="1.18"/><circle cx="13.86" cy="13.77" fill="#484848" r="1.18"/><path d="m13 12.65-1.08-.53v.57l.9.43a.17.17 0 0 0 .14 0 .26.26 0 0 0 .04-.47z" fill="#bd201f"/><path d="m13.26 12.77-.71-.34a.72.72 0 0 1 -.24.44l.58.28a.49.49 0 0 0 .4-.34.05.05 0 0 0 -.03-.04z" fill="#3c3c3c"/><path d="m12.64 13.26-.87-.42a.22.22 0 0 0 -.32.2v.21l1 .47h.1a.21.21 0 0 0 .3-.15.34.34 0 0 0 -.21-.31z" fill="#bd201f"/><path d="m12.78 13.33-.59-.28a1 1 0 0 1 -.2.46l.43.21.26.12c.1 0 .18-.28.14-.46a.07.07 0 0 0 -.04-.05z" fill="#3c3c3c"/><circle cx="10.89" cy="12.19" fill="#bd201f" r="1.18"/></g><g opacity=".9"><path d="m14.71 9.28 1.09.53v-.56l-.91-.44a.22.22 0 0 0 -.14 0 .25.25 0 0 0 -.04.47z" fill="#bd201f"/><path d="m14.46 9.16.71.35a.73.73 0 0 1 .24-.45l-.58-.28s-.34.05-.39.34c0 .02 0 .04.02.04z" fill="#3c3c3c"/><path d="m15.17 8.68.83.42a.22.22 0 0 0 .32-.2v-.21l-1-.46-.1-.05a.22.22 0 0 0 -.3.15.32.32 0 0 0 .25.35z" fill="#bd201f"/><path d="m15 8.61.58.29a1 1 0 0 1 .2-.47l-.42-.2-.27-.13c-.09 0-.17.29-.13.46s.04.04.04.05z" fill="#3c3c3c"/><circle cx="16.86" cy="9.77" fill="#bd201f" r="1.18"/><circle cx="13.96" cy="8.24" fill="#484848" r="1.18"/><path d="m13.11 7.12-1.11-.53v.56l.91.44a.22.22 0 0 0 .14 0 .25.25 0 0 0 .06-.47z" fill="#bd201f"/><path d="m13.36 7.24-.71-.35a.73.73 0 0 1 -.24.45l.58.28s.34 0 .39-.34c.01-.02 0-.04-.02-.04z" fill="#3c3c3c"/><path d="m12.74 7.73-.87-.42a.22.22 0 0 0 -.32.2v.21l1 .46.1.05a.21.21 0 0 0 .3-.15.32.32 0 0 0 -.21-.35z" fill="#bd201f"/><path d="m12.88 7.8-.59-.29a1 1 0 0 1 -.2.47l.42.2.27.13c.09 0 .17-.29.14-.46a.1.1 0 0 0 -.04-.05z" fill="#3c3c3c"/><circle cx="10.99" cy="6.66" fill="#bd201f" r="1.18"/></g><path d="m14.66 3.81 1.09.52v-.56l-.91-.44a.22.22 0 0 0 -.14 0 .26.26 0 0 0 -.04.48z" fill="#bd201f"/><path d="m14.41 3.68.71.35a.73.73 0 0 1 .24-.45l-.58-.28s-.34.05-.39.34c0 .02.01.04.02.04z" fill="#3c3c3c"/><path d="m15.12 3.2.87.43a.22.22 0 0 0 .32-.2v-.21l-1-.47h-.1a.21.21 0 0 0 -.3.14.33.33 0 0 0 .21.31z" fill="#bd201f"/><path d="m15 3.14.59.28a.85.85 0 0 1 .17-.42l-.42-.21-.26-.13c-.1 0-.18.29-.14.47a.07.07 0 0 0 .06.01z" fill="#3c3c3c"/><circle cx="16.82" cy="4.29" fill="#bd201f" r="1.18"/><circle cx="13.91" cy="2.76" fill="#484848" r="1.18"/><path d="m13.06 1.64-1.06-.53v.57l.9.43a.23.23 0 0 0 .14 0 .25.25 0 0 0 .02-.47z" fill="#bd201f"/><path d="m13.31 1.76-.71-.35a.73.73 0 0 1 -.24.45l.58.28s.34-.05.39-.34c.01-.02 0-.03-.02-.04z" fill="#3c3c3c"/><path d="m12.69 2.25-.87-.42a.22.22 0 0 0 -.32.2v.21l1 .46h.09a.21.21 0 0 0 .3-.15.32.32 0 0 0 -.2-.3z" fill="#bd201f"/><path d="m12.83 2.32-.59-.32a1 1 0 0 1 -.2.46l.43.2.26.13c.09 0 .17-.28.14-.46a.07.07 0 0 0 -.04-.01z" fill="#3c3c3c"/><circle cx="10.94" cy="1.18" fill="#bd201f" r="1.18"/><g opacity=".2"><path d="m14.61 37.41 1.09.53v-.57l-.91-.43a.22.22 0 0 0 -.14 0 .25.25 0 0 0 -.04.47z" fill="#bd201f"/><path d="m14.36 37.29.71.35a.73.73 0 0 1 .24-.45l-.58-.28s-.34.05-.39.34a.05.05 0 0 0 .02.04z" fill="#3c3c3c"/><path d="m15.07 36.81.87.42a.22.22 0 0 0 .32-.2v-.21l-1-.46h-.1a.21.21 0 0 0 -.3.15.34.34 0 0 0 .21.3z" fill="#bd201f"/><path d="m14.93 36.74.59.29a1 1 0 0 1 .19-.47l-.42-.2-.29-.13c-.1 0-.18.29-.14.46a.07.07 0 0 0 .07.05z" fill="#3c3c3c"/><circle cx="16.77" cy="37.9" fill="#bd201f" r="1.18"/><circle cx="13.86" cy="36.37" fill="#484848" r="1.18"/><path d="m13 35.24-1.08-.52v.56l.9.44a.23.23 0 0 0 .14 0 .26.26 0 0 0 .04-.48z" fill="#bd201f"/><path d="m13.26 35.36-.71-.36a.73.73 0 0 1 -.24.45l.58.27s.34 0 .39-.33a0 0 0 0 0 -.02-.03z" fill="#3c3c3c"/><path d="m12.64 35.86-.87-.42a.22.22 0 0 0 -.32.19v.22l1 .46h.09a.21.21 0 0 0 .3-.15.31.31 0 0 0 -.2-.3z" fill="#bd201f"/><path d="m12.78 35.93-.59-.29a1 1 0 0 1 -.2.47l.43.2.26.13c.09 0 .17-.29.14-.46s-.02-.04-.04-.05z" fill="#3c3c3c"/><circle cx="10.89" cy="34.79" fill="#bd201f" r="1.18"/></g></svg>