<svg xmlns="http://www.w3.org/2000/svg" version="1.1" x="0px" y="0px" width="416.9px" height="408px" viewBox="0 0 416.9 408" xml:space="preserve" enable-background="new 0 0 416.9 408"><style type="text/css">
  .st0{display:inline;fill:#BABABA;}
  .st1{fill:#FFFFFF;}
  .st2{fill:#3468BF;}
  .st3{display:none;fill:#BABABA;}
  .st4{display:none;}
  .st5{fill:#4285F4;}
</style><g class="st4"><rect x="-415.1" y="-405.5" class="st0" width="832" height="816"/></g><polygon class="st5" points="416.9,-61 -51.6,-61 -51.6,408 416.9,408  "/><path class="st1" d="M66.8 407.9c-3-7.5-4.5-15.6-4.5-24.2 0-45.2 41-60.7 55-65.7 26.7-8.9 61.3-10.4 67.3-10.4 6.2 0 9.4 0 14.7 0.5 48.3 34.7 69.6 52.1 69.6 84.6 0 5.3-0.6 10.3-1.7 15.2h35.7c5.8-12.9 8.9-26.4 8.9-39.9 0-44.4-25.5-66-53.6-89.7l-23.2-17.9c-7-5.8-16.5-13.6-16.5-27.5 0-14 9.5-22.8 17.8-31.5 26.7-20.8 53.5-43.2 53.5-90.4 0-48.7-30.8-74.2-45.4-86.6h39.8l41.1-23H193.3c-34.5 0-78 5.3-114.5 35.4 -27.4 23.5-40.7 56.1-40.7 85.8 0 49.7 38.4 100.2 106 100.2 6.4 0 13.4-0.6 20.6-1.2 -3.3 7.6-6.4 14-6.4 24.8 0 19.6 10 31.9 19.2 43.6 -28.8 2.1-82.6 5-121.9 29.5 -37.9 22.4-49.5 54.8-49.5 78 0 3.5 0.3 7.1 0.9 10.6H66.8zM174.2 204.9c-55 0-80-71-80-113.8 0-16.8 3.3-33.8 14.2-47.3 10.3-13.2 28.2-21.4 44.8-21.4 53 0 80.3 71.9 80.3 117.7 0 11.7-0.9 32-15.9 46.7C207.4 197.3 190.1 204.9 174.2 204.9z"/><path class="st3" d="M325.3 1.3c-0.6 0.3-1.1 0.6-1.7 0.8l-39.5 22.1h-39.8c14.7 12.4 45.4 37.9 45.4 86.6 0 47.2-26.9 69.6-53.5 90.4 -8.3 8.7-17.8 17.4-17.8 31.5 0 13.9 9.5 21.7 16.5 27.5l23.2 17.9c28.1 23.7 53.6 45.3 53.6 89.7 0 13.5-3.1 27-8.9 39.9h-35.7c1.1-4.9 1.7-9.9 1.7-15.2 0-32.5-21.2-49.8-69.6-84.6 -5.3-0.5-8.4-0.5-14.7-0.5 -5.9 0-40.5 1.5-67.3 10.4 -13.9 5.1-55 20.5-55 65.7 0 8.6 1.5 16.7 4.5 24.2h-38c0 0 0 0 0 0l388.1 0v-315L325.3 1.3zM174.2 204.9c15.9 0 33.2-7.6 43.3-18.1 15-14.6 15.9-35 15.9-46.7 0-45.9-27.3-117.7-80.3-117.7 -16.6 0-34.5 8.2-44.8 21.4C97.5 57.3 94.2 74.3 94.2 91.1 94.2 133.9 119.2 204.9 174.2 204.9z"/><path class="st2" d="M325.3 1.3c-0.6 0.3-1.1 0.6-1.7 0.8l-39.5 22.1h-39.8c14.7 12.4 45.4 37.9 45.4 86.6 0 47.2-26.9 69.6-53.5 90.4 -8.3 8.7-17.8 17.4-17.8 31.5 0 13.9 9.5 21.7 16.5 27.5l23.2 17.9c28.1 23.7 53.6 45.3 53.6 89.7 0 13.5-3.1 27-8.9 39.9h-35.7c1.1-4.9 1.7-9.9 1.7-15.2 0-32.5-21.2-49.8-69.6-84.6 -5.3-0.5-8.4-0.5-14.7-0.5 -5.9 0-40.5 1.5-67.3 10.4 -13.9 5.1-55 20.5-55 65.7 0 8.6 1.5 16.7 4.5 24.2h-38c0 0 0 0 0 0l388.1 0v-315L325.3 1.3zM174.2 204.9c15.9 0 33.2-7.6 43.3-18.1 15-14.6 15.9-35 15.9-46.7 0-45.9-27.3-117.7-80.3-117.7 -16.6 0-34.5 8.2-44.8 21.4C97.5 57.3 94.2 74.3 94.2 91.1 94.2 133.9 119.2 204.9 174.2 204.9z"/></svg>