<svg height="42" viewBox="0 0 41 42" width="41" xmlns="http://www.w3.org/2000/svg" xmlns:xlink="http://www.w3.org/1999/xlink"><defs><filter id="a" height="184.4%" width="184.4%" x="-42.2%" y="-42.2%"><feOffset dx="0" dy="2" in="SourceAlpha" result="shadowOffsetOuter1"/><feGaussianBlur in="shadowOffsetOuter1" result="shadowBlurOuter1" stdDeviation="2.5"/><feColorMatrix in="shadowBlurOuter1" result="shadowMatrixOuter1" type="matrix" values="0 0 0 0 0   0 0 0 0 0   0 0 0 0 0  0 0 0 0.2 0"/><feMerge><feMergeNode in="shadowMatrixOuter1"/><feMergeNode in="SourceGraphic"/></feMerge></filter><ellipse id="b" cx="15.58512" cy="15.741965" rx="15.58512" ry="15.741965"/><mask id="c" fill="#fff"><use fill="#fff" fill-rule="evenodd" xlink:href="#b"/></mask></defs><g fill="none" fill-rule="evenodd" filter="url(#a)" transform="translate(5 3)"><use fill="#fff" xlink:href="#b"/><path d="m30.0885633 25.2887567c-.6810733-2.3138261-3.6376754-3.6116195-4.7211734-3.5492626-1.0836505.0626648-4.8435777-1.1099529-4.8435777-1.1099529l-.4489169-.7347337s.1858166-3.5960687.247857-4.3619038c.0617356-.7662971.2166082-1.0006359.2166082-1.0006359s.1082278.0936124.2631004.0936124c.1548725 0 .3384026-.2260246.376511-.7016307.0496933-.6197198-.0556383-1.4337469-.0556383-1.3272012 0-.5436599.2370342-.761832.1131057-1.0745404-.0730157-.1844532-.2318515-.1863008-.3504448-.1573549.0670708-.2582038.1201177-.4849981.1332269-.5853851.0463399-.3595145.1237761-1.53213217 0-2.14199808-.1239285-.60955798-.9286254-2.36063221-1.2537663-2.93924268-.3249884-.57845651-1.1089544-.53226621-.448917-.4846902.2166082.0157047-.7476868-.50208855-.5263532-.51579167.2477046-.01601264-.3559324-.23480069-.3559324-.23480069s.0617356-.46913947-.0929845-.42202536c-.1948102.05912358-.3714807-.4066286-.6190329-.14072645-.2477046.26574819-.1548725-.64112134-.2941968-.37521919-.1393243.26574819-.6220815-.16274382-.8203977-.06266484-.2473997.12517571.4954092-.30069884.1239286-.26559422-.1702684.01601264-.5571448-.05681406-.8050019.12502175-.2653869.19523099.0620405-.3438098-.1701159-.04696014-.2089864.26728786-1.1170334.18106597-1.3764754.37722077.0733206-.14842483.159598-.34658121.0917651-.25219903-.1239286.17198188-.6656776.46913947-.9289304.73473369-.2631004.26605612.3870289-.53149638.1083803-.31270833-.3114219.24496255-.7740578.46913947-.9441737.87592204-.1704208.40632066-.1548726-.67237679-.1704208-.23480069-.0085363.24696413-.3094402.37521919-.4332163.65682605-.1242334.28206876-.0358219-.2261785-.2143216.19061197-.1443546.33718918-.2036513.15319782-.3894679.73165433-.1858165.57861048-.2321563-.01555074-.4178205.48484417-.1856641.50024093-.2323088.98493114-.4952567 1.86054523-.2598993.86345066.0528944 3.48998497.3140132 4.10169857-.059754-.0086222-.1271296-.0056968-.2004502.0193999-.3251409.1110107.3595909.9926295.4681236 1.3678487.1080754.3753732.0890212.6317293.3056294 1.2260445.2166081.5940072.7124746.3197908.7124746.3197908l.5983019 2.5022825-.2167606 2.31398s-2.71941541.7433559-4.03872822.9224203c-4.37545403.5936993-5.6964436 2.3452354-6.29992822 3.1740433-.60378949.8285-2.22918896 7.8562-2.22918896 7.8562h31.1257215s-.3560849-4.5886982-1.0371582-6.9026782" fill="#f88000" mask="url(#c)"/><ellipse cx="15.58512" cy="15.741965" rx="14.78512" ry="14.941965" stroke="#fff" stroke-width="1.6"/></g></svg>