<?xml version="1.0" encoding="utf-8"?>
<!-- Generator: Adobe Illustrator 17.1.0, SVG Export Plug-In . SVG Version: 6.00 Build 0)  -->
<!DOCTYPE svg PUBLIC "-//W3C//DTD SVG 1.1//EN" "http://www.w3.org/Graphics/SVG/1.1/DTD/svg11.dtd">
<svg version="1.1" id="Capa_1" xmlns="http://www.w3.org/2000/svg" xmlns:xlink="http://www.w3.org/1999/xlink" x="0px" y="0px"
	 viewBox="0 0 40 40" enable-background="new 0 0 40 40" xml:space="preserve">
<path fill="#454152" d="M34.072,31.441l-6.81-6.81c1.75-2.121,2.704-4.76,2.704-7.546c0-3.174-1.236-6.158-3.48-8.402
	c-2.244-2.245-5.229-3.48-8.402-3.48c-3.173,0-6.157,1.236-8.401,3.48c-4.632,4.633-4.632,12.17,0,16.803
	c2.244,2.245,5.229,3.48,8.401,3.48c2.549,0,4.968-0.809,6.987-2.286l6.88,6.881L34.072,31.441z M11.804,23.365
	c-3.463-3.463-3.463-9.098,0-12.561c1.678-1.678,3.908-2.602,6.28-2.602c2.373,0,4.604,0.924,6.281,2.602s2.602,3.908,2.602,6.281
	c0,2.372-0.924,4.603-2.602,6.28s-3.908,2.602-6.281,2.602C15.712,25.967,13.481,25.043,11.804,23.365z"/>
<g>
</g>
<g>
</g>
<g>
</g>
<g>
</g>
<g>
</g>
<g>
</g>
<g>
</g>
<g>
</g>
<g>
</g>
<g>
</g>
<g>
</g>
<g>
</g>
<g>
</g>
</svg>
