<!-- Generated by IcoMoon.io -->
<svg version="1.1" xmlns="http://www.w3.org/2000/svg" width="32" height="32" viewBox="0 0 32 32">
<title>arrow-down</title>
<path d="M31.68 8.593l-1.603-1.603c-0.214-0.214-0.46-0.321-0.738-0.321s-0.523 0.107-0.737 0.321l-12.602 12.601-12.601-12.601c-0.214-0.214-0.46-0.321-0.738-0.321s-0.524 0.107-0.738 0.321l-1.603 1.603c-0.214 0.214-0.321 0.46-0.321 0.738s0.107 0.524 0.321 0.737l14.942 14.942c0.214 0.214 0.46 0.321 0.738 0.321s0.523-0.107 0.737-0.321l14.943-14.942c0.214-0.214 0.32-0.46 0.32-0.737s-0.106-0.524-0.32-0.738z"></path>
</svg>
