<!-- Generated by IcoMoon.io -->
<svg version="1.1" xmlns="http://www.w3.org/2000/svg" width="37" height="32" viewBox="0 0 37 32">
<title>biodiversity</title>
<path fill="#555" d="M3.048 19.048c-1.758 0-3.048-2.106-3.048-4.571s1.289-4.571 3.048-4.571c1.758 0 3.048 2.106 3.048 4.571s-1.289 4.571-3.048 4.571zM12.19 12.19c-2.198 0-3.81-2.808-3.81-6.095s1.612-6.095 3.81-6.095c2.198 0 3.81 2.808 3.81 6.095s-1.612 6.095-3.81 6.095zM24.381 12.19c-2.198 0-3.81-2.808-3.81-6.095s1.612-6.095 3.81-6.095c2.198 0 3.81 2.808 3.81 6.095s-1.612 6.095-3.81 6.095zM33.524 19.048c-1.758 0-3.048-2.106-3.048-4.571s1.289-4.571 3.048-4.571c1.758 0 3.048 2.106 3.048 4.571s-1.289 4.571-3.048 4.571zM18.286 27.429c-1.442 0-2.89 0.492-4.854 1.518-0.202 0.106-1.706 0.919-2.116 1.123-0.86 0.429-1.504 0.666-2.15 0.727-2.121 0.199-3.071-1.41-3.071-4.13 0-7.131 5.433-12.952 12.19-12.952s12.19 5.822 12.19 12.952c0 2.721-0.95 4.329-3.071 4.13-0.646-0.061-1.29-0.298-2.15-0.727-0.409-0.204-1.913-1.018-2.116-1.123-1.963-1.026-3.412-1.518-4.854-1.518z"></path>
</svg>
