<!-- Generated by IcoMoon.io -->
<svg version="1.1" xmlns="http://www.w3.org/2000/svg" width="32" height="32" viewBox="0 0 32 32">
<title>biodiversity</title>
<path d="M5.333 18.667c-1.231 0-2.133-1.474-2.133-3.2s0.903-3.2 2.133-3.2c1.231 0 2.133 1.474 2.133 3.2s-0.903 3.2-2.133 3.2zM11.733 13.867c-1.538 0-2.667-1.966-2.667-4.267s1.128-4.267 2.667-4.267c1.538 0 2.667 1.966 2.667 4.267s-1.128 4.267-2.667 4.267zM20.267 13.867c-1.538 0-2.667-1.966-2.667-4.267s1.128-4.267 2.667-4.267c1.538 0 2.667 1.966 2.667 4.267s-1.128 4.267-2.667 4.267zM26.667 18.667c-1.231 0-2.133-1.474-2.133-3.2s0.903-3.2 2.133-3.2c1.231 0 2.133 1.474 2.133 3.2s-0.903 3.2-2.133 3.2zM16 24.533c-1.009 0-2.023 0.345-3.398 1.063-0.142 0.074-1.194 0.643-1.481 0.786-0.602 0.3-1.053 0.466-1.505 0.509-1.485 0.139-2.15-0.987-2.15-2.891 0-4.992 3.803-9.067 8.533-9.067s8.533 4.075 8.533 9.067c0 1.904-0.665 3.031-2.15 2.891-0.452-0.042-0.903-0.209-1.505-0.509-0.287-0.143-1.339-0.712-1.481-0.786-1.374-0.718-2.388-1.063-3.398-1.063z"></path>
</svg>
