<!-- Generated by IcoMoon.io -->
<svg version="1.1" xmlns="http://www.w3.org/2000/svg" width="32" height="32" viewBox="0 0 32 32">
<title>climate</title>
<path d="M20.267 10.667v2.133h-3.2v2.133h3.2v2.157c1.924 1.232 3.2 3.389 3.2 5.843 0 3.829-3.104 6.933-6.933 6.933s-6.933-3.104-6.933-6.933c0-2.455 1.276-4.611 3.2-5.843v-10.157c0-2.062 1.671-3.733 3.733-3.733s3.733 1.671 3.733 3.733v1.6h-3.2v2.133h3.2zM16 6.933v11.908l-1.475 0.944c-1.069 0.684-1.725 1.858-1.725 3.148 0 2.062 1.671 3.733 3.733 3.733s3.733-1.671 3.733-3.733c0-1.29-0.657-2.464-1.725-3.148l-1.475-0.944v-11.908c0-0.295-0.239-0.533-0.533-0.533s-0.533 0.239-0.533 0.533z"></path>
</svg>
