<svg xmlns="http://www.w3.org/2000/svg" xmlns:xlink="http://www.w3.org/1999/xlink" width="32" height="32" viewBox="0 0 32 32">
    <defs>
        <path id="a" d="M10.5 28H5c0-6.075 4.925-11 11-11s11 4.925 11 11h-9l1-4 4.633-.771A8.994 8.994 0 0 0 16 19c-1.803 0-3.483.53-4.89 1.444L15 22l-1 5h-3l-.5 1zm4.551-21.684l1.898-.632 1 3.005a1 1 0 0 1-.055.763l-.814 1.625.869 2.607-1.898.632-1-3a1 1 0 0 1 .055-.764l.814-1.625-.869-2.611zm-4.13 2.61l-.87-2.61 1.898-.632 1 3.005a1 1 0 0 1-.055.763l-.814 1.625.869 2.607-1.898.632-1-3a1 1 0 0 1 .055-.764l.814-1.625zm9.13-2.61l1.898-.632 1 3.005a1 1 0 0 1-.055.763l-.814 1.625.869 2.607-1.898.632-1-3a1 1 0 0 1 .055-.764l.814-1.625-.869-2.611z"/>
    </defs>
    <use fill="#4A4A4A" fill-rule="nonzero" xlink:href="#a"/>
</svg>
