<!-- Generated by IcoMoon.io -->
<svg version="1.1" xmlns="http://www.w3.org/2000/svg" width="17" height="32" viewBox="0 0 17 32">
<title>climate</title>
<path fill="#555" d="M12.8 8.96v2.56h-3.84v2.56h3.84v2.588c2.309 1.479 3.84 4.067 3.84 7.012 0 4.595-3.725 8.32-8.32 8.32s-8.32-3.725-8.32-8.32c0-2.946 1.531-5.534 3.84-7.012v-12.188c0-2.474 2.006-4.48 4.48-4.48s4.48 2.006 4.48 4.48v1.92h-3.84v2.56h3.84zM7.68 4.48v14.289l-1.769 1.133c-1.283 0.821-2.071 2.23-2.071 3.778 0 2.474 2.006 4.48 4.48 4.48s4.48-2.006 4.48-4.48c0-1.549-0.788-2.957-2.070-3.778l-1.77-1.133v-14.289c0-0.353-0.287-0.64-0.64-0.64s-0.64 0.287-0.64 0.64z"></path>
</svg>
