<!-- Generated by IcoMoon.io -->
<svg version="1.1" xmlns="http://www.w3.org/2000/svg" width="35" height="32" viewBox="0 0 35 32">
<title>climate-bubbles</title>
<path fill="#7f7f7f" stroke="#fff" stroke-width="1.6" stroke-miterlimit="4" stroke-linecap="butt" stroke-linejoin="miter" d="M29.552 9.15c0 2.651-2.149 4.8-4.8 4.8s-4.8-2.149-4.8-4.8c0-2.651 2.149-4.8 4.8-4.8s4.8 2.149 4.8 4.8z"></path>
<path fill="#7f7f7f" stroke="#fff" stroke-width="1.6" stroke-miterlimit="4" stroke-linecap="butt" stroke-linejoin="miter" d="M24.41 13.678c0 2.651-2.149 4.8-4.8 4.8s-4.8-2.149-4.8-4.8c0-2.651 2.149-4.8 4.8-4.8s4.8 2.149 4.8 4.8z"></path>
<path fill="#7f7f7f" stroke="#fff" stroke-width="1.6" stroke-miterlimit="4" stroke-linecap="butt" stroke-linejoin="miter" d="M8.895 13.92c0 2.209-1.791 4-4 4s-4-1.791-4-4c0-2.209 1.791-4 4-4s4 1.791 4 4z"></path>
<path fill="#7f7f7f" stroke="#fff" stroke-width="1.6" stroke-miterlimit="4" stroke-linecap="butt" stroke-linejoin="miter" d="M15.96 5.727c0 2.209-1.791 4-4 4s-4-1.791-4-4c0-2.209 1.791-4 4-4s4 1.791 4 4z"></path>
<path fill="#7f7f7f" stroke="#fff" stroke-width="1.6" stroke-miterlimit="4" stroke-linecap="butt" stroke-linejoin="miter" d="M22.243 25.619c0 2.209-1.791 4-4 4s-4-1.791-4-4c0-2.209 1.791-4 4-4s4 1.791 4 4z"></path>
<path fill="#7f7f7f" stroke="#fff" stroke-width="1.6" stroke-miterlimit="4" stroke-linecap="butt" stroke-linejoin="miter" d="M13.206 20.871c0 3.093-2.507 5.6-5.6 5.6s-5.6-2.507-5.6-5.6c0-3.093 2.507-5.6 5.6-5.6s5.6 2.507 5.6 5.6z"></path>
<path fill="#7f7f7f" stroke="#fff" stroke-width="1.6" stroke-miterlimit="4" stroke-linecap="butt" stroke-linejoin="miter" d="M32.969 16.941c0 3.535-2.865 6.4-6.4 6.4s-6.4-2.865-6.4-6.4c0-3.535 2.865-6.4 6.4-6.4s6.4 2.865 6.4 6.4z"></path>
</svg>
