<!-- Generated by IcoMoon.io -->
<svg version="1.1" xmlns="http://www.w3.org/2000/svg" width="32" height="32" viewBox="0 0 32 32">
<title>climate</title>
<path d="M10.5 28h-5.5c0-6.075 4.925-11 11-11s11 4.925 11 11h-9l1-4 4.633-0.771c-1.644-2.632-4.529-4.231-7.633-4.229-1.803 0-3.483 0.53-4.89 1.444l3.89 1.556-1 5h-3l-0.5 1zM15.051 6.316l1.898-0.632 1 3.005c0.084 0.252 0.064 0.526-0.055 0.763l-0.814 1.625 0.869 2.607-1.898 0.632-1-3c-0.084-0.252-0.064-0.527 0.055-0.764l0.814-1.625-0.869-2.611zM10.921 8.926l-0.87-2.61 1.898-0.632 1 3.005c0.084 0.252 0.064 0.526-0.055 0.763l-0.814 1.625 0.869 2.607-1.898 0.632-1-3c-0.084-0.252-0.064-0.527 0.055-0.764l0.814-1.625 0.001-0.001zM20.051 6.316l1.898-0.632 1 3.005c0.084 0.252 0.064 0.526-0.055 0.763l-0.814 1.625 0.869 2.607-1.898 0.632-1-3c-0.084-0.252-0.064-0.527 0.055-0.764l0.814-1.625-0.869-2.611z"></path>
</svg>
