<!-- Generated by IcoMoon.io -->
<svg version="1.1" xmlns="http://www.w3.org/2000/svg" width="32" height="32" viewBox="0 0 32 32">
<title>explore</title>
<path fill="#555" d="M16 31.429c-8.521 0-15.429-6.908-15.429-15.429s6.908-15.429 15.429-15.429c8.521 0 15.429 6.908 15.429 15.429s-6.908 15.429-15.429 15.429zM16 28c6.627 0 12-5.373 12-12s-5.373-12-12-12c-6.627 0-12 5.373-12 12s5.373 12 12 12zM23.273 8.727l-4.041 10.506-10.506 4.041 4.041-10.506 10.506-4.041zM16 17.143c0.631 0 1.143-0.512 1.143-1.143s-0.512-1.143-1.143-1.143c-0.631 0-1.143 0.512-1.143 1.143s0.512 1.143 1.143 1.143z"></path>
</svg>
