<!-- Generated by IcoMoon.io -->
<svg version="1.1" xmlns="http://www.w3.org/2000/svg" width="32" height="32" viewBox="0 0 32 32">
<title>explore</title>
<path d="M16.533 30.933c-7.953 0-14.4-6.447-14.4-14.4s6.447-14.4 14.4-14.4c7.953 0 14.4 6.447 14.4 14.4s-6.447 14.4-14.4 14.4zM16.533 27.733c6.186 0 11.2-5.014 11.2-11.2s-5.014-11.2-11.2-11.2c-6.186 0-11.2 5.014-11.2 11.2s5.014 11.2 11.2 11.2zM23.322 9.745l-3.771 9.805-9.805 3.771 3.771-9.805 9.805-3.771zM16.533 17.6c0.589 0 1.067-0.478 1.067-1.067s-0.478-1.067-1.067-1.067c-0.589 0-1.067 0.478-1.067 1.067s0.478 1.067 1.067 1.067z"></path>
</svg>
