<!-- Generated by IcoMoon.io -->
<svg version="1.1" xmlns="http://www.w3.org/2000/svg" width="30" height="32" viewBox="0 0 30 32">
<title>feather</title>
<path d="M13.691 7.149l2.072 4.554 0.63-6.407c3.714-2.167 8.302-3.461 13.765-3.883-0.243 3.149-0.776 6.007-1.599 8.575l-3.954 0.389 3.279 1.492c-0.828 2.069-1.867 3.926-3.117 5.571l-6.357 0.625 4.125 1.877c-5.107 4.967-11.079 7.759-14.756 5.063l-5.568 5.568c-0.298 0.298-0.78 0.298-1.077 0l-0.135-0.135c-0.298-0.298-0.298-0.78 0-1.078l5.568-5.568c-2.757-3.761 0.224-9.921 5.409-15.107 0.542-0.542 1.114-1.054 1.716-1.537z"></path>
</svg>
