<!-- Generated by IcoMoon.io -->
<svg version="1.1" xmlns="http://www.w3.org/2000/svg" width="27" height="32" viewBox="0 0 27 32">
<title>fires-flame</title>
<path fill="#fff" d="M0.248 19.958c0.242-0.968 0.823-2.533 1.775-4.695 0.952-2.146 1.468-3.872 1.565-5.179 0.936 1.726 1.468 3.437 1.597 5.147 3.533-4.356 5.357-9.439 5.502-15.231 0.226 0.145 0.532 0.339 0.904 0.597 0.371 0.242 1.065 0.791 2.049 1.63 1 0.839 1.888 1.71 2.646 2.614 0.774 0.904 1.484 2.049 2.162 3.437s1.081 2.791 1.226 4.179c0.371-0.839 0.597-1.759 0.694-2.791 0.081-1.016-0.032-1.968-0.355-2.84 0.371 0.274 0.855 0.742 1.468 1.388 0.597 0.645 1.275 1.533 2.017 2.646s1.404 2.291 1.985 3.55c0.581 1.242 0.952 2.646 1.113 4.195 0.161 1.565 0.048 3.066-0.323 4.534-0.371 1.452-1.226 2.969-2.565 4.518-1.355 1.549-3.162 2.985-5.437 4.276 1.533-3.066 1.839-6.357 0.904-9.906-0.92-3.55-2.759-6.276-5.486-8.18 0.226 1.016 0.097 2.694-0.387 5.050-0.484 2.339-1.258 4.114-2.339 5.308 0.194-1.484 0.242-2.678 0.145-3.614-0.097-0.92-0.226-1.613-0.419-2.081l-0.339-0.629c-0.29 1.678-1 3.34-2.162 5.018-0.613 0.871-1.065 1.678-1.355 2.42-0.307 0.742-0.42 1.694-0.355 2.856s0.436 2.42 1.081 3.759c-3.195-1.807-5.34-3.646-6.438-5.502s-1.388-4.001-0.871-6.47z"></path>
</svg>
