<svg xmlns="http://www.w3.org/2000/svg" width="16" height="16" viewBox="0 0 16 16">
    <g fill-rule="evenodd">
        <path d="M7.078 12.88c-.902-.151-1.696-.598-2.37-1.155l.323-1.616h.275A1.33 1.33 0 0 0 6.6 8.452l-.444-1.777a1.332 1.332 0 0 0-1.294-1.01H2.964a5.561 5.561 0 0 1 5.258-3.778c1.246 0 2.392.417 3.32 1.111h-.403a1.33 1.33 0 0 0-1.293 1.01L9.4 5.786c-.1.4-.012.818.242 1.144.254.325.637.513 1.051.513h.56l.224 1.35c.075.449.252.859.503 1.22a.222.222 0 0 0 .284.072c.72-.371 1.561-.338 2.223.077a.426.426 0 0 0 .622-.213 7.28 7.28 0 0 0 .446-2.506c0-4.044-3.29-7.334-7.334-7.334C4.18.11.89 3.4.89 7.443c0 3.453 2.45 6.47 5.825 7.177.431.091.824.128.935-.397.138-.808-.052-1.256-.57-1.343z"/>
        <path fill-rule="nonzero" d="M8 16A8 8 0 1 1 8 0a8 8 0 0 1 0 16zm0-1.778A6.222 6.222 0 1 0 8 1.778a6.222 6.222 0 0 0 0 12.444z"/>
    </g>
</svg>
