<svg viewBox="0 0 1024 1024">
  <title>googleplus</title>
  <path class="path1" d="M559.040 64c0 0-200.96 0-267.968 0-120.128 0-233.152 91.008-233.152 196.416 0 107.712 81.856 194.688 204.096 194.688 8.512 0 16.768-0.192 24.832-0.768-7.936 15.168-13.632 32.32-13.632 50.048 0 29.952 16.128 54.208 36.48 74.048-15.36 0-30.272 0.448-46.464 0.448-148.8 0-263.296 94.784-263.296 193.024 0 96.768 125.568 157.312 274.304 157.312 169.6 0 263.296-96.256 263.296-193.024 0-77.632-22.912-124.096-93.696-174.144-24.192-17.152-70.528-58.816-70.528-83.328 0-28.736 8.192-42.88 51.456-76.672 44.288-34.624 75.648-83.328 75.648-139.904 0-67.392-30.016-133.12-86.4-154.752h84.928l59.968-43.328zM465.472 719.488c2.112 8.96 3.264 18.176 3.264 27.648 0 78.208-50.368 139.328-194.944 139.328-102.848 0-177.088-65.088-177.088-143.296 0-76.672 92.096-140.416 194.944-139.328 24 0.256 46.336 4.096 66.688 10.688 55.808 38.848 95.872 60.736 107.2 105.024zM300.8 427.776c-69.056-2.048-134.656-77.248-146.56-167.872s34.368-160.064 103.36-158.016c68.992 2.048 134.656 74.816 146.56 165.44s-34.368 162.432-103.424 160.384zM832 256v-192h-64v192h-192v64h192v192h64v-192h192v-64z"></path>
</svg>