<!-- Generated by IcoMoon.io -->
<svg version="1.1" xmlns="http://www.w3.org/2000/svg" width="32" height="32" viewBox="0 0 32 32">
<title>howto</title>
<path fill="#97be32" style="fill: var(--color1, #97be32)" d="M20.058 15.608c-0.792 1.080-1.896 1.959-3.315 2.637v2.994h-2.994v-3.743c0.491-0.296 0.918-0.568 1.28-0.818 0.364-0.25 0.761-0.568 1.194-0.953 0.433-0.387 0.782-0.773 1.052-1.164 0.27-0.39 0.498-0.849 0.684-1.379 0.186-0.531 0.28-1.087 0.28-1.673 0-1.497-0.749-2.246-2.246-2.246-0.841 0-1.426 0.251-1.753 0.755-0.328 0.502-0.491 1.249-0.491 2.24h-2.994v-0.749c0-1.708 0.45-3.008 1.351-3.9 0.901-0.893 2.197-1.339 3.888-1.339 1.708 0 3.010 0.45 3.906 1.349 0.896 0.901 1.346 2.198 1.346 3.889 0 1.653-0.396 3.019-1.188 4.099v0zM13.749 25.729v-2.994h2.994v2.994h-2.994zM15.999 0c-8.837 0-15.999 7.164-15.999 15.999 0 8.837 7.162 16.001 15.999 16.001s16.001-7.164 16.001-16.001c0-8.835-7.164-15.999-16.001-15.999v0z"></path>
</svg>
