<!-- Generated by IcoMoon.io -->
<svg version="1.1" xmlns="http://www.w3.org/2000/svg" width="32" height="32" viewBox="0 0 32 32">
<title>land-cover</title>
<path d="M15.231 20.154v-2.308h-3.203c0.052 0.809 0.17 1.578 0.356 2.308h2.847zM15.231 22h-2.193c0.538 1.155 1.281 2.203 2.193 3.092v-3.092zM8.171 20.154h2.317c-0.162-0.738-0.265-1.508-0.309-2.308h-2.333c0 0.8 0.114 1.575 0.325 2.308zM8.958 22c0.956 1.652 2.45 2.926 4.232 3.609-0.922-1.069-1.651-2.29-2.154-3.609h-2.078zM17.077 20.154h2.847c0.186-0.73 0.305-1.499 0.355-2.308h-3.202v2.308zM17.077 22v3.092c0.912-0.89 1.655-1.937 2.193-3.092h-2.193zM24.137 20.154c0.216-0.75 0.326-1.527 0.325-2.308h-2.333c-0.044 0.799-0.148 1.569-0.308 2.308h2.316zM23.35 22h-2.077c-0.503 1.319-1.233 2.54-2.155 3.609 1.782-0.683 3.276-1.957 4.232-3.609zM17.077 16h9.231v1.846c0 5.608-4.546 10.154-10.154 10.154s-10.154-4.546-10.154-10.154v-1.846h9.231v-2.718h-4.615l2.743-2.769h-2.743l5.538-6.513 5.538 6.513h-2.743l2.743 2.769h-4.615v2.718z"></path>
</svg>
