<!-- Generated by IcoMoon.io -->
<svg version="1.1" xmlns="http://www.w3.org/2000/svg" width="32" height="32" viewBox="0 0 32 32">
<title>land-use</title>
<path d="M7.197 27.015h-2.197c0-13.3 9.926-23.015 22.996-23.015v2.095c-1.419 0.028-2.996 0.231-4.368 0.53l0.493 2.105c1.217-0.266 2.614-0.447 3.875-0.475v2.29c-9.467 0-16.425 6.811-16.425 16.47h-2.183c0.038-1.304 0.205-2.743 0.497-3.965l-2.131-0.505c-0.329 1.379-0.517 3.002-0.557 4.47zM17.048 9.261l1.16 1.851c1.173-0.729 2.424-1.326 3.73-1.778l-0.718-2.062c-1.461 0.507-2.86 1.173-4.172 1.989zM11.571 13.788l1.705 1.37c0.869-1.073 1.854-2.046 2.939-2.903l-1.361-1.709c-1.211 0.957-2.312 2.044-3.282 3.242zM10.321 16c-0.831 1.299-1.514 2.687-2.035 4.137l2.063 0.735c0.465-1.298 1.077-2.539 1.819-3.7l-1.848-1.172z"></path>
<path d="M21 24.056h-5l2.972-3h-2.972l6-7.056 6 7.056h-2.972l2.972 3h-5v2.944h-2z"></path>
</svg>
