<svg xmlns="http://www.w3.org/2000/svg" xmlns:xlink="http://www.w3.org/1999/xlink" width="32" height="32" viewBox="0 0 32 32">
    <defs>
        <path id="a" d="M26 7a19.06 19.06 0 0 0-4.196.465l.44 1.951A17.06 17.06 0 0 1 26 9v3c-1.405 0-2.778.206-4.09.606a14.043 14.043 0 0 0-9.195 8.962A13.981 13.981 0 0 0 12 26H4c0-2.39.383-4.734 1.125-6.962A22.043 22.043 0 0 1 19.576 4.954 21.998 21.998 0 0 1 26 4v3zm-5 17.056h-5l2.972-3H16L22 14l6 7.056h-2.972l2.972 3h-5V27h-2v-2.944zM19.763 8.048a18.922 18.922 0 0 0-3.809 1.822l1.059 1.697a16.922 16.922 0 0 1 3.406-1.63l-.656-1.89zm-5.56 3.057a19.108 19.108 0 0 0-2.997 2.972l1.557 1.256a17.108 17.108 0 0 1 2.683-2.661l-1.243-1.567zm-4.24 4.702a18.928 18.928 0 0 0-1.858 3.792l1.884.674c.425-1.19.983-2.327 1.661-3.392l-1.687-1.074zm-2.448 5.782c-.324 1.363-.497 2.964-.514 4.388l2 .023c.015-1.275.17-2.729.46-3.948l-1.946-.463z"/>
    </defs>
    <use fill-rule="nonzero" xlink:href="#a"/>
</svg>
