<!-- Generated by IcoMoon.io -->
<svg version="1.1" xmlns="http://www.w3.org/2000/svg" width="32" height="32" viewBox="0 0 32 32">
<title>more</title>
<path fill="#666" d="M5.12 16.64c0-1.414 1.083-2.56 2.418-2.56s2.418 1.146 2.418 2.56c0 1.414-1.082 2.56-2.418 2.56s-2.418-1.146-2.418-2.56z"></path>
<path fill="#666" d="M13.582 16.64c0-1.414 1.082-2.56 2.418-2.56s2.418 1.146 2.418 2.56c0 1.414-1.082 2.56-2.418 2.56s-2.418-1.146-2.418-2.56z"></path>
<path fill="#666" d="M22.044 16.64c0-1.414 1.082-2.56 2.418-2.56s2.418 1.146 2.418 2.56c0 1.414-1.082 2.56-2.418 2.56s-2.418-1.146-2.418-2.56z"></path>
</svg>
