<!-- Generated by IcoMoon.io -->
<svg version="1.1" xmlns="http://www.w3.org/2000/svg" width="32" height="32" viewBox="0 0 32 32">
<title>profile</title>
<path d="M15.835 32c-8.745 0-15.835-7.163-15.835-16s7.089-16 15.835-16c8.745 0 15.835 7.163 15.835 16s-7.089 16-15.835 16z"></path>
<path fill="#fff" d="M3.879 23.131c2.415 4.137 6.867 6.91 11.956 6.91 5.227 0 9.782-2.926 12.148-7.25-0.865-0.481-1.723-0.723-2.209-0.695-1.101 0.064-4.921-1.128-4.921-1.128l-0.456-0.747c0 0 0.189-3.655 0.252-4.433s0.22-1.017 0.22-1.017 0.11 0.095 0.267 0.095c0.157 0 0.344-0.23 0.383-0.713 0.050-0.63-0.057-1.457-0.057-1.349 0-0.553 0.241-0.774 0.115-1.092-0.074-0.187-0.236-0.189-0.356-0.16 0.068-0.262 0.122-0.493 0.135-0.595 0.047-0.365 0.126-1.557 0-2.177s-0.944-2.399-1.274-2.987c-0.33-0.588-1.127-0.541-0.456-0.493 0.22 0.016-0.76-0.51-0.535-0.524 0.252-0.016-0.362-0.239-0.362-0.239s0.063-0.477-0.094-0.429c-0.198 0.060-0.377-0.413-0.629-0.143s-0.157-0.652-0.299-0.381c-0.142 0.27-0.632-0.165-0.834-0.064-0.251 0.127 0.503-0.306 0.126-0.27-0.173 0.016-0.566-0.058-0.818 0.127-0.27 0.198 0.063-0.349-0.173-0.048-0.212 0.272-1.135 0.184-1.399 0.383 0.075-0.151 0.162-0.352 0.093-0.256-0.126 0.175-0.676 0.477-0.944 0.747s0.393-0.54 0.11-0.318c-0.316 0.249-0.786 0.477-0.959 0.89s-0.157-0.683-0.173-0.239c-0.009 0.251-0.314 0.381-0.44 0.668s-0.036-0.23-0.218 0.194c-0.147 0.343-0.207 0.156-0.396 0.744s-0.236-0.016-0.425 0.493c-0.189 0.508-0.236 1.001-0.503 1.891-0.264 0.878 0.054 3.547 0.319 4.169-0.061-0.009-0.129-0.006-0.204 0.020-0.33 0.113 0.365 1.009 0.476 1.39s0.090 0.642 0.311 1.246c0.22 0.604 0.724 0.325 0.724 0.325l0.608 2.543-0.22 2.352c0 0-2.763 0.756-4.103 0.938-2.34 0.318-3.82 0.961-4.787 1.623v0z"></path>
</svg>
