<?xml version="1.0" encoding="UTF-8"?>
<svg width="150px" height="137px" viewBox="0 0 150 137" version="1.1" xmlns="http://www.w3.org/2000/svg" xmlns:xlink="http://www.w3.org/1999/xlink">
    <!-- Generator: sketchtool 57.1 (101010) - https://sketch.com -->
    <title>6FC56903-6BB6-42C3-A21C-9623DF1DC693</title>
    <desc>Created with sketchtool.</desc>
    <defs>
        <polygon id="path-1" points="0 0.314344608 21.2928584 0.314344608 21.2928584 30.9673203 0 30.9673203"></polygon>
        <polygon id="path-3" points="0 0.794359368 15.3263455 0.794359368 15.3263455 9.34599989 0 9.34599989"></polygon>
        <polygon id="path-5" points="0.28018812 0.115663943 24.1718052 0.115663943 24.1718052 41.5553865 0.28018812 41.5553865"></polygon>
    </defs>
    <g id="AOIs" stroke="none" stroke-width="1" fill="none" fill-rule="evenodd">
        <g id="GFW---AOIs---Dashboard-pre---PUBLIC" transform="translate(-648.000000, -531.000000)">
            <g id="satellite-copy" transform="translate(648.000000, 531.000000)">
                <polygon id="Fill-1" fill="#C0B6B3" points="13 137 28 128.561573 23.6583538 128"></polygon>
                <g id="Group-169">
                    <path d="M28.2410073,52.7787001 L27.356358,50.8531516 C25.7230033,50.5346091 24.0328363,50.6632513 22.4603519,51.2207006 L13.5347279,54.387748 C12.9381983,54.6001096 12.3660169,54.8696456 11.8222417,55.1983978 L6.93840965,58.1469577 C6.15521099,58.6206875 5.44505677,59.2046821 4.83026612,59.8846478 L3.13807006,61.7530219 L3.91721069,63.4376216 L28.2410073,52.7787001 Z" id="Fill-2" fill="#C0B6B3"></path>
                    <path d="M37.0921666,61.8477679 L33.0260264,54.9460141 L32.273263,53.6228376 C31.9770272,53.1001013 31.4231069,52.7795168 30.8245484,52.7795168 L26.058399,52.7795168 C26.058399,52.7795168 10.4228321,56.8123464 3.91579038,63.4363965 C3.97666074,63.4363965 21.3186268,100.41387 21.3186268,100.41387 L26.9308742,96.6179052 L48.3166614,86.0957935 L37.0921666,61.8477679 Z" id="Fill-4" fill="#58320B"></path>
                    <polygon id="Fill-6" fill="#C0B6B3" points="38.3266176 105.350666 53.6436296 97.8220366 52.5053539 95.5963231 53.6436296 95.0490834 54.0027648 92.5701695 34.5546841 102.279589"></polygon>
                    <path d="M26.93128,96.6185178 L8.96640721,59.6390025 C8.96640721,59.6390025 4.99157258,61.8116256 3.91619618,63.437009 L21.3170036,100.41244 L26.93128,96.6185178 Z" id="Fill-8" fill="#714226"></path>
                    <polygon id="Fill-10" fill="#C0B6B3" points="5.65830594 65.2716912 7.29774769 68.8797974 15.4645212 64.4630834 13.8494276 60.7916771"></polygon>
                    <polygon id="Fill-12" fill="#C0B6B3" points="7.92511822 68.4999968 12.0541578 77.7438546 21.2110892 72.7268105 17.5304613 65.145091"></polygon>
                    <polygon id="Fill-14" fill="#6E6A67" points="7.29693608 68.8789807 9.85957832 69.2220264 17.9796846 64.9094513 15.4637096 64.4622666"></polygon>
                    <polygon id="Fill-16" fill="#797882" points="15.4645212 64.4620624 17.9784672 64.9092471 16.2355458 60.9744306 13.8494276 60.7906561"></polygon>
                    <polygon id="Fill-18" fill="#C0B6B3" points="13.8496305 80.8574032 20.1334809 77.4228618 24.3964352 85.9152861 17.9786701 89.4376309"></polygon>
                    <polygon id="Fill-20" fill="#6E6A67" points="17.978873 89.4378351 20.4907899 89.4378351 26.4621724 86.0951809 24.3966381 85.9134484"></polygon>
                    <polygon id="Fill-22" fill="#797882" points="20.1328722 77.4234744 24.3978556 85.9138568 26.4613608 86.0955893 22.0644917 77.603165"></polygon>
                    <polygon id="Fill-24" fill="#DCA42F" points="21.1652335 62.29434 24.1702004 69.4288748 31.2636266 66.6293765 28.479822 59.447877"></polygon>
                    <polygon id="Fill-26" fill="#9D7F69" points="31.9818968 73.19809 32.7001671 74.5988602 34.9868637 73.5595132 34.2848255 72.1567011"></polygon>
                    <polygon id="Fill-28" fill="#915C2E" points="31.9818968 73.19809 31.847982 74.3436178 32.5642233 75.7729751 32.7001671 74.5988602"></polygon>
                    <polygon id="Fill-30" fill="#62310C" points="32.6991526 74.5978392 34.9878782 73.5584923 34.8357023 74.7428169 32.5652378 75.7719541"></polygon>
                    <polygon id="Fill-32" fill="#9D7F69" points="33.7018904 76.344718 34.4201606 77.7454882 36.7068572 76.7061412 36.0068481 75.3033291"></polygon>
                    <polygon id="Fill-34" fill="#915C2E" points="33.7018904 76.3287909 33.5679756 77.4763606 34.2842168 78.903676 34.4201606 77.7295611"></polygon>
                    <polygon id="Fill-36" fill="#62310C" points="34.4191461 77.7285401 36.7078717 76.6891931 36.5556958 77.8755597 34.2852313 78.902655"></polygon>
                    <path d="M26.0573845,52.7787001 L43.803124,88.3166064 L48.3176759,86.0949767 L37.0911521,61.8469511 L37.3711558,60.8974495 C37.4847805,60.5156069 37.4584033,60.1072191 37.3001404,59.741712 L35.6444665,55.9518733 C35.3766369,55.3413335 34.7780784,54.9472393 34.1145914,54.9472393 L33.027041,54.9472393 L32.0429701,53.2197589 C31.8867362,52.9461391 31.5986165,52.7787001 31.2881776,52.7787001 L26.0573845,52.7787001 Z" id="Fill-38" fill="#714226"></path>
                    <path d="M35.1522282,102.279794 L38.3256031,105.35087 L42.5723253,115.107254 L44.6074244,123.356688 C44.6074244,123.356688 42.5723253,124.140793 39.999538,122.815574 L37.812263,118.360063 L34.8539634,105.171179 L35.1522282,102.279794 Z" id="Fill-40" fill="#C0B6B3"></path>
                    <polygon id="Fill-42" fill="#9D7F69" points="31.2508438 79.6030401 30.2992371 80.0543086 29.5058934 78.5575673 30.447355 78.1022149"></polygon>
                    <polygon id="Fill-44" fill="#915C2E" points="31.2567279 79.5950765 30.8630996 80.2607486 29.8993189 80.7263107 30.3051213 80.046345"></polygon>
                    <polygon id="Fill-46" fill="#62310C" points="30.3055271 80.0457325 29.5101543 78.5510331 29.110439 79.2432504 29.8997247 80.7256981"></polygon>
                    <polygon id="Fill-48" fill="#FCEEE4" points="32.5644262 103.543958 35.1514166 102.279998 38.3268205 116.13047 38.3268205 118.419484 39.9987264 122.815778 39.7390129 124.381946 36.0340368 117.061594"></polygon>
                    <polygon id="Fill-50" fill="#9D7F69" points="29.4971687 76.1672735 28.545562 76.618542 27.7522183 75.1218008 28.6936799 74.6664484"></polygon>
                    <polygon id="Fill-52" fill="#915C2E" points="29.5050818 76.15931 29.1114535 76.8249821 28.1476727 77.2905442 28.5534752 76.6105785"></polygon>
                    <polygon id="Fill-54" fill="#62310C" points="28.5540839 76.6099659 27.7566821 75.1152666 27.3569667 75.8074839 28.1482814 77.2899316"></polygon>
                    <polyline id="Fill-56" fill="#62310C" points="32.273263 80.5182371 32.273263 82.664315 33.7016875 85.1554806 34.9880811 84.538815 35.2498237 85.0145868 38.4739238 83.5382649 38.8695812 82.3376048"></polyline>
                    <polygon id="Fill-58" fill="#9D7F69" points="32.273263 80.5182371 36.7086833 78.549808 38.8695812 82.3376048 34.2840139 84.3366631"></polygon>
                    <polygon id="Fill-60" fill="#814D13" points="21.1652335 62.29434 17.7402612 56.6933013 24.6794824 54.0428645 28.479822 59.447877"></polygon>
                    <polygon id="Fill-62" fill="#DCA42F" points="32.273263 62.8507684 35.5704076 61.390782 40.4197464 62.8507684 43.3496398 68.8785723 41.4951228 73.5586965 38.5632004 75.114654"></polygon>
                    <polygon id="Fill-64" fill="#62310C" points="40.4189348 62.8507684 41.8534463 63.5593212 44.5459453 69.221618 42.4844691 74.4836948 41.4943112 73.5586965 43.3488282 68.8785723"></polygon>
                    <polygon id="Fill-66" fill="#8A571B" points="38.5623888 75.1144498 41.4943112 73.5584923 42.4844691 74.4834906 39.5342855 75.9332673"></polygon>
                    <polygon id="Fill-68" fill="#5F5A55" points="25.7721054 89.1227639 34.9878782 84.5386108 37.812263 89.8149812 28.4483723 94.407302"></polygon>
                    <polygon id="Fill-70" fill="#5F5A55" points="25.7721054 89.1227639 25.7721054 90.5071985 28.2414131 95.3241326 28.4483723 94.407302"></polygon>
                    <polygon id="Fill-72" fill="#6E6A67" points="28.448981 94.4070978 37.8108427 89.814777 37.6059125 90.6723914 28.2399928 95.3239284"></polygon>
                    <polygon id="Fill-74" fill="#6E6A67" points="12.0543607 77.7444672 13.8500363 77.7955157 22.6458036 73.1970691 21.2112921 72.7274231"></polygon>
                    <polygon id="Fill-76" fill="#797882" points="22.6453978 73.19809 18.8308552 65.1467246 17.9786701 64.9078177 17.5302584 65.1467246 21.2108863 72.7284441"></polygon>
                    <polygon id="Fill-78" fill="#5F5A55" points="32.5644262 103.543958 38.3268205 115.862976 34.039518 118.007012 28.4353867 106.425134"></polygon>
                    <polygon id="Fill-80" fill="#42210B" points="17.7392467 56.6930971 17.0270634 57.7569473 23.519902 70.8437344 24.1712149 69.4286706 21.164219 62.2941358"></polygon>
                    <path d="M21.3178152,100.413257 L19.1224242,102.279589 L1.92857597,68.4916248 C1.92857597,68.4916248 1.54915071,65.5655263 3.91700779,63.4378258 L21.3178152,100.413257 Z" id="Fill-82" fill="#714226"></path>
                    <polygon id="Fill-84" fill="#42210B" points="24.171012 69.4292832 31.2624092 66.6297849 31.073711 67.7589771 23.5196991 70.842305"></polygon>
                    <polygon id="Fill-86" fill="#C0B6B3" points="3.57187284 66.6295807 10.0789145 80.5188497 7.92613272 82.8364505 1.43532313 69.0533623"></polygon>
                    <polygon id="Fill-88" fill="#6E6A67" points="7.92511822 82.8374715 10.079929 82.8374715 12.0541578 80.6771 10.079929 80.5178288"></polygon>
                    <polygon id="Fill-90" fill="#797882" points="12.0543607 80.6779168 5.43978134 66.6293765 3.57106123 66.6293765 10.0781029 80.5186455"></polygon>
                    <polygon id="Fill-92" fill="#6E6A67" points="12.8925455 84.5384066 11.6954284 85.6594312 16.3033148 94.6929693 17.0276721 93.0675858"></polygon>
                    <polygon id="Fill-94" fill="#797882" points="11.6958342 85.6590228 9.98943509 86.5615598 14.5668863 95.5950979 16.3037206 94.6925609"></polygon>
                    <polygon id="Fill-96" fill="#C0B6B3" points="9.98963799 86.5623766 9.19629427 88.7717546 13.7108461 97.2049626 14.5670892 95.5959147"></polygon>
                    <polygon id="Fill-98" fill="#6E6A67" points="13.7108461 97.2047584 15.6140594 95.9857209 16.3018945 94.6931735 14.5670892 95.5957105"></polygon>
                    <polygon id="Fill-100" fill="#C0B6B3" points="12.8925455 84.5384066 13.7102374 84.2484513 17.7560875 92.8470564 17.0276721 93.0675858"></polygon>
                    <path d="M48.3170672,86.0957935 L53.5214831,84.5377941 L54.002359,85.9140609 L52.5658184,86.5633975 L24.3970439,100.41387 L21.1648277,103.064307 C21.1648277,103.064307 26.0669209,107.444266 28.3455014,106.239522 L31.5838047,112.93504 L26.0263406,116.39 L28.2197027,121.231438 L27.3918658,122.815983 L25.7727141,123.598045 L16.3033148,104.068941 L19.1216126,102.280202 L21.3170036,100.41387 L26.93128,96.6179052 L48.3170672,86.0957935 Z" id="Fill-102" fill="#6E6A67"></path>
                    <path d="M21.1652335,103.06349 L24.3974497,100.413053 C24.3974497,100.413053 28.8389572,104.145717 32.5642233,103.543345 C32.6514708,103.622981 30.4357896,105.129932 28.8775084,106.169279 C27.8731474,106.843119 26.6009568,106.955426 25.4931163,106.473528 C24.0301986,105.834401 22.1046661,104.729712 21.1652335,103.06349" id="Fill-104" fill="#C0B6B3"></path>
                    <path d="M24.396841,100.413257 L52.9247506,86.4014718 L54.7163683,89.4235415 C55.4934799,90.7508019 54.9841979,92.4619467 53.6085277,93.1398705 L32.5636146,103.54355 C32.5636146,103.54355 29.0189305,104.748294 24.396841,100.413257" id="Fill-106" fill="#FCEEE4"></path>
                    <path d="M38.3266176,105.350666 L53.6436296,97.8220366 L55.4535084,101.495485 C56.9468613,104.52368 57.2816483,107.994977 56.39497,111.253911 L55.6259744,114.737459 C55.2039399,116.656882 54.1468246,118.390488 52.5905724,119.580939 C50.8841732,120.883696 48.2626896,122.421276 44.6084389,123.356484 L42.5733398,115.10705 L38.3266176,105.350666 Z" id="Fill-108" fill="#FCEEE4"></path>
                    <polygon id="Fill-110" fill="#5F5A55" points="15.3257368 102.038436 28.4493868 129.018576 23.9043998 128.475421 12.2355514 104.32745"></polygon>
                    <polygon id="Fill-112" fill="#B3AAA8" points="12.2347398 104.327654 9.60108218 106.496193 21.1644219 130.57678 24.3966381 131.095433 28.4485752 129.018781 23.9035882 128.475625"></polygon>
                    <polygon id="Fill-114" fill="#C0B6B3" points="36.3966213 57.6740446 40.9761015 33.9548812 50.1837583 74.4832864"></polygon>
                    <g id="Group-118" transform="translate(0.000000, 106.180828)">
                        <mask id="mask-2" fill="white">
                            <use xlink:href="#path-1"></use>
                        </mask>
                        <g id="Clip-117"></g>
                        <polygon id="Fill-116" fill="#C0B6B3" mask="url(#mask-2)" points="9.75386679 0.314344608 -0.00162320965 4.41047424 12.7466596 30.9679328 21.2928584 24.4153506"></polygon>
                    </g>
                    <g id="Group-121" transform="translate(0.000000, 101.245098)">
                        <mask id="mask-4" fill="white">
                            <use xlink:href="#path-3"></use>
                        </mask>
                        <g id="Clip-120"></g>
                        <polygon id="Fill-119" fill="#5F5A55" mask="url(#mask-4)" points="-0.000811604825 9.34599989 15.3263455 0.794359368 9.75467839 5.24987026"></polygon>
                    </g>
                    <path d="M43.3496398,75.6408617 L49.095802,74.5974308 L49.9926253,73.9154232 L50.8711875,76.5250212 C51.0253925,76.9803736 50.8732166,77.4867745 50.4917623,77.7808137 L46.0502549,81.2010615 L45.8311216,80.7252898 L49.3433415,77.8665752 C49.773492,77.5174036 49.9500161,76.9436187 49.7937821,76.4106727 C49.598997,75.7531683 48.9517421,75.3406966 48.2781101,75.4448355 L43.71892,76.1595142 L43.3496398,75.6408617 Z" id="Fill-122" fill="#714226"></path>
                    <path d="M36.8503084,60.3941115 L40.5167332,57.498642 L41.3952954,57.3209934 L40.31789,55.4117804 C40.1271629,55.0769024 39.7477376,54.8992537 39.3703414,54.9727635 L34.9876753,55.8242521 L35.1520253,56.2060947 L38.7109124,55.6159743 C39.145121,55.5424645 39.5813586,55.7425745 39.812666,56.1182913 C40.0987567,56.5838534 39.9993351,57.1923512 39.5793296,57.5394808 L36.7366837,59.8979204 L36.8503084,60.3941115 Z" id="Fill-124" fill="#714226"></path>
                    <polygon id="Fill-126" fill="#C0B6B3" points="31.4687597 112.69695 37.8114514 125.706143 32.5664552 130.825284 26.0249203 116.390817"></polygon>
                    <polygon id="Fill-128" fill="#5F5A55" points="32.5664552 130.82508 37.8114514 125.705939 40.8955497 126.790208"></polygon>
                    <polygon id="Fill-130" fill="#7481AB" points="41.3959041 34.1999139 66.3588395 26.3404907 73.1803781 64.4614498 50.1835554 74.4853284"></polygon>
                    <path d="M41.8179386,34.4469885 L50.4412399,73.9789275 L72.7766047,64.2429624 L66.0768068,26.8101367 L41.8179386,34.4469885 Z M49.9278998,74.9896873 L40.9758986,33.9548812 L66.6388432,25.8749286 L73.5841515,64.6799373 L49.9278998,74.9896873 Z" id="Fill-132" fill="#5C6894"></path>
                    <polygon id="Fill-134" fill="#6E6A67" points="40.8965642 126.791025 34.8521373 114.18001 31.4697742 112.697562 37.8104369 125.706756"></polygon>
                    <polygon id="Fill-136" fill="#5E6DA1" points="67.7056977 25.8904473 74.6165128 63.7684157 102.442384 52.3580606 97.7736275 16.1340628"></polygon>
                    <path d="M68.1157611,26.1356842 L74.8906323,63.2663029 L102.050988,52.1275257 L97.4755656,16.6120807 L68.1157611,26.1356842 Z M74.3427991,64.2709369 L67.2960402,25.6435769 L98.0761532,15.6564533 L102.834186,52.586962 L74.3427991,64.2709369 Z" id="Fill-138" fill="#4E5A81"></path>
                    <polygon id="Fill-140" fill="#5E6DA1" points="99.1217031 15.6827943 124.433629 7.82337108 127.753092 41.6072518 103.609878 51.9945955"></polygon>
                    <path d="M99.5139111,15.9380367 L103.906722,51.473901 L127.370218,41.3805966 L124.11974,8.29914286 L99.5139111,15.9380367 Z M103.312222,52.5173319 L98.7266545,15.4275519 L124.748734,7.34759929 L128.137184,41.835949 L103.312222,52.5173319 Z" id="Fill-142" fill="#4E5A81"></path>
                    <polygon id="Fill-144" fill="#5E6DA1" points="126.140839 7.28777048 129.162038 41.0226447 149.277664 32.1259164 147.591555 0.598378322"></polygon>
                    <g id="Group-148" transform="translate(125.475951, 0.000000)">
                        <mask id="mask-6" fill="white">
                            <use xlink:href="#path-5"></use>
                        </mask>
                        <g id="Clip-147"></g>
                        <path d="M1.04715468,7.5448506 L3.99936723,40.4894944 L23.4291867,31.8970151 L21.781629,1.08007173 L1.04715468,7.5448506 Z M3.3724025,41.5553865 L0.28018812,7.02824003 L22.4491739,0.114234586 L24.1718052,32.3564514 L3.3724025,41.5553865 Z" id="Fill-146" fill="#4E5A81" mask="url(#mask-6)"></path>
                    </g>
                    <polygon id="Fill-149" fill="#C0B6B3" points="68.4724614 45.2449661 68.8214515 47.0847532 72.3965707 45.8289607 72.1206251 44.0177608"></polygon>
                    <polygon id="Fill-151" fill="#C0B6B3" points="70.4341102 55.9951624 70.7810713 57.8349494 74.3561906 56.577115 74.0802449 54.767957"></polygon>
                    <polygon id="Fill-153" fill="#C0B6B3" points="66.1382859 32.8697948 66.487276 34.7095819 70.0623952 33.4537894 69.7864496 31.6425895"></polygon>
                    <polygon id="Fill-155" fill="#C0B6B3" points="99.0224844 34.497016 99.3694455 36.3368031 102.944565 35.0789686 102.668619 33.2677687"></polygon>
                    <polygon id="Fill-157" fill="#C0B6B3" points="124.96178 24.6062719 125.31077 26.444017 128.88589 25.1882245 128.609944 23.3770246"></polygon>
                    <polygon id="Fill-159" fill="#C0B6B3" points="100.054846 44.5690843 100.401807 46.4088714 103.976926 45.1510369 103.70098 43.339837"></polygon>
                    <polygon id="Fill-161" fill="#C0B6B3" points="125.794081 33.8648317 126.141042 35.7046187 129.716161 34.4467843 129.440216 32.6355844"></polygon>
                    <polygon id="Fill-163" fill="#C0B6B3" points="97.3759411 22.8894096 97.7229022 24.7291966 101.298021 23.4713622 101.022076 21.6601623"></polygon>
                    <polygon id="Fill-165" fill="#C0B6B3" points="123.832432 13.6747515 124.181422 15.5145385 127.754513 14.258746 127.480596 12.4475461"></polygon>
                    <polygon id="Fill-167" fill="#6E6A67" points="24.396841 131.096249 28.4487781 129.017555 23.9037911 128.476442 21.2924526 130.595974"></polygon>
                </g>
            </g>
        </g>
    </g>
</svg>