<!-- Generated by IcoMoon.io -->
<svg version="1.1" xmlns="http://www.w3.org/2000/svg" width="34" height="32" viewBox="0 0 34 32">
<title>satellite</title>
<path d="M22.517 17.633l3.394-3.394 6.788 6.788-3.394 3.394-6.788-6.788zM8.94 4.055l3.394-3.394 6.788 6.788-3.394 3.394-6.788-6.788zM14.597 14.239l7.92-7.92 4.525 4.525-7.92 7.92-4.525-4.525zM7.68 14.294h3.2c0 4.188 3.395 7.583 7.583 7.583v3.2c-5.955 0-10.783-4.828-10.783-10.783zM1.12 14.295h3.2c0 7.811 6.332 14.143 14.143 14.143v3.2c-9.578 0-17.343-7.765-17.343-17.343z"></path>
</svg>
