<!-- Generated by IcoMoon.io -->
<svg version="1.1" xmlns="http://www.w3.org/2000/svg" width="34" height="32" viewBox="0 0 34 32">
<title>save-area</title>
<path d="M29.714 18.286v4.571h4.571v4.571h-4.571v4.571h-4.571v-4.571h-4.571v-4.571h4.571v-4.571h4.571zM13.715 16.398c1.944 0 3.792 0.299 5.466 0.836-1.971 2.052-3.182 4.839-3.182 7.908 0 0.455 0.027 0.904 0.078 1.346l-16.078-0.001 3.262-6.522c2.515-2.18 6.261-3.567 10.453-3.567zM13.699 0c3.314 0 6.001 3.183 6.001 7.107s-2.687 7.107-6.001 7.107c-3.314 0-5.999-3.183-5.999-7.107s2.685-7.107 5.999-7.107z"></path>
</svg>
