<!-- Generated by IcoMoon.io -->
<svg version="1.1" xmlns="http://www.w3.org/2000/svg" width="30" height="32" viewBox="0 0 30 32">
<title>search</title>
<path d="M18.008 16.368c0.565-0.748 0.878-1.621 0.878-2.619 0-2.432-1.945-4.427-4.392-4.427s-4.455 1.995-4.455 4.427c0 2.432 2.008 4.427 4.455 4.427 1.004 0 1.945-0.312 2.635-0.873l1.882 1.871c0.125 0.125 0.314 0.187 0.439 0.187s0.314-0.062 0.439-0.187c0.251-0.249 0.251-0.624 0-0.873l-1.882-1.933zM14.494 16.867c-1.757 0-3.2-1.372-3.2-3.118s1.443-3.18 3.2-3.18c1.757 0 3.2 1.434 3.2 3.18s-1.443 3.118-3.2 3.118z"></path>
</svg>
