<!-- Generated by IcoMoon.io -->
<svg version="1.1" xmlns="http://www.w3.org/2000/svg" width="32" height="32" viewBox="0 0 32 32">
<title>settings</title>
<path fill="#aaa" d="M17.693 2.095c-1.18-0.127-2.206-0.127-3.386 0l-1.154 4.97c-0.513 0.178-0.975 0.355-1.462 0.609l-4.335-2.688c-0.923 0.735-1.642 1.445-2.36 2.384l2.668 4.311c-0.257 0.507-0.436 0.938-0.59 1.471l-4.977 1.166c-0.128 1.166-0.128 2.206 0 3.372l4.977 1.141c0.154 0.532 0.333 0.989 0.59 1.471l-2.668 4.336c0.718 0.913 1.437 1.648 2.36 2.384l4.335-2.688c0.487 0.254 0.949 0.431 1.462 0.609l1.154 4.945c1.18 0.152 2.206 0.152 3.386 0l1.154-4.945c0.513-0.177 0.975-0.355 1.462-0.609l4.335 2.688c0.924-0.735 1.642-1.471 2.36-2.384l-2.668-4.336c0.257-0.482 0.436-0.938 0.59-1.471l4.977-1.141c0.128-1.166 0.128-2.206 0-3.372l-4.977-1.166c-0.154-0.533-0.334-0.964-0.59-1.471l2.668-4.311c-0.718-0.938-1.437-1.648-2.36-2.384l-4.335 2.688c-0.487-0.254-0.949-0.431-1.462-0.609l-1.154-4.97zM16 12c2.198 0 4 1.787 4 3.989 0 2.223-1.802 4.011-4 4.011s-4-1.787-4-4.011c0-2.202 1.802-3.989 4-3.989v0 0z"></path>
</svg>
