<!-- Generated by IcoMoon.io -->
<svg version="1.1" xmlns="http://www.w3.org/2000/svg" width="32" height="32" viewBox="0 0 32 32">
<title>settings</title>
<path d="M31.2 17.867c0.267-1.333 0.267-2.4 0-3.733l-5.333-1.333c-0.267-0.8-0.533-1.067-0.8-1.6l2.933-4.8c-0.8-1.067-1.6-1.867-2.667-2.667l-4.8 2.933c-0.533-0.267-1.067-0.533-1.6-0.8l-1.333-5.6c-1.333-0.267-2.4-0.267-3.733 0l-1.067 5.6c-0.533 0.267-1.067 0.533-1.6 0.8l-4.8-3.2c-1.067 0.8-1.867 1.6-2.667 2.667l2.933 4.8c-0.267 0.8-0.533 1.067-0.533 1.867l-5.333 1.333c-0.267 1.333-0.267 2.4 0 3.733l5.333 1.333c0.267 0.533 0.267 1.067 0.533 1.6l-2.933 4.8c0.8 1.067 1.6 1.867 2.667 2.667l4.8-2.933c0.533 0.267 1.067 0.533 1.6 0.8l1.333 5.6c1.333 0.267 2.4 0.267 3.733 0l1.333-5.6c0.533-0.267 1.067-0.267 1.6-0.8l4.8 2.933c1.067-0.8 1.867-1.6 2.667-2.667l-3.2-4.8c0.267-0.533 0.533-1.067 0.533-1.6l5.6-1.333zM16 20.533c-2.667 0-4.533-2.133-4.533-4.533 0-2.667 1.867-4.533 4.533-4.533 2.4 0 4.267 1.867 4.267 4.533 0 2.4-1.867 4.533-4.267 4.533z"></path>
</svg>
