<svg xmlns="http://www.w3.org/2000/svg" width="11" height="10"><path d="M7.756 3.12l.12.11c.314.287.723.449 1.16.449a1.71 1.71 0 0 0 1.714-1.715A1.71 1.71 0 0 0 9.036.25 1.71 1.71 0 0 0 7.32 1.964l.002.175-4.079 1.813-.12-.11a1.707 1.707 0 0 0-1.16-.45A1.71 1.71 0 0 0 .25 5.108c0 .95.764 1.714 1.714 1.714a1.71 1.71 0 0 0 1.16-.448l.12-.11 4.079 1.812-.002.163c0 .962.764 1.726 1.715 1.726A1.71 1.71 0 0 0 10.75 8.25a1.71 1.71 0 0 0-1.714-1.714 1.71 1.71 0 0 0-1.16.448l-.12.111-4.079-1.813.002-.163-.002-.187 4.079-1.813z"/></svg>