<!-- Generated by IcoMoon.io -->
<svg version="1.1" xmlns="http://www.w3.org/2000/svg" width="32" height="32" viewBox="0 0 32 32">
<title>share</title>
<path d="M22.563 10.531l0.349 0.32c0.913 0.835 2.103 1.306 3.375 1.306 0.003 0 0.008 0 0.012 0 2.747 0 4.975-2.227 4.975-4.975 0-0.005 0-0.010-0-0.015v0.001c0-0.003 0-0.008 0-0.012 0-2.747-2.227-4.975-4.975-4.975-0.004 0-0.008 0-0.012 0h0.001c-0.005-0-0.011-0-0.017-0-2.747 0-4.975 2.227-4.975 4.975 0 0.004 0 0.008 0 0.012v-0.001l0.006 0.509-11.866 5.274-0.349-0.32c-0.881-0.812-2.062-1.309-3.36-1.309-0.005 0-0.010 0-0.016 0h0.001c-0.003 0-0.006 0-0.009 0-2.747 0-4.975 2.227-4.975 4.975 0 0.006 0 0.012 0 0.018v-0.001c0 2.764 2.223 4.986 4.986 4.986 0.005 0 0.011 0 0.018 0 1.295 0 2.475-0.495 3.361-1.307l-0.004 0.003 0.349-0.32 11.866 5.271-0.006 0.474c0 2.799 2.223 5.021 4.989 5.021 0.003 0 0.008 0 0.012 0 2.747 0 4.975-2.227 4.975-4.975 0-0.005 0-0.010-0-0.015v0.001c0-0.003 0-0.008 0-0.012 0-2.747-2.227-4.975-4.975-4.975-0.004 0-0.008 0-0.012 0h0.001c-0.005-0-0.012-0-0.018-0-1.295 0-2.475 0.495-3.361 1.307l0.004-0.003-0.349 0.323-11.866-5.274 0.006-0.474-0.006-0.544 11.866-5.274z"></path>
</svg>
