<!-- Generated by IcoMoon.io -->
<svg version="1.1" xmlns="http://www.w3.org/2000/svg" width="32" height="32" viewBox="0 0 32 32">
<title>share</title>
<path d="M27.2 22.4c-1.6 0-3.2 0.96-4.16 2.24l-13.76-8.32c0-0.64 0.32-0.96 0.32-1.6l14.72-6.080c0.64 0.64 1.6 0.96 2.88 0.96 2.56 0 4.8-2.24 4.8-4.8s-2.24-4.8-4.8-4.8-4.8 2.24-4.8 4.8c0 0.32 0 0.64 0 0.96l-13.76 5.76c-0.96-0.96-2.24-1.92-3.84-1.92-2.56 0-4.8 2.24-4.8 4.8s2.24 4.8 4.8 4.8c0.96 0 1.6-0.32 2.24-0.64l15.36 9.6c0.32 2.24 2.56 3.84 4.8 3.84 2.56 0 4.8-2.24 4.8-4.8s-2.24-4.8-4.8-4.8z"></path>
</svg>
