<!-- Generated by IcoMoon.io -->
<svg version="1.1" xmlns="http://www.w3.org/2000/svg" width="32" height="32" viewBox="0 0 32 32">
<title>share</title>
<path fill="#4a4a4a" d="M3 15.3c0 2.702 2.148 4.9 4.789 4.9 1.245 0 2.371-0.501 3.225-1.302l8.566 5.008c-0.101 0.39-0.155 0.791-0.16 1.194 0 2.702 2.148 4.9 4.789 4.9s4.789-2.198 4.789-4.9c0-2.702-2.148-4.9-4.789-4.9-1.245 0-2.371 0.501-3.225 1.302l-8.566-5.008c0.086-0.346 0.141-0.703 0.148-1.075l8.417-4.921c0.855 0.801 1.981 1.302 3.227 1.302 2.641 0 4.789-2.198 4.789-4.9s-2.148-4.9-4.789-4.9c-2.641 0-4.789 2.198-4.789 4.9 0 0.414 0.066 0.809 0.16 1.194l-7.778 4.549c-0.879-1.396-2.39-2.24-4.014-2.243-2.641 0-4.789 2.198-4.789 4.9z"></path>
</svg>
