<!-- Generated by IcoMoon.io -->
<svg version="1.1" xmlns="http://www.w3.org/2000/svg" width="57" height="32" viewBox="0 0 57 32">
<title>truck</title>
<path fill="#7f7f7f" d="M3.038 25.143h53.263v-9.143h-39.368v-16h-6.692c-1.596 0-3.077 0.833-3.906 2.197l-5.612 9.232v13.714h2.316zM53.985 9.143h-34.737v4.571h34.737v-4.571zM14.025 3.23v7.082h-9.405l3.933-6.043c0.422-0.648 1.143-1.039 1.916-1.039h3.556z"></path>
<path fill="#7f7f7f" stroke="#fff" stroke-width="2.2857" stroke-miterlimit="4" stroke-linecap="butt" stroke-linejoin="miter" d="M42.406 25.143c0 2.525 2.074 4.571 4.632 4.571s4.632-2.047 4.632-4.571c0-2.525-2.074-4.571-4.632-4.571s-4.632 2.047-4.632 4.571z"></path>
<path fill="#7f7f7f" stroke="#fff" stroke-width="2.2857" stroke-miterlimit="4" stroke-linecap="butt" stroke-linejoin="miter" d="M5.353 25.143c0 2.525 2.074 4.571 4.632 4.571s4.632-2.047 4.632-4.571c0-2.525-2.074-4.571-4.632-4.571s-4.632 2.047-4.632 4.571z"></path>
</svg>
