<!-- Generated by IcoMoon.io -->
<svg version="1.1" xmlns="http://www.w3.org/2000/svg" width="32" height="32" viewBox="0 0 32 32">
<title>visible</title>
<path fill="#aaa" d="M11.789 16c0 2.341 1.875 4.231 4.211 4.231s4.211-1.889 4.211-4.231c0-2.341-1.875-4.231-4.211-4.231s-4.211 1.889-4.211 4.231v0zM32 16c-3.065-5.463-9.078-11-16-11-6.905 0-12.935 5.537-16 11 3.065 5.463 9.095 11 16 11 6.922 0 12.935-5.537 16-11v0zM16 8.385c4.181 0 7.579 3.409 7.579 7.615s-3.398 7.615-7.579 7.615c-4.181 0-7.579-3.409-7.579-7.615s3.398-7.615 7.579-7.615z"></path>
</svg>
