<!-- Generated by IcoMoon.io -->
<svg version="1.1" xmlns="http://www.w3.org/2000/svg" width="32" height="32" viewBox="0 0 32 32">
<title>world</title>
<path d="M14.157 25.76c-1.804-0.303-3.394-1.196-4.74-2.309l0.645-3.232h0.549c0.828 0 1.595-0.375 2.103-1.026 0.508-0.652 0.684-1.488 0.485-2.288l-0.889-3.556c-0.299-1.189-1.362-2.020-2.588-2.020h-3.796c1.488-4.388 5.636-7.556 10.517-7.556 2.491 0 4.784 0.834 6.638 2.222h-0.805c-1.227 0-2.29 0.83-2.587 2.020l-0.889 3.556c-0.201 0.8-0.025 1.636 0.484 2.288 0.508 0.651 1.275 1.026 2.103 1.026h1.118l0.45 2.702c0.149 0.896 0.503 1.716 1.004 2.439 0.126 0.183 0.37 0.245 0.569 0.142 1.438-0.741 3.122-0.676 4.446 0.155 0.219 0.133 0.482 0.165 0.724 0.082 0.24-0.082 0.432-0.27 0.519-0.508 0.578-1.58 0.892-3.266 0.892-5.012 0-8.087-6.58-14.667-14.667-14.667s-14.667 6.58-14.667 14.667c0 6.907 4.9 12.942 11.65 14.354 0.862 0.183 1.649 0.257 1.869-0.794 0.277-1.616-0.103-2.511-1.14-2.686z"></path>
<path d="M16 32c-8.837 0-16-7.163-16-16s7.163-16 16-16c8.837 0 16 7.163 16 16s-7.163 16-16 16zM16 28.444c6.873 0 12.444-5.572 12.444-12.444s-5.572-12.444-12.444-12.444c-6.873 0-12.444 5.572-12.444 12.444s5.572 12.444 12.444 12.444z"></path>
</svg>
