<svg height="32" viewBox="0 0 32 32" width="32" xmlns="http://www.w3.org/2000/svg"><path d="m16 2.881c4.275 0 4.781.019 6.462.094 1.563.069 2.406.331 2.969.55.744.288 1.281.638 1.837 1.194.563.563.906 1.094 1.2 1.838.219.563.481 1.412.55 2.969.075 1.688.094 2.194.094 6.463s-.019 4.781-.094 6.463c-.069 1.563-.331 2.406-.55 2.969-.288.744-.637 1.281-1.194 1.837-.563.563-1.094.906-1.837 1.2-.563.219-1.413.481-2.969.55-1.688.075-2.194.094-6.463.094s-4.781-.019-6.463-.094c-1.563-.069-2.406-.331-2.969-.55-.744-.288-1.281-.637-1.838-1.194-.563-.563-.906-1.094-1.2-1.837-.219-.563-.481-1.413-.55-2.969-.075-1.688-.094-2.194-.094-6.463s.019-4.781.094-6.463c.069-1.563.331-2.406.55-2.969.288-.744.638-1.281 1.194-1.838.563-.563 1.094-.906 1.838-1.2.563-.219 1.412-.481 2.969-.55 1.681-.075 2.188-.094 6.463-.094zm0-2.881c-4.344 0-4.887.019-6.594.094-1.7.075-2.869.35-3.881.744-1.056.412-1.95.956-2.837 1.85-.894.888-1.438 1.781-1.85 2.831-.394 1.019-.669 2.181-.744 3.881-.075 1.713-.094 2.256-.094 6.6s.019 4.887.094 6.594c.075 1.7.35 2.869.744 3.881.413 1.056.956 1.95 1.85 2.837.887.887 1.781 1.438 2.831 1.844 1.019.394 2.181.669 3.881.744 1.706.075 2.25.094 6.594.094s4.888-.019 6.594-.094c1.7-.075 2.869-.35 3.881-.744 1.05-.406 1.944-.956 2.831-1.844s1.438-1.781 1.844-2.831c.394-1.019.669-2.181.744-3.881.075-1.706.094-2.25.094-6.594s-.019-4.887-.094-6.594c-.075-1.7-.35-2.869-.744-3.881-.394-1.063-.938-1.956-1.831-2.844-.887-.887-1.781-1.438-2.831-1.844-1.019-.394-2.181-.669-3.881-.744-1.712-.081-2.256-.1-6.6-.1z"/><path d="m16 7.781c-4.537 0-8.219 3.681-8.219 8.219s3.681 8.219 8.219 8.219 8.219-3.681 8.219-8.219c0-4.537-3.681-8.219-8.219-8.219zm0 13.55c-2.944 0-5.331-2.387-5.331-5.331s2.387-5.331 5.331-5.331 5.331 2.387 5.331 5.331-2.387 5.331-5.331 5.331z"/><path d="m26.462 7.456c0 1.06-.859 1.919-1.919 1.919s-1.919-.859-1.919-1.919.859-1.919 1.919-1.919 1.919.859 1.919 1.919z"/></svg>