<?xml version="1.0" standalone="no"?>
<!DOCTYPE svg PUBLIC "-//W3C//DTD SVG 20010904//EN"
 "http://www.w3.org/TR/2001/REC-SVG-20010904/DTD/svg10.dtd">
<svg version="1.0" xmlns="http://www.w3.org/2000/svg"
 width="180.000000pt" height="180.000000pt" viewBox="0 0 180.000000 180.000000"
 preserveAspectRatio="xMidYMid meet">
<metadata>
Created by potrace 1.11, written by Peter Selinger 2001-2013
</metadata>
<g transform="translate(0.000000,180.000000) scale(0.100000,-0.100000)"
fill="#000000" stroke="none">
<path d="M270 885 l0 -155 30 0 30 0 0 65 0 65 45 0 c41 0 45 2 45 25 0 23 -4
25 -45 25 -45 0 -45 0 -45 35 l0 35 55 0 c54 0 55 0 55 30 l0 30 -85 0 -85 0
0 -155z"/>
<path d="M507 1029 c-30 -17 -47 -73 -47 -149 0 -108 36 -160 112 -160 81 0
127 89 108 207 -10 61 -23 89 -50 103 -24 13 -100 12 -123 -1z m87 -52 c24
-17 33 -131 14 -167 -15 -28 -42 -37 -63 -20 -31 26 -30 154 2 185 18 18 24
19 47 2z"/>
<path d="M712 883 l3 -158 30 0 c30 0 30 0 33 63 3 53 6 63 20 60 9 -2 31 -29
47 -61 30 -57 57 -76 90 -63 13 5 11 15 -15 65 -16 33 -34 62 -40 66 -5 3 2
16 17 29 39 34 39 98 0 132 -25 21 -38 24 -108 24 l-80 0 3 -157z m132 91 c21
-8 21 -50 0 -58 -9 -3 -27 -6 -40 -6 -21 0 -24 5 -24 35 0 30 3 35 24 35 13 0
31 -3 40 -6z"/>
<path d="M960 885 l0 -155 85 0 c84 0 85 0 85 25 0 23 -3 25 -50 25 l-50 0 0
40 0 40 45 0 c43 0 45 1 45 30 0 29 -2 30 -45 30 -43 0 -45 1 -45 30 0 29 1
30 50 30 49 0 50 1 50 30 l0 30 -85 0 -85 0 0 -155z"/>
<path d="M1180 1015 c-27 -29 -32 -83 -10 -110 8 -9 35 -27 61 -40 25 -13 49
-31 52 -40 19 -47 -45 -65 -65 -17 -7 15 -13 28 -14 30 -1 2 -13 0 -28 -4 -36
-9 -35 -47 3 -85 23 -23 38 -29 71 -29 79 0 128 86 84 148 -8 12 -38 34 -65
48 -40 20 -50 29 -47 47 4 32 35 34 50 2 15 -34 61 -32 66 3 10 66 -108 100
-158 47z"/>
<path d="M1360 1010 c0 -28 3 -30 35 -30 l35 0 0 -125 0 -125 30 0 30 0 0 125
0 125 35 0 c32 0 35 2 35 30 l0 30 -100 0 -100 0 0 -30z"/>
</g>
</svg>
