<!-- Generated by IcoMoon.io -->
<svg version="1.1" xmlns="http://www.w3.org/2000/svg" width="18" height="32" viewBox="0 0 18 32">
<title>climate-leaf</title>
<path fill="#fff" d="M17.799 21.49c0 0-0.597 0.89-1.386 1.155-1.582 0.532-4.002 0.090-5.556 0.451-2.588 0.601-4.287 4.263-4.287 4.263 0.664 0.54 1.405-1.113 2.803-1.964 2.516-1.531 6.209-1.271 6.209-1.271s-0.851 0.508-2.653 0.785c-1.802 0.277-3.632 1.248-5.512 2.958s-2.279 2.218-2.279 2.218c0 0-0.693-2.403-0.093-4.067s3.836-3.374 6.609-5.73c2.773-2.357 4.252-7.348 2.264-14.188-1.289-4.438-4.205-6.1-4.205-6.1s0.039 1.329-0.832 3.328c-2.496 5.731-7.857 6.146-8.827 13.818-0.432 3.413 1.941 7.302 1.941 7.302 0.706-0.18-0.665-3.651 1.618-9.104 1.203-2.874 2.819-4.113 4.668-6.239s2.218-4.39 2.218-4.39c0 0 0.601 0.739 0.093 2.727-0.489 1.912-4.589 6.16-5.777 8.919-1.433 3.327-1.433 4.991-1.34 8.226 0.090 3.144 1.248 7.024 1.248 7.024l0.97-0.323c0 0 0.093-0.924 1.155-1.796s3.343-0.192 4.437-0.006c1.31 0.223 2.68 0.231 4.853-2.172s1.664-5.823 1.664-5.823z"></path>
</svg>
