<svg xmlns="http://www.w3.org/2000/svg" xmlns:xlink="http://www.w3.org/1999/xlink" viewBox="0 0 283.23 278.29"><defs><style>.cls-1{fill:#efdf9e;}.cls-2{fill:#305636;}.cls-3{fill:#3a6843;}.cls-4{fill:#274435;opacity:0.7;}.cls-5{fill:#d7d9b0;}.cls-20,.cls-5{opacity:0.4;}.cls-6{fill:#c68477;}.cls-7{fill:#d58f7e;}.cls-8{fill:#eab988;}.cls-9{fill:#f6eed3;}.cls-10{fill:#463c56;}.cls-11{fill:#605772;}.cls-12{fill:#564f66;}.cls-13{fill:#b3bce5;}.cls-14{fill:#abb4d8;}.cls-15{fill:#8b9faf;}.cls-16{fill:#cc8a81;}.cls-17{fill:#80929e;}.cls-18{fill:#e59989;}.cls-19{fill:url(#Degradado_sin_nombre_193);}.cls-20{fill:#4b774e;}.cls-21{fill:url(#Degradado_sin_nombre_193-2);}.cls-22{fill:url(#Degradado_sin_nombre_193-3);}.cls-23{fill:url(#Degradado_sin_nombre_193-4);}</style><linearGradient id="Degradado_sin_nombre_193" x1="99.67" y1="153.69" x2="115.2" y2="153.69" gradientUnits="userSpaceOnUse"><stop offset="0" stop-color="#6faa76"/><stop offset="0.05" stop-color="#69a672"/><stop offset="0.2" stop-color="#5e9d6b"/><stop offset="0.41" stop-color="#579766"/><stop offset="1" stop-color="#559665"/></linearGradient><linearGradient id="Degradado_sin_nombre_193-2" x1="82.48" y1="163.32" x2="109.6" y2="163.32" xlink:href="#Degradado_sin_nombre_193"/><linearGradient id="Degradado_sin_nombre_193-3" x1="66.37" y1="171.48" x2="109.54" y2="171.48" xlink:href="#Degradado_sin_nombre_193"/><linearGradient id="Degradado_sin_nombre_193-4" x1="109.54" y1="170.07" x2="150.46" y2="170.07" xlink:href="#Degradado_sin_nombre_193"/></defs><title>Recurso 1</title><g id="Capa_2" data-name="Capa 2"><g id="Capa_1-2" data-name="Capa 1"><path class="cls-1" d="M30.28,166v35.48c0,20.5,11.52,38,29.09,48.56l2.94,1.76a185.67,185.67,0,0,0,194.87-2.29h0a56,56,0,0,0,26-47.29V157.77Z"/><path class="cls-2" d="M283.22,167.39c0,36.22-57,65.66-126.75,65.64S30.27,203.64,30.28,167.42c0-3.53.77-9.65.77-9.65,9.57-31.29,62.54-55.92,125.45-55.9,66.62,0,122,26.21,126.72,60.21Z"/><ellipse class="cls-3" cx="157.02" cy="161.45" rx="126.21" ry="65.58"/><path class="cls-4" d="M167.59,178.4l-56.13-38.25c-14.32-3.08-32.18-3.57-44,5-4.68,3.4-10.39,13-.79,19.43a46.3,46.3,0,0,0,11.09,5.06c-.35-.11-.7-.22-1.07-.32l-2-.54-11.77-3-5.78-1.5c-.24-.06-.48-.12-.7-.16l-.64-.12a7.29,7.29,0,0,0-1-.09c-.51,0-.66.14-.17.4l8.34,4.44a29.61,29.61,0,0,0,5.44,2.08L75.7,173c-3.46-.66-6.9-1.23-10.23-1.69-4.58-.63-9.25-1.17-13.47-1.44-.73,0-.69.13-.15.35a5.18,5.18,0,0,0,.69.22c2.57.69,5.07,1.33,7.52,2l1.75.43,6,1.47.22.05h0c14,3.28,25.22,5.55,32.8,7l-18-3.22h.05L77,177a85.84,85.84,0,0,0-13.65-1.55l-12.22-.19c-.68,0-.65.19-.19.38a5,5,0,0,0,1.21.32l28.08,4.2,29.37,3.08,7.45-5.42c.3-.29,4.86-.82,4.86-.82C145.83,178.85,167.59,178.4,167.59,178.4ZM101.05,176l-.48,3.19-19.5-8.33-.64-.25-1.34-.48a151.29,151.29,0,0,0,23.08,4.81C101.43,175.18,101,175.53,101.05,176Z"/><ellipse class="cls-5" cx="182.24" cy="177.27" rx="5.81" ry="1.73" transform="translate(-61.01 103.33) rotate(-27.3)"/><path class="cls-6" d="M177.62,66.74c-.9-.43-.72-1.17-2.12-1.66l-9,14.51,3.5,1.54c1.74.77,3-.76,3.47-1.64l4.94-10.82C178.9,67.52,178.72,67.26,177.62,66.74Z"/><path class="cls-7" d="M177.62,65a43.78,43.78,0,0,0-4.93-1.86c.46.19.89.37,1.26.55a2.34,2.34,0,0,1,1.12,3l-5,10.86a2.68,2.68,0,0,1-2,1.17l2.75,1.19a2.53,2.53,0,0,0,2.86-1l5-10.86A2.34,2.34,0,0,0,177.62,65Z"/><path class="cls-7" d="M99,113.87l.2,8.83v15.12A13.71,13.71,0,0,1,98,143.5a34.39,34.39,0,0,0-2.73,16.61c.21.42,16,11.34,16,11.34l42.6,2.7,13.72,4.25,36.57-5.88a16,16,0,0,0,6.5-2.58l6.44-4.37a10.27,10.27,0,0,0,2.71-2.71l3.43-5.05a10.17,10.17,0,0,0,1.49-8.11l-4.28-17.93a10,10,0,0,1-.28-2.37v-8a10.19,10.19,0,0,0-1.25-4.89h0a10.19,10.19,0,0,1-1.25-4.89V101.09Z"/><path class="cls-8" d="M194.9,174.07l9.1-1.42a17.19,17.19,0,0,0,6.95-2.74l6.15-4.18a10.27,10.27,0,0,0,2.71-2.71l3.43-5.05a10.17,10.17,0,0,0,1.49-8.11l-4.28-17.93a10,10,0,0,1-.28-2.37v-8.47a10.58,10.58,0,0,0-.78-4.75c-1.21-2.3.14-15.72,0-16.85L188.75,120.3C201.34,152.13,194.9,174.07,194.9,174.07Z"/><path class="cls-9" d="M193,87.7s-55.9-12.33-90.31,18a10.35,10.35,0,0,0-3.35,5.6c-.88,4.12-.7,10.06,14.25,13.59,9,2.36,82,5.51,104.34-20.5,1.35-1.57,3.63-9.94-3.86-12.55,0,.22-57.29,13.87-57.29,13.87Z"/><polygon class="cls-8" points="167.59 178.4 157.88 141.28 153.87 174.15 167.59 178.4"/><polygon class="cls-7" points="192.97 87.7 192.97 97.06 156.75 105.74 192.97 87.7"/><path class="cls-10" d="M162.61,56.18l14.1,7.39a1.65,1.65,0,0,1,.71,2.21l-11,21.52c-.06.13-.12.25-.17.38L160.4,102.9l-18.68-9.44,16.92-35.95A2.9,2.9,0,0,1,162.61,56.18Z"/><path class="cls-11" d="M148.85,74.29l-9.27,17.58,2.14,1.59,12.82-13.82a5.45,5.45,0,0,0,.87-1.26l9.39-18.67c.76-1.52.48-2.28-1.08-3L162.17,56a2.61,2.61,0,0,0-3.49,1Z"/><path class="cls-12" d="M163.72,56.76,162.17,56a2.61,2.61,0,0,0-2.85.27,2.57,2.57,0,0,1,1.5.28l1.55.81c1.57.67,1.85,1.43,1.08,2.95l-9.38,18.68a5.71,5.71,0,0,1-.87,1.25l-12,12.9.49.37,12.82-13.82a5.45,5.45,0,0,0,.87-1.26l9.39-18.67C165.56,58.19,165.28,57.43,163.72,56.76Z"/><polygon class="cls-13" points="160.4 102.9 159.37 105.03 143.73 110.56 140.25 106.73 141.32 103.33 138.67 105.35 134.75 100.97 141.72 93.46 160.4 102.9"/><polygon class="cls-14" points="141.77 93.46 141.72 93.52 159.34 102.42 158.31 104.56 143.18 109.91 143.78 110.56 159.43 105.03 160.45 102.9 141.77 93.46"/><polygon class="cls-15" points="141.72 93.46 139.58 91.87 134.75 100.97 141.72 93.46"/><path class="cls-6" d="M160.87,58.71c-5.7-2.6-20.94-6.33-30.6-8.55a80.4,80.4,0,0,1-16.71-5.84C96.1,36,57.1,17.34,57,17.34,30.94,5.27,16.74,2.38,9.36,2.11,4.25,1.92-.18,3.47,0,8.58c.33,9.14,7.88,9.52,11.12,9C27.35,15,51.67,28.49,51.67,28.49L102.14,55c1.76.92,3.55,1.77,5.38,2.53,0,0,32.77,13.42,44,18.23,2.14.91,3.64-.9,4.26-1.94L161.85,61C162.44,59.63,162.22,59.33,160.87,58.71ZM10.44,13.37a3.4,3.4,0,1,1,2.82-2.82A3.4,3.4,0,0,1,10.44,13.37Z"/><path class="cls-16" d="M56.41,16.57C30.34,4.49,16.74,2.38,9.36,2.11,4.25,1.92-.18,3.47,0,8.58c.33,9.14,7.87,9.45,11.12,9,16.35-2.25,38.95,10.06,38.95,10.06a4.34,4.34,0,0,0,1.59-1.25C53.86,23.51,56.47,16.57,56.41,16.57Zm-46-3.2a3.4,3.4,0,1,1,2.82-2.82A3.39,3.39,0,0,1,10.44,13.37Z"/><polygon class="cls-17" points="141.22 93.09 135.87 98.85 134.75 100.97 141.72 93.46 141.22 93.09"/><path class="cls-7" d="M160.87,56.61c-5.7-2.6-20.94-6.33-30.6-8.55a79.83,79.83,0,0,1-16.71-5.84c-17.46-8.34-56.46-27-56.55-27C30.94,3.17,16.74.28,9.35,0A8.9,8.9,0,0,0,0,9c.2,6.8,7.88,7,11.12,6.49C27.35,12.9,51.67,26.39,51.67,26.39l50.47,26.47c1.76.92,3.55,1.77,5.38,2.53l45.09,18.87A3.19,3.19,0,0,0,156.12,73l6.12-12.85A2.73,2.73,0,0,0,160.87,56.61ZM9.9,11.32a3.4,3.4,0,1,1,3.4-3.4A3.4,3.4,0,0,1,9.9,11.32Z"/><path class="cls-18" d="M9.35,0A8.9,8.9,0,0,0,0,9c.2,6.8,7.88,7,11.12,6.49C27.35,12.9,51.67,26.39,51.67,26.39S57.1,15.24,57,15.24C30.94,3.17,16.74.28,9.35,0ZM9.9,11.32a3.4,3.4,0,1,1,3.4-3.4A3.4,3.4,0,0,1,9.9,11.32Z"/><polygon class="cls-14" points="140.25 106.73 139.58 106.1 140.25 104.14 141.32 103.33 140.25 106.73"/><ellipse class="cls-5" cx="211.3" cy="184.52" rx="3.91" ry="1.16" transform="translate(-61.09 117.47) rotate(-27.3)"/><ellipse class="cls-5" cx="213.53" cy="192.66" rx="3.91" ry="1.16" transform="translate(-64.58 119.39) rotate(-27.3)"/><ellipse class="cls-5" cx="262.37" cy="167.45" rx="3.91" ry="1.16" transform="translate(-47.58 138.98) rotate(-27.3)"/><ellipse class="cls-5" cx="228.52" cy="136.78" rx="3.91" ry="1.16" transform="translate(-37.28 120.04) rotate(-27.3)"/><ellipse class="cls-5" cx="227.33" cy="184.52" rx="3.91" ry="1.16" transform="translate(-59.31 124.81) rotate(-27.3)"/><ellipse class="cls-5" cx="258.85" cy="154.46" rx="3.91" ry="1.16" transform="translate(-42.01 135.93) rotate(-27.3)"/><ellipse class="cls-5" cx="200.46" cy="181.49" rx="3.91" ry="1.16" transform="translate(-60.91 112.15) rotate(-27.3)"/><ellipse class="cls-5" cx="99.02" cy="189.89" rx="3.91" ry="1.16" transform="translate(-76.06 66.57) rotate(-27.3)"/><ellipse class="cls-5" cx="221.61" cy="181.49" rx="2.66" ry="0.79" transform="translate(-58.56 121.85) rotate(-27.3)"/><ellipse class="cls-5" cx="254.29" cy="164.62" rx="2.66" ry="0.79" transform="translate(-47.18 134.96) rotate(-27.3)"/><ellipse class="cls-5" cx="227.33" cy="145.15" rx="2.66" ry="0.79" transform="translate(-41.25 120.43) rotate(-27.3)"/><ellipse class="cls-5" cx="191.14" cy="192.66" rx="2.66" ry="0.79" transform="translate(-67.07 109.12) rotate(-27.3)"/><ellipse class="cls-5" cx="190.58" cy="210.63" rx="2.66" ry="0.79" transform="translate(-75.38 110.87) rotate(-27.3)"/><ellipse class="cls-5" cx="134.75" cy="217.44" rx="2.66" ry="0.79" transform="translate(-84.72 86.02) rotate(-27.3)"/><ellipse class="cls-5" cx="167.59" cy="187.82" rx="2.66" ry="0.79" transform="translate(-67.48 97.78) rotate(-27.3)"/><ellipse class="cls-5" cx="109.83" cy="195.29" rx="2.66" ry="0.79" transform="translate(-77.33 72.12) rotate(-27.3)"/><ellipse class="cls-5" cx="92.78" cy="130.45" rx="2.66" ry="0.79" transform="translate(-49.5 57.08) rotate(-27.3)"/><ellipse class="cls-5" cx="227.33" cy="172" rx="5.81" ry="1.73" transform="translate(-53.57 123.42) rotate(-27.3)"/><path class="cls-19" d="M109.89,171.91,115,146.38a10.35,10.35,0,0,0-.62-6.07l-5.77-13.54a1.81,1.81,0,0,0-3.37.08l-4.93,13.33a10.36,10.36,0,0,0-.3,6.23l9.38,35.11a.25.25,0,0,0,.5-.06v-9.55Z"/><path class="cls-20" d="M114.38,140.31l-5.77-13.54a1.81,1.81,0,0,0-3.37.08l-.65,1.77,5.64,13.24a10.31,10.31,0,0,1,.62,6.06l-4.47,22.34,3,11.26a.25.25,0,0,0,.5-.06v-9.55L115,146.38A10.35,10.35,0,0,0,114.38,140.31Z"/><path class="cls-21" d="M109.6,183.25l0-11.47a28,28,0,0,0-14.37-24,38.77,38.77,0,0,0-11.48-4.34,1.08,1.08,0,0,0-1.09,1.66C96,172.34,109.6,183.25,109.6,183.25Z"/><path class="cls-20" d="M89,156.88c4.2.81,5.94-4.22,9.33-2.31a27.63,27.63,0,0,1,9.85,9.35,27.81,27.81,0,0,0-13-16.1,38.77,38.77,0,0,0-11.48-4.34,1.08,1.08,0,0,0-1.09,1.66c1,2.05,2,4,3,5.86Z"/><path class="cls-22" d="M109.54,183.25,91.16,164.92a16,16,0,0,0-10.59-4.65l-13-.56a1.14,1.14,0,0,0-.68,2.09l19,12.6Z"/><path class="cls-20" d="M72.41,164.31l13,.56a15.94,15.94,0,0,1,9,3.27l-3.24-3.23a16,16,0,0,0-10.59-4.65l-13-.56a1.14,1.14,0,0,0-.68,2.09l4.54,3A1.12,1.12,0,0,1,72.41,164.31Z"/><path class="cls-23" d="M109.54,171.78l11-10A18.75,18.75,0,0,1,135.15,157l14,1.49a1.48,1.48,0,0,1,.35,2.87l-14.78,5.42a18.26,18.26,0,0,0-4.12,2.12l-21,14.36Z"/><path class="cls-20" d="M149.53,158.59a1.45,1.45,0,0,1-.62.45l-14.78,5.42a18.75,18.75,0,0,0-4.13,2.12l-20.46,14v2.7l21-14.36a18.47,18.47,0,0,1,4.12-2.12l14.78-5.42A1.48,1.48,0,0,0,149.53,158.59Z"/></g></g></svg>