<!-- Generated by IcoMoon.io -->
<svg version="1.1" xmlns="http://www.w3.org/2000/svg" width="32" height="32" viewBox="0 0 32 32">
<title>SGF</title>
<path fill="#97be32" d="M16 0c-8.862 0-16 7.138-16 16s7.138 16 16 16c8.862 0 16-7.138 16-16s-7.138-16-16-16zM11.077 11.077c0-2.708 2.215-4.923 4.923-4.923s4.923 2.215 4.923 4.923v1.231c0 2.708-2.215 4.923-4.923 4.923s-4.923-2.215-4.923-4.923v-1.231zM23.385 25.846c-2.092 1.6-4.554 2.462-7.385 2.462s-5.292-0.862-7.385-2.462c-0.369-0.246-0.738-0.615-1.108-0.985 0.369-2.954 2.954-5.169 6.031-5.169h4.923c3.077 0 5.662 2.215 6.031 5.169-0.369 0.369-0.738 0.738-1.108 0.985z"></path>
</svg>
