<svg xmlns="http://www.w3.org/2000/svg" width="107" height="118" viewBox="0 0 107 118">
  <defs>
    <linearGradient id="group-21-a" x1="45.667%" x2="53.277%" y1="48.322%" y2="51.429%">
      <stop offset="0%" stop-color="#6FAA76"/>
      <stop offset="5%" stop-color="#69A672"/>
      <stop offset="20%" stop-color="#5E9D6B"/>
      <stop offset="41%" stop-color="#579766"/>
      <stop offset="100%" stop-color="#559665"/>
    </linearGradient>
    <linearGradient id="group-21-b" x1="6.458%" x2="119.531%" y1="60.257%" y2="60.257%">
      <stop offset="0%" stop-color="#6FAA76"/>
      <stop offset="5%" stop-color="#69A672"/>
      <stop offset="20%" stop-color="#5E9D6B"/>
      <stop offset="41%" stop-color="#579766"/>
      <stop offset="100%" stop-color="#559665"/>
    </linearGradient>
    <linearGradient id="group-21-c" x1="8.193%" x2="114.85%" y1="68.986%" y2="68.986%">
      <stop offset="0%" stop-color="#6FAA76"/>
      <stop offset="5%" stop-color="#69A672"/>
      <stop offset="20%" stop-color="#5E9D6B"/>
      <stop offset="41%" stop-color="#579766"/>
      <stop offset="100%" stop-color="#559665"/>
    </linearGradient>
    <linearGradient id="group-21-d" x1="13.897%" x2="108.496%" y1="57.183%" y2="57.183%">
      <stop offset="0%" stop-color="#6FAA76"/>
      <stop offset="5%" stop-color="#69A672"/>
      <stop offset="20%" stop-color="#5E9D6B"/>
      <stop offset="41%" stop-color="#579766"/>
      <stop offset="100%" stop-color="#559665"/>
    </linearGradient>
  </defs>
  <g fill="none">
    <path fill="#333" d="M23.073,9.144 C24.225,9.144 24.993,8.712 25.509,8.22 L24.921,7.476 C24.513,7.836 23.985,8.184 23.121,8.184 C21.837,8.184 20.841,7.248 20.841,4.86 C20.841,2.376 21.909,1.524 23.133,1.524 C23.721,1.524 24.261,1.716 24.765,2.136 L25.389,1.404 C24.741,0.876 24.117,0.588 23.061,0.588 C21.213,0.588 19.629,2.076 19.629,4.86 C19.629,7.644 21.081,9.144 23.073,9.144 Z M29.733,9.144 C31.761,9.144 33.165,7.632 33.165,4.872 C33.165,2.064 31.761,0.588 29.733,0.588 C27.705,0.588 26.301,2.124 26.301,4.884 C26.301,7.692 27.705,9.144 29.733,9.144 Z M29.733,8.208 C28.425,8.208 27.513,7.308 27.513,4.884 C27.513,2.46 28.389,1.524 29.733,1.524 C31.077,1.524 31.953,2.448 31.953,4.872 C31.953,7.296 31.077,8.208 29.733,8.208 Z M38.269,10 L38.379,9.23 L35.369,9.23 C37.419,7.28 38.219,6.29 38.219,5.1 C38.219,4 37.439,3.21 36.209,3.21 C35.369,3.21 34.719,3.55 34.179,4.22 L34.799,4.7 C35.229,4.19 35.599,3.97 36.159,3.97 C36.809,3.97 37.259,4.38 37.259,5.13 C37.259,6.17 36.679,6.91 34.319,9.27 L34.319,10 L38.269,10 Z M44.439,9 L44.439,5.292 C44.655,4.416 45.159,3.612 45.951,3.612 C46.179,3.612 46.311,3.636 46.503,3.684 L46.707,2.604 C46.515,2.556 46.287,2.532 46.083,2.532 C45.339,2.532 44.787,3 44.427,3.888 L44.295,2.676 L43.335,2.676 L43.335,9 L44.439,9 Z M50.187,9.144 C51.003,9.144 51.711,8.856 52.299,8.388 L51.795,7.656 C51.255,8.1 50.787,8.244 50.211,8.244 C49.251,8.244 48.603,7.62 48.507,6.216 L52.539,6.216 C52.551,6.072 52.563,5.868 52.563,5.652 C52.563,3.72 51.663,2.532 50.007,2.532 C48.327,2.532 47.331,3.936 47.331,5.844 C47.331,7.812 48.303,9.144 50.187,9.144 Z M51.471,5.4 L48.507,5.4 C48.591,4.044 49.143,3.408 50.007,3.408 C50.991,3.408 51.447,4.092 51.471,5.4 Z M55.551,9.144 C55.875,9.144 56.175,9.06 56.451,8.928 L56.163,8.16 C56.043,8.208 55.911,8.232 55.755,8.232 C55.479,8.232 55.359,8.088 55.359,7.728 L55.359,0 L54.255,0.132 L54.255,7.632 C54.255,8.712 54.795,9.144 55.551,9.144 Z M60.159,9.144 C60.975,9.144 61.683,8.856 62.271,8.388 L61.767,7.656 C61.227,8.1 60.759,8.244 60.183,8.244 C59.223,8.244 58.575,7.62 58.479,6.216 L62.511,6.216 C62.523,6.072 62.535,5.868 62.535,5.652 C62.535,3.72 61.635,2.532 59.979,2.532 C58.299,2.532 57.303,3.936 57.303,5.844 C57.303,7.812 58.275,9.144 60.159,9.144 Z M61.443,5.4 L58.479,5.4 C58.563,4.044 59.115,3.408 59.979,3.408 C60.963,3.408 61.419,4.092 61.443,5.4 Z M68.811,9.144 L69.075,8.376 C68.751,8.256 68.607,8.076 68.607,7.572 L68.607,4.596 C68.607,3.312 67.911,2.532 66.303,2.532 C65.679,2.532 64.971,2.652 64.191,2.94 L64.479,3.756 C65.127,3.528 65.715,3.432 66.135,3.432 C67.059,3.432 67.503,3.768 67.503,4.656 L67.503,5.148 L66.687,5.148 C64.767,5.148 63.711,5.88 63.711,7.188 C63.711,8.364 64.491,9.144 65.763,9.144 C66.531,9.144 67.203,8.856 67.647,8.256 C67.839,8.82 68.247,9.072 68.811,9.144 Z M66.063,8.316 C65.271,8.316 64.923,7.92 64.923,7.14 C64.923,6.372 65.391,5.88 66.747,5.88 L67.503,5.88 L67.503,7.44 C67.143,7.992 66.663,8.316 66.063,8.316 Z M72.423,9.144 C73.683,9.144 74.919,8.568 74.919,7.212 C74.919,5.988 74.031,5.58 72.915,5.268 C71.847,4.98 71.451,4.776 71.451,4.236 C71.451,3.732 71.943,3.408 72.627,3.408 C73.299,3.408 73.767,3.6 74.223,3.912 L74.715,3.168 C74.199,2.796 73.539,2.532 72.675,2.532 C71.343,2.532 70.311,3.24 70.311,4.308 C70.311,5.34 71.043,5.832 72.183,6.12 C73.431,6.432 73.731,6.672 73.731,7.296 C73.731,7.884 73.203,8.256 72.399,8.256 C71.727,8.256 71.139,8.028 70.647,7.62 L70.035,8.316 C70.587,8.796 71.355,9.144 72.423,9.144 Z M78.951,9.144 C79.767,9.144 80.475,8.856 81.063,8.388 L80.559,7.656 C80.019,8.1 79.551,8.244 78.975,8.244 C78.015,8.244 77.367,7.62 77.271,6.216 L81.303,6.216 C81.315,6.072 81.327,5.868 81.327,5.652 C81.327,3.72 80.427,2.532 78.771,2.532 C77.091,2.532 76.095,3.936 76.095,5.844 C76.095,7.812 77.067,9.144 78.951,9.144 Z M80.235,5.4 L77.271,5.4 C77.355,4.044 77.907,3.408 78.771,3.408 C79.755,3.408 80.211,4.092 80.235,5.4 Z M85.059,9.144 C85.767,9.144 86.415,8.832 86.871,8.184 L86.967,9 L87.939,9 L87.939,0.132 L86.835,0 L86.835,3.264 C86.415,2.784 85.851,2.532 85.143,2.532 C83.583,2.532 82.647,3.936 82.647,5.844 C82.647,7.836 83.427,9.144 85.059,9.144 Z M85.311,8.268 C84.363,8.268 83.835,7.512 83.835,5.844 C83.835,4.2 84.423,3.408 85.431,3.408 C85.995,3.408 86.499,3.696 86.835,4.188 L86.835,7.296 C86.499,7.812 85.983,8.268 85.311,8.268 Z"/>
    <g transform="translate(19 19)">
      <g transform="translate(20)">
        <g transform="translate(0 26)">
          <path fill="#BD201F" d="M5.6,6.4 L3.86,7.24 L3.86,6.34 L5.32,5.66 C5.39026184,5.62998382 5.46973816,5.62998382 5.54,5.66 L5.54,5.66 C5.68294933,5.7214307 5.78022587,5.85685408 5.79280001,6.01193513 C5.80537415,6.16701619 5.7311854,6.31634216 5.6,6.4 L5.6,6.4 Z"/>
          <path fill="#3C3C3C" d="M6,6.22 L4.86,6.76 C4.82849685,6.46931593 4.69364536,6.19961297 4.48,6 L5.4,5.56 C5.4,5.56 5.96,5.56 6.04,6.12 C6,6.18 6,6.2 6,6.22 Z"/>
          <path fill="#BD201F" d="M4.86,5.44 L3.46,6.12 C3.347463,6.16754265 3.21849436,6.15476821 3.11747088,6.08607224 C3.01644739,6.01737627 2.95715665,5.90213433 2.96,5.78 L2.96,5.46 L4.52,4.72 L4.68,4.72 C4.77187114,4.67397211 4.88025716,4.67486286 4.97135941,4.72239447 C5.06246166,4.76992607 5.12519614,4.85831559 5.14,4.96 L5.14,4.96 C5.15818766,5.16325227 5.04587673,5.35578529 4.86,5.44 L4.86,5.44 Z"/>
          <path fill="#3C3C3C" d="M5.1,5.34 L4.14,5.78 C4.10680052,5.51124732 4.003322,5.25600031 3.84,5.04 L4.52,4.72 L4.94,4.52 C5.08,4.52 5.22,4.98 5.16,5.26 L5.1,5.34 Z"/>
          <circle cx="2.14" cy="7.18" r="1.9" fill="#BD201F"/>
          <circle cx="6.82" cy="4.74" r="1.9" fill="#484848"/>
          <path fill="#BD201F" d="M8.18,2.94 L10,2.1 L10,3.02 L8.54,3.7 C8.46973816,3.73001618 8.39026184,3.73001618 8.32,3.7 L8.32,3.7 C8.13949489,3.68563654 7.99115202,3.55180484 7.95834791,3.37372538 C7.9255438,3.19564593 8.01646131,3.01773995 8.18,2.94 L8.18,2.94 Z"/>
          <path fill="#3C3C3C" d="M7.78,3.14 L8.92,2.58 C8.94577753,2.861014 9.08254365,3.12014982 9.3,3.3 L8.36,3.74 C8.36,3.74 7.82,3.74 7.74,3.2 C7.74,3.18 7.74,3.14 7.78,3.14 Z"/>
          <path fill="#BD201F" d="M8.76,4 L10.16,3.32 C10.2711944,3.26482844 10.4029679,3.27083318 10.5086837,3.33588906 C10.6143995,3.40094493 10.6791428,3.51587361 10.68,3.64 L10.68,4 L9.12,4.74 L8.96,4.74 C8.86476764,4.77775253 8.75796168,4.77314492 8.66633437,4.72733126 C8.57470706,4.68151761 8.50693739,4.5988374 8.48,4.5 L8.48,4.5 C8.46479034,4.29230153 8.57496483,4.09556137 8.76,4 L8.76,4 Z"/>
          <path fill="#3C3C3C" d="M8.54,4 L9.48,3.54 C9.52267662,3.8157566 9.63257635,4.07676847 9.8,4.3 L9.12,4.62 L8.7,4.82 C8.54,4.82 8.42,4.36 8.48,4.08 C8.54,3.8 8.5,4 8.54,4 Z"/>
          <circle cx="11.58" cy="2.22" r="1.9" fill="#BD201F"/>
        </g>
        <g opacity=".901" transform="translate(0 16)">
          <path fill="#BD201F" d="M5.56,7.8 L3.8,8.64 L3.8,7.74 L5.26,7.04 L5.52,7.04 C5.67121312,7.10117694 5.77332792,7.24437414 5.7819013,7.40726835 C5.79047468,7.57016256 5.7039558,7.72328785 5.56,7.8 L5.56,7.8 Z"/>
          <path fill="#3C3C3C" d="M6,7.62 L4.84,8.16 C4.81210473,7.87961904 4.67573873,7.62124135 4.46,7.44 L5.4,7 C5.4,7 5.94,7 6.02,7.54 C6,7.58 6,7.6 6,7.62 Z"/>
          <path fill="#BD201F" d="M4.82,6.84 L3.42,7.5 C3.31142534,7.55818961 3.17986869,7.55310057 3.07611369,7.48669737 C2.97235868,7.42029416 2.91263605,7.30296447 2.92,7.18 L2.92,6.84 L4.46,6.12 L4.62,6.12 C4.71463716,6.07476749 4.82485411,6.07574785 4.91867168,6.12265664 C5.01248926,6.16956542 5.07940372,6.25715077 5.1,6.36 L5.1,6.36 C5.10715256,6.56063629 4.99816782,6.74746726 4.82,6.84 L4.82,6.84 Z"/>
          <path fill="#3C3C3C" d="M5.04,6.74 L4.1,7.18 C4.06490341,6.9081877 3.95400816,6.65174243 3.78,6.44 L4.46,6.12 L4.9,6 C5.04,6 5.16,6.46 5.12,6.74 C5.09360547,6.74538776 5.06639453,6.74538776 5.04,6.74 Z"/>
          <circle cx="2.1" cy="8.56" r="1.9" fill="#BD201F"/>
          <circle cx="6.76" cy="6.14" r="1.9" fill="#484848"/>
          <path fill="#BD201F" d="M8.12,4.34 L9.88,3.5 L9.88,4.42 L8.44,5.1 C8.36973816,5.13001618 8.29026184,5.13001618 8.22,5.1 L8.22,5.1 C8.06142145,5.05259747 7.94546882,4.91648198 7.92387706,4.7523846 C7.9022853,4.58828721 7.97908101,4.4268101 8.12,4.34 Z"/>
          <path fill="#3C3C3C" d="M7.72,4.54 L8.88,4 C8.90789527,4.28038096 9.04426127,4.53875865 9.26,4.72 L8.32,5.16 C8.32,5.16 7.78,5.16 7.7,4.62 L7.72,4.54 Z"/>
          <path fill="#BD201F" d="M8.72,5.34 L10.12,4.66 C10.2285747,4.60181039 10.3601313,4.60689943 10.4638863,4.67330263 C10.5676413,4.73970584 10.6273639,4.85703553 10.62,4.98 L10.62,5.32 L9.08,6 L8.92,6 C8.82536284,6.04523251 8.71514589,6.04425215 8.62132832,5.99734336 C8.52751074,5.95043458 8.46059628,5.86284923 8.44,5.76 L8.44,5.76 C8.45062785,5.57970479 8.55766129,5.41915463 8.72,5.34 Z"/>
          <path fill="#3C3C3C" d="M8.5,5.44 L9.44,4.98 C9.47251168,5.25853359 9.58348649,5.52209876 9.76,5.74 L9.08,6 L8.64,6.2 C8.5,6.2 8.38,5.74 8.42,5.46 L8.5,5.44 Z"/>
          <circle cx="11.52" cy="3.62" r="1.9" fill="#BD201F"/>
        </g>
        <g opacity=".697" transform="translate(0 8)">
          <path fill="#BD201F" d="M5.44,6.94 L3.68,7.78 L3.68,6.86 L5.12,6.18 C5.19026184,6.14998382 5.26973816,6.14998382 5.34,6.18 L5.34,6.18 C5.49857855,6.22740253 5.61453118,6.36351802 5.63612294,6.5276154 C5.6577147,6.69171279 5.58091899,6.8531899 5.44,6.94 L5.44,6.94 Z"/>
          <path fill="#3C3C3C" d="M5.84,6.74 L4.7,7.3 C4.66447887,7.02197266 4.52949254,6.7662091 4.32,6.58 L5.24,6.14 C5.24,6.14 5.78,6.14 5.86,6.68 L5.84,6.74 Z"/>
          <path fill="#BD201F" d="M4.7,6 L3.3,6.68 C3.19142534,6.73818961 3.05986869,6.73310057 2.95611369,6.66669737 C2.85235868,6.60029416 2.79263605,6.48296447 2.8,6.36 L2.8,6 L4.36,5.26 L4.5,5.26 C4.59523236,5.22224747 4.70203832,5.22685508 4.79366563,5.27266874 C4.88529294,5.31848239 4.95306261,5.4011626 4.98,5.5 L4.98,5.5 C5.00730962,5.71020937 4.89349864,5.91344325 4.7,6 Z"/>
          <path fill="#3C3C3C" d="M4.94,5.86 L4,6.32 C3.96929734,6.04451264 3.86574538,5.78218102 3.7,5.56 L4.38,5.24 L4.8,5.04 C4.94,5.04 5.08,5.5 5.02,5.78 L4.94,5.86 Z"/>
          <circle cx="1.98" cy="7.7" r="1.9" fill="#BD201F"/>
          <circle cx="6.64" cy="5.26" r="1.9" fill="#484848"/>
          <path fill="#BD201F" d="M8,3.48 L9.74,2.64 L9.74,3.54 L8.28,4.24 L8,4.24 C7.83585019,4.18604657 7.72489996,4.03278928 7.72489996,3.86 C7.72489996,3.68721072 7.83585019,3.53395343 8,3.48 L8,3.48 Z"/>
          <path fill="#3C3C3C" d="M7.62,3.66 L8.76,3.12 C8.78789527,3.40038096 8.92426127,3.65875865 9.14,3.84 L8.2,4.28 C8.2,4.28 7.66,4.28 7.58,3.74 C7.58,3.7 7.58,3.68 7.62,3.66 Z"/>
          <path fill="#BD201F" d="M8.6,4.46 L10,3.78 C10.1148683,3.73439199 10.2447412,3.747496 10.3481834,3.81513129 C10.4516256,3.88276658 10.5157134,3.99648301 10.52,4.12 L10.52,4.44 L8.96,5.18 L8.8,5.18 C8.70536284,5.22523251 8.59514589,5.22425215 8.50132832,5.17734336 C8.40751074,5.13043458 8.34059628,5.04284923 8.32,4.94 L8.32,4.94 C8.31284744,4.73936371 8.42183218,4.55253274 8.6,4.46 L8.6,4.46 Z"/>
          <path fill="#3C3C3C" d="M8.38,4.56 L9.32,4.12 C9.35509659,4.3918123 9.46599184,4.64825757 9.64,4.86 L8.96,5.18 L8.54,5.38 C8.38,5.38 8.26,4.92 8.32,4.64 C8.32427344,4.60452995 8.34714531,4.57403412 8.38,4.56 L8.38,4.56 Z"/>
          <circle cx="11.42" cy="2.76" r="1.9" fill="#BD201F"/>
        </g>
        <g opacity=".501" transform="translate(.2 .08)">
          <path fill="#BD201F" d="M5.36,6.08 L3.6,6.92 L3.6,5.92 L5.06,5.24 C5.13026184,5.20998382 5.20973816,5.20998382 5.28,5.24 L5.28,5.24 C5.51195959,5.21790862 5.7179086,5.38804041 5.73999998,5.62 C5.76209137,5.85195959 5.59195959,6.0579086 5.36,6.08 L5.36,6.08 Z"/>
          <path fill="#3C3C3C" d="M5.8,5.92 L4.64,6.48 C4.61210473,6.19961904 4.47573873,5.94124135 4.26,5.76 L5.2,5.32 C5.2,5.32 5.8,5.36 5.8,5.92 Z"/>
          <path fill="#BD201F" d="M4.62,5.1 L3.22,5.78 C3.11142534,5.83818961 2.97986869,5.83310057 2.87611369,5.76669737 C2.77235868,5.70029416 2.71263605,5.58296447 2.72,5.46 L2.72,5.12 L4.26,4.38 L4.42,4.38 C4.51523236,4.34224747 4.62203832,4.34685508 4.71366563,4.39266874 C4.80529294,4.43848239 4.87306261,4.5211626 4.9,4.62 L4.9,4.62 C4.91235761,4.82190914 4.80183787,5.01137155 4.62,5.1 L4.62,5.1 Z"/>
          <path fill="#3C3C3C" d="M4.84,5 L3.9,5.46 C3.86748832,5.18146641 3.75651351,4.91790124 3.58,4.7 L4.26,4.38 L4.7,4.18 C4.84,4.18 4.96,4.64 4.92,4.92 L4.84,5 Z"/>
          <circle cx="1.9" cy="6.84" r="1.9" fill="#BD201F"/>
          <circle cx="6.56" cy="4.4" r="1.9" fill="#484848"/>
          <path fill="#BD201F" d="M7.92,2.62 L9.68,1.78 L9.68,2.68 L8.24,3.38 C8.16810817,3.40056308 8.09189183,3.40056308 8.02,3.38 L8.02,3.38 C7.86142145,3.33259747 7.74546882,3.19648198 7.72387706,3.0323846 C7.7022853,2.86828721 7.77908101,2.7068101 7.92,2.62 Z"/>
          <path fill="#3C3C3C" d="M7.52,2.8 L8.68,2.26 C8.70789527,2.54038096 8.84426127,2.79875865 9.06,2.98 L8.12,3.42 C8.12,3.42 7.58,3.42 7.5,2.88 C7.48,2.84 7.5,2.82 7.52,2.8 Z"/>
          <path fill="#BD201F" d="M8.52,3.6 L9.92,2.92 C10.032537,2.87245735 10.1615056,2.88523179 10.2625291,2.95392776 C10.3635526,3.02262373 10.4228433,3.13786567 10.42,3.26 L10.42,3.58 L8.88,4.32 L8.72,4.32 C8.62536284,4.36523251 8.51514589,4.36425215 8.42132832,4.31734336 C8.32751074,4.27043458 8.26059628,4.18284923 8.24,4.08 L8.24,4.08 C8.23284744,3.87936371 8.34183218,3.69253274 8.52,3.6 L8.52,3.6 Z"/>
          <path fill="#3C3C3C" d="M8.3,3.7 L9.24,3.26 C9.28876584,3.50364611 9.39890829,3.73081492 9.56,3.92 L8.88,4.24 L8.44,4.44 C8.3,4.44 8.18,3.98 8.22,3.7 L8.3,3.7 Z"/>
          <circle cx="11.32" cy="1.9" r="1.9" fill="#BD201F"/>
        </g>
        <g transform="translate(14 26)">
          <path fill="#BD201F" d="M9.34,6.36 L11.08,7.2 L11.08,6.3 L9.62,5.6 C9.54973816,5.56998382 9.47026184,5.56998382 9.4,5.6 L9.4,5.6 C9.24649688,5.65682326 9.13998993,5.79764912 9.12710768,5.96082429 C9.11422543,6.12399946 9.19731503,6.27979347 9.34,6.36 Z"/>
          <path fill="#3C3C3C" d="M8.94,6.16 L10.08,6.72 C10.1155211,6.44197266 10.2505075,6.1862091 10.46,6 L9.54,5.54 C9.54,5.54 8.98,5.54 8.9,6.1 L8.94,6.16 Z"/>
          <path fill="#BD201F" d="M10,5.38 L11.4,6.06 C11.5111944,6.11517156 11.6429679,6.10916682 11.7486837,6.04411094 C11.8543995,5.97905507 11.9191428,5.86412639 11.92,5.74 L11.92,5.4 L10.36,4.66 L10.22,4.66 C10.1253628,4.61476749 10.0151459,4.61574785 9.92132832,4.66265664 C9.82751074,4.70956542 9.76059628,4.79715077 9.74,4.9 L9.74,4.9 C9.71839179,5.09850465 9.82193095,5.28965387 10,5.38 Z"/>
          <path fill="#3C3C3C" d="M9.84,5.28 L10.78,5.74 C10.8226766,5.4642434 10.9325763,5.20323153 11.1,4.98 L10.42,4.66 L10,4.46 C9.86,4.46 9.72,4.92 9.78,5.2 C9.84,5.48 9.82,5.26 9.84,5.28 Z"/>
          <circle cx="12.8" cy="7.14" r="1.9" fill="#BD201F"/>
          <circle cx="8.14" cy="4.68" r="1.9" fill="#484848"/>
          <path fill="#BD201F" d="M6.78,2.88 L5.04,2 L5.04,2.9 L6.48,3.6 C6.55026184,3.63001618 6.62973816,3.63001618 6.7,3.6 L6.7,3.6 C6.83602153,3.53923815 6.92967694,3.41096803 6.94612859,3.26290318 C6.96258024,3.11483832 6.89936596,2.96913824 6.78,2.88 L6.78,2.88 Z"/>
          <path fill="#3C3C3C" d="M7.18,3.08 L6,2.52 C5.9595098,2.79643048 5.82537028,3.05058957 5.62,3.24 L6.54,3.68 C6.54,3.68 7.08,3.68 7.16,3.14 L7.18,3.08 Z"/>
          <path fill="#BD201F" d="M6.18,3.86 L4.78,3.18 C4.67071774,3.13379783 4.54568773,3.1444086 4.44575426,3.20836603 C4.34582078,3.27232345 4.28381773,3.38141384 4.28,3.5 L4.28,3.84 L5.82,4.58 L5.98,4.58 C6.07463716,4.62523251 6.18485411,4.62425215 6.27867168,4.57734336 C6.37248926,4.53043458 6.43940372,4.44284923 6.46,4.34 L6.46,4.34 C6.46247123,4.14056913 6.35481426,3.95601433 6.18,3.86 Z"/>
          <path fill="#3C3C3C" d="M6.4,4 L5.46,3.54 C5.42490341,3.8118123 5.31400816,4.06825757 5.14,4.28 L5.82,4.6 L6.24,4.82 C6.4,4.82 6.52,4.36 6.46,4.08 C6.4,3.8 6.44,4 6.4,4 Z"/>
          <circle cx="3.38" cy="2.14" r="1.9" fill="#BD201F"/>
        </g>
        <g opacity=".901" transform="translate(14 16)">
          <path fill="#BD201F" d="M9.42,7.74 L11.16,8.6 L11.16,7.68 L9.7,7 C9.62973816,6.96998382 9.55026184,6.96998382 9.48,7 L9.48,7 C9.33705067,7.0614307 9.23977413,7.19685408 9.22719999,7.35193513 C9.21462585,7.50701619 9.2888146,7.65634216 9.42,7.74 Z"/>
          <path fill="#3C3C3C" d="M9.02,7.56 L10.16,8.1 C10.198383,7.82856731 10.3332897,7.58005499 10.54,7.4 L9.62,6.94 C9.31993909,6.98052338 9.0704406,7.19103774 8.98,7.48 C8.98,7.51147573 8.99481942,7.54111456 9.02,7.56 L9.02,7.56 Z"/>
          <path fill="#BD201F" d="M10.16,6.78 L11.54,7.46 C11.6511944,7.51517156 11.7829679,7.50916682 11.8886837,7.44411094 C11.9943995,7.37905507 12.0591428,7.26412639 12.06,7.14 L12.06,6.8 L10.52,6 L10.36,6 C10.2653628,5.95476749 10.1551459,5.95574785 10.0613283,6.00265664 C9.96751074,6.04956542 9.90059628,6.13715077 9.88,6.24 L9.88,6.24 C9.83281457,6.46371328 9.94997073,6.68965731 10.16,6.78 Z"/>
          <path fill="#3C3C3C" d="M10,6.68 L10.96,7.14 C10.9925117,6.86146641 11.1034865,6.59790124 11.28,6.38 L10.52,6 L10.08,5.8 C9.94,5.8 9.8,6.26 9.86,6.54 C9.92,6.82 10,6.66 10,6.68 Z"/>
          <circle cx="12.88" cy="8.52" r="1.9" fill="#BD201F"/>
          <circle cx="8.22" cy="6.08" r="1.9" fill="#484848"/>
          <path fill="#BD201F" d="M6.86,4.28 L5.12,3.44 L5.12,4.34 L6.58,5.04 C6.65026184,5.07001618 6.72973816,5.07001618 6.8,5.04 L6.8,5.04 C6.95350312,4.98317674 7.06001007,4.84235088 7.07289232,4.67917571 C7.08577457,4.51600054 7.00268497,4.36020653 6.86,4.28 L6.86,4.28 Z"/>
          <path fill="#3C3C3C" d="M7.26,4.46 L6.12,4 C6.0795098,4.27643048 5.94537028,4.53058957 5.74,4.72 L6.66,5.16 C6.96006091,5.11947662 7.2095594,4.90896226 7.3,4.62 C7.32184981,4.59531532 7.3301301,4.5614479 7.3221347,4.52946632 C7.31413931,4.49748475 7.29089556,4.47149834 7.26,4.46 L7.26,4.46 Z"/>
          <path fill="#BD201F" d="M6.26,5.26 L4.86,4.58 C4.75142534,4.52181039 4.61986869,4.52689943 4.51611369,4.59330263 C4.41235868,4.65970584 4.35263605,4.77703553 4.36,4.9 L4.36,5.24 L6,6 L6,6 C6.09463716,6.04523251 6.20485411,6.04425215 6.29867168,5.99734336 C6.39248926,5.95043458 6.45940372,5.86284923 6.48,5.76 L6.48,5.76 C6.50716318,5.56513445 6.42201916,5.37162532 6.26,5.26 Z"/>
          <path fill="#3C3C3C" d="M6.48,5.36 L5.54,4.92 C5.50490341,5.1918123 5.39400816,5.44825757 5.22,5.66 L6,6 L6.42,6.2 C6.58,6.2 6.7,5.76 6.66,5.46 L6.48,5.36 Z"/>
          <circle cx="3.46" cy="3.54" r="1.9" fill="#BD201F"/>
        </g>
        <g opacity=".697" transform="translate(14 8)">
          <path fill="#BD201F" d="M9.58,6.88 L11.32,7.72 L11.32,6.82 L9.86,6.12 C9.78973816,6.08998382 9.71026184,6.08998382 9.64,6.12 L9.64,6.12 C9.48649688,6.17682326 9.37998993,6.31764912 9.36710768,6.48082429 C9.35422543,6.64399946 9.43731503,6.79979347 9.58,6.88 L9.58,6.88 Z"/>
          <path fill="#3C3C3C" d="M9.18,6.68 L10.32,7.24 C10.3478953,6.95961904 10.4842613,6.70124135 10.7,6.52 L9.76,6 C9.76,6 9.22,6 9.14,6.54 C9.14,6.64 9.16,6.68 9.18,6.68 Z"/>
          <path fill="#BD201F" d="M10.3,6 L11.7,6.68 C11.8111944,6.73517156 11.9429679,6.72916682 12.0486837,6.66411094 C12.1543995,6.59905507 12.2191428,6.48412639 12.22,6.36 L12.22,6 L10.66,5.26 L10.5,5.26 C10.4053628,5.21476749 10.2951459,5.21574785 10.2013283,5.26265664 C10.1075107,5.30956542 10.0405963,5.39715077 10.02,5.5 L10.02,5.5 C10.0099061,5.70652895 10.1186351,5.90068796 10.3,6 L10.3,6 Z"/>
          <path fill="#3C3C3C" d="M10,5.8 L10.94,6.26 C10.9850209,5.99101597 11.0948499,5.73703629 11.26,5.52 L10.58,5.2 L10.16,4.98 C10.02,4.98 9.88,5.44 9.94,5.72 C10,6 10,5.78 10,5.8 Z"/>
          <circle cx="13.02" cy="7.66" r="1.9" fill="#BD201F"/>
          <circle cx="8.36" cy="5.2" r="1.9" fill="#484848"/>
          <path fill="#BD201F" d="M7.02,3.4 L5.28,2.56 L5.28,3.46 L6.72,4.16 C6.79026184,4.19001618 6.86973816,4.19001618 6.94,4.16 L6.94,4.16 C7.09596128,4.10775948 7.207076,3.9692894 7.22429434,3.80571519 C7.24151268,3.64214098 7.16166547,3.48356966 7.02,3.4 L7.02,3.4 Z"/>
          <path fill="#3C3C3C" d="M7.42,3.6 L6.28,3.04 C6.23747461,3.32025402 6.09548528,3.57583481 5.88,3.76 L6.82,4.2 C7.11922661,4.16729731 7.36652966,3.95190433 7.44,3.66 C7.44,3.66 7.44,3.62 7.42,3.6 Z"/>
          <path fill="#BD201F" d="M6.42,4.4 L5.02,3.72 C4.91494998,3.6669104 4.79058134,3.6685275 4.68694719,3.7243305 C4.58331304,3.7801335 4.51350319,3.88307406 4.5,4 L4.5,4.34 L6.06,5.08 L6.22,5.08 C6.31463716,5.12523251 6.42485411,5.12425215 6.51867168,5.07734336 C6.61248926,5.03043458 6.67940372,4.94284923 6.7,4.84 L6.7,4.84 C6.69660836,4.65241717 6.58849152,4.48251928 6.42,4.4 Z"/>
          <path fill="#3C3C3C" d="M6.64,4.5 L5.7,4 C5.66490341,4.2718123 5.55400816,4.52825757 5.38,4.74 L6.06,5.08 L6.48,5.28 C6.64,5.28 6.76,4.82 6.7,4.54 C6.64,4.26 6.68,4.52 6.64,4.5 Z"/>
          <circle cx="3.62" cy="2.68" r="1.9" fill="#BD201F"/>
        </g>
        <g opacity=".501" transform="translate(15.64)">
          <path fill="#BD201F" d="M7.86,6.1 L9.6,6.94 L9.6,6 L8.14,5.3 C8.06973816,5.26998382 7.99026184,5.26998382 7.92,5.3 L7.92,5.3 C7.74068073,5.34124725 7.6090881,5.49441282 7.5953266,5.6778995 C7.5815651,5.86138617 7.68883927,6.03246675 7.86,6.1 L7.86,6.1 Z"/>
          <path fill="#3C3C3C" d="M7.46,6 L8.6,6.56 C8.6404902,6.28356952 8.77462972,6.02941043 8.98,5.84 L8.06,5.4 C8.06,5.4 7.5,5.4 7.42,5.94 C7.42,5.86 7.44,6 7.46,6 Z"/>
          <path fill="#BD201F" d="M8.58,5.14 L9.98,5.82 C10.0911944,5.87517156 10.2229679,5.86916682 10.3286837,5.80411094 C10.4343995,5.73905507 10.4991428,5.62412639 10.5,5.5 L10.5,5.16 L8.94,4.42 L8.8,4.42 C8.70536284,4.37476749 8.59514589,4.37574785 8.50132832,4.42265664 C8.40751074,4.46956542 8.34059628,4.55715077 8.32,4.66 L8.32,4.66 C8.30397158,4.85736873 8.40593066,5.04560089 8.58,5.14 Z"/>
          <path fill="#3C3C3C" d="M8.36,5.02 L9.3,5.48 C9.34502089,5.21101597 9.45484994,4.95703629 9.62,4.74 L8.94,4.42 L8.52,4.2 C8.38,4.2 8.24,4.66 8.3,4.94 C8.36,5.22 8.36,5 8.36,5.02 Z"/>
          <circle cx="11.32" cy="6.88" r="1.9" fill="#BD201F"/>
          <circle cx="6.66" cy="4.42" r="1.9" fill="#484848"/>
          <path fill="#BD201F" d="M5.3,2.62 L3.56,1.78 L3.56,2.68 L5,3.38 C5.07026184,3.41001618 5.14973816,3.41001618 5.22,3.38 L5.22,3.38 C5.37596128,3.32775948 5.487076,3.1892894 5.50429434,3.02571519 C5.52151268,2.86214098 5.44166547,2.70356966 5.3,2.62 L5.3,2.62 Z"/>
          <path fill="#3C3C3C" d="M5.7,2.82 L4.56,2.26 C4.5195098,2.53643048 4.38537028,2.79058957 4.18,2.98 L5.1,3.42 C5.39922661,3.38729731 5.64652966,3.17190433 5.72,2.88 C5.72,2.88 5.72,2.84 5.7,2.82 Z"/>
          <path fill="#BD201F" d="M4.7,3.6 L3.3,2.94 C3.19142534,2.88181039 3.05986869,2.88689943 2.95611369,2.95330263 C2.85235868,3.01970584 2.79263605,3.13703553 2.8,3.26 L2.8,3.6 L4.34,4.34 L4.5,4.34 C4.59463716,4.38523251 4.70485411,4.38425215 4.79867168,4.33734336 C4.89248926,4.29043458 4.95940372,4.20284923 4.98,4.1 L4.98,4.1 C4.98547157,3.89458444 4.87800023,3.70267135 4.7,3.6 L4.7,3.6 Z"/>
          <path fill="#3C3C3C" d="M4.92,3.72 L3.98,3.26 C3.94490341,3.5318123 3.83400816,3.78825757 3.66,4 L4.34,4.34 L4.76,4.54 C4.92,4.54 5.04,4.08 4.98,3.8 C4.92,3.52 4.96,3.74 4.92,3.72 Z"/>
          <circle cx="1.9" cy="1.9" r="1.9" fill="#BD201F"/>
        </g>
      </g>
      <g transform="translate(0 29)">
        <path fill="#EFDF9E" d="M6.54579222,42.2135858 C6.54579222,42.2135858 5.92802715,49.5774493 6.75604,55.9445826 C7.1687486,59.0827253 10.6884521,62.802294 13.3074646,64.2247111 C19.6927674,67.6899059 26.586818,69.8235315 41.2133145,69.8235315 C56.7872239,69.8235315 63.8240353,63.38372 67.2347215,59.7991251 C67.5663895,59.4510453 67.8685269,59.0759782 68.1380083,58.6778037 C69.1126253,57.2113413 69.6244379,55.4860081 69.6075711,53.7253005 L69.6075711,43.6957028 L6.54579222,42.2135858 Z"/>
        <path fill="#305636" d="M69.607147,43.6957028 C69.8485426,52.7545268 55.7749198,60.4999511 38.3399283,60.9593814 C20.9049367,61.4188117 6.57434439,54.4494873 6.33554444,45.385472 C6.31218358,44.5029505 6.46273137,42.9663247 6.46273137,42.9663247 C8.65086564,35.075544 21.7355452,28.5630542 37.4729806,28.1451543 C54.1370637,27.7064892 68.1717517,33.8919269 69.5734036,42.3641336 L69.607147,43.6957028 Z"/>
        <ellipse cx="37.997" cy="43.053" fill="#3A6843" rx="31.581" ry="16.41" transform="rotate(-1.51 37.997 43.053)"/>
        <ellipse cx="47.168" cy="39.36" fill="#D7D9B0" opacity=".4" rx="1.617" ry="1" transform="rotate(-27.3 47.168 39.36)"/>
        <ellipse cx="16.306" cy="35.968" fill="#D7D9B0" opacity=".4" rx="1.617" ry="1" transform="rotate(-27.3 16.306 35.968)"/>
        <ellipse cx="17.642" cy="31.686" fill="#D7D9B0" opacity=".4" rx="1.617" ry="1" transform="rotate(-27.3 17.642 31.686)"/>
        <ellipse cx="40.922" cy="38.266" fill="#D7D9B0" opacity=".4" rx="1.015" ry="1" transform="rotate(-27.3 40.922 38.266)"/>
        <ellipse cx="60.848" cy="47.07" fill="#D7D9B0" opacity=".4" rx="1.015" ry="1" transform="rotate(-27.28 60.848 47.07)"/>
        <ellipse cx="50.106" cy="55.022" fill="#D7D9B0" opacity=".4" rx="1.015" ry="1" transform="rotate(-27.28 50.106 55.022)"/>
        <ellipse cx="46.764" cy="49.585" fill="#D7D9B0" opacity=".4" rx="1.015" ry="1" transform="rotate(-27.28 46.764 49.585)"/>
        <ellipse cx="43.515" cy="50.057" fill="#D7D9B0" opacity=".4" rx="1.015" ry="1" transform="rotate(-27.28 43.515 50.057)"/>
        <ellipse cx="47.771" cy="35.048" fill="#D7D9B0" opacity=".4" rx="1.015" ry="1" transform="rotate(-27.3 47.771 35.048)"/>
        <ellipse cx="65.007" cy="47.328" fill="#D7D9B0" opacity=".4" rx="1.015" ry="1" transform="rotate(-27.3 65.007 47.328)"/>
        <ellipse cx="54.107" cy="47.328" fill="#D7D9B0" opacity=".4" rx="1.015" ry="1" transform="rotate(-27.3 54.107 47.328)"/>
        <ellipse cx="56.179" cy="49.136" fill="#D7D9B0" opacity=".4" rx="1.015" ry="1" transform="rotate(-27.3 56.18 49.136)"/>
        <ellipse cx="52.932" cy="49.215" fill="#D7D9B0" opacity=".4" rx="1.015" ry="1" transform="rotate(-27.3 52.932 49.215)"/>
        <ellipse cx="23.356" cy="52.441" fill="#D7D9B0" opacity=".4" rx="1.015" ry="1" transform="rotate(-27.3 23.356 52.44)"/>
        <ellipse cx="23.177" cy="55.019" fill="#D7D9B0" opacity=".4" rx="1.015" ry="1" transform="rotate(-27.3 23.177 55.019)"/>
        <ellipse cx="56.793" cy="44.626" fill="#D7D9B0" opacity=".4" rx="1.617" ry="1" transform="rotate(-27.3 56.793 44.626)"/>
        <ellipse cx="39.716" cy="53.221" fill="#D7D9B0" opacity=".4" rx="1.617" ry="1" transform="rotate(-27.3 39.716 53.221)"/>
        <ellipse cx="41.054" cy="48.942" fill="#D7D9B0" opacity=".4" rx="1.617" ry="1" transform="rotate(-27.3 41.054 48.942)"/>
        <ellipse cx="50.547" cy="43.529" fill="#D7D9B0" opacity=".4" rx="1.015" ry="1" transform="rotate(-27.3 50.547 43.529)"/>
        <ellipse cx="57.394" cy="40.313" fill="#D7D9B0" opacity=".4" rx="1.015" ry="1" transform="rotate(-27.3 57.394 40.313)"/>
        <path fill="#274435" d="M38.3918413,49.8136536 C38.3918413,49.8136536 18.2599677,47.9603583 12.7493995,43.381629 C10.4574391,41.4764207 12.2043126,39.2104169 13.5099254,38.4862301 C16.8115942,36.6511045 21.4033018,37.2974217 25.0086618,38.4862301 L38.3918413,49.8136536 Z" opacity=".9"/>
        <path fill="#D58F7E" d="M22.5531754,31.4753752 L22.3507146,33.7180182 L21.9198365,37.5466043 C21.8637926,38.0440371 21.6999184,38.5232585 21.4396409,38.9508518 C20.7019968,40.2080551 20.2939649,41.6312562 20.2534281,43.0883204 C20.2949586,43.1999334 24.0560577,46.4263283 24.0560577,46.4263283 L34.9577943,48.3523017 L38.3736717,49.8266318 L47.9775825,49.4061363 C48.5873041,49.3784726 49.1839474,49.2200168 49.7270517,48.9415146 L51.51286,48.0200583 C51.8081711,47.8692616 52.0723618,47.6640735 52.2915554,47.4152715 L53.3298161,46.2368457 C53.8144243,45.6848283 54.038484,44.9511984 53.9449855,44.2226201 L53.3531769,39.5504473 C53.3285132,39.3487376 53.3285132,39.1447745 53.3531769,38.9430648 L53.5815943,36.9054783 C53.6307237,36.472113 53.5681757,36.0333839 53.3998987,35.6310134 L53.3998987,35.6310134 C53.2312847,35.2287358 53.1687242,34.7899187 53.218203,34.3565485 L53.5192986,31.7011969 L22.5531754,31.4753752 Z"/>
        <path fill="#EAB988" d="M45.5610309,49.5151536 L47.9464347,49.4191145 C48.5988375,49.3937075 49.2377031,49.2253518 49.8178995,48.9259407 L51.5258382,48.0486105 C51.8214017,47.8970958 52.085617,47.6910079 52.3045337,47.441228 L53.3427943,46.2628022 C53.8270154,45.711513 54.0519017,44.9792151 53.9605594,44.2511723 L53.3661552,39.5789994 C53.3427929,39.3763445 53.3427929,39.1716763 53.3661552,38.9690213 L53.6075508,36.8250131 C53.6826337,36.4172143 53.6604005,35.9974512 53.5426595,35.5998656 C53.2960726,34.9821005 54.0280463,31.6233274 54.0124724,31.3300188 L45.5272875,35.7114786 C47.8478,44.1473462 45.5610309,49.5151536 45.5610309,49.5151536 Z"/>
        <path fill="#F6EED3" d="M47.5337261,27.5844935 C47.5337261,27.5844935 33.4678903,22.8422381 23.7238143,29.518254 C23.2493839,29.836863 22.8906547,30.3002974 22.7011276,30.8394406 C22.3559059,31.8595317 22.2313146,33.3676052 25.9872225,34.6965788 C28.2532263,35.5609308 46.9886393,38.4810388 53.4777682,32.5447837 C53.8697116,32.1865838 54.6977244,30.1334234 52.8392379,29.2534975 C52.8392379,29.3106018 37.6676545,31.0964101 37.6676545,31.0964101 L47.5337261,27.5844935 Z"/>
        <polygon fill="#EAB988" points="38.392 49.814 36.951 40.132 34.976 48.339"/>
        <polygon fill="#D58F7E" points="47.534 27.584 47.264 29.957 37.675 31.096"/>
        <path fill="#463C56" d="M40.6033364,18.7177478 L44.0295965,21.0019212 C44.12275,21.0623781 44.1878102,21.1576247 44.2102455,21.2663872 C44.2326808,21.3751497 44.2106221,21.488367 44.1489965,21.5807515 L40.6967799,26.709759 C40.6786103,26.7409068 40.6578451,26.7720546 40.6422712,26.8032024 L38.6981282,30.4838363 L34.1505466,27.5507501 L39.5417149,18.9487608 C39.6504476,18.7756873 39.8242685,18.6536655 40.0239894,18.6102055 C40.2237103,18.5667454 40.432518,18.6055057 40.6033364,18.7177478 Z"/>
        <path fill="#605772" d="M36.5385461,22.9045338 L33.6443946,27.0861284 L34.1505466,27.5507501 L37.8519458,24.4359682 C37.9530631,24.3531559 38.0406383,24.2550717 38.1115109,24.1452552 L41.0679581,19.6755432 C41.3093537,19.3147477 41.2574406,19.1122868 40.8732842,18.8968477 L40.4969147,18.6372826 C40.194294,18.4347982 39.7861597,18.5043406 39.5676715,18.7956173 L36.5385461,22.9045338 Z"/>
        <path fill="#564F66" d="M40.8732842,18.8968477 L40.4969147,18.6372826 C40.2733527,18.4887871 39.9841515,18.4827199 39.7545584,18.6217087 C39.889274,18.6222799 40.0209255,18.6619557 40.1335235,18.7359174 L40.509893,18.9954825 C40.8940494,19.2083259 40.9459624,19.4107868 40.7045668,19.774178 L37.7481197,24.2335074 C37.6765368,24.3427808 37.5890521,24.4407636 37.4885545,24.5242203 L34.0337423,27.4417327 L34.1505466,27.5507501 L37.8519458,24.4359682 C37.9530631,24.3531559 38.0406383,24.2550717 38.1115109,24.1452552 L41.0679581,19.6755432 C41.3093537,19.3147477 41.2574406,19.1122868 40.8732842,18.8968477 Z"/>
        <polygon fill="#B3BCE5" points="38.698 30.484 38.371 30.995 34.179 31.94 33.39 30.868 33.764 30.04 33.021 30.473 32.136 29.251 34.151 27.551"/>
        <polygon fill="#ABB4D8" points="34.164 27.551 34.148 27.564 38.439 30.333 38.112 30.845 34.057 31.758 34.192 31.943 38.384 30.998 38.711 30.486"/>
        <polygon fill="#8B9FAF" points="34.151 27.551 33.644 27.086 32.136 29.251"/>
        <path fill="#C68477" d="M40.0816105,19.3069607 C38.6877456,18.4815435 34.8643508,17.0954656 32.4348209,16.2518788 C30.9891186,15.744999 29.6027076,15.0826897 28.299948,14.276588 C24.0275055,11.6627668 14.5014643,5.80957255 14.4781034,5.8069769 C8.10058751,1.98877344 4.51858835,0.844091103 2.6237627,0.55856943 C1.30517171,0.361299911 0.124150245,0.628652022 0.0255154855,1.92647781 C-0.148393169,4.26256422 1.7879629,4.56625545 2.63933661,4.52212937 C6.89360953,4.34043376 12.7831429,8.4649241 12.7831429,8.4649241 L25.0424053,16.6464178 C25.4680921,16.9319395 25.9093529,17.1992916 26.3584006,17.4458785 C26.3584006,17.4458785 34.6852509,21.9441427 37.4444285,23.4885554 C37.9635588,23.781864 38.2361022,23.2523511 38.4255848,23.0057642 L40.2736887,20.0856562 C40.3748108,19.9639479 40.4121253,19.8014497 40.3742297,19.6478187 C40.336334,19.4941876 40.2277319,19.3676823 40.0816105,19.3069607 Z M2.57963663,3.44493397 C2.20464398,3.45921807 1.86303241,3.23061644 1.73321572,2.87852107 C1.60339902,2.5264257 1.71485222,2.13078022 2.00936654,1.89821874 C2.30388087,1.66565727 2.71458652,1.64898314 3.0269839,1.85690477 C3.33938128,2.0648264 3.48254021,2.45013496 3.38169296,2.81159499 C3.27758546,3.1727035 2.95504331,3.42739697 2.57963663,3.44493397 Z"/>
        <path fill="#CC8A81" d="M14.3457252,5.59413347 C7.96820928,1.77593002 4.51858835,0.844091103 2.6237627,0.55856943 C1.30517171,0.361299911 0.124150245,0.628652022 0.0255154855,1.92647781 C-0.148393169,4.26256422 1.7879629,4.54808589 2.63933661,4.52212937 C6.91956605,4.42868592 12.3963909,8.20535895 12.3963909,8.20535895 C12.564052,8.14976132 12.7167672,8.05653406 12.8428429,7.93281553 C13.4891602,7.26832873 14.3612991,5.59413347 14.3457252,5.59413347 Z M2.57963663,3.44493397 C2.20464398,3.45921807 1.86303241,3.23061644 1.73321572,2.87852107 C1.60339902,2.5264257 1.71485222,2.13078022 2.00936654,1.89821874 C2.30388087,1.66565727 2.71458652,1.64898314 3.0269839,1.85690477 C3.33938128,2.0648264 3.48254021,2.45013496 3.38169296,2.81159499 C3.27758546,3.1727035 2.95504331,3.42739697 2.57963663,3.44493397 Z"/>
        <polygon fill="#80929E" points="34.031 27.442 32.487 28.747 32.136 29.251 34.151 27.551"/>
        <path fill="#D58F7E" d="M40.1413105,18.7774478 C38.7474456,17.9520306 34.9240508,16.563357 32.4945209,15.7197702 C31.0431999,15.21689 29.6507081,14.5580674 28.3414784,13.754862 C24.0872055,11.1332539 14.5611643,5.27746398 14.5429947,5.27486833 C8.1602875,1.45666487 4.57828833,0.311982531 2.68346269,0.026460859 C1.37265865,-0.168213009 0.121554593,0.732478085 0.00734592451,2.03030387 C-0.135414912,3.75900781 1.83987593,4.03414688 2.69124964,3.99780776 C6.94811821,3.8187078 12.835056,7.94060249 12.835056,7.94060249 L25.1021053,16.1143093 C25.5277921,16.3998309 25.9690529,16.6671831 26.4181006,16.91377 L37.5067241,23.0057642 C37.834219,23.1410553 38.2114069,23.0558504 38.4489456,22.7929208 L40.3956843,19.7274563 C40.489293,19.568062 40.515078,19.3777883 40.4672671,19.1992295 C40.4194563,19.0206707 40.3020428,18.8687398 40.1413105,18.7774478 Z M2.49917143,2.9076341 C2.02607518,2.84593768 1.69174076,2.41357626 1.75106002,1.94017607 C1.81037927,1.46677588 2.24105586,1.13027391 2.71474803,1.1872145 C3.18844021,1.24415509 3.52710125,1.67313597 3.47254077,2.14710819 C3.41310185,2.62553427 2.97776923,2.96567416 2.49917143,2.9076341 Z"/>
        <path fill="#E59989" d="M2.68346269,0.026460859 C1.37265865,-0.168213009 0.121554593,0.732478085 0.00734592451,2.03030387 C-0.135414912,3.75900781 1.83987593,4.03414688 2.69124964,3.99780776 C6.94811821,3.8187078 12.835056,7.94060249 12.835056,7.94060249 C12.835056,7.94060249 14.5611643,5.27746398 14.5431371,5.27486833 C8.1602875,1.45666487 4.57828833,0.311982531 2.68346269,0.026460859 Z M2.49917143,2.9076341 C2.02607518,2.84593768 1.69174076,2.41357626 1.75106002,1.94017607 C1.81037927,1.46677588 2.24105586,1.13027391 2.71474803,1.1872145 C3.18844021,1.24415509 3.52710125,1.67313597 3.47254077,2.14710819 C3.41310185,2.62553427 2.97776923,2.96567416 2.49917143,2.9076341 Z"/>
        <polygon fill="#ABB4D8" points="33.39 30.868 33.237 30.689 33.465 30.214 33.764 30.04"/>
        <path fill="#274435" d="M20.8955438,5.4571525 C20.8904465,5.44571962 20.88238,5.43586064 20.8721829,5.42860033 L20.8462264,5.41302642 L20.7891221,5.3818786 C20.7726347,5.37168068 20.7552598,5.36299319 20.737209,5.35592209 L20.6723177,5.32736992 L20.5866612,5.29362645 L20.5321526,5.27545689 L20.4153482,5.23392646 L20.3790091,5.23392646 L20.2388439,5.19239604 L20.2206744,5.19239604 L20.0675309,5.15605692 L20.0675309,5.15605692 L19.9351527,5.1301004 L16.0883971,4.55905706 C14.6322365,4.34102233 13.801628,4.40850927 13.7730759,4.73815702 L13.5394672,5.59731768 L8.46756407,2.70316619 L8.29884672,2.61231838 C8.18463805,2.5526184 8.05745112,2.49032276 7.92247724,2.42802712 L7.71482512,2.33458366 C7.58504254,2.27747933 7.45525996,2.21777934 7.30730782,2.16067501 C7.15935568,2.10357068 6.96208616,2.02050982 6.78817751,1.95302288 L3.67339563,0.766810118 L2.11860034,0.177597212 C2.0563047,0.151640697 1.99400906,0.130875484 1.93430908,0.110110272 C1.87460909,0.0893450592 1.8149091,0.0737711498 1.76299607,0.0581972404 C1.6777767,0.0343005487 1.5910641,0.0160909036 1.50343092,0.00368855749 C1.36326573,-0.0118853519 1.316544,0.0218581185 1.44632658,0.104918969 L3.58773912,1.57924906 C4.03522062,1.87103271 4.5108826,2.11712474 5.00756053,2.31381845 L6.9439166,3.12366174 C6.01986464,2.83814007 5.09581269,2.57338361 4.20031289,2.34496627 C2.96997405,2.02829678 1.70848739,1.7375838 0.566400701,1.53252733 C0.369131182,1.49878386 0.371726834,1.54810124 0.51448767,1.62337514 C0.571797843,1.6559481 0.631701659,1.68372958 0.693587628,1.70643599 C1.37624399,1.96600114 2.04073079,2.2255663 2.69223933,2.48513146 L3.15426531,2.65644446 C3.69935214,2.85890528 4.23232593,3.05530958 4.75318668,3.24565736 L4.81029101,3.26642258 L4.81029101,3.26642258 C8.5246684,4.59799183 11.5304329,5.56357421 13.5602324,6.18393494 L8.73232053,4.74594397 L8.73232053,4.74594397 L7.17492959,4.26834408 C5.96880378,3.88624039 4.73349689,3.60323966 3.48131741,3.42216167 L0.148500799,2.99387916 C-0.038386114,2.96792265 -0.0357904625,3.02243133 0.0836095096,3.08991827 C0.184477861,3.14510795 0.291687612,3.18781753 0.402874652,3.2171052 L7.95102941,5.23911777 L16.37911,7.00935214 L16.223371,6.96263041 L16.3687274,7.00416083 L16.3687274,7.00416083 L16.3687274,7.00416083 L18.2012574,5.88803066 C18.3428177,5.79837618 18.5061453,5.74901894 18.673666,5.74526982 L20.848822,5.48570467 C20.8747786,5.48570467 20.8851612,5.48570467 20.8851612,5.46493945 L20.8955438,5.4571525 Z" opacity=".9" transform="translate(9.57 44.079)"/>
        <path fill="url(#group-21-a)" d="M25.8808007,47.9655496 L28.068935,41.1415817 C28.2423698,40.5960063 28.2477959,40.0108931 28.0845089,39.4621951 L26.9268483,35.5687178 C26.8686878,35.3723219 26.6962842,35.231511 26.4922297,35.2137422 C26.2881752,35.1959734 26.0940279,35.3048656 26.0027964,35.4882526 L24.2429446,38.9794039 C23.9780387,39.5032307 23.8827834,40.0965354 23.9704012,40.67696 L25.4447313,50.5793708 C25.4511541,50.6122794 25.4799865,50.6360286 25.513516,50.6360286 C25.5470456,50.6360286 25.575878,50.6122794 25.5823008,50.5793708 L25.8756094,47.9837192 C25.8806009,47.9791097 25.8826036,47.9721004 25.8808007,47.9655496 Z"/>
        <path fill="#4B774E" d="M28.0845089,39.4544082 L26.9268483,35.5609308 C26.8686878,35.364535 26.6962842,35.223724 26.4922297,35.2059553 C26.2881752,35.1881865 26.0940279,35.2970786 26.0027964,35.4804656 L25.7691877,35.9450872 L26.9008918,39.7373342 C27.0641788,40.2860322 27.0587527,40.8711453 26.8853179,41.4167207 L24.9723227,47.3867193 L25.4447313,50.5793708 C25.4511541,50.6122794 25.4799865,50.6360286 25.513516,50.6360286 C25.5470456,50.6360286 25.575878,50.6122794 25.5823008,50.5793708 L25.8756094,47.9837192 C25.8772072,47.9795406 25.8772072,47.9749195 25.8756094,47.970741 L28.0637437,41.146773 C28.2415467,40.5977148 28.2487865,40.0076637 28.0845089,39.4544082 L28.0845089,39.4544082 Z" opacity=".4"/>
        <path fill="url(#group-21-b)" d="M25.4447313,51.0595663 L25.7899529,47.9214236 C26.0519496,45.1848907 24.8388634,42.5155077 22.6050885,40.9131643 C21.6924414,40.2427137 20.6786329,39.7222278 19.6019196,39.3713473 C19.3423544,39.2908821 19.1606588,39.5400647 19.2515066,39.7918429 C22.0703842,47.6540715 25.4447313,51.0595663 25.4447313,51.0595663 Z"/>
        <path fill="#4B774E" d="M20.627202,43.210316 C21.7511191,43.5607289 22.3792668,42.2395423 23.2488101,42.8650943 C24.2749975,43.6028226 25.1018196,44.5839492 25.6549791,45.720311 C25.2927136,43.7873562 24.2018254,42.0673954 22.6076841,40.91576 C21.695037,40.2453094 20.6812286,39.7248235 19.6045153,39.373943 C19.4904934,39.3406521 19.3675841,39.3781334 19.2915414,39.4693846 C19.2154987,39.5606358 19.2007958,39.6882891 19.2541023,39.7944385 C19.4643501,40.3862471 19.6797891,40.9495035 19.8952282,41.4919946 L20.627202,43.210316 Z" opacity=".4"/>
        <path fill="url(#group-21-c)" d="M25.4447313,51.0569707 L20.9776149,45.4737241 C20.2941065,44.612436 19.3122277,44.0390558 18.2262243,43.8670158 L14.6883512,43.321929 C14.5461384,43.2926286 14.4023792,43.3646318 14.3406724,43.4960672 C14.2789657,43.6275026 14.3153991,43.7841032 14.428786,43.8748028 L19.241124,47.9058497 L25.4447313,51.0569707 Z"/>
        <path fill="#4B774E" d="M15.8719683,44.7313678 L19.4072457,45.2842416 C20.2949617,45.4265561 21.1176162,45.8378833 21.7640974,46.4626674 L20.9854019,45.4763198 C20.3004361,44.6123888 19.3154264,44.0378771 18.2262243,43.8670158 L14.6883512,43.3115464 C14.5461384,43.282246 14.4023792,43.3542492 14.3406724,43.4856846 C14.2789657,43.61712 14.3153991,43.7737206 14.428786,43.8644202 L15.576064,44.8248113 C15.6494866,44.7408142 15.7636215,44.7047716 15.8719683,44.7313678 L15.8719683,44.7313678 Z" opacity=".4"/>
        <path fill="url(#group-21-d)" d="M25.7899529,47.9214236 L29.1020043,45.5230415 C30.2992583,44.6547237 31.8115436,44.3418697 33.2550468,44.6638809 L37.0291242,45.5022763 C37.2128053,45.5470777 37.3420561,45.711643 37.3420561,45.9007088 C37.3420561,46.0897746 37.2128053,46.25434 37.0291242,46.2991413 L32.821573,47.3244237 C32.4070986,47.4257176 32.0068752,47.5783082 31.630169,47.7786627 L25.4447313,51.0569707 L25.7899529,47.9214236 Z"/>
        <path fill="#4B774E" d="M37.1251633,45.5464024 C37.0739459,45.5971854 37.0104569,45.6338481 36.9408721,45.6528241 L32.7333209,46.6755108 C32.3188464,46.7768047 31.9186231,46.9293954 31.5419168,47.1297498 L25.5200052,50.3198056 L25.4447313,51.0569707 L31.6379559,47.7786627 C32.0148508,47.5787237 32.4150214,47.4261532 32.82936,47.3244237 L37.0369112,46.2991413 C37.198498,46.2561615 37.3174345,46.1188379 37.3369046,45.9527701 C37.3563746,45.7867023 37.2724268,45.6255923 37.1251633,45.5464024 Z" opacity=".4"/>
      </g>
    </g>
  </g>
</svg>
