<svg xmlns="http://www.w3.org/2000/svg" width="80" height="107" viewBox="0 0 80 107">
  <defs>
    <linearGradient id="icon_removals-a" x1=".001%" x2="100.001%" y1="50%" y2="50%">
      <stop offset="0%" stop-color="#60855C"/>
      <stop offset="100%" stop-color="#6E9C52"/>
    </linearGradient>
    <linearGradient id="icon_removals-b" x1="26.894%" x2="75.91%" y1="40.897%" y2="66.33%">
      <stop offset="0%" stop-color="#60855C"/>
      <stop offset="21%" stop-color="#669057"/>
      <stop offset="55%" stop-color="#6C9953"/>
      <stop offset="100%" stop-color="#6E9C52"/>
    </linearGradient>
    <linearGradient id="icon_removals-c" x1="23.753%" x2="76.88%" y1="37.953%" y2="66.339%">
      <stop offset="0%" stop-color="#60855C"/>
      <stop offset="21%" stop-color="#669057"/>
      <stop offset="55%" stop-color="#6C9953"/>
      <stop offset="100%" stop-color="#6E9C52"/>
    </linearGradient>
    <linearGradient id="icon_removals-d" x1="21.745%" x2="66.953%" y1="81.812%" y2="29.796%">
      <stop offset="0%" stop-color="#99CC72"/>
      <stop offset="100%" stop-color="#74A05E"/>
    </linearGradient>
    <linearGradient id="icon_removals-e" x1="42.838%" x2="65.624%" y1="73.07%" y2="31.417%">
      <stop offset="0%" stop-color="#99CC73"/>
      <stop offset="100%" stop-color="#74A05E"/>
    </linearGradient>
    <linearGradient id="icon_removals-f" x1="19.043%" x2="59.294%" y1="67.252%" y2="33.707%">
      <stop offset="1%" stop-color="#99CC73"/>
      <stop offset="100%" stop-color="#74A05E"/>
    </linearGradient>
    <linearGradient id="icon_removals-g" x1="0%" x2="100.003%" y1="50.015%" y2="50.015%">
      <stop offset="0%" stop-color="#8FC777"/>
      <stop offset="31%" stop-color="#8CC274"/>
      <stop offset="67%" stop-color="#82B46B"/>
      <stop offset="100%" stop-color="#74A05E"/>
    </linearGradient>
    <linearGradient id="icon_removals-h" x1="29.728%" x2="66.565%" y1="102.772%" y2="9.84%">
      <stop offset="0%" stop-color="#60855C"/>
      <stop offset="100%" stop-color="#6E9C52"/>
    </linearGradient>
  </defs>
  <g fill="none">
    <g transform="matrix(1 0 0 -1 21 36)">
      <g opacity=".5" transform="translate(0 26)">
        <path fill="#BD201F" d="M5.6,6.4 L3.86,7.24 L3.86,6.34 L5.32,5.66 C5.39026184,5.62998382 5.46973816,5.62998382 5.54,5.66 L5.54,5.66 C5.68294933,5.7214307 5.78022587,5.85685408 5.79280001,6.01193513 C5.80537415,6.16701619 5.7311854,6.31634216 5.6,6.4 L5.6,6.4 Z"/>
        <path fill="#3C3C3C" d="M6,6.22 L4.86,6.76 C4.82849685,6.46931593 4.69364536,6.19961297 4.48,6 L5.4,5.56 C5.4,5.56 5.96,5.56 6.04,6.12 C6,6.18 6,6.2 6,6.22 Z"/>
        <path fill="#BD201F" d="M4.86,5.44 L3.46,6.12 C3.347463,6.16754265 3.21849436,6.15476821 3.11747088,6.08607224 C3.01644739,6.01737627 2.95715665,5.90213433 2.96,5.78 L2.96,5.46 L4.52,4.72 L4.68,4.72 C4.77187114,4.67397211 4.88025716,4.67486286 4.97135941,4.72239447 C5.06246166,4.76992607 5.12519614,4.85831559 5.14,4.96 L5.14,4.96 C5.15818766,5.16325227 5.04587673,5.35578529 4.86,5.44 L4.86,5.44 Z"/>
        <path fill="#3C3C3C" d="M5.1,5.34 L4.14,5.78 C4.10680052,5.51124732 4.003322,5.25600031 3.84,5.04 L4.52,4.72 L4.94,4.52 C5.08,4.52 5.22,4.98 5.16,5.26 L5.1,5.34 Z"/>
        <circle cx="2.14" cy="7.18" r="1.9" fill="#BD201F"/>
        <circle cx="6.82" cy="4.74" r="1.9" fill="#484848"/>
        <path fill="#BD201F" d="M8.18,2.94 L10,2.1 L10,3.02 L8.54,3.7 C8.46973816,3.73001618 8.39026184,3.73001618 8.32,3.7 L8.32,3.7 C8.13949489,3.68563654 7.99115202,3.55180484 7.95834791,3.37372538 C7.9255438,3.19564593 8.01646131,3.01773995 8.18,2.94 L8.18,2.94 Z"/>
        <path fill="#3C3C3C" d="M7.78,3.14 L8.92,2.58 C8.94577753,2.861014 9.08254365,3.12014982 9.3,3.3 L8.36,3.74 C8.36,3.74 7.82,3.74 7.74,3.2 C7.74,3.18 7.74,3.14 7.78,3.14 Z"/>
        <path fill="#BD201F" d="M8.76,4 L10.16,3.32 C10.2711944,3.26482844 10.4029679,3.27083318 10.5086837,3.33588906 C10.6143995,3.40094493 10.6791428,3.51587361 10.68,3.64 L10.68,4 L9.12,4.74 L8.96,4.74 C8.86476764,4.77775253 8.75796168,4.77314492 8.66633437,4.72733126 C8.57470706,4.68151761 8.50693739,4.5988374 8.48,4.5 L8.48,4.5 C8.46479034,4.29230153 8.57496483,4.09556137 8.76,4 L8.76,4 Z"/>
        <path fill="#3C3C3C" d="M8.54,4 L9.48,3.54 C9.52267662,3.8157566 9.63257635,4.07676847 9.8,4.3 L9.12,4.62 L8.7,4.82 C8.54,4.82 8.42,4.36 8.48,4.08 C8.54,3.8 8.5,4 8.54,4 Z"/>
        <circle cx="11.58" cy="2.22" r="1.9" fill="#BD201F"/>
      </g>
      <g opacity=".7" transform="translate(0 16)">
        <path fill="#BD201F" d="M5.56,7.8 L3.8,8.64 L3.8,7.74 L5.26,7.04 L5.52,7.04 C5.67121312,7.10117694 5.77332792,7.24437414 5.7819013,7.40726835 C5.79047468,7.57016256 5.7039558,7.72328785 5.56,7.8 L5.56,7.8 Z"/>
        <path fill="#3C3C3C" d="M6,7.62 L4.84,8.16 C4.81210473,7.87961904 4.67573873,7.62124135 4.46,7.44 L5.4,7 C5.4,7 5.94,7 6.02,7.54 C6,7.58 6,7.6 6,7.62 Z"/>
        <path fill="#BD201F" d="M4.82,6.84 L3.42,7.5 C3.31142534,7.55818961 3.17986869,7.55310057 3.07611369,7.48669737 C2.97235868,7.42029416 2.91263605,7.30296447 2.92,7.18 L2.92,6.84 L4.46,6.12 L4.62,6.12 C4.71463716,6.07476749 4.82485411,6.07574785 4.91867168,6.12265664 C5.01248926,6.16956542 5.07940372,6.25715077 5.1,6.36 L5.1,6.36 C5.10715256,6.56063629 4.99816782,6.74746726 4.82,6.84 L4.82,6.84 Z"/>
        <path fill="#3C3C3C" d="M5.04,6.74 L4.1,7.18 C4.06490341,6.9081877 3.95400816,6.65174243 3.78,6.44 L4.46,6.12 L4.9,6 C5.04,6 5.16,6.46 5.12,6.74 C5.09360547,6.74538776 5.06639453,6.74538776 5.04,6.74 Z"/>
        <circle cx="2.1" cy="8.56" r="1.9" fill="#BD201F"/>
        <circle cx="6.76" cy="6.14" r="1.9" fill="#484848"/>
        <path fill="#BD201F" d="M8.12,4.34 L9.88,3.5 L9.88,4.42 L8.44,5.1 C8.36973816,5.13001618 8.29026184,5.13001618 8.22,5.1 L8.22,5.1 C8.06142145,5.05259747 7.94546882,4.91648198 7.92387706,4.7523846 C7.9022853,4.58828721 7.97908101,4.4268101 8.12,4.34 Z"/>
        <path fill="#3C3C3C" d="M7.72,4.54 L8.88,4 C8.90789527,4.28038096 9.04426127,4.53875865 9.26,4.72 L8.32,5.16 C8.32,5.16 7.78,5.16 7.7,4.62 L7.72,4.54 Z"/>
        <path fill="#BD201F" d="M8.72,5.34 L10.12,4.66 C10.2285747,4.60181039 10.3601313,4.60689943 10.4638863,4.67330263 C10.5676413,4.73970584 10.6273639,4.85703553 10.62,4.98 L10.62,5.32 L9.08,6 L8.92,6 C8.82536284,6.04523251 8.71514589,6.04425215 8.62132832,5.99734336 C8.52751074,5.95043458 8.46059628,5.86284923 8.44,5.76 L8.44,5.76 C8.45062785,5.57970479 8.55766129,5.41915463 8.72,5.34 Z"/>
        <path fill="#3C3C3C" d="M8.5,5.44 L9.44,4.98 C9.47251168,5.25853359 9.58348649,5.52209876 9.76,5.74 L9.08,6 L8.64,6.2 C8.5,6.2 8.38,5.74 8.42,5.46 L8.5,5.44 Z"/>
        <circle cx="11.52" cy="3.62" r="1.9" fill="#BD201F"/>
      </g>
      <g opacity=".9" transform="translate(0 8)">
        <path fill="#BD201F" d="M5.44,6.94 L3.68,7.78 L3.68,6.86 L5.12,6.18 C5.19026184,6.14998382 5.26973816,6.14998382 5.34,6.18 L5.34,6.18 C5.49857855,6.22740253 5.61453118,6.36351802 5.63612294,6.5276154 C5.6577147,6.69171279 5.58091899,6.8531899 5.44,6.94 L5.44,6.94 Z"/>
        <path fill="#3C3C3C" d="M5.84,6.74 L4.7,7.3 C4.66447887,7.02197266 4.52949254,6.7662091 4.32,6.58 L5.24,6.14 C5.24,6.14 5.78,6.14 5.86,6.68 L5.84,6.74 Z"/>
        <path fill="#BD201F" d="M4.7,6 L3.3,6.68 C3.19142534,6.73818961 3.05986869,6.73310057 2.95611369,6.66669737 C2.85235868,6.60029416 2.79263605,6.48296447 2.8,6.36 L2.8,6 L4.36,5.26 L4.5,5.26 C4.59523236,5.22224747 4.70203832,5.22685508 4.79366563,5.27266874 C4.88529294,5.31848239 4.95306261,5.4011626 4.98,5.5 L4.98,5.5 C5.00730962,5.71020937 4.89349864,5.91344325 4.7,6 Z"/>
        <path fill="#3C3C3C" d="M4.94,5.86 L4,6.32 C3.96929734,6.04451264 3.86574538,5.78218102 3.7,5.56 L4.38,5.24 L4.8,5.04 C4.94,5.04 5.08,5.5 5.02,5.78 L4.94,5.86 Z"/>
        <circle cx="1.98" cy="7.7" r="1.9" fill="#BD201F"/>
        <circle cx="6.64" cy="5.26" r="1.9" fill="#484848"/>
        <path fill="#BD201F" d="M8,3.48 L9.74,2.64 L9.74,3.54 L8.28,4.24 L8,4.24 C7.83585019,4.18604657 7.72489996,4.03278928 7.72489996,3.86 C7.72489996,3.68721072 7.83585019,3.53395343 8,3.48 L8,3.48 Z"/>
        <path fill="#3C3C3C" d="M7.62,3.66 L8.76,3.12 C8.78789527,3.40038096 8.92426127,3.65875865 9.14,3.84 L8.2,4.28 C8.2,4.28 7.66,4.28 7.58,3.74 C7.58,3.7 7.58,3.68 7.62,3.66 Z"/>
        <path fill="#BD201F" d="M8.6,4.46 L10,3.78 C10.1148683,3.73439199 10.2447412,3.747496 10.3481834,3.81513129 C10.4516256,3.88276658 10.5157134,3.99648301 10.52,4.12 L10.52,4.44 L8.96,5.18 L8.8,5.18 C8.70536284,5.22523251 8.59514589,5.22425215 8.50132832,5.17734336 C8.40751074,5.13043458 8.34059628,5.04284923 8.32,4.94 L8.32,4.94 C8.31284744,4.73936371 8.42183218,4.55253274 8.6,4.46 L8.6,4.46 Z"/>
        <path fill="#3C3C3C" d="M8.38,4.56 L9.32,4.12 C9.35509659,4.3918123 9.46599184,4.64825757 9.64,4.86 L8.96,5.18 L8.54,5.38 C8.38,5.38 8.26,4.92 8.32,4.64 C8.32427344,4.60452995 8.34714531,4.57403412 8.38,4.56 L8.38,4.56 Z"/>
        <circle cx="11.42" cy="2.76" r="1.9" fill="#BD201F"/>
      </g>
      <path fill="#BD201F" d="M5.56,6.16 L3.8,7 L3.8,6 L5.26,5.32 C5.33026184,5.28998382 5.40973816,5.28998382 5.48,5.32 L5.48,5.32 C5.71195959,5.29790862 5.9179086,5.46804041 5.93999998,5.7 C5.96209137,5.93195959 5.79195959,6.1379086 5.56,6.16 L5.56,6.16 Z"/>
      <path fill="#3C3C3C" d="M6,6 L4.84,6.56 C4.81210473,6.27961904 4.67573873,6.02124135 4.46,5.84 L5.4,5.4 C5.4,5.4 6,5.44 6,6 Z"/>
      <path fill="#BD201F" d="M4.82,5.18 L3.42,5.86 C3.31142534,5.91818961 3.17986869,5.91310057 3.07611369,5.84669737 C2.97235868,5.78029416 2.91263605,5.66296447 2.92,5.54 L2.92,5.2 L4.46,4.46 L4.62,4.46 C4.71523236,4.42224747 4.82203832,4.42685508 4.91366563,4.47266874 C5.00529294,4.51848239 5.07306261,4.6011626 5.1,4.7 L5.1,4.7 C5.11235761,4.90190914 5.00183787,5.09137155 4.82,5.18 L4.82,5.18 Z"/>
      <path fill="#3C3C3C" d="M5.04,5.08 L4.1,5.54 C4.06748832,5.26146641 3.95651351,4.99790124 3.78,4.78 L4.46,4.46 L4.9,4.26 C5.04,4.26 5.16,4.72 5.12,5 L5.04,5.08 Z"/>
      <circle cx="2.1" cy="6.92" r="1.9" fill="#BD201F"/>
      <circle cx="6.76" cy="4.48" r="1.9" fill="#484848"/>
      <path fill="#BD201F" d="M8.12,2.7 L9.88,1.86 L9.88,2.76 L8.44,3.46 C8.36810817,3.48056308 8.29189183,3.48056308 8.22,3.46 L8.22,3.46 C8.06142145,3.41259747 7.94546882,3.27648198 7.92387706,3.1123846 C7.9022853,2.94828721 7.97908101,2.7868101 8.12,2.7 Z"/>
      <path fill="#3C3C3C" d="M7.72,2.88 L8.88,2.34 C8.90789527,2.62038096 9.04426127,2.87875865 9.26,3.06 L8.32,3.5 C8.32,3.5 7.78,3.5 7.7,2.96 C7.68,2.92 7.7,2.9 7.72,2.88 Z"/>
      <path fill="#BD201F" d="M8.72,3.68 L10.12,3 C10.232537,2.95245735 10.3615056,2.96523179 10.4625291,3.03392776 C10.5635526,3.10262373 10.6228433,3.21786567 10.62,3.34 L10.62,3.66 L9.08,4.4 L8.92,4.4 C8.82536284,4.44523251 8.71514589,4.44425215 8.62132832,4.39734336 C8.52751074,4.35043458 8.46059628,4.26284923 8.44,4.16 L8.44,4.16 C8.43284744,3.95936371 8.54183218,3.77253274 8.72,3.68 L8.72,3.68 Z"/>
      <path fill="#3C3C3C" d="M8.5,3.78 L9.44,3.34 C9.48876584,3.58364611 9.59890829,3.81081492 9.76,4 L9.08,4.32 L8.64,4.52 C8.5,4.52 8.38,4.06 8.42,3.78 L8.5,3.78 Z"/>
      <circle cx="11.52" cy="1.98" r="1.9" fill="#BD201F"/>
      <g opacity=".5" transform="translate(14 26)">
        <path fill="#BD201F" d="M9.34,6.36 L11.08,7.2 L11.08,6.3 L9.62,5.6 C9.54973816,5.56998382 9.47026184,5.56998382 9.4,5.6 L9.4,5.6 C9.24649688,5.65682326 9.13998993,5.79764912 9.12710768,5.96082429 C9.11422543,6.12399946 9.19731503,6.27979347 9.34,6.36 Z"/>
        <path fill="#3C3C3C" d="M8.94,6.16 L10.08,6.72 C10.1155211,6.44197266 10.2505075,6.1862091 10.46,6 L9.54,5.54 C9.54,5.54 8.98,5.54 8.9,6.1 L8.94,6.16 Z"/>
        <path fill="#BD201F" d="M10,5.38 L11.4,6.06 C11.5111944,6.11517156 11.6429679,6.10916682 11.7486837,6.04411094 C11.8543995,5.97905507 11.9191428,5.86412639 11.92,5.74 L11.92,5.4 L10.36,4.66 L10.22,4.66 C10.1253628,4.61476749 10.0151459,4.61574785 9.92132832,4.66265664 C9.82751074,4.70956542 9.76059628,4.79715077 9.74,4.9 L9.74,4.9 C9.71839179,5.09850465 9.82193095,5.28965387 10,5.38 Z"/>
        <path fill="#3C3C3C" d="M9.84,5.28 L10.78,5.74 C10.8226766,5.4642434 10.9325763,5.20323153 11.1,4.98 L10.42,4.66 L10,4.46 C9.86,4.46 9.72,4.92 9.78,5.2 C9.84,5.48 9.82,5.26 9.84,5.28 Z"/>
        <circle cx="12.8" cy="7.14" r="1.9" fill="#BD201F"/>
        <circle cx="8.14" cy="4.68" r="1.9" fill="#484848"/>
        <path fill="#BD201F" d="M6.78,2.88 L5.04,2 L5.04,2.9 L6.48,3.6 C6.55026184,3.63001618 6.62973816,3.63001618 6.7,3.6 L6.7,3.6 C6.83602153,3.53923815 6.92967694,3.41096803 6.94612859,3.26290318 C6.96258024,3.11483832 6.89936596,2.96913824 6.78,2.88 L6.78,2.88 Z"/>
        <path fill="#3C3C3C" d="M7.18,3.08 L6,2.52 C5.9595098,2.79643048 5.82537028,3.05058957 5.62,3.24 L6.54,3.68 C6.54,3.68 7.08,3.68 7.16,3.14 L7.18,3.08 Z"/>
        <path fill="#BD201F" d="M6.18,3.86 L4.78,3.18 C4.67071774,3.13379783 4.54568773,3.1444086 4.44575426,3.20836603 C4.34582078,3.27232345 4.28381773,3.38141384 4.28,3.5 L4.28,3.84 L5.82,4.58 L5.98,4.58 C6.07463716,4.62523251 6.18485411,4.62425215 6.27867168,4.57734336 C6.37248926,4.53043458 6.43940372,4.44284923 6.46,4.34 L6.46,4.34 C6.46247123,4.14056913 6.35481426,3.95601433 6.18,3.86 Z"/>
        <path fill="#3C3C3C" d="M6.4,4 L5.46,3.54 C5.42490341,3.8118123 5.31400816,4.06825757 5.14,4.28 L5.82,4.6 L6.24,4.82 C6.4,4.82 6.52,4.36 6.46,4.08 C6.4,3.8 6.44,4 6.4,4 Z"/>
        <circle cx="3.38" cy="2.14" r="1.9" fill="#BD201F"/>
      </g>
      <g opacity=".7" transform="translate(14 16)">
        <path fill="#BD201F" d="M9.42,7.74 L11.16,8.6 L11.16,7.68 L9.7,7 C9.62973816,6.96998382 9.55026184,6.96998382 9.48,7 L9.48,7 C9.33705067,7.0614307 9.23977413,7.19685408 9.22719999,7.35193513 C9.21462585,7.50701619 9.2888146,7.65634216 9.42,7.74 Z"/>
        <path fill="#3C3C3C" d="M9.02,7.56 L10.16,8.1 C10.198383,7.82856731 10.3332897,7.58005499 10.54,7.4 L9.62,6.94 C9.31993909,6.98052338 9.0704406,7.19103774 8.98,7.48 C8.98,7.51147573 8.99481942,7.54111456 9.02,7.56 L9.02,7.56 Z"/>
        <path fill="#BD201F" d="M10.16,6.78 L11.54,7.46 C11.6511944,7.51517156 11.7829679,7.50916682 11.8886837,7.44411094 C11.9943995,7.37905507 12.0591428,7.26412639 12.06,7.14 L12.06,6.8 L10.52,6 L10.36,6 C10.2653628,5.95476749 10.1551459,5.95574785 10.0613283,6.00265664 C9.96751074,6.04956542 9.90059628,6.13715077 9.88,6.24 L9.88,6.24 C9.83281457,6.46371328 9.94997073,6.68965731 10.16,6.78 Z"/>
        <path fill="#3C3C3C" d="M10,6.68 L10.96,7.14 C10.9925117,6.86146641 11.1034865,6.59790124 11.28,6.38 L10.52,6 L10.08,5.8 C9.94,5.8 9.8,6.26 9.86,6.54 C9.92,6.82 10,6.66 10,6.68 Z"/>
        <circle cx="12.88" cy="8.52" r="1.9" fill="#BD201F"/>
        <circle cx="8.22" cy="6.08" r="1.9" fill="#484848"/>
        <path fill="#BD201F" d="M6.86,4.28 L5.12,3.44 L5.12,4.34 L6.58,5.04 C6.65026184,5.07001618 6.72973816,5.07001618 6.8,5.04 L6.8,5.04 C6.95350312,4.98317674 7.06001007,4.84235088 7.07289232,4.67917571 C7.08577457,4.51600054 7.00268497,4.36020653 6.86,4.28 L6.86,4.28 Z"/>
        <path fill="#3C3C3C" d="M7.26,4.46 L6.12,4 C6.0795098,4.27643048 5.94537028,4.53058957 5.74,4.72 L6.66,5.16 C6.96006091,5.11947662 7.2095594,4.90896226 7.3,4.62 C7.32184981,4.59531532 7.3301301,4.5614479 7.3221347,4.52946632 C7.31413931,4.49748475 7.29089556,4.47149834 7.26,4.46 L7.26,4.46 Z"/>
        <path fill="#BD201F" d="M6.26,5.26 L4.86,4.58 C4.75142534,4.52181039 4.61986869,4.52689943 4.51611369,4.59330263 C4.41235868,4.65970584 4.35263605,4.77703553 4.36,4.9 L4.36,5.24 L6,6 L6,6 C6.09463716,6.04523251 6.20485411,6.04425215 6.29867168,5.99734336 C6.39248926,5.95043458 6.45940372,5.86284923 6.48,5.76 L6.48,5.76 C6.50716318,5.56513445 6.42201916,5.37162532 6.26,5.26 Z"/>
        <path fill="#3C3C3C" d="M6.48,5.36 L5.54,4.92 C5.50490341,5.1918123 5.39400816,5.44825757 5.22,5.66 L6,6 L6.42,6.2 C6.58,6.2 6.7,5.76 6.66,5.46 L6.48,5.36 Z"/>
        <circle cx="3.46" cy="3.54" r="1.9" fill="#BD201F"/>
      </g>
      <g opacity=".9" transform="translate(14 8)">
        <path fill="#BD201F" d="M9.58,6.88 L11.32,7.72 L11.32,6.82 L9.86,6.12 C9.78973816,6.08998382 9.71026184,6.08998382 9.64,6.12 L9.64,6.12 C9.48649688,6.17682326 9.37998993,6.31764912 9.36710768,6.48082429 C9.35422543,6.64399946 9.43731503,6.79979347 9.58,6.88 L9.58,6.88 Z"/>
        <path fill="#3C3C3C" d="M9.18,6.68 L10.32,7.24 C10.3478953,6.95961904 10.4842613,6.70124135 10.7,6.52 L9.76,6 C9.76,6 9.22,6 9.14,6.54 C9.14,6.64 9.16,6.68 9.18,6.68 Z"/>
        <path fill="#BD201F" d="M10.3,6 L11.7,6.68 C11.8111944,6.73517156 11.9429679,6.72916682 12.0486837,6.66411094 C12.1543995,6.59905507 12.2191428,6.48412639 12.22,6.36 L12.22,6 L10.66,5.26 L10.5,5.26 C10.4053628,5.21476749 10.2951459,5.21574785 10.2013283,5.26265664 C10.1075107,5.30956542 10.0405963,5.39715077 10.02,5.5 L10.02,5.5 C10.0099061,5.70652895 10.1186351,5.90068796 10.3,6 L10.3,6 Z"/>
        <path fill="#3C3C3C" d="M10,5.8 L10.94,6.26 C10.9850209,5.99101597 11.0948499,5.73703629 11.26,5.52 L10.58,5.2 L10.16,4.98 C10.02,4.98 9.88,5.44 9.94,5.72 C10,6 10,5.78 10,5.8 Z"/>
        <circle cx="13.02" cy="7.66" r="1.9" fill="#BD201F"/>
        <circle cx="8.36" cy="5.2" r="1.9" fill="#484848"/>
        <path fill="#BD201F" d="M7.02,3.4 L5.28,2.56 L5.28,3.46 L6.72,4.16 C6.79026184,4.19001618 6.86973816,4.19001618 6.94,4.16 L6.94,4.16 C7.09596128,4.10775948 7.207076,3.9692894 7.22429434,3.80571519 C7.24151268,3.64214098 7.16166547,3.48356966 7.02,3.4 L7.02,3.4 Z"/>
        <path fill="#3C3C3C" d="M7.42,3.6 L6.28,3.04 C6.23747461,3.32025402 6.09548528,3.57583481 5.88,3.76 L6.82,4.2 C7.11922661,4.16729731 7.36652966,3.95190433 7.44,3.66 C7.44,3.66 7.44,3.62 7.42,3.6 Z"/>
        <path fill="#BD201F" d="M6.42,4.4 L5.02,3.72 C4.91494998,3.6669104 4.79058134,3.6685275 4.68694719,3.7243305 C4.58331304,3.7801335 4.51350319,3.88307406 4.5,4 L4.5,4.34 L6.06,5.08 L6.22,5.08 C6.31463716,5.12523251 6.42485411,5.12425215 6.51867168,5.07734336 C6.61248926,5.03043458 6.67940372,4.94284923 6.7,4.84 L6.7,4.84 C6.69660836,4.65241717 6.58849152,4.48251928 6.42,4.4 Z"/>
        <path fill="#3C3C3C" d="M6.64,4.5 L5.7,4 C5.66490341,4.2718123 5.55400816,4.52825757 5.38,4.74 L6.06,5.08 L6.48,5.28 C6.64,5.28 6.76,4.82 6.7,4.54 C6.64,4.26 6.68,4.52 6.64,4.5 Z"/>
        <circle cx="3.62" cy="2.68" r="1.9" fill="#BD201F"/>
      </g>
      <path fill="#BD201F" d="M23.5,6.1 L25.24,6.94 L25.24,6 L23.78,5.3 C23.7097382,5.26998382 23.6302618,5.26998382 23.56,5.3 L23.56,5.3 C23.3806807,5.34124725 23.2490881,5.49441282 23.2353266,5.6778995 C23.2215651,5.86138617 23.3288393,6.03246675 23.5,6.1 L23.5,6.1 Z"/>
      <path fill="#3C3C3C" d="M23.1,6 L24.24,6.56 C24.2804902,6.28356952 24.4146297,6.02941043 24.62,5.84 L23.7,5.4 C23.7,5.4 23.14,5.4 23.06,5.94 C23.06,5.86 23.08,6 23.1,6 Z"/>
      <path fill="#BD201F" d="M24.22,5.14 L25.62,5.82 C25.7311944,5.87517156 25.8629679,5.86916682 25.9686837,5.80411094 C26.0743995,5.73905507 26.1391428,5.62412639 26.14,5.5 L26.14,5.16 L24.58,4.42 L24.44,4.42 C24.3453628,4.37476749 24.2351459,4.37574785 24.1413283,4.42265664 C24.0475107,4.46956542 23.9805963,4.55715077 23.96,4.66 L23.96,4.66 C23.9439716,4.85736873 24.0459307,5.04560089 24.22,5.14 Z"/>
      <path fill="#3C3C3C" d="M24,5.02 L24.94,5.48 C24.9850209,5.21101597 25.0948499,4.95703629 25.26,4.74 L24.58,4.42 L24.16,4.2 C24.02,4.2 23.88,4.66 23.94,4.94 C24,5.22 24,5 24,5.02 Z"/>
      <circle cx="26.96" cy="6.88" r="1.9" fill="#BD201F"/>
      <circle cx="22.3" cy="4.42" r="1.9" fill="#484848"/>
      <path fill="#BD201F" d="M20.94,2.62 L19.2,1.78 L19.2,2.68 L20.64,3.38 C20.7102618,3.41001618 20.7897382,3.41001618 20.86,3.38 L20.86,3.38 C21.0159613,3.32775948 21.127076,3.1892894 21.1442943,3.02571519 C21.1615127,2.86214098 21.0816655,2.70356966 20.94,2.62 L20.94,2.62 Z"/>
      <path fill="#3C3C3C" d="M21.34,2.82 L20.2,2.26 C20.1595098,2.53643048 20.0253703,2.79058957 19.82,2.98 L20.74,3.42 C21.0392266,3.38729731 21.2865297,3.17190433 21.36,2.88 C21.36,2.88 21.36,2.84 21.34,2.82 Z"/>
      <path fill="#BD201F" d="M20.34,3.6 L18.94,2.94 C18.8314253,2.88181039 18.6998687,2.88689943 18.5961137,2.95330263 C18.4923587,3.01970584 18.4326361,3.13703553 18.44,3.26 L18.44,3.6 L19.98,4.34 L20.14,4.34 C20.2346372,4.38523251 20.3448541,4.38425215 20.4386717,4.33734336 C20.5324893,4.29043458 20.5994037,4.20284923 20.62,4.1 L20.62,4.1 C20.6254716,3.89458444 20.5180002,3.70267135 20.34,3.6 L20.34,3.6 Z"/>
      <path fill="#3C3C3C" d="M20.56,3.72 L19.62,3.26 C19.5849034,3.5318123 19.4740082,3.78825757 19.3,4 L19.98,4.34 L20.4,4.54 C20.56,4.54 20.68,4.08 20.62,3.8 C20.56,3.52 20.6,3.74 20.56,3.72 Z"/>
      <circle cx="17.54" cy="1.9" r="1.9" fill="#BD201F"/>
    </g>
    <g transform="translate(0 60)">
      <path fill="#A0CC83" d="M21.445334,13.376094 C21.445334,13.376094 34.0528542,11.7916682 39.9226247,2.51423047 C39.9226247,2.51423047 34.9547768,10.0423747 21.445334,13.376094 Z"/>
      <path fill="url(#icon_removals-a)" d="M16.45809,14.1301207 C16.45809,14.1301207 10.0331037,17.9148013 10.2961645,21.3212563 C10.794404,27.6019834 13.8359682,37.3509909 26.895662,43.0655919 C32.4623671,44.8051872 45.1026183,49.791219 64.5860861,41.4411614 C64.5860861,41.4411614 82.4451234,35.0634533 75.486742,24.045208 C75.583723,24.045208 71.1783644,23.4390772 63.8490311,18.6506441 C61.2953896,16.976407 58.9799854,14.9643949 56.9658099,12.6693455 C52.2585983,7.32812112 41.4597723,-3.21491765 23.5316362,1.19892668 C23.5316362,1.32015284 14.9500366,2.93852202 16.9223861,10.3611995 L16.45809,14.1301207 Z"/>
      <path fill="url(#icon_removals-b)" d="M55.241974,10.8133731 C52.1022166,7.56572439 47.2689297,3.48040293 40.5942176,1.43289316 C40.5942176,1.43289316 36.072482,10.7673072 21.4259378,13.3700327 L37.0810836,18.7039836 C37.0810836,18.7039836 52.4089187,21.2630677 55.241974,10.8133731 Z"/>
      <path fill="#A0CC83" d="M49.8571082,25.959369 C49.8571082,25.959369 60.0243458,29.9986245 66.0795923,20.5526825 C66.0795923,20.5526825 62.8452785,27.1001071 49.8571082,25.959369 Z" opacity=".7"/>
      <path fill="url(#icon_removals-c)" d="M66.4323604,20.2205228 C65.6161043,19.748549 64.7529741,19.2167702 63.8429698,18.6251866 C61.289566,16.950161 58.9742112,14.937784 56.9597486,12.6426758 C56.5209099,12.143224 56.0287318,11.5989186 55.4820018,11.0255189 C55.4019925,10.9479341 55.320771,10.8691371 55.2395495,10.7830666 C55.2395495,10.7830666 52.8150264,20.2459803 37.699337,18.8070258 L53.6830056,26.0442273 C53.6830056,26.0442273 61.6863564,27.3316491 66.4323604,20.2205228 Z"/>
      <path fill="#A0CC83" d="M37.0810836,18.7039836 C37.0810836,18.7039836 50.106834,22.6814138 54.9522435,11.5516404 C54.9522435,11.5552772 51.0463367,20.638753 37.0810836,18.7039836 Z" opacity=".7"/>
      <path fill="#A0CC83" d="M21.5786828,13.5930889 C21.5786828,13.5930889 34.1255899,13.1833444 40.5954299,1.43289316 C40.5942176,1.43289316 34.4989665,11.8547058 21.5786828,13.5930889 Z" opacity=".8"/>
      <path fill="url(#icon_removals-d)" d="M28.3940173,43.5444352 C32.6926968,44.9264134 39.8850446,47.0854512 49.9068109,45.6719542 C43.807923,20.6448143 37.0956307,18.7112572 37.0956307,18.7112572 L21.440485,13.3773063 C26.2361917,21.0654691 28.2461214,41.926066 28.3940173,43.5444352 Z"/>
      <path fill="url(#icon_removals-e)" d="M28.3600739,43.5286758 L28.3600739,43.5286758 C29.2438126,12.8014821 16.9223861,10.3563505 16.9223861,10.3563505 L16.9223861,10.3563505 C15.9198246,12.0732989 14.6703717,13.6335833 13.214078,14.9871896 C11.3956857,16.7049643 10.4937631,18.7609599 10.2961645,21.315195 C9.81125984,27.6286532 13.8274824,37.3170476 26.8374734,43.0340731 L28.2994609,43.5092796 L28.3600739,43.5286758 Z"/>
      <path fill="#A0CC83" d="M21.676876,13.376094 C21.676876,13.376094 29.5626374,24.6258813 28.4025031,43.5286758 C28.4025031,43.5286758 31.6501518,27.1764796 21.676876,13.376094 Z"/>
      <path fill="url(#icon_removals-f)" d="M64.2866575,41.4872273 C66.0449734,40.8172489 67.7399757,39.9916554 69.3514863,39.020275 C68.4944174,38.232305 52.3798245,21.3491383 36.9174283,18.640946 C36.9174283,18.640946 45.5608532,26.1569676 49.8971128,45.6743787 C54.1885187,45.0440027 58.9805886,43.7626423 64.2866575,41.4872273 Z"/>
      <path fill="#A0CC83" d="M36.8022634,18.6094272 C36.8022634,18.6094272 45.7984565,27.1764796 49.8571082,45.6161902 C49.8571082,45.6161902 45.383863,22.7905173 36.8022634,18.6094272 Z"/>
      <path fill="url(#icon_removals-g)" d="M47.3816701,22.3322824 C47.3816701,22.3322824 62.324006,30.7914436 67.7755463,38.0916827 C67.7755463,38.2129088 74.8490924,34.2015353 74.5011734,30.1162139 C74.5035979,30.1962232 67.4542969,33.5263057 47.3816701,22.3322824 Z"/>
      <path fill="url(#icon_removals-h)" d="M61.6863564,42.6012957 C61.6863564,42.6012957 73.7471467,38.8517707 78.7210559,31.0084384 C81.6171487,26.4430614 79.4981155,18.3900078 73.3434636,16.5485825 C72.3020061,16.2409325 71.2336314,16.0331028 70.1527912,15.9279046 C70.1527912,15.9279046 79.0823098,31.3515084 61.6863564,42.6012957 Z"/>
      <path fill="#3A844C" d="M0.0283090641,2.95064463 C0.0283090641,2.95064463 -0.329308096,1.03284685 1.49757007,0 C1.52666435,0.0400046314 5.67381114,0 5.67381114,0 L4.65793596,2.64879151 C4.65793596,2.64879151 2.85045397,4.75933888 0.0283090641,2.95064463 Z"/>
      <path fill="#A0CC83" d="M47.7453485,22.548065 C47.7453485,22.548065 61.6087717,30.4277651 67.5427923,37.8225606 C67.5440043,37.8225606 64.0393561,31.1357259 47.7453485,22.548065 Z"/>
      <path fill="#357C49" d="M4.51246457,2.33239124 C4.51246457,2.33239124 4.36456866,1.19892668 5.67381114,0 C9.11299718,6.2249631 23.3182781,11.0109717 25.7003721,11.7589371 L39.3177062,16.0018526 C41.9811067,16.8818375 44.524908,18.0891964 46.8907041,19.5962081 L61.0984096,28.6360425 L54.5752301,25.5969028 L42.6368783,18.9803792 L20.8646607,13.1445521 C20.8646607,13.1445521 4.50744161,7.15234319 4.51246457,2.33239124 Z"/>
      <path fill="#2E7244" d="M61.0984096,28.6360425 C61.0984096,28.6360425 58.3635475,27.6892663 57.4131345,27.243154 C56.3354339,26.7364287 54.4564285,26.0757461 53.0562664,25.324144 L47.6823109,22.4389614 C44.996433,20.9972935 42.1475274,19.8825575 39.19648,19.118577 C39.19648,19.118577 20.7276752,13.7846262 16.0422843,11.9844178 C11.0707996,10.0860162 4.97676075,8.6216042 0.0283090641,2.95064463 C0.0283090641,2.95064463 2.73528912,3.95560946 4.51367683,2.33239124 C6.1514422,6.4710522 11.457511,8.25550121 21.6368713,12.3396104 C22.9622773,12.870581 24.309504,13.3417466 25.6785514,13.7531074 L39.6280451,17.9414711 C42.3922111,18.7709485 45.050721,19.9185624 47.5501744,21.3612609 L54.6297819,25.4465824 C55.1599443,25.7520723 55.7026334,26.0325088 56.2578492,26.2878919 L61.0984096,28.6360425 Z"/>
      <path fill="#509B5F" d="M4.51246457 2.33239124C4.51246457 2.33239124 6.0787065 6.15707646 12.8697958 8.7004012 12.8697958 8.7004012 6.09325364 6.59591514 4.51246457 2.33239124zM31.0852379 15.3751133L39.3055836 17.7608441C42.0964915 18.5707785 44.7750064 19.7269749 47.2786278 21.2024547L47.2786278 21.2024547 46.2142622 20.6508756C44.3942043 19.7076286 42.4945047 18.9267356 40.5372413 18.3172721L31.0852379 15.3751133z" opacity=".6"/>
    </g>
  </g>
</svg>
