<svg xmlns="http://www.w3.org/2000/svg" width="107" height="118" viewBox="0 0 107 118">
  <defs>
    <linearGradient id="group-20-a" x1=".001%" x2="100.001%" y1="50%" y2="50%">
      <stop offset="0%" stop-color="#60855C"/>
      <stop offset="100%" stop-color="#6E9C52"/>
    </linearGradient>
    <linearGradient id="group-20-b" x1="26.894%" x2="75.91%" y1="40.897%" y2="66.33%">
      <stop offset="0%" stop-color="#60855C"/>
      <stop offset="21%" stop-color="#669057"/>
      <stop offset="55%" stop-color="#6C9953"/>
      <stop offset="100%" stop-color="#6E9C52"/>
    </linearGradient>
    <linearGradient id="group-20-c" x1="23.753%" x2="76.88%" y1="37.953%" y2="66.339%">
      <stop offset="0%" stop-color="#60855C"/>
      <stop offset="21%" stop-color="#669057"/>
      <stop offset="55%" stop-color="#6C9953"/>
      <stop offset="100%" stop-color="#6E9C52"/>
    </linearGradient>
    <linearGradient id="group-20-d" x1="21.745%" x2="66.953%" y1="81.812%" y2="29.796%">
      <stop offset="0%" stop-color="#99CC72"/>
      <stop offset="100%" stop-color="#74A05E"/>
    </linearGradient>
    <linearGradient id="group-20-e" x1="42.838%" x2="65.624%" y1="73.07%" y2="31.417%">
      <stop offset="0%" stop-color="#99CC73"/>
      <stop offset="100%" stop-color="#74A05E"/>
    </linearGradient>
    <linearGradient id="group-20-f" x1="19.043%" x2="59.294%" y1="67.252%" y2="33.707%">
      <stop offset="1%" stop-color="#99CC73"/>
      <stop offset="100%" stop-color="#74A05E"/>
    </linearGradient>
    <linearGradient id="group-20-g" x1="0%" x2="100.003%" y1="50.015%" y2="50.015%">
      <stop offset="0%" stop-color="#8FC777"/>
      <stop offset="31%" stop-color="#8CC274"/>
      <stop offset="67%" stop-color="#82B46B"/>
      <stop offset="100%" stop-color="#74A05E"/>
    </linearGradient>
    <linearGradient id="group-20-h" x1="29.728%" x2="66.565%" y1="102.772%" y2="9.84%">
      <stop offset="0%" stop-color="#60855C"/>
      <stop offset="100%" stop-color="#6E9C52"/>
    </linearGradient>
  </defs>
  <g fill="none">
    <path fill="#333" d="M20.667,9.144 C21.819,9.144 22.587,8.712 23.103,8.22 L22.515,7.476 C22.107,7.836 21.579,8.184 20.715,8.184 C19.431,8.184 18.435,7.248 18.435,4.86 C18.435,2.376 19.503,1.524 20.727,1.524 C21.315,1.524 21.855,1.716 22.359,2.136 L22.983,1.404 C22.335,0.876 21.711,0.588 20.655,0.588 C18.807,0.588 17.223,2.076 17.223,4.86 C17.223,7.644 18.675,9.144 20.667,9.144 Z M27.327,9.144 C29.355,9.144 30.759,7.632 30.759,4.872 C30.759,2.064 29.355,0.588 27.327,0.588 C25.299,0.588 23.895,2.124 23.895,4.884 C23.895,7.692 25.299,9.144 27.327,9.144 Z M27.327,8.208 C26.019,8.208 25.107,7.308 25.107,4.884 C25.107,2.46 25.983,1.524 27.327,1.524 C28.671,1.524 29.547,2.448 29.547,4.872 C29.547,7.296 28.671,8.208 27.327,8.208 Z M35.863,10 L35.973,9.23 L32.963,9.23 C35.013,7.28 35.813,6.29 35.813,5.1 C35.813,4 35.033,3.21 33.803,3.21 C32.963,3.21 32.313,3.55 31.773,4.22 L32.393,4.7 C32.823,4.19 33.193,3.97 33.753,3.97 C34.403,3.97 34.853,4.38 34.853,5.13 C34.853,6.17 34.273,6.91 31.913,9.27 L31.913,10 L35.863,10 Z M45.393,9.144 L45.657,8.376 C45.333,8.256 45.189,8.076 45.189,7.572 L45.189,4.596 C45.189,3.312 44.493,2.532 42.885,2.532 C42.261,2.532 41.553,2.652 40.773,2.94 L41.061,3.756 C41.709,3.528 42.297,3.432 42.717,3.432 C43.641,3.432 44.085,3.768 44.085,4.656 L44.085,5.148 L43.269,5.148 C41.349,5.148 40.293,5.88 40.293,7.188 C40.293,8.364 41.073,9.144 42.345,9.144 C43.113,9.144 43.785,8.856 44.229,8.256 C44.421,8.82 44.829,9.072 45.393,9.144 Z M42.645,8.316 C41.853,8.316 41.505,7.92 41.505,7.14 C41.505,6.372 41.973,5.88 43.329,5.88 L44.085,5.88 L44.085,7.44 C43.725,7.992 43.245,8.316 42.645,8.316 Z M50.229,9.144 C51.861,9.144 52.725,7.752 52.725,5.832 C52.725,3.84 52.053,2.532 50.373,2.532 C49.653,2.532 49.041,2.88 48.585,3.48 L48.585,0 L47.481,0.132 L47.481,9 L48.453,9 L48.525,8.352 C48.945,8.892 49.509,9.144 50.229,9.144 Z M49.965,8.268 C49.401,8.268 48.909,7.968 48.585,7.476 L48.585,4.392 C48.921,3.888 49.437,3.408 50.109,3.408 C51.045,3.408 51.537,4.188 51.537,5.832 C51.537,7.488 50.973,8.268 49.965,8.268 Z M56.109,9.144 C57.369,9.144 58.605,8.568 58.605,7.212 C58.605,5.988 57.717,5.58 56.601,5.268 C55.533,4.98 55.137,4.776 55.137,4.236 C55.137,3.732 55.629,3.408 56.313,3.408 C56.985,3.408 57.453,3.6 57.909,3.912 L58.401,3.168 C57.885,2.796 57.225,2.532 56.361,2.532 C55.029,2.532 53.997,3.24 53.997,4.308 C53.997,5.34 54.729,5.832 55.869,6.12 C57.117,6.432 57.417,6.672 57.417,7.296 C57.417,7.884 56.889,8.256 56.085,8.256 C55.413,8.256 54.825,8.028 54.333,7.62 L53.721,8.316 C54.273,8.796 55.041,9.144 56.109,9.144 Z M62.601,9.144 C64.389,9.144 65.421,7.788 65.421,5.832 C65.421,3.828 64.413,2.532 62.613,2.532 C60.813,2.532 59.781,3.888 59.781,5.844 C59.781,7.848 60.801,9.144 62.601,9.144 Z M62.601,8.256 C61.545,8.256 60.969,7.488 60.969,5.844 C60.969,4.188 61.557,3.42 62.613,3.42 C63.657,3.42 64.233,4.188 64.233,5.832 C64.233,7.488 63.657,8.256 62.601,8.256 Z M68.385,9 L68.385,5.292 C68.601,4.416 69.105,3.612 69.897,3.612 C70.125,3.612 70.257,3.636 70.449,3.684 L70.653,2.604 C70.461,2.556 70.233,2.532 70.029,2.532 C69.285,2.532 68.733,3 68.373,3.888 L68.241,2.676 L67.281,2.676 L67.281,9 L68.385,9 Z M74.637,9.144 C76.269,9.144 77.133,7.752 77.133,5.832 C77.133,3.84 76.461,2.532 74.781,2.532 C74.061,2.532 73.449,2.88 72.993,3.48 L72.993,0 L71.889,0.132 L71.889,9 L72.861,9 L72.933,8.352 C73.353,8.892 73.917,9.144 74.637,9.144 Z M74.373,8.268 C73.809,8.268 73.317,7.968 72.993,7.476 L72.993,4.392 C73.329,3.888 73.845,3.408 74.517,3.408 C75.453,3.408 75.945,4.188 75.945,5.832 C75.945,7.488 75.381,8.268 74.373,8.268 Z M81.357,9.144 C82.173,9.144 82.881,8.856 83.469,8.388 L82.965,7.656 C82.425,8.1 81.957,8.244 81.381,8.244 C80.421,8.244 79.773,7.62 79.677,6.216 L83.709,6.216 C83.721,6.072 83.733,5.868 83.733,5.652 C83.733,3.72 82.833,2.532 81.177,2.532 C79.497,2.532 78.501,3.936 78.501,5.844 C78.501,7.812 79.473,9.144 81.357,9.144 Z M82.641,5.4 L79.677,5.4 C79.761,4.044 80.313,3.408 81.177,3.408 C82.161,3.408 82.617,4.092 82.641,5.4 Z M87.465,9.144 C88.173,9.144 88.821,8.832 89.277,8.184 L89.373,9 L90.345,9 L90.345,0.132 L89.241,0 L89.241,3.264 C88.821,2.784 88.257,2.532 87.549,2.532 C85.989,2.532 85.053,3.936 85.053,5.844 C85.053,7.836 85.833,9.144 87.465,9.144 Z M87.717,8.268 C86.769,8.268 86.241,7.512 86.241,5.844 C86.241,4.2 86.829,3.408 87.837,3.408 C88.401,3.408 88.905,3.696 89.241,4.188 L89.241,7.296 C88.905,7.812 88.389,8.268 87.717,8.268 Z"/>
    <g transform="translate(14 18)">
      <g transform="matrix(1 0 0 -1 21 36)">
        <g opacity=".5" transform="translate(0 26)">
          <path fill="#BD201F" d="M5.6,6.4 L3.86,7.24 L3.86,6.34 L5.32,5.66 C5.39026184,5.62998382 5.46973816,5.62998382 5.54,5.66 L5.54,5.66 C5.68294933,5.7214307 5.78022587,5.85685408 5.79280001,6.01193513 C5.80537415,6.16701619 5.7311854,6.31634216 5.6,6.4 L5.6,6.4 Z"/>
          <path fill="#3C3C3C" d="M6,6.22 L4.86,6.76 C4.82849685,6.46931593 4.69364536,6.19961297 4.48,6 L5.4,5.56 C5.4,5.56 5.96,5.56 6.04,6.12 C6,6.18 6,6.2 6,6.22 Z"/>
          <path fill="#BD201F" d="M4.86,5.44 L3.46,6.12 C3.347463,6.16754265 3.21849436,6.15476821 3.11747088,6.08607224 C3.01644739,6.01737627 2.95715665,5.90213433 2.96,5.78 L2.96,5.46 L4.52,4.72 L4.68,4.72 C4.77187114,4.67397211 4.88025716,4.67486286 4.97135941,4.72239447 C5.06246166,4.76992607 5.12519614,4.85831559 5.14,4.96 L5.14,4.96 C5.15818766,5.16325227 5.04587673,5.35578529 4.86,5.44 L4.86,5.44 Z"/>
          <path fill="#3C3C3C" d="M5.1,5.34 L4.14,5.78 C4.10680052,5.51124732 4.003322,5.25600031 3.84,5.04 L4.52,4.72 L4.94,4.52 C5.08,4.52 5.22,4.98 5.16,5.26 L5.1,5.34 Z"/>
          <circle cx="2.14" cy="7.18" r="1.9" fill="#BD201F"/>
          <circle cx="6.82" cy="4.74" r="1.9" fill="#484848"/>
          <path fill="#BD201F" d="M8.18,2.94 L10,2.1 L10,3.02 L8.54,3.7 C8.46973816,3.73001618 8.39026184,3.73001618 8.32,3.7 L8.32,3.7 C8.13949489,3.68563654 7.99115202,3.55180484 7.95834791,3.37372538 C7.9255438,3.19564593 8.01646131,3.01773995 8.18,2.94 L8.18,2.94 Z"/>
          <path fill="#3C3C3C" d="M7.78,3.14 L8.92,2.58 C8.94577753,2.861014 9.08254365,3.12014982 9.3,3.3 L8.36,3.74 C8.36,3.74 7.82,3.74 7.74,3.2 C7.74,3.18 7.74,3.14 7.78,3.14 Z"/>
          <path fill="#BD201F" d="M8.76,4 L10.16,3.32 C10.2711944,3.26482844 10.4029679,3.27083318 10.5086837,3.33588906 C10.6143995,3.40094493 10.6791428,3.51587361 10.68,3.64 L10.68,4 L9.12,4.74 L8.96,4.74 C8.86476764,4.77775253 8.75796168,4.77314492 8.66633437,4.72733126 C8.57470706,4.68151761 8.50693739,4.5988374 8.48,4.5 L8.48,4.5 C8.46479034,4.29230153 8.57496483,4.09556137 8.76,4 L8.76,4 Z"/>
          <path fill="#3C3C3C" d="M8.54,4 L9.48,3.54 C9.52267662,3.8157566 9.63257635,4.07676847 9.8,4.3 L9.12,4.62 L8.7,4.82 C8.54,4.82 8.42,4.36 8.48,4.08 C8.54,3.8 8.5,4 8.54,4 Z"/>
          <circle cx="11.58" cy="2.22" r="1.9" fill="#BD201F"/>
        </g>
        <g opacity=".7" transform="translate(0 16)">
          <path fill="#BD201F" d="M5.56,7.8 L3.8,8.64 L3.8,7.74 L5.26,7.04 L5.52,7.04 C5.67121312,7.10117694 5.77332792,7.24437414 5.7819013,7.40726835 C5.79047468,7.57016256 5.7039558,7.72328785 5.56,7.8 L5.56,7.8 Z"/>
          <path fill="#3C3C3C" d="M6,7.62 L4.84,8.16 C4.81210473,7.87961904 4.67573873,7.62124135 4.46,7.44 L5.4,7 C5.4,7 5.94,7 6.02,7.54 C6,7.58 6,7.6 6,7.62 Z"/>
          <path fill="#BD201F" d="M4.82,6.84 L3.42,7.5 C3.31142534,7.55818961 3.17986869,7.55310057 3.07611369,7.48669737 C2.97235868,7.42029416 2.91263605,7.30296447 2.92,7.18 L2.92,6.84 L4.46,6.12 L4.62,6.12 C4.71463716,6.07476749 4.82485411,6.07574785 4.91867168,6.12265664 C5.01248926,6.16956542 5.07940372,6.25715077 5.1,6.36 L5.1,6.36 C5.10715256,6.56063629 4.99816782,6.74746726 4.82,6.84 L4.82,6.84 Z"/>
          <path fill="#3C3C3C" d="M5.04,6.74 L4.1,7.18 C4.06490341,6.9081877 3.95400816,6.65174243 3.78,6.44 L4.46,6.12 L4.9,6 C5.04,6 5.16,6.46 5.12,6.74 C5.09360547,6.74538776 5.06639453,6.74538776 5.04,6.74 Z"/>
          <circle cx="2.1" cy="8.56" r="1.9" fill="#BD201F"/>
          <circle cx="6.76" cy="6.14" r="1.9" fill="#484848"/>
          <path fill="#BD201F" d="M8.12,4.34 L9.88,3.5 L9.88,4.42 L8.44,5.1 C8.36973816,5.13001618 8.29026184,5.13001618 8.22,5.1 L8.22,5.1 C8.06142145,5.05259747 7.94546882,4.91648198 7.92387706,4.7523846 C7.9022853,4.58828721 7.97908101,4.4268101 8.12,4.34 Z"/>
          <path fill="#3C3C3C" d="M7.72,4.54 L8.88,4 C8.90789527,4.28038096 9.04426127,4.53875865 9.26,4.72 L8.32,5.16 C8.32,5.16 7.78,5.16 7.7,4.62 L7.72,4.54 Z"/>
          <path fill="#BD201F" d="M8.72,5.34 L10.12,4.66 C10.2285747,4.60181039 10.3601313,4.60689943 10.4638863,4.67330263 C10.5676413,4.73970584 10.6273639,4.85703553 10.62,4.98 L10.62,5.32 L9.08,6 L8.92,6 C8.82536284,6.04523251 8.71514589,6.04425215 8.62132832,5.99734336 C8.52751074,5.95043458 8.46059628,5.86284923 8.44,5.76 L8.44,5.76 C8.45062785,5.57970479 8.55766129,5.41915463 8.72,5.34 Z"/>
          <path fill="#3C3C3C" d="M8.5,5.44 L9.44,4.98 C9.47251168,5.25853359 9.58348649,5.52209876 9.76,5.74 L9.08,6 L8.64,6.2 C8.5,6.2 8.38,5.74 8.42,5.46 L8.5,5.44 Z"/>
          <circle cx="11.52" cy="3.62" r="1.9" fill="#BD201F"/>
        </g>
        <g opacity=".9" transform="translate(.08 8.86)">
          <path fill="#BD201F" d="M5.36,6.08 L3.6,6.92 L3.6,6 L5.04,5.32 C5.11026184,5.28998382 5.18973816,5.28998382 5.26,5.32 L5.26,5.32 C5.41857855,5.36740253 5.53453118,5.50351802 5.55612294,5.6676154 C5.5777147,5.83171279 5.50091899,5.9931899 5.36,6.08 L5.36,6.08 Z"/>
          <path fill="#3C3C3C" d="M5.76,5.88 L4.62,6.44 C4.58447887,6.16197266 4.44949254,5.9062091 4.24,5.72 L5.16,5.28 C5.16,5.28 5.7,5.28 5.78,5.82 L5.76,5.88 Z"/>
          <path fill="#BD201F" d="M4.62,5.14 L3.22,5.82 C3.11142534,5.87818961 2.97986869,5.87310057 2.87611369,5.80669737 C2.77235868,5.74029416 2.71263605,5.62296447 2.72,5.5 L2.72,5.14 L4.28,4.4 L4.42,4.4 C4.51523236,4.36224747 4.62203832,4.36685508 4.71366563,4.41266874 C4.80529294,4.45848239 4.87306261,4.5411626 4.9,4.64 L4.9,4.64 C4.92730962,4.85020937 4.81349864,5.05344325 4.62,5.14 Z"/>
          <path fill="#3C3C3C" d="M4.86,5 L3.92,5.46 C3.88929734,5.18451264 3.78574538,4.92218102 3.62,4.7 L4.3,4.38 L4.72,4.18 C4.86,4.18 5,4.64 4.94,4.92 L4.86,5 Z"/>
          <circle cx="1.9" cy="6.84" r="1.9" fill="#BD201F"/>
          <circle cx="6.56" cy="4.4" r="1.9" fill="#484848"/>
          <path fill="#BD201F" d="M7.92,2.62 L9.66,1.78 L9.66,2.68 L8.2,3.38 L7.92,3.38 C7.75585019,3.32604657 7.64489996,3.17278928 7.64489996,3 C7.64489996,2.82721072 7.75585019,2.67395343 7.92,2.62 L7.92,2.62 Z"/>
          <path fill="#3C3C3C" d="M7.54,2.8 L8.68,2.26 C8.70789527,2.54038096 8.84426127,2.79875865 9.06,2.98 L8.12,3.42 C8.12,3.42 7.58,3.42 7.5,2.88 C7.5,2.84 7.5,2.82 7.54,2.8 Z"/>
          <path fill="#BD201F" d="M8.52,3.6 L9.92,2.92 C10.0348683,2.87439199 10.1647412,2.887496 10.2681834,2.95513129 C10.3716256,3.02276658 10.4357134,3.13648301 10.44,3.26 L10.44,3.58 L8.88,4.32 L8.72,4.32 C8.62536284,4.36523251 8.51514589,4.36425215 8.42132832,4.31734336 C8.32751074,4.27043458 8.26059628,4.18284923 8.24,4.08 L8.24,4.08 C8.23284744,3.87936371 8.34183218,3.69253274 8.52,3.6 L8.52,3.6 Z"/>
          <path fill="#3C3C3C" d="M8.3,3.7 L9.24,3.26 C9.27509659,3.5318123 9.38599184,3.78825757 9.56,4 L8.88,4.32 L8.46,4.52 C8.3,4.52 8.18,4.06 8.24,3.78 C8.24427344,3.74452995 8.26714531,3.71403412 8.3,3.7 L8.3,3.7 Z"/>
          <circle cx="11.34" cy="1.9" r="1.9" fill="#BD201F"/>
        </g>
        <path fill="#BD201F" d="M5.56,6.16 L3.8,7 L3.8,6 L5.26,5.32 C5.33026184,5.28998382 5.40973816,5.28998382 5.48,5.32 L5.48,5.32 C5.71195959,5.29790862 5.9179086,5.46804041 5.93999998,5.7 C5.96209137,5.93195959 5.79195959,6.1379086 5.56,6.16 L5.56,6.16 Z"/>
        <path fill="#3C3C3C" d="M6,6 L4.84,6.56 C4.81210473,6.27961904 4.67573873,6.02124135 4.46,5.84 L5.4,5.4 C5.4,5.4 6,5.44 6,6 Z"/>
        <path fill="#BD201F" d="M4.82,5.18 L3.42,5.86 C3.31142534,5.91818961 3.17986869,5.91310057 3.07611369,5.84669737 C2.97235868,5.78029416 2.91263605,5.66296447 2.92,5.54 L2.92,5.2 L4.46,4.46 L4.62,4.46 C4.71523236,4.42224747 4.82203832,4.42685508 4.91366563,4.47266874 C5.00529294,4.51848239 5.07306261,4.6011626 5.1,4.7 L5.1,4.7 C5.11235761,4.90190914 5.00183787,5.09137155 4.82,5.18 L4.82,5.18 Z"/>
        <path fill="#3C3C3C" d="M5.04,5.08 L4.1,5.54 C4.06748832,5.26146641 3.95651351,4.99790124 3.78,4.78 L4.46,4.46 L4.9,4.26 C5.04,4.26 5.16,4.72 5.12,5 L5.04,5.08 Z"/>
        <circle cx="2.1" cy="6.92" r="1.9" fill="#BD201F"/>
        <circle cx="6.76" cy="4.48" r="1.9" fill="#484848"/>
        <path fill="#BD201F" d="M8.12,2.7 L9.88,1.86 L9.88,2.76 L8.44,3.46 C8.36810817,3.48056308 8.29189183,3.48056308 8.22,3.46 L8.22,3.46 C8.06142145,3.41259747 7.94546882,3.27648198 7.92387706,3.1123846 C7.9022853,2.94828721 7.97908101,2.7868101 8.12,2.7 Z"/>
        <path fill="#3C3C3C" d="M7.72,2.88 L8.88,2.34 C8.90789527,2.62038096 9.04426127,2.87875865 9.26,3.06 L8.32,3.5 C8.32,3.5 7.78,3.5 7.7,2.96 C7.68,2.92 7.7,2.9 7.72,2.88 Z"/>
        <path fill="#BD201F" d="M8.72,3.68 L10.12,3 C10.232537,2.95245735 10.3615056,2.96523179 10.4625291,3.03392776 C10.5635526,3.10262373 10.6228433,3.21786567 10.62,3.34 L10.62,3.66 L9.08,4.4 L8.92,4.4 C8.82536284,4.44523251 8.71514589,4.44425215 8.62132832,4.39734336 C8.52751074,4.35043458 8.46059628,4.26284923 8.44,4.16 L8.44,4.16 C8.43284744,3.95936371 8.54183218,3.77253274 8.72,3.68 L8.72,3.68 Z"/>
        <path fill="#3C3C3C" d="M8.5,3.78 L9.44,3.34 C9.48876584,3.58364611 9.59890829,3.81081492 9.76,4 L9.08,4.32 L8.64,4.52 C8.5,4.52 8.38,4.06 8.42,3.78 L8.5,3.78 Z"/>
        <circle cx="11.52" cy="1.98" r="1.9" fill="#BD201F"/>
        <g opacity=".5" transform="translate(14 26)">
          <path fill="#BD201F" d="M9.34,6.36 L11.08,7.2 L11.08,6.3 L9.62,5.6 C9.54973816,5.56998382 9.47026184,5.56998382 9.4,5.6 L9.4,5.6 C9.24649688,5.65682326 9.13998993,5.79764912 9.12710768,5.96082429 C9.11422543,6.12399946 9.19731503,6.27979347 9.34,6.36 Z"/>
          <path fill="#3C3C3C" d="M8.94,6.16 L10.08,6.72 C10.1155211,6.44197266 10.2505075,6.1862091 10.46,6 L9.54,5.54 C9.54,5.54 8.98,5.54 8.9,6.1 L8.94,6.16 Z"/>
          <path fill="#BD201F" d="M10,5.38 L11.4,6.06 C11.5111944,6.11517156 11.6429679,6.10916682 11.7486837,6.04411094 C11.8543995,5.97905507 11.9191428,5.86412639 11.92,5.74 L11.92,5.4 L10.36,4.66 L10.22,4.66 C10.1253628,4.61476749 10.0151459,4.61574785 9.92132832,4.66265664 C9.82751074,4.70956542 9.76059628,4.79715077 9.74,4.9 L9.74,4.9 C9.71839179,5.09850465 9.82193095,5.28965387 10,5.38 Z"/>
          <path fill="#3C3C3C" d="M9.84,5.28 L10.78,5.74 C10.8226766,5.4642434 10.9325763,5.20323153 11.1,4.98 L10.42,4.66 L10,4.46 C9.86,4.46 9.72,4.92 9.78,5.2 C9.84,5.48 9.82,5.26 9.84,5.28 Z"/>
          <circle cx="12.8" cy="7.14" r="1.9" fill="#BD201F"/>
          <circle cx="8.14" cy="4.68" r="1.9" fill="#484848"/>
          <path fill="#BD201F" d="M6.78,2.88 L5.04,2 L5.04,2.9 L6.48,3.6 C6.55026184,3.63001618 6.62973816,3.63001618 6.7,3.6 L6.7,3.6 C6.83602153,3.53923815 6.92967694,3.41096803 6.94612859,3.26290318 C6.96258024,3.11483832 6.89936596,2.96913824 6.78,2.88 L6.78,2.88 Z"/>
          <path fill="#3C3C3C" d="M7.18,3.08 L6,2.52 C5.9595098,2.79643048 5.82537028,3.05058957 5.62,3.24 L6.54,3.68 C6.54,3.68 7.08,3.68 7.16,3.14 L7.18,3.08 Z"/>
          <path fill="#BD201F" d="M6.18,3.86 L4.78,3.18 C4.67071774,3.13379783 4.54568773,3.1444086 4.44575426,3.20836603 C4.34582078,3.27232345 4.28381773,3.38141384 4.28,3.5 L4.28,3.84 L5.82,4.58 L5.98,4.58 C6.07463716,4.62523251 6.18485411,4.62425215 6.27867168,4.57734336 C6.37248926,4.53043458 6.43940372,4.44284923 6.46,4.34 L6.46,4.34 C6.46247123,4.14056913 6.35481426,3.95601433 6.18,3.86 Z"/>
          <path fill="#3C3C3C" d="M6.4,4 L5.46,3.54 C5.42490341,3.8118123 5.31400816,4.06825757 5.14,4.28 L5.82,4.6 L6.24,4.82 C6.4,4.82 6.52,4.36 6.46,4.08 C6.4,3.8 6.44,4 6.4,4 Z"/>
          <circle cx="3.38" cy="2.14" r="1.9" fill="#BD201F"/>
        </g>
        <g opacity=".7" transform="translate(14 16)">
          <path fill="#BD201F" d="M9.42,7.74 L11.16,8.6 L11.16,7.68 L9.7,7 C9.62973816,6.96998382 9.55026184,6.96998382 9.48,7 L9.48,7 C9.33705067,7.0614307 9.23977413,7.19685408 9.22719999,7.35193513 C9.21462585,7.50701619 9.2888146,7.65634216 9.42,7.74 Z"/>
          <path fill="#3C3C3C" d="M9.02,7.56 L10.16,8.1 C10.198383,7.82856731 10.3332897,7.58005499 10.54,7.4 L9.62,6.94 C9.31993909,6.98052338 9.0704406,7.19103774 8.98,7.48 C8.98,7.51147573 8.99481942,7.54111456 9.02,7.56 L9.02,7.56 Z"/>
          <path fill="#BD201F" d="M10.16,6.78 L11.54,7.46 C11.6511944,7.51517156 11.7829679,7.50916682 11.8886837,7.44411094 C11.9943995,7.37905507 12.0591428,7.26412639 12.06,7.14 L12.06,6.8 L10.52,6 L10.36,6 C10.2653628,5.95476749 10.1551459,5.95574785 10.0613283,6.00265664 C9.96751074,6.04956542 9.90059628,6.13715077 9.88,6.24 L9.88,6.24 C9.83281457,6.46371328 9.94997073,6.68965731 10.16,6.78 Z"/>
          <path fill="#3C3C3C" d="M10,6.68 L10.96,7.14 C10.9925117,6.86146641 11.1034865,6.59790124 11.28,6.38 L10.52,6 L10.08,5.8 C9.94,5.8 9.8,6.26 9.86,6.54 C9.92,6.82 10,6.66 10,6.68 Z"/>
          <circle cx="12.88" cy="8.52" r="1.9" fill="#BD201F"/>
          <circle cx="8.22" cy="6.08" r="1.9" fill="#484848"/>
          <path fill="#BD201F" d="M6.86,4.28 L5.12,3.44 L5.12,4.34 L6.58,5.04 C6.65026184,5.07001618 6.72973816,5.07001618 6.8,5.04 L6.8,5.04 C6.95350312,4.98317674 7.06001007,4.84235088 7.07289232,4.67917571 C7.08577457,4.51600054 7.00268497,4.36020653 6.86,4.28 L6.86,4.28 Z"/>
          <path fill="#3C3C3C" d="M7.26,4.46 L6.12,4 C6.0795098,4.27643048 5.94537028,4.53058957 5.74,4.72 L6.66,5.16 C6.96006091,5.11947662 7.2095594,4.90896226 7.3,4.62 C7.32184981,4.59531532 7.3301301,4.5614479 7.3221347,4.52946632 C7.31413931,4.49748475 7.29089556,4.47149834 7.26,4.46 L7.26,4.46 Z"/>
          <path fill="#BD201F" d="M6.26,5.26 L4.86,4.58 C4.75142534,4.52181039 4.61986869,4.52689943 4.51611369,4.59330263 C4.41235868,4.65970584 4.35263605,4.77703553 4.36,4.9 L4.36,5.24 L6,6 L6,6 C6.09463716,6.04523251 6.20485411,6.04425215 6.29867168,5.99734336 C6.39248926,5.95043458 6.45940372,5.86284923 6.48,5.76 L6.48,5.76 C6.50716318,5.56513445 6.42201916,5.37162532 6.26,5.26 Z"/>
          <path fill="#3C3C3C" d="M6.48,5.36 L5.54,4.92 C5.50490341,5.1918123 5.39400816,5.44825757 5.22,5.66 L6,6 L6.42,6.2 C6.58,6.2 6.7,5.76 6.66,5.46 L6.48,5.36 Z"/>
          <circle cx="3.46" cy="3.54" r="1.9" fill="#BD201F"/>
        </g>
        <g opacity=".9" transform="translate(15.72 8.78)">
          <path fill="#BD201F" d="M7.86,6.1 L9.6,6.94 L9.6,6.04 L8.14,5.34 C8.06973816,5.30998382 7.99026184,5.30998382 7.92,5.34 L7.92,5.34 C7.76649688,5.39682326 7.65998993,5.53764912 7.64710768,5.70082429 C7.63422543,5.86399946 7.71731503,6.01979347 7.86,6.1 L7.86,6.1 Z"/>
          <path fill="#3C3C3C" d="M7.46,5.9 L8.6,6.46 C8.62789527,6.17961904 8.76426127,5.92124135 8.98,5.74 L8.04,5.22 C8.04,5.22 7.5,5.22 7.42,5.76 C7.42,5.86 7.44,5.9 7.46,5.9 Z"/>
          <path fill="#BD201F" d="M8.58,5.22 L9.98,5.9 C10.0911944,5.95517156 10.2229679,5.94916682 10.3286837,5.88411094 C10.4343995,5.81905507 10.4991428,5.70412639 10.5,5.58 L10.5,5.22 L8.94,4.48 L8.78,4.48 C8.68536284,4.43476749 8.57514589,4.43574785 8.48132832,4.48265664 C8.38751074,4.52956542 8.32059628,4.61715077 8.3,4.72 L8.3,4.72 C8.28990609,4.92652895 8.39863514,5.12068796 8.58,5.22 L8.58,5.22 Z"/>
          <path fill="#3C3C3C" d="M8.28,5.02 L9.22,5.48 C9.26502089,5.21101597 9.37484994,4.95703629 9.54,4.74 L8.86,4.42 L8.44,4.2 C8.3,4.2 8.16,4.66 8.22,4.94 C8.28,5.22 8.28,5 8.28,5.02 Z"/>
          <circle cx="11.3" cy="6.88" r="1.9" fill="#BD201F"/>
          <circle cx="6.64" cy="4.42" r="1.9" fill="#484848"/>
          <path fill="#BD201F" d="M5.3,2.62 L3.56,1.78 L3.56,2.68 L5,3.38 C5.07026184,3.41001618 5.14973816,3.41001618 5.22,3.38 L5.22,3.38 C5.37596128,3.32775948 5.487076,3.1892894 5.50429434,3.02571519 C5.52151268,2.86214098 5.44166547,2.70356966 5.3,2.62 L5.3,2.62 Z"/>
          <path fill="#3C3C3C" d="M5.7,2.82 L4.56,2.26 C4.51747461,2.54025402 4.37548528,2.79583481 4.16,2.98 L5.1,3.42 C5.39922661,3.38729731 5.64652966,3.17190433 5.72,2.88 C5.72,2.88 5.72,2.84 5.7,2.82 Z"/>
          <path fill="#BD201F" d="M4.7,3.62 L3.3,2.94 C3.19494998,2.8869104 3.07058134,2.8885275 2.96694719,2.9443305 C2.86331304,3.0001335 2.79350319,3.10307406 2.78,3.22 L2.78,3.56 L4.34,4.3 L4.5,4.3 C4.59463716,4.34523251 4.70485411,4.34425215 4.79867168,4.29734336 C4.89248926,4.25043458 4.95940372,4.16284923 4.98,4.06 L4.98,4.06 C4.97660836,3.87241717 4.86849152,3.70251928 4.7,3.62 Z"/>
          <path fill="#3C3C3C" d="M4.92,3.72 L3.98,3.22 C3.94490341,3.4918123 3.83400816,3.74825757 3.66,3.96 L4.34,4.3 L4.76,4.5 C4.92,4.5 5.04,4.04 4.98,3.76 C4.92,3.48 4.96,3.74 4.92,3.72 Z"/>
          <circle cx="1.9" cy="1.9" r="1.9" fill="#BD201F"/>
        </g>
        <path fill="#BD201F" d="M23.5,6.1 L25.24,6.94 L25.24,6 L23.78,5.3 C23.7097382,5.26998382 23.6302618,5.26998382 23.56,5.3 L23.56,5.3 C23.3806807,5.34124725 23.2490881,5.49441282 23.2353266,5.6778995 C23.2215651,5.86138617 23.3288393,6.03246675 23.5,6.1 L23.5,6.1 Z"/>
        <path fill="#3C3C3C" d="M23.1,6 L24.24,6.56 C24.2804902,6.28356952 24.4146297,6.02941043 24.62,5.84 L23.7,5.4 C23.7,5.4 23.14,5.4 23.06,5.94 C23.06,5.86 23.08,6 23.1,6 Z"/>
        <path fill="#BD201F" d="M24.22,5.14 L25.62,5.82 C25.7311944,5.87517156 25.8629679,5.86916682 25.9686837,5.80411094 C26.0743995,5.73905507 26.1391428,5.62412639 26.14,5.5 L26.14,5.16 L24.58,4.42 L24.44,4.42 C24.3453628,4.37476749 24.2351459,4.37574785 24.1413283,4.42265664 C24.0475107,4.46956542 23.9805963,4.55715077 23.96,4.66 L23.96,4.66 C23.9439716,4.85736873 24.0459307,5.04560089 24.22,5.14 Z"/>
        <path fill="#3C3C3C" d="M24,5.02 L24.94,5.48 C24.9850209,5.21101597 25.0948499,4.95703629 25.26,4.74 L24.58,4.42 L24.16,4.2 C24.02,4.2 23.88,4.66 23.94,4.94 C24,5.22 24,5 24,5.02 Z"/>
        <circle cx="26.96" cy="6.88" r="1.9" fill="#BD201F"/>
        <circle cx="22.3" cy="4.42" r="1.9" fill="#484848"/>
        <path fill="#BD201F" d="M20.94,2.62 L19.2,1.78 L19.2,2.68 L20.64,3.38 C20.7102618,3.41001618 20.7897382,3.41001618 20.86,3.38 L20.86,3.38 C21.0159613,3.32775948 21.127076,3.1892894 21.1442943,3.02571519 C21.1615127,2.86214098 21.0816655,2.70356966 20.94,2.62 L20.94,2.62 Z"/>
        <path fill="#3C3C3C" d="M21.34,2.82 L20.2,2.26 C20.1595098,2.53643048 20.0253703,2.79058957 19.82,2.98 L20.74,3.42 C21.0392266,3.38729731 21.2865297,3.17190433 21.36,2.88 C21.36,2.88 21.36,2.84 21.34,2.82 Z"/>
        <path fill="#BD201F" d="M20.34,3.6 L18.94,2.94 C18.8314253,2.88181039 18.6998687,2.88689943 18.5961137,2.95330263 C18.4923587,3.01970584 18.4326361,3.13703553 18.44,3.26 L18.44,3.6 L19.98,4.34 L20.14,4.34 C20.2346372,4.38523251 20.3448541,4.38425215 20.4386717,4.33734336 C20.5324893,4.29043458 20.5994037,4.20284923 20.62,4.1 L20.62,4.1 C20.6254716,3.89458444 20.5180002,3.70267135 20.34,3.6 L20.34,3.6 Z"/>
        <path fill="#3C3C3C" d="M20.56,3.72 L19.62,3.26 C19.5849034,3.5318123 19.4740082,3.78825757 19.3,4 L19.98,4.34 L20.4,4.54 C20.56,4.54 20.68,4.08 20.62,3.8 C20.56,3.52 20.6,3.74 20.56,3.72 Z"/>
        <circle cx="17.54" cy="1.9" r="1.9" fill="#BD201F"/>
      </g>
      <g transform="translate(0 53)">
        <path fill="#A0CC83" d="M21.445334,13.376094 C21.445334,13.376094 34.0528542,11.7916682 39.9226247,2.51423047 C39.9226247,2.51423047 34.9547768,10.0423747 21.445334,13.376094 Z"/>
        <path fill="url(#group-20-a)" d="M16.45809,14.1301207 C16.45809,14.1301207 10.0331037,17.9148013 10.2961645,21.3212563 C10.794404,27.6019834 13.8359682,37.3509909 26.895662,43.0655919 C32.4623671,44.8051872 45.1026183,49.791219 64.5860861,41.4411614 C64.5860861,41.4411614 82.4451234,35.0634533 75.486742,24.045208 C75.583723,24.045208 71.1783644,23.4390772 63.8490311,18.6506441 C61.2953896,16.976407 58.9799854,14.9643949 56.9658099,12.6693455 C52.2585983,7.32812112 41.4597723,-3.21491765 23.5316362,1.19892668 C23.5316362,1.32015284 14.9500366,2.93852202 16.9223861,10.3611995 L16.45809,14.1301207 Z"/>
        <path fill="url(#group-20-b)" d="M55.241974,10.8133731 C52.1022166,7.56572439 47.2689297,3.48040293 40.5942176,1.43289316 C40.5942176,1.43289316 36.072482,10.7673072 21.4259378,13.3700327 L37.0810836,18.7039836 C37.0810836,18.7039836 52.4089187,21.2630677 55.241974,10.8133731 Z"/>
        <path fill="#A0CC83" d="M49.8571082,25.959369 C49.8571082,25.959369 60.0243458,29.9986245 66.0795923,20.5526825 C66.0795923,20.5526825 62.8452785,27.1001071 49.8571082,25.959369 Z" opacity=".7"/>
        <path fill="url(#group-20-c)" d="M66.4323604,20.2205228 C65.6161043,19.748549 64.7529741,19.2167702 63.8429698,18.6251866 C61.289566,16.950161 58.9742112,14.937784 56.9597486,12.6426758 C56.5209099,12.143224 56.0287318,11.5989186 55.4820018,11.0255189 C55.4019925,10.9479341 55.320771,10.8691371 55.2395495,10.7830666 C55.2395495,10.7830666 52.8150264,20.2459803 37.699337,18.8070258 L53.6830056,26.0442273 C53.6830056,26.0442273 61.6863564,27.3316491 66.4323604,20.2205228 Z"/>
        <path fill="#A0CC83" d="M37.0810836,18.7039836 C37.0810836,18.7039836 50.106834,22.6814138 54.9522435,11.5516404 C54.9522435,11.5552772 51.0463367,20.638753 37.0810836,18.7039836 Z" opacity=".7"/>
        <path fill="#A0CC83" d="M21.5786828,13.5930889 C21.5786828,13.5930889 34.1255899,13.1833444 40.5954299,1.43289316 C40.5942176,1.43289316 34.4989665,11.8547058 21.5786828,13.5930889 Z" opacity=".8"/>
        <path fill="url(#group-20-d)" d="M28.3940173,43.5444352 C32.6926968,44.9264134 39.8850446,47.0854512 49.9068109,45.6719542 C43.807923,20.6448143 37.0956307,18.7112572 37.0956307,18.7112572 L21.440485,13.3773063 C26.2361917,21.0654691 28.2461214,41.926066 28.3940173,43.5444352 Z"/>
        <path fill="url(#group-20-e)" d="M28.3600739,43.5286758 L28.3600739,43.5286758 C29.2438126,12.8014821 16.9223861,10.3563505 16.9223861,10.3563505 L16.9223861,10.3563505 C15.9198246,12.0732989 14.6703717,13.6335833 13.214078,14.9871896 C11.3956857,16.7049643 10.4937631,18.7609599 10.2961645,21.315195 C9.81125984,27.6286532 13.8274824,37.3170476 26.8374734,43.0340731 L28.2994609,43.5092796 L28.3600739,43.5286758 Z"/>
        <path fill="#A0CC83" d="M21.676876,13.376094 C21.676876,13.376094 29.5626374,24.6258813 28.4025031,43.5286758 C28.4025031,43.5286758 31.6501518,27.1764796 21.676876,13.376094 Z"/>
        <path fill="url(#group-20-f)" d="M64.2866575,41.4872273 C66.0449734,40.8172489 67.7399757,39.9916554 69.3514863,39.020275 C68.4944174,38.232305 52.3798245,21.3491383 36.9174283,18.640946 C36.9174283,18.640946 45.5608532,26.1569676 49.8971128,45.6743787 C54.1885187,45.0440027 58.9805886,43.7626423 64.2866575,41.4872273 Z"/>
        <path fill="#A0CC83" d="M36.8022634,18.6094272 C36.8022634,18.6094272 45.7984565,27.1764796 49.8571082,45.6161902 C49.8571082,45.6161902 45.383863,22.7905173 36.8022634,18.6094272 Z"/>
        <path fill="url(#group-20-g)" d="M47.3816701,22.3322824 C47.3816701,22.3322824 62.324006,30.7914436 67.7755463,38.0916827 C67.7755463,38.2129088 74.8490924,34.2015353 74.5011734,30.1162139 C74.5035979,30.1962232 67.4542969,33.5263057 47.3816701,22.3322824 Z"/>
        <path fill="url(#group-20-h)" d="M61.6863564,42.6012957 C61.6863564,42.6012957 73.7471467,38.8517707 78.7210559,31.0084384 C81.6171487,26.4430614 79.4981155,18.3900078 73.3434636,16.5485825 C72.3020061,16.2409325 71.2336314,16.0331028 70.1527912,15.9279046 C70.1527912,15.9279046 79.0823098,31.3515084 61.6863564,42.6012957 Z"/>
        <path fill="#3A844C" d="M0.0283090641,2.95064463 C0.0283090641,2.95064463 -0.329308096,1.03284685 1.49757007,0 C1.52666435,0.0400046314 5.67381114,0 5.67381114,0 L4.65793596,2.64879151 C4.65793596,2.64879151 2.85045397,4.75933888 0.0283090641,2.95064463 Z"/>
        <path fill="#A0CC83" d="M47.7453485,22.548065 C47.7453485,22.548065 61.6087717,30.4277651 67.5427923,37.8225606 C67.5440043,37.8225606 64.0393561,31.1357259 47.7453485,22.548065 Z"/>
        <path fill="#357C49" d="M4.51246457,2.33239124 C4.51246457,2.33239124 4.36456866,1.19892668 5.67381114,0 C9.11299718,6.2249631 23.3182781,11.0109717 25.7003721,11.7589371 L39.3177062,16.0018526 C41.9811067,16.8818375 44.524908,18.0891964 46.8907041,19.5962081 L61.0984096,28.6360425 L54.5752301,25.5969028 L42.6368783,18.9803792 L20.8646607,13.1445521 C20.8646607,13.1445521 4.50744161,7.15234319 4.51246457,2.33239124 Z"/>
        <path fill="#2E7244" d="M61.0984096,28.6360425 C61.0984096,28.6360425 58.3635475,27.6892663 57.4131345,27.243154 C56.3354339,26.7364287 54.4564285,26.0757461 53.0562664,25.324144 L47.6823109,22.4389614 C44.996433,20.9972935 42.1475274,19.8825575 39.19648,19.118577 C39.19648,19.118577 20.7276752,13.7846262 16.0422843,11.9844178 C11.0707996,10.0860162 4.97676075,8.6216042 0.0283090641,2.95064463 C0.0283090641,2.95064463 2.73528912,3.95560946 4.51367683,2.33239124 C6.1514422,6.4710522 11.457511,8.25550121 21.6368713,12.3396104 C22.9622773,12.870581 24.309504,13.3417466 25.6785514,13.7531074 L39.6280451,17.9414711 C42.3922111,18.7709485 45.050721,19.9185624 47.5501744,21.3612609 L54.6297819,25.4465824 C55.1599443,25.7520723 55.7026334,26.0325088 56.2578492,26.2878919 L61.0984096,28.6360425 Z"/>
        <path fill="#509B5F" d="M4.51246457 2.33239124C4.51246457 2.33239124 6.0787065 6.15707646 12.8697958 8.7004012 12.8697958 8.7004012 6.09325364 6.59591514 4.51246457 2.33239124zM31.0852379 15.3751133L39.3055836 17.7608441C42.0964915 18.5707785 44.7750064 19.7269749 47.2786278 21.2024547L47.2786278 21.2024547 46.2142622 20.6508756C44.3942043 19.7076286 42.4945047 18.9267356 40.5372413 18.3172721L31.0852379 15.3751133z" opacity=".6"/>
      </g>
    </g>
  </g>
</svg>
