<?xml version="1.0" encoding="utf-8"?>
<!-- Generated by IcoMoon.io -->
<!DOCTYPE svg PUBLIC "-//W3C//DTD SVG 1.1//EN" "http://www.w3.org/Graphics/SVG/1.1/DTD/svg11.dtd">
<svg version="1.1" xmlns="http://www.w3.org/2000/svg" xmlns:xlink="http://www.w3.org/1999/xlink" width="23" height="19" viewBox="0 0 23 19">
<path d="M17.733 15.517c0 0.193 0.035 0.377 0.098 0.548 0.223 0.604 0.804 1.036 1.485 1.036 0.874 0 1.583-0.709 1.583-1.583 0-0.612-0.347-1.142-0.855-1.406l1.637-5.254c0.056 0.006 0.111 0.010 0.168 0.010 0.874 0 1.583-0.709 1.583-1.583s-0.709-1.583-1.583-1.583c-0.874 0-1.583 0.709-1.583 1.583 0 0.593 0.325 1.109 0.808 1.381l-1.64 5.273-0.117-0.003c-0.85 0-1.541 0.671-1.58 1.511l-0.003 0.073zM19.238 14.57l0.079-0.003c0.199 0 0.383 0.060 0.535 0.165 0.251 0.171 0.415 0.458 0.415 0.785 0 0.525-0.425 0.95-0.95 0.95-0.363 0-0.679-0.204-0.839-0.503-0.071-0.133-0.111-0.285-0.111-0.446 0-0.061 0.005-0.119 0.016-0.177 0.078-0.415 0.427-0.734 0.855-0.77zM21.875 8.233h-0.025c-0.218 0-0.419-0.073-0.579-0.196-0.226-0.174-0.37-0.447-0.37-0.754 0-0.525 0.425-0.95 0.95-0.95s0.95 0.425 0.95 0.95c0 0.516-0.412 0.936-0.925 0.95zM7.283 19c0.849 0 1.541-0.667 1.58-1.507l0.003-0.076c0-0.193-0.035-0.377-0.098-0.548-0.223-0.604-0.804-1.035-1.485-1.035-0.35 0-0.675 0.112-0.937 0.304l-3.398-2.986c0.139-0.235 0.219-0.508 0.219-0.801 0-0.251-0.057-0.489-0.162-0.7l13.892-8.984c0.288 0.307 0.698 0.5 1.153 0.5 0.874 0 1.583-0.709 1.583-1.583s-0.709-1.583-1.583-1.583c-0.874 0-1.583 0.709-1.583 1.583 0 0.192 0.036 0.374 0.098 0.545l-13.949 9.022c-0.277-0.239-0.637-0.383-1.032-0.383-0.874 0-1.583 0.709-1.583 1.583s0.709 1.583 1.583 1.583c0.352 0 0.677-0.116 0.94-0.31l3.398 2.983c-0.141 0.237-0.222 0.515-0.222 0.811 0 0.874 0.709 1.583 1.583 1.583zM17.442 2.315c-0.164-0.136-0.28-0.328-0.323-0.545-0.012-0.061-0.019-0.123-0.019-0.187 0-0.525 0.425-0.95 0.95-0.95s0.95 0.425 0.95 0.95c0 0.525-0.425 0.95-0.95 0.95-0.231 0-0.443-0.081-0.608-0.219zM2.457 12.72c-0.085 0.201-0.236 0.367-0.427 0.469-0.133 0.071-0.285 0.111-0.447 0.111-0.525 0-0.95-0.425-0.95-0.95s0.425-0.95 0.95-0.95c0.167 0 0.326 0.045 0.462 0.12 0.191 0.106 0.34 0.274 0.421 0.478 0.044 0.109 0.067 0.227 0.067 0.351 0 0.132-0.028 0.256-0.076 0.37zM6.413 17.037c0.087-0.199 0.24-0.362 0.431-0.462 0.132-0.069 0.281-0.108 0.44-0.108 0.363 0 0.679 0.205 0.839 0.503 0.071 0.133 0.111 0.285 0.111 0.447 0 0.061-0.005 0.12-0.016 0.177-0.082 0.441-0.47 0.773-0.934 0.773-0.525 0-0.95-0.425-0.95-0.95 0-0.135 0.029-0.264 0.079-0.38zM8.864 17.493l8.968-1.428c-0.063-0.171-0.098-0.355-0.098-0.548l0.003-0.073-8.968 1.425c0.063 0.171 0.098 0.355 0.098 0.548l-0.003 0.076z" fill="rgb(68, 68, 68)"></path>
</svg>
