<?xml version="1.0" encoding="utf-8"?>
<!-- Generated by IcoMoon.io -->
<!DOCTYPE svg PUBLIC "-//W3C//DTD SVG 1.1//EN" "http://www.w3.org/Graphics/SVG/1.1/DTD/svg11.dtd">
<svg version="1.1" xmlns="http://www.w3.org/2000/svg" xmlns:xlink="http://www.w3.org/1999/xlink" width="20" height="19" viewBox="0 0 20 19">
<path d="M11.138 4.095v0.632l0.011 0.011c0.218 0.214 0.434 0.428 0.644 0.645v-1.49c0-0.431-1.396-0.893-1.5-0.944l1.782-0.353c0.016-0.003 0.155-0.077 0.167-0.088l1.35-1.334c0.703 1.096 1.417 2.194 1.942 3.391 0.020 0.045 0.174 0.175 0.222 0.186l1.961 0.485c0.11 1.177 0.002 2.973-0.528 3.889-0.341 0.589 0.894 0.653 2.068 0.943l-0.393 1.566c-1.37-0.155-2.575-0.474-3.309 0.426-0.299-1.899-1.088-3.437-2.139-4.819 0.096-0.245-0.13-0.457-0.347-0.439-0.398-0.486-0.826-0.957-1.274-1.418-0.211-0.217-0.426-0.431-0.644-0.645l-0.011-0.011c-0.312-0.285-0.756 0.176-0.448 0.479l0.205 0.203c-0.608 0.247-1.218 0.387-1.826 0.483-2.43 0.384-4.598 0.117-6.077 2.694-0.181 0.315 0.206 0.492 0.513 0.597-0.031 0.086-0.023 0.187 0.045 0.289l0.027 0.042-0.983 0.97h-1.503c-0.058 0-0.239 0.097-0.272 0.144l-0.764 1.715c-0.009 0.014-0.056 0.166-0.056 0.183v1.079c0 0.073 0.108 0.253 0.171 0.288 1.815 0.985 2.845 2.255 4.277 3.699-0.201 0.199-1.664 1.409-0.627 1.409h5.678c0.174 0 0.328-0.153 0.328-0.328v-1.635c1.082-0.591 2.054-1.409 2.876-2.313l0.547 1.61c-0.912 0.9-2.278 2.010-1.239 2.010h3.276c0.117 0 0.287-0.131 0.317-0.244 0.501-1.898 3.636-3.286 2.534-3.722l-2.473-0.977c0.459-1.928 2.004-1.214 3.415-1.089 0.608 0.054 1.314-2.639 0.653-2.803l-1.792-0.442c0.144-0.35 0.994-4.206 0.154-4.414l-2.028-0.5c-0.588-1.295-1.38-2.48-2.142-3.675-0.359-0.562-1.097 0.527-2.074 1.493l-2.634 0.52c-0.384 0.076-0.432 0.442-0.082 0.615l2.001 0.988zM9.172 17.696v0.649h-4.334c0.126-0.124 0.987-0.634 0.633-0.984-1.525-1.509-2.927-2.871-4.817-3.949v-0.881l0.94-1.392h1.135c0.033 0 0.207-0.071 0.23-0.095 0.405-0.4 0.744-0.705 1.013-0.944l0.669 0.99c0.047 0.070 0.242 0.154 0.325 0.14l3.088-0.508 1.848 2.283c-0.335 0.273-2.535 2.946-1.944 3.53l1.092 1.079c0.039 0.038 0.080 0.066 0.121 0.082zM15.148 12.828c-0.072 0.209-0.132 0.445-0.182 0.717-0.116 0.627 2.351 1.31 2.42 1.337-0.835 0.717-1.945 1.775-2.336 2.807h-2.241c1.729-1.71 1.359-0.995 0.041-3.599-0.124-0.245-0.366-0.368-0.543-0.158-0.887 1.050-1.751 1.993-2.958 2.618-0.061 0.031-0.155 0.179-0.174 0.264l-0.606-0.596c0.415-1.085 1.089-2.285 1.985-2.881 0.573-0.381-0.927-1.941-1.707-2.747l2.671-0.44c0.042-0.007 0.205-0.117 0.227-0.153l1.305-2.149c0.995 1.362 1.697 2.859 1.911 4.714 0.016 0.137 0.091 0.225 0.186 0.265zM9.171 6.539c0.298-0.047 1.577-0.273 2.232-0.616 0.433 0.45 0.842 0.903 1.219 1.369l-1.36 2.237-6.195 1.019-0.603-0.894c0.478-0.47 0.28-0.545-0.721-1.038 1.325-1.99 3.396-1.756 5.427-2.077z" fill="#000000"></path>
</svg>
