<?xml version="1.0" encoding="utf-8"?>
<!-- Generated by IcoMoon.io -->
<!DOCTYPE svg PUBLIC "-//W3C//DTD SVG 1.1//EN" "http://www.w3.org/Graphics/SVG/1.1/DTD/svg11.dtd">
<svg version="1.1" xmlns="http://www.w3.org/2000/svg" xmlns:xlink="http://www.w3.org/1999/xlink" width="19" height="16" viewBox="0 0 19 16">
<path d="M14.933 13.067c0 0.163 0.029 0.317 0.083 0.461 0.188 0.509 0.677 0.872 1.251 0.872 0.736 0 1.333-0.597 1.333-1.333 0-0.515-0.292-0.962-0.72-1.184l1.379-4.424c0.047 0.005 0.093 0.008 0.141 0.008 0.736 0 1.333-0.597 1.333-1.333s-0.597-1.333-1.333-1.333c-0.736 0-1.333 0.597-1.333 1.333 0 0.499 0.274 0.934 0.68 1.163l-1.381 4.44-0.099-0.003c-0.716 0-1.298 0.565-1.331 1.272l-0.003 0.061zM16.2 12.269l0.067-0.003c0.168 0 0.323 0.051 0.451 0.139 0.211 0.144 0.349 0.386 0.349 0.661 0 0.442-0.358 0.8-0.8 0.8-0.306 0-0.572-0.172-0.707-0.424-0.060-0.112-0.093-0.24-0.093-0.376 0-0.051 0.004-0.1 0.013-0.149 0.066-0.349 0.36-0.618 0.72-0.648zM18.421 6.933h-0.021c-0.184 0-0.353-0.061-0.488-0.165-0.19-0.147-0.312-0.376-0.312-0.635 0-0.442 0.358-0.8 0.8-0.8s0.8 0.358 0.8 0.8c0 0.435-0.347 0.788-0.779 0.8zM6.133 16c0.715 0 1.298-0.562 1.331-1.269l0.003-0.064c0-0.163-0.029-0.317-0.083-0.461-0.188-0.509-0.677-0.872-1.251-0.872-0.295 0-0.568 0.094-0.789 0.256l-2.861-2.515c0.117-0.198 0.184-0.428 0.184-0.675 0-0.211-0.048-0.412-0.136-0.589l11.699-7.565c0.243 0.259 0.588 0.421 0.971 0.421 0.736 0 1.333-0.597 1.333-1.333s-0.597-1.333-1.333-1.333c-0.736 0-1.333 0.597-1.333 1.333 0 0.162 0.030 0.315 0.083 0.459l-11.747 7.597c-0.233-0.201-0.536-0.323-0.869-0.323-0.736 0-1.333 0.597-1.333 1.333s0.597 1.333 1.333 1.333c0.296 0 0.57-0.098 0.792-0.261l2.861 2.512c-0.119 0.2-0.187 0.434-0.187 0.683 0 0.736 0.597 1.333 1.333 1.333zM14.688 1.949c-0.138-0.115-0.236-0.276-0.272-0.459-0.010-0.051-0.016-0.104-0.016-0.157 0-0.442 0.358-0.8 0.8-0.8s0.8 0.358 0.8 0.8c0 0.442-0.358 0.8-0.8 0.8-0.195 0-0.373-0.068-0.512-0.184zM2.069 10.712c-0.072 0.169-0.199 0.309-0.36 0.395-0.112 0.060-0.24 0.093-0.376 0.093-0.442 0-0.8-0.358-0.8-0.8s0.358-0.8 0.8-0.8c0.141 0 0.275 0.038 0.389 0.101 0.161 0.089 0.286 0.231 0.355 0.403 0.037 0.092 0.056 0.191 0.056 0.296 0 0.111-0.024 0.216-0.064 0.312zM5.4 14.347c0.073-0.168 0.202-0.305 0.363-0.389 0.111-0.058 0.237-0.091 0.371-0.091 0.306 0 0.572 0.173 0.707 0.424 0.060 0.112 0.093 0.24 0.093 0.376 0 0.051-0.004 0.101-0.013 0.149-0.069 0.371-0.396 0.651-0.787 0.651-0.442 0-0.8-0.358-0.8-0.8 0-0.114 0.024-0.222 0.067-0.32zM7.464 14.731l7.552-1.203c-0.053-0.144-0.083-0.299-0.083-0.461l0.003-0.061-7.552 1.2c0.053 0.144 0.083 0.299 0.083 0.461l-0.003 0.064z" fill="rgb(68, 68, 68)"></path>
</svg>
