<?xml version="1.0" encoding="utf-8"?>
<!-- Generated by IcoMoon.io -->
<!DOCTYPE svg PUBLIC "-//W3C//DTD SVG 1.1//EN" "http://www.w3.org/Graphics/SVG/1.1/DTD/svg11.dtd">
<svg version="1.1" xmlns="http://www.w3.org/2000/svg" xmlns:xlink="http://www.w3.org/1999/xlink" width="14" height="16" viewBox="0 0 14 16">
<path d="M7.404 9.039h2.598v2.598h-2.598v-2.598zM4.287 9.039h2.598v2.598h-2.598v-2.598zM7.404 6.441h2.598v2.078h-2.598v-2.078zM4.287 6.441h2.598v2.078h-2.598v-2.078zM1.17 8.593v-2.223c0.043 0.044 0.105 0.073 0.186 0.073h2.412v2.078h-2.412c-0.081 0-0.143 0.029-0.186 0.073zM1.17 11.709v-2.743c0.043 0.044 0.105 0.073 0.186 0.073h2.412v2.598h-2.412c-0.081 0-0.143 0.029-0.186 0.073zM3.767 14.753h-1.559c-0.574 0-1.039-0.465-1.039-1.039v-1.632c0.043 0.044 0.105 0.073 0.186 0.073h2.412v2.598zM6.884 14.753h-2.598v-2.598h2.598v2.598zM10.001 14.753h-2.598v-2.598h2.598v2.598zM13.119 12.156v1.559c0 0.574-0.465 1.039-1.039 1.039h-1.559v-2.598h2.598zM13.119 9.039v2.598h-2.598v-2.598h2.598zM13.119 6.441v2.078h-2.598v-2.078h2.598zM10.521 3.324h2.598v2.598h-2.598v-2.598zM7.404 3.324h2.598v2.598h-2.598v-2.598zM4.287 3.324h2.598v2.598h-2.598v-2.598zM1.17 3.324h2.598v2.598h-2.412c-0.081 0-0.143 0.029-0.186 0.073v-2.67zM0.65 2.286v11.43c0 0.861 0.697 1.559 1.559 1.559h9.871c0.861 0 1.559-0.697 1.559-1.559v-11.43c0-0.861-0.697-1.559-1.559-1.559h-9.871c-0.861 0-1.559 0.697-1.559 1.559z" fill="rgb(68, 68, 68)"></path>
</svg>
