<?xml version="1.0" encoding="utf-8"?>
<!-- Generated by IcoMoon.io -->
<!DOCTYPE svg PUBLIC "-//W3C//DTD SVG 1.1//EN" "http://www.w3.org/Graphics/SVG/1.1/DTD/svg11.dtd">
<svg version="1.1" xmlns="http://www.w3.org/2000/svg" xmlns:xlink="http://www.w3.org/1999/xlink" width="17" height="19" viewBox="0 0 17 19">
<path d="M8.821 10.857h3.393v3.393h-3.393v-3.393zM4.75 10.857h3.393v3.393h-3.393v-3.393zM8.821 7.464h3.393v2.714h-3.393v-2.714zM4.75 7.464h3.393v2.714h-3.393v-2.714zM0.679 10.274v-2.904c0.056 0.057 0.137 0.095 0.243 0.095h3.15v2.714h-3.15c-0.106 0-0.187 0.038-0.243 0.095zM0.679 14.345v-3.583c0.056 0.057 0.137 0.095 0.243 0.095h3.15v3.393h-3.15c-0.106 0-0.187 0.038-0.243 0.095zM4.071 18.321h-2.036c-0.75 0-1.357-0.608-1.357-1.357v-2.131c0.056 0.057 0.137 0.095 0.243 0.095h3.15v3.393zM8.143 18.321h-3.393v-3.393h3.393v3.393zM12.214 18.321h-3.393v-3.393h3.393v3.393zM16.286 14.929v2.036c0 0.75-0.608 1.357-1.357 1.357h-2.036v-3.393h3.393zM16.286 10.857v3.393h-3.393v-3.393h3.393zM16.286 7.464v2.714h-3.393v-2.714h3.393zM12.893 3.393h3.393v3.393h-3.393v-3.393zM8.821 3.393h3.393v3.393h-3.393v-3.393zM4.75 3.393h3.393v3.393h-3.393v-3.393zM0.679 3.393h3.393v3.393h-3.15c-0.106 0-0.187 0.038-0.243 0.095v-3.488zM0 2.036v14.929c0 1.124 0.911 2.036 2.036 2.036h12.893c1.124 0 2.036-0.911 2.036-2.036v-14.929c0-1.124-0.911-2.036-2.036-2.036h-12.893c-1.124 0-2.036 0.911-2.036 2.036z" fill="#000000"></path>
</svg>
