<?xml version="1.0" standalone="no"?><!-- Generator: Adobe Fireworks CS6, Export SVG Extension by Aaron Beall (http://fireworks.abeall.com) . Version: 0.6.1  --><!DOCTYPE svg PUBLIC "-//W3C//DTD SVG 1.1//EN" "http://www.w3.org/Graphics/SVG/1.1/DTD/svg11.dtd"><svg id="Untitled-Page%201" viewBox="0 0 21 20" style="background-color:#ffffff00" version="1.1"	xmlns="http://www.w3.org/2000/svg" xmlns:xlink="http://www.w3.org/1999/xlink" xml:space="preserve"	x="0px" y="0px" width="21px" height="20px">	<defs>		<radialGradient id="gradient1" cx="50%" cy="50.0008%" r="48.9215%">			<stop stop-color="#ffffff" stop-opacity="0.698" offset="0%"/>			<stop stop-color="#ffffff" stop-opacity="1" offset="100%"/>		</radialGradient>	</defs>	<g id="Layer%201">		<g>			<path d="M 0 0 L 0 16 L 0 18 L 10.7888 18 L 10.7888 16 L 2 16 L 2 0 L 0 0 ZM 8 3 L 8 15 L 11 15 L 11 3 L 8 3 ZM 12 6 L 12 15 L 15 15 L 15 6 L 12 6 ZM 4 7 L 4 15 L 7 15 L 7 7 L 4 7 Z" fill="#666666"/>			<path id="Ellipse" d="M 11.4426 14.873 C 11.4426 12.8743 13.028 11.2539 14.9836 11.2539 C 16.9392 11.2539 18.5247 12.8743 18.5247 14.873 C 18.5247 16.8718 16.9392 18.4921 14.9836 18.4921 C 13.028 18.4921 11.4426 16.8718 11.4426 14.873 Z" fill="url(#gradient1)"/>			<path d="M 11.9286 14.9283 C 11.9286 13.3085 13.1616 11.8926 14.7434 11.7607 C 16.3965 11.6229 17.7925 12.929 17.7925 14.6838 C 17.7925 16.4387 16.3965 17.8613 14.7434 17.8613 C 13.1616 17.8613 11.9286 16.5482 11.9286 14.9283 ZM 16.8628 18.2924 C 16.9011 18.3484 16.9465 18.3997 16.9972 18.4465 L 18.3977 19.7471 C 18.7448 20.0693 19.3121 20.0894 19.6858 19.7742 C 20.0846 19.438 20.1118 18.8545 19.7214 18.4919 L 18.1677 17.0496 C 18.6422 16.3569 18.9238 15.5164 18.9238 14.6106 C 18.9238 12.2416 17.0021 10.4783 14.7267 10.6643 C 12.5494 10.8423 10.8525 12.7538 10.8525 14.9406 C 10.8525 17.1274 12.5494 18.9 14.7267 18.9 C 15.5005 18.9 16.2327 18.6787 16.8628 18.2924 Z" fill="#666666"/>		</g>	</g></svg>