<?xml version="1.0" encoding="utf-8"?>
<!-- Generated by IcoMoon.io -->
<!DOCTYPE svg PUBLIC "-//W3C//DTD SVG 1.1//EN" "http://www.w3.org/Graphics/SVG/1.1/DTD/svg11.dtd">
<svg version="1.1" xmlns="http://www.w3.org/2000/svg" xmlns:xlink="http://www.w3.org/1999/xlink" width="17" height="16" viewBox="0 0 17 16">
<path d="M9.379 3.448v0.532l0.009 0.009c0.184 0.18 0.365 0.36 0.542 0.543v-1.255c0-0.363-1.176-0.752-1.263-0.795l1.501-0.297c0.013-0.003 0.131-0.065 0.141-0.074l1.137-1.123c0.592 0.923 1.193 1.848 1.635 2.856 0.017 0.038 0.147 0.147 0.187 0.157l1.651 0.408c0.093 0.991 0.002 2.504-0.445 3.275-0.287 0.496 0.753 0.55 1.741 0.794l-0.331 1.319c-1.154-0.131-2.168-0.399-2.787 0.359-0.252-1.599-0.916-2.894-1.801-4.058 0.081-0.206-0.109-0.385-0.292-0.37-0.335-0.409-0.696-0.806-1.073-1.194-0.178-0.183-0.359-0.363-0.542-0.543l-0.009-0.009c-0.263-0.24-0.637 0.148-0.377 0.403l0.173 0.171c-0.512 0.208-1.026 0.326-1.538 0.407-2.046 0.323-3.872 0.099-5.117 2.269-0.152 0.265 0.173 0.414 0.432 0.503-0.026 0.072-0.019 0.157 0.038 0.243l0.023 0.035-0.828 0.817h-1.266c-0.049 0-0.201 0.082-0.229 0.121l-0.643 1.444c-0.008 0.012-0.047 0.14-0.047 0.154v0.909c0 0.061 0.091 0.213 0.144 0.243 1.528 0.829 2.396 1.899 3.602 3.115-0.169 0.168-1.401 1.187-0.528 1.187h4.781c0.147 0 0.276-0.129 0.276-0.276v-1.377c0.911-0.498 1.73-1.187 2.422-1.948l0.461 1.356c-0.768 0.758-1.918 1.693-1.043 1.693h2.759c0.099 0 0.242-0.11 0.267-0.205 0.422-1.598 3.062-2.767 2.134-3.134l-2.083-0.823c0.387-1.624 1.688-1.022 2.876-0.917 0.512 0.045 1.107-2.222 0.55-2.36l-1.509-0.372c0.121-0.295 0.837-3.542 0.13-3.717l-1.708-0.421c-0.495-1.091-1.162-2.088-1.804-3.095-0.302-0.473-0.924 0.444-1.747 1.257l-2.218 0.438c-0.323 0.064-0.364 0.372-0.069 0.518l1.685 0.832zM7.724 14.902v0.547h-3.65c0.106-0.104 0.831-0.534 0.533-0.829-1.284-1.271-2.465-2.418-4.056-3.325v-0.742l0.792-1.172h0.956c0.028 0 0.174-0.060 0.194-0.080 0.341-0.337 0.627-0.594 0.853-0.795l0.563 0.834c0.040 0.059 0.204 0.13 0.274 0.118l2.6-0.428 1.556 1.923c-0.282 0.23-2.135 2.481-1.637 2.973l0.92 0.909c0.033 0.032 0.067 0.056 0.102 0.069zM12.756 10.803c-0.061 0.176-0.111 0.375-0.153 0.604-0.098 0.528 1.98 1.103 2.038 1.126-0.703 0.604-1.638 1.495-1.967 2.364h-1.887c1.456-1.44 1.144-0.838 0.035-3.031-0.104-0.206-0.308-0.31-0.457-0.133-0.747 0.884-1.475 1.678-2.491 2.205-0.051 0.026-0.131 0.151-0.147 0.222l-0.51-0.502c0.349-0.914 0.917-1.924 1.672-2.426 0.483-0.321-0.781-1.635-1.437-2.313l2.249-0.371c0.035-0.006 0.173-0.099 0.191-0.129l1.099-1.81c0.838 1.147 1.429 2.408 1.609 3.97 0.013 0.115 0.077 0.189 0.157 0.223zM7.723 5.507c0.251-0.040 1.328-0.23 1.88-0.519 0.365 0.379 0.709 0.76 1.027 1.153l-1.145 1.884-5.217 0.858-0.508-0.753c0.403-0.396 0.236-0.459-0.607-0.874 1.116-1.676 2.86-1.479 4.57-1.749z" fill="rgb(68, 68, 68)"></path>
</svg>
