<?xml version="1.0" encoding="utf-8"?>
<!-- Generated by IcoMoon.io -->
<!DOCTYPE svg PUBLIC "-//W3C//DTD SVG 1.1//EN" "http://www.w3.org/Graphics/SVG/1.1/DTD/svg11.dtd">
<svg version="1.1" xmlns="http://www.w3.org/2000/svg" xmlns:xlink="http://www.w3.org/1999/xlink" width="16" height="16" viewBox="0 0 16 16">
<path d="M12.001 3.2l-8.73 8.862 0.728 0.738 8.73-8.862-0.728-0.738zM10.584 7.17c0.091 0.261 0.141 0.539 0.141 0.83 0 1.448-1.22 2.622-2.725 2.622-0.251 0-0.492-0.034-0.723-0.095l-0.743 0.754c0.472 0.096 0.963 0.147 1.466 0.147 2.627 0 4.912-1.387 6.080-3.429-0.51-0.892-1.235-1.658-2.108-2.239l-1.388 1.409zM5.275 8c0-1.448 1.22-2.622 2.725-2.622 0.251 0 0.492 0.034 0.723 0.095l0.743-0.754c-0.472-0.097-0.963-0.147-1.466-0.147-2.627 0-4.912 1.387-6.080 3.429 0.51 0.892 1.235 1.658 2.108 2.239l1.388-1.409c-0.091-0.261-0.141-0.539-0.141-0.83zM7.561 6.652c-0.482 0.146-0.857 0.524-0.983 0.998l0.983-0.998zM8.439 9.348c0.482-0.146 0.857-0.523 0.983-0.998l-0.983 0.998z" fill="rgb(68, 68, 68)"></path>
</svg>
