<?xml version="1.0" encoding="utf-8"?>
<!-- Generated by IcoMoon.io -->
<!DOCTYPE svg PUBLIC "-//W3C//DTD SVG 1.1//EN" "http://www.w3.org/Graphics/SVG/1.1/DTD/svg11.dtd">
<svg version="1.1" xmlns="http://www.w3.org/2000/svg" xmlns:xlink="http://www.w3.org/1999/xlink" width="19" height="19" viewBox="0 0 19 19">
<path d="M14.252 3.8l-10.367 10.523 0.864 0.877 10.367-10.523-0.864-0.877zM12.569 8.515c0.108 0.31 0.168 0.64 0.168 0.985 0 1.72-1.449 3.113-3.236 3.113-0.298 0-0.584-0.040-0.858-0.113l-0.882 0.896c0.561 0.114 1.143 0.175 1.741 0.175 3.12 0 5.833-1.647 7.22-4.072-0.606-1.059-1.467-1.969-2.503-2.658l-1.649 1.673zM6.264 9.5c0-1.72 1.449-3.113 3.236-3.113 0.298 0 0.585 0.040 0.858 0.113l0.882-0.896c-0.561-0.115-1.143-0.175-1.741-0.175-3.12 0-5.833 1.647-7.22 4.072 0.606 1.059 1.467 1.969 2.503 2.658l1.649-1.673c-0.108-0.31-0.168-0.64-0.168-0.985zM8.978 7.9c-0.572 0.173-1.018 0.622-1.167 1.185l1.167-1.185zM10.022 11.1c0.573-0.173 1.018-0.622 1.167-1.185l-1.167 1.185z" fill="#000000"></path>
</svg>
