<?xml version="1.0" encoding="utf-8"?>
<!-- Generated by IcoMoon.io -->
<!DOCTYPE svg PUBLIC "-//W3C//DTD SVG 1.1//EN" "http://www.w3.org/Graphics/SVG/1.1/DTD/svg11.dtd">
<svg version="1.1" xmlns="http://www.w3.org/2000/svg" xmlns:xlink="http://www.w3.org/1999/xlink" width="19" height="19" viewBox="0 0 19 19">
<path d="M6.264 9.12c0-1.605 1.449-2.906 3.236-2.906s3.236 1.301 3.236 2.906c0 1.605-1.449 2.906-3.236 2.906s-3.236-1.301-3.236-2.906zM16.72 9.12c-1.387-2.263-4.1-4.56-7.22-4.56s-5.833 2.297-7.22 4.56c1.387 2.263 4.1 4.56 7.22 4.56s5.833-2.297 7.22-4.56zM7.757 9.12c0 0.864 0.78 1.565 1.743 1.565s1.743-0.7 1.743-1.565c0-0.864-0.78-1.565-1.743-1.565s-1.743 0.7-1.743 1.565z" fill="#000000"></path>
</svg>
