<?xml version="1.0" encoding="utf-8"?>
<!-- Generated by IcoMoon.io -->
<!DOCTYPE svg PUBLIC "-//W3C//DTD SVG 1.1//EN" "http://www.w3.org/Graphics/SVG/1.1/DTD/svg11.dtd">
<svg version="1.1" xmlns="http://www.w3.org/2000/svg" xmlns:xlink="http://www.w3.org/1999/xlink" width="16" height="16" viewBox="0 0 16 16">
<path d="M5.275 7.68c0-1.351 1.22-2.447 2.725-2.447s2.725 1.096 2.725 2.447c0 1.351-1.22 2.447-2.725 2.447s-2.725-1.096-2.725-2.447zM14.080 7.68c-1.168-1.906-3.453-3.84-6.080-3.84s-4.912 1.934-6.080 3.84c1.168 1.906 3.453 3.84 6.080 3.84s4.912-1.934 6.080-3.84zM6.532 7.68c0 0.728 0.657 1.317 1.468 1.317s1.468-0.59 1.468-1.317c0-0.728-0.657-1.317-1.468-1.317s-1.468 0.59-1.468 1.317z" fill="rgb(68, 68, 68)"></path>
</svg>
