<?xml version="1.0" encoding="utf-8"?>
<!-- Generated by IcoMoon.io -->
<!DOCTYPE svg PUBLIC "-//W3C//DTD SVG 1.1//EN" "http://www.w3.org/Graphics/SVG/1.1/DTD/svg11.dtd">
<svg version="1.1" xmlns="http://www.w3.org/2000/svg" xmlns:xlink="http://www.w3.org/1999/xlink" width="19" height="19" viewBox="0 0 19 19">
<path d="M4.471 8.983c0-2.107 1.639-3.948 3.742-4.12 2.198-0.179 4.053 1.52 4.053 3.802s-1.856 4.133-4.053 4.133c-2.103 0-3.742-1.708-3.742-3.815zM11.030 13.359c0.051 0.073 0.111 0.14 0.179 0.2l1.862 1.692c0.461 0.419 1.216 0.445 1.712 0.035 0.53-0.437 0.566-1.196 0.047-1.668l-2.065-1.876c0.631-0.901 1.005-1.994 1.005-3.172 0-3.081-2.555-5.375-5.579-5.133-2.894 0.232-5.15 2.718-5.15 5.562s2.256 5.15 5.15 5.15c1.029 0 2.002-0.288 2.84-0.79z" fill="rgb(68, 68, 68)"></path>
</svg>
