<?xml version="1.0" standalone="no"?><!-- Generator: Adobe Fireworks CS6, Export SVG Extension by Aaron Beall (http://fireworks.abeall.com) . Version: 0.6.1  --><!DOCTYPE svg PUBLIC "-//W3C//DTD SVG 1.1//EN" "http://www.w3.org/Graphics/SVG/1.1/DTD/svg11.dtd"><svg id="Untitled-Page%201" viewBox="0 0 25 25" style="background-color:#ffffff00" version="1.1"	xmlns="http://www.w3.org/2000/svg" xmlns:xlink="http://www.w3.org/1999/xlink" xml:space="preserve"	x="0px" y="0px" width="25px" height="25px">	<g id="Layer%201">		<path d="M 9 5 L 22 5 L 22 7 L 9 7 L 9 5 Z" fill="#cccccc"/>		<path d="M 9 12 L 19 12 L 19 14 L 9 14 L 9 12 Z" fill="#cccccc"/>		<path d="M 9 19 L 22 19 L 22 21 L 9 21 L 9 19 Z" fill="#cccccc"/>		<path id="Ellipse" d="M 1 6 C 1 4.8954 1.8954 4 3 4 C 4.1046 4 5 4.8954 5 6 C 5 7.1046 4.1046 8 3 8 C 1.8954 8 1 7.1046 1 6 Z" fill="#6c69e8"/>		<path id="Ellipse2" d="M 1 13 C 1 11.8954 1.8954 11 3 11 C 4.1046 11 5 11.8954 5 13 C 5 14.1046 4.1046 15 3 15 C 1.8954 15 1 14.1046 1 13 Z" fill="#ff6398"/>		<path id="Ellipse3" d="M 1 20 C 1 18.8954 1.8954 18 3 18 C 4.1046 18 5 18.8954 5 20 C 5 21.1046 4.1046 22 3 22 C 1.8954 22 1 21.1046 1 20 Z" fill="#90a6ca"/>	</g></svg>