<?xml version="1.0" standalone="no"?><!-- Generator: Adobe Fireworks CS6, Export SVG Extension by Aaron Beall (http://fireworks.abeall.com) . Version: 0.6.1  --><!DOCTYPE svg PUBLIC "-//W3C//DTD SVG 1.1//EN" "http://www.w3.org/Graphics/SVG/1.1/DTD/svg11.dtd"><svg id="Untitled-Page%201" viewBox="0 0 25 25" style="background-color:#ffffff00" version="1.1"	xmlns="http://www.w3.org/2000/svg" xmlns:xlink="http://www.w3.org/1999/xlink" xml:space="preserve"	x="0px" y="0px" width="25px" height="25px">	<g>		<path id="Ellipse" d="M 9 12 C 9 10.3431 10.3431 9 12 9 C 13.6569 9 15 10.3431 15 12 C 15 13.6569 13.6569 15 12 15 C 10.3431 15 9 13.6569 9 12 Z" fill="#666666"/>		<path id="Ellipse2" d="M 7 12 C 7 9.2386 9.2386 7 12 7 C 14.7614 7 17 9.2386 17 12 C 17 14.7614 14.7614 17 12 17 C 9.2386 17 7 14.7614 7 12 Z" stroke="#666666" stroke-width="2" fill="none"/>		<rect x="11" y="4" width="2" height="3" fill="#666666"/>		<rect x="11" y="17" width="2" height="3" fill="#666666"/>		<rect x="17" y="11" width="3" height="2" fill="#666666"/>		<rect x="4" y="11" width="3" height="2" fill="#666666"/>	</g></svg>