<?xml version="1.0" encoding="utf-8"?>
<!-- Generated by IcoMoon.io -->
<!DOCTYPE svg PUBLIC "-//W3C//DTD SVG 1.1//EN" "http://www.w3.org/Graphics/SVG/1.1/DTD/svg11.dtd">
<svg version="1.1" xmlns="http://www.w3.org/2000/svg" xmlns:xlink="http://www.w3.org/1999/xlink" width="16" height="16" viewBox="0 0 16 16">
<path d="M3.765 7.565c0-1.774 1.38-3.325 3.151-3.469 1.851-0.151 3.413 1.28 3.413 3.202s-1.563 3.48-3.413 3.48c-1.771 0-3.151-1.438-3.151-3.212zM9.288 11.25c0.043 0.061 0.094 0.117 0.15 0.169l1.568 1.425c0.388 0.353 1.024 0.375 1.442 0.029 0.446-0.368 0.477-1.007 0.040-1.404l-1.739-1.58c0.531-0.759 0.846-1.679 0.846-2.671 0-2.595-2.151-4.526-4.698-4.323-2.437 0.195-4.337 2.288-4.337 4.684s1.9 4.337 4.337 4.337c0.866 0 1.686-0.242 2.391-0.666z" fill="rgb(68, 68, 68)"></path>
</svg>
