<?xml version="1.0" encoding="utf-8"?>
<!-- Generated by IcoMoon.io -->
<!DOCTYPE svg PUBLIC "-//W3C//DTD SVG 1.1//EN" "http://www.w3.org/Graphics/SVG/1.1/DTD/svg11.dtd">
<svg version="1.1" xmlns="http://www.w3.org/2000/svg" xmlns:xlink="http://www.w3.org/1999/xlink" width="16" height="16" viewBox="0 0 16 16">
<path d="M8.735 1c0 0-3.14 0-4.187 0-1.877 0-3.643 1.422-3.643 3.069 0 1.683 1.279 3.042 3.189 3.042 0.133 0 0.262-0.003 0.388-0.012-0.124 0.237-0.213 0.505-0.213 0.782 0 0.468 0.252 0.847 0.57 1.157-0.24 0-0.473 0.007-0.726 0.007-2.325 0-4.114 1.481-4.114 3.016 0 1.512 1.962 2.458 4.286 2.458 2.65 0 4.114-1.504 4.114-3.016 0-1.213-0.358-1.939-1.464-2.721-0.378-0.268-1.102-0.919-1.102-1.302 0-0.449 0.128-0.67 0.804-1.198 0.692-0.541 1.182-1.302 1.182-2.186 0-1.053-0.469-2.080-1.35-2.418h1.327l0.937-0.677zM7.273 11.242c0.033 0.14 0.051 0.284 0.051 0.432 0 1.222-0.787 2.177-3.046 2.177-1.607 0-2.767-1.017-2.767-2.239 0-1.198 1.439-2.194 3.046-2.177 0.375 0.004 0.724 0.064 1.042 0.167 0.872 0.607 1.498 0.949 1.675 1.641zM4.7 6.684c-1.079-0.032-2.104-1.207-2.29-2.623s0.537-2.501 1.615-2.469c1.078 0.032 2.104 1.169 2.29 2.585s-0.537 2.538-1.616 2.506zM13 4v-3h-1v3h-3v1h3v3h1v-3h3v-1z" fill="#000000"></path>
</svg>
