<?xml version="1.0" standalone="no"?><!-- Generator: Adobe Fireworks CS6, Export SVG Extension by Aaron Beall (http://fireworks.abeall.com) . Version: 0.6.1  --><!DOCTYPE svg PUBLIC "-//W3C//DTD SVG 1.1//EN" "http://www.w3.org/Graphics/SVG/1.1/DTD/svg11.dtd"><svg id="Untitled-Page%201" viewBox="0 0 21 21" style="background-color:#ffffff00" version="1.1"	xmlns="http://www.w3.org/2000/svg" xmlns:xlink="http://www.w3.org/1999/xlink" xml:space="preserve"	x="0px" y="0px" width="21px" height="21px">	<g id="Layer%201">		<path d="M 14.9092 17.8823 L 17.0908 17.8823 L 17.0908 20 L 14.9092 20 L 14.9092 17.8823 ZM 16 8 L 19.2727 13.6471 L 12.7273 13.6471 L 16 8 ZM 16 10.1177 L 20 17.1765 L 12 17.1765 L 16 10.1177 ZM 8.5 5.311 C 10.3071 5.311 11.7737 6.7957 11.7737 8.6248 C 11.7737 10.4539 10.3071 11.9385 8.5 11.9385 C 6.6929 11.9385 5.2263 10.4539 5.2263 8.6248 C 5.2263 6.7957 6.6929 5.311 8.5 5.311 ZM 7.5725 0.0537 C 8.2179 -0.0178 8.7821 -0.0178 9.4275 0.0537 L 10.024 2.3568 C 10.4902 2.473 10.882 2.6173 11.3129 2.8317 L 13.2323 1.4554 C 13.7722 1.8206 14.2045 2.1876 14.6533 2.6624 L 13.6477 4.8148 C 13.9312 5.207 14.1395 5.5725 14.3335 6.0171 L 16.678 6.2118 C 16.8596 6.8428 16.9575 7.4052 17 8.061 L 14.8628 9.0555 C 14.8307 9.5404 14.7584 9.9561 14.6246 10.4227 L 16.2969 12.0972 C 16.0354 12.6987 15.7534 13.1934 15.3695 13.7234 L 13.1006 13.0946 C 12.7681 13.4453 12.4489 13.7166 12.0499 13.9871 L 12.2677 16.3578 C 11.6853 16.6484 11.1552 16.8438 10.5245 17 L 9.1858 15.0422 C 8.7085 15.0945 8.2915 15.0945 7.8142 15.0422 L 6.4755 17 C 5.8448 16.8438 5.3147 16.6484 4.7323 16.3578 L 4.9501 13.9871 C 4.5511 13.7166 4.2319 13.4453 3.8994 13.0946 L 1.6305 13.7234 C 1.2466 13.1934 0.9646 12.6987 0.7031 12.0972 L 2.3754 10.4227 C 2.2416 9.9561 2.1693 9.5404 2.1372 9.0555 L 0 8.061 C 0.0425 7.4052 0.1404 6.8428 0.322 6.2118 L 2.6665 6.0171 C 2.8605 5.5725 3.0688 5.207 3.3523 4.8148 L 2.3467 2.6624 C 2.7955 2.1876 3.2278 1.8206 3.7677 1.4554 L 5.6871 2.8317 C 6.118 2.6173 6.5098 2.473 6.976 2.3568 L 7.5725 0.0537 Z" fill="#666666"/>	</g></svg>