<?xml version="1.0" standalone="no"?><!-- Generator: Adobe Fireworks CS6, Export SVG Extension by Aaron Beall (http://fireworks.abeall.com) . Version: 0.6.1  --><!DOCTYPE svg PUBLIC "-//W3C//DTD SVG 1.1//EN" "http://www.w3.org/Graphics/SVG/1.1/DTD/svg11.dtd"><svg id="Untitled-Page%201" viewBox="0 0 16 16" style="background-color:#ffffff00" version="1.1"	xmlns="http://www.w3.org/2000/svg" xmlns:xlink="http://www.w3.org/1999/xlink" xml:space="preserve"	x="0px" y="0px" width="16px" height="16px">	<g>		<path d="M 0 8 C 0 9.6569 1.3431 11 3 11 C 3.809 11 4.5454 10.6805 5.085 10.16 L 10.0249 12.63 C 10.01 12.7515 10 12.8745 10 13 C 10 14.6569 11.3431 16 13 16 C 14.6569 16 16 14.6569 16 13 C 16 11.3431 14.6569 10 13 10 C 12.1909 10 11.459 10.3191 10.9199 10.84 L 5.975 8.37 C 5.9899 8.2484 6 8.1256 6 8 C 6 7.8743 5.9899 7.7517 5.975 7.63 L 10.915 5.16 C 11.4546 5.6805 12.191 6 13 6 C 14.6569 6 16 4.6569 16 3 C 16 1.3431 14.6569 0 13 0 C 11.3431 0 10 1.3431 10 3 C 10 3.1255 10.01 3.2485 10.0249 3.37 L 5.085 5.84 C 4.5454 5.3195 3.809 5 3 5 C 1.3431 5 0 6.3431 0 8 Z" fill="#666666"/>	</g></svg>