<?xml version="1.0" encoding="utf-8"?>
<!-- Generated by IcoMoon.io -->
<!DOCTYPE svg PUBLIC "-//W3C//DTD SVG 1.1//EN" "http://www.w3.org/Graphics/SVG/1.1/DTD/svg11.dtd">
<svg version="1.1" xmlns="http://www.w3.org/2000/svg" xmlns:xlink="http://www.w3.org/1999/xlink" width="18" height="16" viewBox="0 0 18 16">
<path d="M7.158 4.472c1.522 0 2.757 1.251 2.757 2.791s-1.235 2.791-2.757 2.791c-1.522 0-2.757-1.251-2.757-2.791s1.235-2.791 2.757-2.791zM10.147 11.779l0.198-0.141 0.433-0.5h-1.362l3.459-6.005-0.805-0.066c-0.163-0.375-0.339-0.682-0.578-1.012l0.847-1.812c-0.378-0.4-0.742-0.709-1.197-1.016l-1.616 1.159c-0.363-0.18-0.693-0.302-1.085-0.4l-0.502-1.939c-0.543-0.060-1.019-0.060-1.562 0l-0.502 1.939c-0.392 0.098-0.723 0.22-1.085 0.4l-1.616-1.159c-0.455 0.307-0.819 0.616-1.197 1.016l0.847 1.812c-0.238 0.33-0.414 0.638-0.578 1.012l-1.974 0.164c-0.153 0.531-0.236 1.005-0.271 1.557l1.8 0.837c0.027 0.408 0.088 0.759 0.2 1.151l-1.408 1.411c0.22 0.507 0.458 0.923 0.781 1.369l1.911-0.53c0.28 0.296 0.549 0.524 0.885 0.751l-0.184 1.997c0.49 0.245 0.937 0.409 1.468 0.541l1.128-1.649c0.402 0.044 0.753 0.044 1.155 0l0.757 1.11 1.663-1.92-0.008-0.078z" fill="rgb(68, 68, 68)"></path>
<path d="M12.632 14.316v1.684h2.526v-1.684h-2.526zM12.32 10.947l-2.215 2.526h7.579l-2.215-2.526h1.526l-3.101-6.136-3.101 6.136h1.526z" fill="rgb(68, 68, 68)"></path>
</svg>
