<?xml version="1.0" encoding="utf-8"?>
<!-- Generated by IcoMoon.io -->
<!DOCTYPE svg PUBLIC "-//W3C//DTD SVG 1.1//EN" "http://www.w3.org/Graphics/SVG/1.1/DTD/svg11.dtd">
<svg version="1.1" xmlns="http://www.w3.org/2000/svg" xmlns:xlink="http://www.w3.org/1999/xlink" width="21" height="19" viewBox="0 0 21 19">
<path d="M2 9c0 1.657 1.343 3 3 3 0.809 0 1.545-0.319 2.085-0.84l4.94 2.47c-0.015 0.121-0.025 0.244-0.025 0.37 0 1.657 1.343 3 3 3s3-1.343 3-3c0-1.657-1.343-3-3-3-0.809 0-1.541 0.319-2.080 0.84l-4.945-2.47c0.015-0.122 0.025-0.244 0.025-0.37s-0.010-0.248-0.025-0.37l4.94-2.47c0.54 0.52 1.276 0.84 2.085 0.84 1.657 0 3-1.343 3-3s-1.343-3-3-3c-1.657 0-3 1.343-3 3 0 0.126 0.010 0.249 0.025 0.37l-4.94 2.47c-0.54-0.52-1.276-0.84-2.085-0.84-1.657 0-3 1.343-3 3z" fill="#000000"></path>
</svg>
