<?xml version="1.0" encoding="utf-8"?>
<!-- Generated by IcoMoon.io -->
<!DOCTYPE svg PUBLIC "-//W3C//DTD SVG 1.1//EN" "http://www.w3.org/Graphics/SVG/1.1/DTD/svg11.dtd">
<svg version="1.1" xmlns="http://www.w3.org/2000/svg" xmlns:xlink="http://www.w3.org/1999/xlink" width="21" height="19" viewBox="0 0 21 19">
<path d="M8.5 5.311c1.807 0 3.274 1.485 3.274 3.314s-1.467 3.314-3.274 3.314c-1.807 0-3.274-1.485-3.274-3.314s1.467-3.314 3.274-3.314zM12.050 13.987l0.235-0.167 0.514-0.594h-1.617l4.108-7.131-0.956-0.078c-0.194-0.445-0.402-0.81-0.686-1.202l1.006-2.152c-0.449-0.475-0.881-0.842-1.421-1.207l-1.919 1.376c-0.431-0.214-0.823-0.359-1.289-0.475l-0.596-2.303c-0.645-0.071-1.21-0.071-1.855 0l-0.596 2.303c-0.466 0.116-0.858 0.261-1.289 0.475l-1.919-1.376c-0.54 0.365-0.972 0.732-1.421 1.207l1.006 2.152c-0.283 0.392-0.492 0.758-0.686 1.202l-2.344 0.195c-0.182 0.631-0.28 1.193-0.322 1.849l2.137 0.994c0.032 0.485 0.104 0.901 0.238 1.367l-1.672 1.675c0.261 0.602 0.544 1.096 0.927 1.626l2.269-0.629c0.332 0.351 0.652 0.622 1.051 0.892l-0.218 2.371c0.582 0.291 1.113 0.486 1.743 0.642l1.339-1.958c0.477 0.052 0.894 0.052 1.372 0l0.899 1.318 1.975-2.28-0.010-0.093z" fill="#000000"></path>
<path d="M15 17v2h3v-2h-3zM14.63 13l-2.63 3h9l-2.63-3h1.812l-3.682-7.287-3.682 7.287h1.812z" fill="#000000"></path>
</svg>
