<?xml version="1.0" encoding="utf-8"?>
<!-- Generated by IcoMoon.io -->
<!DOCTYPE svg PUBLIC "-//W3C//DTD SVG 1.1//EN" "http://www.w3.org/Graphics/SVG/1.1/DTD/svg11.dtd">
<svg version="1.1" xmlns="http://www.w3.org/2000/svg" xmlns:xlink="http://www.w3.org/1999/xlink" width="21" height="19" viewBox="0 0 21 19">
<path d="M4 6v8h3v-8h-3zM12 5v6.925c0.629-1.004 1.731-1.671 2.984-1.671l0.016 0.001v-5.255h-3zM8 2v12h3v-12h-3zM0-1v18h10.789l-1-2h-7.789v-16h-2z" fill="rgb(68, 68, 68)"></path>
<path d="M11.929 13.928c0-1.62 1.233-3.036 2.815-3.168 1.653-0.138 3.049 1.168 3.049 2.923s-1.396 3.178-3.049 3.178c-1.582 0-2.815-1.313-2.815-2.933zM16.863 17.292c0.038 0.056 0.084 0.107 0.134 0.154l1.401 1.301c0.347 0.322 0.914 0.342 1.288 0.027 0.399-0.336 0.426-0.92 0.036-1.282l-1.554-1.442c0.474-0.693 0.756-1.533 0.756-2.439 0-2.369-1.922-4.132-4.197-3.946-2.177 0.178-3.874 2.089-3.874 4.276s1.697 3.959 3.874 3.959c0.774 0 1.506-0.221 2.136-0.608z" fill="rgb(68, 68, 68)"></path>
</svg>
