<?xml version="1.0" standalone="no"?><!-- Generator: Adobe Fireworks CS6, Export SVG Extension by Aaron Beall (http://fireworks.abeall.com) . Version: 0.6.1  --><!DOCTYPE svg PUBLIC "-//W3C//DTD SVG 1.1//EN" "http://www.w3.org/Graphics/SVG/1.1/DTD/svg11.dtd"><svg id="Untitled-Page%201" viewBox="0 0 25 25" style="background-color:#ffffff00" version="1.1"	xmlns="http://www.w3.org/2000/svg" xmlns:xlink="http://www.w3.org/1999/xlink" xml:space="preserve"	x="0px" y="0px" width="25px" height="25px">	<path d="M 11.5725 4.0537 C 12.2179 3.9821 12.7821 3.9821 13.4275 4.0537 L 14.024 6.3568 C 14.4902 6.473 14.882 6.6173 15.3129 6.8317 L 17.2323 5.4554 C 17.7722 5.8206 18.2045 6.1876 18.6533 6.6624 L 17.6477 8.8148 C 17.9312 9.2071 18.1395 9.5726 18.3335 10.0172 L 20.678 10.2118 C 20.8596 10.8428 20.9575 11.4052 21 12.061 L 18.8628 13.0555 C 18.8307 13.5404 18.7584 13.956 18.6246 14.4227 L 20.2969 16.0972 C 20.0354 16.6988 19.7534 17.1933 19.3695 17.7234 L 17.1006 17.0946 C 16.7681 17.4453 16.4489 17.7165 16.0499 17.987 L 16.2677 20.3578 C 15.6853 20.6485 15.1552 20.8438 14.5245 21 L 13.1858 19.0422 C 12.7085 19.0945 12.2915 19.0945 11.8142 19.0422 L 10.4755 21 C 9.8448 20.8438 9.3147 20.6485 8.7323 20.3578 L 8.9501 17.987 C 8.5511 17.7165 8.2319 17.4453 7.8994 17.0946 L 5.6305 17.7234 C 5.2466 17.1933 4.9646 16.6988 4.7031 16.0972 L 6.3754 14.4227 C 6.2416 13.956 6.1693 13.5404 6.1372 13.0555 L 4 12.061 C 4.0425 11.4052 4.1404 10.8428 4.322 10.2118 L 6.6665 10.0172 C 6.8605 9.5726 7.0688 9.2071 7.3523 8.8148 L 6.3467 6.6624 C 6.7955 6.1876 7.2278 5.8206 7.7677 5.4554 L 9.6871 6.8317 C 10.118 6.6173 10.5098 6.473 10.976 6.3568 L 11.5725 4.0537 ZM 12.5 9.311 C 14.3071 9.311 15.7737 10.7956 15.7737 12.6247 C 15.7737 14.4539 14.3071 15.9384 12.5 15.9384 C 10.6929 15.9384 9.2263 14.4539 9.2263 12.6247 C 9.2263 10.7956 10.6929 9.311 12.5 9.311 Z" fill="#666666"/></svg>