<?xml version="1.0" encoding="utf-8"?>
<!-- Generated by IcoMoon.io -->
<!DOCTYPE svg PUBLIC "-//W3C//DTD SVG 1.1//EN" "http://www.w3.org/Graphics/SVG/1.1/DTD/svg11.dtd">
<svg version="1.1" xmlns="http://www.w3.org/2000/svg" xmlns:xlink="http://www.w3.org/1999/xlink" width="18" height="16" viewBox="0 0 18 16">
<path d="M3.368 5.053v6.737h2.526v-6.737h-2.526zM10.105 4.211v5.832c0.53-0.845 1.458-1.407 2.513-1.407l0.013 0.001v-4.425h-2.526zM6.737 1.684v10.105h2.526v-10.105h-2.526zM0-0.842v15.158h9.085l-0.842-1.684h-6.559v-13.474h-1.684z" fill="rgb(68, 68, 68)"></path>
<path d="M10.045 11.729c0-1.364 1.038-2.557 2.371-2.668 1.392-0.116 2.568 0.984 2.568 2.461s-1.176 2.676-2.568 2.676c-1.332 0-2.371-1.106-2.371-2.47zM14.2 14.562c0.032 0.047 0.071 0.090 0.113 0.13l1.18 1.096c0.292 0.271 0.77 0.288 1.085 0.023 0.336-0.283 0.359-0.775 0.030-1.080l-1.309-1.214c0.399-0.584 0.637-1.291 0.637-2.054 0-1.995-1.619-3.48-3.534-3.323-1.833 0.15-3.262 1.759-3.262 3.601s1.429 3.334 3.262 3.334c0.652 0 1.268-0.186 1.799-0.512z" fill="rgb(68, 68, 68)"></path>
</svg>
