<?xml version="1.0" standalone="no"?><!-- Generator: Adobe Fireworks CS6, Export SVG Extension by Aaron Beall (http://fireworks.abeall.com) . Version: 0.6.1  --><!DOCTYPE svg PUBLIC "-//W3C//DTD SVG 1.1//EN" "http://www.w3.org/Graphics/SVG/1.1/DTD/svg11.dtd"><svg id="Untitled-Page%201" viewBox="0 0 25 25" style="background-color:#ffffff00" version="1.1"	xmlns="http://www.w3.org/2000/svg" xmlns:xlink="http://www.w3.org/1999/xlink" xml:space="preserve"	x="0px" y="0px" width="25px" height="25px">	<g>		<path d="M 4 12 C 4 13.6569 5.3431 15 7 15 C 7.809 15 8.5454 14.6805 9.085 14.16 L 14.0249 16.63 C 14.01 16.7515 14 16.8745 14 17 C 14 18.6569 15.3431 20 17 20 C 18.6569 20 20 18.6569 20 17 C 20 15.3431 18.6569 14 17 14 C 16.1909 14 15.459 14.3192 14.9199 14.84 L 9.975 12.37 C 9.9899 12.2484 10 12.1256 10 12 C 10 11.8743 9.9899 11.7516 9.975 11.63 L 14.915 9.16 C 15.4546 9.6805 16.191 10 17 10 C 18.6569 10 20 8.6569 20 7 C 20 5.3431 18.6569 4 17 4 C 15.3431 4 14 5.3431 14 7 C 14 7.1255 14.01 7.2485 14.0249 7.37 L 9.085 9.84 C 8.5454 9.3195 7.809 9 7 9 C 5.3431 9 4 10.3431 4 12 Z" fill="#616066"/>	</g></svg>