<?xml version="1.0" encoding="utf-8"?>
<!-- Generated by IcoMoon.io -->
<!DOCTYPE svg PUBLIC "-//W3C//DTD SVG 1.1//EN" "http://www.w3.org/Graphics/SVG/1.1/DTD/svg11.dtd">
<svg version="1.1" xmlns="http://www.w3.org/2000/svg" xmlns:xlink="http://www.w3.org/1999/xlink" width="18" height="16" viewBox="0 0 18 16">
<path d="M1.684 7.579c0 1.395 1.131 2.526 2.526 2.526 0.681 0 1.301-0.269 1.756-0.707l4.16 2.080c-0.013 0.102-0.021 0.205-0.021 0.312 0 1.395 1.131 2.526 2.526 2.526s2.526-1.131 2.526-2.526c0-1.395-1.131-2.526-2.526-2.526-0.681 0-1.298 0.269-1.752 0.707l-4.164-2.080c0.013-0.103 0.021-0.205 0.021-0.312s-0.008-0.209-0.021-0.312l4.16-2.080c0.455 0.438 1.075 0.707 1.756 0.707 1.395 0 2.526-1.131 2.526-2.526s-1.131-2.526-2.526-2.526c-1.395 0-2.526 1.131-2.526 2.526 0 0.106 0.008 0.21 0.021 0.312l-4.16 2.080c-0.455-0.438-1.075-0.707-1.756-0.707-1.395 0-2.526 1.131-2.526 2.526z" fill="rgb(68, 68, 68)"></path>
</svg>
