<?xml version="1.0" encoding="utf-8"?>
<!-- Generated by IcoMoon.io -->
<!DOCTYPE svg PUBLIC "-//W3C//DTD SVG 1.1//EN" "http://www.w3.org/Graphics/SVG/1.1/DTD/svg11.dtd">
<svg version="1.1" xmlns="http://www.w3.org/2000/svg" xmlns:xlink="http://www.w3.org/1999/xlink" width="32" height="32" viewBox="0 0 32 32">
<path fill="#fff" d="M20.435 16.080c0 2.484-2.014 4.497-4.497 4.497s-4.497-2.014-4.497-4.497c0-2.484 2.014-4.497 4.497-4.497s4.497 2.014 4.497 4.497z"></path>
<path fill="#afd400" d="M15.938 0.989l-3.2 4.349h6.4l-3.2-4.349z"></path>
<path fill="#545454" d="M14.448 4.473l1.49-2.025 1.49 2.025h-2.98zM19.835 4.825l-3.2-4.349c-0.163-0.222-0.422-0.352-0.697-0.352s-0.534 0.131-0.697 0.352l-3.2 4.349c-0.193 0.263-0.222 0.612-0.075 0.903s0.446 0.475 0.772 0.475h2.249v1.73c0 0.478 0.387 0.865 0.865 0.865s0.865-0.387 0.865-0.865v-1.73h2.422c0.326 0 0.625-0.184 0.772-0.475s0.118-0.64-0.075-0.903v0z"></path>
<path fill="#afd400" d="M15.938 31.135l3.2-4.349h-6.4l3.2 4.349z"></path>
<path fill="#545454" d="M17.428 27.651l-1.49 2.025-1.49-2.025h2.98zM12.041 27.299l3.2 4.349c0.163 0.222 0.422 0.352 0.697 0.352s0.534-0.131 0.697-0.352l3.2-4.349c0.193-0.263 0.222-0.612 0.075-0.903s-0.446-0.475-0.772-0.475h-2.249v-1.73c0-0.478-0.387-0.865-0.865-0.865s-0.865 0.387-0.865 0.865v1.73h-2.422c-0.326 0-0.625 0.184-0.772 0.475s-0.118 0.64 0.075 0.903v0z"></path>
<path fill="#afd400" d="M30.925 16.062l-4.349-3.2v6.4l4.349-3.2z"></path>
<path fill="#545454" d="M27.441 14.572l2.025 1.49-2.025 1.49v-2.98zM27.175 19.959l4.349-3.2c0.222-0.163 0.352-0.422 0.352-0.697s-0.131-0.534-0.352-0.697l-4.349-3.2c-0.263-0.193-0.655-0.222-0.946-0.075s-0.518 0.446-0.518 0.772v2.335h-1.643c-0.478 0-0.865 0.387-0.865 0.865s0.387 0.865 0.865 0.865h1.643v2.335c0 0.326 0.227 0.625 0.518 0.772s0.683 0.118 0.946-0.075v0z"></path>
<path fill="#afd400" d="M0.778 16.062l4.349 3.2v-6.4l-4.349 3.2z"></path>
<path fill="#545454" d="M4.262 17.552l-2.025-1.49 2.025-1.49v2.98zM4.701 12.165l-4.349 3.2c-0.222 0.163-0.352 0.422-0.352 0.697s0.131 0.534 0.352 0.697l4.349 3.2c0.263 0.193 0.569 0.222 0.859 0.075s0.431-0.446 0.431-0.772v-2.162h1.816c0.478 0 0.865-0.387 0.865-0.865s-0.387-0.865-0.865-0.865h-1.816v-2.508c0-0.326-0.14-0.625-0.431-0.772s-0.597-0.118-0.859 0.075v0z"></path>
<path fill="#afd400" d="M1.734 1.944l0.812 5.338 4.525-4.526-5.338-0.812z"></path>
<path fill="#545454" d="M3.144 5.461l-0.378-2.485 2.485 0.378-2.107 2.107zM10.715 9.457l-4.56-4.56 1.529-1.529c0.231-0.231 0.312-0.571 0.21-0.881s-0.369-0.536-0.692-0.585l-5.338-0.812c-0.272-0.042-0.547 0.049-0.742 0.243s-0.285 0.47-0.243 0.742l0.812 5.338c0.049 0.322 0.275 0.59 0.585 0.692 0.089 0.029 0.179 0.043 0.27 0.043 0.226 0 0.447-0.089 0.612-0.253l1.773-1.774 4.56 4.56c0.169 0.169 0.39 0.253 0.611 0.253s0.443-0.085 0.612-0.253c0.338-0.338 0.338-0.885 0-1.223v0z"></path>
<path fill="#afd400" d="M29.969 1.944l-0.812 5.338-4.526-4.526 5.338-0.812z"></path>
<path fill="#545454" d="M26.452 3.354l2.485-0.378-0.378 2.485-2.107-2.107zM20.988 10.68c0.169 0.169 0.39 0.253 0.612 0.253s0.443-0.084 0.611-0.253l4.56-4.56 1.773 1.774c0.165 0.165 0.386 0.253 0.612 0.253 0.090 0 0.181-0.014 0.27-0.043 0.31-0.102 0.536-0.369 0.585-0.692l0.812-5.338c0.041-0.272-0.049-0.547-0.243-0.742s-0.47-0.285-0.742-0.243l-5.338 0.812c-0.322 0.049-0.59 0.275-0.692 0.585s-0.021 0.651 0.21 0.881l1.529 1.529-4.56 4.56c-0.338 0.338-0.338 0.885 0 1.223v0z"></path>
<path fill="#afd400" d="M29.969 30.18l-0.812-5.338-4.526 4.526 5.338 0.812z"></path>
<path fill="#545454" d="M28.559 26.663l0.378 2.485-2.485-0.378 2.107-2.107zM20.989 22.667l4.56 4.56-1.529 1.529c-0.231 0.231-0.312 0.572-0.21 0.881s0.369 0.536 0.692 0.585l5.338 0.812c0.272 0.042 0.547-0.049 0.742-0.243s0.285-0.47 0.243-0.742l-0.812-5.338c-0.049-0.322-0.275-0.59-0.585-0.692-0.089-0.029-0.179-0.043-0.27-0.043-0.226 0-0.447 0.089-0.612 0.253l-1.773 1.773-4.56-4.56c-0.169-0.169-0.39-0.253-0.611-0.253s-0.443 0.085-0.612 0.253c-0.338 0.338-0.338 0.885 0 1.223v0z"></path>
<path fill="#afd400" d="M1.734 30.18l0.812-5.338 4.525 4.526-5.338 0.812z"></path>
<path fill="#545454" d="M5.251 28.77l-2.485 0.378 0.378-2.485 2.107 2.107zM10.715 21.443c-0.169-0.169-0.39-0.253-0.612-0.253s-0.443 0.084-0.611 0.253l-4.56 4.56-1.774-1.773c-0.165-0.165-0.386-0.253-0.612-0.253-0.090 0-0.181 0.014-0.27 0.043-0.31 0.102-0.536 0.369-0.585 0.692l-0.812 5.338c-0.041 0.272 0.049 0.547 0.243 0.742s0.47 0.285 0.742 0.243l5.338-0.812c0.322-0.049 0.59-0.275 0.692-0.585s0.021-0.651-0.21-0.881l-1.529-1.529 4.56-4.56c0.338-0.338 0.338-0.885 0-1.223v0z"></path>
<path fill="#e9f0ee" d="M11.468 16.618c0.108 0.727 0.392 1.439 0.87 2.064 1.508 1.973 4.331 2.351 6.304 0.843 0.967-0.739 1.548-1.793 1.714-2.908-1.359 0.482-2.862 0.753-4.445 0.753s-3.085-0.27-4.443-0.752z"></path>
<path fill="#545454" d="M15.938 12.448c-2.003 0-3.632 1.629-3.632 3.632s1.629 3.632 3.632 3.632c2.003 0 3.632-1.629 3.632-3.632s-1.629-3.632-3.632-3.632zM15.938 21.442c-2.957 0-5.362-2.406-5.362-5.362s2.406-5.362 5.362-5.362c2.957 0 5.362 2.406 5.362 5.362s-2.406 5.362-5.362 5.362z"></path>
</svg>
