<?xml version="1.0" encoding="utf-8"?>
<!-- Generated by IcoMoon.io -->
<!DOCTYPE svg PUBLIC "-//W3C//DTD SVG 1.1//EN" "http://www.w3.org/Graphics/SVG/1.1/DTD/svg11.dtd">
<svg version="1.1" xmlns="http://www.w3.org/2000/svg" xmlns:xlink="http://www.w3.org/1999/xlink" width="31" height="32" viewBox="0 0 31 32">
<path fill="#fff" d="M27.964 21.050h-25.364c-0.95 0-1.72-0.77-1.72-1.72v-6.623c0-0.95 0.77-1.72 1.72-1.72h25.364c0.95 0 1.72 0.77 1.72 1.72v6.623c0 0.95-0.77 1.72-1.72 1.72z"></path>
<path fill="#fff" d="M27.964 10.986h-25.364c-0.95 0-1.72-0.77-1.72-1.72v-3.182c0-2.85 2.311-5.161 5.161-5.161h18.483c2.851 0 5.161 2.311 5.161 5.161v3.182c0 0.95-0.77 1.72-1.72 1.72z"></path>
<path fill="#fff" d="M2.6 21.050h25.364c0.95 0 1.72 0.77 1.72 1.72v3.182c0 2.85-2.311 5.161-5.161 5.161h-18.483c-2.851 0-5.161-2.311-5.161-5.161v-3.182c0-0.95 0.77-1.72 1.72-1.72z"></path>
<path fill="#85b900" d="M24.43 5.935c0 0.618-0.501 1.118-1.118 1.118s-1.118-0.501-1.118-1.118c0-0.618 0.501-1.118 1.118-1.118s1.118 0.501 1.118 1.118z"></path>
<path fill="#85b900" d="M24.43 15.957c0 0.618-0.501 1.118-1.118 1.118s-1.118-0.501-1.118-1.118c0-0.618 0.501-1.118 1.118-1.118s1.118 0.501 1.118 1.118z"></path>
<path fill="#85b900" d="M24.43 26.021c0 0.618-0.501 1.118-1.118 1.118s-1.118-0.501-1.118-1.118c0-0.618 0.501-1.118 1.118-1.118s1.118 0.501 1.118 1.118z"></path>
<path fill="#e9f0ee" d="M0.911 25.944c-0.026 0.105-0.051 0.214-0.051 0.327v0.794c0 2.241 1.833 4.074 4.074 4.074h20.701c2.27 0 4.127-1.857 4.127-4.127v-0.754c-4.201 0.817-8.833 1.268-13.667 1.268-5.423 0-10.586-0.568-15.185-1.583z"></path>
<path fill="#e9f0ee" d="M0.911 8.328c-0.026 0.058-0.051 0.119-0.051 0.181v0.44c0 1.24 1.833 2.254 4.074 2.254h20.701c2.27 0 4.127-1.028 4.127-2.284v-0.417c-4.201 0.452-8.833 0.702-13.667 0.702-5.423 0-10.586-0.315-15.185-0.876z"></path>
<path fill="#e9f0ee" d="M0.911 17.826c-0.026 0.061-0.051 0.125-0.051 0.19v0.463c0 1.305 1.833 2.373 4.074 2.373h20.701c2.27 0 4.127-1.082 4.127-2.404v-0.439c-4.201 0.476-8.833 0.739-13.667 0.739-5.423 0-10.586-0.331-15.185-0.922z"></path>
<path fill="#545454" d="M28.903 25.953c0 2.372-2.008 4.327-4.38 4.327h-18.483c-2.372 0-4.32-1.955-4.32-4.327v-3.182c0-0.474 0.405-0.921 0.879-0.921h25.364c0.474 0 0.939 0.447 0.939 0.921v3.182zM28.731 19.269c0 0.475-0.385 0.86-0.86 0.86h-25.29c-0.475 0-0.86-0.385-0.86-0.86v-6.538c0-0.475 0.385-0.86 0.86-0.86h25.29c0.475 0 0.86 0.385 0.86 0.86v6.538zM1.72 6.083c0-2.372 1.949-4.363 4.32-4.363h18.483c2.372 0 4.38 1.991 4.38 4.363v3.182c0 0.474-0.465 0.885-0.939 0.885h-25.364c-0.474 0-0.879-0.411-0.879-0.885v-3.182zM30.624 6.083c0-3.32-2.78-6.083-6.1-6.083h-18.483c-3.32 0-6.041 2.763-6.041 6.083v3.182c0 0.661 0.252 1.263 0.663 1.72-0.41 0.457-0.663 1.059-0.663 1.72v6.623c0 0.661 0.252 1.263 0.663 1.72-0.41 0.457-0.663 1.059-0.663 1.72v3.182c0 3.32 2.721 6.047 6.041 6.047h18.483c3.32 0 6.1-2.727 6.1-6.047v-3.182c0-0.661-0.252-1.263-0.663-1.72 0.41-0.457 0.663-1.059 0.663-1.72v-6.623c0-0.661-0.252-1.263-0.663-1.72 0.41-0.457 0.663-1.059 0.663-1.72v-3.182z"></path>
</svg>
