<?xml version="1.0" encoding="utf-8"?>
<!-- Generated by IcoMoon.io -->
<!DOCTYPE svg PUBLIC "-//W3C//DTD SVG 1.1//EN" "http://www.w3.org/Graphics/SVG/1.1/DTD/svg11.dtd">
<svg version="1.1" xmlns="http://www.w3.org/2000/svg" xmlns:xlink="http://www.w3.org/1999/xlink" width="32" height="32" viewBox="0 0 32 32">
<path fill="#fff" d="M27.857 26.062h-24.317c-1.495 0-2.707-1.212-2.707-2.707v-17.286c0-1.495 1.212-2.707 2.707-2.707h24.317c1.495 0 2.707 1.212 2.707 2.707v17.286c0 1.495-1.212 2.707-2.707 2.707z"></path>
<path fill="#8f8f8f" d="M18.776 31.072h-6.155c-0.199 0-0.361-0.162-0.361-0.361v-4.288c0-0.199 0.162-0.361 0.361-0.361h6.155c0.199 0 0.361 0.162 0.361 0.361v4.288c0 0.199-0.162 0.361-0.361 0.361z"></path>
<path fill="#545454" d="M29.739 23.38c0 1.015-0.822 1.837-1.837 1.837h-24.326c-1.015 0-1.837-0.822-1.837-1.837v-17.369c0-1.015 0.822-1.837 1.837-1.837h24.326c1.015 0 1.837 0.823 1.837 1.837v17.369zM18.261 30.261h-5.217v-3.304h5.217v3.304zM27.857 2.435h-24.317c-1.972 0-3.54 1.663-3.54 3.635v17.285c0 1.972 1.568 3.601 3.54 3.601h7.765v3.304h-0.348c-0.48 0-0.87 0.389-0.87 0.87s0.389 0.87 0.87 0.87h9.565c0.48 0 0.87-0.389 0.87-0.87s-0.389-0.87-0.87-0.87h-0.522v-3.304h7.857c1.972 0 3.621-1.629 3.621-3.601v-17.285c0-1.972-1.649-3.635-3.621-3.635v0z"></path>
<path fill="#afd400" d="M21.072 6.225c0 2.93-5.304 10.995-5.304 10.995s-5.304-8.066-5.304-10.995c0-2.93 2.375-5.304 5.304-5.304s5.304 2.375 5.304 5.304z"></path>
<path fill="#545454" d="M15.768 1.79c-2.445 0-4.435 1.989-4.435 4.435 0 1.721 2.48 6.258 4.434 9.382 1.685-2.7 4.436-7.501 4.436-9.382 0-2.445-1.989-4.435-4.435-4.435zM15.768 18.090c-0.293 0-0.566-0.147-0.727-0.392-0.558-0.848-5.447-8.373-5.447-11.473 0-3.404 2.77-6.174 6.174-6.174s6.174 2.77 6.174 6.174c0 3.1-4.89 10.625-5.447 11.473-0.161 0.244-0.434 0.392-0.727 0.392z"></path>
<path fill="#85b900" d="M25.637 16.607c-0.395-0.274-0.937-0.175-1.21 0.219l-2.070 2.986-0.784-0.827c-0.33-0.349-0.881-0.363-1.229-0.033s-0.363 0.881-0.033 1.229l1.524 1.608c0.171 0.181 0.401 0.271 0.631 0.271 0.215 0 0.43-0.079 0.598-0.238 0.059-0.056 0.105-0.12 0.145-0.187l2.647-3.818c0.274-0.395 0.175-0.937-0.219-1.21z"></path>
<path fill="#fff" d="M17.391 6.539c0 0.913-0.74 1.652-1.652 1.652s-1.652-0.74-1.652-1.652c0-0.913 0.74-1.652 1.652-1.652s1.652 0.74 1.652 1.652z"></path>
<path fill="#545454" d="M15.739 5.756c-0.431 0-0.783 0.351-0.783 0.783s0.351 0.783 0.783 0.783c0.431 0 0.783-0.351 0.783-0.783s-0.351-0.783-0.783-0.783zM15.739 9.061c-1.39 0-2.522-1.131-2.522-2.522s1.131-2.522 2.522-2.522c1.39 0 2.522 1.131 2.522 2.522s-1.131 2.522-2.522 2.522z"></path>
</svg>
