<svg height="106" viewBox="0 0 106 106" width="106" xmlns="http://www.w3.org/2000/svg"><g fill="none" fill-rule="evenodd" stroke-width="2" transform="translate(1 1)"><g stroke="#444"><path d="m16.5454545 26c-5.2212727 0-9.45454541-4.2332727-9.45454541-9.4545455 0-5.2212727 4.23327271-9.45454541 9.45454541-9.45454541 5.2212728 0 9.4545455 4.23327271 9.4545455 9.45454541 0 5.2212728-4.2332727 9.4545455-9.4545455 9.4545455z" stroke-linecap="square"/><path d="m23.6363636 96.9090909h-14.18181815l-2.36363636-26-7.09090909-2.3636364v-21.2727272c0-5.2212728 4.23327273-9.4545455 9.45454545-9.4545455h14.18181815c3.4367273 0 6.4456364 1.8365455 8.1001819 4.5783637"/><path d="m87.4545455 26c5.2212727 0 9.4545454-4.2332727 9.4545454-9.4545455 0-5.2212727-4.2332727-9.45454541-9.4545454-9.45454541-5.2212728 0-9.4545455 4.23327271-9.4545455 9.45454541 0 5.2212728 4.2332727 9.4545455 9.4545455 9.4545455z" stroke-linecap="square"/><path d="m80.3636364 96.9090909h14.1818181l2.3636364-26 7.0909091-2.3636364v-21.2727272c0-5.2212728-4.2332727-9.4545455-9.4545455-9.4545455h-14.1818181c-3.4367273 0-6.4456364 1.8365455-8.1001819 4.5783637"/></g><path d="m52 28.3636364c-7.8330909 0-14.1818182-6.3487273-14.1818182-14.1818182 0-7.83309093 6.3487273-14.1818182 14.1818182-14.1818182s14.1818182 6.34872727 14.1818182 14.1818182c0 7.8330909-6.3487273 14.1818182-14.1818182 14.1818182zm11.8181818 75.6363636h-23.6363636l-2.3636364-28.3636364-9.4545454-2.3636363v-23.6363637c0-5.2212727 4.2332727-9.4545454 9.4545454-9.4545454h28.3636364c5.2212727 0 9.4545454 4.2332727 9.4545454 9.4545454v23.6363637l-9.4545454 2.3636363z" stroke="#97bd3d" stroke-linecap="square"/></g></svg>