<svg height="92" viewBox="0 0 260 92" width="260" xmlns="http://www.w3.org/2000/svg"><g fill="none" fill-rule="evenodd"><g fill="#fab72e"><path d="m12.5324 60.5117-5.116 5.116 5.659 5.659 5.116-5.116z"/><path d="m45.5499.9002-25.829 25.829 5.658 5.659 20.171-20.17 6.873 6.873 5.66-5.658-6.874-6.875-5.443-5.443z"/><path d="m0 46.4501.215.215 5.444 5.443 20.17 20.171 5.659-5.658-20.17-20.171 6.874-6.873-5.659-5.66z"/><path d="m72.9089 53.3235 5.659 5.659 12.532-12.533-.215-.215-5.444-5.443-20.17-20.171-5.659 5.659 20.17 20.17z"/><path d="m45.5499 80.6825-6.873-6.873-5.66 5.658 6.875 6.873 5.443 5.444.215.216 25.83-25.83-5.659-5.659z"/><path d="m78.5677 32.3882 5.116-5.116-5.659-5.659-5.116 5.116z"/><path d="m65.2706 73.8088-5.659 5.659 5.116 5.116 5.659-5.659z"/><path d="m31.4883 13.4323-5.116-5.116-5.659 5.659 5.116 5.116z"/><path d="m39.1266 60.5117-18.413 18.413 5.659 5.659 18.413-18.413z"/><path d="m51.9736 58.9824 19.406-19.406-5.659-5.659-19.406 19.406z"/><path d="m51.9736 32.3882 18.413-18.413-5.659-5.659-18.413 18.413z"/><path d="m39.1265 33.9176-19.406 19.406 5.659 5.659 19.406-19.406z"/><path d="m38.6765 47.2147-5.659 5.659 19.406 19.406 5.659-5.659z"/><path d="m31.4883 40.0265-18.413-18.413-5.659 5.659 18.413 18.413z"/><path d="m58.0825 40.0265-19.406-19.406-5.659 5.659 19.406 19.406z"/><path d="m65.2706 47.2147-5.659 5.659 18.413 18.413 5.659-5.659z"/></g><g fill="#444" transform="translate(114 8)"><path d="m2.2387 2.8089c-.245-.756-.47-1.246-.756-1.451-.225-.142-.634-.183-.817-.183-.204 0-.327-.021-.327-.184 0-.143.164-.184.45-.184 1.062 0 2.185.061 2.37.061.183 0 1.082-.061 2.267-.061.287 0 .429.061.429.184 0 .163-.163.184-.367.184-.164 0-.368 0-.511.081-.184.082-.224.225-.224.45 0 .266.204.96.449 1.879.346 1.349 2.247 7.54 2.615 8.684h.062l3.962-10.665c.206-.572.348-.736.511-.736.226 0 .327.307.593.961l4.25 10.297h.061c.368-1.369 2.002-6.763 2.717-9.153.144-.47.205-.899.205-1.185 0-.327-.184-.613-.981-.613-.204 0-.347-.062-.347-.184 0-.143.163-.184.47-.184 1.083 0 1.94.061 2.125.061.143 0 1.021-.061 1.695-.061.225 0 .368.041.368.163 0 .143-.102.205-.286.205-.204 0-.49.02-.715.102-.49.184-.715 1.001-1.144 2.165-.94 2.575-3.085 9.072-4.086 12.137-.225.715-.327.96-.593.96-.204 0-.327-.245-.634-1.001l-4.249-10.257h-.041c-.388 1.042-3.105 8.296-3.984 10.175-.389.838-.49 1.083-.735 1.083-.204 0-.286-.225-.47-.756z"/><path d="m38.8314 8.9183c0-4.577-2.636-7.417-5.986-7.417-2.35 0-5.027 1.308-5.027 6.395 0 4.25 2.35 7.621 6.273 7.621 1.429 0 4.74-.695 4.74-6.599m-13.832-.388c0-3.494 2.309-8.009 8.437-8.009 5.088 0 8.255 2.962 8.255 7.641s-3.269 8.377-8.459 8.377c-5.863 0-8.233-4.393-8.233-8.009"/><path d="m49.5853 8.346c0 .225.041.307.184.368.429.143 1.042.204 1.552.204.818 0 1.083-.082 1.451-.347.613-.45 1.206-1.389 1.206-3.065 0-2.901-1.92-3.739-3.126-3.739-.511 0-.879.02-1.083.082-.143.041-.184.123-.184.286zm-2.411-1.614c0-3.106 0-3.678-.041-4.332-.04-.694-.204-1.021-.878-1.164-.164-.041-.511-.061-.797-.061-.225 0-.348-.041-.348-.184s.144-.184.45-.184c1.083 0 2.37.061 2.799.061.695 0 2.247-.061 2.881-.061 1.287 0 2.656.122 3.759.878.572.389 1.39 1.431 1.39 2.8 0 1.511-.634 2.901-2.698 4.576 1.819 2.288 3.229 4.107 4.434 5.373 1.145 1.185 1.982 1.329 2.289 1.39.225.041.408.061.571.061.164 0 .245.062.245.164 0 .163-.142.204-.387.204h-1.942c-1.143 0-1.654-.102-2.185-.388-.879-.47-1.655-1.431-2.8-3.004-.816-1.123-1.757-2.512-2.022-2.819-.102-.123-.225-.143-.368-.143l-1.778-.041c-.101 0-.163.041-.163.163v.287c0 1.899 0 3.514.103 4.372.06.592.183 1.042.796 1.124.306.041.756.081 1.001.081.163 0 .245.062.245.164 0 .143-.143.204-.409.204-1.184 0-2.696-.061-3.003-.061-.388 0-1.675.061-2.493.061-.265 0-.408-.061-.408-.204 0-.102.082-.164.327-.164.306 0 .552-.04.736-.081.408-.082.51-.532.592-1.124.102-.858.102-2.473.102-4.352z"/><path d="m68.2641 10.328c0 2.615 0 4.025.43 4.392.346.307.878.45 2.471.45 1.083 0 1.88-.02 2.391-.572.245-.266.49-.837.531-1.226.021-.184.062-.306.225-.306.143 0 .164.102.164.347 0 .225-.144 1.757-.307 2.349-.123.45-.224.552-1.287.552-1.472 0-2.534-.041-3.453-.061-.92-.041-1.655-.061-2.492-.061-.226 0-.675 0-1.165.02-.47 0-1.001.041-1.41.041-.266 0-.409-.061-.409-.204 0-.102.082-.164.328-.164.305 0 .551-.04.735-.082.408-.081.511-.531.593-1.123.101-.858.101-2.473.101-4.352v-3.596c0-3.106 0-3.678-.041-4.332-.041-.694-.204-1.021-.878-1.164-.164-.041-.409-.061-.675-.061-.224 0-.346-.041-.346-.184s.142-.184.449-.184c.96 0 2.247.061 2.799.061.49 0 1.982-.061 2.779-.061.285 0 .429.041.429.184s-.123.184-.368.184c-.225 0-.552.02-.797.061-.552.102-.715.449-.756 1.164-.041.654-.041 1.226-.041 4.332z"/><path d="m82.4437 8.9793c0 2.166.02 3.739.041 4.128.021.51.062 1.327.225 1.552.265.388 1.062.817 2.676.817 2.084 0 3.474-.408 4.7-1.471 1.307-1.124 1.716-2.982 1.716-5.087 0-2.595-1.083-4.27-1.962-5.108-1.879-1.798-4.208-2.043-5.802-2.043-.408 0-1.164.061-1.328.143-.184.082-.246.184-.246.408-.02.695-.02 2.473-.02 4.087zm-2.554-2.247c0-3.106 0-3.678-.041-4.332-.041-.694-.204-1.022-.878-1.165-.164-.04-.51-.061-.797-.061-.224 0-.347-.041-.347-.184s.143-.183.449-.183c1.083 0 2.37.061 2.943.061.633 0 1.92-.061 3.146-.061 2.554 0 5.966 0 8.193 2.329 1.022 1.062 1.982 2.758 1.982 5.189 0 2.574-1.083 4.536-2.227 5.701-.94.96-3.065 2.411-6.844 2.411-.736 0-1.574-.062-2.35-.123-.777-.061-1.491-.123-2.002-.123-.226 0-.675 0-1.165.021-.47 0-1.001.041-1.41.041-.266 0-.409-.062-.409-.205 0-.102.082-.163.328-.163.305 0 .551-.041.735-.082.408-.081.511-.531.593-1.123.101-.859.101-2.473.101-4.352z"/><path d="m6.4682 39.5301c0 .225.041.307.184.368.429.143 1.041.204 1.552.204.818 0 1.083-.082 1.452-.347.612-.45 1.205-1.39 1.205-3.065 0-2.901-1.92-3.739-3.126-3.739-.511 0-.879.02-1.083.082-.143.04-.184.122-.184.286zm-2.411-1.614c0-3.106 0-3.678-.041-4.332-.04-.694-.204-1.021-.878-1.164-.164-.041-.511-.061-.797-.061-.225 0-.348-.041-.348-.185 0-.143.144-.183.45-.183 1.083 0 2.37.061 2.799.061.695 0 2.247-.061 2.881-.061 1.287 0 2.656.122 3.759.878.572.388 1.39 1.43 1.39 2.8 0 1.511-.634 2.901-2.698 4.576 1.819 2.288 3.229 4.107 4.434 5.373 1.144 1.185 1.982 1.328 2.289 1.39.225.041.408.061.571.061.164 0 .245.062.245.164 0 .163-.142.204-.387.204h-1.942c-1.143 0-1.654-.102-2.185-.388-.879-.47-1.656-1.431-2.8-3.004-.816-1.123-1.757-2.513-2.022-2.819-.102-.123-.225-.143-.368-.143l-1.778-.041c-.102 0-.163.041-.163.163v.286c0 1.9 0 3.515.102 4.373.061.592.184 1.042.797 1.123.306.041.756.082 1.001.082.163 0 .245.062.245.164 0 .143-.143.204-.409.204-1.184 0-2.696-.061-3.003-.061-.388 0-1.675.061-2.493.061-.265 0-.408-.061-.408-.204 0-.102.082-.164.327-.164.306 0 .552-.041.736-.082.408-.081.51-.531.592-1.123.102-.858.102-2.473.102-4.352z"/><path d="m22.5941 37.9159c0-3.105 0-3.678-.041-4.332-.04-.694-.204-1.021-.878-1.164-.164-.041-.511-.061-.797-.061-.224 0-.347-.041-.347-.184s.143-.184.449-.184c.552 0 1.144.021 1.655.021.531.02 1.001.04 1.287.04.654 0 4.72 0 5.109-.02.387-.041.714-.082.877-.123.103-.02.225-.081.328-.081.102 0 .123.081.123.184 0 .142-.103.388-.164 1.327-.021.205-.062 1.104-.102 1.349-.02.102-.062.225-.205.225s-.184-.102-.184-.286c0-.143-.02-.491-.123-.736-.142-.368-.346-.613-1.368-.735-.348-.041-2.493-.082-2.901-.082-.103 0-.144.061-.144.204v5.169c0 .143.021.225.144.225.449 0 2.799 0 3.268-.041.491-.041.797-.102.982-.306.142-.164.224-.266.326-.266.082 0 .143.041.143.164 0 .122-.082.449-.164 1.491-.02.408-.081 1.226-.081 1.369 0 .164 0 .388-.184.388-.143 0-.184-.081-.184-.183-.02-.205-.02-.471-.082-.736-.101-.409-.388-.715-1.143-.797-.389-.041-2.411-.061-2.902-.061-.102 0-.123.081-.123.204v1.614c0 .695-.02 2.574 0 3.167.041 1.41.368 1.716 2.452 1.716.532 0 1.39 0 1.921-.245.532-.245.777-.674.919-1.512.041-.225.082-.306.225-.306.164 0 .164.163.164.367 0 .47-.164 1.86-.266 2.268-.143.532-.327.532-1.103.532-1.532 0-2.657-.041-3.535-.062-.878-.041-1.512-.061-2.125-.061-.225 0-.674 0-1.164.02-.47 0-1.001.041-1.411.041-.265 0-.408-.061-.408-.204 0-.102.082-.164.327-.164.306 0 .552-.04.736-.081.408-.082.51-.531.592-1.124.102-.858.102-2.472.102-4.352z"/><path d="m35.681 47.1917c-.326-.143-.388-.245-.388-.694 0-1.124.082-2.35.103-2.677.019-.306.081-.531.245-.531.184 0 .204.184.204.347 0 .266.082.695.184 1.042.449 1.512 1.655 2.064 2.922 2.064 1.838 0 2.738-1.247 2.738-2.329 0-1.002-.307-1.941-2.003-3.269l-.94-.736c-2.248-1.757-3.024-3.187-3.024-4.843 0-2.246 1.88-3.861 4.72-3.861 1.328 0 2.186.204 2.718.347.183.041.286.102.286.245 0 .266-.082.859-.082 2.453 0 .449-.062.612-.225.612-.143 0-.204-.122-.204-.367 0-.184-.103-.818-.531-1.349-.307-.388-.9-1.001-2.228-1.001-1.512 0-2.431.879-2.431 2.105 0 .939.47 1.654 2.165 2.941l.573.43c2.472 1.859 3.35 3.269 3.35 5.21 0 1.185-.449 2.594-1.92 3.555-1.021.654-2.166.837-3.249.837-1.184 0-2.104-.143-2.983-.531"/><path d="m61.6664 40.1024c0-4.577-2.636-7.417-5.986-7.417-2.35 0-5.027 1.308-5.027 6.395 0 4.25 2.35 7.621 6.273 7.621 1.429 0 4.74-.695 4.74-6.599m-13.832-.388c0-3.494 2.309-8.01 8.437-8.01 5.088 0 8.255 2.963 8.255 7.642s-3.269 8.377-8.459 8.377c-5.863 0-8.233-4.393-8.233-8.009"/><path d="m69.4154 37.9159c0-3.105 0-3.678-.041-4.332-.041-.694-.205-1.021-.879-1.164-.163-.041-.511-.061-.797-.061-.224 0-.347-.041-.347-.184s.143-.184.45-.184c1.083 0 2.37.061 2.982.061.49 0 1.778-.061 2.514-.061.307 0 .449.041.449.184s-.123.184-.327.184c-.225 0-.347.02-.592.061-.552.102-.716.45-.757 1.164-.04.654-.04 1.227-.04 4.332v2.86c0 2.963.592 4.209 1.593 5.027.92.756 1.859.838 2.555.838.898 0 2.002-.287 2.819-1.104 1.124-1.124 1.185-2.962 1.185-5.067v-2.554c0-3.105 0-3.678-.04-4.332-.041-.694-.206-1.021-.879-1.164-.163-.041-.511-.061-.736-.061-.224 0-.347-.041-.347-.184s.142-.184.428-.184c1.042 0 2.33.061 2.35.061.245 0 1.533-.061 2.33-.061.285 0 .429.041.429.184s-.123.184-.368.184c-.225 0-.347.02-.592.061-.552.102-.716.45-.757 1.164-.04.654-.04 1.227-.04 4.332v2.187c0 2.267-.226 4.678-1.941 6.149-1.451 1.247-2.922 1.471-4.25 1.471-1.083 0-3.044-.061-4.536-1.41-1.042-.939-1.818-2.451-1.818-5.414z"/><path d="m92.0414 39.5301c0 .225.041.307.184.368.429.143 1.042.204 1.552.204.818 0 1.083-.082 1.452-.347.612-.45 1.205-1.39 1.205-3.065 0-2.901-1.92-3.739-3.126-3.739-.511 0-.879.02-1.083.082-.143.04-.184.122-.184.286zm-2.411-1.614c0-3.106 0-3.678-.041-4.332-.041-.694-.204-1.021-.878-1.164-.164-.041-.511-.061-.797-.061-.225 0-.348-.041-.348-.185 0-.143.144-.183.45-.183 1.083 0 2.37.061 2.799.061.695 0 2.247-.061 2.881-.061 1.287 0 2.656.122 3.759.878.572.388 1.39 1.43 1.39 2.8 0 1.511-.634 2.901-2.698 4.576 1.819 2.288 3.229 4.107 4.434 5.373 1.145 1.185 1.983 1.328 2.289 1.39.225.041.408.061.571.061.164 0 .246.062.246.164 0 .163-.143.204-.388.204h-1.942c-1.143 0-1.654-.102-2.185-.388-.879-.47-1.655-1.431-2.8-3.004-.816-1.123-1.757-2.513-2.022-2.819-.102-.123-.225-.143-.368-.143l-1.778-.041c-.102 0-.163.041-.163.163v.286c0 1.9 0 3.515.102 4.373.061.592.184 1.042.797 1.123.306.041.756.082 1.001.082.163 0 .245.062.245.164 0 .143-.143.204-.409.204-1.184 0-2.696-.061-3.003-.061-.388 0-1.675.061-2.493.061-.265 0-.408-.061-.408-.204 0-.102.082-.164.327-.164.306 0 .552-.041.736-.082.408-.081.51-.531.592-1.123.102-.858.102-2.473.102-4.352z"/><path d="m106.8578 45.4959c-2.002-1.757-2.533-4.045-2.533-6.027 0-1.39.429-3.8 2.39-5.599 1.471-1.348 3.413-2.165 6.457-2.165 1.266 0 2.022.082 2.962.204.777.103 1.43.286 2.043.348.225.02.307.122.307.245 0 .163-.062.409-.103 1.123-.041.675-.02 1.798-.061 2.207-.021.307-.062.47-.245.47-.163 0-.204-.163-.204-.449-.021-.634-.286-1.349-.797-1.88-.674-.715-2.268-1.267-4.148-1.267-1.777 0-2.942.45-3.84 1.267-1.493 1.369-1.88 3.31-1.88 5.292 0 4.862 3.698 7.273 6.435 7.273 1.819 0 2.922-.204 3.74-1.144.346-.388.612-.981.694-1.349.061-.326.102-.408.265-.408.144 0 .184.143.184.306 0 .245-.245 2.023-.449 2.718-.102.347-.184.449-.531.592-.818.327-2.371.47-3.678.47-2.799 0-5.149-.613-7.008-2.227"/><path d="m124.6098 37.9159c0-3.105 0-3.678-.041-4.332-.04-.694-.204-1.021-.878-1.164-.164-.041-.511-.061-.797-.061-.224 0-.347-.041-.347-.184s.143-.184.449-.184c.552 0 1.144.021 1.655.021.531.02 1.001.04 1.287.04.654 0 4.72 0 5.109-.02.387-.041.714-.082.877-.123.103-.02.225-.081.328-.081.102 0 .123.081.123.184 0 .142-.103.388-.164 1.327-.021.205-.062 1.104-.102 1.349-.02.102-.062.225-.205.225s-.184-.102-.184-.286c0-.143-.02-.491-.123-.736-.142-.368-.346-.613-1.368-.735-.348-.041-2.493-.082-2.901-.082-.103 0-.144.061-.144.204v5.169c0 .143.021.225.144.225.449 0 2.799 0 3.268-.041.491-.041.797-.102.982-.306.142-.164.224-.266.326-.266.082 0 .143.041.143.164 0 .122-.082.449-.164 1.491-.02.408-.081 1.226-.081 1.369 0 .164 0 .388-.184.388-.143 0-.184-.081-.184-.183-.02-.205-.02-.471-.082-.736-.101-.409-.388-.715-1.143-.797-.389-.041-2.411-.061-2.902-.061-.102 0-.123.081-.123.204v1.614c0 .695-.02 2.574 0 3.167.041 1.41.368 1.716 2.452 1.716.532 0 1.39 0 1.921-.245.532-.245.777-.674.919-1.512.041-.225.082-.306.225-.306.164 0 .164.163.164.367 0 .47-.164 1.86-.266 2.268-.143.532-.327.532-1.103.532-1.532 0-2.657-.041-3.535-.062-.878-.041-1.512-.061-2.125-.061-.225 0-.674 0-1.164.02-.47 0-1.001.041-1.411.041-.265 0-.408-.061-.408-.204 0-.102.082-.164.327-.164.306 0 .552-.04.736-.081.408-.082.51-.531.592-1.124.102-.858.102-2.472.102-4.352z"/><path d="m137.6976 47.1917c-.326-.143-.388-.245-.388-.694 0-1.124.082-2.35.103-2.677.02-.306.081-.531.245-.531.184 0 .204.184.204.347 0 .266.082.695.184 1.042.449 1.512 1.655 2.064 2.922 2.064 1.838 0 2.738-1.247 2.738-2.329 0-1.002-.307-1.941-2.003-3.269l-.939-.736c-2.249-1.757-3.025-3.187-3.025-4.843 0-2.246 1.88-3.861 4.72-3.861 1.328 0 2.186.204 2.718.347.183.041.286.102.286.245 0 .266-.082.859-.082 2.453 0 .449-.062.612-.225.612-.142 0-.204-.122-.204-.367 0-.184-.103-.818-.531-1.349-.307-.388-.9-1.001-2.228-1.001-1.512 0-2.431.879-2.431 2.105 0 .939.47 1.654 2.166 2.941l.572.43c2.472 1.859 3.35 3.269 3.35 5.21 0 1.185-.449 2.594-1.92 3.555-1.021.654-2.166.837-3.249.837-1.184 0-2.104-.143-2.983-.531"/><path d="m4.057 69.0999c0-3.105 0-3.678-.041-4.331-.04-.695-.245-1.043-.694-1.145-.225-.061-.491-.081-.736-.081-.204 0-.327-.041-.327-.205 0-.122.163-.163.49-.163.777 0 2.064.061 2.657.061.51 0 1.715-.061 2.492-.061.265 0 .429.041.429.163 0 .164-.123.205-.327.205s-.367.02-.613.061c-.551.103-.715.45-.756 1.165-.04.653-.04 1.226-.04 4.331v3.596c0 1.982 0 3.596.081 4.475.062.551.204.919.818 1.001.286.041.735.081 1.042.081.224 0 .327.062.327.164 0 .143-.164.204-.389.204-1.349 0-2.636-.061-3.187-.061-.47 0-1.757.061-2.575.061-.265 0-.408-.061-.408-.204 0-.102.082-.164.327-.164.306 0 .552-.04.736-.081.408-.082.531-.429.592-1.022.102-.858.102-2.472.102-4.454z"/><path d="m16.2748 75.8426c.041 1.594.307 2.125.715 2.268.348.123.735.143 1.062.143.225 0 .348.041.348.163 0 .164-.185.205-.471.205-1.327 0-2.144-.062-2.533-.062-.183 0-1.143.062-2.206.062-.266 0-.45-.021-.45-.205 0-.122.123-.163.327-.163.266 0 .634-.02.92-.102.531-.164.612-.756.633-2.534l.183-12.034c0-.409.062-.695.266-.695.226 0 .409.266.757.634.245.265 3.35 3.534 6.333 6.497 1.389 1.389 4.147 4.331 4.495 4.658h.102l-.204-9.173c-.02-1.247-.205-1.635-.695-1.839-.307-.123-.797-.123-1.083-.123-.245 0-.326-.061-.326-.184 0-.164.225-.184.531-.184 1.062 0 2.043.062 2.472.062.224 0 1.001-.062 2.002-.062.265 0 .47.02.47.184 0 .123-.123.184-.368.184-.204 0-.368 0-.613.061-.571.164-.735.593-.756 1.737l-.224 12.893c0 .449-.082.633-.266.633-.225 0-.47-.225-.694-.45-1.288-1.226-3.903-3.902-6.028-6.007-2.227-2.206-4.495-4.699-4.863-5.087h-.061z"/><path d="m34.1957 78.3758c-.326-.143-.388-.245-.388-.694 0-1.124.082-2.35.103-2.677.02-.306.081-.531.245-.531.184 0 .204.184.204.347 0 .266.082.695.184 1.042.449 1.512 1.655 2.064 2.922 2.064 1.838 0 2.738-1.247 2.738-2.329 0-1.002-.307-1.942-2.003-3.269l-.94-.736c-2.248-1.757-3.024-3.187-3.024-4.842 0-2.248 1.88-3.862 4.72-3.862 1.328 0 2.186.204 2.718.347.183.041.286.102.286.245 0 .266-.082.859-.082 2.453 0 .449-.062.612-.225.612-.143 0-.204-.122-.204-.367 0-.184-.103-.818-.531-1.349-.307-.388-.9-1.001-2.228-1.001-1.512 0-2.431.879-2.431 2.105 0 .939.47 1.654 2.166 2.942l.572.429c2.472 1.859 3.35 3.269 3.35 5.21 0 1.185-.449 2.594-1.92 3.555-1.021.654-2.166.837-3.249.837-1.184 0-2.104-.143-2.983-.531"/><path d="m51.6635 64.3192-3.045.081c-1.185.041-1.675.144-1.981.593-.204.306-.307.552-.348.715-.04.164-.102.245-.225.245-.142 0-.183-.102-.183-.326 0-.328.387-2.186.428-2.35.062-.266.124-.388.246-.388.164 0 .368.204.878.245.593.061 1.37.102 2.043.102h8.091c.655 0 1.104-.061 1.41-.102.307-.062.47-.102.552-.102.143 0 .163.122.163.429 0 .429-.061 1.838-.061 2.37-.021.204-.061.327-.184.327-.163 0-.204-.102-.225-.409l-.02-.224c-.041-.532-.593-1.104-2.411-1.145l-2.574-.061v8.377c0 1.879 0 3.494.102 4.372.061.572.184 1.022.797 1.104.285.04.735.081 1.042.081.225 0 .326.062.326.164 0 .143-.163.204-.387.204-1.349 0-2.636-.061-3.208-.061-.47 0-1.757.061-2.575.061-.265 0-.408-.061-.408-.204 0-.102.081-.164.326-.164.307 0 .552-.041.736-.081.409-.082.531-.532.592-1.124.103-.858.103-2.473.103-4.352z"/><path d="m65.351 69.0999c0-3.105 0-3.678-.041-4.331-.041-.695-.245-1.043-.694-1.145-.225-.061-.491-.081-.736-.081-.204 0-.327-.041-.327-.205 0-.122.163-.163.49-.163.777 0 2.064.061 2.657.061.51 0 1.715-.061 2.493-.061.264 0 .428.041.428.163 0 .164-.123.205-.327.205s-.367.02-.613.061c-.551.103-.715.45-.756 1.165-.041.653-.041 1.226-.041 4.331v3.596c0 1.982 0 3.596.082 4.475.062.551.204.919.818 1.001.286.041.735.081 1.042.081.224 0 .327.062.327.164 0 .143-.164.204-.389.204-1.349 0-2.636-.061-3.186-.061-.471 0-1.758.061-2.576.061-.265 0-.408-.061-.408-.204 0-.102.082-.164.327-.164.306 0 .552-.04.736-.081.408-.082.531-.429.592-1.022.102-.858.102-2.472.102-4.454z"/><path d="m79.0482 64.3192-3.045.081c-1.185.041-1.675.144-1.981.593-.204.306-.307.552-.348.715-.04.164-.102.245-.225.245-.142 0-.183-.102-.183-.326 0-.328.387-2.186.428-2.35.062-.266.124-.388.246-.388.164 0 .368.204.878.245.593.061 1.37.102 2.043.102h8.091c.655 0 1.104-.061 1.41-.102.307-.062.47-.102.552-.102.143 0 .163.122.163.429 0 .429-.061 1.838-.061 2.37-.021.204-.061.327-.184.327-.163 0-.204-.102-.224-.409l-.021-.224c-.041-.532-.593-1.104-2.411-1.145l-2.574-.061v8.377c0 1.879 0 3.494.102 4.372.061.572.184 1.022.797 1.104.285.04.735.081 1.042.081.225 0 .326.062.326.164 0 .143-.163.204-.387.204-1.349 0-2.636-.061-3.208-.061-.47 0-1.757.061-2.575.061-.265 0-.408-.061-.408-.204 0-.102.081-.164.326-.164.307 0 .552-.041.736-.081.409-.082.531-.532.592-1.124.103-.858.103-2.473.103-4.352z"/><path d="m92.4389 69.0999c0-3.105 0-3.678-.041-4.331-.041-.695-.205-1.022-.879-1.165-.163-.041-.511-.061-.797-.061-.224 0-.347-.041-.347-.184s.143-.184.45-.184c1.083 0 2.37.061 2.982.061.49 0 1.778-.061 2.514-.061.306 0 .449.041.449.184s-.123.184-.327.184c-.225 0-.347.02-.592.061-.552.103-.716.45-.757 1.165-.04.653-.04 1.226-.04 4.331v2.86c0 2.963.592 4.209 1.593 5.027.92.756 1.859.838 2.555.838.898 0 2.002-.286 2.819-1.104 1.124-1.123 1.185-2.962 1.185-5.067v-2.554c0-3.105 0-3.678-.04-4.331-.041-.695-.206-1.022-.879-1.165-.163-.041-.511-.061-.736-.061-.224 0-.347-.041-.347-.184s.142-.184.428-.184c1.042 0 2.329.061 2.35.061.245 0 1.533-.061 2.33-.061.285 0 .429.041.429.184s-.123.184-.368.184c-.225 0-.347.02-.592.061-.552.103-.716.45-.757 1.165-.04.653-.04 1.226-.04 4.331v2.187c0 2.267-.226 4.678-1.941 6.15-1.451 1.246-2.922 1.47-4.25 1.47-1.083 0-3.044-.061-4.536-1.409-1.042-.94-1.818-2.452-1.818-5.415z"/><path d="m115.7152 64.3192-3.045.081c-1.185.041-1.675.144-1.981.593-.204.306-.307.552-.348.715-.041.164-.102.245-.225.245-.142 0-.183-.102-.183-.326 0-.328.387-2.186.428-2.35.062-.266.124-.388.246-.388.164 0 .368.204.878.245.593.061 1.37.102 2.043.102h8.091c.655 0 1.104-.061 1.41-.102.307-.062.47-.102.552-.102.143 0 .163.122.163.429 0 .429-.061 1.838-.061 2.37-.021.204-.061.327-.184.327-.163 0-.204-.102-.224-.409l-.021-.224c-.041-.532-.593-1.104-2.411-1.145l-2.574-.061v8.377c0 1.879 0 3.494.102 4.372.061.572.184 1.022.797 1.104.286.04.735.081 1.042.081.225 0 .326.062.326.164 0 .143-.163.204-.387.204-1.349 0-2.636-.061-3.208-.061-.47 0-1.757.061-2.575.061-.265 0-.408-.061-.408-.204 0-.102.081-.164.326-.164.307 0 .552-.041.736-.081.409-.082.531-.532.592-1.124.103-.858.103-2.473.103-4.352z"/><path d="m129.5385 69.0999c0-3.105 0-3.678-.041-4.331-.041-.695-.204-1.022-.878-1.165-.164-.041-.511-.061-.797-.061-.224 0-.347-.041-.347-.184s.143-.184.449-.184c.552 0 1.144.02 1.655.02.531.021 1.001.041 1.287.041.654 0 4.72 0 5.109-.02.387-.041.714-.082.877-.123.103-.02.225-.081.328-.081.102 0 .122.081.122.183 0 .143-.102.389-.163 1.328-.021.205-.062 1.104-.102 1.349-.02.102-.062.225-.205.225s-.184-.102-.184-.287c0-.142-.02-.49-.123-.735-.142-.368-.346-.613-1.368-.735-.348-.041-2.493-.082-2.901-.082-.103 0-.144.061-.144.204v5.169c0 .143.021.225.144.225.449 0 2.799 0 3.268-.041.491-.041.797-.102.982-.306.142-.164.224-.266.326-.266.082 0 .143.041.143.164 0 .122-.082.449-.164 1.491-.02.409-.081 1.226-.081 1.369 0 .164 0 .388-.184.388-.143 0-.184-.081-.184-.183-.02-.205-.02-.471-.082-.736-.101-.409-.387-.715-1.143-.797-.389-.041-2.411-.061-2.902-.061-.102 0-.123.081-.123.204v1.614c0 .695-.02 2.574 0 3.167.041 1.41.368 1.716 2.452 1.716.532 0 1.39 0 1.921-.245.532-.245.777-.674.919-1.512.041-.224.082-.306.225-.306.164 0 .164.163.164.367 0 .47-.164 1.86-.266 2.268-.143.532-.327.532-1.103.532-1.532 0-2.656-.041-3.535-.062-.878-.041-1.512-.061-2.124-.061-.226 0-.675 0-1.165.02-.47 0-1.001.041-1.411.041-.265 0-.408-.061-.408-.204 0-.102.082-.164.327-.164.306 0 .552-.04.736-.081.408-.082.51-.531.592-1.124.102-.858.102-2.472.102-4.352z"/></g></g></svg>