<svg viewBox="0 0 36.65 43.32" xmlns="http://www.w3.org/2000/svg"><g opacity=".3"><path d="m3.52 36-1.09.52v-.52l.91-.43a.17.17 0 0 1 .14 0 .26.26 0 0 1 .04.43z" fill="#bd201f"/><path d="m3.77 35.88-.71.34a.73.73 0 0 0 -.24-.45l.58-.27s.34 0 .39.34c.01.01 0 .03-.02.04z" fill="#3c3c3c"/><path d="m3.07 35.39-.88.42a.22.22 0 0 1 -.31-.2v-.21l1-.46h.09a.21.21 0 0 1 .3.15.31.31 0 0 1 -.2.3z" fill="#bd201f"/><path d="m3.21 35.33-.59.28a1 1 0 0 0 -.2-.47l.43-.2.26-.13c.09 0 .17.29.14.47a.1.1 0 0 1 -.04.05z" fill="#3c3c3c"/><circle cx="1.36" cy="36.47" fill="#bd201f" r="1.18"/><circle cx="4.28" cy="34.96" fill="#484848" r="1.18"/><path d="m5.13 33.84 1.09-.53v.57l-.91.43a.23.23 0 0 1 -.14 0 .25.25 0 0 1 -.04-.47z" fill="#bd201f"/><path d="m4.88 34 .71-.35a.73.73 0 0 0 .24.45l-.58.28s-.34-.05-.39-.34c-.01-.04 0-.04.02-.04z" fill="#3c3c3c"/><path d="m5.5 34.45.87-.45a.22.22 0 0 1 .32.2v.22l-1 .45-.1.05a.21.21 0 0 1 -.3-.15.34.34 0 0 1 .21-.32z" fill="#bd201f"/><path d="m5.36 34.52.64-.28a1 1 0 0 0 .19.46l-.42.2-.32.1c-.09 0-.17-.29-.13-.46a.07.07 0 0 1 .04-.02z" fill="#3c3c3c"/><circle cx="7.25" cy="33.39" fill="#bd201f" r="1.18"/></g><g opacity=".5"><path d="m3.34 30.12-1.09.52v-.56l.91-.44a.17.17 0 0 1 .14 0 .26.26 0 0 1 .04.48z" fill="#bd201f"/><path d="m3.59 30-.72.34a.68.68 0 0 0 -.23-.45l.58-.27s.34.05.39.34z" fill="#3c3c3c"/><path d="m2.88 29.51-.88.42a.22.22 0 0 1 -.32-.2v-.21l1-.46h.1a.21.21 0 0 1 .3.16.31.31 0 0 1 -.2.29z" fill="#bd201f"/><path d="m3 29.45-.59.28a.91.91 0 0 0 -.19-.47l.42-.2.27-.13c.09 0 .17.29.14.47a.12.12 0 0 1 -.05.05z" fill="#3c3c3c"/><circle cx="1.18" cy="30.59" fill="#bd201f" r="1.18"/><circle cx="4.1" cy="29.08" fill="#484848" r="1.18"/><path d="m5 28 1-.56v.56l-.91.43a.2.2 0 0 1 -.13 0h.04a.25.25 0 0 1 0-.43z" fill="#bd201f"/><path d="m4.7 28.08.71-.35a.73.73 0 0 0 .24.45l-.59.28a.48.48 0 0 1 -.39-.34s.01-.04.03-.04z" fill="#3c3c3c"/><path d="m5.32 28.57.87-.42a.22.22 0 0 1 .32.2v.22l-1 .45-.1.05a.21.21 0 0 1 -.3-.15.33.33 0 0 1 .21-.35z" fill="#bd201f"/><path d="m5.18 28.64.59-.28a.9.9 0 0 0 .19.46l-.42.2-.27.13c-.09 0-.17-.28-.14-.46a.12.12 0 0 1 .05-.05z" fill="#3c3c3c"/><circle cx="7.07" cy="27.51" fill="#bd201f" r="1.18"/></g><g opacity=".5"><path d="m3.49 24.42-1.09.52v-.56l.9-.43a.23.23 0 0 1 .14 0 .25.25 0 0 1 .05.47z" fill="#bd201f"/><path d="m3.74 24.3-.74.34a.72.72 0 0 0 -.24-.44l.58-.28s.34 0 .39.34c.04.02.03.04.01.04z" fill="#3c3c3c"/><path d="m3 23.82-.88.42a.22.22 0 0 1 -.31-.2v-.22l1-.45.09-.05a.21.21 0 0 1 .3.15.32.32 0 0 1 -.2.35z" fill="#bd201f"/><path d="m3.18 23.75-.59.25a1 1 0 0 0 -.2-.46l.43-.2.26-.13c.09 0 .17.29.14.46a.1.1 0 0 1 -.04.08z" fill="#3c3c3c"/><circle cx="1.33" cy="24.9" fill="#bd201f" r="1.18"/><circle cx="4.25" cy="23.38" fill="#484848" r="1.18"/><path d="m5.1 22.26 1.09-.52v.56l-.91.43a.14.14 0 0 1 -.14 0 .26.26 0 0 1 -.04-.47z" fill="#bd201f"/><path d="m4.85 22.38.71-.38a.73.73 0 0 0 .24.45l-.58.27s-.34-.05-.39-.34c-.01.03 0 .01.02 0z" fill="#3c3c3c"/><path d="m5.47 22.88.87-.42a.22.22 0 0 1 .32.2v.21l-1 .46-.1.05a.22.22 0 0 1 -.3-.15.33.33 0 0 1 .21-.35z" fill="#bd201f"/><path d="m5.33 22.94.59-.28a1 1 0 0 0 .2.47l-.43.2-.26.13c-.1 0-.18-.29-.14-.46a.07.07 0 0 1 .04-.06z" fill="#3c3c3c"/><circle cx="7.22" cy="21.81" fill="#bd201f" r="1.18"/></g><g opacity=".7"><path d="m3.46 19.05-1.09.53v-.58l.9-.43a.23.23 0 0 1 .14 0 .25.25 0 0 1 .05.48z" fill="#bd201f"/><path d="m3.71 18.94-.71.34a.73.73 0 0 0 -.24-.45l.58-.28s.34.05.39.34a0 0 0 0 1 -.02.05z" fill="#3c3c3c"/><path d="m3 18.45-.87.42a.22.22 0 0 1 -.32-.2v-.21l1-.46h.07a.21.21 0 0 1 .3.15.32.32 0 0 1 -.18.3z" fill="#bd201f"/><path d="m3.15 18.38-.59.29a1 1 0 0 0 -.2-.47l.43-.2.26-.13c.09 0 .17.29.14.46s-.02.04-.04.05z" fill="#3c3c3c"/><circle cx="1.31" cy="19.53" fill="#bd201f" r="1.18"/><circle cx="4.22" cy="18.01" fill="#484848" r="1.18"/><path d="m5.07 16.89 1.09-.52v.57l-.91.43a.22.22 0 0 1 -.14 0 .26.26 0 0 1 -.04-.48z" fill="#bd201f"/><path d="m4.82 17 .71-.34a.73.73 0 0 0 .24.45l-.58.28s-.34 0-.39-.34a.08.08 0 0 1 .02-.05z" fill="#3c3c3c"/><path d="m5.44 17.51.87-.42a.22.22 0 0 1 .32.2v.21l-1 .46-.1.05a.21.21 0 0 1 -.29-.15.32.32 0 0 1 .2-.35z" fill="#bd201f"/><path d="m5.3 17.58.59-.29a1 1 0 0 0 .2.47l-.43.2-.26.13c-.1 0-.18-.29-.14-.46a.07.07 0 0 1 .04-.05z" fill="#3c3c3c"/><circle cx="7.19" cy="16.45" fill="#bd201f" r="1.18"/></g><g opacity=".9"><path d="m3.39 13.52-1.09.48v-.56l.91-.43a.17.17 0 0 1 .14 0 .26.26 0 0 1 .04.51z" fill="#bd201f"/><path d="m3.64 13.4-.71.34a.72.72 0 0 0 -.24-.44l.58-.3s.34.05.39.34c.01.04 0 .05-.02.06z" fill="#3c3c3c"/><path d="m2.94 12.92-.88.41a.21.21 0 0 1 -.31-.2v-.21l1-.46h.1a.21.21 0 0 1 .3.15.32.32 0 0 1 -.21.31z" fill="#bd201f"/><path d="m3.08 12.85-.59.28a1 1 0 0 0 -.2-.46l.42-.21.29-.12c.09 0 .17.28.14.46a.1.1 0 0 1 -.06.05z" fill="#3c3c3c"/><circle cx="1.23" cy="14" fill="#bd201f" r="1.18"/><circle cx="4.15" cy="12.48" fill="#484848" r="1.18"/><path d="m5 11.36 1.09-.52v.56l-.9.43a.17.17 0 0 1 -.14 0h-.05a.26.26 0 0 1 0-.47z" fill="#bd201f"/><path d="m4.75 11.48.71-.34a.75.75 0 0 0 .24.45l-.58.27s-.34 0-.39-.34c-.01-.02 0-.03.02-.04z" fill="#3c3c3c"/><path d="m5.37 12 .87-.42a.22.22 0 0 1 .32.2v.22l-1 .46h-.1a.21.21 0 0 1 -.3-.15.32.32 0 0 1 .21-.31z" fill="#bd201f"/><path d="m5.23 12 .59-.28a1 1 0 0 0 .19.47l-.42.2-.27.12c-.09 0-.17-.28-.13-.46a.07.07 0 0 1 .04-.05z" fill="#3c3c3c"/><circle cx="7.12" cy="10.91" fill="#bd201f" r="1.18"/></g><path d="m3.46 8-1.09.52v-.52l.9-.43a.23.23 0 0 1 .14 0 .25.25 0 0 1 .05.43z" fill="#bd201f"/><path d="m3.71 7.92-.71.34a.72.72 0 0 0 -.24-.44l.58-.28s.34 0 .39.34c.01.02 0 .04-.02.04z" fill="#3c3c3c"/><path d="m3 7.44-.87.42a.22.22 0 0 1 -.32-.2v-.21l1-.46h.09a.21.21 0 0 1 .3.15.32.32 0 0 1 -.2.3z" fill="#bd201f"/><path d="m3.15 7.37-.59.28a1 1 0 0 0 -.2-.46l.43-.19.26-.13c.09 0 .17.29.14.46a.07.07 0 0 1 -.04.04z" fill="#3c3c3c"/><circle cx="1.31" cy="8.52" fill="#bd201f" r="1.18"/><circle cx="4.22" cy="7" fill="#484848" r="1.18"/><path d="m5.07 5.88 1.09-.52v.56l-.91.43a.14.14 0 0 1 -.14 0 .26.26 0 0 1 -.04-.47z" fill="#bd201f"/><path d="m4.82 6 .71-.34a.73.73 0 0 0 .24.45l-.58.27s-.34 0-.39-.34a.08.08 0 0 1 .02-.04z" fill="#3c3c3c"/><path d="m5.44 6.5.87-.42a.22.22 0 0 1 .32.2v.21l-.97.51h-.1a.21.21 0 0 1 -.29-.15.31.31 0 0 1 .17-.35z" fill="#bd201f"/><path d="m5.3 6.56.59-.28a1 1 0 0 0 .2.47l-.43.25-.26.13c-.1 0-.18-.29-.14-.46a.07.07 0 0 1 .04-.11z" fill="#3c3c3c"/><circle cx="7.19" cy="5.43" fill="#bd201f" r="1.18"/><g opacity=".2"><path d="m3.37 41.65-1.09.52v-.56l.91-.43a.14.14 0 0 1 .14 0 .26.26 0 0 1 .04.47z" fill="#bd201f"/><path d="m3.62 41.53-.72.34a.68.68 0 0 0 -.23-.45l.58-.27s.34.05.39.34z" fill="#3c3c3c"/><path d="m2.91 41-.91.46a.22.22 0 0 1 -.32-.2v-.21l1-.46.1-.05a.22.22 0 0 1 .3.16.31.31 0 0 1 -.17.3z" fill="#bd201f"/><path d="m3.05 41-.59.28a.91.91 0 0 0 -.19-.47l.42-.2.31-.15c.09 0 .17.29.13.47a.07.07 0 0 1 -.08.07z" fill="#3c3c3c"/><circle cx="1.21" cy="42.12" fill="#bd201f" r="1.18"/><circle cx="4.12" cy="40.61" fill="#484848" r="1.18"/><path d="m5 39.49 1.06-.49v.56l-.91.44a.2.2 0 0 1 -.15 0 .25.25 0 0 1 0-.51z" fill="#bd201f"/><path d="m4.73 39.61.71-.34a.66.66 0 0 0 .24.44l-.59.29s-.34-.05-.39-.34c0-.03.01-.05.03-.05z" fill="#3c3c3c"/><path d="m5.35 40.1.87-.42a.23.23 0 0 1 .32.21v.21l-1 .46h-.1a.21.21 0 0 1 -.3-.15.32.32 0 0 1 .21-.31z" fill="#bd201f"/><path d="m5.2 40.17.59-.28a1 1 0 0 0 .2.46l-.42.21-.27.12c-.09 0-.17-.28-.14-.46a.1.1 0 0 1 .04-.05z" fill="#3c3c3c"/><circle cx="7.1" cy="39.04" fill="#bd201f" r="1.18"/></g><g opacity=".3"><path d="m12.83 31.8-1.08.52v-.57l.91-.43a.2.2 0 0 1 .13 0 .26.26 0 0 1 .04.48z" fill="#bd201f"/><path d="m13.08 31.68-.71.34a.73.73 0 0 0 -.24-.45l.59-.28a.48.48 0 0 1 .39.34.05.05 0 0 1 -.03.05z" fill="#3c3c3c"/><path d="m12.38 31.19-.87.42a.22.22 0 0 1 -.32-.2v-.21l1-.46h.1a.21.21 0 0 1 .29.15.31.31 0 0 1 -.2.3z" fill="#bd201f"/><path d="m12.52 31.12-.59.29a1 1 0 0 0 -.2-.47l.43-.2.26-.13c.1 0 .18.29.14.46s-.02.04-.04.05z" fill="#3c3c3c"/><circle cx="10.68" cy="32.27" fill="#bd201f" r="1.18"/><circle cx="13.59" cy="30.76" fill="#484848" r="1.18"/><path d="m14.44 29.64 1.09-.53v.57l-.91.43a.22.22 0 0 1 -.14 0 .25.25 0 0 1 -.04-.47z" fill="#bd201f"/><path d="m14.19 29.75.72-.34a.68.68 0 0 0 .23.45l-.58.28s-.34-.05-.39-.34a.08.08 0 0 1 .02-.05z" fill="#3c3c3c"/><path d="m14.81 30.25.87-.42a.22.22 0 0 1 .32.17v.21l-1 .46-.09.05a.21.21 0 0 1 -.3-.15.32.32 0 0 1 .2-.32z" fill="#bd201f"/><path d="m14.67 30.32.59-.28a1 1 0 0 0 .2.46l-.43.2-.26.13c-.09 0-.17-.29-.14-.46a.07.07 0 0 1 .04-.05z" fill="#3c3c3c"/><circle cx="16.56" cy="29.19" fill="#bd201f" r="1.18"/></g><g opacity=".5"><path d="m12.65 25.92-1.09.52v-.57l.91-.43a.23.23 0 0 1 .14 0 .26.26 0 0 1 .04.48z" fill="#bd201f"/><path d="m12.9 25.8-.71.34a.73.73 0 0 0 -.24-.45l.58-.28a.47.47 0 0 1 .39.35s0 .03-.02.04z" fill="#3c3c3c"/><path d="m12.2 25.31-.88.42a.22.22 0 0 1 -.31-.2v-.21l1-.46.09-.05a.21.21 0 0 1 .3.15.31.31 0 0 1 -.2.35z" fill="#bd201f"/><path d="m12.34 25.24-.59.29a1 1 0 0 0 -.2-.47l.43-.2.26-.13c.09 0 .17.29.14.46a.07.07 0 0 1 -.04.05z" fill="#3c3c3c"/><circle cx="10.49" cy="26.39" fill="#bd201f" r="1.18"/><circle cx="13.41" cy="24.88" fill="#484848" r="1.18"/><path d="m14.26 23.76 1.09-.53v.57l-.91.43a.23.23 0 0 1 -.14 0 .25.25 0 0 1 -.04-.47z" fill="#bd201f"/><path d="m14 23.88.71-.35a.73.73 0 0 0 .29.47l-.58.28s-.34-.05-.39-.34c-.03-.04-.03-.06-.03-.06z" fill="#3c3c3c"/><path d="m14.63 24.37.87-.37a.22.22 0 0 1 .32.2v.21l-1 .46-.1.05a.21.21 0 0 1 -.3-.15.34.34 0 0 1 .21-.4z" fill="#bd201f"/><path d="m14.49 24.44.59-.28a1 1 0 0 0 .2.46l-.43.2-.26.13c-.1 0-.18-.29-.14-.46a.07.07 0 0 1 .04-.05z" fill="#3c3c3c"/><circle cx="16.38" cy="23.31" fill="#bd201f" r="1.18"/></g><g opacity=".5"><path d="m12.81 20.22-1.09.52v-.56l.91-.43a.15.15 0 0 1 .13 0 .26.26 0 0 1 .05.47z" fill="#bd201f"/><path d="m13.05 20.1-.71.34a.72.72 0 0 0 -.24-.44l.59-.28s.34.05.39.34c0 .02-.01.03-.03.04z" fill="#3c3c3c"/><path d="m12.35 19.62-.87.42a.23.23 0 0 1 -.32-.21v-.21l1-.46h.1a.21.21 0 0 1 .3.15.34.34 0 0 1 -.21.31z" fill="#bd201f"/><path d="m12.49 19.55-.59.28a1 1 0 0 0 -.2-.46l.43-.21.26-.12c.1 0 .18.28.14.46a.07.07 0 0 1 -.04.05z" fill="#3c3c3c"/><circle cx="10.65" cy="20.7" fill="#bd201f" r="1.18"/><circle cx="13.56" cy="19.18" fill="#484848" r="1.18"/><path d="m14.41 18.06 1.09-.52v.56l-.91.43a.17.17 0 0 1 -.14 0 .26.26 0 0 1 -.04-.47z" fill="#bd201f"/><path d="m14.16 18.18.72-.34a.7.7 0 0 0 .23.45l-.58.27s-.34 0-.39-.34a.05.05 0 0 1 .02-.04z" fill="#3c3c3c"/><path d="m14.78 18.68.88-.42a.22.22 0 0 1 .31.2v.21l-1 .46h-.09a.21.21 0 0 1 -.3-.15.3.3 0 0 1 .2-.3z" fill="#bd201f"/><path d="m14.64 18.74.59-.28a1 1 0 0 0 .2.47l-.43.2-.26.13c-.09 0-.17-.29-.14-.47a.1.1 0 0 1 .04-.05z" fill="#3c3c3c"/><circle cx="16.53" cy="17.61" fill="#bd201f" r="1.18"/></g><g opacity=".7"><path d="m12.78 14.85-1.09.53v-.57l.91-.43a.22.22 0 0 1 .14 0 .25.25 0 0 1 .04.47z" fill="#bd201f"/><path d="m13 14.73-.72.35a.67.67 0 0 0 -.24-.45l.59-.28s.34.05.39.34c.03.02-.02.04-.02.04z" fill="#3c3c3c"/><path d="m12.32 14.25-.87.42a.22.22 0 0 1 -.32-.2v-.21l1-.46.1-.05a.22.22 0 0 1 .3.15.34.34 0 0 1 -.21.35z" fill="#bd201f"/><path d="m12.46 14.18-.59.28a1 1 0 0 0 -.19-.46l.42-.2.27-.13c.09 0 .17.29.13.46a.07.07 0 0 1 -.04.05z" fill="#3c3c3c"/><circle cx="10.62" cy="15.33" fill="#bd201f" r="1.18"/><circle cx="13.53" cy="13.81" fill="#484848" r="1.18"/><path d="m14.38 12.69 1.09-.52v.57l-.91.43a.17.17 0 0 1 -.14 0 .26.26 0 0 1 -.04-.48z" fill="#bd201f"/><path d="m14.13 12.81.72-.34a.68.68 0 0 0 .23.45l-.58.27s-.34 0-.39-.34a.08.08 0 0 1 .02-.04z" fill="#3c3c3c"/><path d="m14.75 13.31.88-.42a.22.22 0 0 1 .31.2v.21l-1 .46-.1.05a.21.21 0 0 1 -.3-.15.31.31 0 0 1 .21-.35z" fill="#bd201f"/><path d="m14.61 13.38.59-.29a1 1 0 0 0 .2.47l-.42.2-.27.13c-.09 0-.17-.29-.14-.46a.07.07 0 0 1 .04-.05z" fill="#3c3c3c"/><circle cx="16.51" cy="12.25" fill="#bd201f" r="1.18"/></g><g opacity=".9"><path d="m12.7 9.32-1.08.52v-.56l.91-.43a.15.15 0 0 1 .13 0 .26.26 0 0 1 .04.47z" fill="#bd201f"/><path d="m13 9.2-.71.34a.75.75 0 0 0 -.29-.45l.59-.27a.48.48 0 0 1 .39.34.05.05 0 0 1 .02.04z" fill="#3c3c3c"/><path d="m12.25 8.71-.87.42a.22.22 0 0 1 -.32-.2v-.21l1-.46h.1a.2.2 0 0 1 .29.15.3.3 0 0 1 -.2.3z" fill="#bd201f"/><path d="m12.39 8.65-.59.28a1 1 0 0 0 -.2-.47l.43-.2.26-.12c.1 0 .18.28.14.46a.07.07 0 0 1 -.04.05z" fill="#3c3c3c"/><circle cx="10.55" cy="9.8" fill="#bd201f" r="1.18"/><circle cx="13.46" cy="8.28" fill="#484848" r="1.18"/><path d="m14.31 7.16 1.09-.52v.56l-.91.43a.22.22 0 0 1 -.14 0 .25.25 0 0 1 -.04-.47z" fill="#bd201f"/><path d="m14.06 7.28.72-.34a.67.67 0 0 0 .23.44l-.58.28s-.34 0-.39-.34a.05.05 0 0 1 .02-.04z" fill="#3c3c3c"/><path d="m14.68 7.77.87-.41a.22.22 0 0 1 .32.2v.21l-1 .46h-.09a.21.21 0 0 1 -.3-.15.32.32 0 0 1 .2-.31z" fill="#bd201f"/><path d="m14.54 7.84.59-.28a1 1 0 0 0 .2.46l-.43.21-.26.12c-.09 0-.17-.28-.14-.46a.07.07 0 0 1 .04-.05z" fill="#3c3c3c"/><circle cx="16.43" cy="6.71" fill="#bd201f" r="1.18"/></g><path d="m12.78 3.84-1.09.52v-.56l.91-.43a.17.17 0 0 1 .14 0 .26.26 0 0 1 .04.47z" fill="#bd201f"/><path d="m13 3.72-.72.34a.66.66 0 0 0 -.24-.44l.59-.28s.34.05.39.34a.05.05 0 0 1 -.02.04z" fill="#3c3c3c"/><path d="m12.32 3.24-.87.42a.23.23 0 0 1 -.32-.21v-.21l1-.46h.1a.21.21 0 0 1 .3.15.34.34 0 0 1 -.21.31z" fill="#bd201f"/><path d="m12.46 3.17-.59.28a1 1 0 0 0 -.19-.45l.42-.21.27-.12c.09 0 .17.28.13.46a.07.07 0 0 1 -.04.04z" fill="#3c3c3c"/><circle cx="10.62" cy="4.32" fill="#bd201f" r="1.18"/><circle cx="13.53" cy="2.8" fill="#484848" r="1.18"/><path d="m14.38 1.68 1.09-.52v.56l-.91.43a.17.17 0 0 1 -.14 0 .26.26 0 0 1 -.04-.47z" fill="#bd201f"/><path d="m14.13 1.8.72-.34a.7.7 0 0 0 .23.45l-.58.27s-.34-.05-.39-.34a.05.05 0 0 1 .02-.04z" fill="#3c3c3c"/><path d="m14.75 2.3.88-.42a.22.22 0 0 1 .31.2v.21l-1 .46h-.1a.21.21 0 0 1 -.3-.15.3.3 0 0 1 .21-.3z" fill="#bd201f"/><path d="m14.61 2.36.59-.28a1 1 0 0 0 .2.47l-.42.2-.27.13c-.09 0-.17-.29-.14-.47a.1.1 0 0 1 .04-.05z" fill="#3c3c3c"/><circle cx="16.51" cy="1.23" fill="#bd201f" r="1.18"/><g opacity=".2"><path d="m12.68 37.45-1.09.55v-.6l.91-.4a.17.17 0 0 1 .14 0 .26.26 0 0 1 .04.45z" fill="#bd201f"/><path d="m12.93 37.33-.71.34a.73.73 0 0 0 -.24-.45l.58-.27s.34 0 .39.34c.05.01.05.03-.02.04z" fill="#3c3c3c"/><path d="m12.23 36.84-.88.42a.22.22 0 0 1 -.31-.2v-.21l1-.46h.1a.21.21 0 0 1 .3.15.31.31 0 0 1 -.21.3z" fill="#bd201f"/><path d="m12.37 36.77-.59.29a1 1 0 0 0 -.2-.47l.42-.2.27-.13c.09 0 .17.29.14.46s-.02.05-.04.05z" fill="#3c3c3c"/><circle cx="10.52" cy="37.92" fill="#bd201f" r="1.18"/><circle cx="13.44" cy="36.41" fill="#484848" r="1.18"/><path d="m14.29 35.29 1.09-.53v.57l-.9.43a.23.23 0 0 1 -.14 0 .25.25 0 0 1 -.05-.47z" fill="#bd201f"/><path d="m14 35.41.71-.35a.73.73 0 0 0 .24.45l-.58.28s-.34 0-.39-.34c.02-.02.02-.04.02-.04z" fill="#3c3c3c"/><path d="m14.66 35.9.87-.42a.22.22 0 0 1 .32.2v.21l-1 .46h-.1a.21.21 0 0 1 -.3-.15.34.34 0 0 1 .21-.3z" fill="#bd201f"/><path d="m14.52 36 .59-.28a1 1 0 0 0 .19.46l-.42.2-.27.13c-.09 0-.17-.29-.13-.46a.07.07 0 0 1 .04-.05z" fill="#3c3c3c"/><circle cx="16.41" cy="34.84" fill="#bd201f" r="1.18"/></g><g opacity=".3"><path d="m33.09 36 1.09.53v-.53l-.91-.43a.22.22 0 0 0 -.14 0 .25.25 0 0 0 -.04.43z" fill="#bd201f"/><path d="m32.84 35.88.71.35a.73.73 0 0 1 .24-.45l-.58-.28s-.34 0-.39.34c0 .02 0 .03.02.04z" fill="#3c3c3c"/><path d="m33.55 35.4.87.42a.22.22 0 0 0 .32-.2v-.21l-1-.46-.1-.05a.21.21 0 0 0 -.3.15.32.32 0 0 0 .21.35z" fill="#bd201f"/><path d="m33.41 35.33.58.29a1 1 0 0 1 .2-.47l-.42-.2-.27-.13c-.09 0-.17.29-.13.46a.07.07 0 0 0 .04.05z" fill="#3c3c3c"/><circle cx="35.24" cy="36.49" fill="#bd201f" r="1.18"/><circle cx="32.34" cy="34.96" fill="#484848" r="1.18"/><path d="m31.49 33.83-1.09-.52v.56l.91.44a.22.22 0 0 0 .14 0 .26.26 0 0 0 .04-.48z" fill="#bd201f"/><path d="m31.74 34-.74-.39a.73.73 0 0 1 -.24.45l.58.28s.34-.05.39-.34c.04 0 .03 0 .01 0z" fill="#3c3c3c"/><path d="m31.12 34.45-.87-.45a.22.22 0 0 0 -.32.2v.21l1 .46.07.13a.21.21 0 0 0 .3-.15.32.32 0 0 0 -.18-.4z" fill="#bd201f"/><path d="m31.26 34.52-.59-.29a1 1 0 0 1 -.2.47l.42.2.27.13c.09 0 .17-.29.14-.46a.07.07 0 0 0 -.04-.05z" fill="#3c3c3c"/><circle cx="29.37" cy="33.38" fill="#bd201f" r="1.18"/></g><g opacity=".5"><path d="m33.3 30.12 1.08.53v-.56l-.9-.44a.23.23 0 0 0 -.14 0 .25.25 0 0 0 -.04.47z" fill="#bd201f"/><path d="m33.05 30 .71.35a.73.73 0 0 1 .24-.45l-.58-.28s-.34.05-.39.34c-.03.04-.03.04.02.04z" fill="#3c3c3c"/><path d="m33.75 29.52.88.42a.22.22 0 0 0 .31-.2v-.21l-1-.46-.1-.05a.22.22 0 0 0 -.3.15.32.32 0 0 0 .21.35z" fill="#bd201f"/><path d="m33.61 29.45.59.29a1 1 0 0 1 .2-.47l-.42-.2-.27-.13c-.09 0-.17.29-.14.46a.1.1 0 0 0 .04.05z" fill="#3c3c3c"/><circle cx="35.45" cy="30.61" fill="#bd201f" r="1.18"/><circle cx="32.54" cy="29.08" fill="#484848" r="1.18"/><path d="m31.7 28-1.09-.53v.53l.91.44a.22.22 0 0 0 .14 0 .25.25 0 0 0 .04-.44z" fill="#bd201f"/><path d="m32 28.08-.71-.35a.73.73 0 0 1 -.24.45l.58.28s.34-.05.39-.34c-.02-.02-.02-.04-.02-.04z" fill="#3c3c3c"/><path d="m31.33 28.57-.88-.42a.22.22 0 0 0 -.31.2v.21l1 .46.1.05a.22.22 0 0 0 .3-.15.32.32 0 0 0 -.21-.35z" fill="#bd201f"/><path d="m31.47 28.64-.59-.29a1 1 0 0 1 -.2.47l.42.2.27.13c.09 0 .17-.29.14-.46a.1.1 0 0 0 -.04-.05z" fill="#3c3c3c"/><circle cx="29.58" cy="27.5" fill="#bd201f" r="1.18"/></g><g opacity=".5"><path d="m33.17 24.43 1.08.52v-.56l-.9-.39a.14.14 0 0 0 -.14 0 .26.26 0 0 0 -.04.43z" fill="#bd201f"/><path d="m32.92 24.31.71.34a.75.75 0 0 1 .24-.45l-.58-.27s-.34 0-.39.33a0 0 0 0 0 .02.05z" fill="#3c3c3c"/><path d="m33.63 23.82.87.43a.22.22 0 0 0 .31-.2v-.21l-1-.47h-.1a.21.21 0 0 0 -.3.15.3.3 0 0 0 .22.3z" fill="#bd201f"/><path d="m33.49 23.76.58.28a1 1 0 0 1 .2-.46l-.42-.21-.27-.12c-.09 0-.17.28-.14.46a.08.08 0 0 0 .05.05z" fill="#3c3c3c"/><circle cx="35.32" cy="24.91" fill="#bd201f" r="1.18"/><circle cx="32.42" cy="23.38" fill="#484848" r="1.18"/><path d="m31.57 22.26-1.09-.53v.57l.91.43a.17.17 0 0 0 .14 0 .26.26 0 0 0 .04-.47z" fill="#bd201f"/><path d="m31.82 22.38-.71-.38a.72.72 0 0 1 -.24.44l.58.28s.34-.05.39-.34a.08.08 0 0 0 -.02 0z" fill="#3c3c3c"/><path d="m31.2 22.87-.87-.42a.22.22 0 0 0 -.32.2v.21l1 .46.1.05a.21.21 0 0 0 .3-.15.32.32 0 0 0 -.21-.35z" fill="#bd201f"/><path d="m31.34 22.94-.59-.28a1 1 0 0 1 -.2.46l.42.2.27.13c.09 0 .17-.28.14-.46a.1.1 0 0 0 -.04-.05z" fill="#3c3c3c"/><circle cx="29.45" cy="21.8" fill="#bd201f" r="1.18"/></g><g opacity=".7"><path d="m33.22 19.06 1.09.53v-.59l-.91-.43a.17.17 0 0 0 -.14 0 .26.26 0 0 0 -.04.49z" fill="#bd201f"/><path d="m33 18.94.71.34a.72.72 0 0 1 .24-.44l-.58-.28s-.34.05-.39.34a.08.08 0 0 0 .02.04z" fill="#3c3c3c"/><path d="m33.68 18.46.87.42a.22.22 0 0 0 .32-.2v-.21l-1-.46-.07-.01a.21.21 0 0 0 -.3.15.34.34 0 0 0 .18.31z" fill="#bd201f"/><path d="m33.54 18.39.59.28a1 1 0 0 1 .19-.46l-.42-.21-.26-.13c-.1 0-.18.28-.14.46a.07.07 0 0 0 .04.06z" fill="#3c3c3c"/><circle cx="35.38" cy="19.55" fill="#bd201f" r="1.18"/><circle cx="32.47" cy="18.02" fill="#484848" r="1.18"/><path d="m31.62 16.89-1.08-.52v.56l.9.43a.14.14 0 0 0 .14 0 .26.26 0 0 0 .04-.47z" fill="#bd201f"/><path d="m31.87 17-.71-.34a.72.72 0 0 1 -.24.44l.58.28s.34-.05.39-.34c.01-.04 0-.04-.02-.04z" fill="#3c3c3c"/><path d="m31.25 17.51-.87-.43a.22.22 0 0 0 -.32.2v.21l.94.51h.09a.2.2 0 0 0 .3-.14.31.31 0 0 0 -.14-.35z" fill="#bd201f"/><path d="m31.39 17.57-.59-.28a.91.91 0 0 1 -.2.46l.4.25.26.13c.09 0 .17-.29.14-.47a.07.07 0 0 0 -.01-.09z" fill="#3c3c3c"/><circle cx="29.5" cy="16.44" fill="#bd201f" r="1.18"/></g><g opacity=".9"><path d="m33.32 13.53 1.08.52v-.56l-.9-.44a.23.23 0 0 0 -.14 0 .26.26 0 0 0 -.04.48z" fill="#bd201f"/><path d="m33.07 13.4.71.35a.73.73 0 0 1 .22-.45l-.56-.3s-.34.05-.39.34c-.05.04 0 .06.02.06z" fill="#3c3c3c"/><path d="m33.77 12.92.87.43a.22.22 0 0 0 .32-.2v-.21l-1-.47h-.1a.21.21 0 0 0 -.3.14.31.31 0 0 0 .21.31z" fill="#bd201f"/><path d="m33.63 12.86.59.28a.91.91 0 0 1 .2-.46l-.42-.21-.27-.13c-.09 0-.17.29-.14.47a.1.1 0 0 0 .04.05z" fill="#3c3c3c"/><circle cx="35.47" cy="14.01" fill="#bd201f" r="1.18"/><circle cx="32.56" cy="12.48" fill="#484848" r="1.18"/><path d="m31.72 11.36-1.09-.53v.57l.91.43a.22.22 0 0 0 .14 0 .25.25 0 0 0 .04-.47z" fill="#bd201f"/><path d="m32 11.48-.71-.35a.73.73 0 0 1 -.24.45l.58.28s.34 0 .39-.34a.05.05 0 0 0 -.02-.04z" fill="#3c3c3c"/><path d="m31.35 12-.88-.42a.22.22 0 0 0 -.31.2v.22l1 .46.1.05a.21.21 0 0 0 .3-.15.32.32 0 0 0 -.21-.36z" fill="#bd201f"/><path d="m31.49 12-.59-.28a1 1 0 0 1 -.2.46l.42.2.27.13c.09 0 .17-.28.14-.46a.1.1 0 0 0 -.04-.05z" fill="#3c3c3c"/><circle cx="29.6" cy="10.9" fill="#bd201f" r="1.18"/></g><path d="m33.27 8.05 1.08.52v-.57l-.91-.43a.14.14 0 0 0 -.14 0 .26.26 0 0 0 -.03.48z" fill="#bd201f"/><path d="m33 7.93.71.34a.72.72 0 0 1 .29-.44l-.58-.28s-.34 0-.39.34c-.03.01-.03.03-.03.04z" fill="#3c3c3c"/><path d="m33.73 7.45.87.42a.22.22 0 0 0 .31-.2v-.21l-.91-.46h-.1a.21.21 0 0 0 -.3.15.32.32 0 0 0 .13.3z" fill="#bd201f"/><path d="m33.59 7.38.58.28a1 1 0 0 1 .2-.46l-.37-.2-.27-.12c-.09 0-.17.28-.14.46a.08.08 0 0 0 0 .04z" fill="#3c3c3c"/><circle cx="35.42" cy="8.53" fill="#bd201f" r="1.18"/><circle cx="32.52" cy="7" fill="#484848" r="1.18"/><path d="m31.67 5.88-1.09-.53v.57l.91.43a.17.17 0 0 0 .14 0 .26.26 0 0 0 .04-.47z" fill="#bd201f"/><path d="m31.92 6-.71-.34a.72.72 0 0 1 -.21.44l.58.28s.34 0 .39-.34z" fill="#3c3c3c"/><path d="m31.3 6.49-.87-.42a.22.22 0 0 0 -.32.2v.21l1 .47h.1a.21.21 0 0 0 .3-.15.32.32 0 0 0 -.21-.31z" fill="#bd201f"/><path d="m31.44 6.56-.59-.28a1 1 0 0 1 -.2.46l.42.21.27.12c.09 0 .17-.28.14-.46a.1.1 0 0 0 -.04-.05z" fill="#3c3c3c"/><circle cx="29.55" cy="5.42" fill="#bd201f" r="1.18"/><g opacity=".2"><path d="m33.22 41.65 1.08.53v-.56l-.91-.44a.22.22 0 0 0 -.14 0 .25.25 0 0 0 -.03.47z" fill="#bd201f"/><path d="m33 41.53.71.35a.73.73 0 0 1 .24-.45l-.58-.28s-.34.05-.39.34c-.04.02.02.03.02.04z" fill="#3c3c3c"/><path d="m33.68 41.05.87.42a.22.22 0 0 0 .31-.2v-.21l-1-.46-.1-.05a.22.22 0 0 0 -.3.15.31.31 0 0 0 .22.35z" fill="#bd201f"/><path d="m33.54 41 .58.29a1 1 0 0 1 .2-.47l-.42-.2-.27-.13c-.09 0-.17.29-.14.46a.08.08 0 0 0 .05.05z" fill="#3c3c3c"/><circle cx="35.37" cy="42.14" fill="#bd201f" r="1.18"/><circle cx="32.47" cy="40.61" fill="#484848" r="1.18"/><path d="m31.62 39.49-1.09-.49v.56l.91.44a.22.22 0 0 0 .14 0 .25.25 0 0 0 .04-.51z" fill="#bd201f"/><path d="m31.87 39.61-.71-.35a.73.73 0 0 1 -.24.45l.58.28s.34-.05.39-.34c0-.02-.01-.04-.02-.04z" fill="#3c3c3c"/><path d="m31.25 40.1-.87-.42a.22.22 0 0 0 -.32.2v.21l1 .46.1.05a.21.21 0 0 0 .3-.15.32.32 0 0 0 -.21-.35z" fill="#bd201f"/><path d="m31.39 40.17-.59-.29a1 1 0 0 1 -.2.47l.42.2.27.13c.09 0 .17-.29.14-.46a.1.1 0 0 0 -.04-.05z" fill="#3c3c3c"/><circle cx="29.5" cy="39.03" fill="#bd201f" r="1.18"/></g><g opacity=".3"><path d="m23.79 31.76 1.09.53v-.57l-.88-.43a.15.15 0 0 0 -.13 0 .26.26 0 0 0 -.08.47z" fill="#bd201f"/><path d="m23.55 31.64.71.34a.66.66 0 0 1 .24-.44l-.59-.28a.48.48 0 0 0 -.39.34.05.05 0 0 0 .03.04z" fill="#3c3c3c"/><path d="m24.25 31.16.87.42a.22.22 0 0 0 .32-.2v-.21l-1-.46-.09-.05a.21.21 0 0 0 -.3.15.32.32 0 0 0 .2.35z" fill="#bd201f"/><path d="m24.11 31.09.59.28a1 1 0 0 1 .2-.46l-.43-.2-.26-.13c-.09 0-.17.28-.14.46a.07.07 0 0 0 .04.05z" fill="#3c3c3c"/><circle cx="25.95" cy="32.25" fill="#bd201f" r="1.18"/><circle cx="23.04" cy="30.72" fill="#484848" r="1.18"/><path d="m22.2 29.59-1.09-.52v.56l.91.43a.12.12 0 0 0 .13 0 .26.26 0 0 0 .05-.47z" fill="#bd201f"/><path d="m22.45 29.71-.72-.34a.66.66 0 0 1 -.24.44l.59.28a.48.48 0 0 0 .39-.34.08.08 0 0 0 -.02-.04z" fill="#3c3c3c"/><path d="m21.82 30.21-.82-.43a.23.23 0 0 0 -.32.2v.21l1 .47h.1a.21.21 0 0 0 .3-.14.32.32 0 0 0 -.26-.31z" fill="#bd201f"/><path d="m22 30.27-.62-.27a.91.91 0 0 1 -.2.46l.42.21.26.13c.1 0 .18-.29.14-.47a.07.07 0 0 0 0-.06z" fill="#3c3c3c"/><circle cx="20.08" cy="29.14" fill="#bd201f" r="1.18"/></g><g opacity=".5"><path d="m24 25.88 1.09.53v-.57l-.91-.43a.22.22 0 0 0 -.14 0 .25.25 0 0 0 -.04.47z" fill="#bd201f"/><path d="m23.75 25.76.72.35a.68.68 0 0 1 .23-.45l-.58-.28s-.34.05-.39.34a.05.05 0 0 0 .02.04z" fill="#3c3c3c"/><path d="m24.46 25.28.87.42a.22.22 0 0 0 .32-.2v-.21l-1-.46h-.09a.21.21 0 0 0 -.3.15.32.32 0 0 0 .2.3z" fill="#bd201f"/><path d="m24.32 25.21.59.29a1 1 0 0 1 .2-.47l-.43-.2-.26-.13c-.09 0-.18.29-.14.46a.07.07 0 0 0 .04.05z" fill="#3c3c3c"/><circle cx="26.16" cy="26.37" fill="#bd201f" r="1.18"/><circle cx="23.25" cy="24.84" fill="#484848" r="1.18"/><path d="m22.4 23.71-1.08-.52v.56l.9.44a.23.23 0 0 0 .14 0 .26.26 0 0 0 .04-.48z" fill="#bd201f"/><path d="m22.65 23.83-.71-.34a.73.73 0 0 1 -.24.45l.58.27s.34 0 .4-.33a.05.05 0 0 0 -.03-.05z" fill="#3c3c3c"/><path d="m22 24.33-.87-.42a.22.22 0 0 0 -.32.19v.22l1 .46h.1a.22.22 0 0 0 .3-.15.33.33 0 0 0 -.21-.3z" fill="#bd201f"/><path d="m22.17 24.4-.59-.29a1 1 0 0 1 -.2.47l.43.2.26.13c.1 0 .18-.29.14-.46s-.02-.04-.04-.05z" fill="#3c3c3c"/><circle cx="20.28" cy="23.26" fill="#bd201f" r="1.18"/></g><g opacity=".5"><path d="m23.87 20.19 1.09.52v-.56l-.91-.44a.2.2 0 0 0 -.13 0 .26.26 0 0 0 -.05.48z" fill="#bd201f"/><path d="m23.62 20.06.72.35a.67.67 0 0 1 .24-.45l-.58-.28a.48.48 0 0 0 -.39.34s0 .04.01.04z" fill="#3c3c3c"/><path d="m24.33 19.58.87.43a.22.22 0 0 0 .32-.2v-.21l-1-.47-.09-.05a.21.21 0 0 0 -.3.15.31.31 0 0 0 .2.35z" fill="#bd201f"/><path d="m24.19 19.52.59.28a.91.91 0 0 1 .2-.46l-.43-.21-.26-.13c-.09 0-.17.29-.14.46a.07.07 0 0 0 .04.06z" fill="#3c3c3c"/><circle cx="26.03" cy="20.67" fill="#bd201f" r="1.18"/><circle cx="23.12" cy="19.14" fill="#484848" r="1.18"/><path d="m22.28 18-1.09-.53v.57l.91.43a.2.2 0 0 0 .13 0 .26.26 0 0 0 .05-.47z" fill="#bd201f"/><path d="m22.52 18.14-.71-.35a.67.67 0 0 1 -.24.45l.58.28a.49.49 0 0 0 .4-.34s-.01-.03-.03-.04z" fill="#3c3c3c"/><path d="m21.9 18.63-.9-.42a.22.22 0 0 0 -.32.2v.21l1 .46.1.05a.21.21 0 0 0 .3-.15.34.34 0 0 0 -.18-.35z" fill="#bd201f"/><path d="m22 18.7-.59-.29a1 1 0 0 1 -.19.47l.42.2.26.13c.1 0 .18-.28.14-.46a.07.07 0 0 0 -.04-.05z" fill="#3c3c3c"/><circle cx="20.16" cy="17.56" fill="#bd201f" r="1.18"/></g><g opacity=".7"><path d="m23.93 14.82 1.08.52v-.56l-.9-.43a.17.17 0 0 0 -.14 0 .26.26 0 0 0 -.04.47z" fill="#bd201f"/><path d="m23.68 14.7.71.34a.72.72 0 0 1 .24-.44l-.58-.28a.49.49 0 0 0 -.4.34.05.05 0 0 0 .03.04z" fill="#3c3c3c"/><path d="m24.38 14.22.87.42a.22.22 0 0 0 .32-.2v-.21l-1-.47h-.1a.21.21 0 0 0 -.3.15.32.32 0 0 0 .21.31z" fill="#bd201f"/><path d="m24.24 14.15.59.28a1 1 0 0 1 .17-.43l-.42-.21-.27-.12c-.09 0-.17.28-.14.46a.1.1 0 0 0 .07.02z" fill="#3c3c3c"/><circle cx="26.08" cy="15.3" fill="#bd201f" r="1.18"/><circle cx="23.17" cy="13.77" fill="#484848" r="1.18"/><path d="m22.33 12.65-1.09-.53v.57l.91.43a.17.17 0 0 0 .14 0 .26.26 0 0 0 .04-.47z" fill="#bd201f"/><path d="m22.58 12.77-.72-.34a.67.67 0 0 1 -.23.44l.58.28s.34-.05.39-.34z" fill="#3c3c3c"/><path d="m22 13.26-.87-.42a.22.22 0 0 0 -.31.2v.21l1 .47h.1a.21.21 0 0 0 .3-.15.33.33 0 0 0 -.22-.31z" fill="#bd201f"/><path d="m22.09 13.33-.58-.28a1 1 0 0 1 -.2.46l.42.21.27.12c.09 0 .17-.28.14-.46a.08.08 0 0 0 -.05-.05z" fill="#3c3c3c"/><circle cx="20.21" cy="12.19" fill="#bd201f" r="1.18"/></g><g opacity=".9"><path d="m24 9.28 1.09.53v-.56l-.91-.44a.22.22 0 0 0 -.14 0 .25.25 0 0 0 -.04.47z" fill="#bd201f"/><path d="m23.77 9.16.72.35a.68.68 0 0 1 .23-.45l-.58-.28s-.34.05-.39.34c0 .02.01.04.02.04z" fill="#3c3c3c"/><path d="m24.48 8.68.87.42a.22.22 0 0 0 .32-.2v-.21l-1-.46-.1-.05a.21.21 0 0 0 -.29.15.32.32 0 0 0 .2.35z" fill="#bd201f"/><path d="m24.34 8.61.59.29a1 1 0 0 1 .2-.47l-.43-.2-.26-.13c-.09 0-.18.29-.14.46s.02.04.04.05z" fill="#3c3c3c"/><circle cx="26.18" cy="9.77" fill="#bd201f" r="1.18"/><circle cx="23.27" cy="8.24" fill="#484848" r="1.18"/><path d="m22.42 7.12-1.08-.53v.56l.9.44a.23.23 0 0 0 .14 0 .25.25 0 0 0 .04-.47z" fill="#bd201f"/><path d="m22.67 7.24-.67-.35a.73.73 0 0 1 -.24.45l.58.28s.34 0 .39-.34c-.03-.02-.04-.04-.06-.04z" fill="#3c3c3c"/><path d="m22.05 7.73-.87-.42a.22.22 0 0 0 -.32.2v.21l1 .46.1.05a.2.2 0 0 0 .29-.15.32.32 0 0 0 -.2-.35z" fill="#bd201f"/><path d="m22.19 7.8-.59-.29a1 1 0 0 1 -.2.47l.43.2.26.13c.09 0 .18-.29.14-.46a.07.07 0 0 0 -.04-.05z" fill="#3c3c3c"/><circle cx="20.3" cy="6.66" fill="#bd201f" r="1.18"/></g><path d="m24 3.81 1.09.52v-.56l-.91-.44a.2.2 0 0 0 -.13 0 .26.26 0 0 0 -.05.48z" fill="#bd201f"/><path d="m23.72 3.68.72.35a.67.67 0 0 1 .24-.45l-.59-.28s-.34.05-.39.34c0 .02.01.04.02.04z" fill="#3c3c3c"/><path d="m24.43 3.2.87.43a.22.22 0 0 0 .32-.2v-.21l-1-.47h-.09a.2.2 0 0 0 -.3.14.31.31 0 0 0 .2.31z" fill="#bd201f"/><path d="m24.29 3.14.59.28a.91.91 0 0 1 .2-.46l-.43-.21-.26-.13c-.09 0-.17.29-.14.47a.07.07 0 0 0 .04.05z" fill="#3c3c3c"/><circle cx="26.13" cy="4.29" fill="#bd201f" r="1.18"/><circle cx="23.22" cy="2.76" fill="#484848" r="1.18"/><path d="m22.38 1.64-1.09-.53v.57l.9.43a.23.23 0 0 0 .14 0 .26.26 0 0 0 .05-.47z" fill="#bd201f"/><path d="m22.62 1.76-.71-.35a.67.67 0 0 1 -.24.45l.58.28a.49.49 0 0 0 .4-.34s-.01-.03-.03-.04z" fill="#3c3c3c"/><path d="m22 2.25-.87-.42a.22.22 0 0 0 -.32.2v.21l1 .46h.1a.21.21 0 0 0 .3-.15.34.34 0 0 0 -.21-.3z" fill="#bd201f"/><path d="m22.14 2.32-.59-.32a1 1 0 0 1 -.19.46l.42.2.26.13c.1 0 .18-.28.14-.46a.07.07 0 0 0 -.04-.01z" fill="#3c3c3c"/><circle cx="20.26" cy="1.18" fill="#bd201f" r="1.18"/><g opacity=".2"><path d="m23.92 37.41 1.09.53v-.57l-.91-.43a.2.2 0 0 0 -.13 0 .25.25 0 0 0 -.05.47z" fill="#bd201f"/><path d="m23.67 37.29.72.35a.67.67 0 0 1 .24-.45l-.63-.28a.48.48 0 0 0 -.39.34.05.05 0 0 0 .06.04z" fill="#3c3c3c"/><path d="m24.38 36.81.87.42a.22.22 0 0 0 .32-.2v-.21l-1-.46h-.09a.21.21 0 0 0 -.3.15.32.32 0 0 0 .2.3z" fill="#bd201f"/><path d="m24.24 36.74.59.29a1 1 0 0 1 .2-.47l-.43-.2-.26-.13c-.09 0-.17.29-.14.46a.07.07 0 0 0 .04.05z" fill="#3c3c3c"/><circle cx="26.08" cy="37.9" fill="#bd201f" r="1.18"/><circle cx="23.17" cy="36.37" fill="#484848" r="1.18"/><path d="m22.33 35.24-1.09-.52v.56l.91.44a.2.2 0 0 0 .13 0 .26.26 0 0 0 .05-.48z" fill="#bd201f"/><path d="m22.57 35.36-.71-.36a.67.67 0 0 1 -.24.45l.58.27s.34 0 .4-.33a.05.05 0 0 0 -.03-.03z" fill="#3c3c3c"/><path d="m22 35.86-.87-.42a.22.22 0 0 0 -.32.19v.22l1 .46h.1a.22.22 0 0 0 .3-.15.33.33 0 0 0 -.21-.3z" fill="#bd201f"/><path d="m22.09 35.93-.59-.29a1 1 0 0 1 -.19.47l.42.2.26.13c.1 0 .18-.29.14-.46s-.02-.04-.04-.05z" fill="#3c3c3c"/><circle cx="20.21" cy="34.79" fill="#bd201f" r="1.18"/></g></svg>