<svg xmlns="http://www.w3.org/2000/svg" viewBox="0 0 18.05 39.1"><defs><style>.cls-1{opacity:0.3;}.cls-2{fill:#bd201f;}.cls-3{fill:#3c3c3c;}.cls-4{fill:#484848;}.cls-5{opacity:0.5;}.cls-6{opacity:0.7;}.cls-7{opacity:0.9;}.cls-8{opacity:0.2;}</style></defs><title>arrow_3</title><g id="Capa_2" data-name="Capa 2"><g id="Capa_1-2" data-name="Capa 1"><g class="cls-1"><path class="cls-2" d="M3.52,31.8l-1.09.52v-.57l.91-.43a.23.23,0,0,1,.14,0h0A.26.26,0,0,1,3.52,31.8Z"/><path class="cls-3" d="M3.77,31.68,3.06,32a.73.73,0,0,0-.24-.45l.58-.28s.34.05.39.34A0,0,0,0,1,3.77,31.68Z"/><path class="cls-2" d="M3.07,31.19l-.88.42a.22.22,0,0,1-.31-.2V31.2l1-.46.09,0a.21.21,0,0,1,.3.15h0A.31.31,0,0,1,3.07,31.19Z"/><path class="cls-3" d="M3.21,31.12l-.59.29a1,1,0,0,0-.2-.47l.43-.2.26-.13c.09,0,.17.29.14.46A.07.07,0,0,1,3.21,31.12Z"/><circle class="cls-2" cx="1.36" cy="32.27" r="1.18"/><circle class="cls-4" cx="4.28" cy="30.76" r="1.18"/><path class="cls-2" d="M5.13,29.64l1.09-.53v.57l-.91.43a.23.23,0,0,1-.14,0h0A.25.25,0,0,1,5.13,29.64Z"/><path class="cls-3" d="M4.88,29.75l.71-.34a.73.73,0,0,0,.24.45l-.58.28s-.34-.05-.39-.34A0,0,0,0,1,4.88,29.75Z"/><path class="cls-2" d="M5.5,30.25l.87-.42a.22.22,0,0,1,.32.2v.21l-1,.46-.1.05a.21.21,0,0,1-.3-.15h0A.34.34,0,0,1,5.5,30.25Z"/><path class="cls-3" d="M5.36,30.32,6,30a1,1,0,0,0,.19.46l-.42.2-.27.13c-.09,0-.17-.29-.13-.46A.07.07,0,0,1,5.36,30.32Z"/><circle class="cls-2" cx="7.25" cy="29.19" r="1.18"/></g><g class="cls-5"><path class="cls-2" d="M3.34,25.92l-1.09.52v-.57l.91-.43a.22.22,0,0,1,.14,0h0A.26.26,0,0,1,3.34,25.92Z"/><path class="cls-3" d="M3.59,25.8l-.72.34a.68.68,0,0,0-.23-.45l.58-.28a.47.47,0,0,1,.39.35Z"/><path class="cls-2" d="M2.88,25.31,2,25.73a.22.22,0,0,1-.32-.2v-.21l1-.46.1-.05a.21.21,0,0,1,.3.15h0A.32.32,0,0,1,2.88,25.31Z"/><path class="cls-3" d="M3,25.24l-.59.29a.91.91,0,0,0-.19-.47l.42-.2.27-.13c.09,0,.17.29.14.46A.08.08,0,0,1,3,25.24Z"/><circle class="cls-2" cx="1.18" cy="26.39" r="1.18"/><circle class="cls-4" cx="4.1" cy="24.88" r="1.18"/><path class="cls-2" d="M5,23.76,6,23.23v.57l-.91.43a.2.2,0,0,1-.13,0H5A.25.25,0,0,1,5,23.76Z"/><path class="cls-3" d="M4.7,23.88l.71-.35a.73.73,0,0,0,.24.45l-.59.28a.48.48,0,0,1-.39-.34S4.68,23.88,4.7,23.88Z"/><path class="cls-2" d="M5.32,24.37,6.19,24a.22.22,0,0,1,.32.2v.21l-1,.46-.1.05a.21.21,0,0,1-.3-.15h0A.32.32,0,0,1,5.32,24.37Z"/><path class="cls-3" d="M5.18,24.44l.59-.28a.9.9,0,0,0,.19.46l-.42.2L5.27,25c-.09,0-.17-.29-.14-.46A.12.12,0,0,1,5.18,24.44Z"/><circle class="cls-2" cx="7.07" cy="23.31" r="1.18"/></g><g class="cls-5"><path class="cls-2" d="M3.49,20.22l-1.09.52v-.56l.9-.43a.17.17,0,0,1,.14,0h0A.26.26,0,0,1,3.49,20.22Z"/><path class="cls-3" d="M3.74,20.1,3,20.44A.72.72,0,0,0,2.79,20l.58-.28s.34.05.39.34C3.77,20.08,3.76,20.09,3.74,20.1Z"/><path class="cls-2" d="M3,19.62,2.16,20a.22.22,0,0,1-.31-.21v-.21l1-.46.09,0a.21.21,0,0,1,.3.15h0A.32.32,0,0,1,3,19.62Z"/><path class="cls-3" d="M3.18,19.55l-.59.28a1,1,0,0,0-.2-.46l.43-.21L3.08,19c.09,0,.17.28.14.46A.1.1,0,0,1,3.18,19.55Z"/><circle class="cls-2" cx="1.33" cy="20.7" r="1.18"/><circle class="cls-4" cx="4.25" cy="19.18" r="1.18"/><path class="cls-2" d="M5.1,18.06l1.09-.52v.56l-.91.43a.17.17,0,0,1-.14,0h0A.26.26,0,0,1,5.1,18.06Z"/><path class="cls-3" d="M4.85,18.18l.71-.34a.75.75,0,0,0,.24.45l-.58.27s-.34,0-.39-.34C4.82,18.2,4.83,18.19,4.85,18.18Z"/><path class="cls-2" d="M5.47,18.68l.87-.42a.22.22,0,0,1,.32.2v.21l-1,.46-.1,0a.21.21,0,0,1-.3-.15h0A.32.32,0,0,1,5.47,18.68Z"/><path class="cls-3" d="M5.33,18.74l.59-.28a1,1,0,0,0,.2.47l-.43.2-.26.13c-.1,0-.18-.29-.14-.47A.07.07,0,0,1,5.33,18.74Z"/><circle class="cls-2" cx="7.22" cy="17.61" r="1.18"/></g><g class="cls-6"><path class="cls-2" d="M3.46,14.85l-1.09.53v-.57l.9-.43a.23.23,0,0,1,.14,0h0A.25.25,0,0,1,3.46,14.85Z"/><path class="cls-3" d="M3.71,14.73,3,15.08a.73.73,0,0,0-.24-.45l.58-.28s.34.05.39.34C3.74,14.71,3.73,14.73,3.71,14.73Z"/><path class="cls-2" d="M3,14.25l-.87.42a.22.22,0,0,1-.32-.2v-.21l1-.46.09-.05a.21.21,0,0,1,.3.15h0A.32.32,0,0,1,3,14.25Z"/><path class="cls-3" d="M3.15,14.18l-.59.28a1,1,0,0,0-.2-.46l.43-.2.26-.13c.09,0,.17.29.14.46A.07.07,0,0,1,3.15,14.18Z"/><circle class="cls-2" cx="1.31" cy="15.33" r="1.18"/><circle class="cls-4" cx="4.22" cy="13.81" r="1.18"/><path class="cls-2" d="M5.07,12.69l1.09-.52v.57l-.91.43a.17.17,0,0,1-.14,0h0A.26.26,0,0,1,5.07,12.69Z"/><path class="cls-3" d="M4.82,12.81l.71-.34a.73.73,0,0,0,.24.45l-.58.27s-.34,0-.39-.34A.08.08,0,0,1,4.82,12.81Z"/><path class="cls-2" d="M5.44,13.31l.87-.42a.22.22,0,0,1,.32.2v.21l-1,.46-.1.05a.21.21,0,0,1-.29-.15h0A.31.31,0,0,1,5.44,13.31Z"/><path class="cls-3" d="M5.3,13.38l.59-.29a1,1,0,0,0,.2.47l-.43.2-.26.13c-.1,0-.18-.29-.14-.46S5.28,13.39,5.3,13.38Z"/><circle class="cls-2" cx="7.19" cy="12.25" r="1.18"/></g><g class="cls-7"><path class="cls-2" d="M3.39,9.32,2.3,9.84V9.28l.91-.43a.17.17,0,0,1,.14,0h0A.26.26,0,0,1,3.39,9.32Z"/><path class="cls-3" d="M3.64,9.2l-.71.34a.75.75,0,0,0-.24-.45l.58-.27s.34,0,.39.34C3.67,9.17,3.66,9.19,3.64,9.2Z"/><path class="cls-2" d="M2.94,8.71l-.88.42a.22.22,0,0,1-.31-.2V8.72l1-.46.1,0a.21.21,0,0,1,.3.15h0A.3.3,0,0,1,2.94,8.71Z"/><path class="cls-3" d="M3.08,8.65l-.59.28a1,1,0,0,0-.2-.47l.42-.2L3,8.14c.09,0,.17.28.14.46A.1.1,0,0,1,3.08,8.65Z"/><circle class="cls-2" cx="1.23" cy="9.8" r="1.18"/><circle class="cls-4" cx="4.15" cy="8.28" r="1.18"/><path class="cls-2" d="M5,7.16l1.09-.52V7.2l-.9.43a.23.23,0,0,1-.14,0H5A.25.25,0,0,1,5,7.16Z"/><path class="cls-3" d="M4.75,7.28l.71-.34a.72.72,0,0,0,.24.44l-.58.28s-.34,0-.39-.34C4.72,7.3,4.73,7.29,4.75,7.28Z"/><path class="cls-2" d="M5.37,7.77l.87-.41a.22.22,0,0,1,.32.2v.21l-1,.46-.1,0a.21.21,0,0,1-.3-.15h0A.34.34,0,0,1,5.37,7.77Z"/><path class="cls-3" d="M5.23,7.84l.59-.28A1,1,0,0,0,6,8l-.42.21-.27.12c-.09,0-.17-.28-.13-.46A.07.07,0,0,1,5.23,7.84Z"/><circle class="cls-2" cx="7.12" cy="6.71" r="1.18"/></g><path class="cls-2" d="M3.46,3.84l-1.09.52V3.8l.9-.43a.17.17,0,0,1,.14,0h0A.26.26,0,0,1,3.46,3.84Z"/><path class="cls-3" d="M3.71,3.72,3,4.06a.72.72,0,0,0-.24-.44l.58-.28s.34.05.39.34C3.74,3.7,3.73,3.71,3.71,3.72Z"/><path class="cls-2" d="M3,3.24l-.87.42a.23.23,0,0,1-.32-.21V3.24l1-.46.09,0a.21.21,0,0,1,.3.15h0A.32.32,0,0,1,3,3.24Z"/><path class="cls-3" d="M3.15,3.17l-.59.28A1,1,0,0,0,2.36,3l.43-.21.26-.12c.09,0,.17.28.14.46A.07.07,0,0,1,3.15,3.17Z"/><circle class="cls-2" cx="1.31" cy="4.32" r="1.18"/><circle class="cls-4" cx="4.22" cy="2.8" r="1.18"/><path class="cls-2" d="M5.07,1.68l1.09-.52v.56l-.91.43a.17.17,0,0,1-.14,0h0A.26.26,0,0,1,5.07,1.68Z"/><path class="cls-3" d="M4.82,1.8l.71-.34a.75.75,0,0,0,.24.45l-.58.27s-.34-.05-.39-.34A.05.05,0,0,1,4.82,1.8Z"/><path class="cls-2" d="M5.44,2.3l.87-.42a.22.22,0,0,1,.32.2v.21l-1,.46-.1,0a.2.2,0,0,1-.29-.15h0A.3.3,0,0,1,5.44,2.3Z"/><path class="cls-3" d="M5.3,2.36l.59-.28a1,1,0,0,0,.2.47l-.43.2-.26.13c-.1,0-.18-.29-.14-.47A.07.07,0,0,1,5.3,2.36Z"/><circle class="cls-2" cx="7.19" cy="1.23" r="1.18"/><g class="cls-8"><path class="cls-2" d="M3.37,37.45,2.28,38V37.4L3.19,37a.17.17,0,0,1,.14,0h0A.26.26,0,0,1,3.37,37.45Z"/><path class="cls-3" d="M3.62,37.33l-.72.34a.68.68,0,0,0-.23-.45L3.25,37s.34,0,.39.34Z"/><path class="cls-2" d="M2.91,36.84,2,37.26a.22.22,0,0,1-.32-.2v-.21l1-.46.1,0a.22.22,0,0,1,.3.15h0A.32.32,0,0,1,2.91,36.84Z"/><path class="cls-3" d="M3.05,36.77l-.59.29a.91.91,0,0,0-.19-.47l.42-.2L3,36.26c.09,0,.17.29.13.46A0,0,0,0,1,3.05,36.77Z"/><circle class="cls-2" cx="1.21" cy="37.92" r="1.18"/><circle class="cls-4" cx="4.12" cy="36.41" r="1.18"/><path class="cls-2" d="M5,35.29l1.09-.53v.57l-.91.43a.2.2,0,0,1-.13,0H5A.25.25,0,0,1,5,35.29Z"/><path class="cls-3" d="M4.73,35.41l.71-.35a.67.67,0,0,0,.24.45l-.59.28s-.34,0-.39-.34C4.7,35.43,4.71,35.41,4.73,35.41Z"/><path class="cls-2" d="M5.35,35.9l.87-.42a.22.22,0,0,1,.32.2v.21l-1,.46-.1,0a.21.21,0,0,1-.3-.15h0A.31.31,0,0,1,5.35,35.9Z"/><path class="cls-3" d="M5.2,36l.59-.28a1,1,0,0,0,.2.46l-.42.2-.27.13c-.09,0-.17-.29-.14-.46A.1.1,0,0,1,5.2,36Z"/><circle class="cls-2" cx="7.1" cy="34.84" r="1.18"/></g><g class="cls-1"><path class="cls-2" d="M14.48,31.76l1.09.53v-.57l-.91-.43a.17.17,0,0,0-.14,0h0A.26.26,0,0,0,14.48,31.76Z"/><path class="cls-3" d="M14.23,31.64l.71.34a.72.72,0,0,1,.24-.44l-.58-.28s-.34,0-.39.34Z"/><path class="cls-2" d="M14.94,31.16l.87.42a.22.22,0,0,0,.32-.2v-.21l-1-.46-.1-.05a.21.21,0,0,0-.3.15h0A.34.34,0,0,0,14.94,31.16Z"/><path class="cls-3" d="M14.8,31.09l.59.28a1,1,0,0,1,.2-.46l-.43-.2-.26-.13c-.1,0-.18.28-.14.46A.07.07,0,0,0,14.8,31.09Z"/><circle class="cls-2" cx="16.64" cy="32.25" r="1.18"/><circle class="cls-4" cx="13.73" cy="30.72" r="1.18"/><path class="cls-2" d="M12.88,29.59l-1.08-.52v.56l.9.43a.14.14,0,0,0,.14,0h0A.26.26,0,0,0,12.88,29.59Z"/><path class="cls-3" d="M13.13,29.71l-.71-.34a.72.72,0,0,1-.24.44l.58.28s.34-.05.39-.34C13.16,29.74,13.15,29.72,13.13,29.71Z"/><path class="cls-2" d="M12.51,30.21l-.87-.43a.22.22,0,0,0-.32.2v.21l1,.47.09,0a.2.2,0,0,0,.3-.14h0A.31.31,0,0,0,12.51,30.21Z"/><path class="cls-3" d="M12.65,30.27,12.06,30a.91.91,0,0,1-.2.46l.43.21.26.13c.09,0,.18-.29.14-.47A.07.07,0,0,0,12.65,30.27Z"/><circle class="cls-2" cx="10.76" cy="29.14" r="1.18"/></g><g class="cls-5"><path class="cls-2" d="M14.69,25.88l1.09.53v-.57l-.91-.43a.22.22,0,0,0-.14,0h0A.25.25,0,0,0,14.69,25.88Z"/><path class="cls-3" d="M14.44,25.76l.71.35a.73.73,0,0,1,.24-.45l-.58-.28s-.34.05-.39.34C14.42,25.74,14.42,25.75,14.44,25.76Z"/><path class="cls-2" d="M15.15,25.28l.87.42a.22.22,0,0,0,.32-.2v-.21l-1-.46-.1,0a.21.21,0,0,0-.3.15h0A.32.32,0,0,0,15.15,25.28Z"/><path class="cls-3" d="M15,25.21l.58.29a1,1,0,0,1,.2-.47l-.42-.2-.26-.13c-.1,0-.18.29-.14.46A.07.07,0,0,0,15,25.21Z"/><circle class="cls-2" cx="16.84" cy="26.37" r="1.18"/><circle class="cls-4" cx="13.94" cy="24.84" r="1.18"/><path class="cls-2" d="M13.09,23.71,12,23.19v.56l.91.44a.22.22,0,0,0,.14,0h0A.26.26,0,0,0,13.09,23.71Z"/><path class="cls-3" d="M13.34,23.83l-.71-.34a.73.73,0,0,1-.24.45l.58.27s.34,0,.39-.33A0,0,0,0,0,13.34,23.83Z"/><path class="cls-2" d="M12.72,24.33l-.87-.42a.22.22,0,0,0-.32.19v.22l1,.46.09,0a.21.21,0,0,0,.3-.15h0A.31.31,0,0,0,12.72,24.33Z"/><path class="cls-3" d="M12.86,24.4l-.59-.29a1,1,0,0,1-.2.47l.43.2.26.13c.09,0,.17-.29.14-.46S12.88,24.41,12.86,24.4Z"/><circle class="cls-2" cx="10.97" cy="23.26" r="1.18"/></g><g class="cls-5"><path class="cls-2" d="M14.56,20.19l1.09.52v-.56l-.91-.44a.22.22,0,0,0-.14,0h0A.26.26,0,0,0,14.56,20.19Z"/><path class="cls-3" d="M14.31,20.06l.71.35a.73.73,0,0,1,.24-.45l-.58-.28s-.34.05-.39.34C14.29,20,14.3,20.06,14.31,20.06Z"/><path class="cls-2" d="M15,19.58l.87.43a.22.22,0,0,0,.32-.2V19.6l-1-.47-.1-.05a.22.22,0,0,0-.3.15h0A.33.33,0,0,0,15,19.58Z"/><path class="cls-3" d="M14.88,19.52l.59.28a1,1,0,0,1,.19-.46l-.42-.21L15,19c-.1,0-.18.29-.14.46A.07.07,0,0,0,14.88,19.52Z"/><circle class="cls-2" cx="16.72" cy="20.67" r="1.18"/><circle class="cls-4" cx="13.81" cy="19.14" r="1.18"/><path class="cls-2" d="M13,18l-1.08-.53v.57l.9.43a.23.23,0,0,0,.14,0h0A.25.25,0,0,0,13,18Z"/><path class="cls-3" d="M13.21,18.14l-.71-.35a.73.73,0,0,1-.24.45l.58.28s.34-.05.39-.34C13.24,18.16,13.23,18.15,13.21,18.14Z"/><path class="cls-2" d="M12.59,18.63l-.87-.42a.22.22,0,0,0-.32.2v.21l1,.46.09.05a.21.21,0,0,0,.3-.15h0A.32.32,0,0,0,12.59,18.63Z"/><path class="cls-3" d="M12.73,18.7l-.59-.29a1,1,0,0,1-.2.47l.43.2.26.13c.09,0,.17-.28.14-.46A.07.07,0,0,0,12.73,18.7Z"/><circle class="cls-2" cx="10.84" cy="17.56" r="1.18"/></g><g class="cls-6"><path class="cls-2" d="M14.61,14.82l1.09.52v-.56l-.91-.43a.17.17,0,0,0-.14,0h0A.26.26,0,0,0,14.61,14.82Z"/><path class="cls-3" d="M14.36,14.7l.72.34a.67.67,0,0,1,.23-.44l-.58-.28s-.34,0-.39.34Z"/><path class="cls-2" d="M15.07,14.22l.87.42a.22.22,0,0,0,.32-.2v-.21l-1-.47-.09,0a.21.21,0,0,0-.3.15h0A.32.32,0,0,0,15.07,14.22Z"/><path class="cls-3" d="M14.93,14.15l.59.28a1,1,0,0,1,.2-.46l-.43-.21L15,13.64c-.09,0-.18.28-.14.46A.07.07,0,0,0,14.93,14.15Z"/><circle class="cls-2" cx="16.77" cy="15.3" r="1.18"/><circle class="cls-4" cx="13.86" cy="13.77" r="1.18"/><path class="cls-2" d="M13,12.65l-1.08-.53v.57l.9.43a.17.17,0,0,0,.14,0h0A.26.26,0,0,0,13,12.65Z"/><path class="cls-3" d="M13.26,12.77l-.71-.34a.72.72,0,0,1-.24.44l.58.28a.49.49,0,0,0,.4-.34A.05.05,0,0,0,13.26,12.77Z"/><path class="cls-2" d="M12.64,13.26l-.87-.42a.22.22,0,0,0-.32.2v.21l1,.47.1,0a.21.21,0,0,0,.3-.15h0A.34.34,0,0,0,12.64,13.26Z"/><path class="cls-3" d="M12.78,13.33l-.59-.28a1,1,0,0,1-.2.46l.43.21.26.12c.1,0,.18-.28.14-.46A.07.07,0,0,0,12.78,13.33Z"/><circle class="cls-2" cx="10.89" cy="12.19" r="1.18"/></g><g class="cls-7"><path class="cls-2" d="M14.71,9.28l1.09.53V9.25l-.91-.44a.22.22,0,0,0-.14,0h0A.25.25,0,0,0,14.71,9.28Z"/><path class="cls-3" d="M14.46,9.16l.71.35a.73.73,0,0,1,.24-.45l-.58-.28s-.34.05-.39.34C14.44,9.14,14.44,9.16,14.46,9.16Z"/><path class="cls-2" d="M15.17,8.68,16,9.1a.22.22,0,0,0,.32-.2V8.69l-1-.46-.1-.05a.22.22,0,0,0-.3.15h0A.32.32,0,0,0,15.17,8.68Z"/><path class="cls-3" d="M15,8.61l.58.29a1,1,0,0,1,.2-.47l-.42-.2-.27-.13c-.09,0-.17.29-.13.46S15,8.6,15,8.61Z"/><circle class="cls-2" cx="16.86" cy="9.77" r="1.18"/><circle class="cls-4" cx="13.96" cy="8.24" r="1.18"/><path class="cls-2" d="M13.11,7.12,12,6.59v.56l.91.44a.22.22,0,0,0,.14,0h0A.25.25,0,0,0,13.11,7.12Z"/><path class="cls-3" d="M13.36,7.24l-.71-.35a.73.73,0,0,1-.24.45l.58.28s.34,0,.39-.34C13.39,7.26,13.38,7.24,13.36,7.24Z"/><path class="cls-2" d="M12.74,7.73l-.87-.42a.22.22,0,0,0-.32.2v.21l1,.46.1.05a.21.21,0,0,0,.3-.15h0A.32.32,0,0,0,12.74,7.73Z"/><path class="cls-3" d="M12.88,7.8l-.59-.29a1,1,0,0,1-.2.47l.42.2.27.13c.09,0,.17-.29.14-.46A.1.1,0,0,0,12.88,7.8Z"/><circle class="cls-2" cx="10.99" cy="6.66" r="1.18"/></g><path class="cls-2" d="M14.66,3.81l1.09.52V3.77l-.91-.44a.22.22,0,0,0-.14,0h0A.26.26,0,0,0,14.66,3.81Z"/><path class="cls-3" d="M14.41,3.68l.71.35a.73.73,0,0,1,.24-.45l-.58-.28s-.34.05-.39.34C14.39,3.66,14.4,3.68,14.41,3.68Z"/><path class="cls-2" d="M15.12,3.2l.87.43a.22.22,0,0,0,.32-.2V3.22l-1-.47-.1,0a.21.21,0,0,0-.3.14h0A.33.33,0,0,0,15.12,3.2Z"/><path class="cls-3" d="M15,3.14l.59.28A.85.85,0,0,1,15.76,3l-.42-.21-.26-.13c-.1,0-.18.29-.14.47A.07.07,0,0,0,15,3.14Z"/><circle class="cls-2" cx="16.82" cy="4.29" r="1.18"/><circle class="cls-4" cx="13.91" cy="2.76" r="1.18"/><path class="cls-2" d="M13.06,1.64,12,1.11v.57l.9.43a.23.23,0,0,0,.14,0h0A.25.25,0,0,0,13.06,1.64Z"/><path class="cls-3" d="M13.31,1.76l-.71-.35a.73.73,0,0,1-.24.45l.58.28s.34-.05.39-.34C13.34,1.78,13.33,1.77,13.31,1.76Z"/><path class="cls-2" d="M12.69,2.25l-.87-.42a.22.22,0,0,0-.32.2v.21l1,.46.09,0a.21.21,0,0,0,.3-.15h0A.32.32,0,0,0,12.69,2.25Z"/><path class="cls-3" d="M12.83,2.32,12.24,2a1,1,0,0,1-.2.46l.43.2.26.13c.09,0,.17-.28.14-.46A.07.07,0,0,0,12.83,2.32Z"/><circle class="cls-2" cx="10.94" cy="1.18" r="1.18"/><g class="cls-8"><path class="cls-2" d="M14.61,37.41l1.09.53v-.57l-.91-.43a.22.22,0,0,0-.14,0h0A.25.25,0,0,0,14.61,37.41Z"/><path class="cls-3" d="M14.36,37.29l.71.35a.73.73,0,0,1,.24-.45l-.58-.28s-.34.05-.39.34A.05.05,0,0,0,14.36,37.29Z"/><path class="cls-2" d="M15.07,36.81l.87.42a.22.22,0,0,0,.32-.2v-.21l-1-.46-.1,0a.21.21,0,0,0-.3.15h0A.34.34,0,0,0,15.07,36.81Z"/><path class="cls-3" d="M14.93,36.74l.59.29a1,1,0,0,1,.19-.47l-.42-.2L15,36.23c-.1,0-.18.29-.14.46A.07.07,0,0,0,14.93,36.74Z"/><circle class="cls-2" cx="16.77" cy="37.9" r="1.18"/><circle class="cls-4" cx="13.86" cy="36.37" r="1.18"/><path class="cls-2" d="M13,35.24l-1.08-.52v.56l.9.44a.23.23,0,0,0,.14,0h0A.26.26,0,0,0,13,35.24Z"/><path class="cls-3" d="M13.26,35.36,12.55,35a.73.73,0,0,1-.24.45l.58.27s.34,0,.39-.33A0,0,0,0,0,13.26,35.36Z"/><path class="cls-2" d="M12.64,35.86l-.87-.42a.22.22,0,0,0-.32.19v.22l1,.46.09,0a.21.21,0,0,0,.3-.15h0A.31.31,0,0,0,12.64,35.86Z"/><path class="cls-3" d="M12.78,35.93l-.59-.29a1,1,0,0,1-.2.47l.43.2.26.13c.09,0,.17-.29.14-.46S12.8,35.94,12.78,35.93Z"/><circle class="cls-2" cx="10.89" cy="34.79" r="1.18"/></g></g></g></svg>