<svg xmlns="http://www.w3.org/2000/svg" viewBox="0 0 55.08 47.82"><defs><style>.cls-1{opacity:0.3;}.cls-2{fill:#bd201f;}.cls-3{fill:#3c3c3c;}.cls-4{fill:#484848;}.cls-5{opacity:0.5;}.cls-6{opacity:0.7;}.cls-7{opacity:0.9;}.cls-8{opacity:0.2;}</style></defs><title>arrow_1</title><g id="Capa_2" data-name="Capa 2"><g id="Capa_1-2" data-name="Capa 1"><g class="cls-1"><path class="cls-2" d="M12.51,36l-1.09.52V36l.91-.43a.17.17,0,0,1,.14,0h0A.26.26,0,0,1,12.51,36Z"/><path class="cls-3" d="M12.76,35.88l-.72.34a.67.67,0,0,0-.24-.45l.59-.27s.34,0,.39.34Z"/><path class="cls-2" d="M12.05,35.39l-.87.42a.22.22,0,0,1-.32-.2V35.4l1-.46.1,0a.22.22,0,0,1,.3.15h0A.33.33,0,0,1,12.05,35.39Z"/><path class="cls-3" d="M12.19,35.33l-.59.28a1,1,0,0,0-.19-.47l.42-.2.27-.13c.09,0,.17.29.13.47A.07.07,0,0,1,12.19,35.33Z"/><circle class="cls-2" cx="10.35" cy="36.47" r="1.18"/><circle class="cls-4" cx="13.26" cy="34.96" r="1.18"/><path class="cls-2" d="M14.11,33.84l1.09-.53v.57l-.91.43a.22.22,0,0,1-.14,0h0A.25.25,0,0,1,14.11,33.84Z"/><path class="cls-3" d="M13.86,34l.72-.35a.68.68,0,0,0,.23.45l-.58.28s-.34-.05-.39-.34C13.84,34,13.85,34,13.86,34Z"/><path class="cls-2" d="M14.48,34.45l.88-.42a.22.22,0,0,1,.31.2v.22l-1,.45-.09.05a.21.21,0,0,1-.3-.15h0A.32.32,0,0,1,14.48,34.45Z"/><path class="cls-3" d="M14.34,34.52l.59-.28a1,1,0,0,0,.2.46l-.43.2-.26.13c-.09,0-.17-.29-.14-.46A.1.1,0,0,1,14.34,34.52Z"/><circle class="cls-2" cx="16.24" cy="33.39" r="1.18"/></g><g class="cls-5"><path class="cls-2" d="M12.32,30.12l-1.09.52v-.56l.9-.44a.17.17,0,0,1,.14,0h0A.26.26,0,0,1,12.32,30.12Z"/><path class="cls-3" d="M12.57,30l-.71.34a.73.73,0,0,0-.24-.45l.58-.27s.34.05.39.34C12.6,30,12.59,30,12.57,30Z"/><path class="cls-2" d="M11.87,29.51l-.87.42a.22.22,0,0,1-.32-.2v-.21l1-.46.1,0a.21.21,0,0,1,.29.16h0A.3.3,0,0,1,11.87,29.51Z"/><path class="cls-3" d="M12,29.45l-.59.28a1,1,0,0,0-.2-.47l.43-.2.26-.13c.09,0,.18.29.14.47A.07.07,0,0,1,12,29.45Z"/><circle class="cls-2" cx="10.17" cy="30.59" r="1.18"/><circle class="cls-4" cx="13.08" cy="29.08" r="1.18"/><path class="cls-2" d="M13.93,28,15,27.44V28l-.91.43a.22.22,0,0,1-.14,0h0A.25.25,0,0,1,13.93,28Z"/><path class="cls-3" d="M13.68,28.08l.71-.35a.73.73,0,0,0,.24.45l-.58.28s-.34-.05-.39-.34C13.66,28.1,13.67,28.08,13.68,28.08Z"/><path class="cls-2" d="M14.3,28.57l.87-.42a.22.22,0,0,1,.32.2v.22l-1,.45-.1.05a.2.2,0,0,1-.29-.15h0A.32.32,0,0,1,14.3,28.57Z"/><path class="cls-3" d="M14.16,28.64l.59-.28a1,1,0,0,0,.2.46l-.43.2-.26.13c-.1,0-.18-.28-.14-.46A.07.07,0,0,1,14.16,28.64Z"/><circle class="cls-2" cx="16.05" cy="27.51" r="1.18"/></g><g class="cls-5"><path class="cls-2" d="M12.48,24.42l-1.09.52v-.56L12.3,24a.22.22,0,0,1,.14,0h0A.25.25,0,0,1,12.48,24.42Z"/><path class="cls-3" d="M12.73,24.3l-.72.34a.67.67,0,0,0-.23-.44l.58-.28s.34,0,.39.34C12.75,24.28,12.74,24.3,12.73,24.3Z"/><path class="cls-2" d="M12,23.82l-.87.42a.22.22,0,0,1-.32-.2v-.22l1-.45.1-.05a.21.21,0,0,1,.3.15h0A.34.34,0,0,1,12,23.82Z"/><path class="cls-3" d="M12.16,23.75l-.59.28a1,1,0,0,0-.19-.46l.42-.2.27-.13c.09,0,.17.29.13.46A.07.07,0,0,1,12.16,23.75Z"/><circle class="cls-2" cx="10.32" cy="24.9" r="1.18"/><circle class="cls-4" cx="13.23" cy="23.38" r="1.18"/><path class="cls-2" d="M14.08,22.26l1.09-.52v.56l-.91.43a.14.14,0,0,1-.14,0h0A.26.26,0,0,1,14.08,22.26Z"/><path class="cls-3" d="M13.83,22.38l.72-.34a.67.67,0,0,0,.24.45l-.59.27s-.34-.05-.39-.34A.08.08,0,0,1,13.83,22.38Z"/><path class="cls-2" d="M14.45,22.88l.88-.42a.22.22,0,0,1,.31.2v.21l-1,.46-.1.05a.21.21,0,0,1-.3-.15h0A.31.31,0,0,1,14.45,22.88Z"/><path class="cls-3" d="M14.31,22.94l.59-.28a1,1,0,0,0,.2.47l-.42.2-.27.13c-.09,0-.17-.29-.14-.46A.09.09,0,0,1,14.31,22.94Z"/><circle class="cls-2" cx="16.21" cy="21.81" r="1.18"/></g><g class="cls-6"><path class="cls-2" d="M12.45,19.05l-1.09.53V19l.91-.43a.22.22,0,0,1,.14,0h0A.25.25,0,0,1,12.45,19.05Z"/><path class="cls-3" d="M12.7,18.94l-.72.34a.68.68,0,0,0-.23-.45l.58-.28s.34.05.39.34A.08.08,0,0,1,12.7,18.94Z"/><path class="cls-2" d="M12,18.45l-.87.42a.22.22,0,0,1-.32-.2v-.21l1-.46.1-.05a.22.22,0,0,1,.3.15h0A.32.32,0,0,1,12,18.45Z"/><path class="cls-3" d="M12.13,18.38l-.59.29a.91.91,0,0,0-.19-.47l.42-.2.27-.13c.09,0,.17.29.13.46S12.15,18.37,12.13,18.38Z"/><circle class="cls-2" cx="10.29" cy="19.53" r="1.18"/><circle class="cls-4" cx="13.21" cy="18.01" r="1.18"/><path class="cls-2" d="M14.06,16.89l1.08-.52v.57l-.91.43a.2.2,0,0,1-.13,0h0A.26.26,0,0,1,14.06,16.89Z"/><path class="cls-3" d="M13.81,17l.71-.34a.73.73,0,0,0,.24.45l-.59.28s-.34,0-.39-.34A.05.05,0,0,1,13.81,17Z"/><path class="cls-2" d="M14.43,17.51l.87-.42a.22.22,0,0,1,.32.2v.21l-1,.46-.1.05a.21.21,0,0,1-.3-.15h0A.31.31,0,0,1,14.43,17.51Z"/><path class="cls-3" d="M14.29,17.58l.58-.29a1,1,0,0,0,.2.47l-.42.2-.27.13c-.09,0-.17-.29-.14-.46A.08.08,0,0,1,14.29,17.58Z"/><circle class="cls-2" cx="16.18" cy="16.45" r="1.18"/></g><g class="cls-7"><path class="cls-2" d="M12.38,13.52,11.29,14v-.56l.91-.43a.17.17,0,0,1,.14,0h0A.26.26,0,0,1,12.38,13.52Z"/><path class="cls-3" d="M12.63,13.4l-.72.34a.66.66,0,0,0-.24-.44l.59-.28s.34.05.39.34A.05.05,0,0,1,12.63,13.4Z"/><path class="cls-2" d="M11.92,12.92l-.87.41a.22.22,0,0,1-.32-.2v-.21l1-.46.1,0a.21.21,0,0,1,.3.15h0A.34.34,0,0,1,11.92,12.92Z"/><path class="cls-3" d="M12.06,12.85l-.59.28a1,1,0,0,0-.19-.46l.42-.21.26-.12c.1,0,.18.28.14.46A.07.07,0,0,1,12.06,12.85Z"/><circle class="cls-2" cx="10.22" cy="14" r="1.18"/><circle class="cls-4" cx="13.13" cy="12.48" r="1.18"/><path class="cls-2" d="M14,11.36l1.09-.52v.56l-.91.43a.17.17,0,0,1-.14,0h0A.26.26,0,0,1,14,11.36Z"/><path class="cls-3" d="M13.73,11.48l.72-.34a.7.7,0,0,0,.23.45l-.58.27s-.34,0-.39-.34A.05.05,0,0,1,13.73,11.48Z"/><path class="cls-2" d="M14.35,12l.88-.42a.22.22,0,0,1,.31.2V12l-1,.46-.09,0a.21.21,0,0,1-.3-.15h0A.3.3,0,0,1,14.35,12Z"/><path class="cls-3" d="M14.21,12l.59-.28a1,1,0,0,0,.2.47l-.43.2-.26.12c-.09,0-.17-.28-.14-.46A.1.1,0,0,1,14.21,12Z"/><circle class="cls-2" cx="16.11" cy="10.91" r="1.18"/></g><path class="cls-2" d="M12.45,8l-1.09.52V8l.91-.43a.22.22,0,0,1,.14,0h0A.25.25,0,0,1,12.45,8Z"/><path class="cls-3" d="M12.7,7.92,12,8.26a.67.67,0,0,0-.23-.44l.58-.28s.34,0,.39.34C12.72,7.9,12.71,7.92,12.7,7.92Z"/><path class="cls-2" d="M12,7.44l-.87.42a.22.22,0,0,1-.32-.2V7.45l1-.46.1,0a.21.21,0,0,1,.3.15h0A.32.32,0,0,1,12,7.44Z"/><path class="cls-3" d="M12.13,7.37l-.59.28a.9.9,0,0,0-.19-.46l.42-.2L12,6.86c.09,0,.17.29.13.46A.07.07,0,0,1,12.13,7.37Z"/><circle class="cls-2" cx="10.29" cy="8.52" r="1.18"/><circle class="cls-4" cx="13.21" cy="7" r="1.18"/><path class="cls-2" d="M14.06,5.88l1.08-.52v.56l-.91.43a.12.12,0,0,1-.13,0h0A.26.26,0,0,1,14.06,5.88Z"/><path class="cls-3" d="M13.81,6l.71-.34a.73.73,0,0,0,.24.45l-.59.27s-.34,0-.39-.34A.05.05,0,0,1,13.81,6Z"/><path class="cls-2" d="M14.43,6.5l.87-.42a.22.22,0,0,1,.32.2v.21l-1,.46-.1,0a.21.21,0,0,1-.3-.15h0A.3.3,0,0,1,14.43,6.5Z"/><path class="cls-3" d="M14.29,6.56l.58-.28a1,1,0,0,0,.2.47l-.42.2-.27.13c-.09,0-.17-.29-.14-.46S14.26,6.57,14.29,6.56Z"/><circle class="cls-2" cx="16.18" cy="5.43" r="1.18"/><g class="cls-8"><path class="cls-2" d="M12.35,41.65l-1.09.52v-.56l.9-.43a.14.14,0,0,1,.14,0h0A.26.26,0,0,1,12.35,41.65Z"/><path class="cls-3" d="M12.6,41.53l-.71.34a.73.73,0,0,0-.24-.45l.58-.27s.34.05.39.34C12.63,41.5,12.62,41.52,12.6,41.53Z"/><path class="cls-2" d="M11.9,41l-.88.42a.22.22,0,0,1-.31-.2v-.21l1-.46.09-.05a.22.22,0,0,1,.3.16h0A.3.3,0,0,1,11.9,41Z"/><path class="cls-3" d="M12,41l-.59.28a1,1,0,0,0-.2-.47l.43-.2.26-.13c.09,0,.17.29.14.47A.1.1,0,0,1,12,41Z"/><circle class="cls-2" cx="10.2" cy="42.12" r="1.18"/><circle class="cls-4" cx="13.11" cy="40.61" r="1.18"/><path class="cls-2" d="M14,39.49,15.05,39v.56l-.91.43A.23.23,0,0,1,14,40h0A.25.25,0,0,1,14,39.49Z"/><path class="cls-3" d="M13.71,39.61l.71-.34a.72.72,0,0,0,.24.44l-.58.28s-.34-.05-.39-.34C13.68,39.63,13.69,39.61,13.71,39.61Z"/><path class="cls-2" d="M14.33,40.1l.87-.42a.23.23,0,0,1,.32.21v.21l-1,.46-.1,0a.21.21,0,0,1-.3-.15h0A.34.34,0,0,1,14.33,40.1Z"/><path class="cls-3" d="M14.19,40.17l.59-.28a1,1,0,0,0,.2.46l-.43.21-.26.12c-.1,0-.18-.28-.14-.46A.07.07,0,0,1,14.19,40.17Z"/><circle class="cls-2" cx="16.08" cy="39.04" r="1.18"/></g><g class="cls-1"><path class="cls-2" d="M3.52,40.45,2.43,41V40.4L3.34,40a.23.23,0,0,1,.14,0h0A.26.26,0,0,1,3.52,40.45Z"/><path class="cls-3" d="M3.77,40.33l-.71.34a.73.73,0,0,0-.24-.45L3.4,40a.45.45,0,0,1,.39.34S3.79,40.32,3.77,40.33Z"/><path class="cls-2" d="M3.07,39.84l-.88.42a.22.22,0,0,1-.31-.2v-.21l1-.46.09,0a.21.21,0,0,1,.3.15h0A.31.31,0,0,1,3.07,39.84Z"/><path class="cls-3" d="M3.21,39.77l-.59.29a1,1,0,0,0-.2-.47l.43-.2.26-.13c.09,0,.17.29.14.46A.07.07,0,0,1,3.21,39.77Z"/><circle class="cls-2" cx="1.36" cy="40.92" r="1.18"/><circle class="cls-4" cx="4.28" cy="39.41" r="1.18"/><path class="cls-2" d="M5.13,38.29l1.09-.53v.57l-.91.43a.23.23,0,0,1-.14,0h0A.25.25,0,0,1,5.13,38.29Z"/><path class="cls-3" d="M4.88,38.41l.71-.35a.73.73,0,0,0,.24.45l-.58.28s-.34,0-.39-.34C4.85,38.43,4.86,38.41,4.88,38.41Z"/><path class="cls-2" d="M5.5,38.9l.87-.42a.22.22,0,0,1,.32.2v.21l-1,.46-.1,0a.21.21,0,0,1-.3-.15h0A.34.34,0,0,1,5.5,38.9Z"/><path class="cls-3" d="M5.36,39,6,38.69a1,1,0,0,0,.19.46l-.42.2-.27.13c-.09,0-.17-.29-.13-.46A.07.07,0,0,1,5.36,39Z"/><circle class="cls-2" cx="7.25" cy="37.84" r="1.18"/></g><g class="cls-5"><path class="cls-2" d="M3.34,34.57l-1.09.52v-.57l.91-.43a.17.17,0,0,1,.14,0h0A.26.26,0,0,1,3.34,34.57Z"/><path class="cls-3" d="M3.59,34.45l-.72.34a.68.68,0,0,0-.23-.45l.58-.27s.34,0,.39.34A.08.08,0,0,1,3.59,34.45Z"/><path class="cls-2" d="M2.88,34,2,34.38a.22.22,0,0,1-.32-.2V34l1-.46.1,0a.21.21,0,0,1,.3.15h0A.32.32,0,0,1,2.88,34Z"/><path class="cls-3" d="M3,33.9l-.59.28a.91.91,0,0,0-.19-.47l.42-.2.27-.13c.09,0,.17.29.14.46A.1.1,0,0,1,3,33.9Z"/><circle class="cls-2" cx="1.18" cy="35.04" r="1.18"/><circle class="cls-4" cx="4.1" cy="33.53" r="1.18"/><path class="cls-2" d="M5,32.41,6,31.88v.57l-.91.43a.2.2,0,0,1-.13,0H5A.25.25,0,0,1,5,32.41Z"/><path class="cls-3" d="M4.7,32.53l.71-.35a.73.73,0,0,0,.24.45l-.59.28a.48.48,0,0,1-.39-.34S4.68,32.53,4.7,32.53Z"/><path class="cls-2" d="M5.32,33l.87-.42a.22.22,0,0,1,.32.2V33l-1,.45-.1.05a.21.21,0,0,1-.3-.15h0A.32.32,0,0,1,5.32,33Z"/><path class="cls-3" d="M5.18,33.09l.59-.28a.9.9,0,0,0,.19.46l-.42.2-.27.13c-.09,0-.17-.29-.14-.46A.12.12,0,0,1,5.18,33.09Z"/><circle class="cls-2" cx="7.07" cy="31.96" r="1.18"/></g><g class="cls-5"><path class="cls-2" d="M3.49,28.87l-1.09.52v-.56l.9-.43a.23.23,0,0,1,.14,0h0A.25.25,0,0,1,3.49,28.87Z"/><path class="cls-3" d="M3.74,28.75,3,29.09a.72.72,0,0,0-.24-.44l.58-.28s.34.05.39.34C3.77,28.73,3.76,28.74,3.74,28.75Z"/><path class="cls-2" d="M3,28.27l-.88.42a.22.22,0,0,1-.31-.2v-.22l1-.45.09-.05a.21.21,0,0,1,.3.15h0A.32.32,0,0,1,3,28.27Z"/><path class="cls-3" d="M3.18,28.2l-.59.28a1,1,0,0,0-.2-.46l.43-.2.26-.13c.09,0,.17.28.14.46A.1.1,0,0,1,3.18,28.2Z"/><circle class="cls-2" cx="1.33" cy="29.35" r="1.18"/><circle class="cls-4" cx="4.25" cy="27.83" r="1.18"/><path class="cls-2" d="M5.1,26.71l1.09-.52v.56l-.91.43a.17.17,0,0,1-.14,0h0A.26.26,0,0,1,5.1,26.71Z"/><path class="cls-3" d="M4.85,26.83l.71-.34a.75.75,0,0,0,.24.45l-.58.27s-.34-.05-.39-.34C4.82,26.86,4.83,26.84,4.85,26.83Z"/><path class="cls-2" d="M5.47,27.33l.87-.42a.22.22,0,0,1,.32.2v.21l-1,.46-.1,0a.22.22,0,0,1-.3-.16h0A.32.32,0,0,1,5.47,27.33Z"/><path class="cls-3" d="M5.33,27.39l.59-.28a1,1,0,0,0,.2.47l-.43.2-.26.13c-.1,0-.18-.29-.14-.47A.07.07,0,0,1,5.33,27.39Z"/><circle class="cls-2" cx="7.22" cy="26.26" r="1.18"/></g><g class="cls-6"><path class="cls-2" d="M3.46,23.5,2.37,24v-.57l.9-.43a.23.23,0,0,1,.14,0h0A.25.25,0,0,1,3.46,23.5Z"/><path class="cls-3" d="M3.71,23.38,3,23.73a.73.73,0,0,0-.24-.45L3.34,23s.34.05.39.34C3.74,23.36,3.73,23.38,3.71,23.38Z"/><path class="cls-2" d="M3,22.9l-.87.42a.22.22,0,0,1-.32-.2v-.21l1-.46.09-.05a.21.21,0,0,1,.3.15h0A.32.32,0,0,1,3,22.9Z"/><path class="cls-3" d="M3.15,22.83l-.59.29a1,1,0,0,0-.2-.47l.43-.2.26-.13c.09,0,.17.29.14.46A.07.07,0,0,1,3.15,22.83Z"/><circle class="cls-2" cx="1.31" cy="23.98" r="1.18"/><circle class="cls-4" cx="4.22" cy="22.46" r="1.18"/><path class="cls-2" d="M5.07,21.34l1.09-.52v.57l-.91.43a.22.22,0,0,1-.14,0h0A.26.26,0,0,1,5.07,21.34Z"/><path class="cls-3" d="M4.82,21.46l.71-.34a.73.73,0,0,0,.24.45l-.58.27a.45.45,0,0,1-.39-.34A.08.08,0,0,1,4.82,21.46Z"/><path class="cls-2" d="M5.44,22l.87-.42a.22.22,0,0,1,.32.2V22l-1,.46-.1.05a.21.21,0,0,1-.29-.15h0A.32.32,0,0,1,5.44,22Z"/><path class="cls-3" d="M5.3,22l.59-.29a1,1,0,0,0,.2.47l-.43.2-.26.13c-.1,0-.18-.29-.14-.46S5.28,22,5.3,22Z"/><circle class="cls-2" cx="7.19" cy="20.9" r="1.18"/></g><g class="cls-7"><path class="cls-2" d="M3.39,18l-1.09.52v-.56l.91-.43a.17.17,0,0,1,.14,0h0A.26.26,0,0,1,3.39,18Z"/><path class="cls-3" d="M3.64,17.85l-.71.34a.75.75,0,0,0-.24-.45l.58-.27s.34.05.39.34C3.67,17.83,3.66,17.84,3.64,17.85Z"/><path class="cls-2" d="M2.94,17.37l-.88.41a.22.22,0,0,1-.31-.2v-.21l1-.46.1,0a.21.21,0,0,1,.3.15h0A.32.32,0,0,1,2.94,17.37Z"/><path class="cls-3" d="M3.08,17.3l-.59.28a1,1,0,0,0-.2-.47l.42-.2L3,16.79c.09,0,.17.28.14.46A.1.1,0,0,1,3.08,17.3Z"/><circle class="cls-2" cx="1.23" cy="18.45" r="1.18"/><circle class="cls-4" cx="4.15" cy="16.93" r="1.18"/><path class="cls-2" d="M5,15.81l1.09-.52v.56l-.9.43a.17.17,0,0,1-.14,0H5A.26.26,0,0,1,5,15.81Z"/><path class="cls-3" d="M4.75,15.93l.71-.34A.72.72,0,0,0,5.7,16l-.58.28s-.34,0-.39-.34C4.72,16,4.73,15.94,4.75,15.93Z"/><path class="cls-2" d="M5.37,16.42,6.24,16a.22.22,0,0,1,.32.2v.21l-1,.46-.1,0a.21.21,0,0,1-.3-.15h0A.34.34,0,0,1,5.37,16.42Z"/><path class="cls-3" d="M5.23,16.49l.59-.28a1,1,0,0,0,.19.47l-.42.2L5.32,17c-.09,0-.17-.28-.13-.46A.07.07,0,0,1,5.23,16.49Z"/><circle class="cls-2" cx="7.12" cy="15.36" r="1.18"/></g><path class="cls-2" d="M3.46,12.49,2.37,13v-.56l.9-.43a.23.23,0,0,1,.14,0h0A.25.25,0,0,1,3.46,12.49Z"/><path class="cls-3" d="M3.71,12.37,3,12.71a.72.72,0,0,0-.24-.44L3.34,12s.34,0,.39.34C3.74,12.35,3.73,12.36,3.71,12.37Z"/><path class="cls-2" d="M3,11.89l-.87.42a.22.22,0,0,1-.32-.2v-.22l1-.45.09,0a.21.21,0,0,1,.3.15h0A.32.32,0,0,1,3,11.89Z"/><path class="cls-3" d="M3.15,11.82l-.59.28a1,1,0,0,0-.2-.46l.43-.2.26-.13c.09,0,.17.28.14.46A.07.07,0,0,1,3.15,11.82Z"/><circle class="cls-2" cx="1.31" cy="12.97" r="1.18"/><circle class="cls-4" cx="4.22" cy="11.45" r="1.18"/><path class="cls-2" d="M5.07,10.33l1.09-.52v.56l-.91.43a.17.17,0,0,1-.14,0h0A.26.26,0,0,1,5.07,10.33Z"/><path class="cls-3" d="M4.82,10.45l.71-.34a.75.75,0,0,0,.24.45l-.58.27s-.34-.05-.39-.34Z"/><path class="cls-2" d="M5.44,11l.87-.42a.22.22,0,0,1,.32.2v.21l-1,.46-.1,0a.21.21,0,0,1-.29-.16h0A.3.3,0,0,1,5.44,11Z"/><path class="cls-3" d="M5.3,11l.59-.28a1,1,0,0,0,.2.47l-.43.2-.26.13c-.1,0-.18-.29-.14-.47A.07.07,0,0,1,5.3,11Z"/><circle class="cls-2" cx="7.19" cy="9.88" r="1.18"/><g class="cls-8"><path class="cls-2" d="M3.37,46.1l-1.09.52v-.57l.91-.43a.17.17,0,0,1,.14,0h0A.26.26,0,0,1,3.37,46.1Z"/><path class="cls-3" d="M3.62,46l-.72.34a.68.68,0,0,0-.23-.45l.58-.27s.34,0,.39.34A.08.08,0,0,1,3.62,46Z"/><path class="cls-2" d="M2.91,45.49,2,45.91a.22.22,0,0,1-.32-.2V45.5l1-.46.1,0a.22.22,0,0,1,.3.15h0A.32.32,0,0,1,2.91,45.49Z"/><path class="cls-3" d="M3.05,45.43l-.59.28a.91.91,0,0,0-.19-.47l.42-.2L3,44.91c.09,0,.17.29.13.47A.07.07,0,0,1,3.05,45.43Z"/><circle class="cls-2" cx="1.21" cy="46.57" r="1.18"/><circle class="cls-4" cx="4.12" cy="45.06" r="1.18"/><path class="cls-2" d="M5,43.94l1.09-.53V44l-.91.43a.2.2,0,0,1-.13,0H5A.25.25,0,0,1,5,43.94Z"/><path class="cls-3" d="M4.73,44.06l.71-.35a.67.67,0,0,0,.24.45l-.59.28s-.34,0-.39-.34C4.7,44.08,4.71,44.06,4.73,44.06Z"/><path class="cls-2" d="M5.35,44.55l.87-.42a.22.22,0,0,1,.32.2v.22l-1,.45-.1,0a.21.21,0,0,1-.3-.15h0A.31.31,0,0,1,5.35,44.55Z"/><path class="cls-3" d="M5.2,44.62l.59-.28a1,1,0,0,0,.2.46l-.42.2-.27.13c-.09,0-.17-.29-.14-.46A.1.1,0,0,1,5.2,44.62Z"/><circle class="cls-2" cx="7.1" cy="43.49" r="1.18"/></g><g class="cls-1"><path class="cls-2" d="M21.82,31.8l-1.09.52v-.57l.91-.43a.22.22,0,0,1,.14,0h0A.26.26,0,0,1,21.82,31.8Z"/><path class="cls-3" d="M22.07,31.68l-.72.34a.68.68,0,0,0-.23-.45l.58-.28s.34.05.39.34A.08.08,0,0,1,22.07,31.68Z"/><path class="cls-2" d="M21.36,31.19l-.87.42a.22.22,0,0,1-.32-.2V31.2l1-.46.1,0a.21.21,0,0,1,.3.15h0A.32.32,0,0,1,21.36,31.19Z"/><path class="cls-3" d="M21.5,31.12l-.58.29a1,1,0,0,0-.2-.47l.42-.2.27-.13c.09,0,.17.29.14.46A.06.06,0,0,1,21.5,31.12Z"/><circle class="cls-2" cx="19.66" cy="32.27" r="1.18"/><circle class="cls-4" cx="22.58" cy="30.76" r="1.18"/><path class="cls-2" d="M23.43,29.64l1.08-.53v.57l-.91.43a.2.2,0,0,1-.13,0h0A.25.25,0,0,1,23.43,29.64Z"/><path class="cls-3" d="M23.18,29.75l.71-.34a.73.73,0,0,0,.24.45l-.59.28a.48.48,0,0,1-.39-.34A.05.05,0,0,1,23.18,29.75Z"/><path class="cls-2" d="M23.8,30.25l.87-.42A.22.22,0,0,1,25,30v.21l-1,.46-.1.05a.21.21,0,0,1-.3-.15h0A.32.32,0,0,1,23.8,30.25Z"/><path class="cls-3" d="M23.66,30.32l.59-.28a.9.9,0,0,0,.19.46l-.42.2-.27.13c-.09,0-.17-.29-.14-.46A.12.12,0,0,1,23.66,30.32Z"/><circle class="cls-2" cx="25.55" cy="29.19" r="1.18"/></g><g class="cls-5"><path class="cls-2" d="M21.64,25.92l-1.09.52v-.57l.91-.43a.22.22,0,0,1,.14,0h0A.26.26,0,0,1,21.64,25.92Z"/><path class="cls-3" d="M21.89,25.8l-.72.34a.68.68,0,0,0-.23-.45l.58-.28a.47.47,0,0,1,.39.35Z"/><path class="cls-2" d="M21.18,25.31l-.87.42a.22.22,0,0,1-.32-.2v-.21l1-.46.1-.05a.22.22,0,0,1,.3.15h0A.33.33,0,0,1,21.18,25.31Z"/><path class="cls-3" d="M21.32,25.24l-.59.29a1,1,0,0,0-.19-.47l.42-.2.27-.13c.09,0,.17.29.13.46S21.34,25.23,21.32,25.24Z"/><circle class="cls-2" cx="19.48" cy="26.39" r="1.18"/><circle class="cls-4" cx="22.39" cy="24.88" r="1.18"/><path class="cls-2" d="M23.24,23.76l1.09-.53v.57l-.91.43a.22.22,0,0,1-.14,0h0A.25.25,0,0,1,23.24,23.76Z"/><path class="cls-3" d="M23,23.88l.72-.35a.68.68,0,0,0,.23.45l-.58.28s-.34-.05-.39-.34C23,23.9,23,23.88,23,23.88Z"/><path class="cls-2" d="M23.61,24.37l.88-.42a.22.22,0,0,1,.31.2v.21l-1,.46-.1.05a.21.21,0,0,1-.3-.15h0A.32.32,0,0,1,23.61,24.37Z"/><path class="cls-3" d="M23.47,24.44l.59-.28a1,1,0,0,0,.2.46l-.42.2-.27.13c-.09,0-.17-.29-.14-.46A.1.1,0,0,1,23.47,24.44Z"/><circle class="cls-2" cx="25.37" cy="23.31" r="1.18"/></g><g class="cls-5"><path class="cls-2" d="M21.79,20.22l-1.09.52v-.56l.91-.43a.17.17,0,0,1,.14,0h0A.26.26,0,0,1,21.79,20.22Z"/><path class="cls-3" d="M22,20.1l-.71.34a.72.72,0,0,0-.24-.44l.58-.28s.34.05.39.34A.05.05,0,0,1,22,20.1Z"/><path class="cls-2" d="M21.34,19.62l-.88.42a.23.23,0,0,1-.32-.21v-.21l1-.46.1,0a.21.21,0,0,1,.3.15h0A.32.32,0,0,1,21.34,19.62Z"/><path class="cls-3" d="M21.48,19.55l-.59.28a1,1,0,0,0-.2-.46l.42-.21.27-.12c.09,0,.17.28.14.46A.1.1,0,0,1,21.48,19.55Z"/><circle class="cls-2" cx="19.63" cy="20.7" r="1.18"/><circle class="cls-4" cx="22.55" cy="19.18" r="1.18"/><path class="cls-2" d="M23.4,18.06l1.09-.52v.56l-.9.43a.17.17,0,0,1-.14,0h0A.26.26,0,0,1,23.4,18.06Z"/><path class="cls-3" d="M23.15,18.18l.71-.34a.75.75,0,0,0,.24.45l-.58.27s-.34,0-.39-.34C23.12,18.2,23.13,18.19,23.15,18.18Z"/><path class="cls-2" d="M23.77,18.68l.87-.42a.22.22,0,0,1,.32.2v.21l-1,.46-.1,0a.21.21,0,0,1-.3-.15h0A.31.31,0,0,1,23.77,18.68Z"/><path class="cls-3" d="M23.63,18.74l.59-.28a.91.91,0,0,0,.19.47l-.42.2-.27.13c-.09,0-.17-.29-.13-.47A.07.07,0,0,1,23.63,18.74Z"/><circle class="cls-2" cx="25.52" cy="17.61" r="1.18"/></g><g class="cls-6"><path class="cls-2" d="M21.76,14.85l-1.09.53v-.57l.91-.43a.23.23,0,0,1,.14,0h0A.25.25,0,0,1,21.76,14.85Z"/><path class="cls-3" d="M22,14.73l-.71.35a.73.73,0,0,0-.24-.45l.58-.28s.34.05.39.34C22,14.71,22,14.73,22,14.73Z"/><path class="cls-2" d="M21.31,14.25l-.88.42a.22.22,0,0,1-.31-.2v-.21l1-.46.1-.05a.21.21,0,0,1,.3.15h0A.32.32,0,0,1,21.31,14.25Z"/><path class="cls-3" d="M21.45,14.18l-.59.28a1,1,0,0,0-.2-.46l.42-.2.27-.13c.09,0,.17.29.14.46A.1.1,0,0,1,21.45,14.18Z"/><circle class="cls-2" cx="19.6" cy="15.33" r="1.18"/><circle class="cls-4" cx="22.52" cy="13.81" r="1.18"/><path class="cls-2" d="M23.37,12.69l1.09-.52v.57l-.91.43a.17.17,0,0,1-.14,0h0A.26.26,0,0,1,23.37,12.69Z"/><path class="cls-3" d="M23.12,12.81l.71-.34a.73.73,0,0,0,.24.45l-.58.27s-.34,0-.39-.34C23.09,12.84,23.1,12.82,23.12,12.81Z"/><path class="cls-2" d="M23.74,13.31l.87-.42a.22.22,0,0,1,.32.2v.21l-1,.46-.1.05a.22.22,0,0,1-.3-.15h0A.33.33,0,0,1,23.74,13.31Z"/><path class="cls-3" d="M23.6,13.38l.59-.29a1,1,0,0,0,.19.47l-.42.2-.27.13c-.09,0-.17-.29-.13-.46S23.58,13.39,23.6,13.38Z"/><circle class="cls-2" cx="25.49" cy="12.25" r="1.18"/></g><g class="cls-7"><path class="cls-2" d="M21.69,9.32l-1.09.52V9.28l.91-.43a.17.17,0,0,1,.14,0h0A.26.26,0,0,1,21.69,9.32Z"/><path class="cls-3" d="M21.94,9.2l-.72.34A.7.7,0,0,0,21,9.09l.58-.27s.34,0,.39.34Z"/><path class="cls-2" d="M21.23,8.71l-.87.42a.22.22,0,0,1-.32-.2V8.72l1-.46.1,0a.21.21,0,0,1,.3.15h0A.31.31,0,0,1,21.23,8.71Z"/><path class="cls-3" d="M21.37,8.65l-.59.28a.91.91,0,0,0-.19-.47l.42-.2.27-.12c.09,0,.17.28.14.46Z"/><circle class="cls-2" cx="19.53" cy="9.8" r="1.18"/><circle class="cls-4" cx="22.45" cy="8.28" r="1.18"/><path class="cls-2" d="M23.3,7.16l1.08-.52V7.2l-.91.43a.2.2,0,0,1-.13,0h0A.25.25,0,0,1,23.3,7.16Z"/><path class="cls-3" d="M23.05,7.28l.71-.34a.72.72,0,0,0,.24.44l-.59.28A.48.48,0,0,1,23,7.32S23,7.29,23.05,7.28Z"/><path class="cls-2" d="M23.67,7.77l.87-.41a.22.22,0,0,1,.32.2v.21l-1,.46-.1,0a.21.21,0,0,1-.3-.15h0A.33.33,0,0,1,23.67,7.77Z"/><path class="cls-3" d="M23.53,7.84l.59-.28a.9.9,0,0,0,.19.46l-.42.21-.27.12c-.09,0-.17-.28-.14-.46A.12.12,0,0,1,23.53,7.84Z"/><circle class="cls-2" cx="25.42" cy="6.71" r="1.18"/></g><path class="cls-2" d="M21.76,3.84l-1.09.52V3.8l.91-.43a.17.17,0,0,1,.14,0h0A.26.26,0,0,1,21.76,3.84Z"/><path class="cls-3" d="M22,3.72l-.71.34a.72.72,0,0,0-.24-.44l.58-.28s.34.05.39.34C22,3.7,22,3.71,22,3.72Z"/><path class="cls-2" d="M21.31,3.24l-.88.42a.22.22,0,0,1-.31-.21V3.24l1-.46.1,0a.21.21,0,0,1,.3.15h0A.32.32,0,0,1,21.31,3.24Z"/><path class="cls-3" d="M21.45,3.17l-.59.28a1,1,0,0,0-.2-.46l.42-.21.27-.12c.09,0,.17.28.14.46A.1.1,0,0,1,21.45,3.17Z"/><circle class="cls-2" cx="19.6" cy="4.32" r="1.18"/><circle class="cls-4" cx="22.52" cy="2.8" r="1.18"/><path class="cls-2" d="M23.37,1.68l1.09-.52v.56l-.91.43a.17.17,0,0,1-.14,0h0A.26.26,0,0,1,23.37,1.68Z"/><path class="cls-3" d="M23.12,1.8l.71-.34a.75.75,0,0,0,.24.45l-.58.27s-.34-.05-.39-.34C23.09,1.82,23.1,1.81,23.12,1.8Z"/><path class="cls-2" d="M23.74,2.3l.87-.42a.22.22,0,0,1,.32.2v.21l-1,.46-.1,0a.21.21,0,0,1-.3-.15h0A.32.32,0,0,1,23.74,2.3Z"/><path class="cls-3" d="M23.6,2.36l.59-.28a1,1,0,0,0,.19.47l-.42.2-.27.13c-.09,0-.17-.29-.13-.47A.07.07,0,0,1,23.6,2.36Z"/><circle class="cls-2" cx="25.49" cy="1.23" r="1.18"/><g class="cls-8"><path class="cls-2" d="M21.67,37.45,20.58,38V37.4l.91-.43a.17.17,0,0,1,.14,0h0A.26.26,0,0,1,21.67,37.45Z"/><path class="cls-3" d="M21.91,37.33l-.71.34a.67.67,0,0,0-.24-.45l.59-.27s.34,0,.39.34A.05.05,0,0,1,21.91,37.33Z"/><path class="cls-2" d="M21.21,36.84l-.87.42a.22.22,0,0,1-.32-.2v-.21l1-.46.1,0a.22.22,0,0,1,.3.15h0A.33.33,0,0,1,21.21,36.84Z"/><path class="cls-3" d="M21.35,36.77l-.59.29a1,1,0,0,0-.2-.47l.43-.2.26-.13c.1,0,.18.29.14.46A0,0,0,0,1,21.35,36.77Z"/><circle class="cls-2" cx="19.51" cy="37.92" r="1.18"/><circle class="cls-4" cx="22.42" cy="36.41" r="1.18"/><path class="cls-2" d="M23.27,35.29l1.09-.53v.57l-.91.43a.22.22,0,0,1-.14,0h0A.25.25,0,0,1,23.27,35.29Z"/><path class="cls-3" d="M23,35.41l.72-.35a.68.68,0,0,0,.23.45l-.58.28s-.34,0-.39-.34C23,35.43,23,35.41,23,35.41Z"/><path class="cls-2" d="M23.64,35.9l.88-.42a.22.22,0,0,1,.31.2v.21l-1,.46-.09,0a.21.21,0,0,1-.3-.15h0A.32.32,0,0,1,23.64,35.9Z"/><path class="cls-3" d="M23.5,36l.59-.28a1,1,0,0,0,.2.46l-.43.2-.26.13c-.09,0-.17-.29-.14-.46A.1.1,0,0,1,23.5,36Z"/><circle class="cls-2" cx="25.39" cy="34.84" r="1.18"/></g><g class="cls-1"><path class="cls-2" d="M42.07,36l1.09.53V36l-.91-.43a.2.2,0,0,0-.13,0h0A.25.25,0,0,0,42.07,36Z"/><path class="cls-3" d="M41.82,35.88l.72.35a.67.67,0,0,1,.24-.45l-.59-.28a.48.48,0,0,0-.39.34A.05.05,0,0,0,41.82,35.88Z"/><path class="cls-2" d="M42.53,35.4l.87.42a.22.22,0,0,0,.32-.2v-.21l-1-.46-.09-.05a.21.21,0,0,0-.3.15h0A.32.32,0,0,0,42.53,35.4Z"/><path class="cls-3" d="M42.39,35.33l.59.29a1,1,0,0,1,.2-.47l-.43-.2-.26-.13c-.09,0-.17.29-.14.46A.07.07,0,0,0,42.39,35.33Z"/><circle class="cls-2" cx="44.23" cy="36.49" r="1.18"/><circle class="cls-4" cx="41.32" cy="34.96" r="1.18"/><path class="cls-2" d="M40.48,33.83l-1.09-.52v.56l.91.44a.2.2,0,0,0,.13,0h0A.26.26,0,0,0,40.48,33.83Z"/><path class="cls-3" d="M40.73,34,40,33.61a.67.67,0,0,1-.24.45l.59.28a.48.48,0,0,0,.39-.34S40.74,34,40.73,34Z"/><path class="cls-2" d="M40.1,34.45,39.23,34a.22.22,0,0,0-.32.2v.21l1,.46L40,35a.22.22,0,0,0,.3-.15h0A.34.34,0,0,0,40.1,34.45Z"/><path class="cls-3" d="M40.24,34.52l-.59-.29a.91.91,0,0,1-.19.47l.42.2.26.13c.1,0,.18-.29.14-.46S40.26,34.53,40.24,34.52Z"/><circle class="cls-2" cx="38.36" cy="33.38" r="1.18"/></g><g class="cls-5"><path class="cls-2" d="M42.28,30.12l1.09.53v-.56l-.91-.44a.22.22,0,0,0-.14,0h0A.25.25,0,0,0,42.28,30.12Z"/><path class="cls-3" d="M42,30l.72.35A.68.68,0,0,1,43,29.9l-.58-.28s-.34.05-.39.34A.05.05,0,0,0,42,30Z"/><path class="cls-2" d="M42.74,29.52l.87.42a.22.22,0,0,0,.32-.2v-.21l-1-.46-.1-.05a.21.21,0,0,0-.29.15h0A.32.32,0,0,0,42.74,29.52Z"/><path class="cls-3" d="M42.6,29.45l.59.29a1,1,0,0,1,.2-.47l-.43-.2-.26-.13c-.09,0-.18.29-.14.46A.07.07,0,0,0,42.6,29.45Z"/><circle class="cls-2" cx="44.44" cy="30.61" r="1.18"/><circle class="cls-4" cx="41.53" cy="29.08" r="1.18"/><path class="cls-2" d="M40.68,28l-1.08-.53V28l.9.44a.23.23,0,0,0,.14,0h0A.25.25,0,0,0,40.68,28Z"/><path class="cls-3" d="M40.93,28.08l-.71-.35a.73.73,0,0,1-.24.45l.58.28s.34-.05.39-.34C41,28.1,41,28.08,40.93,28.08Z"/><path class="cls-2" d="M40.31,28.57l-.87-.42a.22.22,0,0,0-.32.2v.21l1,.46.1.05a.21.21,0,0,0,.29-.15h0A.32.32,0,0,0,40.31,28.57Z"/><path class="cls-3" d="M40.45,28.64l-.59-.29a1,1,0,0,1-.2.47l.43.2.26.13c.09,0,.18-.29.14-.46A.07.07,0,0,0,40.45,28.64Z"/><circle class="cls-2" cx="38.56" cy="27.5" r="1.18"/></g><g class="cls-5"><path class="cls-2" d="M42.15,24.43l1.09.52v-.56L42.33,24a.12.12,0,0,0-.13,0h0A.26.26,0,0,0,42.15,24.43Z"/><path class="cls-3" d="M41.9,24.31l.72.34a.7.7,0,0,1,.23-.45l-.58-.27s-.34,0-.39.33A.08.08,0,0,0,41.9,24.31Z"/><path class="cls-2" d="M42.61,23.82l.87.43a.22.22,0,0,0,.32-.2v-.21l-1-.47-.09,0a.21.21,0,0,0-.3.15h0A.3.3,0,0,0,42.61,23.82Z"/><path class="cls-3" d="M42.47,23.76l.59.28a1,1,0,0,1,.2-.46l-.43-.21-.26-.12c-.09,0-.18.28-.14.46A.07.07,0,0,0,42.47,23.76Z"/><circle class="cls-2" cx="44.31" cy="24.91" r="1.18"/><circle class="cls-4" cx="41.4" cy="23.38" r="1.18"/><path class="cls-2" d="M40.55,22.26l-1.08-.53v.57l.9.43a.17.17,0,0,0,.14,0h0A.26.26,0,0,0,40.55,22.26Z"/><path class="cls-3" d="M40.8,22.38,40.09,22a.72.72,0,0,1-.24.44l.58.28a.49.49,0,0,0,.4-.34A.05.05,0,0,0,40.8,22.38Z"/><path class="cls-2" d="M40.18,22.87l-.87-.42a.22.22,0,0,0-.32.2v.21l1,.46.1.05a.21.21,0,0,0,.3-.15h0A.34.34,0,0,0,40.18,22.87Z"/><path class="cls-3" d="M40.32,22.94l-.59-.28a1,1,0,0,1-.2.46l.43.2.26.13c.1,0,.18-.28.14-.46A.07.07,0,0,0,40.32,22.94Z"/><circle class="cls-2" cx="38.43" cy="21.8" r="1.18"/></g><g class="cls-6"><path class="cls-2" d="M42.21,19.06l1.08.53V19l-.9-.43a.17.17,0,0,0-.14,0h0A.26.26,0,0,0,42.21,19.06Z"/><path class="cls-3" d="M42,18.94l.71.34a.72.72,0,0,1,.24-.44l-.58-.28a.49.49,0,0,0-.4.34A.05.05,0,0,0,42,18.94Z"/><path class="cls-2" d="M42.66,18.46l.87.42a.22.22,0,0,0,.32-.2v-.21l-1-.46-.1-.05a.21.21,0,0,0-.3.15h0A.32.32,0,0,0,42.66,18.46Z"/><path class="cls-3" d="M42.52,18.39l.59.28a1,1,0,0,1,.2-.46l-.42-.2-.27-.13c-.09,0-.17.28-.14.46A.1.1,0,0,0,42.52,18.39Z"/><circle class="cls-2" cx="44.36" cy="19.55" r="1.18"/><circle class="cls-4" cx="41.45" cy="18.02" r="1.18"/><path class="cls-2" d="M40.61,16.89l-1.09-.52v.56l.91.43a.12.12,0,0,0,.13,0h0A.26.26,0,0,0,40.61,16.89Z"/><path class="cls-3" d="M40.86,17l-.72-.34a.67.67,0,0,1-.23.44l.58.28s.34-.05.39-.34A.08.08,0,0,0,40.86,17Z"/><path class="cls-2" d="M40.23,17.51l-.87-.43a.23.23,0,0,0-.32.2v.21L40,18l.1,0a.21.21,0,0,0,.3-.14h0A.32.32,0,0,0,40.23,17.51Z"/><path class="cls-3" d="M40.37,17.57l-.58-.28a.91.91,0,0,1-.2.46L40,18l.27.13c.09,0,.17-.29.14-.47A.12.12,0,0,0,40.37,17.57Z"/><circle class="cls-2" cx="38.49" cy="16.44" r="1.18"/></g><g class="cls-7"><path class="cls-2" d="M42.3,13.53l1.09.52v-.56l-.91-.44a.22.22,0,0,0-.14,0h0A.26.26,0,0,0,42.3,13.53Z"/><path class="cls-3" d="M42.05,13.4l.71.35A.73.73,0,0,1,43,13.3L42.42,13s-.34.05-.39.34C42,13.38,42,13.4,42.05,13.4Z"/><path class="cls-2" d="M42.76,12.92l.87.43a.22.22,0,0,0,.32-.2v-.21l-1-.47-.1,0a.21.21,0,0,0-.3.14h0A.33.33,0,0,0,42.76,12.92Z"/><path class="cls-3" d="M42.62,12.86l.59.28a.91.91,0,0,1,.2-.46L43,12.47l-.26-.13c-.1,0-.18.29-.14.47A.07.07,0,0,0,42.62,12.86Z"/><circle class="cls-2" cx="44.46" cy="14.01" r="1.18"/><circle class="cls-4" cx="41.55" cy="12.48" r="1.18"/><path class="cls-2" d="M40.7,11.36l-1.08-.53v.57l.9.43a.23.23,0,0,0,.14,0h0A.25.25,0,0,0,40.7,11.36Z"/><path class="cls-3" d="M41,11.48l-.71-.35a.73.73,0,0,1-.24.45l.58.28s.34,0,.39-.34C41,11.5,41,11.49,41,11.48Z"/><path class="cls-2" d="M40.33,12l-.87-.42a.22.22,0,0,0-.32.2V12l1,.46.09.05a.21.21,0,0,0,.3-.15h0A.32.32,0,0,0,40.33,12Z"/><path class="cls-3" d="M40.47,12l-.59-.28a1,1,0,0,1-.2.46l.43.2.26.13c.09,0,.18-.28.14-.46A.07.07,0,0,0,40.47,12Z"/><circle class="cls-2" cx="38.58" cy="10.9" r="1.18"/></g><path class="cls-2" d="M42.25,8.05l1.09.52V8l-.91-.43a.12.12,0,0,0-.13,0h0A.26.26,0,0,0,42.25,8.05Z"/><path class="cls-3" d="M42,7.93l.72.34A.67.67,0,0,1,43,7.83l-.58-.28s-.34,0-.39.34A.08.08,0,0,0,42,7.93Z"/><path class="cls-2" d="M42.71,7.45l.87.42a.22.22,0,0,0,.32-.2V7.46l-1-.47-.09,0a.21.21,0,0,0-.3.15h0A.32.32,0,0,0,42.71,7.45Z"/><path class="cls-3" d="M42.57,7.38l.59.28a1,1,0,0,1,.2-.46L42.93,7l-.26-.12c-.09,0-.18.28-.14.46A.07.07,0,0,0,42.57,7.38Z"/><circle class="cls-2" cx="44.41" cy="8.53" r="1.18"/><circle class="cls-4" cx="41.5" cy="7" r="1.18"/><path class="cls-2" d="M40.65,5.88l-1.08-.53v.57l.9.43a.17.17,0,0,0,.14,0h0A.26.26,0,0,0,40.65,5.88Z"/><path class="cls-3" d="M40.9,6l-.71-.34A.72.72,0,0,1,40,6.1l.58.28a.49.49,0,0,0,.4-.34A.05.05,0,0,0,40.9,6Z"/><path class="cls-2" d="M40.28,6.49l-.87-.42a.22.22,0,0,0-.32.2v.21l1,.47.1,0a.21.21,0,0,0,.3-.15h0A.34.34,0,0,0,40.28,6.49Z"/><path class="cls-3" d="M40.42,6.56l-.59-.28a1,1,0,0,1-.2.46l.43.21.26.12c.1,0,.18-.28.14-.46A.07.07,0,0,0,40.42,6.56Z"/><circle class="cls-2" cx="38.53" cy="5.42" r="1.18"/><g class="cls-8"><path class="cls-2" d="M42.2,41.65l1.09.53v-.56l-.91-.44a.2.2,0,0,0-.13,0h0A.25.25,0,0,0,42.2,41.65Z"/><path class="cls-3" d="M42,41.53l.72.35a.68.68,0,0,1,.23-.45l-.58-.28s-.34.05-.39.34A.05.05,0,0,0,42,41.53Z"/><path class="cls-2" d="M42.66,41.05l.87.42a.22.22,0,0,0,.32-.2v-.21l-1-.46-.09-.05a.21.21,0,0,0-.3.15h0A.32.32,0,0,0,42.66,41.05Z"/><path class="cls-3" d="M42.52,41l.59.29a1,1,0,0,1,.2-.47l-.43-.2-.26-.13c-.09,0-.18.29-.14.46A.07.07,0,0,0,42.52,41Z"/><circle class="cls-2" cx="44.36" cy="42.14" r="1.18"/><circle class="cls-4" cx="41.45" cy="40.61" r="1.18"/><path class="cls-2" d="M40.61,39.49,39.52,39v.56l.9.44a.23.23,0,0,0,.14,0h0A.26.26,0,0,0,40.61,39.49Z"/><path class="cls-3" d="M40.85,39.61l-.71-.35a.73.73,0,0,1-.24.45l.58.28a.49.49,0,0,0,.4-.34S40.87,39.61,40.85,39.61Z"/><path class="cls-2" d="M40.23,40.1l-.87-.42a.22.22,0,0,0-.32.2v.21l1,.46.1.05a.22.22,0,0,0,.3-.15h0A.34.34,0,0,0,40.23,40.1Z"/><path class="cls-3" d="M40.37,40.17l-.59-.29a1,1,0,0,1-.2.47l.43.2.26.13c.1,0,.18-.29.14-.46A.07.07,0,0,0,40.37,40.17Z"/><circle class="cls-2" cx="38.48" cy="39.03" r="1.18"/></g><g class="cls-1"><path class="cls-2" d="M51.51,40.5,52.6,41v-.57L51.69,40a.17.17,0,0,0-.14,0h0A.26.26,0,0,0,51.51,40.5Z"/><path class="cls-3" d="M51.26,40.38l.71.34a.72.72,0,0,1,.24-.44L51.63,40s-.34,0-.39.34Z"/><path class="cls-2" d="M52,39.9l.87.42a.22.22,0,0,0,.32-.2v-.21l-1-.46-.1-.05a.21.21,0,0,0-.3.15h0A.34.34,0,0,0,52,39.9Z"/><path class="cls-3" d="M51.83,39.83l.59.28a1,1,0,0,1,.2-.46l-.43-.2-.26-.13c-.1,0-.18.28-.14.46A.07.07,0,0,0,51.83,39.83Z"/><circle class="cls-2" cx="53.67" cy="40.98" r="1.18"/><circle class="cls-4" cx="50.76" cy="39.46" r="1.18"/><path class="cls-2" d="M49.91,38.33l-1.08-.53v.57l.9.43a.17.17,0,0,0,.14,0h0A.26.26,0,0,0,49.91,38.33Z"/><path class="cls-3" d="M50.16,38.45l-.71-.34a.72.72,0,0,1-.24.44l.58.28s.34,0,.39-.34C50.19,38.48,50.18,38.46,50.16,38.45Z"/><path class="cls-2" d="M49.54,39l-.87-.43a.22.22,0,0,0-.32.2v.21l1,.47.09,0a.21.21,0,0,0,.3-.15h0A.3.3,0,0,0,49.54,39Z"/><path class="cls-3" d="M49.68,39l-.59-.28a1,1,0,0,1-.2.46l.43.21.26.12c.09,0,.18-.28.14-.46A.07.07,0,0,0,49.68,39Z"/><circle class="cls-2" cx="47.79" cy="37.87" r="1.18"/></g><g class="cls-5"><path class="cls-2" d="M51.72,34.62l1.09.53v-.57l-.91-.43a.17.17,0,0,0-.14,0h0A.26.26,0,0,0,51.72,34.62Z"/><path class="cls-3" d="M51.47,34.5l.71.34a.72.72,0,0,1,.24-.44l-.58-.28s-.34.05-.39.34A0,0,0,0,0,51.47,34.5Z"/><path class="cls-2" d="M52.18,34l.87.42a.23.23,0,0,0,.32-.2V34l-1-.46-.1,0a.21.21,0,0,0-.3.15h0A.33.33,0,0,0,52.18,34Z"/><path class="cls-3" d="M52,34l.58.28a1,1,0,0,1,.2-.46l-.42-.2-.27-.13c-.09,0-.17.28-.13.46A.07.07,0,0,0,52,34Z"/><circle class="cls-2" cx="53.87" cy="35.11" r="1.18"/><circle class="cls-4" cx="50.97" cy="33.58" r="1.18"/><path class="cls-2" d="M50.12,32.45,49,31.93v.56l.91.43a.14.14,0,0,0,.14,0h0A.26.26,0,0,0,50.12,32.45Z"/><path class="cls-3" d="M50.37,32.57l-.71-.34a.72.72,0,0,1-.24.44L50,33s.34,0,.39-.33A0,0,0,0,0,50.37,32.57Z"/><path class="cls-2" d="M49.75,33.07l-.87-.43a.22.22,0,0,0-.32.2v.21l1,.47.1,0a.2.2,0,0,0,.3-.14h0A.31.31,0,0,0,49.75,33.07Z"/><path class="cls-3" d="M49.89,33.13l-.59-.28a.91.91,0,0,1-.2.46l.42.21.27.13c.09,0,.17-.29.14-.46A.09.09,0,0,0,49.89,33.13Z"/><circle class="cls-2" cx="48" cy="32" r="1.18"/></g><g class="cls-5"><path class="cls-2" d="M51.59,28.92l1.09.53v-.56l-.91-.44a.22.22,0,0,0-.14,0h0A.25.25,0,0,0,51.59,28.92Z"/><path class="cls-3" d="M51.34,28.8l.71.35a.73.73,0,0,1,.24-.45l-.58-.28s-.34,0-.39.34C51.32,28.78,51.33,28.8,51.34,28.8Z"/><path class="cls-2" d="M52.05,28.32l.87.42a.22.22,0,0,0,.32-.2v-.21l-1-.46-.1-.05a.22.22,0,0,0-.3.15h0A.33.33,0,0,0,52.05,28.32Z"/><path class="cls-3" d="M51.91,28.25l.59.29a.91.91,0,0,1,.19-.47l-.42-.2L52,27.74c-.1,0-.18.29-.14.46S51.89,28.24,51.91,28.25Z"/><circle class="cls-2" cx="53.75" cy="29.41" r="1.18"/><circle class="cls-4" cx="50.84" cy="27.88" r="1.18"/><path class="cls-2" d="M50,26.76l-1.08-.53v.56l.9.44a.23.23,0,0,0,.14,0h0A.25.25,0,0,0,50,26.76Z"/><path class="cls-3" d="M50.24,26.88l-.71-.35a.73.73,0,0,1-.24.45l.58.28s.34-.05.39-.34C50.27,26.9,50.26,26.88,50.24,26.88Z"/><path class="cls-2" d="M49.62,27.37,48.75,27a.22.22,0,0,0-.32.2v.21l1,.46.09.05a.21.21,0,0,0,.3-.15h0A.32.32,0,0,0,49.62,27.37Z"/><path class="cls-3" d="M49.76,27.44l-.59-.29a1,1,0,0,1-.2.47l.43.2.26.13c.09,0,.17-.29.14-.46A.07.07,0,0,0,49.76,27.44Z"/><circle class="cls-2" cx="47.87" cy="26.3" r="1.18"/></g><g class="cls-6"><path class="cls-2" d="M51.64,23.56l1.09.52v-.56l-.91-.44a.17.17,0,0,0-.14,0h0A.26.26,0,0,0,51.64,23.56Z"/><path class="cls-3" d="M51.39,23.44l.72.34a.7.7,0,0,1,.23-.45l-.58-.27s-.34,0-.39.33A.08.08,0,0,0,51.39,23.44Z"/><path class="cls-2" d="M52.1,23l.87.43a.22.22,0,0,0,.32-.2V23l-1-.47-.09,0a.21.21,0,0,0-.3.15h0A.3.3,0,0,0,52.1,23Z"/><path class="cls-3" d="M52,22.89l.59.28a1,1,0,0,1,.2-.46l-.43-.21-.26-.12c-.09,0-.18.28-.14.46A.07.07,0,0,0,52,22.89Z"/><circle class="cls-2" cx="53.8" cy="24.04" r="1.18"/><circle class="cls-4" cx="50.89" cy="22.51" r="1.18"/><path class="cls-2" d="M50,21.39,49,20.86v.57l.9.43a.17.17,0,0,0,.14,0h0A.26.26,0,0,0,50,21.39Z"/><path class="cls-3" d="M50.29,21.51l-.71-.35a.73.73,0,0,1-.24.45l.58.28a.49.49,0,0,0,.4-.34A.05.05,0,0,0,50.29,21.51Z"/><path class="cls-2" d="M49.67,22l-.87-.42a.22.22,0,0,0-.32.2V22l1,.46.1.05a.21.21,0,0,0,.3-.15h0A.34.34,0,0,0,49.67,22Z"/><path class="cls-3" d="M49.81,22.07l-.59-.28a1,1,0,0,1-.2.46l.43.2.26.13c.1,0,.18-.28.14-.46A.07.07,0,0,0,49.81,22.07Z"/><circle class="cls-2" cx="47.92" cy="20.93" r="1.18"/></g><g class="cls-7"><path class="cls-2" d="M51.74,18l1.09.53V18l-.91-.43a.22.22,0,0,0-.14,0h0A.25.25,0,0,0,51.74,18Z"/><path class="cls-3" d="M51.49,17.9l.71.35a.73.73,0,0,1,.24-.45l-.58-.28s-.34.05-.39.34C51.46,17.88,51.47,17.89,51.49,17.9Z"/><path class="cls-2" d="M52.2,17.42l.87.42a.22.22,0,0,0,.32-.2v-.21l-1-.46-.1,0a.22.22,0,0,0-.3.15h0A.32.32,0,0,0,52.2,17.42Z"/><path class="cls-3" d="M52.06,17.35l.58.29a1,1,0,0,1,.2-.47l-.42-.2-.27-.13c-.09,0-.17.29-.14.46A.12.12,0,0,0,52.06,17.35Z"/><circle class="cls-2" cx="53.89" cy="18.51" r="1.18"/><circle class="cls-4" cx="50.99" cy="16.98" r="1.18"/><path class="cls-2" d="M50.14,15.86l-1.09-.53v.56l.91.44a.22.22,0,0,0,.14,0h0A.25.25,0,0,0,50.14,15.86Z"/><path class="cls-3" d="M50.39,16l-.71-.35a.73.73,0,0,1-.24.45l.58.28s.34-.05.39-.34C50.41,16,50.41,16,50.39,16Z"/><path class="cls-2" d="M49.77,16.47l-.87-.42a.22.22,0,0,0-.32.2v.21l1,.46.1,0a.21.21,0,0,0,.3-.15h0A.32.32,0,0,0,49.77,16.47Z"/><path class="cls-3" d="M49.91,16.54l-.59-.29a1,1,0,0,1-.2.47l.42.2.27.13c.09,0,.17-.29.14-.46A.1.1,0,0,0,49.91,16.54Z"/><circle class="cls-2" cx="48.02" cy="15.4" r="1.18"/></g><path class="cls-2" d="M51.69,12.54l1.09.53v-.56l-.91-.44a.22.22,0,0,0-.14,0h0A.25.25,0,0,0,51.69,12.54Z"/><path class="cls-3" d="M51.44,12.42l.71.35a.73.73,0,0,1,.24-.45L51.81,12s-.34.05-.39.34C51.42,12.4,51.43,12.42,51.44,12.42Z"/><path class="cls-2" d="M52.15,11.94l.87.42a.22.22,0,0,0,.32-.19V12l-1-.46-.1-.05a.22.22,0,0,0-.3.15h0A.33.33,0,0,0,52.15,11.94Z"/><path class="cls-3" d="M52,11.87l.59.29a.91.91,0,0,1,.19-.47l-.42-.2-.26-.13c-.1,0-.18.29-.14.46S52,11.86,52,11.87Z"/><circle class="cls-2" cx="53.85" cy="13.03" r="1.18"/><circle class="cls-4" cx="50.94" cy="11.5" r="1.18"/><path class="cls-2" d="M50.09,10.38,49,9.85v.56l.9.44a.23.23,0,0,0,.14,0h0A.25.25,0,0,0,50.09,10.38Z"/><path class="cls-3" d="M50.34,10.5l-.71-.35a.73.73,0,0,1-.24.45l.58.28s.34-.05.39-.34C50.37,10.52,50.36,10.51,50.34,10.5Z"/><path class="cls-2" d="M49.72,11l-.87-.42a.22.22,0,0,0-.32.2V11l1,.46.09.05a.21.21,0,0,0,.3-.15h0A.32.32,0,0,0,49.72,11Z"/><path class="cls-3" d="M49.86,11.06l-.59-.29a1,1,0,0,1-.2.47l.43.2.26.13c.09,0,.17-.29.14-.46A.07.07,0,0,0,49.86,11.06Z"/><circle class="cls-2" cx="47.97" cy="9.92" r="1.18"/><g class="cls-8"><path class="cls-2" d="M51.64,46.15l1.09.53v-.57l-.91-.43a.17.17,0,0,0-.14,0h0A.26.26,0,0,0,51.64,46.15Z"/><path class="cls-3" d="M51.39,46l.71.34a.72.72,0,0,1,.24-.44l-.58-.28s-.34.05-.39.34Z"/><path class="cls-2" d="M52.1,45.55,53,46a.22.22,0,0,0,.32-.2v-.21l-1-.46-.1-.05a.21.21,0,0,0-.3.15h0A.34.34,0,0,0,52.1,45.55Z"/><path class="cls-3" d="M52,45.48l.59.29a.91.91,0,0,1,.19-.47l-.42-.2L52.06,45c-.1,0-.18.28-.14.46A.07.07,0,0,0,52,45.48Z"/><circle class="cls-2" cx="53.8" cy="46.64" r="1.18"/><circle class="cls-4" cx="50.89" cy="45.11" r="1.18"/><path class="cls-2" d="M50,44,49,43.46V44l.9.43a.14.14,0,0,0,.14,0h0A.26.26,0,0,0,50,44Z"/><path class="cls-3" d="M50.29,44.1l-.71-.34a.72.72,0,0,1-.24.44l.58.28s.34,0,.39-.33A0,0,0,0,0,50.29,44.1Z"/><path class="cls-2" d="M49.67,44.6l-.87-.43a.22.22,0,0,0-.32.2v.21l1,.47.09.05a.21.21,0,0,0,.3-.15h0A.31.31,0,0,0,49.67,44.6Z"/><path class="cls-3" d="M49.81,44.66l-.59-.28a.91.91,0,0,1-.2.46l.43.21.26.13c.09,0,.17-.29.14-.46A.07.07,0,0,0,49.81,44.66Z"/><circle class="cls-2" cx="47.92" cy="43.53" r="1.18"/></g><g class="cls-1"><path class="cls-2" d="M32.78,31.76l1.09.53v-.57L33,31.29a.17.17,0,0,0-.14,0h0A.26.26,0,0,0,32.78,31.76Z"/><path class="cls-3" d="M32.53,31.64l.71.34a.72.72,0,0,1,.24-.44l-.58-.28s-.34,0-.39.34A0,0,0,0,0,32.53,31.64Z"/><path class="cls-2" d="M33.24,31.16l.87.42a.23.23,0,0,0,.32-.2v-.21l-1-.46-.1-.05a.21.21,0,0,0-.3.15h0A.33.33,0,0,0,33.24,31.16Z"/><path class="cls-3" d="M33.1,31.09l.58.28a1,1,0,0,1,.2-.46l-.42-.2-.27-.13c-.09,0-.17.28-.13.46A.07.07,0,0,0,33.1,31.09Z"/><circle class="cls-2" cx="34.93" cy="32.25" r="1.18"/><circle class="cls-4" cx="32.03" cy="30.72" r="1.18"/><path class="cls-2" d="M31.18,29.59l-1.08-.52v.56l.91.43a.14.14,0,0,0,.14,0h0A.26.26,0,0,0,31.18,29.59Z"/><path class="cls-3" d="M31.43,29.71l-.71-.34a.72.72,0,0,1-.24.44l.58.28s.34-.05.39-.34C31.46,29.74,31.45,29.72,31.43,29.71Z"/><path class="cls-2" d="M30.81,30.21l-.87-.43a.22.22,0,0,0-.32.2v.21l1,.47.1,0a.2.2,0,0,0,.3-.14h0A.31.31,0,0,0,30.81,30.21Z"/><path class="cls-3" d="M31,30.27,30.36,30a.91.91,0,0,1-.2.46l.42.21.27.13c.09,0,.17-.29.14-.47A.1.1,0,0,0,31,30.27Z"/><circle class="cls-2" cx="29.06" cy="29.14" r="1.18"/></g><g class="cls-5"><path class="cls-2" d="M33,25.88l1.08.53v-.57l-.9-.43a.23.23,0,0,0-.14,0h0A.25.25,0,0,0,33,25.88Z"/><path class="cls-3" d="M32.74,25.76l.71.35a.73.73,0,0,1,.24-.45l-.58-.28s-.34.05-.39.34C32.71,25.74,32.72,25.75,32.74,25.76Z"/><path class="cls-2" d="M33.44,25.28l.88.42a.22.22,0,0,0,.31-.2v-.21l-1-.46-.1,0a.21.21,0,0,0-.3.15h0A.32.32,0,0,0,33.44,25.28Z"/><path class="cls-3" d="M33.3,25.21l.59.29a1,1,0,0,1,.2-.47l-.42-.2-.27-.13c-.09,0-.17.29-.14.46A.1.1,0,0,0,33.3,25.21Z"/><circle class="cls-2" cx="35.14" cy="26.37" r="1.18"/><circle class="cls-4" cx="32.23" cy="24.84" r="1.18"/><path class="cls-2" d="M31.39,23.71l-1.09-.52v.56l.91.44a.22.22,0,0,0,.14,0h0A.26.26,0,0,0,31.39,23.71Z"/><path class="cls-3" d="M31.64,23.83l-.71-.34a.73.73,0,0,1-.24.45l.58.27s.34,0,.39-.33A.08.08,0,0,0,31.64,23.83Z"/><path class="cls-2" d="M31,24.33l-.88-.42a.21.21,0,0,0-.31.19v.22l1,.46.1,0a.22.22,0,0,0,.3-.15h0A.31.31,0,0,0,31,24.33Z"/><path class="cls-3" d="M31.16,24.4l-.59-.29a1,1,0,0,1-.2.47l.42.2.27.13c.09,0,.17-.29.14-.46A.07.07,0,0,0,31.16,24.4Z"/><circle class="cls-2" cx="29.27" cy="23.26" r="1.18"/></g><g class="cls-5"><path class="cls-2" d="M32.86,20.19l1.08.52v-.56L33,19.71a.22.22,0,0,0-.14,0h0A.26.26,0,0,0,32.86,20.19Z"/><path class="cls-3" d="M32.61,20.06l.71.35a.73.73,0,0,1,.24-.45L33,19.68s-.34.05-.39.34C32.58,20,32.59,20.06,32.61,20.06Z"/><path class="cls-2" d="M33.32,19.58l.87.43a.22.22,0,0,0,.31-.2V19.6l-1-.47-.1-.05a.22.22,0,0,0-.3.15h0A.3.3,0,0,0,33.32,19.58Z"/><path class="cls-3" d="M33.18,19.52l.58.28a.91.91,0,0,1,.2-.46l-.42-.21L33.27,19c-.09,0-.17.29-.14.46S33.15,19.51,33.18,19.52Z"/><circle class="cls-2" cx="35.01" cy="20.67" r="1.18"/><circle class="cls-4" cx="32.11" cy="19.14" r="1.18"/><path class="cls-2" d="M31.26,18l-1.09-.53v.57l.91.43a.22.22,0,0,0,.14,0h0A.25.25,0,0,0,31.26,18Z"/><path class="cls-3" d="M31.51,18.14l-.71-.35a.73.73,0,0,1-.24.45l.58.28s.34-.05.39-.34A.05.05,0,0,0,31.51,18.14Z"/><path class="cls-2" d="M30.89,18.63,30,18.21a.22.22,0,0,0-.32.2v.21l1,.46.1.05a.21.21,0,0,0,.3-.15h0A.32.32,0,0,0,30.89,18.63Z"/><path class="cls-3" d="M31,18.7l-.59-.29a1,1,0,0,1-.2.47l.42.2.27.13c.09,0,.17-.28.14-.46A.1.1,0,0,0,31,18.7Z"/><circle class="cls-2" cx="29.14" cy="17.56" r="1.18"/></g><g class="cls-6"><path class="cls-2" d="M32.91,14.82l1.09.52v-.56l-.91-.43a.17.17,0,0,0-.14,0h0A.26.26,0,0,0,32.91,14.82Z"/><path class="cls-3" d="M32.66,14.7l.71.34a.72.72,0,0,1,.24-.44L33,14.32s-.34,0-.39.34Z"/><path class="cls-2" d="M33.37,14.22l.87.42a.22.22,0,0,0,.32-.2v-.21l-1-.47-.1,0a.21.21,0,0,0-.3.15h0A.34.34,0,0,0,33.37,14.22Z"/><path class="cls-3" d="M33.23,14.15l.59.28A1,1,0,0,1,34,14l-.42-.21-.26-.12c-.1,0-.18.28-.14.46A.07.07,0,0,0,33.23,14.15Z"/><circle class="cls-2" cx="35.07" cy="15.3" r="1.18"/><circle class="cls-4" cx="32.16" cy="13.77" r="1.18"/><path class="cls-2" d="M31.31,12.65l-1.08-.53v.57l.9.43a.17.17,0,0,0,.14,0h0A.26.26,0,0,0,31.31,12.65Z"/><path class="cls-3" d="M31.56,12.77l-.71-.34a.72.72,0,0,1-.24.44l.58.28s.34-.05.39-.34C31.59,12.8,31.58,12.78,31.56,12.77Z"/><path class="cls-2" d="M30.94,13.26l-.87-.42a.22.22,0,0,0-.32.2v.21l1,.47.09,0a.21.21,0,0,0,.3-.15h0A.32.32,0,0,0,30.94,13.26Z"/><path class="cls-3" d="M31.08,13.33l-.59-.28a1,1,0,0,1-.2.46l.43.21.26.12c.09,0,.17-.28.14-.46A.07.07,0,0,0,31.08,13.33Z"/><circle class="cls-2" cx="29.19" cy="12.19" r="1.18"/></g><g class="cls-7"><path class="cls-2" d="M33,9.28l1.08.53V9.25l-.9-.44a.23.23,0,0,0-.14,0h0A.25.25,0,0,0,33,9.28Z"/><path class="cls-3" d="M32.76,9.16l.71.35a.73.73,0,0,1,.24-.45l-.58-.28s-.34.05-.39.34C32.73,9.14,32.74,9.16,32.76,9.16Z"/><path class="cls-2" d="M33.46,8.68l.87.42a.22.22,0,0,0,.32-.2V8.69l-1-.46-.1-.05a.22.22,0,0,0-.3.15h0A.32.32,0,0,0,33.46,8.68Z"/><path class="cls-3" d="M33.32,8.61l.59.29a1,1,0,0,1,.2-.47l-.42-.2-.27-.13c-.09,0-.17.29-.14.46A.07.07,0,0,0,33.32,8.61Z"/><circle class="cls-2" cx="35.16" cy="9.77" r="1.18"/><circle class="cls-4" cx="32.25" cy="8.24" r="1.18"/><path class="cls-2" d="M31.41,7.12l-1.09-.53v.56l.91.44a.22.22,0,0,0,.14,0h0A.25.25,0,0,0,31.41,7.12Z"/><path class="cls-3" d="M31.66,7.24,31,6.89a.73.73,0,0,1-.24.45l.58.28s.34,0,.39-.34C31.68,7.26,31.67,7.24,31.66,7.24Z"/><path class="cls-2" d="M31,7.73l-.88-.42a.22.22,0,0,0-.31.2v.21l1,.46.1.05a.21.21,0,0,0,.3-.15h0A.32.32,0,0,0,31,7.73Z"/><path class="cls-3" d="M31.18,7.8l-.59-.29a1,1,0,0,1-.2.47l.42.2.27.13c.09,0,.17-.29.14-.46A.1.1,0,0,0,31.18,7.8Z"/><circle class="cls-2" cx="29.29" cy="6.66" r="1.18"/></g><path class="cls-2" d="M33,3.81,34,4.33V3.77l-.91-.44a.22.22,0,0,0-.14,0h0A.26.26,0,0,0,33,3.81Z"/><path class="cls-3" d="M32.71,3.68l.71.35a.73.73,0,0,1,.24-.45l-.58-.28s-.34.05-.39.34C32.68,3.66,32.69,3.68,32.71,3.68Z"/><path class="cls-2" d="M33.42,3.2l.87.43a.22.22,0,0,0,.31-.2V3.22l-1-.47-.1,0a.21.21,0,0,0-.3.14h0A.3.3,0,0,0,33.42,3.2Z"/><path class="cls-3" d="M33.28,3.14l.58.28a.91.91,0,0,1,.2-.46l-.42-.21-.27-.13c-.09,0-.17.29-.14.47A.08.08,0,0,0,33.28,3.14Z"/><circle class="cls-2" cx="35.11" cy="4.29" r="1.18"/><circle class="cls-4" cx="32.21" cy="2.76" r="1.18"/><path class="cls-2" d="M31.36,1.64l-1.09-.53v.57l.91.43a.22.22,0,0,0,.14,0h0A.25.25,0,0,0,31.36,1.64Z"/><path class="cls-3" d="M31.61,1.76l-.71-.35a.73.73,0,0,1-.24.45l.58.28s.34-.05.39-.34A.05.05,0,0,0,31.61,1.76Z"/><path class="cls-2" d="M31,2.25l-.87-.42a.22.22,0,0,0-.32.2v.21l1,.46.1,0a.21.21,0,0,0,.3-.15h0A.32.32,0,0,0,31,2.25Z"/><path class="cls-3" d="M31.13,2.32,30.54,2a1,1,0,0,1-.2.46l.42.2.27.13c.09,0,.17-.28.14-.46A.1.1,0,0,0,31.13,2.32Z"/><circle class="cls-2" cx="29.24" cy="1.18" r="1.18"/><g class="cls-8"><path class="cls-2" d="M32.91,37.41l1.08.53v-.57l-.91-.43a.22.22,0,0,0-.14,0h0A.25.25,0,0,0,32.91,37.41Z"/><path class="cls-3" d="M32.66,37.29l.71.35a.73.73,0,0,1,.24-.45L33,36.91s-.34.05-.39.34C32.63,37.27,32.64,37.28,32.66,37.29Z"/><path class="cls-2" d="M33.37,36.81l.87.42a.22.22,0,0,0,.31-.2v-.21l-1-.46-.1,0a.21.21,0,0,0-.3.15h0A.32.32,0,0,0,33.37,36.81Z"/><path class="cls-3" d="M33.23,36.74l.58.29a1,1,0,0,1,.2-.47l-.42-.2-.27-.13c-.09,0-.17.29-.14.46A.08.08,0,0,0,33.23,36.74Z"/><circle class="cls-2" cx="35.06" cy="37.9" r="1.18"/><circle class="cls-4" cx="32.16" cy="36.37" r="1.18"/><path class="cls-2" d="M31.31,35.24l-1.09-.52v.56l.91.44a.22.22,0,0,0,.14,0h0A.26.26,0,0,0,31.31,35.24Z"/><path class="cls-3" d="M31.56,35.36,30.85,35a.73.73,0,0,1-.24.45l.58.27s.34,0,.39-.33A.08.08,0,0,0,31.56,35.36Z"/><path class="cls-2" d="M30.94,35.86l-.87-.42a.22.22,0,0,0-.32.19v.22l1,.46.1,0a.21.21,0,0,0,.3-.15h0A.31.31,0,0,0,30.94,35.86Z"/><path class="cls-3" d="M31.08,35.93l-.59-.29a1,1,0,0,1-.2.47l.42.2.27.13c.09,0,.17-.29.14-.46A.07.07,0,0,0,31.08,35.93Z"/><circle class="cls-2" cx="29.19" cy="34.79" r="1.18"/></g></g></g></svg>