<svg xmlns="http://www.w3.org/2000/svg" viewBox="0 0 36.65 43.32"><defs><style>.cls-1{opacity:0.3;}.cls-2{fill:#bd201f;}.cls-3{fill:#3c3c3c;}.cls-4{fill:#484848;}.cls-5{opacity:0.5;}.cls-6{opacity:0.7;}.cls-7{opacity:0.9;}.cls-8{opacity:0.2;}</style></defs><title>arrow_2</title><g id="Capa_2" data-name="Capa 2"><g id="Capa_1-2" data-name="Capa 1"><g class="cls-1"><path class="cls-2" d="M3.52,36l-1.09.52V36l.91-.43a.17.17,0,0,1,.14,0h0A.26.26,0,0,1,3.52,36Z"/><path class="cls-3" d="M3.77,35.88l-.71.34a.73.73,0,0,0-.24-.45l.58-.27s.34,0,.39.34C3.8,35.85,3.79,35.87,3.77,35.88Z"/><path class="cls-2" d="M3.07,35.39l-.88.42a.22.22,0,0,1-.31-.2V35.4l1-.46.09,0a.21.21,0,0,1,.3.15h0A.31.31,0,0,1,3.07,35.39Z"/><path class="cls-3" d="M3.21,35.33l-.59.28a1,1,0,0,0-.2-.47l.43-.2.26-.13c.09,0,.17.29.14.47A.1.1,0,0,1,3.21,35.33Z"/><circle class="cls-2" cx="1.36" cy="36.47" r="1.18"/><circle class="cls-4" cx="4.28" cy="34.96" r="1.18"/><path class="cls-2" d="M5.13,33.84l1.09-.53v.57l-.91.43a.23.23,0,0,1-.14,0h0A.25.25,0,0,1,5.13,33.84Z"/><path class="cls-3" d="M4.88,34l.71-.35a.73.73,0,0,0,.24.45l-.58.28s-.34-.05-.39-.34C4.85,34,4.86,34,4.88,34Z"/><path class="cls-2" d="M5.5,34.45,6.37,34a.22.22,0,0,1,.32.2v.22l-1,.45-.1.05a.21.21,0,0,1-.3-.15h0A.34.34,0,0,1,5.5,34.45Z"/><path class="cls-3" d="M5.36,34.52,6,34.24a1,1,0,0,0,.19.46l-.42.2L5.45,35c-.09,0-.17-.29-.13-.46A.07.07,0,0,1,5.36,34.52Z"/><circle class="cls-2" cx="7.25" cy="33.39" r="1.18"/></g><g class="cls-5"><path class="cls-2" d="M3.34,30.12l-1.09.52v-.56l.91-.44a.17.17,0,0,1,.14,0h0A.26.26,0,0,1,3.34,30.12Z"/><path class="cls-3" d="M3.59,30l-.72.34a.68.68,0,0,0-.23-.45l.58-.27s.34.05.39.34Z"/><path class="cls-2" d="M2.88,29.51,2,29.93a.22.22,0,0,1-.32-.2v-.21l1-.46.1,0a.21.21,0,0,1,.3.16h0A.31.31,0,0,1,2.88,29.51Z"/><path class="cls-3" d="M3,29.45l-.59.28a.91.91,0,0,0-.19-.47l.42-.2.27-.13c.09,0,.17.29.14.47A.12.12,0,0,1,3,29.45Z"/><circle class="cls-2" cx="1.18" cy="30.59" r="1.18"/><circle class="cls-4" cx="4.1" cy="29.08" r="1.18"/><path class="cls-2" d="M5,28,6,27.44V28l-.91.43a.2.2,0,0,1-.13,0H5A.25.25,0,0,1,5,28Z"/><path class="cls-3" d="M4.7,28.08l.71-.35a.73.73,0,0,0,.24.45l-.59.28a.48.48,0,0,1-.39-.34S4.68,28.08,4.7,28.08Z"/><path class="cls-2" d="M5.32,28.57l.87-.42a.22.22,0,0,1,.32.2v.22l-1,.45-.1.05a.21.21,0,0,1-.3-.15h0A.33.33,0,0,1,5.32,28.57Z"/><path class="cls-3" d="M5.18,28.64l.59-.28a.9.9,0,0,0,.19.46l-.42.2-.27.13c-.09,0-.17-.28-.14-.46A.12.12,0,0,1,5.18,28.64Z"/><circle class="cls-2" cx="7.07" cy="27.51" r="1.18"/></g><g class="cls-5"><path class="cls-2" d="M3.49,24.42l-1.09.52v-.56l.9-.43a.23.23,0,0,1,.14,0h0A.25.25,0,0,1,3.49,24.42Z"/><path class="cls-3" d="M3.74,24.3,3,24.64a.72.72,0,0,0-.24-.44l.58-.28s.34,0,.39.34C3.77,24.28,3.76,24.3,3.74,24.3Z"/><path class="cls-2" d="M3,23.82l-.88.42a.22.22,0,0,1-.31-.2v-.22l1-.45.09-.05a.21.21,0,0,1,.3.15h0A.32.32,0,0,1,3,23.82Z"/><path class="cls-3" d="M3.18,23.75,2.59,24a1,1,0,0,0-.2-.46l.43-.2.26-.13c.09,0,.17.29.14.46A.1.1,0,0,1,3.18,23.75Z"/><circle class="cls-2" cx="1.33" cy="24.9" r="1.18"/><circle class="cls-4" cx="4.25" cy="23.38" r="1.18"/><path class="cls-2" d="M5.1,22.26l1.09-.52v.56l-.91.43a.14.14,0,0,1-.14,0h0A.26.26,0,0,1,5.1,22.26Z"/><path class="cls-3" d="M4.85,22.38,5.56,22a.73.73,0,0,0,.24.45l-.58.27s-.34-.05-.39-.34C4.82,22.41,4.83,22.39,4.85,22.38Z"/><path class="cls-2" d="M5.47,22.88l.87-.42a.22.22,0,0,1,.32.2v.21l-1,.46-.1.05a.22.22,0,0,1-.3-.15h0A.33.33,0,0,1,5.47,22.88Z"/><path class="cls-3" d="M5.33,22.94l.59-.28a1,1,0,0,0,.2.47l-.43.2-.26.13c-.1,0-.18-.29-.14-.46A.07.07,0,0,1,5.33,22.94Z"/><circle class="cls-2" cx="7.22" cy="21.81" r="1.18"/></g><g class="cls-6"><path class="cls-2" d="M3.46,19.05l-1.09.53V19l.9-.43a.23.23,0,0,1,.14,0h0A.25.25,0,0,1,3.46,19.05Z"/><path class="cls-3" d="M3.71,18.94,3,19.28a.73.73,0,0,0-.24-.45l.58-.28s.34.05.39.34A0,0,0,0,1,3.71,18.94Z"/><path class="cls-2" d="M3,18.45l-.87.42a.22.22,0,0,1-.32-.2v-.21l1-.46L2.88,18a.21.21,0,0,1,.3.15h0A.32.32,0,0,1,3,18.45Z"/><path class="cls-3" d="M3.15,18.38l-.59.29a1,1,0,0,0-.2-.47l.43-.2.26-.13c.09,0,.17.29.14.46S3.17,18.37,3.15,18.38Z"/><circle class="cls-2" cx="1.31" cy="19.53" r="1.18"/><circle class="cls-4" cx="4.22" cy="18.01" r="1.18"/><path class="cls-2" d="M5.07,16.89l1.09-.52v.57l-.91.43a.22.22,0,0,1-.14,0h0A.26.26,0,0,1,5.07,16.89Z"/><path class="cls-3" d="M4.82,17l.71-.34a.73.73,0,0,0,.24.45l-.58.28s-.34,0-.39-.34A.08.08,0,0,1,4.82,17Z"/><path class="cls-2" d="M5.44,17.51l.87-.42a.22.22,0,0,1,.32.2v.21l-1,.46-.1.05a.21.21,0,0,1-.29-.15h0A.32.32,0,0,1,5.44,17.51Z"/><path class="cls-3" d="M5.3,17.58l.59-.29a1,1,0,0,0,.2.47l-.43.2-.26.13c-.1,0-.18-.29-.14-.46A.07.07,0,0,1,5.3,17.58Z"/><circle class="cls-2" cx="7.19" cy="16.45" r="1.18"/></g><g class="cls-7"><path class="cls-2" d="M3.39,13.52,2.3,14v-.56l.91-.43a.17.17,0,0,1,.14,0h0A.26.26,0,0,1,3.39,13.52Z"/><path class="cls-3" d="M3.64,13.4l-.71.34a.72.72,0,0,0-.24-.44L3.27,13s.34.05.39.34C3.67,13.38,3.66,13.39,3.64,13.4Z"/><path class="cls-2" d="M2.94,12.92l-.88.41a.21.21,0,0,1-.31-.2v-.21l1-.46.1,0a.21.21,0,0,1,.3.15h0A.32.32,0,0,1,2.94,12.92Z"/><path class="cls-3" d="M3.08,12.85l-.59.28a1,1,0,0,0-.2-.46l.42-.21L3,12.34c.09,0,.17.28.14.46A.1.1,0,0,1,3.08,12.85Z"/><circle class="cls-2" cx="1.23" cy="14" r="1.18"/><circle class="cls-4" cx="4.15" cy="12.48" r="1.18"/><path class="cls-2" d="M5,11.36l1.09-.52v.56l-.9.43a.17.17,0,0,1-.14,0H5A.26.26,0,0,1,5,11.36Z"/><path class="cls-3" d="M4.75,11.48l.71-.34a.75.75,0,0,0,.24.45l-.58.27s-.34,0-.39-.34C4.72,11.5,4.73,11.49,4.75,11.48Z"/><path class="cls-2" d="M5.37,12l.87-.42a.22.22,0,0,1,.32.2V12l-1,.46-.1,0a.21.21,0,0,1-.3-.15h0A.32.32,0,0,1,5.37,12Z"/><path class="cls-3" d="M5.23,12l.59-.28a1,1,0,0,0,.19.47l-.42.2-.27.12c-.09,0-.17-.28-.13-.46A.07.07,0,0,1,5.23,12Z"/><circle class="cls-2" cx="7.12" cy="10.91" r="1.18"/></g><path class="cls-2" d="M3.46,8l-1.09.52V8l.9-.43a.23.23,0,0,1,.14,0h0A.25.25,0,0,1,3.46,8Z"/><path class="cls-3" d="M3.71,7.92,3,8.26a.72.72,0,0,0-.24-.44l.58-.28s.34,0,.39.34C3.74,7.9,3.73,7.92,3.71,7.92Z"/><path class="cls-2" d="M3,7.44l-.87.42a.22.22,0,0,1-.32-.2V7.45l1-.46.09,0a.21.21,0,0,1,.3.15h0A.32.32,0,0,1,3,7.44Z"/><path class="cls-3" d="M3.15,7.37l-.59.28a1,1,0,0,0-.2-.46L2.79,7l.26-.13c.09,0,.17.29.14.46A.07.07,0,0,1,3.15,7.37Z"/><circle class="cls-2" cx="1.31" cy="8.52" r="1.18"/><circle class="cls-4" cx="4.22" cy="7" r="1.18"/><path class="cls-2" d="M5.07,5.88l1.09-.52v.56l-.91.43a.14.14,0,0,1-.14,0h0A.26.26,0,0,1,5.07,5.88Z"/><path class="cls-3" d="M4.82,6l.71-.34a.73.73,0,0,0,.24.45l-.58.27s-.34,0-.39-.34A.08.08,0,0,1,4.82,6Z"/><path class="cls-2" d="M5.44,6.5l.87-.42a.22.22,0,0,1,.32.2v.21L5.66,7l-.1,0a.21.21,0,0,1-.29-.15h0A.31.31,0,0,1,5.44,6.5Z"/><path class="cls-3" d="M5.3,6.56l.59-.28a1,1,0,0,0,.2.47L5.66,7l-.26.13c-.1,0-.18-.29-.14-.46A.07.07,0,0,1,5.3,6.56Z"/><circle class="cls-2" cx="7.19" cy="5.43" r="1.18"/><g class="cls-8"><path class="cls-2" d="M3.37,41.65l-1.09.52v-.56l.91-.43a.14.14,0,0,1,.14,0h0A.26.26,0,0,1,3.37,41.65Z"/><path class="cls-3" d="M3.62,41.53l-.72.34a.68.68,0,0,0-.23-.45l.58-.27s.34.05.39.34Z"/><path class="cls-2" d="M2.91,41,2,41.46a.22.22,0,0,1-.32-.2v-.21l1-.46.1-.05a.22.22,0,0,1,.3.16h0A.31.31,0,0,1,2.91,41Z"/><path class="cls-3" d="M3.05,41l-.59.28a.91.91,0,0,0-.19-.47l.42-.2L3,40.46c.09,0,.17.29.13.47A.07.07,0,0,1,3.05,41Z"/><circle class="cls-2" cx="1.21" cy="42.12" r="1.18"/><circle class="cls-4" cx="4.12" cy="40.61" r="1.18"/><path class="cls-2" d="M5,39.49,6.06,39v.56L5.15,40A.2.2,0,0,1,5,40H5A.25.25,0,0,1,5,39.49Z"/><path class="cls-3" d="M4.73,39.61l.71-.34a.66.66,0,0,0,.24.44L5.09,40s-.34-.05-.39-.34C4.7,39.63,4.71,39.61,4.73,39.61Z"/><path class="cls-2" d="M5.35,40.1l.87-.42a.23.23,0,0,1,.32.21v.21l-1,.46-.1,0a.21.21,0,0,1-.3-.15h0A.32.32,0,0,1,5.35,40.1Z"/><path class="cls-3" d="M5.2,40.17l.59-.28a1,1,0,0,0,.2.46l-.42.21-.27.12c-.09,0-.17-.28-.14-.46A.1.1,0,0,1,5.2,40.17Z"/><circle class="cls-2" cx="7.1" cy="39.04" r="1.18"/></g><g class="cls-1"><path class="cls-2" d="M12.83,31.8l-1.08.52v-.57l.91-.43a.2.2,0,0,1,.13,0h0A.26.26,0,0,1,12.83,31.8Z"/><path class="cls-3" d="M13.08,31.68l-.71.34a.73.73,0,0,0-.24-.45l.59-.28a.48.48,0,0,1,.39.34A.05.05,0,0,1,13.08,31.68Z"/><path class="cls-2" d="M12.38,31.19l-.87.42a.22.22,0,0,1-.32-.2V31.2l1-.46.1,0a.21.21,0,0,1,.29.15h0A.31.31,0,0,1,12.38,31.19Z"/><path class="cls-3" d="M12.52,31.12l-.59.29a1,1,0,0,0-.2-.47l.43-.2.26-.13c.1,0,.18.29.14.46S12.54,31.11,12.52,31.12Z"/><circle class="cls-2" cx="10.68" cy="32.27" r="1.18"/><circle class="cls-4" cx="13.59" cy="30.76" r="1.18"/><path class="cls-2" d="M14.44,29.64l1.09-.53v.57l-.91.43a.22.22,0,0,1-.14,0h0A.25.25,0,0,1,14.44,29.64Z"/><path class="cls-3" d="M14.19,29.75l.72-.34a.68.68,0,0,0,.23.45l-.58.28s-.34-.05-.39-.34A.08.08,0,0,1,14.19,29.75Z"/><path class="cls-2" d="M14.81,30.25l.87-.42A.22.22,0,0,1,16,30v.21l-1,.46-.09.05a.21.21,0,0,1-.3-.15h0A.32.32,0,0,1,14.81,30.25Z"/><path class="cls-3" d="M14.67,30.32l.59-.28a1,1,0,0,0,.2.46l-.43.2-.26.13c-.09,0-.17-.29-.14-.46A.07.07,0,0,1,14.67,30.32Z"/><circle class="cls-2" cx="16.56" cy="29.19" r="1.18"/></g><g class="cls-5"><path class="cls-2" d="M12.65,25.92l-1.09.52v-.57l.91-.43a.23.23,0,0,1,.14,0h0A.26.26,0,0,1,12.65,25.92Z"/><path class="cls-3" d="M12.9,25.8l-.71.34a.73.73,0,0,0-.24-.45l.58-.28a.47.47,0,0,1,.39.35S12.92,25.79,12.9,25.8Z"/><path class="cls-2" d="M12.2,25.31l-.88.42a.22.22,0,0,1-.31-.2v-.21l1-.46.09-.05a.21.21,0,0,1,.3.15h0A.31.31,0,0,1,12.2,25.31Z"/><path class="cls-3" d="M12.34,25.24l-.59.29a1,1,0,0,0-.2-.47l.43-.2.26-.13c.09,0,.17.29.14.46A.07.07,0,0,1,12.34,25.24Z"/><circle class="cls-2" cx="10.49" cy="26.39" r="1.18"/><circle class="cls-4" cx="13.41" cy="24.88" r="1.18"/><path class="cls-2" d="M14.26,23.76l1.09-.53v.57l-.91.43a.23.23,0,0,1-.14,0h0A.25.25,0,0,1,14.26,23.76Z"/><path class="cls-3" d="M14,23.88l.71-.35A.73.73,0,0,0,15,24l-.58.28s-.34-.05-.39-.34C14,23.9,14,23.88,14,23.88Z"/><path class="cls-2" d="M14.63,24.37,15.5,24a.22.22,0,0,1,.32.2v.21l-1,.46-.1.05a.21.21,0,0,1-.3-.15h0A.34.34,0,0,1,14.63,24.37Z"/><path class="cls-3" d="M14.49,24.44l.59-.28a1,1,0,0,0,.2.46l-.43.2-.26.13c-.1,0-.18-.29-.14-.46A.07.07,0,0,1,14.49,24.44Z"/><circle class="cls-2" cx="16.38" cy="23.31" r="1.18"/></g><g class="cls-5"><path class="cls-2" d="M12.81,20.22l-1.09.52v-.56l.91-.43a.15.15,0,0,1,.13,0h0A.26.26,0,0,1,12.81,20.22Z"/><path class="cls-3" d="M13.05,20.1l-.71.34A.72.72,0,0,0,12.1,20l.59-.28s.34.05.39.34C13.08,20.08,13.07,20.09,13.05,20.1Z"/><path class="cls-2" d="M12.35,19.62l-.87.42a.23.23,0,0,1-.32-.21v-.21l1-.46.1,0a.21.21,0,0,1,.3.15h0A.34.34,0,0,1,12.35,19.62Z"/><path class="cls-3" d="M12.49,19.55l-.59.28a1,1,0,0,0-.2-.46l.43-.21.26-.12c.1,0,.18.28.14.46A.07.07,0,0,1,12.49,19.55Z"/><circle class="cls-2" cx="10.65" cy="20.7" r="1.18"/><circle class="cls-4" cx="13.56" cy="19.18" r="1.18"/><path class="cls-2" d="M14.41,18.06l1.09-.52v.56l-.91.43a.17.17,0,0,1-.14,0h0A.26.26,0,0,1,14.41,18.06Z"/><path class="cls-3" d="M14.16,18.18l.72-.34a.7.7,0,0,0,.23.45l-.58.27s-.34,0-.39-.34A.05.05,0,0,1,14.16,18.18Z"/><path class="cls-2" d="M14.78,18.68l.88-.42a.22.22,0,0,1,.31.2v.21l-1,.46-.09,0a.21.21,0,0,1-.3-.15h0A.3.3,0,0,1,14.78,18.68Z"/><path class="cls-3" d="M14.64,18.74l.59-.28a1,1,0,0,0,.2.47l-.43.2-.26.13c-.09,0-.17-.29-.14-.47A.1.1,0,0,1,14.64,18.74Z"/><circle class="cls-2" cx="16.53" cy="17.61" r="1.18"/></g><g class="cls-6"><path class="cls-2" d="M12.78,14.85l-1.09.53v-.57l.91-.43a.22.22,0,0,1,.14,0h0A.25.25,0,0,1,12.78,14.85Z"/><path class="cls-3" d="M13,14.73l-.72.35a.67.67,0,0,0-.24-.45l.59-.28s.34.05.39.34C13.05,14.71,13,14.73,13,14.73Z"/><path class="cls-2" d="M12.32,14.25l-.87.42a.22.22,0,0,1-.32-.2v-.21l1-.46.1-.05a.22.22,0,0,1,.3.15h0A.34.34,0,0,1,12.32,14.25Z"/><path class="cls-3" d="M12.46,14.18l-.59.28a1,1,0,0,0-.19-.46l.42-.2.27-.13c.09,0,.17.29.13.46A.07.07,0,0,1,12.46,14.18Z"/><circle class="cls-2" cx="10.62" cy="15.33" r="1.18"/><circle class="cls-4" cx="13.53" cy="13.81" r="1.18"/><path class="cls-2" d="M14.38,12.69l1.09-.52v.57l-.91.43a.17.17,0,0,1-.14,0h0A.26.26,0,0,1,14.38,12.69Z"/><path class="cls-3" d="M14.13,12.81l.72-.34a.68.68,0,0,0,.23.45l-.58.27s-.34,0-.39-.34A.08.08,0,0,1,14.13,12.81Z"/><path class="cls-2" d="M14.75,13.31l.88-.42a.22.22,0,0,1,.31.2v.21l-1,.46-.1.05a.21.21,0,0,1-.3-.15h0A.31.31,0,0,1,14.75,13.31Z"/><path class="cls-3" d="M14.61,13.38l.59-.29a1,1,0,0,0,.2.47l-.42.2-.27.13c-.09,0-.17-.29-.14-.46A.07.07,0,0,1,14.61,13.38Z"/><circle class="cls-2" cx="16.51" cy="12.25" r="1.18"/></g><g class="cls-7"><path class="cls-2" d="M12.7,9.32l-1.08.52V9.28l.91-.43a.15.15,0,0,1,.13,0h0A.26.26,0,0,1,12.7,9.32Z"/><path class="cls-3" d="M13,9.2l-.71.34A.75.75,0,0,0,12,9.09l.59-.27a.48.48,0,0,1,.39.34A.05.05,0,0,1,13,9.2Z"/><path class="cls-2" d="M12.25,8.71l-.87.42a.22.22,0,0,1-.32-.2V8.72l1-.46.1,0a.2.2,0,0,1,.29.15h0A.3.3,0,0,1,12.25,8.71Z"/><path class="cls-3" d="M12.39,8.65l-.59.28a1,1,0,0,0-.2-.47l.43-.2.26-.12c.1,0,.18.28.14.46A.07.07,0,0,1,12.39,8.65Z"/><circle class="cls-2" cx="10.55" cy="9.8" r="1.18"/><circle class="cls-4" cx="13.46" cy="8.28" r="1.18"/><path class="cls-2" d="M14.31,7.16l1.09-.52V7.2l-.91.43a.22.22,0,0,1-.14,0h0A.25.25,0,0,1,14.31,7.16Z"/><path class="cls-3" d="M14.06,7.28l.72-.34a.67.67,0,0,0,.23.44l-.58.28s-.34,0-.39-.34A.05.05,0,0,1,14.06,7.28Z"/><path class="cls-2" d="M14.68,7.77l.87-.41a.22.22,0,0,1,.32.2v.21l-1,.46-.09,0a.21.21,0,0,1-.3-.15h0A.32.32,0,0,1,14.68,7.77Z"/><path class="cls-3" d="M14.54,7.84l.59-.28a1,1,0,0,0,.2.46l-.43.21-.26.12c-.09,0-.17-.28-.14-.46A.07.07,0,0,1,14.54,7.84Z"/><circle class="cls-2" cx="16.43" cy="6.71" r="1.18"/></g><path class="cls-2" d="M12.78,3.84l-1.09.52V3.8l.91-.43a.17.17,0,0,1,.14,0h0A.26.26,0,0,1,12.78,3.84Z"/><path class="cls-3" d="M13,3.72l-.72.34a.66.66,0,0,0-.24-.44l.59-.28s.34.05.39.34A.05.05,0,0,1,13,3.72Z"/><path class="cls-2" d="M12.32,3.24l-.87.42a.23.23,0,0,1-.32-.21V3.24l1-.46.1,0a.21.21,0,0,1,.3.15h0A.34.34,0,0,1,12.32,3.24Z"/><path class="cls-3" d="M12.46,3.17l-.59.28A1,1,0,0,0,11.68,3l.42-.21.27-.12c.09,0,.17.28.13.46A.07.07,0,0,1,12.46,3.17Z"/><circle class="cls-2" cx="10.62" cy="4.32" r="1.18"/><circle class="cls-4" cx="13.53" cy="2.8" r="1.18"/><path class="cls-2" d="M14.38,1.68l1.09-.52v.56l-.91.43a.17.17,0,0,1-.14,0h0A.26.26,0,0,1,14.38,1.68Z"/><path class="cls-3" d="M14.13,1.8l.72-.34a.7.7,0,0,0,.23.45l-.58.27s-.34-.05-.39-.34A.05.05,0,0,1,14.13,1.8Z"/><path class="cls-2" d="M14.75,2.3l.88-.42a.22.22,0,0,1,.31.2v.21l-1,.46-.1,0a.21.21,0,0,1-.3-.15h0A.3.3,0,0,1,14.75,2.3Z"/><path class="cls-3" d="M14.61,2.36l.59-.28a1,1,0,0,0,.2.47l-.42.2-.27.13c-.09,0-.17-.29-.14-.47A.1.1,0,0,1,14.61,2.36Z"/><circle class="cls-2" cx="16.51" cy="1.23" r="1.18"/><g class="cls-8"><path class="cls-2" d="M12.68,37.45,11.59,38V37.4L12.5,37a.17.17,0,0,1,.14,0h0A.26.26,0,0,1,12.68,37.45Z"/><path class="cls-3" d="M12.93,37.33l-.71.34a.73.73,0,0,0-.24-.45l.58-.27s.34,0,.39.34C13,37.3,13,37.32,12.93,37.33Z"/><path class="cls-2" d="M12.23,36.84l-.88.42a.22.22,0,0,1-.31-.2v-.21l1-.46.1,0a.21.21,0,0,1,.3.15h0A.31.31,0,0,1,12.23,36.84Z"/><path class="cls-3" d="M12.37,36.77l-.59.29a1,1,0,0,0-.2-.47l.42-.2.27-.13c.09,0,.17.29.14.46S12.39,36.77,12.37,36.77Z"/><circle class="cls-2" cx="10.52" cy="37.92" r="1.18"/><circle class="cls-4" cx="13.44" cy="36.41" r="1.18"/><path class="cls-2" d="M14.29,35.29l1.09-.53v.57l-.9.43a.23.23,0,0,1-.14,0h0A.25.25,0,0,1,14.29,35.29Z"/><path class="cls-3" d="M14,35.41l.71-.35a.73.73,0,0,0,.24.45l-.58.28s-.34,0-.39-.34C14,35.43,14,35.41,14,35.41Z"/><path class="cls-2" d="M14.66,35.9l.87-.42a.22.22,0,0,1,.32.2v.21l-1,.46-.1,0a.21.21,0,0,1-.3-.15h0A.34.34,0,0,1,14.66,35.9Z"/><path class="cls-3" d="M14.52,36l.59-.28a1,1,0,0,0,.19.46l-.42.2-.27.13c-.09,0-.17-.29-.13-.46A.07.07,0,0,1,14.52,36Z"/><circle class="cls-2" cx="16.41" cy="34.84" r="1.18"/></g><g class="cls-1"><path class="cls-2" d="M33.09,36l1.09.53V36l-.91-.43a.22.22,0,0,0-.14,0h0A.25.25,0,0,0,33.09,36Z"/><path class="cls-3" d="M32.84,35.88l.71.35a.73.73,0,0,1,.24-.45l-.58-.28s-.34,0-.39.34C32.82,35.86,32.82,35.87,32.84,35.88Z"/><path class="cls-2" d="M33.55,35.4l.87.42a.22.22,0,0,0,.32-.2v-.21l-1-.46-.1-.05a.21.21,0,0,0-.3.15h0A.32.32,0,0,0,33.55,35.4Z"/><path class="cls-3" d="M33.41,35.33l.58.29a1,1,0,0,1,.2-.47l-.42-.2-.27-.13c-.09,0-.17.29-.13.46A.07.07,0,0,0,33.41,35.33Z"/><circle class="cls-2" cx="35.24" cy="36.49" r="1.18"/><circle class="cls-4" cx="32.34" cy="34.96" r="1.18"/><path class="cls-2" d="M31.49,33.83l-1.09-.52v.56l.91.44a.22.22,0,0,0,.14,0h0A.26.26,0,0,0,31.49,33.83Z"/><path class="cls-3" d="M31.74,34,31,33.61a.73.73,0,0,1-.24.45l.58.28s.34-.05.39-.34C31.77,34,31.76,34,31.74,34Z"/><path class="cls-2" d="M31.12,34.45,30.25,34a.22.22,0,0,0-.32.2v.21l1,.46L31,35a.21.21,0,0,0,.3-.15h0A.32.32,0,0,0,31.12,34.45Z"/><path class="cls-3" d="M31.26,34.52l-.59-.29a1,1,0,0,1-.2.47l.42.2.27.13c.09,0,.17-.29.14-.46A.07.07,0,0,0,31.26,34.52Z"/><circle class="cls-2" cx="29.37" cy="33.38" r="1.18"/></g><g class="cls-5"><path class="cls-2" d="M33.3,30.12l1.08.53v-.56l-.9-.44a.23.23,0,0,0-.14,0h0A.25.25,0,0,0,33.3,30.12Z"/><path class="cls-3" d="M33.05,30l.71.35A.73.73,0,0,1,34,29.9l-.58-.28s-.34.05-.39.34C33,30,33,30,33.05,30Z"/><path class="cls-2" d="M33.75,29.52l.88.42a.22.22,0,0,0,.31-.2v-.21l-1-.46-.1-.05a.22.22,0,0,0-.3.15h0A.32.32,0,0,0,33.75,29.52Z"/><path class="cls-3" d="M33.61,29.45l.59.29a1,1,0,0,1,.2-.47l-.42-.2-.27-.13c-.09,0-.17.29-.14.46A.1.1,0,0,0,33.61,29.45Z"/><circle class="cls-2" cx="35.45" cy="30.61" r="1.18"/><circle class="cls-4" cx="32.54" cy="29.08" r="1.18"/><path class="cls-2" d="M31.7,28l-1.09-.53V28l.91.44a.22.22,0,0,0,.14,0h0A.25.25,0,0,0,31.7,28Z"/><path class="cls-3" d="M32,28.08l-.71-.35a.73.73,0,0,1-.24.45l.58.28s.34-.05.39-.34C32,28.1,32,28.08,32,28.08Z"/><path class="cls-2" d="M31.33,28.57l-.88-.42a.22.22,0,0,0-.31.2v.21l1,.46.1.05a.22.22,0,0,0,.3-.15h0A.32.32,0,0,0,31.33,28.57Z"/><path class="cls-3" d="M31.47,28.64l-.59-.29a1,1,0,0,1-.2.47l.42.2.27.13c.09,0,.17-.29.14-.46A.1.1,0,0,0,31.47,28.64Z"/><circle class="cls-2" cx="29.58" cy="27.5" r="1.18"/></g><g class="cls-5"><path class="cls-2" d="M33.17,24.43l1.08.52v-.56L33.35,24a.14.14,0,0,0-.14,0h0A.26.26,0,0,0,33.17,24.43Z"/><path class="cls-3" d="M32.92,24.31l.71.34a.75.75,0,0,1,.24-.45l-.58-.27s-.34,0-.39.33A0,0,0,0,0,32.92,24.31Z"/><path class="cls-2" d="M33.63,23.82l.87.43a.22.22,0,0,0,.31-.2v-.21l-1-.47-.1,0a.21.21,0,0,0-.3.15h0A.3.3,0,0,0,33.63,23.82Z"/><path class="cls-3" d="M33.49,23.76l.58.28a1,1,0,0,1,.2-.46l-.42-.21-.27-.12c-.09,0-.17.28-.14.46A.08.08,0,0,0,33.49,23.76Z"/><circle class="cls-2" cx="35.32" cy="24.91" r="1.18"/><circle class="cls-4" cx="32.42" cy="23.38" r="1.18"/><path class="cls-2" d="M31.57,22.26l-1.09-.53v.57l.91.43a.17.17,0,0,0,.14,0h0A.26.26,0,0,0,31.57,22.26Z"/><path class="cls-3" d="M31.82,22.38,31.11,22a.72.72,0,0,1-.24.44l.58.28s.34-.05.39-.34A.08.08,0,0,0,31.82,22.38Z"/><path class="cls-2" d="M31.2,22.87l-.87-.42a.22.22,0,0,0-.32.2v.21l1,.46.1.05a.21.21,0,0,0,.3-.15h0A.32.32,0,0,0,31.2,22.87Z"/><path class="cls-3" d="M31.34,22.94l-.59-.28a1,1,0,0,1-.2.46l.42.2.27.13c.09,0,.17-.28.14-.46A.1.1,0,0,0,31.34,22.94Z"/><circle class="cls-2" cx="29.45" cy="21.8" r="1.18"/></g><g class="cls-6"><path class="cls-2" d="M33.22,19.06l1.09.53V19l-.91-.43a.17.17,0,0,0-.14,0h0A.26.26,0,0,0,33.22,19.06Z"/><path class="cls-3" d="M33,18.94l.71.34a.72.72,0,0,1,.24-.44l-.58-.28s-.34.05-.39.34A.08.08,0,0,0,33,18.94Z"/><path class="cls-2" d="M33.68,18.46l.87.42a.22.22,0,0,0,.32-.2v-.21l-1-.46L33.8,18a.21.21,0,0,0-.3.15h0A.34.34,0,0,0,33.68,18.46Z"/><path class="cls-3" d="M33.54,18.39l.59.28a1,1,0,0,1,.19-.46L33.9,18l-.26-.13c-.1,0-.18.28-.14.46A.07.07,0,0,0,33.54,18.39Z"/><circle class="cls-2" cx="35.38" cy="19.55" r="1.18"/><circle class="cls-4" cx="32.47" cy="18.02" r="1.18"/><path class="cls-2" d="M31.62,16.89l-1.08-.52v.56l.9.43a.14.14,0,0,0,.14,0h0A.26.26,0,0,0,31.62,16.89Z"/><path class="cls-3" d="M31.87,17l-.71-.34a.72.72,0,0,1-.24.44l.58.28s.34-.05.39-.34C31.9,17,31.89,17,31.87,17Z"/><path class="cls-2" d="M31.25,17.51l-.87-.43a.22.22,0,0,0-.32.2v.21L31,18l.09,0a.2.2,0,0,0,.3-.14h0A.31.31,0,0,0,31.25,17.51Z"/><path class="cls-3" d="M31.39,17.57l-.59-.28a.91.91,0,0,1-.2.46L31,18l.26.13c.09,0,.17-.29.14-.47A.07.07,0,0,0,31.39,17.57Z"/><circle class="cls-2" cx="29.5" cy="16.44" r="1.18"/></g><g class="cls-7"><path class="cls-2" d="M33.32,13.53l1.08.52v-.56l-.9-.44a.23.23,0,0,0-.14,0h0A.26.26,0,0,0,33.32,13.53Z"/><path class="cls-3" d="M33.07,13.4l.71.35A.73.73,0,0,1,34,13.3L33.44,13s-.34.05-.39.34C33,13.38,33.05,13.4,33.07,13.4Z"/><path class="cls-2" d="M33.77,12.92l.87.43a.22.22,0,0,0,.32-.2v-.21l-1-.47-.1,0a.21.21,0,0,0-.3.14h0A.31.31,0,0,0,33.77,12.92Z"/><path class="cls-3" d="M33.63,12.86l.59.28a.91.91,0,0,1,.2-.46L34,12.47l-.27-.13c-.09,0-.17.29-.14.47A.1.1,0,0,0,33.63,12.86Z"/><circle class="cls-2" cx="35.47" cy="14.01" r="1.18"/><circle class="cls-4" cx="32.56" cy="12.48" r="1.18"/><path class="cls-2" d="M31.72,11.36l-1.09-.53v.57l.91.43a.22.22,0,0,0,.14,0h0A.25.25,0,0,0,31.72,11.36Z"/><path class="cls-3" d="M32,11.48l-.71-.35a.73.73,0,0,1-.24.45l.58.28s.34,0,.39-.34A.05.05,0,0,0,32,11.48Z"/><path class="cls-2" d="M31.35,12l-.88-.42a.22.22,0,0,0-.31.2V12l1,.46.1.05a.21.21,0,0,0,.3-.15h0A.32.32,0,0,0,31.35,12Z"/><path class="cls-3" d="M31.49,12l-.59-.28a1,1,0,0,1-.2.46l.42.2.27.13c.09,0,.17-.28.14-.46A.1.1,0,0,0,31.49,12Z"/><circle class="cls-2" cx="29.6" cy="10.9" r="1.18"/></g><path class="cls-2" d="M33.27,8.05l1.08.52V8l-.91-.43a.14.14,0,0,0-.14,0h0A.26.26,0,0,0,33.27,8.05Z"/><path class="cls-3" d="M33,7.93l.71.34A.72.72,0,0,1,34,7.83l-.58-.28s-.34,0-.39.34C33,7.9,33,7.92,33,7.93Z"/><path class="cls-2" d="M33.73,7.45l.87.42a.22.22,0,0,0,.31-.2V7.46L34,7l-.1,0a.21.21,0,0,0-.3.15h0A.32.32,0,0,0,33.73,7.45Z"/><path class="cls-3" d="M33.59,7.38l.58.28a1,1,0,0,1,.2-.46L34,7l-.27-.12c-.09,0-.17.28-.14.46A.08.08,0,0,0,33.59,7.38Z"/><circle class="cls-2" cx="35.42" cy="8.53" r="1.18"/><circle class="cls-4" cx="32.52" cy="7" r="1.18"/><path class="cls-2" d="M31.67,5.88l-1.09-.53v.57l.91.43a.17.17,0,0,0,.14,0h0A.26.26,0,0,0,31.67,5.88Z"/><path class="cls-3" d="M31.92,6l-.71-.34A.72.72,0,0,1,31,6.1l.58.28s.34,0,.39-.34Z"/><path class="cls-2" d="M31.3,6.49l-.87-.42a.22.22,0,0,0-.32.2v.21l1,.47.1,0a.21.21,0,0,0,.3-.15h0A.32.32,0,0,0,31.3,6.49Z"/><path class="cls-3" d="M31.44,6.56l-.59-.28a1,1,0,0,1-.2.46l.42.21.27.12c.09,0,.17-.28.14-.46A.1.1,0,0,0,31.44,6.56Z"/><circle class="cls-2" cx="29.55" cy="5.42" r="1.18"/><g class="cls-8"><path class="cls-2" d="M33.22,41.65l1.08.53v-.56l-.91-.44a.22.22,0,0,0-.14,0h0A.25.25,0,0,0,33.22,41.65Z"/><path class="cls-3" d="M33,41.53l.71.35a.73.73,0,0,1,.24-.45l-.58-.28s-.34.05-.39.34C32.94,41.51,33,41.52,33,41.53Z"/><path class="cls-2" d="M33.68,41.05l.87.42a.22.22,0,0,0,.31-.2v-.21l-1-.46-.1-.05a.22.22,0,0,0-.3.15h0A.31.31,0,0,0,33.68,41.05Z"/><path class="cls-3" d="M33.54,41l.58.29a1,1,0,0,1,.2-.47l-.42-.2-.27-.13c-.09,0-.17.29-.14.46A.08.08,0,0,0,33.54,41Z"/><circle class="cls-2" cx="35.37" cy="42.14" r="1.18"/><circle class="cls-4" cx="32.47" cy="40.61" r="1.18"/><path class="cls-2" d="M31.62,39.49,30.53,39v.56l.91.44a.22.22,0,0,0,.14,0h0A.25.25,0,0,0,31.62,39.49Z"/><path class="cls-3" d="M31.87,39.61l-.71-.35a.73.73,0,0,1-.24.45l.58.28s.34-.05.39-.34C31.89,39.63,31.88,39.61,31.87,39.61Z"/><path class="cls-2" d="M31.25,40.1l-.87-.42a.22.22,0,0,0-.32.2v.21l1,.46.1.05a.21.21,0,0,0,.3-.15h0A.32.32,0,0,0,31.25,40.1Z"/><path class="cls-3" d="M31.39,40.17l-.59-.29a1,1,0,0,1-.2.47l.42.2.27.13c.09,0,.17-.29.14-.46A.1.1,0,0,0,31.39,40.17Z"/><circle class="cls-2" cx="29.5" cy="39.03" r="1.18"/></g><g class="cls-1"><path class="cls-2" d="M23.79,31.76l1.09.53v-.57L24,31.29a.15.15,0,0,0-.13,0h0A.26.26,0,0,0,23.79,31.76Z"/><path class="cls-3" d="M23.55,31.64l.71.34a.66.66,0,0,1,.24-.44l-.59-.28a.48.48,0,0,0-.39.34A.05.05,0,0,0,23.55,31.64Z"/><path class="cls-2" d="M24.25,31.16l.87.42a.22.22,0,0,0,.32-.2v-.21l-1-.46-.09-.05a.21.21,0,0,0-.3.15h0A.32.32,0,0,0,24.25,31.16Z"/><path class="cls-3" d="M24.11,31.09l.59.28a1,1,0,0,1,.2-.46l-.43-.2-.26-.13c-.09,0-.17.28-.14.46A.07.07,0,0,0,24.11,31.09Z"/><circle class="cls-2" cx="25.95" cy="32.25" r="1.18"/><circle class="cls-4" cx="23.04" cy="30.72" r="1.18"/><path class="cls-2" d="M22.2,29.59l-1.09-.52v.56l.91.43a.12.12,0,0,0,.13,0h0A.26.26,0,0,0,22.2,29.59Z"/><path class="cls-3" d="M22.45,29.71l-.72-.34a.66.66,0,0,1-.24.44l.59.28a.48.48,0,0,0,.39-.34A.08.08,0,0,0,22.45,29.71Z"/><path class="cls-2" d="M21.82,30.21,21,29.78a.23.23,0,0,0-.32.2v.21l1,.47.1,0a.21.21,0,0,0,.3-.14h0A.32.32,0,0,0,21.82,30.21Z"/><path class="cls-3" d="M22,30.27,21.38,30a.91.91,0,0,1-.2.46l.42.21.26.13c.1,0,.18-.29.14-.47A.07.07,0,0,0,22,30.27Z"/><circle class="cls-2" cx="20.08" cy="29.14" r="1.18"/></g><g class="cls-5"><path class="cls-2" d="M24,25.88l1.09.53v-.57l-.91-.43a.22.22,0,0,0-.14,0h0A.25.25,0,0,0,24,25.88Z"/><path class="cls-3" d="M23.75,25.76l.72.35a.68.68,0,0,1,.23-.45l-.58-.28s-.34.05-.39.34A.05.05,0,0,0,23.75,25.76Z"/><path class="cls-2" d="M24.46,25.28l.87.42a.22.22,0,0,0,.32-.2v-.21l-1-.46-.09,0a.21.21,0,0,0-.3.15h0A.32.32,0,0,0,24.46,25.28Z"/><path class="cls-3" d="M24.32,25.21l.59.29a1,1,0,0,1,.2-.47l-.43-.2-.26-.13c-.09,0-.18.29-.14.46A.07.07,0,0,0,24.32,25.21Z"/><circle class="cls-2" cx="26.16" cy="26.37" r="1.18"/><circle class="cls-4" cx="23.25" cy="24.84" r="1.18"/><path class="cls-2" d="M22.4,23.71l-1.08-.52v.56l.9.44a.23.23,0,0,0,.14,0h0A.26.26,0,0,0,22.4,23.71Z"/><path class="cls-3" d="M22.65,23.83l-.71-.34a.73.73,0,0,1-.24.45l.58.27s.34,0,.4-.33A.05.05,0,0,0,22.65,23.83Z"/><path class="cls-2" d="M22,24.33l-.87-.42a.22.22,0,0,0-.32.19v.22l1,.46.1,0a.22.22,0,0,0,.3-.15h0A.33.33,0,0,0,22,24.33Z"/><path class="cls-3" d="M22.17,24.4l-.59-.29a1,1,0,0,1-.2.47l.43.2.26.13c.1,0,.18-.29.14-.46S22.19,24.41,22.17,24.4Z"/><circle class="cls-2" cx="20.28" cy="23.26" r="1.18"/></g><g class="cls-5"><path class="cls-2" d="M23.87,20.19l1.09.52v-.56l-.91-.44a.2.2,0,0,0-.13,0h0A.26.26,0,0,0,23.87,20.19Z"/><path class="cls-3" d="M23.62,20.06l.72.35a.67.67,0,0,1,.24-.45L24,19.68a.48.48,0,0,0-.39.34S23.61,20.06,23.62,20.06Z"/><path class="cls-2" d="M24.33,19.58l.87.43a.22.22,0,0,0,.32-.2V19.6l-1-.47-.09-.05a.21.21,0,0,0-.3.15h0A.31.31,0,0,0,24.33,19.58Z"/><path class="cls-3" d="M24.19,19.52l.59.28a.91.91,0,0,1,.2-.46l-.43-.21L24.29,19c-.09,0-.17.29-.14.46A.07.07,0,0,0,24.19,19.52Z"/><circle class="cls-2" cx="26.03" cy="20.67" r="1.18"/><circle class="cls-4" cx="23.12" cy="19.14" r="1.18"/><path class="cls-2" d="M22.28,18l-1.09-.53v.57l.91.43a.2.2,0,0,0,.13,0h0A.26.26,0,0,0,22.28,18Z"/><path class="cls-3" d="M22.52,18.14l-.71-.35a.67.67,0,0,1-.24.45l.58.28a.49.49,0,0,0,.4-.34S22.54,18.15,22.52,18.14Z"/><path class="cls-2" d="M21.9,18.63,21,18.21a.22.22,0,0,0-.32.2v.21l1,.46.1.05a.21.21,0,0,0,.3-.15h0A.34.34,0,0,0,21.9,18.63Z"/><path class="cls-3" d="M22,18.7l-.59-.29a1,1,0,0,1-.19.47l.42.2.26.13c.1,0,.18-.28.14-.46A.07.07,0,0,0,22,18.7Z"/><circle class="cls-2" cx="20.16" cy="17.56" r="1.18"/></g><g class="cls-6"><path class="cls-2" d="M23.93,14.82l1.08.52v-.56l-.9-.43a.17.17,0,0,0-.14,0h0A.26.26,0,0,0,23.93,14.82Z"/><path class="cls-3" d="M23.68,14.7l.71.34a.72.72,0,0,1,.24-.44l-.58-.28a.49.49,0,0,0-.4.34A.05.05,0,0,0,23.68,14.7Z"/><path class="cls-2" d="M24.38,14.22l.87.42a.22.22,0,0,0,.32-.2v-.21l-1-.47-.1,0a.21.21,0,0,0-.3.15h0A.32.32,0,0,0,24.38,14.22Z"/><path class="cls-3" d="M24.24,14.15l.59.28A1,1,0,0,1,25,14l-.42-.21-.27-.12c-.09,0-.17.28-.14.46A.1.1,0,0,0,24.24,14.15Z"/><circle class="cls-2" cx="26.08" cy="15.3" r="1.18"/><circle class="cls-4" cx="23.17" cy="13.77" r="1.18"/><path class="cls-2" d="M22.33,12.65l-1.09-.53v.57l.91.43a.17.17,0,0,0,.14,0h0A.26.26,0,0,0,22.33,12.65Z"/><path class="cls-3" d="M22.58,12.77l-.72-.34a.67.67,0,0,1-.23.44l.58.28s.34-.05.39-.34Z"/><path class="cls-2" d="M22,13.26l-.87-.42a.22.22,0,0,0-.31.2v.21l1,.47.1,0a.21.21,0,0,0,.3-.15h0A.33.33,0,0,0,22,13.26Z"/><path class="cls-3" d="M22.09,13.33l-.58-.28a1,1,0,0,1-.2.46l.42.21.27.12c.09,0,.17-.28.14-.46A.08.08,0,0,0,22.09,13.33Z"/><circle class="cls-2" cx="20.21" cy="12.19" r="1.18"/></g><g class="cls-7"><path class="cls-2" d="M24,9.28l1.09.53V9.25l-.91-.44a.22.22,0,0,0-.14,0h0A.25.25,0,0,0,24,9.28Z"/><path class="cls-3" d="M23.77,9.16l.72.35a.68.68,0,0,1,.23-.45l-.58-.28s-.34.05-.39.34C23.75,9.14,23.76,9.16,23.77,9.16Z"/><path class="cls-2" d="M24.48,8.68l.87.42a.22.22,0,0,0,.32-.2V8.69l-1-.46-.1-.05a.21.21,0,0,0-.29.15h0A.32.32,0,0,0,24.48,8.68Z"/><path class="cls-3" d="M24.34,8.61l.59.29a1,1,0,0,1,.2-.47l-.43-.2-.26-.13c-.09,0-.18.29-.14.46S24.32,8.6,24.34,8.61Z"/><circle class="cls-2" cx="26.18" cy="9.77" r="1.18"/><circle class="cls-4" cx="23.27" cy="8.24" r="1.18"/><path class="cls-2" d="M22.42,7.12l-1.08-.53v.56l.9.44a.23.23,0,0,0,.14,0h0A.25.25,0,0,0,22.42,7.12Z"/><path class="cls-3" d="M22.67,7.24,22,6.89a.73.73,0,0,1-.24.45l.58.28s.34,0,.39-.34C22.7,7.26,22.69,7.24,22.67,7.24Z"/><path class="cls-2" d="M22.05,7.73l-.87-.42a.22.22,0,0,0-.32.2v.21l1,.46.1.05a.2.2,0,0,0,.29-.15h0A.32.32,0,0,0,22.05,7.73Z"/><path class="cls-3" d="M22.19,7.8l-.59-.29a1,1,0,0,1-.2.47l.43.2.26.13c.09,0,.18-.29.14-.46A.07.07,0,0,0,22.19,7.8Z"/><circle class="cls-2" cx="20.3" cy="6.66" r="1.18"/></g><path class="cls-2" d="M24,3.81l1.09.52V3.77l-.91-.44a.2.2,0,0,0-.13,0h0A.26.26,0,0,0,24,3.81Z"/><path class="cls-3" d="M23.72,3.68l.72.35a.67.67,0,0,1,.24-.45l-.59-.28s-.34.05-.39.34C23.7,3.66,23.71,3.68,23.72,3.68Z"/><path class="cls-2" d="M24.43,3.2l.87.43a.22.22,0,0,0,.32-.2V3.22l-1-.47-.09,0a.2.2,0,0,0-.3.14h0A.31.31,0,0,0,24.43,3.2Z"/><path class="cls-3" d="M24.29,3.14l.59.28a.91.91,0,0,1,.2-.46l-.43-.21-.26-.13c-.09,0-.17.29-.14.47A.07.07,0,0,0,24.29,3.14Z"/><circle class="cls-2" cx="26.13" cy="4.29" r="1.18"/><circle class="cls-4" cx="23.22" cy="2.76" r="1.18"/><path class="cls-2" d="M22.38,1.64l-1.09-.53v.57l.9.43a.23.23,0,0,0,.14,0h0A.26.26,0,0,0,22.38,1.64Z"/><path class="cls-3" d="M22.62,1.76l-.71-.35a.67.67,0,0,1-.24.45l.58.28a.49.49,0,0,0,.4-.34S22.64,1.77,22.62,1.76Z"/><path class="cls-2" d="M22,2.25l-.87-.42a.22.22,0,0,0-.32.2v.21l1,.46.1,0a.21.21,0,0,0,.3-.15h0A.34.34,0,0,0,22,2.25Z"/><path class="cls-3" d="M22.14,2.32,21.55,2a1,1,0,0,1-.19.46l.42.2.26.13c.1,0,.18-.28.14-.46A.07.07,0,0,0,22.14,2.32Z"/><circle class="cls-2" cx="20.26" cy="1.18" r="1.18"/><g class="cls-8"><path class="cls-2" d="M23.92,37.41l1.09.53v-.57l-.91-.43a.2.2,0,0,0-.13,0h0A.25.25,0,0,0,23.92,37.41Z"/><path class="cls-3" d="M23.67,37.29l.72.35a.67.67,0,0,1,.24-.45L24,36.91a.48.48,0,0,0-.39.34A.05.05,0,0,0,23.67,37.29Z"/><path class="cls-2" d="M24.38,36.81l.87.42a.22.22,0,0,0,.32-.2v-.21l-1-.46-.09,0a.21.21,0,0,0-.3.15h0A.32.32,0,0,0,24.38,36.81Z"/><path class="cls-3" d="M24.24,36.74l.59.29a1,1,0,0,1,.2-.47l-.43-.2-.26-.13c-.09,0-.17.29-.14.46A.07.07,0,0,0,24.24,36.74Z"/><circle class="cls-2" cx="26.08" cy="37.9" r="1.18"/><circle class="cls-4" cx="23.17" cy="36.37" r="1.18"/><path class="cls-2" d="M22.33,35.24l-1.09-.52v.56l.91.44a.2.2,0,0,0,.13,0h0A.26.26,0,0,0,22.33,35.24Z"/><path class="cls-3" d="M22.57,35.36,21.86,35a.67.67,0,0,1-.24.45l.58.27s.34,0,.4-.33A.05.05,0,0,0,22.57,35.36Z"/><path class="cls-2" d="M22,35.86l-.87-.42a.22.22,0,0,0-.32.19v.22l1,.46.1,0a.22.22,0,0,0,.3-.15h0A.33.33,0,0,0,22,35.86Z"/><path class="cls-3" d="M22.09,35.93l-.59-.29a1,1,0,0,1-.19.47l.42.2.26.13c.1,0,.18-.29.14-.46S22.11,35.94,22.09,35.93Z"/><circle class="cls-2" cx="20.21" cy="34.79" r="1.18"/></g></g></g></svg>