<svg viewBox="0 0 55.08 47.82" xmlns="http://www.w3.org/2000/svg"><g opacity=".3"><path d="m12.51 36-1.09.52v-.52l.91-.43a.17.17 0 0 1 .14 0 .26.26 0 0 1 .04.43z" fill="#bd201f"/><path d="m12.76 35.88-.72.34a.67.67 0 0 0 -.24-.45l.59-.27s.34 0 .39.34z" fill="#3c3c3c"/><path d="m12.05 35.39-.87.42a.22.22 0 0 1 -.32-.2v-.21l1-.46h.1a.22.22 0 0 1 .3.15.33.33 0 0 1 -.21.3z" fill="#bd201f"/><path d="m12.19 35.33-.59.28a1 1 0 0 0 -.19-.47l.42-.2.27-.13c.09 0 .17.29.13.47a.07.07 0 0 1 -.04.05z" fill="#3c3c3c"/><circle cx="10.35" cy="36.47" fill="#bd201f" r="1.18"/><circle cx="13.26" cy="34.96" fill="#484848" r="1.18"/><path d="m14.11 33.84 1.09-.53v.57l-.91.43a.22.22 0 0 1 -.14 0 .25.25 0 0 1 -.04-.47z" fill="#bd201f"/><path d="m13.86 34 .72-.35a.68.68 0 0 0 .23.45l-.58.28s-.34-.05-.39-.34c0-.04.01-.04.02-.04z" fill="#3c3c3c"/><path d="m14.48 34.45.88-.42a.22.22 0 0 1 .31.2v.22l-1 .45-.09.05a.21.21 0 0 1 -.3-.15.32.32 0 0 1 .2-.35z" fill="#bd201f"/><path d="m14.34 34.52.59-.28a1 1 0 0 0 .2.46l-.43.2-.26.13c-.09 0-.17-.29-.14-.46a.1.1 0 0 1 .04-.05z" fill="#3c3c3c"/><circle cx="16.24" cy="33.39" fill="#bd201f" r="1.18"/></g><g opacity=".5"><path d="m12.32 30.12-1.09.52v-.56l.9-.44a.17.17 0 0 1 .14 0 .26.26 0 0 1 .05.48z" fill="#bd201f"/><path d="m12.57 30-.71.34a.73.73 0 0 0 -.24-.45l.58-.27s.34.05.39.34c.01.04 0 .04-.02.04z" fill="#3c3c3c"/><path d="m11.87 29.51-.87.42a.22.22 0 0 1 -.32-.2v-.21l1-.46h.1a.21.21 0 0 1 .29.16.3.3 0 0 1 -.2.29z" fill="#bd201f"/><path d="m12 29.45-.59.28a1 1 0 0 0 -.2-.47l.43-.2.26-.13c.09 0 .18.29.14.47a.07.07 0 0 1 -.04.05z" fill="#3c3c3c"/><circle cx="10.17" cy="30.59" fill="#bd201f" r="1.18"/><circle cx="13.08" cy="29.08" fill="#484848" r="1.18"/><path d="m13.93 28 1.07-.56v.56l-.91.43a.22.22 0 0 1 -.14 0 .25.25 0 0 1 -.02-.43z" fill="#bd201f"/><path d="m13.68 28.08.71-.35a.73.73 0 0 0 .24.45l-.58.28s-.34-.05-.39-.34c0-.02.01-.04.02-.04z" fill="#3c3c3c"/><path d="m14.3 28.57.87-.42a.22.22 0 0 1 .32.2v.22l-1 .45-.1.05a.2.2 0 0 1 -.29-.15.32.32 0 0 1 .2-.35z" fill="#bd201f"/><path d="m14.16 28.64.59-.28a1 1 0 0 0 .2.46l-.43.2-.26.13c-.1 0-.18-.28-.14-.46a.07.07 0 0 1 .04-.05z" fill="#3c3c3c"/><circle cx="16.05" cy="27.51" fill="#bd201f" r="1.18"/></g><g opacity=".5"><path d="m12.48 24.42-1.09.52v-.56l.91-.38a.22.22 0 0 1 .14 0 .25.25 0 0 1 .04.42z" fill="#bd201f"/><path d="m12.73 24.3-.72.34a.67.67 0 0 0 -.23-.44l.58-.28s.34 0 .39.34c0 .02-.01.04-.02.04z" fill="#3c3c3c"/><path d="m12 23.82-.87.42a.22.22 0 0 1 -.32-.2v-.22l1-.45.1-.05a.21.21 0 0 1 .3.15.34.34 0 0 1 -.21.35z" fill="#bd201f"/><path d="m12.16 23.75-.59.28a1 1 0 0 0 -.19-.46l.42-.2.27-.13c.09 0 .17.29.13.46a.07.07 0 0 1 -.04.05z" fill="#3c3c3c"/><circle cx="10.32" cy="24.9" fill="#bd201f" r="1.18"/><circle cx="13.23" cy="23.38" fill="#484848" r="1.18"/><path d="m14.08 22.26 1.09-.52v.56l-.91.43a.14.14 0 0 1 -.14 0 .26.26 0 0 1 -.04-.47z" fill="#bd201f"/><path d="m13.83 22.38.72-.34a.67.67 0 0 0 .24.45l-.59.27s-.34-.05-.39-.34a.08.08 0 0 1 .02-.04z" fill="#3c3c3c"/><path d="m14.45 22.88.88-.42a.22.22 0 0 1 .31.2v.21l-1 .46-.1.05a.21.21 0 0 1 -.3-.15.31.31 0 0 1 .21-.35z" fill="#bd201f"/><path d="m14.31 22.94.59-.28a1 1 0 0 0 .2.47l-.42.2-.27.13c-.09 0-.17-.29-.14-.46a.09.09 0 0 1 .04-.06z" fill="#3c3c3c"/><circle cx="16.21" cy="21.81" fill="#bd201f" r="1.18"/></g><g opacity=".7"><path d="m12.45 19.05-1.09.53v-.58l.91-.43a.22.22 0 0 1 .14 0 .25.25 0 0 1 .04.48z" fill="#bd201f"/><path d="m12.7 18.94-.72.34a.68.68 0 0 0 -.23-.45l.58-.28s.34.05.39.34a.08.08 0 0 1 -.02.05z" fill="#3c3c3c"/><path d="m12 18.45-.87.42a.22.22 0 0 1 -.32-.2v-.21l1-.46.1-.05a.22.22 0 0 1 .3.15.32.32 0 0 1 -.21.35z" fill="#bd201f"/><path d="m12.13 18.38-.59.29a.91.91 0 0 0 -.19-.47l.42-.2.27-.13c.09 0 .17.29.13.46s-.02.04-.04.05z" fill="#3c3c3c"/><circle cx="10.29" cy="19.53" fill="#bd201f" r="1.18"/><circle cx="13.21" cy="18.01" fill="#484848" r="1.18"/><path d="m14.06 16.89 1.08-.52v.57l-.91.43a.2.2 0 0 1 -.13 0 .26.26 0 0 1 -.04-.48z" fill="#bd201f"/><path d="m13.81 17 .71-.34a.73.73 0 0 0 .24.45l-.59.28s-.34 0-.39-.34a.05.05 0 0 1 .03-.05z" fill="#3c3c3c"/><path d="m14.43 17.51.87-.42a.22.22 0 0 1 .32.2v.21l-1 .46-.1.05a.21.21 0 0 1 -.3-.15.31.31 0 0 1 .21-.35z" fill="#bd201f"/><path d="m14.29 17.58.58-.29a1 1 0 0 0 .2.47l-.42.2-.27.13c-.09 0-.17-.29-.14-.46a.08.08 0 0 1 .05-.05z" fill="#3c3c3c"/><circle cx="16.18" cy="16.45" fill="#bd201f" r="1.18"/></g><g opacity=".9"><path d="m12.38 13.52-1.09.48v-.56l.91-.43a.17.17 0 0 1 .14 0 .26.26 0 0 1 .04.51z" fill="#bd201f"/><path d="m12.63 13.4-.72.34a.66.66 0 0 0 -.24-.44l.59-.28s.34.05.39.34a.05.05 0 0 1 -.02.04z" fill="#3c3c3c"/><path d="m11.92 12.92-.87.41a.22.22 0 0 1 -.32-.2v-.21l1-.46h.1a.21.21 0 0 1 .3.15.34.34 0 0 1 -.21.31z" fill="#bd201f"/><path d="m12.06 12.85-.59.28a1 1 0 0 0 -.19-.46l.42-.21.26-.12c.1 0 .18.28.14.46a.07.07 0 0 1 -.04.05z" fill="#3c3c3c"/><circle cx="10.22" cy="14" fill="#bd201f" r="1.18"/><circle cx="13.13" cy="12.48" fill="#484848" r="1.18"/><path d="m14 11.36 1.09-.52v.56l-.91.43a.17.17 0 0 1 -.14 0 .26.26 0 0 1 -.04-.47z" fill="#bd201f"/><path d="m13.73 11.48.72-.34a.7.7 0 0 0 .23.45l-.58.27s-.34 0-.39-.34a.05.05 0 0 1 .02-.04z" fill="#3c3c3c"/><path d="m14.35 12 .88-.42a.22.22 0 0 1 .31.2v.22l-1 .46h-.09a.21.21 0 0 1 -.3-.15.3.3 0 0 1 .2-.31z" fill="#bd201f"/><path d="m14.21 12 .59-.28a1 1 0 0 0 .2.47l-.43.2-.26.12c-.09 0-.17-.28-.14-.46a.1.1 0 0 1 .04-.05z" fill="#3c3c3c"/><circle cx="16.11" cy="10.91" fill="#bd201f" r="1.18"/></g><path d="m12.45 8-1.09.52v-.52l.91-.43a.22.22 0 0 1 .14 0 .25.25 0 0 1 .04.43z" fill="#bd201f"/><path d="m12.7 7.92-.7.34a.67.67 0 0 0 -.23-.44l.58-.28s.34 0 .39.34c-.02.02-.03.04-.04.04z" fill="#3c3c3c"/><path d="m12 7.44-.87.42a.22.22 0 0 1 -.32-.2v-.21l1-.46h.1a.21.21 0 0 1 .3.15.32.32 0 0 1 -.21.3z" fill="#bd201f"/><path d="m12.13 7.37-.59.28a.9.9 0 0 0 -.19-.46l.42-.2.23-.13c.09 0 .17.29.13.46a.07.07 0 0 1 0 .05z" fill="#3c3c3c"/><circle cx="10.29" cy="8.52" fill="#bd201f" r="1.18"/><circle cx="13.21" cy="7" fill="#484848" r="1.18"/><path d="m14.06 5.88 1.08-.52v.56l-.91.43a.12.12 0 0 1 -.13 0 .26.26 0 0 1 -.04-.47z" fill="#bd201f"/><path d="m13.81 6 .71-.34a.73.73 0 0 0 .24.45l-.59.27s-.34 0-.39-.34a.05.05 0 0 1 .03-.04z" fill="#3c3c3c"/><path d="m14.43 6.5.87-.42a.22.22 0 0 1 .32.2v.21l-1 .46h-.1a.21.21 0 0 1 -.3-.15.3.3 0 0 1 .21-.3z" fill="#bd201f"/><path d="m14.29 6.56.58-.28a1 1 0 0 0 .2.47l-.42.2-.27.13c-.09 0-.17-.29-.14-.46s.02-.05.05-.06z" fill="#3c3c3c"/><circle cx="16.18" cy="5.43" fill="#bd201f" r="1.18"/><g opacity=".2"><path d="m12.35 41.65-1.09.52v-.56l.9-.43a.14.14 0 0 1 .14 0 .26.26 0 0 1 .05.47z" fill="#bd201f"/><path d="m12.6 41.53-.71.34a.73.73 0 0 0 -.24-.45l.58-.27s.34.05.39.34c.01.01 0 .03-.02.04z" fill="#3c3c3c"/><path d="m11.9 41-.88.42a.22.22 0 0 1 -.31-.2v-.21l1-.46.09-.05a.22.22 0 0 1 .3.16.3.3 0 0 1 -.2.34z" fill="#bd201f"/><path d="m12 41-.59.28a1 1 0 0 0 -.2-.47l.43-.2.26-.13c.09 0 .17.29.14.47a.1.1 0 0 1 -.04.05z" fill="#3c3c3c"/><circle cx="10.2" cy="42.12" fill="#bd201f" r="1.18"/><circle cx="13.11" cy="40.61" fill="#484848" r="1.18"/><path d="m14 39.49 1.05-.49v.56l-.91.43a.23.23 0 0 1 -.14.01.25.25 0 0 1 0-.51z" fill="#bd201f"/><path d="m13.71 39.61.71-.34a.72.72 0 0 0 .24.44l-.58.28s-.34-.05-.39-.34c-.01-.02 0-.04.02-.04z" fill="#3c3c3c"/><path d="m14.33 40.1.87-.42a.23.23 0 0 1 .32.21v.21l-1 .46h-.1a.21.21 0 0 1 -.3-.15.34.34 0 0 1 .21-.31z" fill="#bd201f"/><path d="m14.19 40.17.59-.28a1 1 0 0 0 .2.46l-.43.21-.26.12c-.1 0-.18-.28-.14-.46a.07.07 0 0 1 .04-.05z" fill="#3c3c3c"/><circle cx="16.08" cy="39.04" fill="#bd201f" r="1.18"/></g><g opacity=".3"><path d="m3.52 40.45-1.09.55v-.6l.91-.4a.23.23 0 0 1 .14 0 .26.26 0 0 1 .04.45z" fill="#bd201f"/><path d="m3.77 40.33-.71.34a.73.73 0 0 0 -.24-.45l.58-.22a.45.45 0 0 1 .39.34s0-.02-.02-.01z" fill="#3c3c3c"/><path d="m3.07 39.84-.88.42a.22.22 0 0 1 -.31-.2v-.21l1-.46h.09a.21.21 0 0 1 .3.15.31.31 0 0 1 -.2.3z" fill="#bd201f"/><path d="m3.21 39.77-.59.29a1 1 0 0 0 -.2-.47l.43-.2.26-.13c.09 0 .17.29.14.46a.07.07 0 0 1 -.04.05z" fill="#3c3c3c"/><circle cx="1.36" cy="40.92" fill="#bd201f" r="1.18"/><circle cx="4.28" cy="39.41" fill="#484848" r="1.18"/><path d="m5.13 38.29 1.09-.53v.57l-.91.43a.23.23 0 0 1 -.14 0 .25.25 0 0 1 -.04-.47z" fill="#bd201f"/><path d="m4.88 38.41.71-.35a.73.73 0 0 0 .24.45l-.58.28s-.34 0-.39-.34c-.01-.02 0-.04.02-.04z" fill="#3c3c3c"/><path d="m5.5 38.9.87-.42a.22.22 0 0 1 .32.2v.21l-1 .46h-.1a.21.21 0 0 1 -.3-.15.34.34 0 0 1 .21-.3z" fill="#bd201f"/><path d="m5.36 39 .64-.31a1 1 0 0 0 .19.46l-.42.2-.27.13c-.09 0-.17-.29-.13-.46a.07.07 0 0 1 -.01-.02z" fill="#3c3c3c"/><circle cx="7.25" cy="37.84" fill="#bd201f" r="1.18"/></g><g opacity=".5"><path d="m3.34 34.57-1.09.52v-.57l.91-.43a.17.17 0 0 1 .14 0 .26.26 0 0 1 .04.48z" fill="#bd201f"/><path d="m3.59 34.45-.72.34a.68.68 0 0 0 -.23-.45l.58-.27s.34 0 .39.34a.08.08 0 0 1 -.02.04z" fill="#3c3c3c"/><path d="m2.88 34-.88.38a.22.22 0 0 1 -.32-.2v-.18l1-.46h.1a.21.21 0 0 1 .3.15.32.32 0 0 1 -.2.31z" fill="#bd201f"/><path d="m3 33.9-.59.28a.91.91 0 0 0 -.19-.47l.42-.2.27-.13c.09 0 .17.29.14.46a.1.1 0 0 1 -.05.06z" fill="#3c3c3c"/><circle cx="1.18" cy="35.04" fill="#bd201f" r="1.18"/><circle cx="4.1" cy="33.53" fill="#484848" r="1.18"/><path d="m5 32.41 1-.53v.57l-.91.43a.2.2 0 0 1 -.13 0h.04a.25.25 0 0 1 0-.47z" fill="#bd201f"/><path d="m4.7 32.53.71-.35a.73.73 0 0 0 .24.45l-.59.28a.48.48 0 0 1 -.39-.34s.01-.04.03-.04z" fill="#3c3c3c"/><path d="m5.32 33 .87-.42a.22.22 0 0 1 .32.2v.22l-1 .45-.1.05a.21.21 0 0 1 -.3-.15.32.32 0 0 1 .21-.35z" fill="#bd201f"/><path d="m5.18 33.09.59-.28a.9.9 0 0 0 .19.46l-.42.2-.27.13c-.09 0-.17-.29-.14-.46a.12.12 0 0 1 .05-.05z" fill="#3c3c3c"/><circle cx="7.07" cy="31.96" fill="#bd201f" r="1.18"/></g><g opacity=".5"><path d="m3.49 28.87-1.09.52v-.56l.9-.43a.23.23 0 0 1 .14 0 .25.25 0 0 1 .05.47z" fill="#bd201f"/><path d="m3.74 28.75-.74.34a.72.72 0 0 0 -.24-.44l.58-.28s.34.05.39.34c.04.02.03.03.01.04z" fill="#3c3c3c"/><path d="m3 28.27-.88.42a.22.22 0 0 1 -.31-.2v-.22l1-.45.09-.05a.21.21 0 0 1 .3.15.32.32 0 0 1 -.2.35z" fill="#bd201f"/><path d="m3.18 28.2-.59.28a1 1 0 0 0 -.2-.46l.43-.2.26-.13c.09 0 .17.28.14.46a.1.1 0 0 1 -.04.05z" fill="#3c3c3c"/><circle cx="1.33" cy="29.35" fill="#bd201f" r="1.18"/><circle cx="4.25" cy="27.83" fill="#484848" r="1.18"/><path d="m5.1 26.71 1.09-.52v.56l-.91.43a.17.17 0 0 1 -.14 0 .26.26 0 0 1 -.04-.47z" fill="#bd201f"/><path d="m4.85 26.83.71-.34a.75.75 0 0 0 .24.45l-.58.27s-.34-.05-.39-.34c-.01-.01 0-.03.02-.04z" fill="#3c3c3c"/><path d="m5.47 27.33.87-.42a.22.22 0 0 1 .32.2v.21l-1 .46h-.1a.22.22 0 0 1 -.3-.16.32.32 0 0 1 .21-.29z" fill="#bd201f"/><path d="m5.33 27.39.59-.28a1 1 0 0 0 .2.47l-.43.2-.26.13c-.1 0-.18-.29-.14-.47a.07.07 0 0 1 .04-.05z" fill="#3c3c3c"/><circle cx="7.22" cy="26.26" fill="#bd201f" r="1.18"/></g><g opacity=".7"><path d="m3.46 23.5-1.09.5v-.57l.9-.43a.23.23 0 0 1 .14 0 .25.25 0 0 1 .05.5z" fill="#bd201f"/><path d="m3.71 23.38-.71.35a.73.73 0 0 0 -.24-.45l.58-.28s.34.05.39.34c.01.02 0 .04-.02.04z" fill="#3c3c3c"/><path d="m3 22.9-.87.42a.22.22 0 0 1 -.32-.2v-.21l1-.46.09-.05a.21.21 0 0 1 .3.15.32.32 0 0 1 -.2.35z" fill="#bd201f"/><path d="m3.15 22.83-.59.29a1 1 0 0 0 -.2-.47l.43-.2.26-.13c.09 0 .17.29.14.46a.07.07 0 0 1 -.04.05z" fill="#3c3c3c"/><circle cx="1.31" cy="23.98" fill="#bd201f" r="1.18"/><circle cx="4.22" cy="22.46" fill="#484848" r="1.18"/><path d="m5.07 21.34 1.09-.52v.57l-.91.43a.22.22 0 0 1 -.14 0 .26.26 0 0 1 -.04-.48z" fill="#bd201f"/><path d="m4.82 21.46.71-.34a.73.73 0 0 0 .24.45l-.58.27a.45.45 0 0 1 -.39-.34.08.08 0 0 1 .02-.04z" fill="#3c3c3c"/><path d="m5.44 22 .87-.42a.22.22 0 0 1 .32.2v.22l-1 .46-.1.05a.21.21 0 0 1 -.29-.15.32.32 0 0 1 .2-.36z" fill="#bd201f"/><path d="m5.3 22 .59-.29a1 1 0 0 0 .2.47l-.43.2-.26.13c-.1 0-.18-.29-.14-.46s.02-.05.04-.05z" fill="#3c3c3c"/><circle cx="7.19" cy="20.9" fill="#bd201f" r="1.18"/></g><g opacity=".9"><path d="m3.39 18-1.09.52v-.56l.91-.43a.17.17 0 0 1 .14 0 .26.26 0 0 1 .04.47z" fill="#bd201f"/><path d="m3.64 17.85-.71.34a.75.75 0 0 0 -.24-.45l.58-.27s.34.05.39.34c.01.02 0 .03-.02.04z" fill="#3c3c3c"/><path d="m2.94 17.37-.88.41a.22.22 0 0 1 -.31-.2v-.21l1-.46h.1a.21.21 0 0 1 .3.15.32.32 0 0 1 -.21.31z" fill="#bd201f"/><path d="m3.08 17.3-.59.28a1 1 0 0 0 -.2-.47l.42-.2.29-.12c.09 0 .17.28.14.46a.1.1 0 0 1 -.06.05z" fill="#3c3c3c"/><circle cx="1.23" cy="18.45" fill="#bd201f" r="1.18"/><circle cx="4.15" cy="16.93" fill="#484848" r="1.18"/><path d="m5 15.81 1.09-.52v.56l-.9.43a.17.17 0 0 1 -.14 0h-.05a.26.26 0 0 1 0-.47z" fill="#bd201f"/><path d="m4.75 15.93.71-.34a.72.72 0 0 0 .24.41l-.58.28s-.34 0-.39-.34c-.01.06 0 0 .02-.01z" fill="#3c3c3c"/><path d="m5.37 16.42.87-.42a.22.22 0 0 1 .32.2v.21l-1 .46h-.1a.21.21 0 0 1 -.3-.15.34.34 0 0 1 .21-.3z" fill="#bd201f"/><path d="m5.23 16.49.59-.28a1 1 0 0 0 .19.47l-.42.2-.27.12c-.09 0-.17-.28-.13-.46a.07.07 0 0 1 .04-.05z" fill="#3c3c3c"/><circle cx="7.12" cy="15.36" fill="#bd201f" r="1.18"/></g><path d="m3.46 12.49-1.09.51v-.56l.9-.43a.23.23 0 0 1 .14 0 .25.25 0 0 1 .05.48z" fill="#bd201f"/><path d="m3.71 12.37-.71.34a.72.72 0 0 0 -.24-.44l.58-.27s.34 0 .39.34c.01.01 0 .02-.02.03z" fill="#3c3c3c"/><path d="m3 11.89-.87.42a.22.22 0 0 1 -.32-.2v-.22l1-.45h.09a.21.21 0 0 1 .3.15.32.32 0 0 1 -.2.3z" fill="#bd201f"/><path d="m3.15 11.82-.59.28a1 1 0 0 0 -.2-.46l.43-.2.26-.13c.09 0 .17.28.14.46a.07.07 0 0 1 -.04.05z" fill="#3c3c3c"/><circle cx="1.31" cy="12.97" fill="#bd201f" r="1.18"/><circle cx="4.22" cy="11.45" fill="#484848" r="1.18"/><path d="m5.07 10.33 1.09-.52v.56l-.91.43a.17.17 0 0 1 -.14 0 .26.26 0 0 1 -.04-.47z" fill="#bd201f"/><path d="m4.82 10.45.71-.34a.75.75 0 0 0 .24.45l-.58.27s-.34-.05-.39-.34z" fill="#3c3c3c"/><path d="m5.44 11 .87-.42a.22.22 0 0 1 .32.2v.21l-1 .46h-.1a.21.21 0 0 1 -.29-.16.3.3 0 0 1 .2-.29z" fill="#bd201f"/><path d="m5.3 11 .59-.28a1 1 0 0 0 .2.47l-.43.2-.26.13c-.1 0-.18-.29-.14-.47a.07.07 0 0 1 .04-.05z" fill="#3c3c3c"/><circle cx="7.19" cy="9.88" fill="#bd201f" r="1.18"/><g opacity=".2"><path d="m3.37 46.1-1.09.52v-.57l.91-.43a.17.17 0 0 1 .14 0 .26.26 0 0 1 .04.48z" fill="#bd201f"/><path d="m3.62 46-.72.34a.68.68 0 0 0 -.23-.45l.58-.27s.34 0 .39.34a.08.08 0 0 1 -.02.04z" fill="#3c3c3c"/><path d="m2.91 45.49-.91.42a.22.22 0 0 1 -.32-.2v-.21l1-.46h.1a.22.22 0 0 1 .3.15.32.32 0 0 1 -.17.3z" fill="#bd201f"/><path d="m3.05 45.43-.59.28a.91.91 0 0 0 -.19-.47l.42-.2.31-.13c.09 0 .17.29.13.47a.07.07 0 0 1 -.08.05z" fill="#3c3c3c"/><circle cx="1.21" cy="46.57" fill="#bd201f" r="1.18"/><circle cx="4.12" cy="45.06" fill="#484848" r="1.18"/><path d="m5 43.94 1.09-.53v.59l-.91.43a.2.2 0 0 1 -.13 0h-.05a.25.25 0 0 1 0-.49z" fill="#bd201f"/><path d="m4.73 44.06.71-.35a.67.67 0 0 0 .24.45l-.59.28s-.34 0-.39-.34c0-.02.01-.04.03-.04z" fill="#3c3c3c"/><path d="m5.35 44.55.87-.42a.22.22 0 0 1 .32.2v.22l-1 .45h-.1a.21.21 0 0 1 -.3-.15.31.31 0 0 1 .21-.3z" fill="#bd201f"/><path d="m5.2 44.62.59-.28a1 1 0 0 0 .2.46l-.42.2-.27.13c-.09 0-.17-.29-.14-.46a.1.1 0 0 1 .04-.05z" fill="#3c3c3c"/><circle cx="7.1" cy="43.49" fill="#bd201f" r="1.18"/></g><g opacity=".3"><path d="m21.82 31.8-1.09.52v-.57l.91-.43a.22.22 0 0 1 .14 0 .26.26 0 0 1 .04.48z" fill="#bd201f"/><path d="m22.07 31.68-.72.34a.68.68 0 0 0 -.23-.45l.58-.28s.34.05.39.34a.08.08 0 0 1 -.02.05z" fill="#3c3c3c"/><path d="m21.36 31.19-.87.42a.22.22 0 0 1 -.32-.2v-.21l1-.46h.1a.21.21 0 0 1 .3.15.32.32 0 0 1 -.21.3z" fill="#bd201f"/><path d="m21.5 31.12-.58.29a1 1 0 0 0 -.2-.47l.42-.2.27-.13c.09 0 .17.29.14.46a.06.06 0 0 1 -.05.05z" fill="#3c3c3c"/><circle cx="19.66" cy="32.27" fill="#bd201f" r="1.18"/><circle cx="22.58" cy="30.76" fill="#484848" r="1.18"/><path d="m23.43 29.64 1.08-.53v.57l-.91.43a.2.2 0 0 1 -.13 0 .25.25 0 0 1 -.04-.47z" fill="#bd201f"/><path d="m23.18 29.75.71-.34a.73.73 0 0 0 .24.45l-.59.28a.48.48 0 0 1 -.39-.34.05.05 0 0 1 .03-.05z" fill="#3c3c3c"/><path d="m23.8 30.25.87-.42a.22.22 0 0 1 .33.17v.21l-1 .46-.1.05a.21.21 0 0 1 -.3-.15.32.32 0 0 1 .2-.32z" fill="#bd201f"/><path d="m23.66 30.32.59-.28a.9.9 0 0 0 .19.46l-.42.2-.27.13c-.09 0-.17-.29-.14-.46a.12.12 0 0 1 .05-.05z" fill="#3c3c3c"/><circle cx="25.55" cy="29.19" fill="#bd201f" r="1.18"/></g><g opacity=".5"><path d="m21.64 25.92-1.09.52v-.57l.91-.43a.22.22 0 0 1 .14 0 .26.26 0 0 1 .04.48z" fill="#bd201f"/><path d="m21.89 25.8-.72.34a.68.68 0 0 0 -.23-.45l.58-.28a.47.47 0 0 1 .39.35z" fill="#3c3c3c"/><path d="m21.18 25.31-.87.42a.22.22 0 0 1 -.32-.2v-.21l1-.46.1-.05a.22.22 0 0 1 .3.15.33.33 0 0 1 -.21.35z" fill="#bd201f"/><path d="m21.32 25.24-.59.29a1 1 0 0 0 -.19-.47l.42-.2.27-.13c.09 0 .17.29.13.46s-.02.04-.04.05z" fill="#3c3c3c"/><circle cx="19.48" cy="26.39" fill="#bd201f" r="1.18"/><circle cx="22.39" cy="24.88" fill="#484848" r="1.18"/><path d="m23.24 23.76 1.09-.53v.57l-.91.43a.22.22 0 0 1 -.14 0 .25.25 0 0 1 -.04-.47z" fill="#bd201f"/><path d="m23 23.88.72-.35a.68.68 0 0 0 .23.45l-.58.28s-.34-.05-.39-.34c.02-.02.02-.04.02-.04z" fill="#3c3c3c"/><path d="m23.61 24.37.88-.42a.22.22 0 0 1 .31.2v.21l-1 .46-.1.05a.21.21 0 0 1 -.3-.15.32.32 0 0 1 .21-.35z" fill="#bd201f"/><path d="m23.47 24.44.59-.28a1 1 0 0 0 .2.46l-.42.2-.27.13c-.09 0-.17-.29-.14-.46a.1.1 0 0 1 .04-.05z" fill="#3c3c3c"/><circle cx="25.37" cy="23.31" fill="#bd201f" r="1.18"/></g><g opacity=".5"><path d="m21.79 20.22-1.09.52v-.56l.91-.43a.17.17 0 0 1 .14 0 .26.26 0 0 1 .04.47z" fill="#bd201f"/><path d="m22 20.1-.71.34a.72.72 0 0 0 -.24-.44l.58-.28s.34.05.39.34a.05.05 0 0 1 -.02.04z" fill="#3c3c3c"/><path d="m21.34 19.62-.88.42a.23.23 0 0 1 -.32-.21v-.21l1-.46h.1a.21.21 0 0 1 .3.15.32.32 0 0 1 -.2.31z" fill="#bd201f"/><path d="m21.48 19.55-.59.28a1 1 0 0 0 -.2-.46l.42-.21.27-.12c.09 0 .17.28.14.46a.1.1 0 0 1 -.04.05z" fill="#3c3c3c"/><circle cx="19.63" cy="20.7" fill="#bd201f" r="1.18"/><circle cx="22.55" cy="19.18" fill="#484848" r="1.18"/><path d="m23.4 18.06 1.09-.52v.56l-.9.43a.17.17 0 0 1 -.14 0 .26.26 0 0 1 -.05-.47z" fill="#bd201f"/><path d="m23.15 18.18.71-.34a.75.75 0 0 0 .24.45l-.58.27s-.34 0-.39-.34c-.01-.02 0-.03.02-.04z" fill="#3c3c3c"/><path d="m23.77 18.68.87-.42a.22.22 0 0 1 .32.2v.21l-1 .46h-.1a.21.21 0 0 1 -.3-.15.31.31 0 0 1 .21-.3z" fill="#bd201f"/><path d="m23.63 18.74.59-.28a.91.91 0 0 0 .19.47l-.42.2-.27.13c-.09 0-.17-.29-.13-.47a.07.07 0 0 1 .04-.05z" fill="#3c3c3c"/><circle cx="25.52" cy="17.61" fill="#bd201f" r="1.18"/></g><g opacity=".7"><path d="m21.76 14.85-1.09.53v-.57l.91-.43a.23.23 0 0 1 .14 0 .25.25 0 0 1 .04.47z" fill="#bd201f"/><path d="m22 14.73-.71.35a.73.73 0 0 0 -.24-.45l.58-.28s.34.05.39.34c-.02.02-.02.04-.02.04z" fill="#3c3c3c"/><path d="m21.31 14.25-.88.42a.22.22 0 0 1 -.31-.2v-.21l1-.46.1-.05a.21.21 0 0 1 .3.15.32.32 0 0 1 -.21.35z" fill="#bd201f"/><path d="m21.45 14.18-.59.28a1 1 0 0 0 -.2-.46l.42-.2.27-.13c.09 0 .17.29.14.46a.1.1 0 0 1 -.04.05z" fill="#3c3c3c"/><circle cx="19.6" cy="15.33" fill="#bd201f" r="1.18"/><circle cx="22.52" cy="13.81" fill="#484848" r="1.18"/><path d="m23.37 12.69 1.09-.52v.57l-.91.43a.17.17 0 0 1 -.14 0 .26.26 0 0 1 -.04-.48z" fill="#bd201f"/><path d="m23.12 12.81.71-.34a.73.73 0 0 0 .24.45l-.58.27s-.34 0-.39-.34c-.01-.01 0-.03.02-.04z" fill="#3c3c3c"/><path d="m23.74 13.31.87-.42a.22.22 0 0 1 .32.2v.21l-1 .46-.1.05a.22.22 0 0 1 -.3-.15.33.33 0 0 1 .21-.35z" fill="#bd201f"/><path d="m23.6 13.38.59-.29a1 1 0 0 0 .19.47l-.42.2-.27.13c-.09 0-.17-.29-.13-.46s.02-.04.04-.05z" fill="#3c3c3c"/><circle cx="25.49" cy="12.25" fill="#bd201f" r="1.18"/></g><g opacity=".9"><path d="m21.69 9.32-1.09.52v-.56l.91-.43a.17.17 0 0 1 .14 0 .26.26 0 0 1 .04.47z" fill="#bd201f"/><path d="m21.94 9.2-.72.34a.7.7 0 0 0 -.22-.45l.58-.27s.34 0 .39.34z" fill="#3c3c3c"/><path d="m21.23 8.71-.87.42a.22.22 0 0 1 -.32-.2v-.21l1-.46h.1a.21.21 0 0 1 .3.15.31.31 0 0 1 -.21.3z" fill="#bd201f"/><path d="m21.37 8.65-.59.28a.91.91 0 0 0 -.19-.47l.42-.2.27-.12c.09 0 .17.28.14.46z" fill="#3c3c3c"/><circle cx="19.53" cy="9.8" fill="#bd201f" r="1.18"/><circle cx="22.45" cy="8.28" fill="#484848" r="1.18"/><path d="m23.3 7.16 1.08-.52v.56l-.91.43a.2.2 0 0 1 -.13 0 .25.25 0 0 1 -.04-.47z" fill="#bd201f"/><path d="m23.05 7.28.71-.34a.72.72 0 0 0 .24.44l-.59.28a.48.48 0 0 1 -.41-.34s0-.03.05-.04z" fill="#3c3c3c"/><path d="m23.67 7.77.87-.41a.22.22 0 0 1 .32.2v.21l-1 .46h-.1a.21.21 0 0 1 -.3-.15.33.33 0 0 1 .21-.31z" fill="#bd201f"/><path d="m23.53 7.84.59-.28a.9.9 0 0 0 .19.46l-.42.21-.27.12c-.09 0-.17-.28-.14-.46a.12.12 0 0 1 .05-.05z" fill="#3c3c3c"/><circle cx="25.42" cy="6.71" fill="#bd201f" r="1.18"/></g><path d="m21.76 3.84-1.09.52v-.56l.91-.43a.17.17 0 0 1 .14 0 .26.26 0 0 1 .04.47z" fill="#bd201f"/><path d="m22 3.72-.71.34a.72.72 0 0 0 -.24-.44l.58-.28s.34.05.39.34c-.02.02-.02.03-.02.04z" fill="#3c3c3c"/><path d="m21.31 3.24-.88.42a.22.22 0 0 1 -.31-.21v-.21l1-.46h.1a.21.21 0 0 1 .3.15.32.32 0 0 1 -.21.31z" fill="#bd201f"/><path d="m21.45 3.17-.59.28a1 1 0 0 0 -.2-.46l.42-.21.27-.12c.09 0 .17.28.14.46a.1.1 0 0 1 -.04.05z" fill="#3c3c3c"/><circle cx="19.6" cy="4.32" fill="#bd201f" r="1.18"/><circle cx="22.52" cy="2.8" fill="#484848" r="1.18"/><path d="m23.37 1.68 1.09-.52v.56l-.91.43a.17.17 0 0 1 -.14 0 .26.26 0 0 1 -.04-.47z" fill="#bd201f"/><path d="m23.12 1.8.71-.34a.75.75 0 0 0 .24.45l-.58.27s-.34-.05-.39-.34c-.01-.02 0-.03.02-.04z" fill="#3c3c3c"/><path d="m23.74 2.3.87-.42a.22.22 0 0 1 .32.2v.21l-1 .46h-.1a.21.21 0 0 1 -.3-.15.32.32 0 0 1 .21-.3z" fill="#bd201f"/><path d="m23.6 2.36.59-.28a1 1 0 0 0 .19.47l-.42.2-.27.13c-.09 0-.17-.29-.13-.47a.07.07 0 0 1 .04-.05z" fill="#3c3c3c"/><circle cx="25.49" cy="1.23" fill="#bd201f" r="1.18"/><g opacity=".2"><path d="m21.67 37.45-1.09.55v-.6l.91-.43a.17.17 0 0 1 .14 0 .26.26 0 0 1 .04.48z" fill="#bd201f"/><path d="m21.91 37.33-.71.34a.67.67 0 0 0 -.24-.45l.59-.27s.34 0 .39.34a.05.05 0 0 1 -.03.04z" fill="#3c3c3c"/><path d="m21.21 36.84-.87.42a.22.22 0 0 1 -.32-.2v-.21l1-.46h.1a.22.22 0 0 1 .3.15.33.33 0 0 1 -.21.3z" fill="#bd201f"/><path d="m21.35 36.77-.59.29a1 1 0 0 0 -.2-.47l.43-.2.26-.13c.1 0 .18.29.14.46a0 0 0 0 1 -.04.05z" fill="#3c3c3c"/><circle cx="19.51" cy="37.92" fill="#bd201f" r="1.18"/><circle cx="22.42" cy="36.41" fill="#484848" r="1.18"/><path d="m23.27 35.29 1.09-.53v.57l-.91.43a.22.22 0 0 1 -.14 0 .25.25 0 0 1 -.04-.47z" fill="#bd201f"/><path d="m23 35.41.72-.35a.68.68 0 0 0 .23.45l-.58.28s-.34 0-.39-.34c.02-.02.02-.04.02-.04z" fill="#3c3c3c"/><path d="m23.64 35.9.88-.42a.22.22 0 0 1 .31.2v.21l-1 .46h-.09a.21.21 0 0 1 -.3-.15.32.32 0 0 1 .2-.3z" fill="#bd201f"/><path d="m23.5 36 .59-.28a1 1 0 0 0 .2.46l-.43.2-.26.13c-.09 0-.17-.29-.14-.46a.1.1 0 0 1 .04-.05z" fill="#3c3c3c"/><circle cx="25.39" cy="34.84" fill="#bd201f" r="1.18"/></g><g opacity=".3"><path d="m42.07 36 1.09.53v-.53l-.91-.43a.2.2 0 0 0 -.13 0 .25.25 0 0 0 -.05.43z" fill="#bd201f"/><path d="m41.82 35.88.72.35a.67.67 0 0 1 .24-.45l-.59-.28a.48.48 0 0 0 -.39.34.05.05 0 0 0 .02.04z" fill="#3c3c3c"/><path d="m42.53 35.4.87.42a.22.22 0 0 0 .32-.2v-.21l-1-.46-.09-.05a.21.21 0 0 0 -.3.15.32.32 0 0 0 .2.35z" fill="#bd201f"/><path d="m42.39 35.33.59.29a1 1 0 0 1 .2-.47l-.43-.2-.26-.13c-.09 0-.17.29-.14.46a.07.07 0 0 0 .04.05z" fill="#3c3c3c"/><circle cx="44.23" cy="36.49" fill="#bd201f" r="1.18"/><circle cx="41.32" cy="34.96" fill="#484848" r="1.18"/><path d="m40.48 33.83-1.09-.52v.56l.91.44a.2.2 0 0 0 .13 0 .26.26 0 0 0 .05-.48z" fill="#bd201f"/><path d="m40.73 34-.73-.39a.67.67 0 0 1 -.24.45l.59.28a.48.48 0 0 0 .39-.34s0 0-.01 0z" fill="#3c3c3c"/><path d="m40.1 34.45-.87-.45a.22.22 0 0 0 -.32.2v.21l1 .46.09.13a.22.22 0 0 0 .3-.15.34.34 0 0 0 -.2-.4z" fill="#bd201f"/><path d="m40.24 34.52-.59-.29a.91.91 0 0 1 -.19.47l.42.2.26.13c.1 0 .18-.29.14-.46s-.02-.04-.04-.05z" fill="#3c3c3c"/><circle cx="38.36" cy="33.38" fill="#bd201f" r="1.18"/></g><g opacity=".5"><path d="m42.28 30.12 1.09.53v-.56l-.91-.44a.22.22 0 0 0 -.14 0 .25.25 0 0 0 -.04.47z" fill="#bd201f"/><path d="m42 30 .72.35a.68.68 0 0 1 .28-.45l-.58-.28s-.34.05-.39.34a.05.05 0 0 0 -.03.04z" fill="#3c3c3c"/><path d="m42.74 29.52.87.42a.22.22 0 0 0 .32-.2v-.21l-1-.46-.1-.05a.21.21 0 0 0 -.29.15.32.32 0 0 0 .2.35z" fill="#bd201f"/><path d="m42.6 29.45.59.29a1 1 0 0 1 .2-.47l-.43-.2-.26-.13c-.09 0-.18.29-.14.46a.07.07 0 0 0 .04.05z" fill="#3c3c3c"/><circle cx="44.44" cy="30.61" fill="#bd201f" r="1.18"/><circle cx="41.53" cy="29.08" fill="#484848" r="1.18"/><path d="m40.68 28-1.08-.53v.53l.9.44a.23.23 0 0 0 .14 0 .25.25 0 0 0 .04-.44z" fill="#bd201f"/><path d="m40.93 28.08-.71-.35a.73.73 0 0 1 -.24.45l.58.28s.34-.05.39-.34c.05-.02.05-.04-.02-.04z" fill="#3c3c3c"/><path d="m40.31 28.57-.87-.42a.22.22 0 0 0 -.32.2v.21l1 .46.1.05a.21.21 0 0 0 .29-.15.32.32 0 0 0 -.2-.35z" fill="#bd201f"/><path d="m40.45 28.64-.59-.29a1 1 0 0 1 -.2.47l.43.2.26.13c.09 0 .18-.29.14-.46a.07.07 0 0 0 -.04-.05z" fill="#3c3c3c"/><circle cx="38.56" cy="27.5" fill="#bd201f" r="1.18"/></g><g opacity=".5"><path d="m42.15 24.43 1.09.52v-.56l-.91-.39a.12.12 0 0 0 -.13 0 .26.26 0 0 0 -.05.43z" fill="#bd201f"/><path d="m41.9 24.31.72.34a.7.7 0 0 1 .23-.45l-.58-.27s-.34 0-.39.33a.08.08 0 0 0 .02.05z" fill="#3c3c3c"/><path d="m42.61 23.82.87.43a.22.22 0 0 0 .32-.2v-.21l-1-.47h-.09a.21.21 0 0 0 -.3.15.3.3 0 0 0 .2.3z" fill="#bd201f"/><path d="m42.47 23.76.59.28a1 1 0 0 1 .2-.46l-.43-.21-.26-.12c-.09 0-.18.28-.14.46a.07.07 0 0 0 .04.05z" fill="#3c3c3c"/><circle cx="44.31" cy="24.91" fill="#bd201f" r="1.18"/><circle cx="41.4" cy="23.38" fill="#484848" r="1.18"/><path d="m40.55 22.26-1.08-.53v.57l.9.43a.17.17 0 0 0 .14 0 .26.26 0 0 0 .04-.47z" fill="#bd201f"/><path d="m40.8 22.38-.71-.38a.72.72 0 0 1 -.24.44l.58.28a.49.49 0 0 0 .4-.34.05.05 0 0 0 -.03 0z" fill="#3c3c3c"/><path d="m40.18 22.87-.87-.42a.22.22 0 0 0 -.32.2v.21l1 .46.1.05a.21.21 0 0 0 .3-.15.34.34 0 0 0 -.21-.35z" fill="#bd201f"/><path d="m40.32 22.94-.59-.28a1 1 0 0 1 -.2.46l.43.2.26.13c.1 0 .18-.28.14-.46a.07.07 0 0 0 -.04-.05z" fill="#3c3c3c"/><circle cx="38.43" cy="21.8" fill="#bd201f" r="1.18"/></g><g opacity=".7"><path d="m42.21 19.06 1.08.53v-.59l-.9-.43a.17.17 0 0 0 -.14 0 .26.26 0 0 0 -.04.49z" fill="#bd201f"/><path d="m42 18.94.71.34a.72.72 0 0 1 .24-.44l-.58-.28a.49.49 0 0 0 -.4.34.05.05 0 0 0 .03.04z" fill="#3c3c3c"/><path d="m42.66 18.46.87.42a.22.22 0 0 0 .32-.2v-.21l-1-.46-.1-.05a.21.21 0 0 0 -.3.15.32.32 0 0 0 .21.35z" fill="#bd201f"/><path d="m42.52 18.39.59.28a1 1 0 0 1 .2-.46l-.42-.2-.27-.13c-.09 0-.17.28-.14.46a.1.1 0 0 0 .04.05z" fill="#3c3c3c"/><circle cx="44.36" cy="19.55" fill="#bd201f" r="1.18"/><circle cx="41.45" cy="18.02" fill="#484848" r="1.18"/><path d="m40.61 16.89-1.09-.52v.56l.91.43a.12.12 0 0 0 .13 0 .26.26 0 0 0 .05-.47z" fill="#bd201f"/><path d="m40.86 17-.72-.34a.67.67 0 0 1 -.23.44l.58.28s.34-.05.39-.34a.08.08 0 0 0 -.02-.04z" fill="#3c3c3c"/><path d="m40.23 17.51-.87-.43a.23.23 0 0 0 -.32.2v.21l.96.51h.1a.21.21 0 0 0 .3-.14.32.32 0 0 0 -.17-.35z" fill="#bd201f"/><path d="m40.37 17.57-.58-.28a.91.91 0 0 1 -.2.46l.41.25.27.13c.09 0 .17-.29.14-.47a.12.12 0 0 0 -.04-.09z" fill="#3c3c3c"/><circle cx="38.49" cy="16.44" fill="#bd201f" r="1.18"/></g><g opacity=".9"><path d="m42.3 13.53 1.09.52v-.56l-.91-.44a.22.22 0 0 0 -.14 0 .26.26 0 0 0 -.04.48z" fill="#bd201f"/><path d="m42.05 13.4.71.35a.73.73 0 0 1 .24-.45l-.58-.3s-.34.05-.39.34c-.03.04-.03.06.02.06z" fill="#3c3c3c"/><path d="m42.76 12.92.87.43a.22.22 0 0 0 .32-.2v-.21l-1-.47h-.1a.21.21 0 0 0 -.3.14.33.33 0 0 0 .21.31z" fill="#bd201f"/><path d="m42.62 12.86.59.28a.91.91 0 0 1 .2-.46l-.41-.21-.26-.13c-.1 0-.18.29-.14.47a.07.07 0 0 0 .02.05z" fill="#3c3c3c"/><circle cx="44.46" cy="14.01" fill="#bd201f" r="1.18"/><circle cx="41.55" cy="12.48" fill="#484848" r="1.18"/><path d="m40.7 11.36-1.08-.53v.57l.9.43a.23.23 0 0 0 .14 0 .25.25 0 0 0 .04-.47z" fill="#bd201f"/><path d="m41 11.48-.71-.35a.73.73 0 0 1 -.24.45l.58.28s.34 0 .39-.34c-.02-.02-.02-.03-.02-.04z" fill="#3c3c3c"/><path d="m40.33 12-.87-.42a.22.22 0 0 0 -.32.2v.22l1 .46.09.05a.21.21 0 0 0 .3-.15.32.32 0 0 0 -.2-.36z" fill="#bd201f"/><path d="m40.47 12-.59-.28a1 1 0 0 1 -.2.46l.43.2.26.13c.09 0 .18-.28.14-.46a.07.07 0 0 0 -.04-.05z" fill="#3c3c3c"/><circle cx="38.58" cy="10.9" fill="#bd201f" r="1.18"/></g><path d="m42.25 8.05 1.09.52v-.57l-.91-.43a.12.12 0 0 0 -.13 0 .26.26 0 0 0 -.05.48z" fill="#bd201f"/><path d="m42 7.93.72.34a.67.67 0 0 1 .28-.44l-.58-.28s-.34 0-.39.34a.08.08 0 0 0 -.03.04z" fill="#3c3c3c"/><path d="m42.71 7.45.87.42a.22.22 0 0 0 .32-.2v-.21l-1-.47h-.09a.21.21 0 0 0 -.3.15.32.32 0 0 0 .2.31z" fill="#bd201f"/><path d="m42.57 7.38.59.28a1 1 0 0 1 .2-.46l-.43-.2-.26-.12c-.09 0-.18.28-.14.46a.07.07 0 0 0 .04.04z" fill="#3c3c3c"/><circle cx="44.41" cy="8.53" fill="#bd201f" r="1.18"/><circle cx="41.5" cy="7" fill="#484848" r="1.18"/><path d="m40.65 5.88-1.08-.53v.57l.9.43a.17.17 0 0 0 .14 0 .26.26 0 0 0 .04-.47z" fill="#bd201f"/><path d="m40.9 6-.71-.34a.72.72 0 0 1 -.19.44l.58.28a.49.49 0 0 0 .4-.34.05.05 0 0 0 -.08-.04z" fill="#3c3c3c"/><path d="m40.28 6.49-.87-.42a.22.22 0 0 0 -.32.2v.21l1 .47h.1a.21.21 0 0 0 .3-.15.34.34 0 0 0 -.21-.31z" fill="#bd201f"/><path d="m40.42 6.56-.59-.28a1 1 0 0 1 -.2.46l.43.21.26.12c.1 0 .18-.28.14-.46a.07.07 0 0 0 -.04-.05z" fill="#3c3c3c"/><circle cx="38.53" cy="5.42" fill="#bd201f" r="1.18"/><g opacity=".2"><path d="m42.2 41.65 1.09.53v-.56l-.91-.44a.2.2 0 0 0 -.13 0 .25.25 0 0 0 -.05.47z" fill="#bd201f"/><path d="m42 41.53.72.35a.68.68 0 0 1 .23-.45l-.58-.28s-.34.05-.39.34a.05.05 0 0 0 .02.04z" fill="#3c3c3c"/><path d="m42.66 41.05.87.42a.22.22 0 0 0 .32-.2v-.21l-1-.46-.09-.05a.21.21 0 0 0 -.3.15.32.32 0 0 0 .2.35z" fill="#bd201f"/><path d="m42.52 41 .59.29a1 1 0 0 1 .2-.47l-.43-.2-.26-.13c-.09 0-.18.29-.14.46a.07.07 0 0 0 .04.05z" fill="#3c3c3c"/><circle cx="44.36" cy="42.14" fill="#bd201f" r="1.18"/><circle cx="41.45" cy="40.61" fill="#484848" r="1.18"/><path d="m40.61 39.49-1.09-.49v.56l.9.44a.23.23 0 0 0 .14 0 .26.26 0 0 0 .05-.51z" fill="#bd201f"/><path d="m40.85 39.61-.71-.35a.73.73 0 0 1 -.24.45l.58.28a.49.49 0 0 0 .4-.34s-.01-.04-.03-.04z" fill="#3c3c3c"/><path d="m40.23 40.1-.87-.42a.22.22 0 0 0 -.32.2v.21l1 .46.1.05a.22.22 0 0 0 .3-.15.34.34 0 0 0 -.21-.35z" fill="#bd201f"/><path d="m40.37 40.17-.59-.29a1 1 0 0 1 -.2.47l.43.2.26.13c.1 0 .18-.29.14-.46a.07.07 0 0 0 -.04-.05z" fill="#3c3c3c"/><circle cx="38.48" cy="39.03" fill="#bd201f" r="1.18"/></g><g opacity=".3"><path d="m51.51 40.5 1.09.5v-.57l-.91-.43a.17.17 0 0 0 -.14 0 .26.26 0 0 0 -.04.5z" fill="#bd201f"/><path d="m51.26 40.38.71.34a.72.72 0 0 1 .24-.44l-.58-.28s-.34 0-.39.34z" fill="#3c3c3c"/><path d="m52 39.9.87.42a.22.22 0 0 0 .32-.2v-.21l-1-.46-.1-.05a.21.21 0 0 0 -.3.15.34.34 0 0 0 .21.35z" fill="#bd201f"/><path d="m51.83 39.83.59.28a1 1 0 0 1 .2-.46l-.43-.2-.26-.13c-.1 0-.18.28-.14.46a.07.07 0 0 0 .04.05z" fill="#3c3c3c"/><circle cx="53.67" cy="40.98" fill="#bd201f" r="1.18"/><circle cx="50.76" cy="39.46" fill="#484848" r="1.18"/><path d="m49.91 38.33-1.08-.53v.57l.9.43a.17.17 0 0 0 .14 0 .26.26 0 0 0 .04-.47z" fill="#bd201f"/><path d="m50.16 38.45-.71-.34a.72.72 0 0 1 -.24.44l.58.28s.34 0 .39-.34c.01-.01 0-.03-.02-.04z" fill="#3c3c3c"/><path d="m49.54 39-.87-.43a.22.22 0 0 0 -.32.2v.21l1 .47h.09a.21.21 0 0 0 .3-.15.3.3 0 0 0 -.2-.3z" fill="#bd201f"/><path d="m49.68 39-.59-.28a1 1 0 0 1 -.2.46l.43.21.26.12c.09 0 .18-.28.14-.46a.07.07 0 0 0 -.04-.05z" fill="#3c3c3c"/><circle cx="47.79" cy="37.87" fill="#bd201f" r="1.18"/></g><g opacity=".5"><path d="m51.72 34.62 1.09.53v-.57l-.91-.43a.17.17 0 0 0 -.14 0 .26.26 0 0 0 -.04.47z" fill="#bd201f"/><path d="m51.47 34.5.71.34a.72.72 0 0 1 .24-.44l-.58-.28s-.34.05-.39.34a0 0 0 0 0 .02.04z" fill="#3c3c3c"/><path d="m52.18 34 .87.42a.23.23 0 0 0 .32-.2v-.22l-1-.46h-.1a.21.21 0 0 0 -.3.15.33.33 0 0 0 .21.31z" fill="#bd201f"/><path d="m52 34 .58.28a1 1 0 0 1 .2-.46l-.42-.2-.27-.13c-.09 0-.17.28-.13.46a.07.07 0 0 0 .04.05z" fill="#3c3c3c"/><circle cx="53.87" cy="35.11" fill="#bd201f" r="1.18"/><circle cx="50.97" cy="33.58" fill="#484848" r="1.18"/><path d="m50.12 32.45-1.12-.52v.56l.91.43a.14.14 0 0 0 .14 0 .26.26 0 0 0 .07-.47z" fill="#bd201f"/><path d="m50.37 32.57-.71-.34a.72.72 0 0 1 -.24.44l.58.33s.34 0 .39-.33a0 0 0 0 0 -.02-.1z" fill="#3c3c3c"/><path d="m49.75 33.07-.87-.43a.22.22 0 0 0 -.32.2v.21l1 .47h.1a.2.2 0 0 0 .3-.14.31.31 0 0 0 -.21-.31z" fill="#bd201f"/><path d="m49.89 33.13-.59-.28a.91.91 0 0 1 -.2.46l.42.21.27.13c.09 0 .17-.29.14-.46a.09.09 0 0 0 -.04-.06z" fill="#3c3c3c"/><circle cx="48" cy="32" fill="#bd201f" r="1.18"/></g><g opacity=".5"><path d="m51.59 28.92 1.09.53v-.56l-.91-.44a.22.22 0 0 0 -.14 0 .25.25 0 0 0 -.04.47z" fill="#bd201f"/><path d="m51.34 28.8.71.35a.73.73 0 0 1 .24-.45l-.58-.28s-.34 0-.39.34c0 .02.01.04.02.04z" fill="#3c3c3c"/><path d="m52.05 28.32.87.42a.22.22 0 0 0 .32-.2v-.21l-1-.46-.1-.05a.22.22 0 0 0 -.3.15.33.33 0 0 0 .21.35z" fill="#bd201f"/><path d="m51.91 28.25.59.29a.91.91 0 0 1 .19-.47l-.42-.2-.27-.13c-.1 0-.18.29-.14.46s.03.04.05.05z" fill="#3c3c3c"/><circle cx="53.75" cy="29.41" fill="#bd201f" r="1.18"/><circle cx="50.84" cy="27.88" fill="#484848" r="1.18"/><path d="m50 26.76-1.08-.53v.56l.9.44a.23.23 0 0 0 .14 0 .25.25 0 0 0 .04-.47z" fill="#bd201f"/><path d="m50.24 26.88-.71-.35a.73.73 0 0 1 -.24.45l.58.28s.34-.05.39-.34c.01-.02 0-.04-.02-.04z" fill="#3c3c3c"/><path d="m49.62 27.37-.87-.37a.22.22 0 0 0 -.32.2v.21l1 .46.09.05a.21.21 0 0 0 .3-.15.32.32 0 0 0 -.2-.4z" fill="#bd201f"/><path d="m49.76 27.44-.59-.29a1 1 0 0 1 -.2.47l.43.2.26.13c.09 0 .17-.29.14-.46a.07.07 0 0 0 -.04-.05z" fill="#3c3c3c"/><circle cx="47.87" cy="26.3" fill="#bd201f" r="1.18"/></g><g opacity=".7"><path d="m51.64 23.56 1.09.52v-.56l-.91-.44a.17.17 0 0 0 -.14 0 .26.26 0 0 0 -.04.48z" fill="#bd201f"/><path d="m51.39 23.44.72.34a.7.7 0 0 1 .23-.45l-.58-.27s-.34 0-.39.33a.08.08 0 0 0 .02.05z" fill="#3c3c3c"/><path d="m52.1 23 .87.43a.22.22 0 0 0 .32-.2v-.23l-1-.47h-.09a.21.21 0 0 0 -.3.15.3.3 0 0 0 .2.32z" fill="#bd201f"/><path d="m52 22.89.59.28a1 1 0 0 1 .2-.46l-.43-.21-.26-.12c-.09 0-.18.28-.14.46a.07.07 0 0 0 .04.05z" fill="#3c3c3c"/><circle cx="53.8" cy="24.04" fill="#bd201f" r="1.18"/><circle cx="50.89" cy="22.51" fill="#484848" r="1.18"/><path d="m50 21.39-1-.53v.57l.9.43a.17.17 0 0 0 .14 0 .26.26 0 0 0 -.04-.47z" fill="#bd201f"/><path d="m50.29 21.51-.71-.35a.73.73 0 0 1 -.24.45l.58.28a.49.49 0 0 0 .4-.34.05.05 0 0 0 -.03-.04z" fill="#3c3c3c"/><path d="m49.67 22-.87-.42a.22.22 0 0 0 -.32.2v.22l1 .46.1.05a.21.21 0 0 0 .3-.15.34.34 0 0 0 -.21-.36z" fill="#bd201f"/><path d="m49.81 22.07-.59-.28a1 1 0 0 1 -.2.46l.43.2.26.13c.1 0 .18-.28.14-.46a.07.07 0 0 0 -.04-.05z" fill="#3c3c3c"/><circle cx="47.92" cy="20.93" fill="#bd201f" r="1.18"/></g><g opacity=".9"><path d="m51.74 18 1.09.53v-.53l-.91-.43a.22.22 0 0 0 -.14 0 .25.25 0 0 0 -.04.43z" fill="#bd201f"/><path d="m51.49 17.9.71.35a.73.73 0 0 1 .24-.45l-.58-.28s-.34.05-.39.34c-.01.02 0 .03.02.04z" fill="#3c3c3c"/><path d="m52.2 17.42.87.42a.22.22 0 0 0 .32-.2v-.21l-1-.46h-.1a.22.22 0 0 0 -.3.15.32.32 0 0 0 .21.3z" fill="#bd201f"/><path d="m52.06 17.35.58.29a1 1 0 0 1 .2-.47l-.42-.2-.27-.13c-.09 0-.17.29-.14.46a.12.12 0 0 0 .05.05z" fill="#3c3c3c"/><circle cx="53.89" cy="18.51" fill="#bd201f" r="1.18"/><circle cx="50.99" cy="16.98" fill="#484848" r="1.18"/><path d="m50.14 15.86-1.09-.53v.56l.91.44a.22.22 0 0 0 .14 0 .25.25 0 0 0 .04-.47z" fill="#bd201f"/><path d="m50.39 16-.71-.35a.73.73 0 0 1 -.24.45l.58.28s.34-.05.39-.34c0-.04 0-.04-.02-.04z" fill="#3c3c3c"/><path d="m49.77 16.47-.87-.42a.22.22 0 0 0 -.32.2v.21l1 .46h.1a.21.21 0 0 0 .3-.15.32.32 0 0 0 -.21-.3z" fill="#bd201f"/><path d="m49.91 16.54-.59-.29a1 1 0 0 1 -.2.47l.42.2.27.13c.09 0 .17-.29.14-.46a.1.1 0 0 0 -.04-.05z" fill="#3c3c3c"/><circle cx="48.02" cy="15.4" fill="#bd201f" r="1.18"/></g><path d="m51.69 12.54 1.09.53v-.56l-.91-.44a.22.22 0 0 0 -.14 0 .25.25 0 0 0 -.04.47z" fill="#bd201f"/><path d="m51.44 12.42.71.35a.73.73 0 0 1 .24-.45l-.58-.32s-.34.05-.39.34c0 .06.01.08.02.08z" fill="#3c3c3c"/><path d="m52.15 11.94.87.42a.22.22 0 0 0 .32-.19v-.17l-1-.46-.1-.05a.22.22 0 0 0 -.3.15.33.33 0 0 0 .21.3z" fill="#bd201f"/><path d="m52 11.87.59.29a.91.91 0 0 1 .19-.47l-.42-.2-.26-.13c-.1 0-.18.29-.14.46s.04.04.04.05z" fill="#3c3c3c"/><circle cx="53.85" cy="13.03" fill="#bd201f" r="1.18"/><circle cx="50.94" cy="11.5" fill="#484848" r="1.18"/><path d="m50.09 10.38-1.09-.53v.56l.9.44a.23.23 0 0 0 .14 0 .25.25 0 0 0 .05-.47z" fill="#bd201f"/><path d="m50.34 10.5-.71-.35a.73.73 0 0 1 -.24.45l.58.28s.34-.05.39-.34c.01-.02 0-.03-.02-.04z" fill="#3c3c3c"/><path d="m49.72 11-.87-.42a.22.22 0 0 0 -.32.2v.22l1 .46.09.05a.21.21 0 0 0 .3-.15.32.32 0 0 0 -.2-.36z" fill="#bd201f"/><path d="m49.86 11.06-.59-.29a1 1 0 0 1 -.2.47l.43.2.26.13c.09 0 .17-.29.14-.46a.07.07 0 0 0 -.04-.05z" fill="#3c3c3c"/><circle cx="47.97" cy="9.92" fill="#bd201f" r="1.18"/><g opacity=".2"><path d="m51.64 46.15 1.09.53v-.57l-.91-.43a.17.17 0 0 0 -.14 0 .26.26 0 0 0 -.04.47z" fill="#bd201f"/><path d="m51.39 46 .71.34a.72.72 0 0 1 .24-.44l-.58-.28s-.34.05-.39.34z" fill="#3c3c3c"/><path d="m52.1 45.55.9.45a.22.22 0 0 0 .32-.2v-.21l-1-.46-.1-.05a.21.21 0 0 0 -.3.15.34.34 0 0 0 .18.32z" fill="#bd201f"/><path d="m52 45.48.59.29a.91.91 0 0 1 .19-.47l-.42-.2-.3-.1c-.1 0-.18.28-.14.46a.07.07 0 0 0 .08.02z" fill="#3c3c3c"/><circle cx="53.8" cy="46.64" fill="#bd201f" r="1.18"/><circle cx="50.89" cy="45.11" fill="#484848" r="1.18"/><path d="m50 44-1-.54v.54l.9.43a.14.14 0 0 0 .14 0 .26.26 0 0 0 -.04-.43z" fill="#bd201f"/><path d="m50.29 44.1-.71-.34a.72.72 0 0 1 -.24.44l.58.28s.34 0 .39-.33a0 0 0 0 0 -.02-.05z" fill="#3c3c3c"/><path d="m49.67 44.6-.87-.43a.22.22 0 0 0 -.32.2v.21l1 .47.09.05a.21.21 0 0 0 .3-.15.31.31 0 0 0 -.2-.35z" fill="#bd201f"/><path d="m49.81 44.66-.59-.28a.91.91 0 0 1 -.2.46l.43.21.26.13c.09 0 .17-.29.14-.46a.07.07 0 0 0 -.04-.06z" fill="#3c3c3c"/><circle cx="47.92" cy="43.53" fill="#bd201f" r="1.18"/></g><g opacity=".3"><path d="m32.78 31.76 1.09.53v-.57l-.87-.43a.17.17 0 0 0 -.14 0 .26.26 0 0 0 -.08.47z" fill="#bd201f"/><path d="m32.53 31.64.71.34a.72.72 0 0 1 .24-.44l-.58-.28s-.34 0-.39.34a0 0 0 0 0 .02.04z" fill="#3c3c3c"/><path d="m33.24 31.16.87.42a.23.23 0 0 0 .32-.2v-.21l-1-.46-.1-.05a.21.21 0 0 0 -.3.15.33.33 0 0 0 .21.35z" fill="#bd201f"/><path d="m33.1 31.09.58.28a1 1 0 0 1 .2-.46l-.42-.2-.27-.13c-.09 0-.17.28-.13.46a.07.07 0 0 0 .04.05z" fill="#3c3c3c"/><circle cx="34.93" cy="32.25" fill="#bd201f" r="1.18"/><circle cx="32.03" cy="30.72" fill="#484848" r="1.18"/><path d="m31.18 29.59-1.08-.52v.56l.91.43a.14.14 0 0 0 .14 0 .26.26 0 0 0 .03-.47z" fill="#bd201f"/><path d="m31.43 29.71-.71-.34a.72.72 0 0 1 -.24.44l.58.28s.34-.05.39-.34c.01-.01 0-.03-.02-.04z" fill="#3c3c3c"/><path d="m30.81 30.21-.87-.43a.22.22 0 0 0 -.32.2v.21l1 .47h.1a.2.2 0 0 0 .3-.14.31.31 0 0 0 -.21-.31z" fill="#bd201f"/><path d="m31 30.27-.64-.27a.91.91 0 0 1 -.2.46l.42.21.27.13c.09 0 .17-.29.14-.47a.1.1 0 0 0 .01-.06z" fill="#3c3c3c"/><circle cx="29.06" cy="29.14" fill="#bd201f" r="1.18"/></g><g opacity=".5"><path d="m33 25.88 1.08.53v-.57l-.9-.43a.23.23 0 0 0 -.14 0 .25.25 0 0 0 -.04.47z" fill="#bd201f"/><path d="m32.74 25.76.71.35a.73.73 0 0 1 .24-.45l-.58-.28s-.34.05-.39.34c-.01.02 0 .03.02.04z" fill="#3c3c3c"/><path d="m33.44 25.28.88.42a.22.22 0 0 0 .31-.2v-.21l-1-.46h-.1a.21.21 0 0 0 -.3.15.32.32 0 0 0 .21.3z" fill="#bd201f"/><path d="m33.3 25.21.59.29a1 1 0 0 1 .2-.47l-.42-.2-.27-.13c-.09 0-.17.29-.14.46a.1.1 0 0 0 .04.05z" fill="#3c3c3c"/><circle cx="35.14" cy="26.37" fill="#bd201f" r="1.18"/><circle cx="32.23" cy="24.84" fill="#484848" r="1.18"/><path d="m31.39 23.71-1.09-.52v.56l.91.44a.22.22 0 0 0 .14 0 .26.26 0 0 0 .04-.48z" fill="#bd201f"/><path d="m31.64 23.83-.71-.34a.73.73 0 0 1 -.24.45l.58.27s.34 0 .39-.33a.08.08 0 0 0 -.02-.05z" fill="#3c3c3c"/><path d="m31 24.33-.88-.42a.21.21 0 0 0 -.31.19v.22l1 .46h.1a.22.22 0 0 0 .3-.15.31.31 0 0 0 -.21-.3z" fill="#bd201f"/><path d="m31.16 24.4-.59-.29a1 1 0 0 1 -.2.47l.42.2.27.13c.09 0 .17-.29.14-.46a.07.07 0 0 0 -.04-.05z" fill="#3c3c3c"/><circle cx="29.27" cy="23.26" fill="#bd201f" r="1.18"/></g><g opacity=".5"><path d="m32.86 20.19 1.08.52v-.56l-.94-.44a.22.22 0 0 0 -.14 0 .26.26 0 0 0 0 .48z" fill="#bd201f"/><path d="m32.61 20.06.71.35a.73.73 0 0 1 .24-.45l-.56-.28s-.34.05-.39.34c-.03-.02-.02.04 0 .04z" fill="#3c3c3c"/><path d="m33.32 19.58.87.43a.22.22 0 0 0 .31-.2v-.21l-1-.47-.1-.05a.22.22 0 0 0 -.3.15.3.3 0 0 0 .22.35z" fill="#bd201f"/><path d="m33.18 19.52.58.28a.91.91 0 0 1 .2-.46l-.42-.21-.27-.13c-.09 0-.17.29-.14.46s.02.05.05.06z" fill="#3c3c3c"/><circle cx="35.01" cy="20.67" fill="#bd201f" r="1.18"/><circle cx="32.11" cy="19.14" fill="#484848" r="1.18"/><path d="m31.26 18-1.09-.53v.57l.91.43a.22.22 0 0 0 .14 0 .25.25 0 0 0 .04-.47z" fill="#bd201f"/><path d="m31.51 18.14-.71-.35a.73.73 0 0 1 -.24.45l.58.28s.34-.05.39-.34a.05.05 0 0 0 -.02-.04z" fill="#3c3c3c"/><path d="m30.89 18.63-.89-.42a.22.22 0 0 0 -.32.2v.21l1 .46.1.05a.21.21 0 0 0 .3-.15.32.32 0 0 0 -.19-.35z" fill="#bd201f"/><path d="m31 18.7-.59-.29a1 1 0 0 1 -.2.47l.42.2.27.13c.09 0 .17-.28.14-.46a.1.1 0 0 0 -.04-.05z" fill="#3c3c3c"/><circle cx="29.14" cy="17.56" fill="#bd201f" r="1.18"/></g><g opacity=".7"><path d="m32.91 14.82 1.09.52v-.56l-.91-.43a.17.17 0 0 0 -.14 0 .26.26 0 0 0 -.04.47z" fill="#bd201f"/><path d="m32.66 14.7.71.34a.72.72 0 0 1 .24-.44l-.61-.28s-.34 0-.39.34z" fill="#3c3c3c"/><path d="m33.37 14.22.87.42a.22.22 0 0 0 .32-.2v-.21l-1-.47h-.1a.21.21 0 0 0 -.3.15.34.34 0 0 0 .21.31z" fill="#bd201f"/><path d="m33.23 14.15.59.28a1 1 0 0 1 .18-.43l-.42-.21-.26-.12c-.1 0-.18.28-.14.46a.07.07 0 0 0 .05.02z" fill="#3c3c3c"/><circle cx="35.07" cy="15.3" fill="#bd201f" r="1.18"/><circle cx="32.16" cy="13.77" fill="#484848" r="1.18"/><path d="m31.31 12.65-1.08-.53v.57l.9.43a.17.17 0 0 0 .14 0 .26.26 0 0 0 .04-.47z" fill="#bd201f"/><path d="m31.56 12.77-.71-.34a.72.72 0 0 1 -.24.44l.58.28s.34-.05.39-.34c.01-.01 0-.03-.02-.04z" fill="#3c3c3c"/><path d="m30.94 13.26-.87-.42a.22.22 0 0 0 -.32.2v.21l1 .47h.09a.21.21 0 0 0 .3-.15.32.32 0 0 0 -.2-.31z" fill="#bd201f"/><path d="m31.08 13.33-.59-.28a1 1 0 0 1 -.2.46l.43.21.26.12c.09 0 .17-.28.14-.46a.07.07 0 0 0 -.04-.05z" fill="#3c3c3c"/><circle cx="29.19" cy="12.19" fill="#bd201f" r="1.18"/></g><g opacity=".9"><path d="m33 9.28 1.08.53v-.56l-.9-.44a.23.23 0 0 0 -.14 0 .25.25 0 0 0 -.04.47z" fill="#bd201f"/><path d="m32.76 9.16.71.35a.73.73 0 0 1 .24-.45l-.58-.28s-.34.05-.39.34c-.01.02 0 .04.02.04z" fill="#3c3c3c"/><path d="m33.46 8.68.87.42a.22.22 0 0 0 .32-.2v-.21l-1-.46-.1-.05a.22.22 0 0 0 -.3.15.32.32 0 0 0 .21.35z" fill="#bd201f"/><path d="m33.32 8.61.59.29a1 1 0 0 1 .2-.47l-.42-.2-.27-.13c-.09 0-.17.29-.14.46a.07.07 0 0 0 .04.05z" fill="#3c3c3c"/><circle cx="35.16" cy="9.77" fill="#bd201f" r="1.18"/><circle cx="32.25" cy="8.24" fill="#484848" r="1.18"/><path d="m31.41 7.12-1.09-.53v.56l.91.44a.22.22 0 0 0 .14 0 .25.25 0 0 0 .04-.47z" fill="#bd201f"/><path d="m31.66 7.24-.66-.35a.73.73 0 0 1 -.24.45l.58.28s.34 0 .39-.34c-.05-.02-.06-.04-.07-.04z" fill="#3c3c3c"/><path d="m31 7.73-.88-.42a.22.22 0 0 0 -.31.2v.21l1 .46.1.05a.21.21 0 0 0 .3-.15.32.32 0 0 0 -.21-.35z" fill="#bd201f"/><path d="m31.18 7.8-.59-.29a1 1 0 0 1 -.2.47l.42.2.27.13c.09 0 .17-.29.14-.46a.1.1 0 0 0 -.04-.05z" fill="#3c3c3c"/><circle cx="29.29" cy="6.66" fill="#bd201f" r="1.18"/></g><path d="m33 3.81 1 .52v-.56l-.91-.44a.22.22 0 0 0 -.14 0 .26.26 0 0 0 .05.48z" fill="#bd201f"/><path d="m32.71 3.68.71.35a.73.73 0 0 1 .24-.45l-.58-.28s-.34.05-.39.34c-.01.02 0 .04.02.04z" fill="#3c3c3c"/><path d="m33.42 3.2.87.43a.22.22 0 0 0 .31-.2v-.21l-1-.47h-.1a.21.21 0 0 0 -.3.14.3.3 0 0 0 .22.31z" fill="#bd201f"/><path d="m33.28 3.14.58.28a.91.91 0 0 1 .2-.46l-.42-.21-.27-.13c-.09 0-.17.29-.14.47a.08.08 0 0 0 .05.05z" fill="#3c3c3c"/><circle cx="35.11" cy="4.29" fill="#bd201f" r="1.18"/><circle cx="32.21" cy="2.76" fill="#484848" r="1.18"/><path d="m31.36 1.64-1.09-.53v.57l.91.43a.22.22 0 0 0 .14 0 .25.25 0 0 0 .04-.47z" fill="#bd201f"/><path d="m31.61 1.76-.71-.35a.73.73 0 0 1 -.24.45l.58.28s.34-.05.39-.34a.05.05 0 0 0 -.02-.04z" fill="#3c3c3c"/><path d="m31 2.25-.87-.42a.22.22 0 0 0 -.32.2v.21l1 .46h.1a.21.21 0 0 0 .3-.15.32.32 0 0 0 -.21-.3z" fill="#bd201f"/><path d="m31.13 2.32-.59-.32a1 1 0 0 1 -.2.46l.42.2.27.13c.09 0 .17-.28.14-.46a.1.1 0 0 0 -.04-.01z" fill="#3c3c3c"/><circle cx="29.24" cy="1.18" fill="#bd201f" r="1.18"/><g opacity=".2"><path d="m32.91 37.41 1.08.53v-.57l-.91-.43a.22.22 0 0 0 -.14 0 .25.25 0 0 0 -.03.47z" fill="#bd201f"/><path d="m32.66 37.29.71.35a.73.73 0 0 1 .24-.45l-.61-.28s-.34.05-.39.34c.02.02.03.03.05.04z" fill="#3c3c3c"/><path d="m33.37 36.81.87.42a.22.22 0 0 0 .31-.2v-.21l-1-.46h-.1a.21.21 0 0 0 -.3.15.32.32 0 0 0 .22.3z" fill="#bd201f"/><path d="m33.23 36.74.58.29a1 1 0 0 1 .2-.47l-.42-.2-.27-.13c-.09 0-.17.29-.14.46a.08.08 0 0 0 .05.05z" fill="#3c3c3c"/><circle cx="35.06" cy="37.9" fill="#bd201f" r="1.18"/><circle cx="32.16" cy="36.37" fill="#484848" r="1.18"/><path d="m31.31 35.24-1.09-.52v.56l.91.44a.22.22 0 0 0 .14 0 .26.26 0 0 0 .04-.48z" fill="#bd201f"/><path d="m31.56 35.36-.71-.36a.73.73 0 0 1 -.24.45l.58.27s.34 0 .39-.33a.08.08 0 0 0 -.02-.03z" fill="#3c3c3c"/><path d="m30.94 35.86-.87-.42a.22.22 0 0 0 -.32.19v.22l1 .46h.1a.21.21 0 0 0 .3-.15.31.31 0 0 0 -.21-.3z" fill="#bd201f"/><path d="m31.08 35.93-.59-.29a1 1 0 0 1 -.2.47l.42.2.27.13c.09 0 .17-.29.14-.46a.07.07 0 0 0 -.04-.05z" fill="#3c3c3c"/><circle cx="29.19" cy="34.79" fill="#bd201f" r="1.18"/></g></svg>