<svg width="16" height="16" viewBox="0 0 16 16" fill="none" xmlns="http://www.w3.org/2000/svg">
<path d="M8 11.7414C8.16035 11.8481 8.32736 11.9445 8.5 12.03V14.5001C8.5 14.6327 8.44732 14.7598 8.35355 14.8536C8.25978 14.9473 8.13261 15 8 15C7.86739 15 7.74021 14.9473 7.64645 14.8536C7.55268 14.7598 7.5 14.6327 7.5 14.5001V12.03C7.67264 11.9445 7.83965 11.8481 8 11.7414ZM12.3812 3.91437C12.0195 3.05096 11.4107 2.31369 10.6312 1.79516C9.85168 1.27664 8.93628 1 8 1C7.06372 1 6.14832 1.27664 5.36881 1.79516C4.5893 2.31369 3.98045 3.05096 3.61876 3.91437C2.83764 4.27131 2.17555 4.84512 1.71129 5.5675C1.24702 6.28989 1.00014 7.13042 1.00001 7.98908C0.993765 10.376 3.00001 12.4381 5.38375 12.5006C6.11693 12.5179 6.84329 12.3564 7.5 12.03V9.80992L4.77626 8.44897C4.65757 8.38964 4.56732 8.28561 4.52536 8.15975C4.4834 8.0339 4.49316 7.89653 4.55251 7.77787C4.61185 7.65921 4.71591 7.56899 4.84179 7.52703C4.96767 7.48508 5.10507 7.49484 5.22375 7.55417L7.5 8.69267V5.50213C7.5 5.36956 7.55268 5.24241 7.64645 5.14866C7.74021 5.05491 7.86739 5.00225 8 5.00225C8.13261 5.00225 8.25978 5.05491 8.35355 5.14866C8.44732 5.24241 8.5 5.36956 8.5 5.50213V7.193L10.7762 6.05451C10.835 6.02513 10.899 6.00762 10.9645 6.00296C11.0301 5.9983 11.0959 6.0066 11.1582 6.02737C11.2205 6.04814 11.2782 6.08099 11.3278 6.12403C11.3774 6.16706 11.4181 6.21946 11.4475 6.27821C11.4769 6.33696 11.4944 6.40093 11.4991 6.46645C11.5037 6.53197 11.4954 6.59777 11.4746 6.66009C11.4539 6.72241 11.421 6.78002 11.378 6.82965C11.3349 6.87927 11.2825 6.91993 11.2237 6.94931L8.5 8.31025V12.03C9.12158 12.3386 9.806 12.4996 10.5 12.5006H10.6137C13 12.4381 15.0069 10.376 15 7.98908C14.9999 7.13042 14.753 6.28989 14.2887 5.5675C13.8244 4.84512 13.1624 4.27131 12.3812 3.91437Z" fill="#8E9954"/>
</svg>
