<svg width="13" height="13" viewBox="0 0 13 13" fill="none" xmlns="http://www.w3.org/2000/svg">
<path d="M5.5 1.875C5.77598 1.87509 5.99985 2.09904 6 2.375C6 2.65109 5.77607 2.87491 5.5 2.875H1.75C1.33588 2.875 1.00015 3.21092 1 3.625V10.5C1.00002 10.9142 1.3358 11.25 1.75 11.25H8.625C9.03911 11.2499 9.37498 10.9141 9.375 10.5V6.75C9.37515 6.47398 9.59895 6.25 9.875 6.25C10.151 6.2501 10.3749 6.47405 10.375 6.75V10.5C10.375 11.4664 9.5914 12.2499 8.625 12.25H1.75C0.783519 12.25 2.26774e-05 11.4665 0 10.5V3.625C0.000148432 2.65863 0.783597 1.875 1.75 1.875H5.5ZM11.75 0C11.7827 -4.41318e-06 11.8155 0.00242713 11.8477 0.00878906C11.8574 0.010711 11.8665 0.0151014 11.876 0.0175781C11.9592 0.0392221 12.0383 0.0812762 12.1035 0.146484C12.1374 0.180355 12.1634 0.218886 12.1855 0.258789C12.2101 0.303004 12.23 0.350227 12.2402 0.401367C12.2467 0.433893 12.25 0.466953 12.25 0.5V4.25C12.2499 4.52606 12.0261 4.74999 11.75 4.75C11.4739 4.74998 11.2501 4.52606 11.25 4.25V1.70703L5.2334 7.72363C5.03817 7.91869 4.72159 7.91871 4.52637 7.72363C4.33116 7.52842 4.33127 7.21188 4.52637 7.0166L10.543 1H8C7.72392 0.999975 7.50007 0.776064 7.5 0.5C7.5 0.223873 7.72388 2.47444e-05 8 0H11.75Z" fill="#0049AA"/>
</svg>
