<svg xmlns="http://www.w3.org/2000/svg" width="116" height="124" viewBox="0 0 116 124">
  <g fill="none" fill-rule="evenodd" stroke-width="2" transform="translate(1 2)">
    <polyline stroke="#444444" stroke-linecap="square" points="108.708 18.323 114 17 114 110.273 72.545 120.636 41.455 110.273 0 120.636 0 27.364 41.455 17 69.669 26.405"/>
    <g stroke="#97BD3D" transform="translate(68)">
      <path stroke-linecap="square" d="M0,35.1627907 C0,20.6947674 17.5813953,0 17.5813953,0 C17.5813953,0 35.1627907,20.6947674 35.1627907,35.1627907 C35.1627907,44.8727316 27.2913363,49.8139535 17.5813953,49.8139535 C7.87145442,49.8139535 0,44.8727316 0,35.1627907 Z"/>
      <path d="M17.5813953 21.9767442L17.5813953 61.5348837M2.93023256 61.5348837L32.2325581 61.5348837M17.5813953 42.4883721L24.9069767 35.1627907M10.255814 27.8372093L17.5813953 35.1627907"/>
    </g>
    <path stroke="#444444" stroke-dasharray="4 7" stroke-linecap="square" d="M19.4512364,89.2999806 C19.4512364,82.8163419 30.3886653,78.4390748 55.6436892,78.4390748 C80.8987131,78.4390748 85.3067091,73.0477933 85.3067091,67.5781689"/>
  </g>
</svg>
