<?xml version="1.0" encoding="utf-8"?>
<!-- Generator: Adobe Illustrator 18.1.1, SVG Export Plug-In . SVG Version: 6.00 Build 0)  -->
<svg version="1.1" id="Layer_1" xmlns="http://www.w3.org/2000/svg" xmlns:xlink="http://www.w3.org/1999/xlink" x="0px" y="0px"
	 viewBox="0 0 15 9" enable-background="new 0 0 15 9" xml:space="preserve">
<path fill-rule="evenodd" clip-rule="evenodd" fill="#999999" d="M5.7,4.5C5.7,5.3,6.5,6,7.5,6s1.8-0.7,1.8-1.5S8.5,3,7.5,3
	S5.7,3.7,5.7,4.5z M15,4.5C13.6,2.3,10.7,0,7.5,0S1.4,2.3,0,4.5C1.4,6.7,4.3,9,7.5,9S13.6,6.7,15,4.5z M4.1,4.5
	c0-1.6,1.5-2.9,3.4-2.9s3.4,1.3,3.4,2.9S9.4,7.4,7.5,7.4S4.1,6.1,4.1,4.5z"/>
</svg>
