<?xml version="1.0" encoding="utf-8"?>
<!-- Generator: Adobe Illustrator 17.1.0, SVG Export Plug-In . SVG Version: 6.00 Build 0)  -->
<!DOCTYPE svg PUBLIC "-//W3C//DTD SVG 1.1//EN" "http://www.w3.org/Graphics/SVG/1.1/DTD/svg11.dtd">
<svg version="1.1" id="Capa_1" xmlns="http://www.w3.org/2000/svg" xmlns:xlink="http://www.w3.org/1999/xlink" x="0px" y="0px"
	 width="14px" height="14px" viewBox="0 0 14 14" enable-background="new 0 0 14 14" xml:space="preserve">
<g>
	<path fill="#A2BD0F" d="M3,13.5c-1.378,0-2.5-1.121-2.5-2.5V3c0-1.378,1.122-2.5,2.5-2.5h8c1.379,0,2.5,1.122,2.5,2.5v8
		c0,1.379-1.121,2.5-2.5,2.5H3z"/>
	<path fill="#8EA630" d="M11,1c1.103,0,2,0.897,2,2v8c0,1.103-0.897,2-2,2H3c-1.103,0-2-0.897-2-2V3c0-1.103,0.897-2,2-2H11 M11,0H3
		C1.343,0,0,1.343,0,3v8c0,1.657,1.343,3,3,3h8c1.657,0,3-1.343,3-3V3C14,1.343,12.657,0,11,0L11,0z"/>
</g>
<circle fill="#333333" cx="7" cy="7" r="2"/>
<g>
</g>
<g>
</g>
<g>
</g>
<g>
</g>
<g>
</g>
<g>
</g>
<g>
</g>
<g>
</g>
<g>
</g>
<g>
</g>
<g>
</g>
<g>
</g>
<g>
</g>
</svg>
