<?xml version="1.0" standalone="no"?><!-- Generator: Adobe Fireworks CS6, Export SVG Extension by Aaron Beall (http://fireworks.abeall.com) . Version: 0.6.1  --><!DOCTYPE svg PUBLIC "-//W3C//DTD SVG 1.1//EN" "http://www.w3.org/Graphics/SVG/1.1/DTD/svg11.dtd"><svg id="Untitled-Page%201" viewBox="0 0 17 17" style="background-color:#ffffff00" version="1.1"	xmlns="http://www.w3.org/2000/svg" xmlns:xlink="http://www.w3.org/1999/xlink" xml:space="preserve"	x="0px" y="0px" width="17px" height="17px">	<defs>		<filter id="filter1" x="-100%" y="-100%" width="300%" height="300%">			<!-- Drop Shadow -->			<feOffset result="out" in="SourceGraphic" dx="0" dy="1"/>			<feColorMatrix result="out" in="out" type="matrix" values="0 0 0 0 0  0 0 0 0 0  0 0 0 0 0  0 0 0 0.251 0"/>			<feGaussianBlur result="out" in="out" stdDeviation="2"/>			<feBlend in="SourceGraphic" in2="out" mode="normal" result="Drop_Shadow1"/>		</filter>	</defs>	<g>		<path filter="url(#filter1)" d="M 2.5 3.75 C 2.5 2.5073 3.5073 1.5 4.75 1.5 L 13.25 1.5 C 14.4927 1.5 15.5 2.5073 15.5 3.75 L 15.5 12.25 C 15.5 13.4927 14.4927 14.5 13.25 14.5 L 4.75 14.5 C 3.5073 14.5 2.5 13.4927 2.5 12.25 L 2.5 3.75 Z" fill="#ffffff"/>	</g>	<path id="Ellipse" d="M 7 8 C 7 6.8955 7.8954 6 9 6 C 10.1046 6 11 6.8955 11 8 C 11 9.1045 10.1046 10 9 10 C 7.8954 10 7 9.1045 7 8 Z" fill="#333333"/></svg>