<svg height="140" viewBox="0 0 127 140" width="127" xmlns="http://www.w3.org/2000/svg"><g fill="none" fill-rule="evenodd" stroke-width="2" transform="translate(1 1)"><path d="m26.6791277 126.238281c3.9443602-2.916076 6.9698283-10.326598 6.9698283-10.326598s3.4067771-2.365991 4.472567-5.385208.0593842-7.119851.0593842-7.119851 3.0192171-8.8638718 1.5971221-11.3486313c-1.4220951-2.4847594-7.4574038-4.085007-7.4574038-4.085007s-2.4847594-4.6163392-7.6355564-5.5039765c-3.3755222-.3563051-6.747919-2.662912-6.747919-7.4574038s4.7944918-12.6082007 4.7944918-12.6082007 4.9726444-2.4316262 5.6821291-4.2069008c.7094848-1.7752747.9532725-5.9134149.9532725-5.9134149s4.7288566-8.3450411 2.0659447-13.1426584c-.8501316-1.5283615-4.7944918-2.662912-4.7944918-2.662912l-5.5321059-8.2981588m90.7359135 85.2256852c-6.032184-2.891072-16.5838161-5.307071-16.5838161-5.307071s-7.7105679-8.5825775-12.7707258-7.873093c-5.0601579.709485-10.2109548 6.391614-10.2109548 6.391614s.3563051 10.476621-1.2439425 11.011079c-1.5971221.531332-5.8602816-2.309733-8.5231936-.178153s-1.1282996 8.138759-1.1282996 8.138759-5.797772 1.80653-6.5072568 3.759957c-.7094847 1.953427 2.1097014 6.3041 2.6472846 7.973109" stroke="#555"/><path d="m69.7201618 12.9301255c-2.3722421-.2719171-4.7663625-.4281913-7.2104906-.4281913-34.5240914 0-62.5096712 27.9855798-62.5096712 62.5096712 0 34.5240916 27.9855798 62.5096716 62.5096712 62.5096716s62.5096708-27.98558 62.5096708-62.5096716c0-4.2319047-.42194-8.3669195-1.222064-12.3612875" stroke="#555"/><g stroke="#97bd3d" stroke-linecap="square"><circle cx="93.765" cy="28.129" r="9.376"/><path d="m121.893859 27.5042553c0 19.3779981-28.1293522 44.3818666-28.1293522 44.3818666s-28.1293521-25.0038685-28.1293521-44.3818666c0-17.4058179 14.5366241-27.5042553 28.1293521-27.5042553 13.5927282 0 28.1293522 10.0984374 28.1293522 27.5042553z"/></g></g></svg>