<?xml version="1.0" encoding="UTF-8"?>
<svg width="39px" height="40px" viewBox="0 0 39 40" version="1.1" xmlns="http://www.w3.org/2000/svg" xmlns:xlink="http://www.w3.org/1999/xlink">
    <!-- Generator: sketchtool 55.1 (78136) - https://sketchapp.com -->
    <title>25B9C503-1191-439C-92DD-83DBFA89DA6C</title>
    <desc>Created with sketchtool.</desc>
    <g id="HOME_JC" stroke="none" stroke-width="1" fill="none" fill-rule="evenodd">
        <g id="Forest-Watcher" transform="translate(-620.000000, -92.000000)" fill="#FFFFFF" fill-rule="nonzero">
            <g id="applications">
                <g id="Group-2" transform="translate(522.000000, 92.000000)">
                    <g id="logo" transform="translate(98.000000, 0.000000)">
                        <path d="M38.8401552,18.0477879 C39.0735606,19.5775671 39.0476975,21.187257 38.7864929,22.85562 C38.4063668,25.2803128 37.6245171,27.5969697 36.2183869,30.8576974 C36.1388683,31.0417128 36.0650952,31.2242789 35.9558037,31.5036606 C35.9410424,31.541395 35.9279058,31.5750485 35.8999797,31.6466293 C35.4547143,32.7877447 35.2072455,33.2984832 34.7493814,33.8657615 C34.1020403,34.6684747 33.445398,35.206541 31.9795421,36.2467409 C30.2200344,37.4944183 29.3950924,38.0078388 28.261551,38.4547084 C27.39946,38.7949188 26.6217378,38.9841021 25.0985364,39.2742608 C20.8833366,40.0780461 18.5067137,40.2458694 15.9689963,39.6178745 C15.4639256,39.4930085 15.0662557,39.3678776 14.1922865,39.0726242 C12.9108292,38.6398964 12.3175852,38.4713346 11.6029696,38.370817 C10.915361,38.2735806 10.3543258,38.2684451 9.07779974,38.3123981 C8.93671062,38.3172561 8.87348634,38.3194 8.79470433,38.3219489 C8.25706142,38.3393432 7.88799417,38.3440343 7.51452379,38.3336695 C5.81747038,38.2865718 4.43375774,37.8463853 3.53035618,36.8942619 C3.0096147,36.3452943 2.68141662,35.6782843 2.4844253,34.8537833 C2.33808842,34.2412948 2.28195897,33.7256225 2.20232125,32.5609896 C2.19048429,32.3878843 2.18581686,32.3203291 2.17929059,32.2289255 C2.0856572,30.9175453 1.96191265,30.1699288 1.65999742,29.4490832 C1.55895376,29.2074635 1.46077543,29.0170025 1.22611541,28.5899855 C0.948393264,28.0846068 0.831327552,27.8532486 0.713506741,27.5461046 C0.485308367,26.9524383 0.399909617,26.4533565 0.285477117,25.3537841 C-0.0875396636,21.7730221 -0.121525624,20.0997955 0.342181786,18.1120982 C0.426990392,17.7484964 0.507910462,17.4613366 0.697411685,16.8260679 C0.980217967,15.877776 1.09290734,15.4420723 1.17146901,14.9176634 C1.22745029,14.5455943 1.25054842,14.2420625 1.28604694,13.5531299 C1.31046535,13.0803187 1.3248308,12.8554304 1.34939829,12.5999403 C1.72668079,8.67088236 4.41906456,5.04796908 8.10586724,3.50820817 C8.40397243,3.3835992 8.65128351,3.29135304 9.18256913,3.10124016 C9.95982087,2.82311872 10.2940293,2.69332863 10.6915251,2.50096905 C11.1166695,2.29531113 11.4484532,2.09781197 12.1760332,1.63561063 C13.1082251,1.0434462 13.5406906,0.794993995 14.1140571,0.558618116 C15.2007446,0.110654562 16.402086,-0.0517681038 17.7798881,0.0140781247 C18.8359116,0.0645463067 19.8299881,0.221466058 21.4662324,0.554865985 C23.6680768,1.003686 24.7376187,1.2914416 25.923611,1.84718266 C26.8331839,2.27427988 27.5142946,2.7141611 28.9506354,3.73724666 C29.7861076,4.33142106 30.157431,4.59551914 30.6215907,4.92571667 C31.2342927,5.36158541 31.775385,5.74664975 32.292492,6.11482966 C33.0783539,6.67377685 33.4282209,6.94832415 33.8115967,7.3474578 C34.2814221,7.83747252 34.5991814,8.31076069 35.1742175,9.29347233 C37.4084029,13.1082212 38.431376,15.3696673 38.8401552,18.0477879 Z M38.2564518,18.1347336 C37.8619535,15.5501745 36.8622433,13.3401546 34.6632277,9.58545631 C34.1106477,8.64112122 33.8111388,8.19501624 33.3832258,7.7487147 C33.0338916,7.3850221 32.7036408,7.12586801 31.9474842,6.5880488 C31.4303295,6.2198349 30.8893004,5.83481556 30.2766591,5.39899006 C29.8125284,5.06881315 29.4412195,4.80472529 28.6055932,4.21044117 C27.197808,3.20769551 26.5369626,2.78090224 25.6704321,2.3740158 C24.5408483,1.84470713 23.5036079,1.56564214 21.3469756,1.12603809 C17.9633218,0.436587261 16.1529246,0.350066985 14.3413733,1.0968401 C13.8105209,1.31568913 13.3985656,1.55235816 12.5188518,2.11118606 C11.7485429,2.60053127 11.4035918,2.80586853 10.9511487,3.02473179 C10.5282501,3.22938455 10.1807979,3.36431788 9.39903132,3.64405482 C8.86195826,3.83623853 8.62132262,3.92599476 8.33579528,4.04534615 C4.84869123,5.50170467 2.29383181,8.93956304 1.93705639,12.6550583 C1.91353865,12.8996316 1.89957808,13.1181814 1.87819239,13.5321972 C1.83911812,14.2904842 1.81506695,14.6065398 1.75538086,15.0032318 C1.67154485,15.562848 1.55406324,16.0170805 1.27734677,16.9449603 C1.07747195,17.6150083 0.998676233,17.8946293 0.917404101,18.2430692 C0.473169643,20.147295 0.506266382,21.7767432 0.872678759,25.2941064 C0.981874199,26.3433562 1.06150731,26.8087428 1.26542432,27.3392406 C1.37074543,27.6137993 1.47984247,27.8294088 1.74369063,28.3095406 C1.98946901,28.75679 2.09393365,28.9594461 2.20550551,29.2262415 C2.53850107,30.0212935 2.67027575,30.817425 2.76812768,32.1878878 C2.77470973,32.2800726 2.77940145,32.3479794 2.79127911,32.5216799 C2.9436795,34.750404 3.15845515,35.6493408 3.96104722,36.4954364 C4.73706917,37.3133105 5.97636058,37.7075537 7.53109916,37.7507017 C7.88999887,37.7606622 8.24872836,37.7561025 8.77538406,37.7390636 C8.85361561,37.7365326 8.916563,37.7343981 9.05723966,37.7295543 C10.3686127,37.6844014 10.9529167,37.6897499 11.6863914,37.7934725 C12.4489761,37.9007373 13.0675577,38.0764983 14.306431,38.4948384 C15.2415868,38.8107588 15.6286562,38.9325543 16.1123575,39.0521371 C18.5412562,39.6532033 20.8522366,39.4900153 24.9867224,38.7016212 C26.474555,38.4181999 27.2257454,38.2354706 28.0426816,37.9130798 C29.1168781,37.4896054 29.9147217,36.9930501 31.6352581,35.7730075 C33.0573461,34.7638662 33.6853647,34.2492547 34.2877764,33.5022547 C34.695998,32.9964817 34.9251989,32.5234455 35.3491902,31.436851 C35.3771214,31.3652569 35.3903431,31.3313854 35.4051949,31.2934197 C35.5167564,31.0082352 35.5926755,30.8203584 35.6754064,30.6289096 C37.0637923,27.4093298 37.8322011,25.1324987 38.2031391,22.7664132 C38.4555829,21.1540073 38.4805002,19.6031852 38.2564518,18.1347336 Z M3.89121004,28.7430885 C3.41319441,27.7176389 3.20077745,27.2618784 2.93537519,26.6921369 C2.39540753,25.5326465 2.17824321,25.0002211 2.00586863,24.2976198 C1.66901139,22.9196871 1.72562338,21.7556703 2.08370441,19.3006359 C2.64146121,15.4973305 2.98631197,13.7963459 3.75316784,11.7796656 C4.7696431,9.10815955 6.36797451,6.94022668 8.46220994,5.62920255 C9.27155777,5.12232649 10.0518577,4.77317953 11.5015325,4.21563562 C12.8819976,3.68462359 14.2579265,3.17674055 15.6291222,2.69241345 C17.0397894,2.1936032 17.7952176,1.99242908 18.6982957,1.95414475 C19.6481409,1.91440955 20.6130324,2.10168315 21.7998054,2.49748843 C24.4725588,3.38944137 26.4622521,4.51553199 30.6417457,7.2519617 C31.7509832,7.97744995 32.2471875,8.34736776 32.7653966,8.90570987 C33.235685,9.41355222 33.6114673,9.98935174 34.0721336,10.8434075 C35.4998934,13.4879182 36.5099134,16.3502194 37.0551054,19.2969782 C37.1856772,20.0021568 37.1450922,20.5824886 36.9652341,21.4423875 C36.9471583,21.5288073 36.9422338,21.5516352 36.8959214,21.7650091 C36.7569971,22.4050708 36.7019505,22.7317672 36.6814915,23.1458919 C36.5884967,25.0336501 36.2560447,26.7302732 35.6345015,28.2741112 C33.9247532,32.5227405 29.887114,35.844251 25.1103276,37.1254992 C20.7269461,38.3020696 15.7945442,37.8446111 11.1438837,35.9874556 C10.226099,35.6213233 9.70465014,35.5478655 9.32427582,35.82488 C9.27445786,35.8610925 9.23310746,35.8982159 9.1405542,35.987333 C9.04196437,36.0822631 8.99551848,36.1247132 8.93072959,36.1753791 C8.20749635,36.7415213 7.15870528,36.5620276 6.16975418,35.9325497 C5.14123627,35.2773628 4.40113044,34.4621233 4.08304532,33.5090596 C3.73412065,32.4635928 3.98904404,31.2726759 4.75130299,30.5885211 C4.52561913,30.1040975 4.31068561,29.6429566 3.89121004,28.7430885 Z M36.4744335,19.4018827 C35.9401979,16.5143427 34.9503668,13.709255 33.5512403,11.1177792 C33.1118586,10.3031844 32.7595828,9.76340304 32.330095,9.29961902 C31.8553402,8.78809693 31.385369,8.43773571 30.3157767,7.73817699 C26.1786248,5.02946964 24.2189879,3.92038972 21.6109494,3.05003355 C20.4869633,2.67516859 19.5878087,2.50065372 18.7234351,2.53681332 C17.8981106,2.57180146 17.1847236,2.76177983 15.8279417,3.24153628 C14.46187,3.72405346 13.0910886,4.23003645 11.7156882,4.75910037 C10.2998821,5.3036184 9.54603264,5.64093007 8.77820745,6.12180142 C6.80292968,7.35835617 5.28019276,9.42375476 4.30573859,11.9848206 C3.55883736,13.9490243 3.21958289,15.622405 2.66793729,19.3840379 C2.32052376,21.7659357 2.2663813,22.8791756 2.5796136,24.1604696 C2.73994229,24.8139714 2.94760109,25.3230919 3.47162533,26.4483465 C3.73698509,27.0179968 3.94938765,27.4737263 4.42738161,28.4991293 C4.90539725,29.5245788 5.11781421,29.9803394 5.38320284,30.5500517 C5.44222695,30.6767593 5.40216175,30.8270203 5.28761264,30.9085538 C4.60223054,31.3963939 4.342987,32.4255515 4.64365573,33.3264313 C4.91388556,34.1361085 5.56515005,34.8534876 6.48954729,35.4423476 C7.29007076,35.9518892 8.09066521,36.0889058 8.56425248,35.7181848 C8.60802734,35.6839521 8.64439046,35.6507175 8.72575128,35.5723768 C8.84047146,35.4619157 8.89548686,35.4125243 8.97423279,35.3552841 C9.58453799,34.910818 10.2602783,35.0060113 11.364998,35.4467176 C15.9020614,37.2585103 20.7040596,37.7038744 24.9556135,36.5626887 C29.5598653,35.3277184 33.4478217,32.1293424 35.0859812,28.0586074 C35.6816471,26.5790457 36.001874,24.9448111 36.0918911,23.1175012 C36.1143489,22.6629158 36.1734698,22.3120386 36.3187421,21.6427299 C36.3646466,21.4312357 36.3695069,21.4087053 36.3871475,21.324366 C36.5529957,20.5314483 36.5887967,20.0195237 36.4744335,19.4018827 Z M4.51887925,23.3405176 C4.45919244,23.156917 4.43296608,22.9917957 4.40451821,22.6987925 C4.36223727,22.2586407 4.3298596,22.0985756 4.23783742,21.9364545 C3.84510316,21.2447529 4.01736935,18.6739887 4.42439147,17.4176415 C4.5690135,16.9711909 4.63923407,16.6395927 4.76411385,15.9051276 C4.89345623,15.1444165 4.9680457,14.7921874 5.12380989,14.3113408 C5.62169435,12.7766808 5.89254415,12.0950169 6.38966785,11.323073 C6.90400172,10.5223607 7.58124382,9.83001763 8.59223822,8.99325094 C10.8221305,7.1500558 13.1121886,5.8623818 15.49381,5.22397737 C18.209719,4.49505332 21.0337753,4.66698485 23.3366158,5.79638397 C23.4358999,5.84518608 23.5150376,5.88566137 23.687714,5.97515328 C24.0919287,6.18463725 24.2739853,6.2719154 24.4999785,6.35598771 C24.5897393,6.3892836 24.6679268,6.41522055 24.8324145,6.46754318 C25.1063186,6.55466332 25.2258078,6.59594507 25.3752241,6.6602638 C25.7178363,6.80832452 25.9602713,6.96790708 26.4746061,7.35059522 C26.7656974,7.56727197 26.9985582,7.74070986 27.5224795,8.13101305 C28.0463395,8.5212705 28.2791593,8.69467793 28.5703349,8.9114175 C30.3305616,10.223583 31.0934576,10.8676615 31.8784317,11.8240655 C33.5111085,13.8140152 34.4455567,16.6853079 34.4715224,19.4865291 C34.5030802,23.0209464 34.1870032,25.5085568 33.1983117,27.7045213 C31.4392015,31.6098754 27.2753277,34.3897008 22.3379634,35.3625768 C21.5479437,35.5186912 20.9953156,35.5735025 20.4312071,35.5145451 C19.8721963,35.4555662 19.4246768,35.3141223 18.5637563,34.9713583 C17.8211362,34.6754076 17.5168096,34.5679422 17.1361506,34.4825502 C16.0778463,34.2446228 15.5015114,34.1765485 13.9440701,34.0740445 C13.0945668,34.017525 12.3789143,33.9099873 11.7567491,33.7092201 C11.1287317,33.5065645 10.6461986,33.2196414 10.3447043,32.828929 C9.89983525,33.3669201 9.22928398,33.7075447 8.54270042,33.697597 C7.63043891,33.683363 6.78251574,33.0103092 6.63527969,32.1439259 C6.50547561,31.3809936 6.98000664,30.5891705 7.67838643,30.3088357 C6.37186762,28.1099376 5.31009308,25.7682991 4.51887925,23.3405176 Z M31.4198954,12.1913438 C30.6752382,11.2840614 29.9368675,10.6606885 28.2149558,9.37708491 C27.9238645,9.16040822 27.6910038,8.98697026 27.1670824,8.59666708 C26.6432225,8.20640962 26.4104026,8.0330022 26.1194412,7.81642209 C25.6419306,7.46113281 25.4249366,7.31829682 25.1390472,7.19474866 C25.0139258,7.14088834 24.9068271,7.10388735 24.6606577,7.02558879 C24.4782654,6.96757093 24.3938109,6.93955512 24.2922258,6.90187295 C24.0359218,6.80652488 23.8389438,6.7120933 23.4238143,6.49695284 C23.2445369,6.40403998 23.1679341,6.36486117 23.0739083,6.31864357 C20.908099,5.25644977 18.2316403,5.09350416 15.6484716,5.78680191 C13.3572051,6.40098637 11.140028,7.64768023 8.97117093,9.44042438 C8.00283236,10.2418864 7.36341057,10.8955658 6.88789242,11.6358497 C6.42685421,12.3517596 6.16841427,13.0021908 5.68598024,14.489227 C5.5413582,14.9356777 5.47113763,15.2672758 5.34625785,16.0017409 C5.21691547,16.762452 5.142326,17.1146811 4.98659844,17.5954148 C4.62542502,18.7102417 4.46259172,21.1402364 4.75268778,21.6511668 C4.89884549,21.9086618 4.9421288,22.1226411 4.9877155,22.597386 C5.01671489,22.8964101 5.03793348,23.0300026 5.0808374,23.1619783 C5.89889842,25.6721381 7.01128535,28.0889534 8.38827595,30.3472202 C8.50161609,30.5330982 8.37707956,30.7717968 8.15808216,30.7884314 C7.58924999,30.8316386 7.11830956,31.4647627 7.21742246,32.0473056 C7.31608936,32.6278927 7.91659883,33.1045575 8.55168902,33.114467 C9.17481985,33.1234953 9.80330097,32.7203206 10.1039563,32.1316292 C10.2214191,31.9016336 10.5609635,31.9240946 10.6463426,32.1675084 C10.930547,32.9777679 12.1456572,33.3698731 13.9835199,33.4921507 C15.5690415,33.5965027 16.172357,33.6677638 17.2669929,33.9138593 C17.6885057,34.0084158 18.0127952,34.1229308 18.7129507,34.4019662 C19.5962556,34.7536622 20.0060127,34.8831708 20.493598,34.9346142 C20.984543,34.9859248 21.4859393,34.9361947 22.2223468,34.7906746 C26.9860854,33.8520104 30.9859694,31.1816656 32.6589826,27.4674531 C33.6050271,25.3662113 33.9121175,22.9493275 33.881246,19.4917716 C33.8564456,16.8162766 32.9636188,14.0728746 31.4198954,12.1913438 Z M28.3244994,11.6952688 C29.8955193,12.8303723 31.0152872,14.7818359 31.469765,16.9285291 C32.0856974,19.8371569 32.2709553,21.7440684 31.9120653,23.5471403 C31.6419138,24.9036432 31.1731787,25.935181 30.0005401,28.0631812 C29.8328656,28.3682608 29.7378645,28.5098768 29.5702964,28.6563414 C29.5207267,28.6998541 29.4788629,28.751045 29.390284,28.8724811 C29.1965933,29.1380224 29.0904157,29.2496609 28.8921645,29.3365366 C27.988538,29.7320958 27.5583432,30.0532987 27.406405,30.5563996 C27.3426938,30.7672765 27.1937931,30.9290024 26.9382679,31.1311422 C26.9056086,31.1569782 26.7350749,31.2872937 26.6968791,31.3186461 C26.551374,31.4366452 26.4209484,31.4849445 26.1530832,31.5523536 C25.8203468,31.6349611 25.5875812,31.7086031 25.0902801,31.879803 C24.574914,32.057221 24.3294117,32.1349383 23.9771379,32.2227418 C23.280837,32.3956948 22.9699126,32.4952977 22.6371846,32.6805001 C22.5789833,32.7130665 22.5309784,32.7421653 22.4243162,32.8085458 C22.1732925,32.9647692 22.0552085,33.0302754 21.8878206,33.0925165 C21.4378869,33.2607154 20.962744,33.2404514 20.3292469,33.0922759 C19.8010398,32.9691707 19.3881664,32.8383251 18.4810615,32.524598 C17.2874954,32.1119322 16.7370033,31.9513784 16.0693451,31.8540095 C15.7704732,31.8105087 15.5196209,31.7880332 14.9504355,31.7472922 C13.1690313,31.6193785 12.3964483,31.4292787 11.6793885,30.7354241 C11.4954465,30.5572989 11.3675917,30.3944073 11.1203973,30.046914 C10.7944364,29.58866 10.6419554,29.4095527 10.4169862,29.2527472 C10.3393402,29.1988605 10.2648624,29.1562099 10.1060406,29.0716158 C9.76331197,28.889101 9.61640687,28.793993 9.45971207,28.6224034 C9.2560461,28.3994529 9.15783068,28.1720791 9.03052131,27.7376064 C8.9932745,27.6099803 8.98225448,27.5727736 8.96965132,27.5318655 C8.82005401,27.0465608 8.63643256,26.6599908 8.20018525,25.8484822 C7.87588448,25.2452827 7.74176917,24.9825246 7.59587445,24.6453883 C7.21154534,23.7567813 7.02836354,23.0067254 6.71671197,21.3265761 C6.44436092,19.8514058 6.37458715,19.1622706 6.49908815,18.3107364 C6.58330122,17.735632 6.72567995,17.2932944 7.08894715,16.3479518 C7.43713938,15.4401287 7.71609451,14.7138937 8.34399716,13.0800067 C8.44812627,12.8087135 8.60658192,12.6778064 8.9245414,12.514893 C9.0057482,12.4733355 9.02327978,12.4642035 9.03982067,12.4553824 C9.14337875,12.4001559 9.21096893,12.3544538 9.26721004,12.2988898 C9.37615357,12.1910838 9.47016586,12.077141 9.6447286,11.8491366 C9.98502337,11.4044805 10.147184,11.2219104 10.3837146,11.0508391 C10.5668822,10.9185317 10.7003966,10.7831616 10.9887017,10.456288 C11.0902356,10.3411713 11.1359152,10.2899896 11.1935993,10.2275599 C12.1816765,9.15843439 13.5339189,8.42329042 14.9786004,8.17027372 C15.0357392,8.16034858 15.0812436,8.15296251 15.1821695,8.13696415 C15.5127745,8.08454701 15.6570141,8.05477437 15.8164364,7.99864805 C15.9721377,7.94340824 16.0968854,7.87965537 16.3740893,7.72211215 C16.522755,7.63762018 16.5890049,7.60085815 16.6742336,7.55690747 C18.2214735,6.75850369 20.2150189,6.93801974 22.1146638,7.85330339 C22.9235179,8.24302405 23.535326,8.62692742 24.8383877,9.51492844 C25.7538992,10.138833 26.158937,10.404449 26.6735398,10.7043317 C26.7976573,10.7766732 26.8983279,10.8336821 27.1261551,10.9614552 C27.7355512,11.3032247 28.0035897,11.4637177 28.3244994,11.6952688 Z M27.9761937,12.1661239 C27.6797259,11.9522088 27.4245301,11.7994056 26.8347424,11.4686331 C26.6040581,11.3392577 26.50149,11.2811742 26.3736193,11.2066452 C25.8430363,10.89745 25.4301739,10.626703 24.5295845,10.0129674 C23.2243095,9.12345789 22.6294649,8.75019903 21.8559131,8.37748755 C20.1095065,7.53603694 18.3046921,7.3735159 16.9474476,8.07387865 C16.8716675,8.11295687 16.8101263,8.14710605 16.6721319,8.22553312 C16.3611243,8.40228804 16.2153806,8.47677099 16.0152637,8.54776766 C15.8101176,8.61999269 15.6414965,8.65479793 15.2856712,8.71121406 C15.177659,8.72833575 15.1340972,8.73540653 15.0812271,8.74458986 C13.7650609,8.97509909 12.5298509,9.64661864 11.6295436,10.6207749 C11.5759485,10.6787793 11.5323129,10.7276707 11.4372805,10.835416 C11.1166712,11.1989154 10.9625601,11.3551685 10.7322575,11.5215228 C10.5578286,11.647679 10.4213388,11.8013474 10.1564417,12.1474726 C9.92513372,12.4496278 9.81886608,12.5784243 9.68478261,12.7111075 C9.58105721,12.8135843 9.46978321,12.888824 9.32021471,12.9685874 C9.24409591,13.0082032 9.22536643,13.0177626 9.19630524,13.0326097 C8.99701525,13.1347202 8.9344864,13.186378 8.89590251,13.2869026 C8.26800245,14.9207832 7.98907754,15.6469393 7.64088033,16.5547752 C7.29281917,17.4605468 7.15927489,17.8754378 7.08331565,18.3941755 C6.97104352,19.1620694 7.03651087,19.808671 7.29738697,21.2216885 C7.60109805,22.8590295 7.77738046,23.5808353 8.13867177,24.4161764 C8.27586895,24.7332142 8.40495474,24.9861185 8.70368421,25.5417546 C9.17530537,26.4190632 9.37011657,26.8291904 9.53435843,27.3620029 C9.54807945,27.4065396 9.55971316,27.4458182 9.58107801,27.5190629 C9.7009595,27.9283774 9.77279429,28.0946787 9.89796432,28.2317006 C9.9942065,28.3370913 10.1025359,28.4072248 10.3713172,28.5503601 C10.5649748,28.6535075 10.6536639,28.7042963 10.7567877,28.7758657 C11.0561732,28.9845389 11.2387583,29.1990072 11.5870821,29.6886994 C11.8301518,30.0303968 11.9426735,30.1737535 12.0925129,30.3188545 C12.6736908,30.8812246 13.3500134,31.0476387 14.9240389,31.1606713 C15.5769379,31.2074095 15.8371985,31.230728 16.1554639,31.2770515 C16.8719991,31.3815484 17.4478944,31.5495113 18.6132857,31.9524308 C19.5637198,32.2811413 19.9633966,32.4078047 20.46501,32.524712 C20.9939803,32.6484385 21.3653599,32.6642772 21.6794026,32.5468791 C21.7975311,32.5029541 21.8923118,32.4503752 22.1078415,32.3162413 C22.2241113,32.2438816 22.2774173,32.2115695 22.3468544,32.1727169 C22.7411943,31.9532192 23.0862711,31.8426759 23.8329733,31.6572039 C24.1635042,31.5748196 24.396178,31.5011634 24.8886434,31.3316291 C25.4090276,31.1524826 25.6547129,31.0747531 26.0082958,30.9869717 C26.1919294,30.9407586 26.2665331,30.9131313 26.3209765,30.8689868 C26.3673754,30.8308926 26.5439714,30.6959444 26.5693108,30.675899 C26.734088,30.5455478 26.8227378,30.4492624 26.8407559,30.3896243 C27.0584981,29.6686317 27.6000816,29.264261 28.6529311,28.8033801 C28.7218316,28.7731872 28.7787681,28.7133224 28.9040537,28.541562 C29.0252069,28.3754675 29.0854503,28.3018021 29.178687,28.2199591 C29.2778752,28.1332622 29.3467023,28.0306631 29.481938,27.7846056 C30.6262462,25.7080164 31.0781671,24.7134814 31.3328639,23.4345806 C31.6719477,21.7310154 31.4924854,19.8837599 30.8919713,17.0479422 C30.4653334,15.0327488 29.4183408,13.2081134 27.9761937,12.1661239 Z M26.755116,28.3197054 C25.0343342,30.3782746 22.3767606,31.4588575 20.0848671,30.8052006 C19.7753893,30.7172296 19.5376035,30.6265069 19.0194714,30.4112173 C18.4136775,30.1595387 18.1378313,30.0591591 17.800164,29.9835355 C17.374553,29.8880166 16.9399253,29.8607174 16.2297422,29.864142 C16.1620782,29.8644683 16.1074614,29.8648811 15.9857399,29.865913 C14.431766,29.8790866 13.7646102,29.7883659 13.024296,29.2932913 C12.4439561,28.9050844 12.1330788,28.4719639 11.5521646,27.4236734 C11.3369848,27.0353708 11.2391313,26.8658072 11.1105933,26.6677783 C10.9263064,26.3836512 10.7562583,26.1615075 10.3659571,25.6784289 C9.79406022,24.9705733 9.55308495,24.6392746 9.31699094,24.1846026 C8.92738301,23.4343872 8.73115605,22.5742541 8.65252406,21.5032356 C8.32121993,16.9993419 10.5408883,12.5359786 14.2936306,10.7350481 C16.5527391,9.6500022 19.3044236,9.53316933 21.8052807,10.363209 C24.1539975,11.1430208 26.2711659,12.7269283 27.8484562,14.8175458 C30.9225305,18.8920381 30.3412074,24.0289708 26.755116,28.3197054 Z M21.6172679,10.9160347 C19.2591059,10.1333558 16.6673927,10.2433966 14.5516341,11.2595917 C11.0313559,12.9489633 8.92647691,17.1815052 9.24127462,21.4610041 C9.31466804,22.4606692 9.49447002,23.248806 9.84220221,23.9183867 C10.054438,24.3271124 10.2797498,24.6368766 10.8131483,25.2970817 C11.2302907,25.813382 11.4086558,26.0463907 11.6075515,26.3530411 C11.7458637,26.5661282 11.8482039,26.7434667 12.0669955,27.138287 C12.6056548,28.1103262 12.8798835,28.4923872 13.3552171,28.8103522 C13.9605429,29.2151551 14.5469182,29.2948913 15.9806749,29.2827368 C16.1031224,29.2816988 16.158228,29.2812822 16.226861,29.2809513 C16.9789622,29.2773245 17.4501065,29.3069173 17.930796,29.4147975 C18.3128028,29.5003512 18.6112107,29.608941 19.2237317,29.8634132 C19.745093,30.0800443 19.9683429,30.1652211 20.2483369,30.2448112 C22.2917158,30.8275907 24.7177359,29.8411586 26.2999499,27.9483579 C29.7245711,23.8508214 30.2727626,19.0066593 27.37517,15.1660823 C25.8673108,13.167492 23.8477099,11.6565774 21.6172679,10.9160347 Z M27.1097067,23.2044045 C27.0258982,23.3501868 26.9424545,23.4711426 26.7795327,23.6926386 C26.5214509,24.0432954 26.4257216,24.1903876 26.3487481,24.3714705 C26.3357463,24.4022266 26.3244711,24.434022 26.3147085,24.4672367 C26.2809271,24.5821686 26.2690555,24.6797039 26.2538768,24.9134495 C26.2347561,25.2078983 26.2157788,25.3439205 26.1504951,25.5174982 C25.8839184,26.2249594 25.0541076,27.3249624 24.4899593,27.5265871 C24.3038464,27.5936418 24.1591172,27.611052 23.8438302,27.6253534 C23.7133194,27.6312896 23.6539893,27.6350931 23.5900384,27.6424372 C23.2907014,27.6770376 23.0435166,27.7675128 22.5264734,28.0064809 C21.9793429,28.2594475 21.7360843,28.3546021 21.4062204,28.4185163 C20.8633182,28.5235033 20.327105,28.4624439 19.6356072,28.2643536 C19.4648037,28.2154243 19.3361092,28.1748995 19.0235065,28.0736512 C18.457116,27.8902041 18.1973339,27.8158483 17.8840443,27.7602484 C17.6243604,27.7144085 17.3745071,27.6925549 16.9352642,27.6697329 C16.8865181,27.6672159 16.8865181,27.6672159 16.8375844,27.6647208 C15.8574186,27.6147362 15.424077,27.5515867 14.9072018,27.3133251 C14.0796707,26.9331622 13.589476,26.3287703 12.8378576,25.0315948 C12.623383,24.6630408 12.452275,24.3678528 12.0677224,23.7035705 C11.7955675,23.2359598 11.6779756,22.9983805 11.5923251,22.6813357 C11.5096199,22.3695081 11.4929676,22.1155205 11.4929676,21.5761809 L11.4929676,18.2273837 C11.4929676,17.3487699 11.5272348,16.9381419 11.6958278,16.4497903 C11.9201959,15.7983523 12.31043,15.2973114 13.0704411,14.5461271 C14.2704551,13.360477 15.157841,12.6844675 16.2295312,12.2762669 C18.1414964,11.5491952 20.4451272,11.9093795 22.57388,13.0806792 C25.9186566,14.9186402 28.0676238,18.4296466 27.5723594,21.7607512 C27.4890384,22.3222015 27.345434,22.7946137 27.1097067,23.2044045 Z M26.5964578,22.9163139 C26.7914491,22.577339 26.9147679,22.17166 26.9883147,21.6760719 C27.4446755,18.6066297 25.4322383,15.3186876 22.2868084,13.5902679 C20.2982317,12.4960971 18.169862,12.1633157 16.4417265,12.8204817 C15.4663124,13.1920112 14.6340439,13.8260324 13.4878972,14.95846 C12.7881782,15.6500524 12.4415095,16.0951575 12.2545929,16.6378573 C12.1139055,17.0453769 12.0832679,17.4125111 12.0832679,18.2273837 L12.0832679,21.5761809 C12.0832679,22.0659934 12.0976895,22.2859563 12.163003,22.5322231 C12.2307343,22.7829289 12.332543,22.9886202 12.5800058,23.4138075 C12.9644671,24.0779318 13.135428,24.3728662 13.3498812,24.7413845 C14.0423139,25.9364138 14.4772126,26.4726278 15.1564432,26.7846626 C15.581098,26.9804136 15.9638384,27.0361891 16.8680134,27.0822984 C16.9170375,27.0847982 16.9170375,27.0847982 16.9662654,27.08734 C17.4285621,27.1113598 17.6974651,27.1348797 17.9881404,27.1861904 C18.337629,27.2482144 18.6150297,27.327613 19.2073966,27.5194736 C19.5133707,27.6185749 19.6380238,27.6578272 19.7999964,27.7042267 C20.4092962,27.8787701 20.8593098,27.9300138 21.2927222,27.8462001 C21.5593805,27.7945325 21.7726867,27.7110943 22.2485084,27.4910963 C22.8496848,27.21324 23.1387881,27.1074217 23.5216615,27.0631653 C23.6035923,27.0537563 23.6729219,27.0493118 23.8044633,27.0433276 C24.0721629,27.0311842 24.1770131,27.0185712 24.2884355,26.9784279 C24.6521791,26.8484264 25.385313,25.8765791 25.5972227,25.3141973 C25.6356773,25.2119532 25.6493364,25.1140501 25.6647875,24.8761108 C25.6826936,24.600365 25.6981018,24.4737733 25.7478258,24.3046011 C25.7636786,24.2506663 25.7823038,24.1981442 25.8042697,24.1461846 C25.9050636,23.9090617 26.0171912,23.7367728 26.277959,23.3824709 C26.4524225,23.1452995 26.526786,23.0375059 26.5964578,22.9163139 Z M25.1700265,19.0702519 C25.3824092,20.322442 25.4254679,21.4481522 25.1985709,22.2630484 C25.1404861,22.4722929 25.0588051,22.6881942 24.9538191,22.9161334 C24.7932809,23.264684 24.6073868,23.5907785 24.2860327,24.1110459 C23.840872,24.8317542 23.8404433,24.8324602 23.7094817,25.0741061 C23.5701904,25.3303663 23.4803519,25.4540612 23.3051384,25.562566 C23.0843576,25.6984345 22.9076739,25.7097488 22.5248954,25.6759837 C22.4966644,25.6734947 22.4846274,25.6724482 22.4693254,25.6711726 C22.3614274,25.6621783 22.2938446,25.6602441 22.2334161,25.6657372 C22.0879992,25.6788081 21.9577367,25.7331609 21.6939,25.8794832 C21.6776895,25.8884795 21.6776895,25.8884795 21.6613033,25.8975832 C21.3825625,26.052427 21.2455396,26.117289 21.0540052,26.1658523 C20.6505947,26.2682192 20.2658363,26.2030664 19.7812722,26.0041935 C19.6686641,25.9579773 19.59183,25.9235011 19.3781631,25.8252329 C18.9618985,25.6337874 18.7649438,25.5577301 18.5357953,25.5156574 C18.326771,25.4773844 18.1094409,25.4768574 17.7589335,25.5038137 C17.7202406,25.5067894 17.688158,25.5093811 17.6192502,25.5150396 C16.9112046,25.5731822 16.5950064,25.5631086 16.2003162,25.4029395 C15.8914745,25.2768936 15.6374909,25.0776081 15.3279716,24.7586553 C13.6420319,23.0278608 12.84304,20.5918017 13.3540589,18.4222388 C13.9058433,16.0832756 16.0902736,14.2414241 18.4166139,14.2723306 C19.3409945,14.2854295 20.0720788,14.4954572 21.5512165,15.0688887 C22.625053,15.4832377 23.1187994,15.722619 23.6323898,16.1538362 C24.447099,16.836338 24.9661742,17.87336 25.1700265,19.0702519 Z M24.5878765,19.1668295 C24.4055458,18.0962993 23.9485672,17.1833355 23.2503749,16.5984425 C22.8030671,16.2228773 22.3498653,16.0031531 21.3360283,15.611955 C19.9217907,15.0636844 19.2379431,14.8672269 18.4084124,14.855472 C16.3706224,14.8283991 14.4199987,16.4731112 13.9289742,18.554519 C13.465703,20.5213658 14.1997281,22.7593464 15.7536885,24.354651 C16.0117226,24.6205488 16.2093821,24.7756402 16.4251464,24.8636996 C16.7024665,24.9762384 16.9558201,24.9843098 17.5703546,24.933846 C17.6402775,24.9281041 17.673068,24.9254553 17.7131213,24.9223749 C18.1111271,24.8917657 18.371233,24.8923965 18.6435079,24.9422508 C18.9379538,24.9963124 19.1661618,25.0844387 19.6272859,25.2965157 C19.832969,25.391112 19.9056093,25.4237064 20.0077291,25.465618 C20.3850253,25.6204665 20.6521447,25.665699 20.907212,25.6009747 C21.0323062,25.5692573 21.1379062,25.5192697 21.3719891,25.3892339 C21.388385,25.3801248 21.388385,25.3801248 21.4049491,25.3709323 C21.7387804,25.1857914 21.9257244,25.1077879 22.1796304,25.0849656 C22.2824405,25.0756195 22.3791799,25.0783882 22.5189554,25.0900398 C22.5355156,25.0914202 22.5486419,25.0925615 22.5773914,25.0950968 C22.8313328,25.1174971 22.9212269,25.1117405 22.9923317,25.067984 C23.0502023,25.0321459 23.0981143,24.966178 23.1892543,24.7985041 C23.3279732,24.5425445 23.3277725,24.5428751 23.7821447,23.8072536 C24.0918229,23.3058894 24.2685393,22.9958944 24.4165308,22.6745843 C24.5092413,22.4732971 24.5801067,22.2859836 24.6293522,22.1085824 C24.8274109,21.3972581 24.7870037,20.3408662 24.5878765,19.1668295 Z M22.4040025,17.9295083 C22.890707,18.4105382 23.1537489,18.9845549 23.1825761,19.6467479 C23.1902317,19.8238932 23.2108309,20.0017173 23.2506738,20.2646179 C23.2567795,20.3049062 23.2615192,20.3355985 23.2732501,20.4111193 C23.3483334,20.8944908 23.3740023,21.1171928 23.3736748,21.4049578 C23.3736748,21.6357055 23.3545164,21.7895309 23.2843709,21.950247 C23.2409452,22.0503305 23.1947754,22.1192764 23.0979336,22.24579 C23.0060964,22.3662031 22.9366917,22.4571134 22.7804908,22.6616311 C22.6243831,22.8660267 22.5550407,22.9568556 22.4682611,23.0706641 C21.9704225,23.7217995 21.6554548,24.020338 21.1566596,24.1691725 C20.6503271,24.3200502 20.2727387,24.2484806 19.4352652,23.9565117 C19.0853395,23.8345168 18.9256813,23.7848176 18.7374427,23.7466402 C18.4074292,23.6800525 18.0809982,23.6766552 17.5145629,23.7143257 C17.4486298,23.7185491 17.4190986,23.7202098 17.3821773,23.7214607 C17.2375667,23.7263604 17.1198043,23.7164868 17.0012474,23.6805938 C16.5976907,23.558113 16.4228038,23.2820926 16.2291205,22.7126522 C16.2214127,22.6899908 16.2130657,22.6652448 16.1975032,22.6190679 C16.1663203,22.5267248 16.1471545,22.4722025 16.1264384,22.4184419 C16.0727803,22.2790708 16.0139583,22.1651663 15.874469,21.9181705 C15.7718682,21.7365016 15.7280071,21.6560246 15.6769055,21.5513502 C15.0466797,20.2550012 15.3149644,18.5941762 16.3123555,17.5194515 C16.535348,17.2795378 16.7965405,17.0598945 17.1052801,16.844501 C17.6477424,16.4666898 18.1459594,16.2473352 18.6697623,16.2092094 C19.3293131,16.160982 19.8509297,16.3503999 20.8029772,16.8599426 C21.639195,17.3069727 22.0126009,17.5426892 22.4040025,17.9295083 Z M21.9865235,18.3418186 C21.6490127,18.0082594 21.3083013,17.7931816 20.5219298,17.3727986 C19.6673175,16.915404 19.2218367,16.7536337 18.7132332,16.7908236 C18.3147169,16.8198302 17.9082848,16.9987738 17.4455905,17.3210285 C17.1691771,17.5138696 16.9392884,17.7071887 16.7472996,17.913746 C15.9113934,18.8144651 15.6843912,20.2197294 16.2088014,21.2984209 C16.2529225,21.3887959 16.2930382,21.4624006 16.3855054,21.6261268 C16.5432451,21.9054384 16.6110207,22.0366808 16.678143,22.2110242 C16.7025321,22.2743164 16.7238387,22.3349288 16.7574627,22.4345006 C16.7731767,22.4811258 16.781241,22.5050337 16.7886731,22.5268844 C16.9236395,22.9236935 17.0203231,23.0762873 17.1743955,23.1230488 C17.2193181,23.1366491 17.2769871,23.1414843 17.361945,23.1386057 C17.3909607,23.1376226 17.4163207,23.1361965 17.4708475,23.1327037 C18.0910413,23.0914697 18.4594031,23.0953033 18.8558539,23.1752965 C19.0796201,23.2206792 19.2563333,23.2756874 19.6316971,23.4065507 C20.3494554,23.6567834 20.6443616,23.712681 20.9860967,23.6108503 C21.3238433,23.5100707 21.5733021,23.2736242 21.9970064,22.7194511 C22.083679,22.6057825 22.1530836,22.5148722 22.3092846,22.3103545 C22.4653922,22.1059589 22.5347347,22.0151301 22.6216413,21.9011556 C22.6957178,21.8043841 22.7232437,21.7632794 22.7420679,21.7198966 C22.7723427,21.6505309 22.7833741,21.5619663 22.7833741,21.404627 C22.7836568,21.1561765 22.760318,20.95369 22.6897804,20.4995833 C22.6779382,20.423345 22.6731304,20.392212 22.6668811,20.3509762 C22.6242028,20.0693673 22.6015516,19.8738281 22.592817,19.6717166 C22.5704449,19.1578038 22.3703653,18.7211851 21.9865235,18.3418186 Z M19.034529,17.9489836 C19.5180856,17.8532042 19.9048984,18.0778082 20.398595,18.564207 C20.763485,18.9237032 20.9246538,19.1183652 21.045916,19.4132748 C21.1360887,19.634195 21.1645216,19.8102226 21.1977246,20.1987338 C21.2084786,20.3245578 21.2138426,20.3807405 21.2219209,20.4455044 C21.2569608,20.7177346 21.3289758,20.9837369 21.4356413,21.2328401 C21.4718374,21.3183118 21.4879784,21.3661986 21.4958611,21.4345138 C21.5025283,21.4922952 21.4989075,21.5504379 21.4834629,21.6045539 C21.452569,21.7186937 21.3941556,21.7890324 21.3014886,21.867285 C21.0867964,22.0498285 20.8438002,22.1700517 20.5867687,22.2018714 C20.3612405,22.229965 20.1586037,22.1964311 19.8732683,22.1088308 C19.8391142,22.0983451 19.8144968,22.0905533 19.7513314,22.0703767 C19.5649916,22.010855 19.4816377,21.9874865 19.3853324,21.9713073 C19.2909135,21.955419 19.1932814,21.9495094 19.0271971,21.946977 C19.0007526,21.946592 19.0007526,21.946592 18.9739057,21.9462377 C18.5521334,21.9406726 18.3600871,21.9177804 18.1204344,21.8039922 C17.7769223,21.6413339 17.5288052,21.3164688 17.4049695,20.924617 C17.3300767,20.6876344 17.3001686,20.451015 17.2872499,20.1128682 C17.2853386,20.0628409 17.2841398,20.0239322 17.2815966,19.9343556 C17.2690545,19.4983408 17.2849701,19.2861195 17.3890634,19.0308482 C17.5083729,18.7390458 17.6795971,18.5998931 17.9979969,18.4600302 C17.9961781,18.4608291 18.1215024,18.4066181 18.1561374,18.3909331 C18.2187143,18.3624593 18.2818214,18.325736 18.3881414,18.2577958 C18.4084139,18.2448203 18.4084139,18.2448203 18.4291293,18.2315259 C18.696986,18.0596736 18.8339152,17.9888028 19.034529,17.9489836 Z M20.6361956,20.5179639 C20.6267514,20.4422696 20.620901,20.3809924 20.6098126,20.2512557 C20.5812826,19.9174249 20.5590673,19.7798899 20.4987368,19.6320798 C20.4175387,19.4346078 20.2912204,19.2820387 19.9817717,18.9771643 C19.6208772,18.6216045 19.3718065,18.4769809 19.150683,18.5207794 C19.0483148,18.5410982 18.9559748,18.5888909 18.750626,18.7206391 C18.7298888,18.7339477 18.7298888,18.7339477 18.7087321,18.7474891 C18.5803097,18.8295532 18.4979504,18.8774796 18.4025966,18.9208671 C18.3620375,18.9392356 18.2318919,18.995532 18.2378188,18.9929286 C18.0459127,19.0772269 17.9872508,19.124901 17.9364975,19.2490311 C17.8732223,19.4042032 17.8614143,19.5616517 17.8716618,19.9178957 C17.8741543,20.005684 17.8753151,20.0433629 17.8771301,20.0908712 C17.8882429,20.3817486 17.9125258,20.5738636 17.9684436,20.7508036 C18.0469182,20.9991198 18.1944878,21.192336 18.3758472,21.2782127 C18.5115189,21.3426301 18.6460097,21.3586615 18.9817887,21.363092 C19.0088375,21.3634489 19.0088375,21.3634489 19.0363062,21.3638488 C19.2305655,21.3668108 19.3525507,21.3741944 19.4843685,21.3963759 C19.6179047,21.41881 19.7196403,21.4473318 19.9329291,21.5154617 C19.9938757,21.5349296 20.0172025,21.5423129 20.0484399,21.5519031 C20.2598531,21.6168087 20.3907619,21.6384724 20.5131502,21.6232269 C20.6346344,21.6081875 20.7631363,21.5479621 20.8873411,21.4491628 C20.7622182,21.15436 20.6776603,20.840126 20.6361956,20.5179639 Z M19.7795322,19.8785152 C19.6435407,19.7004388 19.4946386,19.6733033 19.2682729,19.6758473 C19.1288386,19.6766952 18.9756329,19.6826311 18.8714875,19.7742132 C18.7974668,19.8395079 18.7613171,19.9395699 18.7578743,20.037936 C18.7492673,20.3177703 18.9885435,20.5585975 19.2596659,20.6450917 C19.4206179,20.6968187 19.6177195,20.6976667 19.7399397,20.581493 C19.8595779,20.4678633 19.8681849,20.284699 19.8681849,20.1201903 L19.7795322,19.8785152 Z M8.28733331,31.2349222 C8.19624049,31.2931093 8.19523946,31.4203322 8.16020376,31.5219131 C8.10414658,31.6856262 8.07550344,31.8020005 8.09151979,31.9745896 C8.10753607,32.1471787 8.3544017,32.0712395 8.54359451,32.14422 C8.65470778,32.1866276 8.76582104,32.2379112 8.88594347,32.2418561 C9.07213321,32.2497459 9.2513159,32.1343578 9.34240871,31.9745896 C9.4685373,31.7517031 9.47053935,31.5090922 9.25231692,31.3858143 C9.02708732,31.2595777 8.71376797,31.2151977 8.45950881,31.2043492 C8.40044862,31.2013906 8.33738433,31.2023768 8.28733331,31.2349222 Z" id="tree"></path>
                    </g>
                </g>
            </g>
        </g>
    </g>
</svg>