<?xml version="1.0" encoding="UTF-8"?>
<svg width="74px" height="82px" viewBox="0 0 74 82" version="1.1" xmlns="http://www.w3.org/2000/svg" xmlns:xlink="http://www.w3.org/1999/xlink">
    <!-- Generator: sketchtool 55 (78076) - https://sketchapp.com -->
    <title>E8794C16-7F09-4D91-86E3-9A739C4D03CF</title>
    <desc>Created with sketchtool.</desc>
    <g id="HOME_JC" stroke="none" stroke-width="1" fill="none" fill-rule="evenodd">
        <g id="GFW-Pro" transform="translate(-600.000000, -53.000000)">
            <g id="applications">
                <g id="Group-2" transform="translate(451.000000, 53.000000)">
                    <g id="Group-43" transform="translate(149.000000, 0.000000)">
                        <polygon id="Fill-1" fill="#404042" points="0 81.4 74 81.4 74 0 0 0"></polygon>
                        <g id="Group-42" transform="translate(10.175000, 7.400000)">
                            <path d="M6.33852793,4.20315958 C6.20043664,3.39612429 5.83770583,2.15059235 4.55877654,2.15059235 C2.45074826,2.15059235 2.45074826,4.88734866 2.45074826,6.39564277 C2.45074826,8.83437807 2.62329346,9.58908479 3.02075381,10.2201058 C3.34903071,10.7464697 4.05767881,11.0274209 4.64504914,11.0274209 C4.78314043,11.0274209 5.68169851,11.0623999 6.54580268,10.3256024 L6.54580268,8.22042681 L4.67950306,8.22042681 L4.67950306,6.23809739 L8.87874611,6.23809739 L8.87874611,11.5361554 C7.84209674,12.3079318 6.71889914,13.0799882 4.50695785,13.0799882 C0.532905581,13.0799882 0.0312565909,9.41335034 0.0312565909,6.79944025 C0.0312565909,3.90485874 0.428992576,2.6067184 1.36172894,1.51901168 C2.57147477,0.0980251261 4.05767881,0.0980251261 4.69686783,0.0980251261 C8.04937149,0.0980251261 8.44655621,2.37865538 8.67119573,3.69414529 L6.33852793,4.20315958 Z" id="Fill-2" fill="#9A9A9A"></path>
                            <polygon id="Fill-4" fill="#9A9A9A" points="12.8002355 0.308458739 12.8002355 10.8869453 17.5176654 10.8869453 17.5176654 12.8692747 10.4675677 12.8692747 10.4675677 0.308458739"></polygon>
                            <path d="M22.2524601,11.0624559 C23.0989239,11.0624559 23.6347511,10.5184626 23.8767554,10.044987 C24.1358489,9.51862311 24.3260345,8.99225924 24.3260345,6.16763571 C24.3260345,5.04495 24.3260345,2.15064832 22.2524601,2.15064832 C21.5611768,2.15064832 20.8528043,2.51890714 20.4727087,3.64159286 C20.2133397,4.41364916 20.161521,6.16763571 20.161521,7.02755924 C20.161521,8.16787437 20.1788857,11.0624559 22.2524601,11.0624559 M26.7449749,6.76451723 C26.7449749,8.34332899 26.7276101,13.0797643 22.235371,13.0797643 C18.9002321,13.0797643 17.7423049,10.5184626 17.7423049,6.43123739 C17.7423049,3.20309622 18.6579522,0.0978012605 22.2180062,0.0978012605 C26.1920585,0.0978012605 26.7449749,3.78206849 26.7449749,6.76451723" id="Fill-6" fill="#9A9A9A"></path>
                            <path d="M30.4250388,10.8344208 L31.2028704,10.8344208 C32.0493341,10.8344208 33.2935339,10.7115746 33.2935339,9.09750403 C33.2935339,7.43110487 31.824419,7.41319563 31.2028704,7.41319563 L30.4250388,7.41319563 L30.4250388,10.8344208 Z M30.4250388,5.37825782 L31.0818682,5.37825782 C31.5311473,5.37825782 32.9131627,5.37825782 32.9131627,3.85233429 C32.9131627,2.3434805 31.5656012,2.3434805 31.2028704,2.3434805 L30.4250388,2.3434805 L30.4250388,5.37825782 Z M31.7210572,0.308542689 C34.4340962,0.308542689 35.2119278,1.92261328 35.2119278,3.41355782 C35.2119278,4.51889395 34.8144675,5.65920908 33.2764447,6.20320235 L33.2764447,6.23818134 C35.125104,6.58909059 35.7130255,7.88723092 35.7130255,9.37817546 C35.7130255,10.8867494 34.9872883,12.8693587 31.9804263,12.8693587 L28.1271005,12.8693587 L28.1271005,0.308542689 L31.7210572,0.308542689 Z" id="Fill-8" fill="#9A9A9A"></path>
                            <path d="M42.4516048,8.32589546 L41.1726755,2.64166941 L41.1382216,2.64166941 L39.8422031,8.32589546 L42.4516048,8.32589546 Z M42.4345156,0.308430756 L45.9416484,12.8692467 L43.5050676,12.8692467 L42.9353377,10.3781829 L39.3584702,10.3781829 L38.7708242,12.8692467 L36.334519,12.8692467 L39.876657,0.308430756 L42.4345156,0.308430756 Z" id="Fill-10" fill="#9A9A9A"></path>
                            <polygon id="Fill-12" fill="#9A9A9A" points="49.1208627 0.308458739 49.1208627 10.8869453 53.8377414 10.8869453 53.8377414 12.8692747 46.7881949 12.8692747 46.7881949 0.308458739"></polygon>
                            <polygon id="Fill-14" fill="#9A9A9A" points="7.26823235 17.1119186 7.26823235 19.1353833 2.8586826 19.1353833 2.8586826 22.3232287 6.38621215 22.3232287 6.38621215 24.3464135 2.8586826 24.3464135 2.8586826 29.9335379 0.477228056 29.9335379 0.477228056 17.1119186"></polygon>
                            <path d="M12.9119489,28.0891656 C13.776053,28.0891656 14.3226299,27.5339791 14.5701468,27.0507093 C14.8344773,26.513432 15.0285217,25.9758749 15.0285217,23.0930463 C15.0285217,21.9468547 15.0285217,18.9923892 12.9119489,18.9923892 C12.2063327,18.9923892 11.4828005,19.3682034 11.0949872,20.514395 C10.8301056,21.3024018 10.77746,23.0930463 10.77746,23.9705992 C10.77746,25.1344203 10.7951004,28.0891656 12.9119489,28.0891656 M17.497627,23.7019606 C17.497627,25.3137925 17.4799866,30.1484488 12.8943085,30.1484488 C9.48971048,30.1484488 8.30807904,27.5339791 8.30807904,23.361685 C8.30807904,20.0666639 9.24274482,16.8967278 12.8763924,16.8967278 C16.9334097,16.8967278 17.497627,20.6573892 17.497627,23.7019606" id="Fill-16" fill="#9A9A9A"></path>
                            <path d="M21.3948884,22.6451473 L22.5947115,22.6451473 C23.9703874,22.6451473 25.116738,22.3588792 25.116738,20.872412 C25.116738,19.2068524 23.5470177,19.2068524 22.8061207,19.2068524 L21.3948884,19.2068524 L21.3948884,22.6451473 Z M23.2292148,17.1120305 C23.3176924,17.1120305 24.287639,17.1296599 25.098822,17.2911229 C26.2630887,17.5418524 27.5508382,18.6161271 27.5508382,20.7649566 C27.5508382,23.3256986 25.5577481,23.9704313 24.8165755,24.1853423 L24.8165755,24.2211608 C25.1341028,24.3286162 25.4166249,24.4181624 25.857635,24.9014322 C26.1046007,25.1700708 26.75702,26.2804439 26.8805028,26.5132641 L28.5384252,29.9336498 L25.8399946,29.9336498 L23.9174662,26.2446255 C23.0530864,24.596975 22.7002783,24.596975 21.7653369,24.596975 L21.3948884,24.596975 L21.3948884,29.9336498 L19.0137095,29.9336498 L19.0137095,17.1120305 L23.2292148,17.1120305 Z" id="Fill-18" fill="#9A9A9A"></path>
                            <polygon id="Fill-20" fill="#9A9A9A" points="35.8749314 17.1119186 35.8749314 19.1353833 31.6423369 19.1353833 31.6423369 22.1796749 35.4694777 22.1796749 35.4694777 24.2031396 31.6423369 24.2031396 31.6423369 27.9097934 36.0868919 27.9097934 36.0868919 29.9335379 29.261158 29.9335379 29.261158 17.1119186"></polygon>
                            <path d="M42.4537547,20.8546707 C42.3655527,20.2636656 42.1896999,18.9028429 40.9372312,18.9028429 C40.3021767,18.9028429 39.6321169,19.2965665 39.6321169,20.1562102 C39.6321169,21.2128555 40.7255464,21.7319438 41.8895374,22.2871303 C44.0240263,23.3079572 45.1880173,24.3464135 45.1880173,26.2982413 C45.1880173,28.2861673 43.9005434,30.1484488 41.0780788,30.1484488 C37.233022,30.1484488 37.0210615,27.1220665 36.9328595,25.7970623 L39.3672352,25.5642421 C39.4554373,26.7104337 39.6850381,28.053627 41.1844725,28.053627 C42.3834687,28.053627 42.8247544,27.1757942 42.8247544,26.4776135 C42.8247544,25.2776942 41.7310494,24.7583261 40.1960586,24.0601455 C38.8201071,23.4330421 37.2680272,22.5560488 37.2680272,20.3711211 C37.2680272,18.5804766 38.485215,16.8967278 41.1491917,16.8967278 C44.4644851,16.8967278 44.7646476,19.4040219 44.8349336,20.7113967 L42.4537547,20.8546707 Z" id="Fill-22" fill="#9A9A9A"></path>
                            <polygon id="Fill-24" fill="#9A9A9A" points="53.953286 17.1119186 53.953286 19.1353833 51.0431706 19.1353833 51.0431706 29.9335379 48.6622673 29.9335379 48.6622673 19.1353833 45.751325 19.1353833 45.751325 17.1119186"></polygon>
                            <polygon id="Fill-26" fill="#9A9A9A" points="3.25300076 34.6896734 4.77779318 43.7884087 4.81555467 43.7884087 6.98063864 34.6896734 9.99301326 34.6896734 12.1018684 43.749512 12.1390787 43.749512 13.6834409 34.6896734 16.3187519 34.6896734 13.6266609 48.3754137 10.821561 48.3754137 8.46822083 38.3593893 8.43045934 38.3593893 6.05837626 48.3754137 3.25300076 48.3754137 0.635881439 34.6896734"></polygon>
                            <path d="M22.4411573,43.424851 L21.047841,37.2316107 L21.0103552,37.2316107 L19.5982959,43.424851 L22.4411573,43.424851 Z M22.4224144,34.6896174 L26.2445938,48.3753577 L23.5899886,48.3753577 L22.96844,45.6612678 L19.0710132,45.6612678 L18.4309973,48.3753577 L15.7763922,48.3753577 L19.6357818,34.6896174 L22.4224144,34.6896174 Z" id="Fill-28" fill="#9A9A9A"></path>
                            <polygon id="Fill-30" fill="#9A9A9A" points="34.2854758 34.6896734 34.2854758 36.8499759 31.1788353 36.8499759 31.1788353 48.3754137 28.6366877 48.3754137 28.6366877 36.8499759 25.5303228 36.8499759 25.5303228 34.6896734"></polygon>
                            <path d="M40.8018411,39.0284395 C40.688281,38.2451899 40.4622633,36.6968798 39.1260027,36.6968798 C37.2428896,36.6968798 37.2428896,39.2965185 37.2428896,41.4182042 C37.2428896,44.0178429 37.3936599,44.7244185 37.7136679,45.3934966 C37.9777227,45.9478437 38.5424912,46.3681513 39.14447,46.3681513 C40.5942907,46.3681513 40.8575186,44.6480244 40.9898217,43.4822445 L43.4936565,44.3043908 C43.0421724,47.7068672 41.1590593,48.6051277 39.2012501,48.6051277 C35.07753,48.6051277 34.6075786,44.3617563 34.6075786,41.590021 C34.6075786,38.8949597 34.7955592,34.4601832 39.1634886,34.4601832 C42.4774039,34.4601832 43.0796583,36.926342 43.3809233,38.4360353 L40.8018411,39.0284395 Z" id="Fill-32" fill="#9A9A9A"></path>
                            <polygon id="Fill-34" fill="#9A9A9A" points="47.5432593 34.6896734 47.5432593 40.0993843 51.2901914 40.0993843 51.2901914 34.6896734 53.8320634 34.6896734 53.8320634 48.3754137 51.2901914 48.3754137 51.2901914 42.3164927 47.5432593 42.3164927 47.5432593 48.3754137 45.0022142 48.3754137 45.0022142 34.6896734"></polygon>
                            <path d="M4.55794965,59.1550155 L7.75913172,59.1550155 C9.08739902,59.1550155 9.90574838,58.6935726 9.90574838,57.4007491 C9.90574838,56.3483012 9.26904005,55.6834205 7.75913172,55.6834205 L4.55794965,55.6834205 L4.55794965,59.1550155 Z M1.42898298,53.2639936 L8.05047402,53.2639936 C11.0333561,53.2639936 13.0162478,54.7781642 13.0162478,57.3453424 C13.0162478,60.0045852 11.1427817,61.5929113 8.01381505,61.5929113 L4.55794965,61.5929113 L4.55794965,66.2649852 L1.42898298,66.2649852 L1.42898298,53.2639936 Z" id="Fill-36" fill="#96BC3E"></path>
                            <path d="M24.1662786,58.8782057 L27.3677363,58.8782057 C28.8776446,58.8782057 29.5325446,58.3241385 29.5325446,57.2344729 C29.5325446,56.2004939 28.8594529,55.6279578 27.3862036,55.6279578 L24.1662786,55.6279578 L24.1662786,58.8782057 Z M24.1662786,61.260415 L24.1662786,66.2649292 L21.0924382,66.2649292 L21.0924382,53.2639376 L28.0590196,53.2639376 C31.0239856,53.2639376 32.7158106,54.7414503 32.7158106,56.9759082 C32.7158106,58.6565788 31.7519279,59.6351511 30.4782356,60.0414671 C31.005794,60.2630939 32.370169,60.7802234 32.370169,63.1070259 L32.370169,63.7534376 C32.370169,64.6584141 32.370169,65.6557351 32.5336183,66.2649292 L29.3506279,66.2649292 C29.1323279,65.6926729 29.1141363,64.9169788 29.1141363,63.5502797 L29.1141363,63.1070259 C29.1141363,61.7960133 28.6411529,61.260415 26.7676869,61.260415 L24.1662786,61.260415 Z" id="Fill-38" fill="#96BC3E"></path>
                            <path d="M43.887892,59.6906418 C43.887892,62.1467266 45.1067336,64.0859619 47.616908,64.0859619 C50.1816574,64.0859619 51.182199,61.869693 51.182199,59.7460485 C51.182199,57.4561838 50.0725074,55.4430729 47.4895663,55.4430729 C44.9975836,55.4430729 43.887892,57.4928418 43.887892,59.6906418 M54.4564234,59.7091107 C54.4564234,63.3287367 52.0917824,66.5420468 47.4349913,66.5420468 C43.0877343,66.5420468 40.6136676,63.5318947 40.6136676,59.7275796 C40.6136676,56.1448913 43.2332676,52.986988 47.5805247,52.986988 C52.055399,52.986988 54.4564234,56.1633603 54.4564234,59.7091107" id="Fill-40" fill="#96BC3E"></path>
                        </g>
                    </g>
                </g>
            </g>
        </g>
    </g>
</svg>