<!-- Generated by IcoMoon.io -->
<svg width="6" height="22" viewBox="0 0 6 22" fill="none" xmlns="http://www.w3.org/2000/svg">
<title>toggle</title>
<path d="M2.56 -1.11901e-07C3.974 -5.00932e-08 5.12 1.083 5.12 2.418C5.11999 3.753 3.974 4.836 2.56 4.836C1.146 4.836 -5.88614e-06 3.754 -5.82774e-06 2.418C-5.76934e-06 1.082 1.146 -1.73709e-07 2.56 -1.11901e-07V-1.11901e-07Z" fill="currentColor"/>
<path d="M2.56 8.462C3.974 8.462 5.12 9.544 5.12 10.88C5.11999 12.216 3.974 13.298 2.56 13.298C1.146 13.298 -5.88614e-06 12.216 -5.82774e-06 10.88C-5.76934e-06 9.544 1.146 8.462 2.56 8.462Z" fill="currentColor"/>
<path d="M2.56 16.924C3.974 16.924 5.12 18.006 5.12 19.342C5.11999 20.678 3.974 21.76 2.56 21.76C1.146 21.76 -5.88614e-06 20.678 -5.82774e-06 19.342C-5.76934e-06 18.006 1.146 16.924 2.56 16.924Z" fill="currentColor"/>
</svg>
