<?xml version="1.0" standalone="no"?><!-- Generator: Adobe Fireworks CS6, Export SVG Extension by Aaron Beall (http://fireworks.abeall.com) . Version: 0.6.1  --><!DOCTYPE svg PUBLIC "-//W3C//DTD SVG 1.1//EN" "http://www.w3.org/Graphics/SVG/1.1/DTD/svg11.dtd"><svg id="Untitled-P%E1gina%201" viewBox="0 0 16 13" style="background-color:#ffffff00" version="1.1"	xmlns="http://www.w3.org/2000/svg" xmlns:xlink="http://www.w3.org/1999/xlink" xml:space="preserve"	x="0px" y="0px" width="16px" height="13px">	<g id="Capa%201">		<path d="M 7.0176 1.5136 C 7.5602 0.5515 8.4398 0.5515 8.9824 1.5136 L 13.9133 10.2579 C 14.4558 11.22 14.0002 12 12.8957 12 L 3.1043 12 C 1.9998 12 1.5442 11.22 2.0867 10.2579 L 7.0176 1.5136 ZM 6.4565 0.5725 L 0.5435 10.4275 C -0.309 11.8483 0.3431 13 2 13 L 14 13 C 15.6569 13 16.309 11.8483 15.4565 10.4275 L 9.5435 0.5725 C 8.691 -0.8483 7.309 -0.8483 6.4565 0.5725 ZM 7 9 L 7 11 L 9 11 L 9 9 L 7 9 ZM 7 3 L 7 8 L 9 8 L 9 3 L 7 3 Z" fill="#a8a8a8"/>	</g></svg>