<?xml version="1.0" standalone="no"?><!-- Generator: Adobe Fireworks CS6, Export SVG Extension by Aaron Beall (http://fireworks.abeall.com) . Version: 0.6.1  --><!DOCTYPE svg PUBLIC "-//W3C//DTD SVG 1.1//EN" "http://www.w3.org/Graphics/SVG/1.1/DTD/svg11.dtd"><svg id="Untitled-Page%201" viewBox="0 0 25 25" style="background-color:#ffffff00" version="1.1"	xmlns="http://www.w3.org/2000/svg" xmlns:xlink="http://www.w3.org/1999/xlink" xml:space="preserve"	x="0px" y="0px" width="25px" height="25px">	<symbol id="shape-blog">		<g>			<g>				<path d="M 5 8.5123 C 5 7.4431 5.4468 7 6.5252 7 L 20.4748 7 C 21.5532 7 22 7.4431 22 8.5123 L 22 18.4878 C 22 19.557 21.5532 20 20.4748 20 L 6.5252 20 C 5.4468 20 5 19.557 5 18.4878 L 5 8.5123 Z" stroke="#555555" stroke-width="2" fill="#ffffff"/>				<path d="M 2 6.5122 C 2 5.443 2.4468 5 3.5252 5 L 18.4748 5 C 19.5532 5 20 5.443 20 6.5122 L 20 18.4878 C 20 19.557 20.0121 20 19.9628 20 L 3.5252 20 C 2.4468 20 2 19.557 2 18.4878 L 2 6.5122 Z" stroke="#555555" stroke-width="2" fill="#f5f5f5"/>			</g>			<g>				<g>					<rect x="4" y="7" width="7" height="4"/>					<rect x="12" y="7" width="6" height="1"/>					<rect x="12" y="9" width="4" height="1"/>					<rect x="12.5" y="10" width="2.5" height="1"/>					<rect x="4" y="12" width="11" height="1"/>					<g>						<rect x="4" y="14" width="6" height="1"/>						<rect x="4" y="16" width="5" height="1"/>					</g>					<g>						<rect x="12" y="14" width="6" height="1"/>						<rect x="12" y="16" width="5" height="1"/>						<rect x="12" y="17" width="3" height="1"/>					</g>				</g>				<path d="M 4 17 L 7 17 L 7 18 L 4 18 L 4 17 Z"/>			</g>		</g>	</symbol></svg>