<?xml version="1.0" standalone="no"?><!-- Generator: Adobe Fireworks CS6, Export SVG Extension by Aaron Beall (http://fireworks.abeall.com) . Version: 0.6.1  --><!DOCTYPE svg PUBLIC "-//W3C//DTD SVG 1.1//EN" "http://www.w3.org/Graphics/SVG/1.1/DTD/svg11.dtd"><svg id="Untitled-Page%201" viewBox="0 0 22 17" style="background-color:#ffffff00" version="1.1"	xmlns="http://www.w3.org/2000/svg" xmlns:xlink="http://www.w3.org/1999/xlink" xml:space="preserve"	x="0px" y="0px" width="22px" height="17px">	<g id="Layer%201">		<g>			<g>				<path d="M 4 4.5123 C 4 3.4431 4.4468 3 5.5252 3 L 19.4748 3 C 20.5532 3 21 3.4431 21 4.5123 L 21 14.4878 C 21 15.557 20.5532 16 19.4748 16 L 5.5252 16 C 4.4468 16 4 15.557 4 14.4878 L 4 4.5123 Z" stroke="#b6b6ba" stroke-width="2" fill="#ffffff"/>				<path d="M 1 2.5122 C 1 1.443 1.4468 1 2.5252 1 L 17.4748 1 C 18.5532 1 19 1.443 19 2.5122 L 19 14.4878 C 19 15.557 19.0121 16 18.9628 16 L 2.5252 16 C 1.4468 16 1 15.557 1 14.4878 L 1 2.5122 Z" stroke="#b6b6ba" stroke-width="2" fill="#f5f5f5"/>			</g>			<g>				<g>					<rect x="3" y="3" width="7" height="4" fill="#b6b6ba"/>					<rect x="11" y="3" width="6" height="1" fill="#b6b6ba"/>					<rect x="11" y="5" width="4" height="1" fill="#b6b6ba"/>					<rect x="11.5" y="6" width="2.5" height="1" fill="#b6b6ba"/>					<rect x="3" y="8" width="11" height="1" fill="#b6b6ba"/>					<g>						<rect x="3" y="10" width="6" height="1" fill="#b6b6ba"/>						<rect x="3" y="12" width="5" height="1" fill="#b6b6ba"/>					</g>					<g>						<rect x="11" y="10" width="6" height="1" fill="#b6b6ba"/>						<rect x="11" y="12" width="5" height="1" fill="#b6b6ba"/>						<rect x="11" y="13" width="3" height="1" fill="#b6b6ba"/>					</g>				</g>				<path d="M 3 13 L 6 13 L 6 14 L 3 14 L 3 13 Z" fill="#b6b6ba"/>			</g>		</g>	</g></svg>