<?xml version="1.0" standalone="no"?><!-- Generator: Adobe Fireworks CS6, Export SVG Extension by Aaron Beall (http://fireworks.abeall.com) . Version: 0.6.1  --><!DOCTYPE svg PUBLIC "-//W3C//DTD SVG 1.1//EN" "http://www.w3.org/Graphics/SVG/1.1/DTD/svg11.dtd"><svg id="Untitled-Page%201" viewBox="0 0 25 25" style="background-color:#ffffff00" version="1.1"	xmlns="http://www.w3.org/2000/svg" xmlns:xlink="http://www.w3.org/1999/xlink" xml:space="preserve"	x="0px" y="0px" width="25px" height="25px">	<g id="Layer%201">		<g>			<path d="M 20 6 L 20 4 L 2 4 L 2 17.5385 C 2 17.5385 2 20 4.5 20 L 20.125 20 C 20.125 20 22 19.9619 22 17.5385 L 22 6 L 20 6 ZM 4.25 19 C 3 19 3 17.7692 3 17.7692 L 3 5 L 19 5 L 19 17.5385 C 19 18.1052 19.1776 18.7281 19.4224 19 L 4.25 19 ZM 12 13 L 12 14 L 17 14 L 17 13 L 12 13 ZM 5 8 L 17 8 L 17 7 L 5 7 L 5 8 ZM 12 16 L 16 16 L 16 15 L 12 15 L 12 16 ZM 12 12 L 17 12 L 17 11 L 12 11 L 12 12 ZM 12 10 L 17 10 L 17 9 L 12 9 L 12 10 ZM 5 16 L 11 16 L 11 9 L 5 9 L 5 16 Z" fill="#555555"/>		</g>	</g></svg>