<?xml version="1.0" standalone="no"?><!-- Generator: Adobe Fireworks CS6, Export SVG Extension by Aaron Beall (http://fireworks.abeall.com) . Version: 0.6.1  --><!DOCTYPE svg PUBLIC "-//W3C//DTD SVG 1.1//EN" "http://www.w3.org/Graphics/SVG/1.1/DTD/svg11.dtd"><svg id="Untitled-Page%201" viewBox="0 0 25 25" style="background-color:#ffffff00" version="1.1"	xmlns="http://www.w3.org/2000/svg" xmlns:xlink="http://www.w3.org/1999/xlink" xml:space="preserve"	x="0px" y="0px" width="25px" height="25px">	<path d="M 3.935 6 L 18.065 6 L 19 6.93 C 19.012 10.9377 19.1944 14.9933 19.015 19 L 3.935 19 L 3 18.07 L 3 6.93 L 3.935 6 ZM 6.5252 21 L 19.9628 21 L 20.4748 21 C 21.1907 21 23 19.2072 23 18.4878 L 23 8.5123 C 23 7.9074 21.7178 6.5432 20.885 6.125 C 20.4781 5.2946 19.0831 4 18.4748 4 L 3.5252 4 C 3.4235 4 2.8933 4.2183 2.8211 4.2899 C 2.8169 4.294 1 5.733 1 6.5122 L 1 18.4878 C 1 19.2072 2.8093 21 3.5252 21 L 6.5252 21 ZM 12 16 L 12 17 L 12 18 L 15 18 L 15 17 L 17 17 L 17 16 L 12 16 ZM 12 14 L 12 15 L 18 15 L 18 14 L 12 14 ZM 4 16 L 4 17 L 4 18 L 7 18 L 7 17 L 9 17 L 9 16 L 4 16 ZM 4 14 L 4 15 L 10 15 L 10 14 L 4 14 ZM 4 12 L 4 13 L 15 13 L 15 12 L 4 12 ZM 12 9 L 12 10 L 12.5 10 L 12.5 11 L 15 11 L 15 10 L 16 10 L 16 9 L 12 9 ZM 12 7 L 12 8 L 18 8 L 18 7 L 12 7 ZM 4 7 L 4 11 L 11 11 L 11 7 L 4 7 Z"/></svg>