<?xml version="1.0" standalone="no"?><!-- Generator: Adobe Fireworks CS6, Export SVG Extension by Aaron Beall (http://fireworks.abeall.com) . Version: 0.6.1  --><!DOCTYPE svg PUBLIC "-//W3C//DTD SVG 1.1//EN" "http://www.w3.org/Graphics/SVG/1.1/DTD/svg11.dtd"><svg id="Untitled-Page%201" viewBox="0 0 70 69" style="background-color:#ffffff00" version="1.1"	xmlns="http://www.w3.org/2000/svg" xmlns:xlink="http://www.w3.org/1999/xlink" xml:space="preserve"	x="0px" y="0px" width="70px" height="69px">	<g>		<path d="M 43.861 55.3503 C 43.373 54.8711 42.7152 54.6976 41.3478 54.6879 C 41.1017 54.6863 40.5166 54.6835 39.9531 54.3049 C 39.7323 54.1577 39.4476 54.0936 39.0053 54.0936 C 38.6985 54.0936 38.3899 54.1213 38.0845 54.1469 L 37.8314 54.1674 C 37.5495 54.1896 37.269 54.2 36.9892 54.2 C 35.922 54.2 34.918 54.0548 33.9473 53.9144 C 33.5029 53.8499 33.0592 53.7856 32.6147 53.7378 C 31.9263 53.6643 31.2172 53.6608 30.4663 53.6571 C 29.8618 53.6539 29.2394 53.6511 28.6005 53.6101 C 28.0658 53.9495 27.4357 54.121 26.7188 54.121 C 26.5956 54.121 26.4706 54.1163 26.3439 54.108 C 26.1845 54.0977 26.0241 54.094 25.8637 54.094 C 25.5948 54.094 25.3259 54.104 25.0569 54.1132 C 24.7473 54.1241 24.4384 54.1343 24.1309 54.1343 C 23.4885 54.1343 22.6358 54.0964 21.7343 53.8018 L 21.0939 53.5924 L 20.7475 53.01 C 19.92 51.6187 20.2844 50.3021 20.4399 49.74 C 20.6822 48.866 20.5976 48.7772 20.4126 48.5829 C 20.0482 48.2003 19.7827 47.7776 19.6174 47.3407 L 18.1047 46.6338 L 17.8688 46.3832 C 17.4964 45.9882 17.2724 45.5569 17.1309 45.1522 C 16.9709 45.1163 16.8157 45.0618 16.6661 44.9893 L 16.1027 44.7159 L 15.8563 44.2043 C 15.5551 43.7053 15.4624 43.2045 15.5737 42.7025 C 15.5898 42.63 15.6021 42.5598 15.6147 42.489 C 15.6825 42.114 15.7846 41.5472 16.1364 41.0126 C 16.4583 40.5236 16.663 39.942 16.7627 39.2367 C 16.9628 37.8184 17.7133 36.8718 18.4948 36.0599 C 18.8009 35.7416 19.1224 35.4688 19.4058 35.2278 C 19.8266 34.8706 20.19 34.5616 20.3799 34.2206 C 20.7945 33.4758 21.4773 33.1449 21.9291 32.9254 C 22.019 32.882 22.1117 32.8409 22.1934 32.79 L 22.9232 32.3386 L 23.4709 32.5327 L 23.8637 31.4359 L 25.6653 32.2926 C 26.2702 32.5865 26.7887 32.939 27.2237 33.3531 C 27.3244 33.2279 27.436 33.1102 27.5571 33.0015 C 27.5796 32.4611 27.8225 31.91 28.2687 31.4166 C 28.6342 31.0129 28.8209 30.384 29.0372 29.656 C 29.0856 29.4924 29.1341 29.3289 29.185 29.1661 C 29.4318 28.3752 29.8548 27.0217 31.3387 26.4189 C 31.4142 24.6862 32.1394 23.756 32.8994 23.2576 C 33.4081 21.5016 34.5168 18.9943 35.3 17.9502 C 35.7914 17.2947 36.4517 16.5853 37.6211 16.2979 C 37.6629 16.2839 37.7454 16.2365 37.8387 16.1787 C 37.8531 16.0043 37.8658 15.8311 37.8745 15.6578 C 37.8468 15.6493 37.1465 15.434 37.1465 15.434 L 36.7905 14.8438 C 36.2825 14.0015 36.1702 13.1348 36.08 12.4386 C 36.048 12.1931 36.0178 11.9412 35.9606 11.6868 L 35.539 9.8101 L 37.4238 9.4994 C 37.7243 9.4498 38.0754 9.3971 38.4397 9.3971 C 39.5845 9.3971 40.4776 9.9359 40.9677 10.8982 C 41.979 11.8114 42.3634 12.989 42.6541 13.8785 C 42.7373 14.1333 42.8191 14.3883 42.9188 14.6327 C 43.3639 15.7244 43.4671 16.861 43.2347 18.1088 C 43.0849 18.9132 43.0652 20.1285 44.6168 21.39 L 46.1302 22.6207 L 44.8338 24.0023 C 44.3809 24.5969 43.8459 24.8865 43.2253 24.8865 L 43.1284 24.8865 L 43.0269 24.8752 C 42.8998 24.8616 42.7766 24.8566 42.6534 24.8566 C 42.3473 24.8566 42.011 24.8875 41.655 24.9203 C 41.2671 24.9562 40.8669 24.9928 40.4386 24.9982 C 40.5295 25.0774 40.6233 25.1503 40.7198 25.2164 C 42.4077 26.3691 43.5521 27.7775 44.2184 29.5227 C 44.2668 29.6497 44.3946 29.8542 44.5298 30.0707 C 44.6333 30.2367 44.7422 30.4111 44.8513 30.6012 L 45.2663 31.3232 L 44.9918 32.1104 C 44.7864 32.699 44.4536 33.6528 43.5921 34.3683 C 43.338 35.2155 42.8981 35.8655 42.5403 36.3939 C 42.2925 36.7599 42.0788 37.0758 41.9801 37.3582 C 41.8425 37.7516 41.6301 38.0464 41.4044 38.2683 C 41.5107 38.7849 41.5128 39.2754 41.5146 39.6736 C 41.5149 39.7963 41.5153 39.9202 41.5192 40.0444 C 41.5346 40.522 41.6649 41.0731 41.8025 41.657 C 41.8439 41.8318 41.8849 42.0065 41.9239 42.1809 C 42.0215 42.2623 42.1173 42.3455 42.2062 42.4332 C 43.1888 43.3994 43.4556 44.3751 43.4127 45.2094 C 43.4169 45.2147 43.4211 45.2195 43.425 45.2251 C 44.0713 46.0503 44.6295 46.7632 45.38 47.183 C 46.2246 47.6549 46.7846 48.5366 46.9166 49.6028 C 46.945 49.8306 46.992 50.0573 47.0373 50.2844 C 47.1971 51.0852 47.3933 52.0687 47.0963 53.1862 C 47.129 53.6425 47.129 54.4598 46.4865 55.2241 L 45.241 56.7047 L 43.861 55.3503 Z" fill="#555555"/>		<path d="M 34.2965 68.7849 C 15.3852 68.7849 0 53.3564 0 34.3922 C 0 15.4285 15.3852 0 34.2965 0 C 53.2081 0 68.5934 15.4285 68.5934 34.3922 C 68.5934 53.3564 53.2081 68.7849 34.2965 68.7849 ZM 34.2965 5.7096 C 18.5248 5.7096 5.6937 18.5767 5.6937 34.3922 C 5.6937 50.2081 18.5248 63.0753 34.2965 63.0753 C 50.0681 63.0753 62.8996 50.2081 62.8996 34.3922 C 62.8996 18.5767 50.0681 5.7096 34.2965 5.7096 Z" fill="#555555"/>		<path d="M 69.5596 62.5847 L 63.4692 68.6925 L 57.3783 62.5847 L 63.4692 56.4769 L 69.5596 62.5847 Z" fill="#555555"/>	</g></svg>