<?xml version="1.0" standalone="no"?><!-- Generator: Adobe Fireworks CS6, Export SVG Extension by Aaron Beall (http://fireworks.abeall.com) . Version: 0.6.1  --><!DOCTYPE svg PUBLIC "-//W3C//DTD SVG 1.1//EN" "http://www.w3.org/Graphics/SVG/1.1/DTD/svg11.dtd"><svg id="Untitled-Page%201" viewBox="0 0 70 69" style="background-color:#ffffff00" version="1.1"	xmlns="http://www.w3.org/2000/svg" xmlns:xlink="http://www.w3.org/1999/xlink" xml:space="preserve"	x="0px" y="0px" width="70px" height="69px">	<g>		<path d="M 16.7683 48.8529 C 16.2717 48.6378 15.1258 47.946 15.2133 46.1813 C 15.2253 45.9343 15.2261 45.9192 14.9864 45.7551 C 14.1761 45.1987 13.5449 44.4937 12.9881 43.8719 L 12.6981 43.5499 C 12.292 43.1069 11.501 42.244 11.5966 40.991 C 11.5003 40.9087 11.3905 40.822 11.2825 40.7374 C 11.1694 40.6482 11.0599 40.5621 10.9585 40.4773 L 10.2791 39.9082 L 10.2974 39.0277 C 10.3141 38.2288 10.162 37.9001 10.011 37.6843 L 9.6498 37.1677 L 9.6812 36.5403 C 9.7038 36.0923 9.8067 35.7113 9.8848 35.429 C 8.8136 34.0717 9.5235 32.8362 9.9037 32.3434 L 10.1588 32.0131 L 10.5323 31.8223 C 10.941 31.6135 11.2806 30.9325 11.64 30.2111 C 11.7363 30.0177 11.8326 29.8251 11.9312 29.6373 C 12.2894 28.9559 12.6973 28.4294 13.0917 27.9204 L 13.3847 27.5393 L 14.0166 26.6993 L 15.0696 26.8041 C 15.1827 26.8152 15.2939 26.8212 15.4034 26.8212 C 16.1035 26.8212 16.7095 26.5839 17.2565 26.0962 L 17.8099 25.6025 L 18.5546 25.6215 C 19.1916 25.6372 19.6571 25.8673 19.988 26.1304 C 20.0526 26.0947 20.1161 26.0565 20.1789 26.0153 C 20.7455 25.6405 21.7999 24.9437 23.1597 24.9437 C 23.3738 24.9437 23.5898 24.9611 23.8018 24.9954 C 23.9196 25.0143 24.0334 25.0238 24.1396 25.0238 C 24.4424 25.0238 24.8051 24.9573 25.2729 24.5543 C 25.2422 24.4723 25.2148 24.386 25.1915 24.295 L 25.0853 23.8772 L 25.1765 23.4558 C 25.4498 22.1924 26.5732 21.3435 27.9713 21.3435 C 27.9713 21.3435 28.2988 21.353 28.3849 21.353 C 28.9976 21.353 29.647 21.2581 30.3344 21.1577 C 30.7678 21.0946 31.2121 21.0297 31.6733 20.984 C 32.3935 20.5032 32.9141 20.0081 33.3318 19.4125 C 33.8543 18.6677 34.5355 18.135 35.136 17.6655 C 35.1901 17.6233 35.244 17.5814 35.298 17.5388 L 35.513 16.2632 L 36.371 15.8438 C 36.6148 15.7247 36.8475 15.5781 37.0825 15.4332 C 37.8655 14.9513 38.9381 14.291 40.361 14.291 C 40.7214 14.291 41.0885 14.3336 41.4526 14.418 L 42.0291 14.552 L 42.4224 14.9904 C 42.6541 15.2484 42.8974 15.5046 43.1437 15.7645 C 43.777 16.4329 44.4319 17.1238 45.015 17.9377 C 46.1194 19.4786 46.4426 21.1022 45.98 22.5823 C 46.0898 22.5981 46.1956 22.6166 46.2956 22.639 L 46.5484 22.6956 L 46.7761 22.818 C 47.3835 23.144 47.7816 23.6112 47.967 24.2119 C 49.0428 24.5153 50.3942 25.1669 51.3279 26.7871 L 51.6026 27.2645 L 51.5705 27.7987 C 51.5931 27.8046 51.7037 27.8933 51.9612 27.9844 C 52.9934 28.3478 53.6808 29.0212 54.2332 29.5621 C 54.4681 29.7919 54.6903 30.0093 54.9092 30.1754 L 55.6396 30.7294 L 55.6407 31.6404 C 55.6411 31.8923 55.6557 32.0566 55.6852 32.1755 C 56.4708 32.5308 57.4149 33.0339 58.2147 33.9537 L 58.5828 34.3781 L 58.6522 34.9331 C 58.6905 35.241 58.7839 35.6851 59.1699 36.3923 L 61.3757 40.4349 L 56.9553 39.0304 C 56.7521 38.9659 56.6262 38.9562 56.5693 38.9562 L 55.9202 39.4504 L 55.0413 39.3234 C 53.7267 39.0991 52.5789 38.897 51.5001 38.6465 C 51.2965 38.8829 51.0097 39.1376 50.6128 39.3048 C 50.1319 39.5646 49.6237 39.6908 49.067 39.6908 C 48.9224 39.6908 48.7823 39.682 48.6444 39.67 C 48.3741 39.6458 48.1067 39.6331 47.8411 39.6331 C 46.8377 39.6331 45.9103 39.8173 45.0853 40.1801 C 44.3535 40.5016 43.6041 40.6582 42.7946 40.6582 C 42.5804 40.6582 42.3629 40.6472 42.1378 40.6251 C 42.1097 40.6776 42.082 40.7318 42.0572 40.7797 C 41.877 41.1289 41.6526 41.5634 41.2691 41.9879 L 40.4839 42.8578 L 39.3529 42.5313 C 38.5878 42.3102 37.7323 42.2122 36.8268 42.1086 C 35.4714 41.9534 33.9346 41.7777 32.3574 41.1412 L 31.8999 40.9567 L 31.5941 40.5725 C 31.203 40.0807 30.3967 39.5947 29.5747 39.123 C 29.5098 39.1763 29.3974 39.2843 29.2333 39.5 C 29.1435 39.6173 29.0625 39.7422 28.98 39.8665 C 28.7819 40.1647 28.5352 40.5363 28.1912 40.8914 C 28.2576 41.4567 28.2303 41.9728 28.2073 42.4048 C 28.1989 42.5625 28.1901 42.7206 28.1873 42.8785 L 28.153 44.7261 L 26.286 44.6926 C 24.9733 44.6691 23.4143 44.6047 21.8068 44.3075 C 21.8027 44.307 21.7991 44.307 21.7951 44.307 C 21.4875 44.307 21.0545 44.4325 20.636 44.554 C 20.6229 44.5576 20.6097 44.5615 20.5966 44.5652 C 20.5609 44.7073 20.5266 44.8547 20.4911 45.0049 C 20.2453 46.0554 19.9392 47.3629 18.8483 48.4578 L 17.946 49.3639 L 16.7683 48.8529 Z" fill="#555555"/>		<path d="M 34.7008 68.7849 C 15.7891 68.7849 0.4039 53.3564 0.4039 34.3922 C 0.4039 15.4285 15.7891 0 34.7008 0 C 53.6124 0 68.9976 15.4285 68.9976 34.3922 C 68.9976 53.3564 53.6124 68.7849 34.7008 68.7849 ZM 34.7008 5.7096 C 18.9291 5.7096 6.0976 18.5767 6.0976 34.3922 C 6.0976 50.2081 18.9291 63.0753 34.7008 63.0753 C 50.4725 63.0753 63.304 50.2081 63.304 34.3922 C 63.304 18.5767 50.4725 5.7096 34.7008 5.7096 Z" fill="#555555"/>		<path d="M 69.9639 62.5847 L 63.873 68.6925 L 57.7826 62.5847 L 63.873 56.4769 L 69.9639 62.5847 Z" fill="#555555"/>	</g></svg>