<?xml version="1.0" standalone="no"?><!-- Generator: Adobe Fireworks CS6, Export SVG Extension by Aaron Beall (http://fireworks.abeall.com) . Version: 0.6.1  --><!DOCTYPE svg PUBLIC "-//W3C//DTD SVG 1.1//EN" "http://www.w3.org/Graphics/SVG/1.1/DTD/svg11.dtd"><svg id="Untitled-Page%201" viewBox="0 0 53 45" style="background-color:#ffffff00" version="1.1"	xmlns="http://www.w3.org/2000/svg" xmlns:xlink="http://www.w3.org/1999/xlink" xml:space="preserve"	x="0px" y="0px" width="53px" height="45px">	<g>		<g>			<path d="M 19.6296 5.8696 C 20.7137 5.8696 21.5926 4.9945 21.5926 3.913 L 21.5926 1.9565 C 21.5926 0.8751 20.7137 0 19.6296 0 C 18.5456 0 17.6667 0.8751 17.6667 1.9565 L 17.6667 3.913 C 17.6667 4.9945 18.5456 5.8696 19.6296 5.8696 Z" fill="#555555"/>			<path d="M 7.1368 9.882 C 7.5202 10.2641 8.0225 10.4551 8.5247 10.4551 C 9.0269 10.4551 9.5292 10.2641 9.9126 9.882 C 10.6794 9.1177 10.6794 7.8796 9.9126 7.1153 L 8.5247 5.732 C 7.7579 4.9677 6.5157 4.9677 5.749 5.732 C 4.9822 6.4963 4.9822 7.7344 5.749 8.4987 L 7.1368 9.882 Z" fill="#555555"/>			<path d="M 3.9259 17.6087 L 1.963 17.6087 C 0.8789 17.6087 0 18.4838 0 19.5652 C 0 20.6467 0.8789 21.5217 1.963 21.5217 L 3.9259 21.5217 C 5.01 21.5217 5.8889 20.6467 5.8889 19.5652 C 5.8889 18.4838 5.01 17.6087 3.9259 17.6087 Z" fill="#555555"/>			<path d="M 30.7326 10.4551 C 31.2349 10.4551 31.7371 10.2641 32.1205 9.882 L 33.5084 8.4967 C 34.2752 7.7305 34.2752 6.4924 33.5065 5.7281 C 32.7378 4.9658 31.4956 4.9639 30.7326 5.7301 L 29.3438 7.1153 C 28.578 7.8815 28.578 9.1196 29.3457 9.8839 C 29.7281 10.2641 30.2304 10.4551 30.7326 10.4551 Z" fill="#555555"/>			<path d="M 44.2874 21.9249 C 42.4606 17.0699 37.7909 13.6957 32.3889 13.6957 C 30.84 13.6957 29.3505 13.9937 27.9588 14.5115 C 26.2422 11.6913 23.175 9.7826 19.6296 9.7826 C 14.218 9.7826 9.8148 14.1714 9.8148 19.5652 C 9.8148 21.9727 10.7043 24.1661 12.1612 25.8647 C 12.1343 25.9545 12.0912 26.0386 12.0672 26.1302 C 8.45 27.5747 5.8889 31.1037 5.8889 35.2174 C 5.8889 40.6112 10.2921 45 15.7037 45 L 41.2222 45 C 47.7169 45 53 39.7341 53 33.2609 C 53 27.8441 49.3003 23.2719 44.2874 21.9249 ZM 19.6296 13.6957 C 21.7086 13.6957 23.5268 14.7752 24.5715 16.3973 C 23.4137 17.2953 22.3987 18.3768 21.605 19.6226 C 21.2763 19.5844 20.9437 19.5652 20.6111 19.5652 C 18.1747 19.5652 15.9797 20.5683 14.38 22.1637 C 13.9842 21.3784 13.7408 20.5052 13.7408 19.5652 C 13.7408 16.3247 16.3775 13.6957 19.6296 13.6957 ZM 41.2222 41.0869 L 41.2222 41.0869 L 15.7037 41.0869 C 12.4506 41.0869 9.8148 38.4597 9.8148 35.2174 C 9.8148 31.975 12.4506 29.3478 15.7037 29.3478 C 15.7382 29.3478 15.7698 29.3574 15.8044 29.3574 C 15.7382 29.0383 15.7037 28.7078 15.7037 28.3696 C 15.7037 25.6679 17.8996 23.4783 20.6111 23.4783 C 21.8063 23.4783 22.8875 23.9215 23.7386 24.6285 C 24.5658 20.6218 28.1237 17.6087 32.3889 17.6087 C 36.934 17.6087 40.6356 21.0441 41.1245 25.4443 C 41.157 25.4443 41.1896 25.4348 41.2222 25.4348 C 45.5603 25.4348 49.0741 28.9351 49.0741 33.2609 C 49.0741 37.5867 45.5603 41.0869 41.2222 41.0869 Z" fill="#555555"/>		</g>		<path id="Ellipse" d="M 8 36 C 8 32.134 13.1487 29 19.5 29 C 25.8513 29 31 32.134 31 36 C 31 39.866 25.8513 43 19.5 43 C 13.1487 43 8 39.866 8 36 Z" fill="#555555"/>		<path id="Ellipse2" d="M 24 32.5 C 24 27.8055 30.0441 24 37.5 24 C 44.9559 24 51 27.8055 51 32.5 C 51 37.1945 44.9559 41 37.5 41 C 30.0441 41 24 37.1945 24 32.5 Z" fill="#555555"/>		<path id="Ellipse3" d="M 23 22.5 C 23 18.3578 27.2532 15 32.5 15 C 37.7468 15 42 18.3578 42 22.5 C 42 26.6422 37.7468 30 32.5 30 C 27.2532 30 23 26.6422 23 22.5 Z" fill="#555555"/>		<path id="Ellipse4" d="M 12 29 C 12 25.6863 15.8055 23 20.5 23 C 25.1945 23 29 25.6863 29 29 C 29 32.3137 25.1945 35 20.5 35 C 15.8055 35 12 32.3137 12 29 Z" fill="#555555"/>		<path id="Ellipse5" d="M 25 39 C 25 36.2385 30.1487 34 36.5 34 C 42.8513 34 48 36.2385 48 39 C 48 41.7615 42.8513 44 36.5 44 C 30.1487 44 25 41.7615 25 39 Z" fill="#555555"/>		<path id="Ellipse6" d="M 10 32.5 C 10 30.567 11.567 29 13.5 29 C 15.433 29 17 30.567 17 32.5 C 17 34.433 15.433 36 13.5 36 C 11.567 36 10 34.433 10 32.5 Z" fill="#555555"/>	</g></svg>