<?xml version="1.0" standalone="no"?><!-- Generator: Adobe Fireworks CS6, Export SVG Extension by Aaron Beall (http://fireworks.abeall.com) . Version: 0.6.1  --><!DOCTYPE svg PUBLIC "-//W3C//DTD SVG 1.1//EN" "http://www.w3.org/Graphics/SVG/1.1/DTD/svg11.dtd"><svg id="APPLICATIONS_02.fw-GFW-APPLICATIONS%20Copia%202" viewBox="0 0 1300 3500" style="background-color:#ffffff" version="1.1"	xmlns="http://www.w3.org/2000/svg" xmlns:xlink="http://www.w3.org/1999/xlink" xml:space="preserve"	x="0px" y="0px" width="1300px" height="3500px">	<g>		<g>			<path d="M 315.6296 939.8696 C 316.7137 939.8696 317.5926 938.9945 317.5926 937.913 L 317.5926 935.9565 C 317.5926 934.8751 316.7137 934 315.6296 934 C 314.5456 934 313.6667 934.8751 313.6667 935.9565 L 313.6667 937.913 C 313.6667 938.9945 314.5456 939.8696 315.6296 939.8696 Z" fill="#555555"/>			<path d="M 303.1368 943.882 C 303.5202 944.2641 304.0225 944.4551 304.5247 944.4551 C 305.0269 944.4551 305.5292 944.2641 305.9126 943.882 C 306.6794 943.1177 306.6794 941.8796 305.9126 941.1153 L 304.5247 939.732 C 303.7579 938.9677 302.5157 938.9677 301.749 939.732 C 300.9822 940.4963 300.9822 941.7344 301.749 942.4987 L 303.1368 943.882 Z" fill="#555555"/>			<path d="M 299.9259 951.6087 L 297.963 951.6087 C 296.8789 951.6087 296 952.4838 296 953.5652 C 296 954.6467 296.8789 955.5217 297.963 955.5217 L 299.9259 955.5217 C 301.01 955.5217 301.8889 954.6467 301.8889 953.5652 C 301.8889 952.4838 301.01 951.6087 299.9259 951.6087 Z" fill="#555555"/>			<path d="M 326.7326 944.4551 C 327.2349 944.4551 327.7371 944.2641 328.1205 943.882 L 329.5084 942.4967 C 330.2752 941.7305 330.2752 940.4924 329.5065 939.7281 C 328.7378 938.9658 327.4956 938.9639 326.7326 939.7301 L 325.3438 941.1153 C 324.578 941.8815 324.578 943.1196 325.3457 943.8839 C 325.7281 944.2641 326.2304 944.4551 326.7326 944.4551 Z" fill="#555555"/>			<path d="M 340.2874 955.9249 C 338.4606 951.0699 333.7909 947.6957 328.3889 947.6957 C 326.84 947.6957 325.3505 947.9937 323.9588 948.5115 C 322.2422 945.6913 319.175 943.7826 315.6296 943.7826 C 310.218 943.7826 305.8148 948.1714 305.8148 953.5652 C 305.8148 955.9727 306.7043 958.1661 308.1612 959.8647 C 308.1343 959.9545 308.0912 960.0386 308.0672 960.1302 C 304.45 961.5747 301.8889 965.1037 301.8889 969.2174 C 301.8889 974.6112 306.2921 979 311.7037 979 L 337.2222 979 C 343.7169 979 349 973.7341 349 967.2609 C 349 961.8441 345.3003 957.2719 340.2874 955.9249 ZM 315.6296 947.6957 C 317.7086 947.6957 319.5268 948.7752 320.5715 950.3973 C 319.4137 951.2953 318.3987 952.3768 317.605 953.6226 C 317.2763 953.5844 316.9437 953.5652 316.6111 953.5652 C 314.1747 953.5652 311.9797 954.5683 310.38 956.1637 C 309.9842 955.3784 309.7408 954.5052 309.7408 953.5652 C 309.7408 950.3247 312.3775 947.6957 315.6296 947.6957 ZM 337.2222 975.0869 L 337.2222 975.0869 L 311.7037 975.0869 C 308.4506 975.0869 305.8148 972.4597 305.8148 969.2174 C 305.8148 965.975 308.4506 963.3478 311.7037 963.3478 C 311.7382 963.3478 311.7698 963.3574 311.8044 963.3574 C 311.7382 963.0383 311.7037 962.7078 311.7037 962.3696 C 311.7037 959.6679 313.8996 957.4783 316.6111 957.4783 C 317.8063 957.4783 318.8875 957.9215 319.7386 958.6285 C 320.5658 954.6218 324.1237 951.6087 328.3889 951.6087 C 332.934 951.6087 336.6356 955.0441 337.1245 959.4443 C 337.157 959.4443 337.1896 959.4348 337.2222 959.4348 C 341.5603 959.4348 345.0741 962.9351 345.0741 967.2609 C 345.0741 971.5867 341.5603 975.0869 337.2222 975.0869 Z" fill="#555555"/>		</g>		<path id="Ellipse" d="M 304 970 C 304 966.134 309.1487 963 315.5 963 C 321.8513 963 327 966.134 327 970 C 327 973.866 321.8513 977 315.5 977 C 309.1487 977 304 973.866 304 970 Z" fill="#555555"/>		<path id="Ellipse2" d="M 320 966.5 C 320 961.8055 326.0441 958 333.5 958 C 340.9559 958 347 961.8055 347 966.5 C 347 971.1945 340.9559 975 333.5 975 C 326.0441 975 320 971.1945 320 966.5 Z" fill="#555555"/>		<path id="Ellipse3" d="M 319 956.5 C 319 952.3578 323.2532 949 328.5 949 C 333.7468 949 338 952.3578 338 956.5 C 338 960.6422 333.7468 964 328.5 964 C 323.2532 964 319 960.6422 319 956.5 Z" fill="#555555"/>		<path id="Ellipse4" d="M 308 963 C 308 959.6863 311.8055 957 316.5 957 C 321.1945 957 325 959.6863 325 963 C 325 966.3137 321.1945 969 316.5 969 C 311.8055 969 308 966.3137 308 963 Z" fill="#555555"/>		<path id="Ellipse5" d="M 321 973 C 321 970.2385 326.1487 968 332.5 968 C 338.8513 968 344 970.2385 344 973 C 344 975.7615 338.8513 978 332.5 978 C 326.1487 978 321 975.7615 321 973 Z" fill="#555555"/>		<path id="Ellipse6" d="M 306 966.5 C 306 964.567 307.567 963 309.5 963 C 311.433 963 313 964.567 313 966.5 C 313 968.433 311.433 970 309.5 970 C 307.567 970 306 968.433 306 966.5 Z" fill="#555555"/>	</g></svg>