<?xml version="1.0" standalone="no"?><!-- Generator: Adobe Fireworks CS6, Export SVG Extension by Aaron Beall (http://fireworks.abeall.com) . Version: 0.6.1  --><!DOCTYPE svg PUBLIC "-//W3C//DTD SVG 1.1//EN" "http://www.w3.org/Graphics/SVG/1.1/DTD/svg11.dtd"><svg id="Untitled-Page%201" viewBox="0 0 23 14" style="background-color:#ffffff00" version="1.1"	xmlns="http://www.w3.org/2000/svg" xmlns:xlink="http://www.w3.org/1999/xlink" xml:space="preserve"	x="0px" y="0px" width="23px" height="14px">	<g id="Layer%201">		<g>			<path d="M 8 6 L 8 0 L 3.0951 0 L 1 4.7362 L 1 6.3678 L 1 8.1076 L 1 8.8813 L 0.303 10.0884 L 0 11 L 1.8126 11 C 1.8126 12.4816 2.605 13.9649 3.9428 13.9649 C 5.2807 13.9649 6.3653 12.4816 6.3653 11 L 15.7935 11 C 15.7935 12.4816 16.8781 13.9649 18.2159 13.9649 C 19.5538 13.9649 20.6385 12.4816 20.6385 11 L 23 11 L 23 6 L 8 6 ZM 3.2784 1 L 7 1 L 7 4 L 1.8673 4 L 3.2784 1 Z" fill="#b6b6ba"/>			<path d="M 21 3 L 9 3 L 9 5 L 21 5 L 21 3 Z" fill="#b6b6ba"/>		</g>	</g></svg>