<?xml version="1.0" standalone="no"?><!-- Generator: Adobe Fireworks CS6, Export SVG Extension by Aaron Beall (http://fireworks.abeall.com) . Version: 0.6.1  --><!DOCTYPE svg PUBLIC "-//W3C//DTD SVG 1.1//EN" "http://www.w3.org/Graphics/SVG/1.1/DTD/svg11.dtd"><svg id="Untitled-Page%201" viewBox="0 0 25 25" style="background-color:#ffffff00" version="1.1"	xmlns="http://www.w3.org/2000/svg" xmlns:xlink="http://www.w3.org/1999/xlink" xml:space="preserve"	x="0px" y="0px" width="25px" height="25px">	<symbol id="shape-commodities">		<path d="M 9 12 L 9 6 L 4.0951 6 L 2 10.7362 L 2 12.3678 L 2 14.1076 L 2 14.8813 L 1.303 16.0884 L 1 17 L 2.8126 17 C 2.8126 18.4816 3.605 19.9649 4.9428 19.9649 C 6.2807 19.9649 7.3653 18.4816 7.3653 17 L 16.7935 17 C 16.7935 18.4816 17.8781 19.9649 19.2159 19.9649 C 20.5538 19.9649 21.6385 18.4816 21.6385 17 L 24 17 L 24 12 L 9 12 ZM 4.2784 7 L 8 7 L 8 10 L 2.8673 10 L 4.2784 7 Z" fill="#b6b6ba"/>		<path d="M 22 9 L 10 9 L 10 11 L 22 11 L 22 9 Z" fill="#b6b6ba"/>	</symbol></svg>