<?xml version="1.0" standalone="no"?><!-- Generator: Adobe Fireworks CS6, Export SVG Extension by Aaron Beall (http://fireworks.abeall.com) . Version: 0.6.1  --><!DOCTYPE svg PUBLIC "-//W3C//DTD SVG 1.1//EN" "http://www.w3.org/Graphics/SVG/1.1/DTD/svg11.dtd"><svg id="Untitled-Page%201" viewBox="0 0 25 25" style="background-color:#ffffff00" version="1.1"	xmlns="http://www.w3.org/2000/svg" xmlns:xlink="http://www.w3.org/1999/xlink" xml:space="preserve"	x="0px" y="0px" width="25px" height="25px">	<symbol id="shape-country">		<path d="M 21.5604 4.9287 C 21.5604 3.3138 20.2511 2 18.6417 2 C 17.0323 2 15.7231 3.3138 15.7231 4.9287 C 15.7231 6.4127 17.9526 10.5764 18.6411 11.5539 C 19.3611 10.5518 21.5604 6.3963 21.5604 4.9287 Z" fill="#b0b0b0"/>		<path d="M 2.0141 11.7165 C 2.0141 11.7165 2.4291 11.011 3.7812 10.3474 C 5.1334 9.6839 4.7827 9.3262 7.4869 9.9897 C 10.1911 10.6533 10.1268 11.7165 12.493 11.3847 C 14.8591 11.0529 14.8591 10.3894 15.5352 11.0529 C 16.2113 11.7165 16.7478 12.0223 16.8873 12.0482 C 17.0269 12.0742 17.6614 11.55 17.5634 11.7165 C 17.4653 11.883 18.6177 13.983 18.5775 13.8744 C 18.5372 13.7658 20.6057 10.7212 20.6057 10.7212 C 20.6057 10.7212 21.7184 11.1314 22.2958 11.0529 C 22.8732 10.9744 22.7174 10.1331 23.6479 10.7212 C 24.5784 11.3091 24.6481 11.6397 24.662 12.0482 C 24.6758 12.4568 25 13.0436 25 13.0436 C 25 13.0436 24.7089 14.1924 23.9859 13.7072 C 23.2629 13.2219 23.0278 12.6203 22.6338 13.3753 C 22.2399 14.1304 23.2106 14.7426 23.3098 15.0342 C 23.4091 15.3259 23.3201 15.448 22.6338 15.6978 C 21.9475 15.9475 21.4868 16.7634 21.6198 17.0249 C 21.7527 17.2864 20.8168 17.6483 20.9437 18.352 C 21.0706 19.0557 20.0673 20.6555 19.2535 21.338 C 18.4397 22.0204 18.4229 23.0647 18.5775 22.9969 C 18.7321 22.929 16.9366 20.446 17.2253 19.6791 C 17.514 18.9122 17.8563 18.6584 17.5634 18.0202 C 17.2704 17.382 16.8873 18.0202 16.8873 18.0202 C 16.8873 18.0202 14.4573 19.7588 14.1831 20.6744 C 13.9088 21.59 13.5984 18.1802 13.169 18.0202 C 12.7396 17.8602 12.3558 17.8094 11.8169 17.3567 C 11.278 16.9039 9.4507 17.3567 9.4507 17.3567 C 9.4507 17.3567 10.315 18.4016 8.7747 19.0155 C 7.2343 19.6295 6.0704 20.3426 6.0704 20.3426 C 6.0704 20.3426 4.4982 20.3385 4.3803 20.3426 C 4.2624 20.3467 5.7895 19.3337 5.7324 17.6884 C 5.6753 16.0432 4.6383 15.8365 4.7183 15.366 C 4.7983 14.8955 4.0422 13.7072 4.0422 13.7072 L 2.6902 13.0436 L 1 13.3753 L 2.0141 11.7165 Z" fill="#b0b0b0"/>	</symbol></svg>