<?xml version="1.0" standalone="no"?><!-- Generator: Adobe Fireworks CS6, Export SVG Extension by Aaron Beall (http://fireworks.abeall.com) . Version: 0.6.1  --><!DOCTYPE svg PUBLIC "-//W3C//DTD SVG 1.1//EN" "http://www.w3.org/Graphics/SVG/1.1/DTD/svg11.dtd"><svg id="Untitled-Page%201" viewBox="0 0 24 22" style="background-color:#ffffff00" version="1.1"	xmlns="http://www.w3.org/2000/svg" xmlns:xlink="http://www.w3.org/1999/xlink" xml:space="preserve"	x="0px" y="0px" width="24px" height="22px">	<g id="Layer%201">		<g>			<path d="M 20.5604 2.9287 C 20.5604 1.3138 19.2511 0 17.6417 0 C 16.0323 0 14.7231 1.3138 14.7231 2.9287 C 14.7231 4.4127 16.9526 8.5764 17.6411 9.5539 C 18.3611 8.5518 20.5604 4.3963 20.5604 2.9287 Z" fill="#b6b6ba"/>			<path d="M 1.0141 9.7165 C 1.0141 9.7165 1.4291 9.011 2.7812 8.3474 C 4.1334 7.6839 3.7827 7.3262 6.4869 7.9897 C 9.1911 8.6533 9.1268 9.7165 11.493 9.3847 C 13.8591 9.0529 13.8591 8.3894 14.5352 9.0529 C 15.2113 9.7165 15.7478 10.0223 15.8873 10.0482 C 16.0269 10.0742 16.6614 9.55 16.5634 9.7165 C 16.4653 9.883 17.6177 11.983 17.5775 11.8744 C 17.5372 11.7658 19.6057 8.7212 19.6057 8.7212 C 19.6057 8.7212 20.7184 9.1314 21.2958 9.0529 C 21.8732 8.9744 21.7174 8.1331 22.6479 8.7212 C 23.5784 9.3091 23.6481 9.6397 23.662 10.0482 C 23.6758 10.4568 24 11.0436 24 11.0436 C 24 11.0436 23.7089 12.1924 22.9859 11.7072 C 22.2629 11.2219 22.0278 10.6203 21.6338 11.3753 C 21.2399 12.1304 22.2106 12.7426 22.3098 13.0342 C 22.4091 13.3259 22.3201 13.448 21.6338 13.6978 C 20.9475 13.9475 20.4868 14.7634 20.6198 15.0249 C 20.7527 15.2864 19.8168 15.6483 19.9437 16.352 C 20.0706 17.0557 19.0673 18.6555 18.2535 19.338 C 17.4397 20.0204 17.4229 21.0647 17.5775 20.9969 C 17.7321 20.929 15.9366 18.446 16.2253 17.6791 C 16.514 16.9122 16.8563 16.6584 16.5634 16.0202 C 16.2704 15.382 15.8873 16.0202 15.8873 16.0202 C 15.8873 16.0202 13.4573 17.7588 13.1831 18.6744 C 12.9088 19.59 12.5984 16.1802 12.169 16.0202 C 11.7396 15.8602 11.3558 15.8094 10.8169 15.3567 C 10.278 14.9039 8.4507 15.3567 8.4507 15.3567 C 8.4507 15.3567 9.315 16.4016 7.7747 17.0155 C 6.2343 17.6295 5.0704 18.3426 5.0704 18.3426 C 5.0704 18.3426 3.4982 18.3385 3.3803 18.3426 C 3.2624 18.3467 4.7895 17.3337 4.7324 15.6884 C 4.6753 14.0432 3.6383 13.8365 3.7183 13.366 C 3.7983 12.8955 3.0422 11.7072 3.0422 11.7072 L 1.6902 11.0436 L 0 11.3753 L 1.0141 9.7165 Z" fill="#b6b6ba"/>		</g>	</g></svg>