<?xml version="1.0" standalone="no"?><!-- Generator: Adobe Fireworks CS6, Export SVG Extension by Aaron Beall (http://fireworks.abeall.com) . Version: 0.6.1  --><!DOCTYPE svg PUBLIC "-//W3C//DTD SVG 1.1//EN" "http://www.w3.org/Graphics/SVG/1.1/DTD/svg11.dtd"><svg id="Untitled-Page%201" viewBox="0 0 70 69" style="background-color:#ffffff00" version="1.1"	xmlns="http://www.w3.org/2000/svg" xmlns:xlink="http://www.w3.org/1999/xlink" xml:space="preserve"	x="0px" y="0px" width="70px" height="69px">	<g>		<path d="M 45.7513 54.335 C 45.609 54.3494 45.4654 54.3596 45.321 54.3596 C 45.1259 54.3596 44.9428 54.343 44.7618 54.3088 L 44.1231 54.188 L 43.7076 53.6838 L 43.3774 53.2893 C 43.0851 52.9429 42.7915 52.5928 42.519 52.2268 C 41.8661 52.0842 41.3655 51.7773 40.9746 51.4272 C 40.6902 51.4854 40.3937 51.5146 40.0894 51.5146 C 38.9332 51.5146 37.8078 51.0847 36.9684 50.363 C 36.7635 50.4197 36.5248 50.4624 36.2579 50.4624 L 35.0966 50.4136 L 34.7072 49.6394 C 34.5798 49.6584 34.453 49.6782 34.3255 49.6982 C 33.6643 49.8015 32.9805 49.9082 32.2249 49.9082 L 32.0002 49.905 L 31.346 49.8853 L 30.8566 49.4468 C 30.0757 48.7468 29.8095 47.7366 30.125 46.6731 C 30.1158 46.6621 30.0954 46.6294 30.0595 46.5835 C 29.3053 45.6313 29.07 44.5574 29.3616 43.3921 C 29.4391 43.0813 29.3764 42.6719 29.2841 42.1987 L 29.1905 42.2004 C 28.8123 42.2004 28.468 42.1379 28.1595 42.0134 C 28.0306 42.3125 27.8482 42.6428 27.5701 42.9631 L 27.1335 43.4675 L 26.4772 43.5654 C 26.0314 43.6318 25.5983 43.6541 25.1793 43.6755 C 24.6822 43.7009 24.2125 43.7251 23.8097 43.8208 C 23.6286 43.8638 23.4442 43.8853 23.2617 43.8853 C 22.0949 43.8853 21.4125 43.0518 21.1879 42.7778 C 20.3105 41.7021 19.8252 40.5088 19.4767 39.4512 C 18.7978 39.4453 18.119 39.4438 17.4401 39.4438 L 14.3036 39.4436 C 14.193 39.4436 14.0803 39.4663 13.9332 39.5171 C 13.6642 39.6104 13.3895 39.6577 13.1177 39.6577 C 12.2325 39.6577 11.4635 39.1775 11.0072 38.3406 L 10.8262 38.0078 L 10.7917 37.6289 C 10.7178 36.8198 11.0748 36.2351 11.2459 35.9543 L 11.248 35.9507 C 11.5544 34.3208 12.7318 33.2776 14.2916 33.2776 C 14.355 33.2776 14.4184 33.2793 14.4825 33.283 C 15.043 32.8916 15.5148 32.7988 16.4972 32.6882 L 17.0697 32.6238 L 17.4662 32.8469 C 17.7464 32.6038 18.0323 32.364 18.3267 32.1296 C 18.326 32.0908 18.3239 32.0415 18.3182 31.9817 C 18.0316 28.9683 20.1626 27.2219 21.0724 26.4761 C 21.2731 26.3113 21.3168 26.249 21.3231 26.238 C 21.3703 25.9219 21.4076 25.6252 21.4456 25.3296 C 21.5083 24.8352 21.5717 24.3445 21.659 23.875 C 21.7083 23.6072 21.7407 23.333 21.7745 23.0571 C 21.8857 22.1396 22.0244 20.9976 22.6758 19.9231 C 23.0209 19.3545 23.0287 18.9927 22.997 18.741 C 22.7406 16.7014 24.0512 15.5068 24.8335 14.7927 C 25.3899 14.2861 26.042 14.0303 26.7448 14.0303 C 27.4194 14.0303 28.106 14.2683 28.7849 14.7371 C 28.9454 14.8479 29.1046 14.9668 29.263 15.0859 C 29.5862 15.3289 29.8911 15.5579 30.0813 15.5771 C 30.5411 15.6238 30.9996 15.6807 31.4622 15.7402 C 32.1319 15.106 32.9305 14.7856 33.8481 14.7856 C 33.9629 14.7856 34.0812 14.791 34.203 14.802 C 34.2473 14.7856 34.291 14.7668 34.3347 14.7498 C 34.4361 14.71 34.5361 14.6714 34.6347 14.6372 C 35.2487 14.4224 35.853 14.3181 36.4825 14.3181 C 36.4825 14.3181 36.8783 14.3223 36.8867 14.3223 C 36.96 14.2646 37.6529 13.6948 37.6529 13.6948 L 38.3494 13.6619 C 38.8881 13.6672 39.3479 13.8174 39.6845 13.9275 C 39.7571 13.9514 39.8282 13.978 39.8986 13.9971 C 40.1845 13.95 40.4683 13.9258 40.7422 13.9258 C 42.0126 13.9258 43.1196 14.4141 44.1118 15.415 C 44.3928 15.3621 44.6491 15.342 44.8633 15.3257 C 45.0182 15.3135 45.2527 15.2954 45.3133 15.2683 L 46.5463 14.5115 L 47.5449 15.563 C 48.2948 16.3496 49.1322 17.0281 49.9251 17.6555 L 50.6905 18.261 L 50.5321 20.1941 C 50.7933 20.4509 51.0497 20.8062 51.1975 21.3064 L 51.2849 21.603 L 51.2701 21.9119 C 51.1877 23.6733 49.8328 24.5728 49.1046 25.0562 C 48.7152 25.3142 48.5266 25.6853 48.2984 26.6433 C 48.2258 26.9443 48.1906 27.3088 48.1533 27.6946 C 48.1301 27.9373 48.1061 28.1797 48.0737 28.4207 C 48.0498 28.8015 47.9977 29.5852 47.3217 30.1611 C 47.3181 30.1821 47.247 30.3896 47.1949 30.5413 C 47.1449 30.6865 47.0885 30.8494 47.0188 31.0229 C 47.159 31.4639 47.2238 31.8772 47.2773 32.2205 C 47.3047 32.3975 47.3301 32.5737 47.3723 32.7451 C 47.5301 33.3879 47.5702 34.0005 47.6054 34.541 C 47.6421 35.1052 47.6737 35.5925 47.8244 35.9512 C 47.928 36.1973 48.2301 36.9177 48.0167 37.7207 C 48.0737 37.7827 48.1681 37.8755 48.3237 38.0146 C 49.092 38.7007 49.449 39.5439 49.7363 40.2207 C 49.8765 40.5515 50.0089 40.8638 50.1737 41.1309 L 51.4511 43.199 L 49.1251 43.8499 C 48.1794 44.1147 47.304 44.2871 46.3125 44.3994 L 46.1484 44.605 C 46.4505 45.7954 46.3928 47.0105 45.9752 48.2332 C 46.0857 48.2139 46.204 48.2029 46.3294 48.2029 C 46.7083 48.2029 47.0864 48.3071 47.423 48.5049 L 47.9793 48.8315 L 48.2054 49.4392 C 48.6751 50.7031 48.6596 51.4744 48.3815 53.0137 L 47.8294 56.0754 L 45.7513 54.335 Z" fill="#555555"/>		<path d="M 34.4057 68.9714 C 15.4937 68.9714 0.1085 53.543 0.1085 34.5786 C 0.1085 15.6147 15.4937 0.1865 34.4057 0.1865 C 53.317 0.1865 68.7022 15.6147 68.7022 34.5786 C 68.7022 53.543 53.317 68.9714 34.4057 68.9714 ZM 34.4057 5.896 C 18.6336 5.896 5.8022 18.7632 5.8022 34.5786 C 5.8022 50.3945 18.6336 63.2617 34.4057 63.2617 C 50.177 63.2617 63.0085 50.3945 63.0085 34.5786 C 63.0085 18.7632 50.177 5.896 34.4057 5.896 Z" fill="#555555"/>		<path d="M 69.6689 62.7712 L 63.578 68.8789 L 57.4872 62.7712 L 63.578 56.6633 L 69.6689 62.7712 Z" fill="#555555"/>	</g></svg>