<?xml version="1.0" standalone="no"?><!-- Generator: Adobe Fireworks CS6, Export SVG Extension by Aaron Beall (http://fireworks.abeall.com) . Version: 0.6.1  --><!DOCTYPE svg PUBLIC "-//W3C//DTD SVG 1.1//EN" "http://www.w3.org/Graphics/SVG/1.1/DTD/svg11.dtd"><svg id="Untitled-Page%201" viewBox="0 0 25 25" style="background-color:#ffffff00" version="1.1"	xmlns="http://www.w3.org/2000/svg" xmlns:xlink="http://www.w3.org/1999/xlink" xml:space="preserve"	x="0px" y="0px" width="25px" height="25px">	<symbol id="shape-develop">		<g>			<path d="M 13.2204 16.4641 C 13.3931 16.6516 13.0252 17.3231 12.8785 17.5164 L 17.9667 22.7297 C 18.4057 23.1791 19.1195 23.1731 19.562 22.7172 L 21.1641 21.0658 C 21.6066 20.6098 21.6125 19.874 21.1763 19.4216 L 16.1024 14.1605 L 15.1013 15.2042 C 14.8212 15.4961 14.4401 15.6104 14.0876 15.5454 C 14.0876 15.5454 13.2648 16.3875 13.1831 16.4236 L 13.2204 16.4641 ZM 8.1833 12.7084 L 8.9826 13.5262 L 9.0353 13.4712 C 9.2188 13.2828 9.8982 12.9083 10.0814 13.1073 L 10.1974 13.2342 C 10.2334 13.149 10.9788 12.3464 10.9788 12.3464 C 10.8714 11.9392 10.9786 11.4769 11.2943 11.1531 L 12.2531 10.1686 L 11.4532 9.3381 C 11.3471 9.228 11.2255 9.144 11.0957 9.085 C 11.335 8.4846 11.4785 7.8316 11.5063 7.1447 C 11.638 3.886 9.122 1.1153 5.8938 1.0035 C 5.1565 0.9778 4.4489 1.0944 3.7959 1.3278 L 7.6174 5.1216 L 4.3725 8.5183 L 0.4395 4.5484 C 0.1652 5.2154 0.0101 5.9458 0.0005 6.7128 C -0.0394 9.9063 2.4572 12.5609 5.585 12.6872 C 6.4074 12.7204 7.1968 12.5765 7.916 12.2873 C 7.9733 12.441 8.0624 12.5845 8.1833 12.7084 Z" fill="#555555"/>			<path d="M 21.0269 1.805 L 11.9175 11.1531 C 11.6018 11.4769 11.4947 11.9392 11.6021 12.3464 L 10.5941 13.3828 C 10.5266 13.4522 10.4742 13.5323 10.4383 13.6174 L 10.3224 13.4906 C 10.1391 13.2916 9.842 13.2828 9.6585 13.4712 L 8.9926 14.1545 C 8.8084 14.3435 8.8073 14.6592 8.9906 14.8595 L 9.4855 15.4004 L 6.5746 18.3993 L 3.9555 19.766 L 2.7294 22.4347 L 4.116 24 L 6.6564 22.7876 L 8.0297 20.0109 L 10.9404 16.9902 L 11.4401 17.5362 C 11.6258 17.7392 11.9259 17.7479 12.1102 17.5558 L 12.7761 16.8618 C 12.9596 16.6705 12.9577 16.3521 12.7721 16.1504 L 12.7348 16.1099 C 12.8164 16.0738 12.8941 16.0214 12.9616 15.9512 L 14.0215 14.8485 C 14.3741 14.9133 14.7552 14.7992 15.0352 14.5073 L 24.143 5.0149 C 24.5765 4.563 24.5761 3.8373 24.1439 3.3937 L 22.586 1.7951 C 22.1577 1.3555 21.4605 1.36 21.0269 1.805 Z" fill="#555555"/>		</g>	</symbol></svg>