<?xml version="1.0" standalone="no"?><!-- Generator: Adobe Fireworks CS6, Export SVG Extension by Aaron Beall (http://fireworks.abeall.com) . Version: 0.6.1  --><!DOCTYPE svg PUBLIC "-//W3C//DTD SVG 1.1//EN" "http://www.w3.org/Graphics/SVG/1.1/DTD/svg11.dtd"><svg id="Untitled-Page%201" viewBox="0 0 47 44" style="background-color:#ffffff00" version="1.1"	xmlns="http://www.w3.org/2000/svg" xmlns:xlink="http://www.w3.org/1999/xlink" xml:space="preserve"	x="0px" y="0px" width="47px" height="44px">	<g id="Layer%201">		<g>			<path d="M 24.8544 29.5835 C 25.179 29.9421 24.4874 31.2269 24.2115 31.5966 L 33.7773 41.5699 C 34.6027 42.4296 35.9447 42.418 36.7765 41.5459 L 39.7885 38.3867 C 40.6204 37.5144 40.6314 36.1068 39.8115 35.2413 L 30.2726 25.1766 L 28.3904 27.1733 C 27.8638 27.7318 27.1474 27.9503 26.4847 27.826 C 26.4847 27.826 24.9377 29.437 24.7842 29.5061 L 24.8544 29.5835 ZM 15.3846 22.3987 L 16.8872 23.9631 L 16.9863 23.858 C 17.3314 23.4976 18.6086 22.7811 18.9531 23.1618 L 19.1712 23.4045 C 19.2387 23.2415 20.6401 21.7062 20.6401 21.7062 C 20.4383 20.9272 20.6398 20.0428 21.2333 19.4233 L 23.0358 17.5399 L 21.5321 15.9512 C 21.3325 15.7406 21.1039 15.5798 20.8599 15.467 C 21.3098 14.3183 21.5796 13.0692 21.6318 11.7551 C 21.8795 5.5211 17.1494 0.2206 11.0803 0.0067 C 9.6943 -0.0424 8.3639 0.1805 7.1362 0.627 L 14.3208 7.8849 L 8.2202 14.3828 L 0.8262 6.7883 C 0.3106 8.0641 0.0189 9.4615 0.0009 10.9288 C -0.074 17.0381 4.6196 22.1165 10.4999 22.3582 C 12.0459 22.4216 13.5299 22.1463 14.882 21.5931 C 14.9899 21.8871 15.1572 22.1617 15.3846 22.3987 Z" fill="#555555"/>			<path d="M 39.5305 1.5399 L 22.4048 19.4233 C 21.8115 20.0428 21.61 20.9272 21.812 21.7062 L 19.9169 23.6888 C 19.7901 23.8216 19.6915 23.9749 19.6241 24.1376 L 19.4062 23.8951 C 19.0615 23.5143 18.5029 23.4976 18.158 23.858 L 16.906 25.1652 C 16.5598 25.5267 16.5578 26.1307 16.9023 26.5139 L 17.8328 27.5486 L 12.3603 33.2856 L 7.4363 35.9002 L 5.1313 41.0054 L 7.7382 44 L 12.5141 41.6807 L 15.0958 36.3687 L 20.568 30.5899 L 21.5074 31.6344 C 21.8566 32.0228 22.4207 32.0394 22.7672 31.672 L 24.0191 30.3444 C 24.3641 29.9784 24.3604 29.3691 24.0115 28.9834 L 23.9413 28.9058 C 24.0949 28.8369 24.2409 28.7366 24.3677 28.6024 L 26.3605 26.4929 C 27.0233 26.6168 27.7397 26.3986 28.2662 25.84 L 45.3889 7.6806 C 46.2039 6.8162 46.2031 5.4278 45.3906 4.5792 L 42.4616 1.521 C 41.6565 0.6801 40.3457 0.6888 39.5305 1.5399 Z" fill="#555555"/>		</g>	</g></svg>