<?xml version="1.0" standalone="no"?><!-- Generator: Adobe Fireworks CS6, Export SVG Extension by Aaron Beall (http://fireworks.abeall.com) . Version: 0.6.1  --><!DOCTYPE svg PUBLIC "-//W3C//DTD SVG 1.1//EN" "http://www.w3.org/Graphics/SVG/1.1/DTD/svg11.dtd"><svg id="Untitled-Page%201" viewBox="0 0 25 25" style="background-color:#ffffff00" version="1.1"	xmlns="http://www.w3.org/2000/svg" xmlns:xlink="http://www.w3.org/1999/xlink" xml:space="preserve"	x="0px" y="0px" width="25px" height="25px">	<symbol id="shape-fire">		<path d="M 4.1513 14.3746 C 4.2951 13.771 4.6617 12.8008 5.2512 11.4642 C 5.8407 10.1275 6.1642 9.0568 6.2217 8.252 C 6.7968 9.3155 7.1275 10.3791 7.2137 11.4426 C 9.3991 8.7406 10.5349 5.5931 10.6212 2 C 10.7649 2.0862 10.9519 2.2084 11.1819 2.3665 C 11.4119 2.5246 11.8361 2.8623 12.4543 3.3798 C 13.0725 3.8971 13.6189 4.4361 14.0933 4.9966 C 14.5678 5.5571 15.0135 6.2686 15.4305 7.1309 C 15.8474 7.9933 16.0989 8.8556 16.1853 9.7179 C 16.4153 9.2005 16.559 8.6256 16.6165 7.9933 C 16.6741 7.3609 16.6022 6.7716 16.4009 6.2255 C 16.6309 6.3979 16.9329 6.6854 17.3067 7.0878 C 17.6805 7.4902 18.0974 8.0364 18.5575 8.7262 C 19.0176 9.4161 19.4273 10.1491 19.7868 10.9252 C 20.1462 11.7013 20.3763 12.5708 20.4769 13.5338 C 20.5776 14.4967 20.5128 15.431 20.2828 16.3364 C 20.0528 17.2419 19.5208 18.176 18.6869 19.139 C 17.853 20.102 16.7316 20.9858 15.3226 21.7907 C 16.2715 19.8936 16.4584 17.8455 15.8833 15.6465 C 15.3082 13.4475 14.1724 11.7588 12.4759 10.5803 C 12.6197 11.2127 12.5406 12.2546 12.2386 13.7063 C 11.9367 15.1579 11.455 16.2574 10.7937 17.0047 C 10.9087 16.0849 10.9375 15.3375 10.8799 14.7626 C 10.8225 14.1877 10.7362 13.7565 10.6212 13.4691 L 10.4055 13.0811 C 10.233 14.1159 9.7873 15.1507 9.0684 16.1855 C 8.6946 16.7317 8.4142 17.2347 8.2273 17.6946 C 8.0404 18.1545 7.9685 18.7438 8.0116 19.4624 C 8.0548 20.181 8.2776 20.9571 8.6802 21.7907 C 6.6961 20.6696 5.3662 19.5342 4.6905 18.3845 C 4.0147 17.2347 3.835 15.898 4.1513 14.3746 L 4.1513 14.3746 Z" fill="#b6b6ba"/>	</symbol></svg>