<?xml version="1.0" standalone="no"?><!-- Generator: Adobe Fireworks CS6, Export SVG Extension by Aaron Beall (http://fireworks.abeall.com) . Version: 0.6.1  --><!DOCTYPE svg PUBLIC "-//W3C//DTD SVG 1.1//EN" "http://www.w3.org/Graphics/SVG/1.1/DTD/svg11.dtd"><svg id="Untitled-Page%201" viewBox="0 0 17 20" style="background-color:#ffffff00" version="1.1"	xmlns="http://www.w3.org/2000/svg" xmlns:xlink="http://www.w3.org/1999/xlink" xml:space="preserve"	x="0px" y="0px" width="17px" height="20px">	<g id="Layer%201">		<g>			<path d="M 0.1513 12.3746 C 0.2951 11.771 0.6617 10.8008 1.2512 9.4642 C 1.8407 8.1275 2.1642 7.0568 2.2217 6.252 C 2.7968 7.3155 3.1275 8.3791 3.2137 9.4426 C 5.3991 6.7406 6.5349 3.5931 6.6212 0 C 6.7649 0.0862 6.9519 0.2084 7.1819 0.3665 C 7.4119 0.5246 7.8361 0.8623 8.4543 1.3798 C 9.0725 1.8971 9.6189 2.4361 10.0933 2.9966 C 10.5678 3.5571 11.0135 4.2686 11.4305 5.1309 C 11.8474 5.9933 12.0989 6.8556 12.1853 7.7179 C 12.4153 7.2005 12.559 6.6256 12.6165 5.9933 C 12.6741 5.3609 12.6022 4.7716 12.4009 4.2255 C 12.6309 4.3979 12.9329 4.6854 13.3067 5.0878 C 13.6805 5.4903 14.0974 6.0364 14.5575 6.7262 C 15.0176 7.4161 15.4273 8.1491 15.7868 8.9252 C 16.1462 9.7013 16.3763 10.5708 16.4769 11.5338 C 16.5776 12.4967 16.5128 13.431 16.2828 14.3364 C 16.0528 15.2419 15.5208 16.176 14.6869 17.139 C 13.853 18.102 12.7316 18.9858 11.3226 19.7907 C 12.2715 17.8936 12.4584 15.8455 11.8833 13.6465 C 11.3082 11.4475 10.1724 9.7588 8.4759 8.5803 C 8.6197 9.2127 8.5406 10.2546 8.2386 11.7063 C 7.9367 13.1579 7.455 14.2574 6.7937 15.0047 C 6.9087 14.0849 6.9375 13.3375 6.8799 12.7626 C 6.8225 12.1877 6.7362 11.7565 6.6212 11.4691 L 6.4055 11.0811 C 6.233 12.1159 5.7873 13.1507 5.0684 14.1855 C 4.6946 14.7317 4.4142 15.2347 4.2273 15.6946 C 4.0404 16.1545 3.9685 16.7438 4.0116 17.4624 C 4.0548 18.181 4.2776 18.9571 4.6802 19.7907 C 2.6961 18.6696 1.3662 17.5342 0.6905 16.3845 C 0.0147 15.2347 -0.165 13.898 0.1513 12.3746 L 0.1513 12.3746 Z" fill="#b6b6ba"/>		</g>	</g></svg>