<?xml version="1.0" standalone="no"?><!-- Generator: Adobe Fireworks CS6, Export SVG Extension by Aaron Beall (http://fireworks.abeall.com) . Version: 0.6.1  --><!DOCTYPE svg PUBLIC "-//W3C//DTD SVG 1.1//EN" "http://www.w3.org/Graphics/SVG/1.1/DTD/svg11.dtd"><svg id="Untitled-P%E1gina%201" viewBox="0 0 106 107" style="background-color:#ffffff00" version="1.1"	xmlns="http://www.w3.org/2000/svg" xmlns:xlink="http://www.w3.org/1999/xlink" xml:space="preserve"	x="0px" y="0px" width="106px" height="107px">	<g id="Capa%201">		<g>			<path d="M 106 32.069 L 106 16.0883 L 106 1 L 90.91 1 L 90.4117 0.5 L 89.91 1 L 74.931 1 L 82.42 8.49 L 66.6794 24.2312 L 82.2688 39.8204 L 98.01 24.08 L 106 32.069 ZM 74.931 107 L 106 107 L 106 90.9117 L 106 75.931 L 98.51 83.42 L 83.1826 68.0933 L 67.5933 83.6825 L 82.92 99.01 L 74.931 107 ZM 0 75.9311 L 0 90.9117 L 0 107 L 31.069 107 L 23.08 99.01 L 39.3206 82.7687 L 23.7312 67.1794 L 7.49 83.42 L 0 75.9311 ZM 0 1 L 0 16.0883 L 0 32.069 L 7.99 24.08 L 24.645 40.7343 L 40.2343 25.145 L 23.58 8.49 L 31.069 1 L 16.09 1 L 15.5883 0.5 L 15.09 1 L 0 1 Z" fill="#ffffff"/>		</g>	</g></svg>