<?xml version="1.0" standalone="no"?><!-- Generator: Adobe Fireworks CS6, Export SVG Extension by Aaron Beall (http://fireworks.abeall.com) . Version: 0.6.1  --><!DOCTYPE svg PUBLIC "-//W3C//DTD SVG 1.1//EN" "http://www.w3.org/Graphics/SVG/1.1/DTD/svg11.dtd"><svg id="Untitled-Page%201" viewBox="0 0 70 69" style="background-color:#ffffff00" version="1.1"	xmlns="http://www.w3.org/2000/svg" xmlns:xlink="http://www.w3.org/1999/xlink" xml:space="preserve"	x="0px" y="0px" width="70px" height="69px">	<g>		<path d="M 28.4229 57.4241 C 25.6484 53.9045 22.602 50.7627 19.1096 47.8179 L 18.5269 47.3264 L 18.4859 46.9768 C 18.0137 46.6223 17.57 46.0813 17.2219 45.2695 C 17.1435 45.0874 17.0717 44.9497 17.0082 44.8608 C 16.9208 44.7375 16.8259 44.6157 16.7311 44.4937 C 16.386 44.0483 15.9497 43.4856 15.6763 42.7468 C 14.9091 42.0642 14.6939 41.1541 14.5752 40.6499 C 14.5497 40.5432 14.5326 40.4331 14.4922 40.3337 C 13.858 39.3542 13.3807 38.2761 12.9197 37.2334 C 12.5888 36.4849 12.2758 35.7773 11.9098 35.1216 C 11.652 34.6594 11.2576 33.9521 11.2994 32.8628 L 11.4108 29.9392 L 14.0336 31.1978 C 14.1352 31.2468 14.1957 31.2656 14.2241 31.2722 C 14.2316 31.2646 14.2659 31.2476 14.3159 31.2136 C 14.7119 30.9519 15.0084 30.5508 15.3566 29.9888 C 15.4193 29.8452 15.3939 29.301 15.3782 28.9761 L 15.3655 28.6826 C 15.3604 28.5391 15.3454 28.3982 15.3319 28.2551 C 15.2692 27.6052 15.178 26.6565 15.5904 25.5415 C 15.5052 25.3376 15.4297 25.1216 15.3641 24.8921 L 15.0526 23.8027 L 15.8466 22.999 C 16.2418 22.6003 16.6542 22.3025 17.0815 22.1077 C 17.0658 22.0061 17.0531 21.9006 17.0441 21.7908 L 17.009 21.365 L 17.1554 20.9648 C 17.6731 19.5488 18.834 19.186 19.271 19.0493 L 19.5967 18.9341 L 20.0098 18.9182 C 20.8629 18.9341 21.4478 19.3042 21.7944 19.5706 C 22.6805 19.481 23.6478 19.4397 24.8461 19.4397 C 25.4422 19.4397 26.0413 19.4495 26.642 19.4592 C 27.2239 19.469 27.8073 19.4788 28.39 19.4788 C 28.6597 19.4788 28.9136 19.4766 29.1549 19.4722 C 29.1586 18.6482 29.1579 17.825 29.1572 17.002 C 29.1564 15.9795 29.1557 14.9563 29.1624 13.9331 C 29.1804 11.4578 30.1888 10.4429 32.6428 10.4299 C 33.1254 10.427 33.608 10.4216 34.0913 10.4158 C 34.7868 10.4075 35.4822 10.3992 36.177 10.3992 C 37.1848 10.3992 38.0199 10.4165 38.8058 10.4541 C 39.4759 10.4856 40.1445 10.5398 40.813 10.5942 C 41.8126 10.6753 42.756 10.7512 43.6966 10.7512 C 43.8386 10.7512 44.2188 10.7444 44.2188 10.7444 C 45.2026 10.7444 46.0624 11.1743 46.5787 11.9236 C 47.1172 12.7051 47.2114 13.7314 46.8371 14.738 C 46.7116 15.0745 46.5383 15.416 46.3217 15.7539 C 46.0453 16.1833 46.0206 16.5046 46.2267 16.9824 C 46.2619 17.063 46.3 17.1501 46.3381 17.2444 C 46.415 17.2156 46.4935 17.187 46.5719 17.1577 C 46.8199 17.0667 47.0657 16.9766 47.3129 16.8928 C 47.9487 16.6792 48.6083 16.5708 49.2747 16.5708 C 50.0269 16.5708 50.7963 16.7048 51.6271 16.981 C 52.9695 17.4285 53.6709 18.2117 53.715 19.3103 C 53.718 19.3931 53.9174 19.6946 54.0363 19.8745 C 54.2207 20.1545 54.4501 20.502 54.6346 20.9165 C 55.0664 21.8857 55.0701 23.0383 54.645 24.0774 C 54.1961 25.1743 53.3124 26.0449 52.2225 26.4668 C 51.9908 26.5564 51.7839 26.7642 51.4373 27.1245 C 51.3917 27.1719 51.3462 27.2192 51.2999 27.2668 C 51.2902 27.7505 51.2379 28.2087 51.1781 28.6541 C 51.6338 28.9106 52.0178 29.207 52.3449 29.4597 C 52.711 29.7427 53.0278 29.9866 53.2922 30.0737 C 54.7938 30.5645 55.5721 32.2173 55.0641 33.8372 C 54.8326 34.5796 54.9125 35.4275 55.0051 36.4104 C 55.0612 37.0024 55.1194 37.614 55.1142 38.2649 C 55.1127 38.4539 55.1179 38.6477 55.1224 38.845 C 55.1545 40.1541 55.2024 42.1155 53.6074 43.6685 C 53.5873 43.7266 53.5701 43.7874 53.5507 43.8467 C 53.5029 43.9956 53.4446 44.177 53.3639 44.3735 L 53.6388 45 L 53.1898 45.8315 C 52.7685 46.6133 52.141 47.2451 51.3245 47.7102 C 50.9129 47.9441 50.4729 48.0623 50.0142 48.0623 C 49.3576 48.0623 48.8586 47.8186 48.5605 47.6733 L 48.4432 47.6177 L 47.8538 47.3711 L 47.549 46.8511 C 46.8737 47.2422 46.1387 47.4341 45.3281 47.4341 C 45.0069 47.4348 44.6678 47.4023 44.3196 47.3398 C 43.6204 47.2144 42.0838 46.9382 41.0387 45.6541 L 40.9879 46.6252 L 39.52 46.863 C 39.3063 46.9036 39.059 46.9802 38.7968 47.0623 C 38.2373 47.2361 37.5418 47.4521 36.735 47.4521 C 36.2473 47.4521 35.7676 47.3723 35.3022 47.2136 C 35.2993 47.3098 35.2933 47.4084 35.2828 47.5085 C 35.4412 47.6604 35.5974 47.8411 35.74 48.0586 C 36.1501 48.6846 36.2098 49.2983 36.1576 49.7844 C 36.5259 50.0447 36.9741 50.4661 37.2505 51.1892 L 37.3887 51.5496 L 37.3774 51.9363 C 37.3618 52.4932 37.1945 52.9619 37.0727 53.3042 C 37.0615 53.3342 37.0496 53.3672 37.0383 53.4011 L 38.058 54.7734 L 36.3787 55.9021 C 35.7333 56.3354 35.0662 56.5549 34.3968 56.5549 C 33.4959 56.5549 32.8146 56.1692 32.3171 55.781 C 32.1132 55.9871 31.9167 56.3167 31.7247 56.8657 L 30.575 60.1538 L 28.4229 57.4241 Z" fill="#555555"/>		<path d="M 34.7368 69 C 15.8248 69 0.4396 53.572 0.4396 34.6074 C 0.4396 15.6436 15.8248 0.2156 34.7368 0.2156 C 53.6481 0.2156 69.0333 15.6436 69.0333 34.6074 C 69.0333 53.572 53.6481 69 34.7368 69 ZM 34.7368 5.925 C 18.9648 5.925 6.1333 18.7922 6.1333 34.6074 C 6.1333 50.4233 18.9648 63.2905 34.7368 63.2905 C 50.5081 63.2905 63.3396 50.4233 63.3396 34.6074 C 63.3396 18.7922 50.5081 5.925 34.7368 5.925 Z" fill="#555555"/>		<path d="M 70 62.7998 L 63.9091 68.9077 L 57.8182 62.7998 L 63.9091 56.6919 L 70 62.7998 Z" fill="#555555"/>	</g></svg>