<?xml version="1.0" standalone="no"?><!-- Generator: Adobe Fireworks CS6, Export SVG Extension by Aaron Beall (http://fireworks.abeall.com) . Version: 0.6.1  --><!DOCTYPE svg PUBLIC "-//W3C//DTD SVG 1.1//EN" "http://www.w3.org/Graphics/SVG/1.1/DTD/svg11.dtd"><svg id="Untitled-P%E1gina%201" viewBox="0 0 50 56" style="background-color:#ffffff00" version="1.1"	xmlns="http://www.w3.org/2000/svg" xmlns:xlink="http://www.w3.org/1999/xlink" xml:space="preserve"	x="0px" y="0px" width="50px" height="56px">	<g id="Capa%201">		<path d="M 24 23 L 41.7894 33 L 41.7894 27.6666 L 50 27.6666 L 50 18.3334 L 41.7894 18.3334 L 41.7894 13 L 24 23 ZM 0.1191 10.9939 L 11.7668 53.5648 C 12.2445 55.3107 14.0491 56.352 15.8002 55.8907 L 39.5105 49.6451 C 41.2989 49.174 42.3635 47.3578 41.8858 45.5886 L 38.77 34.05 L 36.315 32.675 L 38.5559 40.9783 C 38.7472 41.6863 38.3223 42.4147 37.6073 42.6053 L 13.8969 48.9246 C 13.1962 49.1114 12.4734 48.6954 12.282 47.9957 L 2.8923 13.6482 C 2.6995 12.9429 3.1108 12.2103 3.8115 12.012 L 27.5219 5.3004 C 28.2369 5.098 28.9733 5.5125 29.1661 6.2262 L 31.77 15.865 L 33.585 14.85 L 30.2381 2.4423 C 29.7556 0.655 27.9126 -0.3801 26.1241 0.1302 L 2.4138 6.8964 C 0.6629 7.396 -0.3633 9.2305 0.1191 10.9939 ZM 24.6385 49.4742 C 24.3518 48.42 24.9789 47.3368 26.0402 47.0545 C 27.1024 46.772 28.1967 47.3989 28.4834 48.4548 C 28.7701 49.5105 28.1406 50.5938 27.0785 50.8745 C 26.0172 51.1549 24.9252 50.528 24.6385 49.4742 Z" fill="#666666"/>	</g></svg>