<?xml version="1.0" standalone="no"?><!-- Generator: Adobe Fireworks CS6, Export SVG Extension by Aaron Beall (http://fireworks.abeall.com) . Version: 0.6.1  --><!DOCTYPE svg PUBLIC "-//W3C//DTD SVG 1.1//EN" "http://www.w3.org/Graphics/SVG/1.1/DTD/svg11.dtd"><svg id="Untitled-Page%201" viewBox="0 0 70 69" style="background-color:#ffffff00" version="1.1"	xmlns="http://www.w3.org/2000/svg" xmlns:xlink="http://www.w3.org/1999/xlink" xml:space="preserve"	x="0px" y="0px" width="70px" height="69px">	<g>		<path d="M 28.4404 51.9973 C 27.2476 51.9973 26.0023 51.3921 25.1907 50.4185 C 25.0629 50.2649 24.9748 50.1921 24.9301 50.1599 C 24.8561 50.1787 24.6666 50.2432 24.3079 50.4641 L 22.6886 51.4641 L 21.7745 49.8 C 21.6761 49.6211 21.4965 49.5483 20.7067 49.3667 C 20.053 49.2158 19.2392 49.0286 18.4695 48.5117 L 17.5677 47.9065 L 17.685 46.8306 C 18.0299 43.6563 19.2082 41.2041 21.2866 39.3323 C 21.685 38.9731 21.9069 38.6013 22.0771 38.0066 C 22.5016 36.5249 23.1747 34.6326 24.6282 33.115 C 23.9265 31.0664 24.3936 29.1497 24.8057 27.458 C 24.8638 27.219 24.9227 26.9783 24.9791 26.7336 L 25.4673 24.6157 L 27.4646 25.4932 C 27.5471 25.5288 27.6196 25.5535 27.6788 25.5742 C 27.9747 25.6775 28.7606 25.9531 29.0663 26.8354 C 29.2058 27.2378 29.2897 27.4807 30.7858 27.4807 C 33.687 27.4778 36.5823 27.4771 39.4766 27.4771 C 43.095 27.4771 46.7124 27.4785 50.3309 27.4827 C 50.3309 27.4827 50.8716 27.4729 50.9998 27.4729 C 51.6286 27.4729 52.4769 27.5325 53.4639 27.999 L 54.489 28.4834 L 54.4939 29.6133 C 54.5133 34.0645 54.5105 38.5571 54.5073 43.0176 L 54.5059 49.8562 L 53.9074 50.3911 C 52.8027 51.3794 51.6198 51.3794 51.2309 51.3794 C 51.0798 51.3794 50.9301 51.373 50.7821 51.3667 C 50.6895 51.3625 50.5978 51.3584 50.5077 51.3584 C 46.6831 51.3667 42.8629 51.3667 39.0421 51.3667 L 31.7876 51.3696 C 30.989 51.3704 30.5156 51.3816 30.0668 51.6094 C 29.5595 51.8667 29.0125 51.9973 28.4404 51.9973 Z" fill="#555555"/>		<path d="M 18.8045 28.498 C 18.3952 28.498 17.9556 28.4343 17.4208 28.2983 C 17.187 28.2388 16.9565 28.1672 16.7266 28.095 C 15.2491 27.6287 13.8826 27.1973 13.2852 25.9258 C 12.6825 24.6438 13.2454 23.2742 13.8411 21.8245 L 14.2476 20.8354 L 15.3139 20.7192 C 15.5612 20.6926 15.7402 20.6729 16.1798 19.4434 C 17.0213 17.092 17.9133 15.293 21.0333 15.293 C 21.4599 15.293 21.9513 15.321 22.6263 15.3843 C 23.8768 15.5022 24.9597 16.1985 25.5237 17.2483 C 26.0774 18.2793 26.0608 19.5354 25.4796 20.6091 C 25.1577 21.2031 24.7574 21.708 24.4042 22.1541 L 24.1766 22.4424 C 23.3438 23.5139 22.4896 24.6704 21.99 25.9954 C 21.3644 27.6558 20.2924 28.498 18.8045 28.498 Z" fill="#555555"/>		<path d="M 34.3417 69 C 15.4301 69 0.0449 53.572 0.0449 34.6074 C 0.0449 15.6436 15.4301 0.2156 34.3417 0.2156 C 53.2534 0.2156 68.6386 15.6436 68.6386 34.6074 C 68.6386 53.572 53.2534 69 34.3417 69 ZM 34.3417 5.925 C 18.5701 5.925 5.7386 18.7922 5.7386 34.6074 C 5.7386 50.4233 18.5701 63.2905 34.3417 63.2905 C 50.1134 63.2905 62.9449 50.4233 62.9449 34.6074 C 62.9449 18.7922 50.1134 5.925 34.3417 5.925 Z" fill="#555555"/>		<path d="M 69.6049 62.7998 L 63.514 68.9077 L 57.4236 62.7998 L 63.514 56.6919 L 69.6049 62.7998 Z" fill="#555555"/>	</g></svg>