<?xml version="1.0" standalone="no"?><!-- Generator: Adobe Fireworks CS6, Export SVG Extension by Aaron Beall (http://fireworks.abeall.com) . Version: 0.6.1  --><!DOCTYPE svg PUBLIC "-//W3C//DTD SVG 1.1//EN" "http://www.w3.org/Graphics/SVG/1.1/DTD/svg11.dtd"><svg id="Untitled-P%E1gina%201" style="background-color:#ffffff00" version="1.1"	xmlns="http://www.w3.org/2000/svg" xmlns:xlink="http://www.w3.org/1999/xlink" xml:space="preserve"	x="0px" y="0px" width="19px" height="19px">	<symbol id="shape-help"  viewBox="0 0 19 19">		<path d="M 2 9.5 C 2 5.3578 5.3578 2 9.5 2 C 13.6422 2 17 5.3578 17 9.5 C 17 13.6422 13.6422 17 9.5 17 C 5.3578 17 2 13.6422 2 9.5 ZM 0 9.5 C 0 14.7467 4.2532 19 9.5 19 C 14.7468 19 19 14.7467 19 9.5 C 19 4.2533 14.7468 0 9.5 0 C 4.2532 0 0 4.2533 0 9.5 Z" fill="#b6b6ba"/>		<path d="M 6.8218 4.564 C 7.4036 4.1881 8.1187 4 8.9668 4 C 10.0812 4 11.0071 4.2672 11.7443 4.8015 C 12.4813 5.3358 12.85 6.1274 12.85 7.1763 C 12.85 7.8194 12.6902 8.3612 12.3705 8.8015 C 12.1836 9.0686 11.8247 9.41 11.2935 9.8256 L 10.7698 10.2338 C 10.4845 10.4564 10.2952 10.7161 10.2018 11.0129 C 10.1428 11.201 10.1108 11.4929 10.1059 11.8886 L 8.1014 11.8886 C 8.1309 11.0526 8.2097 10.4749 8.3375 10.1558 C 8.4653 9.8367 8.7946 9.4694 9.3256 9.0538 L 9.864 8.6307 C 10.041 8.4972 10.1835 8.3513 10.2917 8.1929 C 10.4883 7.9208 10.5867 7.6215 10.5867 7.2949 C 10.5867 6.9191 10.4773 6.5764 10.2583 6.2672 C 10.0395 5.9579 9.6396 5.8033 9.0593 5.8033 C 8.4886 5.8033 8.0839 5.9938 7.8454 6.3748 C 7.6069 6.7558 7.4875 7.1515 7.4875 7.5621 L 5.35 7.5621 C 5.4091 6.1521 5.8998 5.1528 6.8218 4.564 ZM 8.0497 12.9053 L 10.2613 12.9053 L 10.2613 15.05 L 8.0497 15.05 L 8.0497 12.9053 Z" fill="#b6b6ba"/>	</symbol></svg>