<?xml version="1.0" standalone="no"?><!-- Generator: Adobe Fireworks CS6, Export SVG Extension by Aaron Beall (http://fireworks.abeall.com) . Version: 0.6.1  --><!DOCTYPE svg PUBLIC "-//W3C//DTD SVG 1.1//EN" "http://www.w3.org/Graphics/SVG/1.1/DTD/svg11.dtd"><svg id="Untitled-Page%201" viewBox="0 0 21 21" style="background-color:#ffffff00" version="1.1"	xmlns="http://www.w3.org/2000/svg" xmlns:xlink="http://www.w3.org/1999/xlink" xml:space="preserve"	x="0px" y="0px" width="21px" height="21px">	<symbol id="shape-map">		<g>			<path d="M 2.3195 13.7369 C 2.8089 13.779 2.931 13.2339 3.3115 13.0829 C 3.5958 12.97 4.1204 12.9552 4.4188 13.0441 C 4.6616 13.1163 4.8429 13.2537 5.0115 13.4296 C 5.2716 13.7009 5.5631 13.9544 5.8481 14.1982 C 6.3729 14.6469 7.0793 14.7054 7.6503 15.0595 C 7.9657 15.2551 7.871 15.5145 7.6619 15.7697 C 7.3566 16.1421 7.1124 16.5083 6.8752 16.929 C 6.5498 17.5056 5.7795 17.6036 5.3411 18.0997 L 5.288 18.1646 C 4.626 17.7266 4.0238 17.2052 3.4948 16.616 L 2.3195 13.7369 ZM 6.7418 5.3446 C 6.2845 4.9581 6.4302 4.6283 6.6927 4.1843 C 7.0517 3.5768 6.8392 2.7686 6.2344 2.3757 L 9.463 1.0577 C 9.7309 1.0314 10.0024 1.0176 10.2765 1.0147 C 10.1881 1.4392 10.2171 1.8986 10.0203 2.2971 C 9.8358 2.6708 9.5559 2.9495 9.2695 3.2475 C 8.9055 3.6262 8.3678 3.8156 8.068 4.2574 C 7.814 4.6317 7.3698 5.8754 6.7418 5.3446 ZM 3.4463 9.5269 C 3.0892 9.8181 2.9987 10.232 3.2361 10.6389 C 3.3715 10.8707 3.5079 11.0679 3.1015 11.0993 C 2.9321 11.1123 2.8356 11.0371 2.6823 10.9869 C 2.4965 10.9262 2.2895 10.9117 2.0948 10.9117 C 2.0042 10.7123 2.0331 10.4302 2.027 10.2164 C 2.011 9.6627 2.025 9.1116 2.038 8.558 C 2.0469 8.1817 2.0346 7.8005 2.1108 7.4301 C 2.1663 7.1599 2.2524 6.8982 2.2841 6.623 C 2.3705 5.8737 2.7142 5.3217 3.3507 4.894 L 4.0382 5.0863 C 4.1332 5.5283 4.5069 5.73 4.8758 5.9339 C 5.1916 6.1085 5.4287 6.4842 5.6012 6.8033 C 5.7651 7.1064 5.6055 7.3168 5.319 7.4263 C 4.9515 7.5668 4.5677 7.7446 4.401 8.1275 C 4.1624 8.6755 3.9196 9.1409 3.4463 9.5269 ZM 14.9808 3.9905 L 16.3563 3.211 C 18.3748 4.9247 19.6583 7.488 19.6583 10.3541 C 19.6583 10.594 19.6464 10.8309 19.6287 11.0662 C 19.4872 10.9505 19.3326 10.8435 19.1665 10.7432 C 18.506 10.3445 17.4301 10.3765 16.7743 10.8019 C 16.8167 10.983 16.8783 11.1784 16.83 11.3669 C 16.772 11.5927 16.5606 11.6538 16.4338 11.839 C 16.2296 12.1373 16.3551 12.2693 16.511 12.5269 C 16.6047 12.6817 16.6906 12.8818 16.7196 13.0594 C 16.7741 13.3947 16.5921 13.5676 16.3558 13.7753 C 15.9958 14.0915 15.6527 14.3945 15.3987 14.8144 C 15.0192 15.4417 15.1285 16.0277 15.0585 16.7187 C 15.0051 17.2447 14.8614 17.8498 14.2406 17.8884 C 13.7784 17.917 13.3791 17.7474 13.1486 17.3513 C 12.9169 16.9533 12.742 16.5072 12.7065 16.0429 C 12.677 15.658 12.7405 15.271 12.6861 14.8864 C 12.6078 14.3335 12.2786 13.9137 11.8271 13.6146 C 11.5063 13.4022 11.2634 13.4478 10.891 13.5065 C 10.4055 13.5831 9.7577 13.5617 9.408 13.1547 C 9.1157 12.8145 9.1157 12.3358 9.1782 11.916 C 9.2282 11.5806 9.3827 11.3032 9.4774 10.9866 C 9.5338 10.7982 9.5581 10.5981 9.6169 10.4096 C 9.7095 10.1133 9.8621 9.8031 10.112 9.6076 C 10.3296 9.4374 10.6339 9.4195 10.9118 9.405 C 11.5803 9.3701 12.164 9.6729 12.8168 9.6987 C 13.3396 9.7193 14.1436 9.5524 14.4162 9.0289 C 14.542 8.787 14.6783 7.9196 14.4282 7.7038 C 14.1798 7.4895 13.6468 7.8837 13.4121 7.9755 C 12.8109 8.2106 12.2112 8.2423 11.5786 8.2058 C 11.4183 8.1965 11.2578 8.1852 11.1596 8.3539 C 11.0973 8.461 11.1339 8.6225 11.0846 8.7389 C 10.9891 8.9649 10.7449 9.1037 10.5128 9.144 C 10.1169 9.2126 9.582 9.0132 9.5789 8.5442 C 9.5751 7.9736 10.5886 8.6305 10.5163 7.9323 C 10.4526 7.3176 10.6041 6.6723 11.2961 6.6103 C 11.7716 6.5676 12.2369 6.5094 12.6292 6.2191 C 12.8746 6.0376 13.1264 5.8034 13.2979 5.5488 C 13.4316 5.3505 13.429 5.3158 13.3591 5.1247 C 13.3061 4.9798 13.0707 4.5015 12.8834 4.5119 C 12.7729 4.5181 12.7027 5.1334 12.6114 5.2592 C 12.2346 5.7784 10.5965 5.6837 11.1256 4.8932 C 11.4498 4.4088 12.0693 3.9913 12.6063 3.7973 C 12.9435 3.6755 13.1445 3.7895 13.4438 3.9742 C 13.7231 4.1465 13.9496 4.3448 14.2969 4.2836 C 14.5205 4.2442 14.8039 4.1338 14.9808 3.9905 ZM 0 10.35 C 0 16.0662 4.6036 20.7 10.2828 20.7 C 15.9619 20.7 20.5656 16.0662 20.5656 10.35 C 20.5656 4.6338 15.9619 0 10.2828 0 C 4.6036 0 0 4.6338 0 10.35 Z" fill="#b6b6ba"/>		</g>	</symbol></svg>