<?xml version="1.0" standalone="no"?><!-- Generator: Adobe Fireworks CS6, Export SVG Extension by Aaron Beall (http://fireworks.abeall.com) . Version: 0.6.1  --><!DOCTYPE svg PUBLIC "-//W3C//DTD SVG 1.1//EN" "http://www.w3.org/Graphics/SVG/1.1/DTD/svg11.dtd"><svg id="Untitled-Page%201" viewBox="0 0 25 25" style="background-color:#ffffff00" version="1.1"	xmlns="http://www.w3.org/2000/svg" xmlns:xlink="http://www.w3.org/1999/xlink" xml:space="preserve"	x="0px" y="0px" width="25px" height="25px">	<g>		<path id="Ellipse" d="M 4 13 C 4 11.8954 4.8457 11 5.8889 11 C 6.9321 11 7.7778 11.8954 7.7778 13 C 7.7778 14.1046 6.9321 15 5.8889 15 C 4.8457 15 4 14.1046 4 13 Z" fill="#666666"/>		<path id="Ellipse2" d="M 10.6111 13 C 10.6111 11.8954 11.4568 11 12.5 11 C 13.5432 11 14.3889 11.8954 14.3889 13 C 14.3889 14.1046 13.5432 15 12.5 15 C 11.4568 15 10.6111 14.1046 10.6111 13 Z" fill="#666666"/>		<path id="Ellipse3" d="M 17.2222 13 C 17.2222 11.8954 18.0679 11 19.1111 11 C 20.1543 11 21 11.8954 21 13 C 21 14.1046 20.1543 15 19.1111 15 C 18.0679 15 17.2222 14.1046 17.2222 13 Z" fill="#666666"/>	</g></svg>