<?xml version="1.0" standalone="no"?><!-- Generator: Adobe Fireworks CS6, Export SVG Extension by Aaron Beall (http://fireworks.abeall.com) . Version: 0.6.1  --><!DOCTYPE svg PUBLIC "-//W3C//DTD SVG 1.1//EN" "http://www.w3.org/Graphics/SVG/1.1/DTD/svg11.dtd"><svg id="Untitled-Page%201" viewBox="0 0 70 69" style="background-color:#ffffff00" version="1.1"	xmlns="http://www.w3.org/2000/svg" xmlns:xlink="http://www.w3.org/1999/xlink" xml:space="preserve"	x="0px" y="0px" width="70px" height="69px">	<g>		<path d="M 20.726 55.9645 C 19.2274 55.1116 18.6895 53.963 18.5146 53.0729 C 17.8646 52.642 17.3762 52.1306 16.9386 51.6724 C 16.7017 51.4249 16.4782 51.1907 16.256 50.9991 L 15.3633 50.2289 L 15.6747 49.0984 C 16.0488 47.7372 16.8951 46.7336 18.1376 46.1639 C 18.1346 46.1614 17.0891 45.2258 17.0891 45.2258 L 17.6876 43.9716 C 17.6757 43.9716 17.6698 43.7736 17.6654 43.629 C 17.6558 43.2949 17.644 42.8785 17.7288 42.4073 L 17.889 41.5188 L 18.691 41.0905 C 19.2112 40.8123 19.8162 40.6653 20.4397 40.6653 C 20.6957 40.6653 20.9554 40.6902 21.207 40.7393 L 21.1635 40.6144 L 21.6955 39.8389 C 22.4886 38.6833 23.4582 38.4406 24.1319 38.4406 C 24.3104 38.4406 24.4927 38.4581 24.672 38.4928 C 25.6931 38.6887 26.507 39.33 27.0921 40.3989 C 27.1791 40.5583 27.2426 40.7131 27.2921 40.8513 C 27.3481 40.8041 27.4728 40.6942 27.6654 40.458 L 28.6423 39.261 L 29.918 39.9277 C 29.9741 39.8485 30.0353 39.7697 30.104 39.6925 C 30.1291 39.3323 30.2058 39.025 30.2634 38.7921 C 30.2847 38.7085 30.3121 38.6256 30.3231 38.5389 C 30.2036 37.8828 30.0309 36.8794 30.1888 35.7548 C 30.1151 35.7037 30.045 35.6543 29.9785 35.6072 C 29.7631 35.4548 29.4952 35.2656 29.392 35.2529 L 27.993 35.0813 L 27.7614 33.7048 C 27.6337 32.9493 27.7717 32.297 27.8727 31.8208 C 27.9081 31.6526 27.962 31.3984 27.9547 31.3188 L 27.5702 29.8132 L 28.9979 29.1793 C 29.0253 29.1594 29.1462 29.0449 29.2341 28.9609 C 29.4104 28.7926 29.6244 28.5895 29.8974 28.3939 C 29.859 28.3314 29.8243 28.2689 29.7934 28.2075 C 29.6406 28.215 29.5056 28.2383 29.3824 28.2784 C 28.9722 28.4115 28.5604 28.5392 28.1155 28.6771 L 25.2158 29.5831 L 25.0187 27.0898 C 24.9944 26.7693 24.9716 26.4666 24.9162 26.3584 C 24.3879 25.3297 24.4351 24.1194 25.0505 22.9514 C 25.1951 22.6769 25.3618 22.469 25.4791 22.3264 L 25.6636 20.9244 L 27.3223 20.9244 C 27.7643 20.9244 28.2018 20.9316 28.6357 20.939 C 29.0415 20.946 29.4443 20.953 29.8442 20.953 C 30.4191 20.953 30.8854 20.9385 31.3111 20.9061 C 31.4941 20.8922 31.6749 20.8859 31.8527 20.8859 C 33.0001 20.8859 34.0242 21.1571 34.928 21.3966 L 35.2239 21.4745 C 35.7714 21.6174 36.2864 21.7518 36.7468 21.7567 C 37.1895 21.7615 37.6234 21.8193 38.0513 21.9319 C 38.2609 21.3918 38.5191 20.9161 38.7456 20.4967 L 38.9072 20.1964 C 39.1448 19.75 39.2488 19.3907 39.2562 18.993 C 39.2739 18.1091 39.5831 17.3328 39.831 16.709 L 39.8937 16.5513 C 40.3083 15.4993 41.3376 14.8462 42.581 14.8462 L 42.6599 14.8463 C 43.2767 14.8463 43.9238 14.6637 44.6447 14.4435 C 44.9753 14.3424 45.3235 14.291 45.6799 14.291 C 46.1846 14.291 46.7136 14.3953 47.2537 14.6006 C 47.7274 14.781 48.0491 14.8582 48.3295 14.8582 L 48.4771 14.856 C 48.5449 14.856 48.6106 14.8582 48.6755 14.8613 C 49.0836 14.6769 49.5042 14.5841 49.9291 14.5841 C 51.4823 14.5841 52.6783 15.8119 52.7728 17.5034 C 52.8311 18.528 52.471 19.3623 52.2327 19.9144 C 51.9191 20.6425 51.5539 21.3339 51.1473 21.9681 C 50.4575 23.0425 50.1616 23.9692 50.2162 24.8853 C 50.2856 26.0569 50.0184 27.1208 49.4215 28.0466 C 49.4105 28.0638 49.3876 28.0989 49.4193 28.2004 C 49.9794 30.005 49.561 31.559 49.1972 32.5709 C 49.1486 32.7056 49.0976 32.8378 49.046 32.9701 C 48.9257 33.2806 48.7759 33.6674 48.8143 33.7897 C 49.1109 34.7404 48.8431 35.7467 48.1147 36.4164 C 47.9377 36.5803 47.771 36.7599 47.6027 36.9386 C 46.9896 37.5895 46.2267 38.4 45.0121 38.8165 C 44.7864 38.894 44.5148 39.0369 44.1599 39.7529 C 44.0994 39.874 44.0426 39.999 43.9858 40.124 C 43.67 40.8137 43.2376 41.7579 42.2777 42.4448 C 42.0511 42.6073 41.8372 42.7606 42.0305 43.9347 C 42.4393 46.4075 41.8954 48.5303 40.3187 50.6143 C 40.0324 50.9923 39.6672 51.2787 39.2016 51.4906 C 37.9037 52.0804 36.8848 52.941 36.0864 54.1207 C 35.387 55.1531 34.3532 55.6982 33.0952 55.6982 C 32.6591 55.6982 32.2563 55.6311 31.9921 55.5803 L 31.4174 55.4701 L 31.0063 55.0582 C 30.7319 54.7825 30.5334 54.4963 30.391 54.2113 C 29.7911 55.0184 28.7308 55.4456 27.8027 55.4456 C 27.1135 55.4456 26.4849 55.2064 26.0341 54.7723 C 25.9617 54.7032 25.7345 54.5867 25.5522 54.4929 C 25.3448 54.3867 25.1073 54.2646 24.8616 54.1084 C 24.261 54.4131 23.7061 54.9216 23.0487 55.6194 L 22.0253 56.7047 L 20.726 55.9645 Z" fill="#555555"/>		<path d="M 34.7368 68.7849 C 15.8248 68.7849 0.4396 53.3564 0.4396 34.3922 C 0.4396 15.4285 15.8248 0 34.7368 0 C 53.6481 0 69.0333 15.4285 69.0333 34.3922 C 69.0333 53.3564 53.6481 68.7849 34.7368 68.7849 ZM 34.7368 5.7096 C 18.9648 5.7096 6.1333 18.5767 6.1333 34.3922 C 6.1333 50.2081 18.9648 63.0753 34.7368 63.0753 C 50.5081 63.0753 63.3396 50.2081 63.3396 34.3922 C 63.3396 18.5767 50.5081 5.7096 34.7368 5.7096 Z" fill="#555555"/>		<path d="M 70 62.5847 L 63.9091 68.6925 L 57.8182 62.5847 L 63.9091 56.4769 L 70 62.5847 Z" fill="#555555"/>	</g></svg>