<?xml version="1.0" standalone="no"?>
<!-- Generator: Adobe Fireworks CS6, Export SVG Extension by Aaron Beall (http://fireworks.abeall.com) . Version: 0.6.1  -->
<!DOCTYPE svg PUBLIC "-//W3C//DTD SVG 1.1//EN" "http://www.w3.org/Graphics/SVG/1.1/DTD/svg11.dtd">
<svg id="Untitled-Page%201" viewBox="0 0 25 25" style="background-color:#ffffff00" version="1.1"
	xmlns="http://www.w3.org/2000/svg" xmlns:xlink="http://www.w3.org/1999/xlink" xml:space="preserve"
	x="0px" y="0px" width="25px" height="25px"
>
	<symbol id="shape-search">
		<path d="M 6.8824 12.3204 C 6.8824 9.5482 9.0388 7.1252 11.8055 6.8994 C 14.697 6.6637 17.1388 8.8989 17.1388 11.9021 C 17.1388 14.9053 14.697 17.3398 11.8055 17.3398 C 9.0388 17.3398 6.8824 15.0926 6.8824 12.3204 ZM 15.5128 18.0776 C 15.5798 18.1734 15.6593 18.2611 15.7477 18.3414 L 18.1974 20.5672 C 18.8044 21.1187 19.7969 21.1529 20.4503 20.6136 C 21.148 20.0381 21.1954 19.0397 20.5128 18.4192 L 17.7952 15.9506 C 18.6251 14.7653 19.1176 13.3269 19.1176 11.7767 C 19.1176 7.7224 15.7564 4.7047 11.7765 5.023 C 7.9683 5.3277 5 8.5989 5 12.3414 C 5 16.0838 7.9683 19.1176 11.7765 19.1176 C 13.13 19.1176 14.4105 18.7388 15.5128 18.0776 Z" fill="#555555"/>
	</symbol>
</svg>
