<?xml version="1.0" standalone="no"?><!-- Generator: Adobe Fireworks CS6, Export SVG Extension by Aaron Beall (http://fireworks.abeall.com) . Version: 0.6.1  --><!DOCTYPE svg PUBLIC "-//W3C//DTD SVG 1.1//EN" "http://www.w3.org/Graphics/SVG/1.1/DTD/svg11.dtd"><svg id="Untitled-Page%201" viewBox="0 0 16 16" style="background-color:#ffffff00" version="1.1"	xmlns="http://www.w3.org/2000/svg" xmlns:xlink="http://www.w3.org/1999/xlink" xml:space="preserve"	x="0px" y="0px" width="16px" height="16px">	<g id="Layer%201">		<path d="M 1.8824 7.3204 C 1.8824 4.5482 4.0388 2.1252 6.8055 1.8994 C 9.697 1.6637 12.1388 3.8989 12.1388 6.9021 C 12.1388 9.9053 9.697 12.3398 6.8055 12.3398 C 4.0388 12.3398 1.8824 10.0926 1.8824 7.3204 ZM 10.5128 13.0776 C 10.5798 13.1734 10.6593 13.2611 10.7477 13.3414 L 13.1974 15.5672 C 13.8044 16.1187 14.7969 16.1529 15.4503 15.6136 C 16.148 15.0381 16.1954 14.0397 15.5128 13.4192 L 12.7952 10.9506 C 13.6251 9.7653 14.1176 8.3269 14.1176 6.7767 C 14.1176 2.7224 10.7564 -0.2953 6.7765 0.023 C 2.9683 0.3277 0 3.5989 0 7.3414 C 0 11.0838 2.9683 14.1176 6.7765 14.1176 C 8.13 14.1176 9.4105 13.7388 10.5128 13.0776 Z" fill="#b6b6ba"/>	</g></svg>