<?xml version="1.0" encoding="utf-8"?>
<!-- Generator: Adobe Illustrator 18.1.1, SVG Export Plug-In . SVG Version: 6.00 Build 0)  -->
<svg version="1.1" id="Capa_1" xmlns="http://www.w3.org/2000/svg" xmlns:xlink="http://www.w3.org/1999/xlink" x="0px" y="0px"
	 width="15px" height="15px" viewBox="0 0 15 15" enable-background="new 0 0 15 15" xml:space="preserve">
<path fill-rule="evenodd" clip-rule="evenodd" fill="#BEBCC2" d="M7.5,5.2c1.4,0,2.4,1.1,2.4,2.5s-1.1,2.5-2.4,2.5S5.1,9,5.1,7.7
	S6.2,5.2,7.5,5.2z M7,0c0.3,0,0.7,0,1,0l0.8,2.1C9.2,2.2,9.6,2.3,10,2.5l1.9-1.1c0.3,0.2,0.5,0.4,0.8,0.7L12,4.3
	c0.3,0.4,0.5,0.7,0.6,1.1l2.1,0.4c0.1,0.3,0.1,0.6,0.2,1L13.1,8c0,0.5-0.1,0.8-0.2,1.3l1.4,1.8c-0.2,0.3-0.3,0.6-0.5,0.9l-2.2-0.3
	c-0.3,0.3-0.6,0.6-1,0.8l-0.1,2.2c-0.3,0.1-0.6,0.2-0.9,0.3l-1.5-1.7c-0.4,0-0.8,0-1.3,0L5.4,15c-0.3-0.1-0.6-0.2-1-0.3l0-2.2
	c-0.4-0.2-0.7-0.5-1-0.8l-2.2,0.3C1,11.6,0.9,11.4,0.7,11l1.4-1.8C2,8.8,1.9,8.5,1.9,8L0,6.8c0-0.4,0.1-0.7,0.2-1l2.1-0.4
	C2.5,5,2.7,4.6,3,4.3L2.3,2.1C2.5,1.9,2.8,1.7,3,1.5L5,2.5c0.4-0.2,0.8-0.3,1.2-0.5L7,0z"/>
</svg>
