<?xml version="1.0" standalone="no"?>
<!-- Generator: Adobe Fireworks CS6, Export SVG Extension by Aaron Beall (http://fireworks.abeall.com) . Version: 0.6.1  -->
<!DOCTYPE svg PUBLIC "-//W3C//DTD SVG 1.1//EN" "http://www.w3.org/Graphics/SVG/1.1/DTD/svg11.dtd">
<svg id="Untitled-P%E1gina%201" viewBox="0 0 18 18" style="background-color:#ffffff00" version="1.1"
	xmlns="http://www.w3.org/2000/svg" xmlns:xlink="http://www.w3.org/1999/xlink" xml:space="preserve"
	x="0px" y="0px" width="18px" height="18px"
>
	<g id="Capa%201">
		<path d="M 8.4951 1.0181 C 8.8486 0.994 9.1514 0.994 9.5049 1.0181 L 10.3091 3.094 C 10.7474 3.2002 11.1165 3.3364 11.5195 3.5409 L 13.4513 2.4749 C 13.7373 2.6869 13.9692 2.8842 14.2249 3.1331 L 13.5251 5.2477 C 13.7937 5.6147 13.99 5.9597 14.1692 6.3791 L 16.3247 6.8219 C 16.4094 7.1708 16.4619 7.4731 16.5 7.8303 L 14.6238 8.994 C 14.5969 9.4503 14.5286 9.8425 14.4001 10.2807 L 15.7708 12.025 C 15.6145 12.3475 15.4631 12.6134 15.2659 12.9119 L 13.0911 12.5802 C 12.7813 12.9122 12.4805 13.1682 12.1042 13.42 L 12.0486 15.6498 C 11.7246 15.795 11.4402 15.9 11.0999 16 L 9.644 14.3282 C 9.1963 14.3805 8.8037 14.3805 8.356 14.3282 L 6.9001 16 C 6.5598 15.9 6.2754 15.795 5.9514 15.6498 L 5.8958 13.42 C 5.5195 13.1682 5.2188 12.9122 4.9089 12.5802 L 2.7341 12.9119 C 2.5369 12.6134 2.3855 12.3475 2.2292 12.025 L 3.5999 10.2807 C 3.4714 9.8425 3.4031 9.4503 3.3762 8.994 L 1.5 7.8303 C 1.5381 7.4731 1.5906 7.1708 1.6753 6.8219 L 3.8308 6.3791 C 4.01 5.9597 4.2063 5.6147 4.4749 5.2477 L 3.7751 3.1331 C 4.0308 2.8842 4.2627 2.6869 4.5487 2.4749 L 6.4805 3.5409 C 6.8835 3.3364 7.2526 3.2002 7.6909 3.094 L 8.4951 1.0181 ZM 9 6.1719 C 10.3496 6.1719 11.4451 7.2828 11.4451 8.6516 C 11.4451 10.0204 10.3496 11.1314 9 11.1314 C 7.6504 11.1314 6.5549 10.0204 6.5549 8.6516 C 6.5549 7.2828 7.6504 6.1719 9 6.1719 Z" fill="#bebcc2"/>
	</g>
</svg>
