<?xml version="1.0" standalone="no"?><!-- Generator: Adobe Fireworks CS6, Export SVG Extension by Aaron Beall (http://fireworks.abeall.com) . Version: 0.6.1  --><!DOCTYPE svg PUBLIC "-//W3C//DTD SVG 1.1//EN" "http://www.w3.org/Graphics/SVG/1.1/DTD/svg11.dtd"><svg id="Untitled-P%E1gina%201" viewBox="0 0 18 18" style="background-color:#ffffff" version="1.1"	xmlns="http://www.w3.org/2000/svg" xmlns:xlink="http://www.w3.org/1999/xlink" xml:space="preserve"	x="0px" y="0px" width="18px" height="18px">	<g id="Capa%201">		<path d="M 1 9 C 1 10.6569 2.3431 12 4 12 C 4.809 12 5.5454 11.6805 6.085 11.16 L 11.0249 13.63 C 11.01 13.7515 11 13.8745 11 14 C 11 15.6569 12.3431 17 14 17 C 15.6569 17 17 15.6569 17 14 C 17 12.3431 15.6569 11 14 11 C 13.1909 11 12.459 11.3192 11.9199 11.84 L 6.975 9.37 C 6.9899 9.2484 7 9.1256 7 9 C 7 8.8743 6.9899 8.7516 6.975 8.63 L 11.915 6.16 C 12.4546 6.6805 13.191 7 14 7 C 15.6569 7 17 5.6569 17 4 C 17 2.3431 15.6569 1 14 1 C 12.3431 1 11 2.3431 11 4 C 11 4.1255 11.01 4.2485 11.0249 4.37 L 6.085 6.84 C 5.5454 6.3195 4.809 6 4 6 C 2.3431 6 1 7.3431 1 9 Z" fill="#555555"/>	</g></svg>