<?xml version="1.0" standalone="no"?><!-- Generator: Adobe Fireworks CS6, Export SVG Extension by Aaron Beall (http://fireworks.abeall.com) . Version: 0.6.1  --><!DOCTYPE svg PUBLIC "-//W3C//DTD SVG 1.1//EN" "http://www.w3.org/Graphics/SVG/1.1/DTD/svg11.dtd"><svg id="Untitled-Page%201" viewBox="0 0 44 45" style="background-color:#ffffff00" version="1.1"	xmlns="http://www.w3.org/2000/svg" xmlns:xlink="http://www.w3.org/1999/xlink" xml:space="preserve"	x="0px" y="0px" width="44px" height="45px">	<g id="Layer%201">		<g>			<path d="M 39.7241 33.0172 C 35.131 36.3901 29.1288 39.2445 26.3477 40.2906 C 22.2794 41.8204 10.0376 44.8357 9.5185 44.9644 C 9.494 44.968 9.4749 44.969 9.4507 44.9727 C 9.7581 45.0113 10.0753 45.0113 10.4004 44.9579 L 37.5767 40.5205 C 38.4476 40.3789 39.2113 39.9009 39.7277 39.1783 C 40.245 38.4539 40.4514 37.5714 40.3104 36.6898 L 39.7241 33.0172 Z" fill="#444444"/>			<path d="M 6.3001 10.3637 C 6.4329 11.193 7.1929 11.7749 8.043 11.6351 C 8.4439 11.5698 8.7957 11.3506 9.033 11.0178 C 9.2703 10.685 9.3658 10.2787 9.3012 9.8733 L 8.4148 4.3235 C 8.2948 3.5747 7.6647 3.0309 6.9174 3.0309 C 6.8365 3.0309 6.7547 3.0378 6.672 3.0511 C 6.271 3.1165 5.9201 3.3357 5.6819 3.6685 C 5.4446 4.0012 5.3492 4.4076 5.4146 4.813 L 6.3001 10.3637 Z" fill="#444444"/>			<path d="M 24.8649 7.3318 C 24.9977 8.1616 25.7614 8.7398 26.6077 8.6042 C 27.0087 8.5389 27.3596 8.3192 27.5978 7.9864 C 27.8351 7.6536 27.9305 7.2477 27.8651 6.8424 L 26.9787 1.2921 C 26.8596 0.5433 26.2305 0 25.4822 0 C 25.4014 0 25.3195 0.0064 25.2368 0.0202 C 24.8359 0.0855 24.484 0.3047 24.2467 0.6376 C 24.0094 0.9703 23.9139 1.3767 23.9785 1.782 L 24.8649 7.3318 Z" fill="#444444"/>			<path d="M 42.9606 24.7692 C 42.8342 24.589 41.9033 24.567 41.456 24.5559 C 40.2768 24.5283 38.8094 24.4933 38.053 23.2799 C 36.0929 20.1368 33.84 7.9129 33.7446 7.3944 C 33.481 5.7452 32.1118 4.5639 30.4844 4.5639 C 30.3089 4.5639 30.1317 4.5781 29.9525 4.6075 L 29.4089 4.6962 L 29.7034 6.5417 C 29.848 7.4431 29.6362 8.3477 29.1071 9.0887 C 28.5788 9.8292 27.796 10.3173 26.9041 10.463 C 26.7224 10.4924 26.5414 10.5071 26.3623 10.5071 C 24.6968 10.5071 23.2939 9.2983 23.0266 7.6325 L 22.7321 5.7865 L 10.845 7.7272 L 11.1395 9.5731 C 11.2831 10.475 11.0713 11.3796 10.5422 12.1201 C 10.014 12.8605 9.2313 13.3487 8.3393 13.494 C 8.1575 13.5238 7.9766 13.5381 7.7975 13.5381 C 6.131 13.5381 4.7291 12.3292 4.4618 10.6639 L 4.1672 8.8174 L 2.7772 9.0446 C 0.9789 9.3383 -0.2476 11.0569 0.0425 12.8753 L 4.4309 40.355 C 4.7191 42.1578 6.382 43.42 8.2194 43.1203 C 8.2739 43.1037 20.8019 40.0185 24.7676 38.5256 C 30.4989 36.3708 41.4324 30.3227 42.817 25.9431 C 43.0634 25.1627 43.0043 24.8317 42.9606 24.7692 Z" fill="#444444"/>		</g>	</g></svg>