<?xml version="1.0" standalone="no"?><!-- Generator: Adobe Fireworks CS6, Export SVG Extension by Aaron Beall (http://fireworks.abeall.com) . Version: 0.6.1  --><!DOCTYPE svg PUBLIC "-//W3C//DTD SVG 1.1//EN" "http://www.w3.org/Graphics/SVG/1.1/DTD/svg11.dtd"><svg id="Untitled-Page%201" viewBox="0 0 25 25" style="background-color:#ffffff00" version="1.1"	xmlns="http://www.w3.org/2000/svg" xmlns:xlink="http://www.w3.org/1999/xlink" xml:space="preserve"	x="0px" y="0px" width="25px" height="25px">	<symbol id="shape-soon">		<g>			<path d="M 21.7648 18.6091 C 19.364 20.408 16.2264 21.9304 14.7727 22.4883 C 12.646 23.3042 6.2469 24.9124 5.9756 24.981 C 5.9628 24.9829 5.9528 24.9835 5.9402 24.9854 C 6.1008 25.006 6.2666 25.006 6.4366 24.9776 L 20.6423 22.6109 C 21.0976 22.5354 21.4968 22.2805 21.7668 21.8951 C 22.0372 21.5088 22.145 21.0381 22.0714 20.5679 L 21.7648 18.6091 Z" fill="#444444"/>			<path d="M 4.2932 6.5273 C 4.3626 6.9696 4.7599 7.2799 5.2043 7.2054 C 5.4139 7.1706 5.5978 7.0537 5.7218 6.8762 C 5.8459 6.6987 5.8958 6.482 5.862 6.2658 L 5.3986 3.3059 C 5.3359 2.9065 5.0066 2.6165 4.6159 2.6165 C 4.5736 2.6165 4.5309 2.6202 4.4876 2.6273 C 4.278 2.6621 4.0946 2.779 3.9701 2.9565 C 3.846 3.134 3.7962 3.3507 3.8304 3.5669 L 4.2932 6.5273 Z" fill="#444444"/>			<path d="M 13.9976 4.9103 C 14.067 5.3528 14.4662 5.6612 14.9086 5.5889 C 15.1182 5.5541 15.3016 5.4369 15.4261 5.2594 C 15.5502 5.0819 15.6001 4.8655 15.5659 4.6493 L 15.1025 1.6891 C 15.0402 1.2897 14.7114 1 14.3203 1 C 14.278 1 14.2352 1.0034 14.1919 1.0108 C 13.9824 1.0456 13.7985 1.1625 13.6744 1.34 C 13.5504 1.5175 13.5005 1.7342 13.5342 1.9504 L 13.9976 4.9103 Z" fill="#444444"/>			<path d="M 23.4567 14.2103 C 23.3906 14.1141 22.904 14.1024 22.6702 14.0965 C 22.0538 14.0818 21.2868 14.0631 20.8914 13.416 C 19.8667 11.7396 18.6891 5.2202 18.6392 4.9437 C 18.5014 4.0641 17.7857 3.4341 16.935 3.4341 C 16.8433 3.4341 16.7506 3.4417 16.657 3.4574 L 16.3728 3.5047 L 16.5268 4.4889 C 16.6023 4.9697 16.4916 5.4521 16.2151 5.8473 C 15.9389 6.2422 15.5297 6.5026 15.0635 6.5803 C 14.9685 6.596 14.8739 6.6038 14.7803 6.6038 C 13.9097 6.6038 13.1763 5.9591 13.0366 5.0707 L 12.8827 4.0861 L 6.669 5.1212 L 6.8229 6.1057 C 6.898 6.5867 6.7873 7.0691 6.5107 7.464 C 6.2346 7.859 5.8254 8.1193 5.3592 8.1968 C 5.2642 8.2127 5.1696 8.2203 5.076 8.2203 C 4.2049 8.2203 3.472 7.5756 3.3323 6.6874 L 3.1783 5.7026 L 2.4517 5.8238 C 1.5117 5.9804 0.8706 6.897 1.0222 7.8668 L 3.3162 22.5227 C 3.4668 23.4841 4.336 24.1573 5.2965 23.9975 C 5.325 23.9886 11.8737 22.3432 13.9467 21.547 C 16.9426 20.3978 22.6578 17.1721 23.3816 14.8363 C 23.5104 14.4201 23.4795 14.2436 23.4567 14.2103 Z" fill="#444444"/>		</g>	</symbol></svg>