<?xml version="1.0" ?><!DOCTYPE svg  PUBLIC '-//W3C//DTD SVG 1.1//EN'  'http://www.w3.org/Graphics/SVG/1.1/DTD/svg11.dtd'><svg enable-background="new 0 0 512 512" height="512px" id="Layer_1" version="1.1" viewBox="0 0 512 512" width="512px" xml:space="preserve" xmlns="http://www.w3.org/2000/svg" xmlns:xlink="http://www.w3.org/1999/xlink"><path d="M480,288h-64c-17.688,0-32-14.312-32-32c0-17.688,14.312-32,32-32h64c17.688,0,32,14.312,32,32  C512,273.688,497.688,288,480,288z M391.75,165.5c-12.5,12.5-32.75,12.5-45.25,0s-12.5-32.75,0-45.25L391.75,75  c12.5-12.5,32.75-12.5,45.25,0s12.5,32.75,0,45.25L391.75,165.5z M256,512c-17.688,0-32-14.312-32-32v-64c0-17.688,14.312-32,32-32  c17.688,0,32,14.312,32,32v64C288,497.688,273.688,512,256,512z M256,128c-17.688,0-32-14.312-32-32V32c0-17.688,14.312-32,32-32  c17.688,0,32,14.312,32,32v64C288,113.688,273.688,128,256,128z M120.25,437c-12.5,12.5-32.75,12.5-45.25,0  c-12.5-12.469-12.5-32.75,0-45.25l45.25-45.25c12.5-12.5,32.75-12.5,45.25,0s12.5,32.75,0,45.25L120.25,437z M120.25,165.5  L75,120.25C62.5,107.75,62.5,87.5,75,75s32.75-12.5,45.25,0l45.25,45.25c12.5,12.5,12.5,32.75,0,45.25S132.75,178,120.25,165.5z   M128,256c0,17.688-14.312,32-32,32H32c-17.688,0-32-14.312-32-32c0-17.688,14.312-32,32-32h64C113.688,224,128,238.312,128,256z   M391.75,346.5L437,391.75c12.5,12.5,12.5,32.781,0,45.25c-12.5,12.5-32.75,12.5-45.25,0l-45.25-45.25  c-12.5-12.5-12.5-32.75,0-45.25S379.25,334,391.75,346.5z"/></svg>