<?xml version="1.0" standalone="no"?><!-- Generator: Adobe Fireworks CS6, Export SVG Extension by Aaron Beall (http://fireworks.abeall.com) . Version: 0.6.1  --><!DOCTYPE svg PUBLIC "-//W3C//DTD SVG 1.1//EN" "http://www.w3.org/Graphics/SVG/1.1/DTD/svg11.dtd"><svg id="Untitled-P%E1gina%201" viewBox="0 0 71 70" style="background-color:#ffffff00" version="1.1"	xmlns="http://www.w3.org/2000/svg" xmlns:xlink="http://www.w3.org/1999/xlink" xml:space="preserve"	x="0px" y="0px" width="71px" height="70px">	<g id="Capa%201">		<path d="M 70.4971 29.1045 C 69.8117 25.2109 68.5198 21.5276 66.5751 18.0676 C 64.5442 14.4536 61.9595 11.2798 58.7998 8.5728 C 56.2393 6.3794 53.4214 4.5688 50.3301 3.1753 C 46.8005 1.584 43.1172 0.5696 39.2551 0.1719 C 38.7171 0.1165 38.1647 0.1702 37.6392 0 L 33.422 0 C 33.294 0.0671 33.1547 0.0789 33.0134 0.085 C 30.9169 0.1777 28.8629 0.5396 26.8322 1.0427 C 21.5806 2.3442 16.8942 4.7351 12.7412 8.1582 C 8.614 11.5601 5.4501 15.687 3.2131 20.5049 C 1.7996 23.5493 0.8506 26.7329 0.3968 30.0559 C 0.3101 30.6912 0.2133 31.3245 0.1839 31.9663 C 0.1713 32.2427 0.1302 32.519 0 32.7722 L 0 37.2461 C 0.1412 37.5146 0.1727 37.8086 0.1901 38.1025 C 0.2494 39.1074 0.399 40.1013 0.5797 41.0903 C 1.3963 45.5603 3.0046 49.7285 5.4609 53.5771 C 7.6251 56.9678 10.2885 59.9153 13.468 62.4048 C 16.9036 65.0952 20.7159 67.0901 24.9028 68.3877 C 27.5289 69.2014 30.2156 69.7158 32.9574 69.8975 C 34.3015 69.9866 35.6494 70.0437 37.0075 69.957 C 38.675 69.8506 40.3327 69.7063 41.9735 69.4048 C 47.5657 68.3762 52.6209 66.1541 57.1299 62.7288 C 57.6956 62.2991 57.6924 62.2944 57.1711 61.78 L 45.1337 49.9014 C 45.0219 49.7913 44.9143 49.6765 44.7994 49.5696 C 44.617 49.3997 44.6412 49.2417 44.8131 49.0823 L 45.0732 48.824 L 48.9115 45.0361 C 49.535 44.4202 49.4814 44.4194 50.0915 45.0217 L 62.1662 56.937 L 62.5056 57.2642 C 62.6319 57.3821 62.7561 57.3701 62.8719 57.2473 L 63.0815 57.0142 C 64.459 55.3411 65.6691 53.5566 66.7101 51.6624 C 69.2283 47.0796 70.6367 42.1765 70.9398 36.9783 C 71.0934 34.3438 70.9557 31.7114 70.4971 29.1045 ZM 28.2507 46.604 C 17.2803 46.6394 8.8006 37.6516 8.8155 27.4092 C 8.8305 17.0884 17.3445 8.1919 28.3268 8.2297 C 38.8792 8.2664 47.719 16.5837 47.7083 27.4324 C 47.6973 38.4207 38.6787 46.6501 28.2507 46.604 ZM 48.0502 45.407 C 47.256 46.1919 46.4649 46.98 45.6624 47.7568 C 45.4204 47.9912 45.3403 47.9885 45.0884 47.7422 C 43.8782 46.5588 42.6737 45.3699 41.4735 44.1768 C 41.2094 43.9141 41.2077 43.8425 41.5088 43.5906 C 42.1265 43.0745 42.7065 42.521 43.2655 41.9453 C 43.4596 41.7454 43.6408 41.5332 43.8256 41.3247 C 44.0904 41.0259 44.1216 41.0195 44.4037 41.2839 C 44.6202 41.4868 44.8274 41.6992 45.0385 41.9077 L 47.9436 44.7769 C 48.0523 44.8845 48.1925 44.9746 48.212 45.1382 C 48.205 45.2627 48.1235 45.3342 48.0502 45.407 ZM 28.3063 9.9653 C 18.8607 9.8149 10.5831 17.4922 10.5413 27.3159 C 10.5004 36.9255 18.2001 44.8979 28.2433 44.9055 C 38.4017 44.9128 45.9325 36.8474 45.9799 27.5066 C 46.0297 17.7026 37.8855 9.8823 28.3063 9.9653 ZM 38.8887 35.4641 C 36.6096 36.6885 34.1862 37.4792 31.6013 37.7371 C 29.1806 37.9785 26.8012 37.7222 24.4649 37.0532 C 21.2971 36.1462 18.4812 34.584 15.9003 32.5845 C 15.2372 32.0706 14.5881 31.5388 14.0056 30.9343 C 13.7419 30.6606 13.743 30.6221 14.0827 30.4543 C 16.8951 29.0652 19.8188 28.0139 22.9481 27.5588 C 24.3818 27.3506 25.8227 27.2827 27.2566 27.3926 C 31.1552 27.6917 34.5798 29.0938 37.3861 31.8381 C 37.845 32.2869 38.3313 32.7151 38.646 33.3113 C 37.0415 32.6506 35.403 32.1453 33.6821 31.9531 C 32.8796 31.8635 32.0675 31.876 31.2615 31.9426 C 30.9135 31.9714 30.5705 32.0613 30.2259 32.127 C 30.1423 32.1428 30.0521 32.156 29.9831 32.302 C 30.6446 32.4285 31.3068 32.321 31.9521 32.4277 C 32.6099 32.5366 33.2725 32.6167 33.9218 32.7725 C 34.5535 32.9243 35.1797 33.0933 35.791 33.3152 C 36.4179 33.543 37.036 33.7908 37.6353 34.082 C 38.2309 34.3713 38.8026 34.7002 39.343 35.071 C 39.2499 35.3181 39.0513 35.377 38.8887 35.4641 ZM 40.2128 29.3623 C 39.2987 27.6733 38.228 26.2751 36.5154 25.4722 C 38.0282 26.8713 39.198 28.4785 39.823 30.4915 C 39.3737 30.5359 39.0199 30.4211 38.6723 30.3311 C 36.4486 29.7539 34.5068 28.6887 32.9344 27.0159 C 31.6008 25.5972 30.6732 23.938 30.0227 22.1204 C 29.6178 20.9893 29.3269 19.8318 29.1841 18.6396 C 29.1393 18.2661 29.1614 18.2334 29.5382 18.3171 C 30.6874 18.5728 31.8095 18.9172 32.8941 19.3752 C 34.5725 20.0837 36.1183 20.9988 37.3899 22.3057 C 39.0647 24.0273 40.0251 26.0852 40.249 28.4675 C 40.2731 28.7241 40.2912 28.9849 40.2128 29.3623 Z" fill="#555555"/>	</g></svg>