<?xml version="1.0" standalone="no"?><!-- Generator: Adobe Fireworks CS6, Export SVG Extension by Aaron Beall (http://fireworks.abeall.com) . Version: 0.6.1  --><!DOCTYPE svg PUBLIC "-//W3C//DTD SVG 1.1//EN" "http://www.w3.org/Graphics/SVG/1.1/DTD/svg11.dtd"><svg id="Untitled-P%E1gina%201" viewBox="0 0 32 42" style="background-color:#ffffff00" version="1.1"	xmlns="http://www.w3.org/2000/svg" xmlns:xlink="http://www.w3.org/1999/xlink" xml:space="preserve"	x="0px" y="0px" width="32px" height="42px">	<defs>		<filter id="filter1" x="-100%" y="-100%" width="300%" height="300%">			<!-- Sombra -->			<feOffset result="out" in="SourceGraphic" dx="0" dy="1"/>			<feColorMatrix result="out" in="out" type="matrix" values="0 0 0 0 0  0 0 0 0 0  0 0 0 0 0  0 0 0 0.2196 0"/>			<feGaussianBlur result="out" in="out" stdDeviation="2"/>			<feBlend in="SourceGraphic" in2="out" mode="normal" result="Sombra1"/>		</filter>	</defs>	<g id="Capa%201">		<g>			<path id="Ellipse" filter="url(#filter1)" d="M 2 15.5 C 2 7.7679 8.2679 1.5 16 1.5 C 23.7321 1.5 30 7.7679 30 15.5 C 30 23.2321 21.0428 33.0909 16 39.5 C 10.6621 33.0909 2 23.2321 2 15.5 Z" stroke="#e26706" stroke-width="2" fill="#f48300"/>			<g>				<path d="M 10 11.3125 L 10 23.2031 C 10 23.2656 10.0156 23.3281 10.0781 23.3906 C 10.125 23.4219 10.1875 23.4531 10.25 23.4531 L 10.75 23.4531 C 10.8125 23.4531 10.875 23.4219 10.9219 23.3906 C 10.9688 23.3281 11 23.2656 11 23.2031 L 11 11.3125 L 11 10.5 C 11 10.2188 10.9844 9.9844 10.9531 9.7969 C 10.9219 9.6094 10.7813 9.5 10.5 9.5 C 10.2188 9.5 9.9063 9.6094 9.5469 9.7969 C 9.1719 9.9844 9 10.2188 9 10.5 C 9 10.8594 9.3281 11.125 10 11.3125 L 10 11.3125 ZM 12.1406 18.3594 C 12.2344 18.4531 12.3594 18.5 12.5 18.5 C 12.5781 18.5 12.6719 18.4844 12.7656 18.4375 C 14.1719 17.8125 15.3906 17.5 16.3906 17.5 C 16.7656 17.5 17.125 17.5625 17.5 17.6563 C 17.8594 17.7656 18.1563 17.875 18.4063 18 C 18.6406 18.125 18.9219 18.25 19.25 18.3438 C 19.5625 18.4531 19.8906 18.5 20.2188 18.5 C 21.0156 18.5 21.9688 18.2031 23.0938 17.5781 C 23.2344 17.5156 23.3438 17.4375 23.4063 17.3594 C 23.4688 17.2969 23.5 17.1875 23.5 17.0625 L 23.5 11 C 23.5 10.875 23.4375 10.75 23.3438 10.6563 C 23.25 10.5625 23.125 10.5 23 10.5 C 22.9375 10.5 22.7969 10.5625 22.5781 10.6563 C 22.3594 10.7656 22.125 10.875 21.8906 11 C 21.6406 11.125 21.3594 11.25 21.0313 11.3438 C 20.6875 11.4531 20.3906 11.5 20.1094 11.5 C 19.8438 11.5 19.6094 11.4531 19.4219 11.3594 C 18.7656 11.0781 18.1875 10.8594 17.7031 10.7188 C 17.2188 10.5781 16.7031 10.5 16.1563 10.5 C 15.1875 10.5 14.0781 10.8125 12.8594 11.4375 C 12.5469 11.5938 12.3438 11.7031 12.25 11.7656 C 12.0781 11.8906 12 12.0469 12 12.2031 L 12 18 C 12 18.1406 12.0469 18.2656 12.1406 18.3594 L 12.1406 18.3594 Z" fill="#ffffff"/>			</g>		</g>	</g></svg>