<?xml version="1.0" encoding="UTF-8" standalone="no"?>
<svg width="20px" height="20px" viewBox="0 0 20 20" version="1.1" xmlns="http://www.w3.org/2000/svg" xmlns:xlink="http://www.w3.org/1999/xlink" xmlns:sketch="http://www.bohemiancoding.com/sketch/ns">
    <!-- Generator: Sketch 3.3.2 (12043) - http://www.bohemiancoding.com/sketch -->
    <title>Oval 82</title>
    <desc>Created with Sketch.</desc>
    <defs></defs>
    <g id="mob-2-zoom" stroke="none" stroke-width="1" fill="none" fill-rule="evenodd" sketch:type="MSPage">
        <g id="main-02-timeline" sketch:type="MSArtboardGroup" transform="translate(-120.000000, -460.000000)" fill="#666666">
            <g id="Group-Copy-3" sketch:type="MSLayerGroup" transform="translate(0.000000, 447.000000)">
                <g id="Country-data-+-Imported-EPS" transform="translate(120.000000, 13.000000)" sketch:type="MSShapeGroup">
                    <path d="M10,20 C15.5228475,20 20,15.5228475 20,10 C20,4.4771525 15.5228475,0 10,0 C4.4771525,0 0,4.4771525 0,10 C0,15.5228475 4.4771525,20 10,20 Z M10,18 C14.418278,18 18,14.418278 18,10 C18,5.581722 14.418278,2 10,2 C5.581722,2 2,5.581722 2,10 C2,14.418278 5.581722,18 10,18 Z M11.1470062,9.95576385 C11.1470062,9.46739121 10.8796585,9.04519373 10.4852546,8.81556595 L10.4852546,4.66175154 C10.4852546,4.29580294 10.1894517,4 9.82350308,4 C9.45755448,4 9.16175154,4.29580294 9.16175154,4.66175154 L9.16175154,8.81556595 C8.76734762,9.04519373 8.5,9.46739121 8.5,9.95576385 C8.5,10.6869993 9.09292938,11.2792669 9.82350308,11.2792669 C9.94261835,11.2792669 10.0551161,11.2587526 10.1643051,11.2296356 L11.9702251,13.0348938 C12.2289699,13.2936386 12.6478586,13.2936386 12.9059417,13.0348938 C13.1646866,12.7768107 13.1646866,12.3579219 12.9059417,12.0991771 L11.0986983,10.2919336 C11.1271536,10.1840681 11.1470062,10.0728939 11.1470062,9.95576385 Z" id="Oval-82"></path>
                </g>
            </g>
        </g>
    </g>
</svg>