<?xml version="1.0" standalone="no"?><!-- Generator: Adobe Fireworks CS6, Export SVG Extension by Aaron Beall (http://fireworks.abeall.com) . Version: 0.6.1  --><!DOCTYPE svg PUBLIC "-//W3C//DTD SVG 1.1//EN" "http://www.w3.org/Graphics/SVG/1.1/DTD/svg11.dtd"><svg id="Untitled-Page%201" viewBox="0 0 25 25" style="background-color:#ffffff00" version="1.1"	xmlns="http://www.w3.org/2000/svg" xmlns:xlink="http://www.w3.org/1999/xlink" xml:space="preserve"	x="0px" y="0px" width="25px" height="25px">	<symbol id="shape-world">		<path d="M 4.3195 15.7369 C 4.8089 15.779 4.931 15.2339 5.3115 15.0829 C 5.5958 14.97 6.1204 14.9552 6.4188 15.0441 C 6.6616 15.1163 6.8429 15.2537 7.0115 15.4296 C 7.2716 15.7009 7.5631 15.9544 7.8481 16.1982 C 8.3729 16.6469 9.0793 16.7054 9.6503 17.0595 C 9.9657 17.2551 9.871 17.5145 9.6619 17.7697 C 9.3566 18.1421 9.1124 18.5083 8.8752 18.929 C 8.5498 19.5056 7.7795 19.6036 7.3411 20.0997 L 7.288 20.1646 C 6.626 19.7266 6.0238 19.2052 5.4948 18.616 L 4.3195 15.7369 ZM 8.7418 7.3446 C 8.2845 6.9581 8.4302 6.6283 8.6927 6.1843 C 9.0517 5.5768 8.8392 4.7686 8.2344 4.3757 L 11.463 3.0577 C 11.7309 3.0314 12.0024 3.0176 12.2765 3.0147 C 12.1881 3.4392 12.2171 3.8986 12.0203 4.2971 C 11.8358 4.6708 11.5559 4.9495 11.2695 5.2475 C 10.9055 5.6262 10.3678 5.8156 10.068 6.2574 C 9.814 6.6317 9.3698 7.8754 8.7418 7.3446 ZM 5.4463 11.5269 C 5.0892 11.8181 4.9987 12.232 5.2361 12.6389 C 5.3715 12.8707 5.5079 13.0679 5.1015 13.0993 C 4.9321 13.1123 4.8356 13.0371 4.6823 12.9869 C 4.4965 12.9262 4.2895 12.9117 4.0948 12.9117 C 4.0042 12.7123 4.0331 12.4302 4.027 12.2164 C 4.011 11.6627 4.025 11.1116 4.038 10.558 C 4.0469 10.1817 4.0346 9.8005 4.1108 9.4301 C 4.1663 9.1599 4.2524 8.8982 4.2841 8.623 C 4.3705 7.8737 4.7142 7.3217 5.3507 6.894 L 6.0382 7.0863 C 6.1332 7.5283 6.5069 7.73 6.8758 7.9339 C 7.1916 8.1085 7.4287 8.4842 7.6012 8.8033 C 7.7651 9.1064 7.6055 9.3168 7.319 9.4263 C 6.9515 9.5668 6.5677 9.7446 6.401 10.1275 C 6.1624 10.6755 5.9196 11.1409 5.4463 11.5269 ZM 16.9808 5.9905 L 18.3563 5.211 C 20.3748 6.9247 21.6583 9.488 21.6583 12.3541 C 21.6583 12.594 21.6464 12.8309 21.6287 13.0662 C 21.4872 12.9505 21.3326 12.8435 21.1665 12.7432 C 20.506 12.3445 19.4301 12.3765 18.7743 12.8019 C 18.8167 12.983 18.8783 13.1784 18.83 13.3669 C 18.772 13.5927 18.5606 13.6538 18.4338 13.839 C 18.2296 14.1373 18.3551 14.2693 18.511 14.5269 C 18.6047 14.6817 18.6906 14.8818 18.7196 15.0594 C 18.7741 15.3947 18.5921 15.5676 18.3558 15.7753 C 17.9958 16.0915 17.6527 16.3945 17.3987 16.8144 C 17.0192 17.4417 17.1285 18.0277 17.0585 18.7187 C 17.0051 19.2447 16.8614 19.8498 16.2406 19.8884 C 15.7784 19.917 15.3791 19.7474 15.1486 19.3513 C 14.9169 18.9533 14.742 18.5072 14.7065 18.0429 C 14.677 17.658 14.7405 17.271 14.6861 16.8864 C 14.6078 16.3335 14.2786 15.9137 13.8271 15.6146 C 13.5063 15.4022 13.2634 15.4478 12.891 15.5065 C 12.4055 15.5831 11.7577 15.5617 11.408 15.1547 C 11.1157 14.8145 11.1157 14.3358 11.1782 13.916 C 11.2282 13.5806 11.3827 13.3032 11.4774 12.9866 C 11.5338 12.7982 11.5581 12.5981 11.6169 12.4096 C 11.7095 12.1133 11.8621 11.8031 12.112 11.6076 C 12.3296 11.4374 12.6339 11.4195 12.9118 11.405 C 13.5803 11.3701 14.164 11.6729 14.8168 11.6987 C 15.3396 11.7193 16.1436 11.5524 16.4162 11.0289 C 16.542 10.787 16.6783 9.9196 16.4282 9.7038 C 16.1798 9.4895 15.6468 9.8837 15.4121 9.9755 C 14.8109 10.2106 14.2112 10.2423 13.5786 10.2058 C 13.4183 10.1965 13.2578 10.1852 13.1596 10.3539 C 13.0973 10.461 13.1339 10.6225 13.0846 10.7389 C 12.9891 10.9649 12.7449 11.1037 12.5128 11.144 C 12.1169 11.2126 11.582 11.0132 11.5789 10.5442 C 11.5751 9.9736 12.5886 10.6305 12.5163 9.9323 C 12.4526 9.3176 12.6041 8.6723 13.2961 8.6103 C 13.7716 8.5676 14.2369 8.5094 14.6292 8.2191 C 14.8746 8.0376 15.1264 7.8034 15.2979 7.5488 C 15.4316 7.3505 15.429 7.3158 15.3591 7.1247 C 15.3061 6.9798 15.0707 6.5015 14.8834 6.5119 C 14.7729 6.5181 14.7027 7.1334 14.6114 7.2592 C 14.2346 7.7784 12.5965 7.6837 13.1256 6.8932 C 13.4498 6.4088 14.0693 5.9913 14.6063 5.7973 C 14.9435 5.6755 15.1445 5.7895 15.4438 5.9742 C 15.7231 6.1465 15.9496 6.3448 16.2969 6.2836 C 16.5205 6.2442 16.8039 6.1338 16.9808 5.9905 ZM 2 12.35 C 2 18.0662 6.6036 22.7 12.2828 22.7 C 17.9619 22.7 22.5656 18.0662 22.5656 12.35 C 22.5656 6.6338 17.9619 2 12.2828 2 C 6.6036 2 2 6.6338 2 12.35 Z" fill="#b6b6ba"/>	</symbol></svg>